ISO-10303-21;
HEADER;
FILE_DESCRIPTION (( 'STEP AP214' ),
    '1' );
FILE_NAME ('bottom damper.STEP',
    '2026-04-08T20:38:03',
    ( '' ),
    ( '' ),
    'SwSTEP 2.0',
    'SolidWorks 2026',
    '' );
FILE_SCHEMA (( 'AUTOMOTIVE_DESIGN' ));
ENDSEC;

DATA;
#1 = CARTESIAN_POINT ( 'NONE',  ( 4.386409561530370205, 3.877058397527571643, 1.800000000000000044 ) ) ;
#2 = LINE ( 'NONE', #74, #51 ) ;
#3 = LINE ( 'NONE', #828, #788 ) ;
#4 = VERTEX_POINT ( 'NONE', #289 ) ;
#5 = DIRECTION ( 'NONE',  ( -0.000000000000000000, -0.000000000000000000, 1.000000000000000000 ) ) ;
#6 = EDGE_CURVE ( 'NONE', #166, #186, #142, .T. ) ;
#7 = PLANE ( 'NONE',  #700 ) ;
#8 = VERTEX_POINT ( 'NONE', #11 ) ;
#9 = CARTESIAN_POINT ( 'NONE',  ( -10.86753602020040077, 3.877058397527583189, 0.000000000000000000 ) ) ;
#10 = LINE ( 'NONE', #283, #98 ) ;
#11 = CARTESIAN_POINT ( 'NONE',  ( -0.8960546911187651231, 3.877058397527575195, 1.800000000000000044 ) ) ;
#12 = ORIENTED_EDGE ( 'NONE', *, *, #537, .T. ) ;
#13 = APPLICATION_PROTOCOL_DEFINITION ( 'draft international standard', 'automotive_design', 1998, #429 ) ;
#14 = AXIS2_PLACEMENT_3D ( 'NONE', #261, #534, #317 ) ;
#15 = CARTESIAN_POINT ( 'NONE',  ( 5.756828581435941672, 3.877058397527571643, 2.799999999999999822 ) ) ;
#16 = VECTOR ( 'NONE', #37, 1000.000000000000000 ) ;
#17 = ORIENTED_EDGE ( 'NONE', *, *, #181, .T. ) ;
#18 = VERTEX_POINT ( 'NONE', #756 ) ;
#19 = ADVANCED_FACE ( 'NONE', ( #409 ), #207, .T. ) ;
#20 = DIRECTION ( 'NONE',  ( 0.4916273249797263878, -0.8708057035488907527, 0.000000000000000000 ) ) ;
#21 = VECTOR ( 'NONE', #473, 999.9999999999998863 ) ;
#22 = CARTESIAN_POINT ( 'NONE',  ( -5.585071767551271549, 3.877058397527572087, 1.800000000000000044 ) ) ;
#23 = ORIENTED_EDGE ( 'NONE', *, *, #603, .T. ) ;
#24 = AXIS2_PLACEMENT_3D ( 'NONE', #559, #367, #571 ) ;
#25 = DIRECTION ( 'NONE',  ( -0.4916273249797261102, -0.8708057035488909747, 0.000000000000000000 ) ) ;
#26 = DIRECTION ( 'NONE',  ( 0.8744478349734965406, 0.4851195563056229232, 0.000000000000000000 ) ) ;
#27 = CARTESIAN_POINT ( 'NONE',  ( 13.55328552369691053, 3.877058397527568978, 2.799999999999999822 ) ) ;
#28 = ORIENTED_EDGE ( 'NONE', *, *, #775, .F. ) ;
#29 = AXIS2_PLACEMENT_3D ( 'NONE', #67, #615, #273 ) ;
#30 = CARTESIAN_POINT ( 'NONE',  ( -13.33624280647566884, -2.122941602472415923, 1.800000000000000044 ) ) ;
#31 = CARTESIAN_POINT ( 'NONE',  ( 13.55328552369691053, 3.877058397527568978, 0.000000000000000000 ) ) ;
#32 = FILL_AREA_STYLE_COLOUR ( '', #658 ) ;
#33 = VERTEX_POINT ( 'NONE', #355 ) ;
#34 = CARTESIAN_POINT ( 'NONE',  ( 2.491341530399824311, -2.122941602472414147, 2.799999999999999822 ) ) ;
#35 = DIRECTION ( 'NONE',  ( -0.4916273249797261657, -0.8708057035488907527, 0.000000000000000000 ) ) ;
#36 = ORIENTED_EDGE ( 'NONE', *, *, #209, .T. ) ;
#37 = DIRECTION ( 'NONE',  ( -0.000000000000000000, -0.000000000000000000, 1.000000000000000000 ) ) ;
#38 = CARTESIAN_POINT ( 'NONE',  ( -14.25493224171899698, -2.122941602472415479, 2.799999999999999822 ) ) ;
#39 = DIRECTION ( 'NONE',  ( -0.000000000000000000, -0.000000000000000000, 1.000000000000000000 ) ) ;
#40 = ORIENTED_EDGE ( 'NONE', *, *, #769, .T. ) ;
#41 = CARTESIAN_POINT ( 'NONE',  ( -2.840563229335014483, 3.877058397527571643, 1.800000000000000044 ) ) ;
#42 = FACE_OUTER_BOUND ( 'NONE', #771, .T. ) ;
#43 = ORIENTED_EDGE ( 'NONE', *, *, #495, .F. ) ;
#44 = EDGE_CURVE ( 'NONE', #84, #555, #690, .T. ) ;
#45 = DIRECTION ( 'NONE',  ( -0.000000000000000000, -0.000000000000000000, 1.000000000000000000 ) ) ;
#46 = EDGE_LOOP ( 'NONE', ( #204, #528, #871, #507 ) ) ;
#47 = CARTESIAN_POINT ( 'NONE',  ( -13.33624280647566884, -2.122941602472415923, 1.800000000000000044 ) ) ;
#48 = EDGE_CURVE ( 'NONE', #710, #745, #82, .T. ) ;
#49 = EDGE_LOOP ( 'NONE', ( #102, #561, #336, #842 ) ) ;
#50 = LINE ( 'NONE', #407, #295 ) ;
#51 = VECTOR ( 'NONE', #541, 1000.000000000000000 ) ;
#52 = ORIENTED_EDGE ( 'NONE', *, *, #275, .T. ) ;
#53 = ORIENTED_EDGE ( 'NONE', *, *, #244, .F. ) ;
#54 = AXIS2_PLACEMENT_3D ( 'NONE', #405, #602, #194 ) ;
#55 = DIRECTION ( 'NONE',  ( -8.347860589179128124E-16, -1.000000000000000000, 0.000000000000000000 ) ) ;
#56 = DIRECTION ( 'NONE',  ( 1.000000000000000000, 0.000000000000000000, -0.000000000000000000 ) ) ;
#57 = EDGE_CURVE ( 'NONE', #752, #307, #252, .T. ) ;
#58 = ORIENTED_EDGE ( 'NONE', *, *, #244, .T. ) ;
#59 = DIRECTION ( 'NONE',  ( -0.000000000000000000, -0.000000000000000000, 1.000000000000000000 ) ) ;
#60 = CARTESIAN_POINT ( 'NONE',  ( -3.640563229335020967, 3.877058397527571643, 1.800000000000000044 ) ) ;
#61 = LINE ( 'NONE', #619, #447 ) ;
#62 = VECTOR ( 'NONE', #780, 1000.000000000000000 ) ;
#63 = VERTEX_POINT ( 'NONE', #156 ) ;
#64 = LINE ( 'NONE', #465, #622 ) ;
#65 = AXIS2_PLACEMENT_3D ( 'NONE', #66, #805, #609 ) ;
#66 = CARTESIAN_POINT ( 'NONE',  ( 10.55328552369692829, 0.8770583975275871857, 1.800000000000000044 ) ) ;
#67 = CARTESIAN_POINT ( 'NONE',  ( 2.491341530399824311, -2.122941602472414147, 1.800000000000000044 ) ) ;
#68 = CARTESIAN_POINT ( 'NONE',  ( 10.55328552369692829, 0.8770583975275871857, 2.799999999999999822 ) ) ;
#69 = EDGE_LOOP ( 'NONE', ( #732, #651, #584, #324 ) ) ;
#70 = LINE ( 'NONE', #338, #711 ) ;
#71 = EDGE_CURVE ( 'NONE', #307, #791, #3, .T. ) ;
#72 = EDGE_CURVE ( 'NONE', #729, #695, #218, .T. ) ;
#73 = CARTESIAN_POINT ( 'NONE',  ( 10.55328552369692829, -2.122941602472415479, 1.800000000000000044 ) ) ;
#74 = CARTESIAN_POINT ( 'NONE',  ( 2.491341530399824311, -2.122941602472414147, 1.800000000000000044 ) ) ;
#75 = EDGE_LOOP ( 'NONE', ( #774, #176, #219, #455 ) ) ;
#76 = VERTEX_POINT ( 'NONE', #834 ) ;
#77 = CARTESIAN_POINT ( 'NONE',  ( 10.55328552369692829, 0.8770583975275871857, 2.799999999999999822 ) ) ;
#78 = LINE ( 'NONE', #668, #831 ) ;
#79 = DIRECTION ( 'NONE',  ( 1.000000000000000000, 0.000000000000000000, -0.000000000000000000 ) ) ;
#80 = EDGE_CURVE ( 'NONE', #303, #851, #359, .T. ) ;
#81 = EDGE_LOOP ( 'NONE', ( #861, #136, #737, #428 ) ) ;
#82 = LINE ( 'NONE', #87, #667 ) ;
#83 = EDGE_CURVE ( 'NONE', #812, #307, #274, .T. ) ;
#84 = VERTEX_POINT ( 'NONE', #491 ) ;
#85 = LINE ( 'NONE', #420, #840 ) ;
#86 = CARTESIAN_POINT ( 'NONE',  ( 11.98392510528478638, 3.006420493910630487, 2.799999999999999822 ) ) ;
#87 = CARTESIAN_POINT ( 'NONE',  ( -9.948846584957077965, 3.877058397527571643, 1.800000000000000044 ) ) ;
#88 = VERTEX_POINT ( 'NONE', #764 ) ;
#89 = DIRECTION ( 'NONE',  ( 1.000000000000000000, 0.000000000000000000, 0.000000000000000000 ) ) ;
#90 = LINE ( 'NONE', #567, #546 ) ;
#91 = VECTOR ( 'NONE', #485, 1000.000000000000000 ) ;
#92 = CARTESIAN_POINT ( 'NONE',  ( 0.000000000000000000, 0.000000000000000000, 1.800000000000000044 ) ) ;
#93 = VERTEX_POINT ( 'NONE', #426 ) ;
#94 = FACE_OUTER_BOUND ( 'NONE', #148, .T. ) ;
#95 = CARTESIAN_POINT ( 'NONE',  ( 7.773805783048957530, -2.122941602472415479, 2.799999999999999822 ) ) ;
#96 = CARTESIAN_POINT ( 'NONE',  ( -0.8960546911187641239, 3.877058397527572531, 1.800000000000000044 ) ) ;
#97 = EDGE_LOOP ( 'NONE', ( #260, #128, #759, #157 ) ) ;
#98 = VECTOR ( 'NONE', #547, 1000.000000000000000 ) ;
#99 = EDGE_CURVE ( 'NONE', #450, #691, #883, .T. ) ;
#100 = LINE ( 'NONE', #236, #125 ) ;
#101 = FACE_OUTER_BOUND ( 'NONE', #134, .T. ) ;
#102 = ORIENTED_EDGE ( 'NONE', *, *, #535, .T. ) ;
#103 = LINE ( 'NONE', #305, #707 ) ;
#104 = PLANE ( 'NONE',  #370 ) ;
#105 = EDGE_LOOP ( 'NONE', ( #616, #505, #721, #760, #569, #859, #621, #640, #281, #549, #385, #542, #419, #566, #321, #687, #418, #591, #587, #327, #539, #365 ) ) ;
#106 = AXIS2_PLACEMENT_3D ( 'NONE', #829, #728, #35 ) ;
#107 = LINE ( 'NONE', #411, #734 ) ;
#108 = LINE ( 'NONE', #793, #761 ) ;
#109 = PLANE ( 'NONE',  #302 ) ;
#110 = PRODUCT_DEFINITION_FORMATION_WITH_SPECIFIED_SOURCE ( 'ANY', '', #715, .NOT_KNOWN. ) ;
#111 = ORIENTED_EDGE ( 'NONE', *, *, #520, .F. ) ;
#112 = ADVANCED_FACE ( 'NONE', ( #202 ), #7, .F. ) ;
#113 = PLANE ( 'NONE',  #596 ) ;
#114 = ORIENTED_EDGE ( 'NONE', *, *, #275, .F. ) ;
#115 = ADVANCED_FACE ( 'NONE', ( #364 ), #431, .T. ) ;
#116 = CARTESIAN_POINT ( 'NONE',  ( 3.410030965643150225, -2.122941602472415479, 2.799999999999999822 ) ) ;
#117 = EDGE_LOOP ( 'NONE', ( #193, #243, #114, #28, #725, #457, #830, #538, #291, #40, #386, #415, #511, #122, #23, #152, #265, #757, #330, #17, #578, #655 ) ) ;
#118 = ORIENTED_EDGE ( 'NONE', *, *, #483, .F. ) ;
#119 = FACE_OUTER_BOUND ( 'NONE', #464, .T. ) ;
#120 = EDGE_CURVE ( 'NONE', #745, #170, #841, .T. ) ;
#121 = CARTESIAN_POINT ( 'NONE',  ( -0.8960546911187641239, 3.877058397527572531, 1.800000000000000044 ) ) ;
#122 = ORIENTED_EDGE ( 'NONE', *, *, #388, .T. ) ;
#123 = AXIS2_PLACEMENT_3D ( 'NONE', #879, #266, #198 ) ;
#124 = DIRECTION ( 'NONE',  ( -0.000000000000000000, -0.000000000000000000, -1.000000000000000000 ) ) ;
#125 = VECTOR ( 'NONE', #641, 1000.000000000000000 ) ;
#126 = FACE_OUTER_BOUND ( 'NONE', #683, .T. ) ;
#127 = DIRECTION ( 'NONE',  ( 0.000000000000000000, 0.000000000000000000, 1.000000000000000000 ) ) ;
#128 = ORIENTED_EDGE ( 'NONE', *, *, #738, .T. ) ;
#129 = VERTEX_POINT ( 'NONE', #497 ) ;
#130 = CARTESIAN_POINT ( 'NONE',  ( 0.000000000000000000, 0.000000000000000000, 1.800000000000000044 ) ) ;
#131 = FACE_OUTER_BOUND ( 'NONE', #49, .T. ) ;
#132 = LINE ( 'NONE', #408, #251 ) ;
#133 = VECTOR ( 'NONE', #26, 1000.000000000000000 ) ;
#134 = EDGE_LOOP ( 'NONE', ( #392, #501, #53, #750, #801, #319, #802 ) ) ;
#135 = EDGE_CURVE ( 'NONE', #8, #255, #781, .T. ) ;
#136 = ORIENTED_EDGE ( 'NONE', *, *, #799, .F. ) ;
#137 = PLANE ( 'NONE',  #357 ) ;
#138 = CIRCLE ( 'NONE', #65, 2.999999999999992450 ) ;
#139 = ADVANCED_BREP_SHAPE_REPRESENTATION ( 'bottom damper', ( #229, #599 ), #298 ) ;
#140 = DIRECTION ( 'NONE',  ( -4.336808689942027104E-16, 1.000000000000000000, -0.000000000000000000 ) ) ;
#141 = DIRECTION ( 'NONE',  ( 0.000000000000000000, 0.000000000000000000, -1.000000000000000000 ) ) ;
#142 = LINE ( 'NONE', #284, #469 ) ;
#143 = ORIENTED_EDGE ( 'NONE', *, *, #579, .T. ) ;
#144 = CARTESIAN_POINT ( 'NONE',  ( -9.948846584957077965, 3.877058397527571643, 1.800000000000000044 ) ) ;
#145 = EDGE_CURVE ( 'NONE', #555, #350, #768, .T. ) ;
#146 = PLANE ( 'NONE',  #290 ) ;
#147 = DIRECTION ( 'NONE',  ( 0.000000000000000000, 0.000000000000000000, 1.000000000000000000 ) ) ;
#148 = EDGE_LOOP ( 'NONE', ( #238, #118, #739, #410 ) ) ;
#149 = ADVANCED_FACE ( 'NONE', ( #632 ), #510, .F. ) ;
#150 = LINE ( 'NONE', #402, #582 ) ;
#151 = EDGE_LOOP ( 'NONE', ( #659, #228, #744, #806, #629, #823, #351 ) ) ;
#152 = ORIENTED_EDGE ( 'NONE', *, *, #846, .F. ) ;
#153 = EDGE_CURVE ( 'NONE', #797, #791, #646, .T. ) ;
#154 = DIRECTION ( 'NONE',  ( 1.000000000000000000, 4.336808689942027597E-16, 0.000000000000000000 ) ) ;
#155 = CARTESIAN_POINT ( 'NONE',  ( 6.855116347805629395, -2.122941602472415479, 1.800000000000000044 ) ) ;
#156 = CARTESIAN_POINT ( 'NONE',  ( -9.891157424313187008, -2.122941602472415479, 1.800000000000000044 ) ) ;
#157 = ORIENTED_EDGE ( 'NONE', *, *, #250, .T. ) ;
#158 = DIRECTION ( 'NONE',  ( -0.000000000000000000, -0.000000000000000000, -1.000000000000000000 ) ) ;
#159 = DIRECTION ( 'NONE',  ( -0.8744478349734966516, -0.4851195563056228677, 0.000000000000000000 ) ) ;
#160 = DIRECTION ( 'NONE',  ( -1.000000000000000000, -4.460570478050241462E-16, 0.000000000000000000 ) ) ;
#161 = ORIENTED_EDGE ( 'NONE', *, *, #315, .T. ) ;
#162 = DIRECTION ( 'NONE',  ( -1.445602896647342368E-16, -1.000000000000000000, 0.000000000000000000 ) ) ;
#163 = DIRECTION ( 'NONE',  ( 1.000000000000000000, 2.440108489573447821E-16, -0.000000000000000000 ) ) ;
#164 = VECTOR ( 'NONE', #160, 1000.000000000000000 ) ;
#165 = CARTESIAN_POINT ( 'NONE',  ( 7.773805783048957530, -2.122941602472415479, 1.800000000000000044 ) ) ;
#166 = VERTEX_POINT ( 'NONE', #445 ) ;
#167 = ADVANCED_FACE ( 'NONE', ( #180 ), #109, .F. ) ;
#168 = CARTESIAN_POINT ( 'NONE',  ( -10.86753602020040077, 3.877058397527583189, 2.799999999999999822 ) ) ;
#169 = SURFACE_STYLE_USAGE ( .BOTH. , #777 ) ;
#170 = VERTEX_POINT ( 'NONE', #565 ) ;
#171 = VECTOR ( 'NONE', #858, 1000.000000000000000 ) ;
#172 = AXIS2_PLACEMENT_3D ( 'NONE', #575, #490, #763 ) ;
#173 = DIRECTION ( 'NONE',  ( -0.000000000000000000, -0.000000000000000000, 1.000000000000000000 ) ) ;
#174 = AXIS2_PLACEMENT_3D ( 'NONE', #747, #124, #717 ) ;
#175 = DIRECTION ( 'NONE',  ( -1.000000000000000000, 0.000000000000000000, -0.000000000000000000 ) ) ;
#176 = ORIENTED_EDGE ( 'NONE', *, *, #769, .F. ) ;
#177 = VECTOR ( 'NONE', #417, 1000.000000000000000 ) ;
#178 = DIRECTION ( 'NONE',  ( 0.4916273249797263323, 0.8708057035488908637, -0.000000000000000000 ) ) ;
#179 = DIRECTION ( 'NONE',  ( -0.000000000000000000, 0.000000000000000000, -1.000000000000000000 ) ) ;
#180 = FACE_OUTER_BOUND ( 'NONE', #105, .T. ) ;
#181 = EDGE_CURVE ( 'NONE', #710, #691, #301, .T. ) ;
#182 = ORIENTED_EDGE ( 'NONE', *, *, #804, .F. ) ;
#183 = VECTOR ( 'NONE', #226, 1000.000000000000000 ) ;
#184 = ADVANCED_FACE ( 'NONE', ( #294 ), #104, .F. ) ;
#185 = DIRECTION ( 'NONE',  ( -1.000000000000000000, 0.000000000000000000, 0.000000000000000000 ) ) ;
#186 = VERTEX_POINT ( 'NONE', #719 ) ;
#187 = PRESENTATION_LAYER_ASSIGNMENT (  '', '', ( #545 ) ) ;
#188 = CARTESIAN_POINT ( 'NONE',  ( -3.640563229335018303, -2.122941602472415479, 1.800000000000000044 ) ) ;
#189 = ORIENTED_EDGE ( 'NONE', *, *, #520, .T. ) ;
#190 = VERTEX_POINT ( 'NONE', #165 ) ;
#191 = CARTESIAN_POINT ( 'NONE',  ( -9.948846584957077965, 3.877058397527571643, 2.799999999999999822 ) ) ;
#192 = PLANE ( 'NONE',  #790 ) ;
#193 = ORIENTED_EDGE ( 'NONE', *, *, #44, .F. ) ;
#194 = DIRECTION ( 'NONE',  ( 1.000000000000000000, 0.000000000000000000, 0.000000000000000000 ) ) ;
#195 = LINE ( 'NONE', #462, #452 ) ;
#196 = EDGE_LOOP ( 'NONE', ( #371, #182, #341, #818 ) ) ;
#197 = ORIENTED_EDGE ( 'NONE', *, *, #688, .T. ) ;
#198 = DIRECTION ( 'NONE',  ( 0.4916273249797258327, -0.8708057035488909747, 0.000000000000000000 ) ) ;
#199 = CARTESIAN_POINT ( 'NONE',  ( -9.948846584957077965, 3.877058397527571643, 1.800000000000000044 ) ) ;
#200 = EDGE_CURVE ( 'NONE', #872, #851, #577, .T. ) ;
#201 = FACE_OUTER_BOUND ( 'NONE', #196, .T. ) ;
#202 = FACE_OUTER_BOUND ( 'NONE', #81, .T. ) ;
#203 = PRODUCT_DEFINITION_SHAPE ( 'NONE', 'NONE',  #795 ) ;
#204 = ORIENTED_EDGE ( 'NONE', *, *, #648, .F. ) ;
#205 = CARTESIAN_POINT ( 'NONE',  ( 6.855116347805629395, -2.122941602472415479, 1.800000000000000044 ) ) ;
#206 = FACE_OUTER_BOUND ( 'NONE', #660, .T. ) ;
#207 = PLANE ( 'NONE',  #277 ) ;
#208 = ORIENTED_EDGE ( 'NONE', *, *, #714, .T. ) ;
#209 = EDGE_CURVE ( 'NONE', #555, #4, #850, .T. ) ;
#210 = DIRECTION ( 'NONE',  ( 1.000000000000000000, 0.000000000000000000, -0.000000000000000000 ) ) ;
#211 = VECTOR ( 'NONE', #628, 1000.000000000000000 ) ;
#212 = ORIENTED_EDGE ( 'NONE', *, *, #44, .T. ) ;
#213 = VECTOR ( 'NONE', #173, 1000.000000000000000 ) ;
#214 = EDGE_LOOP ( 'NONE', ( #416, #446, #866, #669 ) ) ;
#215 = VECTOR ( 'NONE', #178, 999.9999999999998863 ) ;
#216 = LINE ( 'NONE', #304, #562 ) ;
#217 = FACE_OUTER_BOUND ( 'NONE', #643, .T. ) ;
#218 = LINE ( 'NONE', #346, #862 ) ;
#219 = ORIENTED_EDGE ( 'NONE', *, *, #376, .F. ) ;
#220 = ADVANCED_FACE ( 'NONE', ( #101 ), #378, .F. ) ;
#221 = LINE ( 'NONE', #86, #285 ) ;
#222 = CARTESIAN_POINT ( 'NONE',  ( 13.55328552369692119, 0.8770583975275871857, 2.799999999999999822 ) ) ;
#223 = VECTOR ( 'NONE', #585, 1000.000000000000000 ) ;
#224 = ORIENTED_EDGE ( 'NONE', *, *, #249, .F. ) ;
#225 = CARTESIAN_POINT ( 'NONE',  ( -3.640563229335020967, 3.877058397527571643, 1.800000000000000044 ) ) ;
#226 = DIRECTION ( 'NONE',  ( -1.000000000000000000, 8.347860589179127138E-16, 0.000000000000000000 ) ) ;
#227 = DIRECTION ( 'NONE',  ( -0.000000000000000000, -0.000000000000000000, 1.000000000000000000 ) ) ;
#228 = ORIENTED_EDGE ( 'NONE', *, *, #612, .F. ) ;
#229 = MANIFOLD_SOLID_BREP ( 'Cut-Extrude1', #320 ) ;
#230 = CARTESIAN_POINT ( 'NONE',  ( 0.02263474412455765417, 3.877058397527571643, 1.800000000000000044 ) ) ;
#231 = CARTESIAN_POINT ( 'NONE',  ( -10.86753602020040077, 3.877058397527583189, 2.799999999999999822 ) ) ;
#232 = ADVANCED_FACE ( 'NONE', ( #733 ), #257, .F. ) ;
#233 = ADVANCED_FACE ( 'NONE', ( #808 ), #137, .F. ) ;
#234 = EDGE_LOOP ( 'NONE', ( #877, #543, #524, #259 ) ) ;
#235 =( NAMED_UNIT ( * ) PLANE_ANGLE_UNIT ( ) SI_UNIT ( $, .RADIAN. ) );
#236 = CARTESIAN_POINT ( 'NONE',  ( -8.972467989069858874, -2.122941602472415479, 2.799999999999999822 ) ) ;
#237 = FILL_AREA_STYLE ('',( #32 ) ) ;
#238 = ORIENTED_EDGE ( 'NONE', *, *, #6, .T. ) ;
#239 = EDGE_CURVE ( 'NONE', #395, #752, #107, .T. ) ;
#240 = CARTESIAN_POINT ( 'NONE',  ( -3.640563229335020967, 3.877058397527571643, 1.800000000000000044 ) ) ;
#241 = CARTESIAN_POINT ( 'NONE',  ( -2.840563229335015372, -2.122941602472415479, 2.799999999999999822 ) ) ;
#242 = DIRECTION ( 'NONE',  ( -0.000000000000000000, -0.000000000000000000, 1.000000000000000000 ) ) ;
#243 = ORIENTED_EDGE ( 'NONE', *, *, #483, .T. ) ;
#244 = EDGE_CURVE ( 'NONE', #129, #855, #825, .T. ) ;
#245 = PLANE ( 'NONE',  #14 ) ;
#246 = DIRECTION ( 'NONE',  ( 0.4916273249797258327, -0.8708057035488910858, 0.000000000000000000 ) ) ;
#247 = CARTESIAN_POINT ( 'NONE',  ( -9.948846584957077965, 3.877058397527571643, 1.800000000000000044 ) ) ;
#248 = ORIENTED_EDGE ( 'NONE', *, *, #461, .F. ) ;
#249 = EDGE_CURVE ( 'NONE', #170, #851, #593, .T. ) ;
#250 = EDGE_CURVE ( 'NONE', #63, #710, #382, .T. ) ;
#251 = VECTOR ( 'NONE', #816, 1000.000000000000000 ) ;
#252 = CIRCLE ( 'NONE', #583, 2.999999999999992450 ) ;
#253 = ORIENTED_EDGE ( 'NONE', *, *, #57, .T. ) ;
#254 = VECTOR ( 'NONE', #673, 1000.000000000000000 ) ;
#255 = VERTEX_POINT ( 'NONE', #41 ) ;
#256 = EDGE_LOOP ( 'NONE', ( #189, #678, #663, #423 ) ) ;
#257 = CYLINDRICAL_SURFACE ( 'NONE', #174, 4.999999999999999112 ) ;
#258 = CARTESIAN_POINT ( 'NONE',  ( 10.55328552369692829, -2.122941602472415479, 0.000000000000000000 ) ) ;
#259 = ORIENTED_EDGE ( 'NONE', *, *, #120, .T. ) ;
#260 = ORIENTED_EDGE ( 'NONE', *, *, #48, .T. ) ;
#261 = CARTESIAN_POINT ( 'NONE',  ( 13.55328552369691053, 3.877058397527568978, 2.799999999999999822 ) ) ;
#262 = VECTOR ( 'NONE', #313, 1000.000000000000000 ) ;
#263 = VECTOR ( 'NONE', #162, 1000.000000000000000 ) ;
#264 = CARTESIAN_POINT ( 'NONE',  ( 13.55328552369691053, 3.877058397527568978, 0.000000000000000000 ) ) ;
#265 = ORIENTED_EDGE ( 'NONE', *, *, #688, .F. ) ;
#266 = DIRECTION ( 'NONE',  ( -0.8708057035488909747, -0.4916273249797258327, 0.000000000000000000 ) ) ;
#267 = ADVANCED_FACE ( 'NONE', ( #526 ), #245, .F. ) ;
#268 = DIRECTION ( 'NONE',  ( 1.000000000000000000, 0.000000000000000000, -0.000000000000000000 ) ) ;
#269 = LINE ( 'NONE', #354, #860 ) ;
#270 = DIRECTION ( 'NONE',  ( 1.000000000000000000, 0.000000000000000000, 0.000000000000000000 ) ) ;
#271 = CARTESIAN_POINT ( 'NONE',  ( 5.756828581435939896, 3.877058397527568978, 2.799999999999999822 ) ) ;
#272 = DIRECTION ( 'NONE',  ( -1.000000000000000000, 2.838573604251346187E-16, -0.000000000000000000 ) ) ;
#273 = DIRECTION ( 'NONE',  ( -0.4916273249797259437, 0.8708057035488908637, 0.000000000000000000 ) ) ;
#274 = LINE ( 'NONE', #222, #404 ) ;
#275 = EDGE_CURVE ( 'NONE', #88, #186, #70, .T. ) ;
#276 = ORIENTED_EDGE ( 'NONE', *, *, #544, .T. ) ;
#277 = AXIS2_PLACEMENT_3D ( 'NONE', #68, #147, #79 ) ;
#278 = LINE ( 'NONE', #680, #254 ) ;
#279 = DIRECTION ( 'NONE',  ( -1.000000000000000000, 0.000000000000000000, 0.000000000000000000 ) ) ;
#280 = CARTESIAN_POINT ( 'NONE',  ( -2.840563229335014483, 3.877058397527571643, 1.800000000000000044 ) ) ;
#281 = ORIENTED_EDGE ( 'NONE', *, *, #239, .T. ) ;
#282 = LINE ( 'NONE', #9, #722 ) ;
#283 = CARTESIAN_POINT ( 'NONE',  ( 7.773805783048957530, -2.122941602472415479, 1.800000000000000044 ) ) ;
#284 = CARTESIAN_POINT ( 'NONE',  ( -3.640563229335020967, 3.877058397527571643, 2.799999999999999822 ) ) ;
#285 = VECTOR ( 'NONE', #309, 1000.000000000000000 ) ;
#286 = ORIENTED_EDGE ( 'NONE', *, *, #838, .T. ) ;
#287 = PLANE ( 'NONE',  #674 ) ;
#288 = DIRECTION ( 'NONE',  ( -1.445602896647342368E-16, -1.000000000000000000, 0.000000000000000000 ) ) ;
#289 = CARTESIAN_POINT ( 'NONE',  ( -8.972467989069858874, -2.122941602472415479, 1.800000000000000044 ) ) ;
#290 = AXIS2_PLACEMENT_3D ( 'NONE', #463, #141, #553 ) ;
#291 = ORIENTED_EDGE ( 'NONE', *, *, #537, .F. ) ;
#292 = CARTESIAN_POINT ( 'NONE',  ( 0.000000000000000000, 0.000000000000000000, 0.000000000000000000 ) ) ;
#293 = LINE ( 'NONE', #34, #476 ) ;
#294 = FACE_OUTER_BOUND ( 'NONE', #214, .T. ) ;
#295 = VECTOR ( 'NONE', #536, 1000.000000000000000 ) ;
#296 = ORIENTED_EDGE ( 'NONE', *, *, #83, .F. ) ;
#297 = ADVANCED_FACE ( 'NONE', ( #665 ), #884, .F. ) ;
#298 =( GEOMETRIC_REPRESENTATION_CONTEXT ( 3 ) GLOBAL_UNCERTAINTY_ASSIGNED_CONTEXT ( ( #847 ) ) GLOBAL_UNIT_ASSIGNED_CONTEXT ( ( #692, #235, #502 ) ) REPRESENTATION_CONTEXT ( 'NONE', 'WORKASPACE' ) );
#299 = EDGE_CURVE ( 'NONE', #787, #375, #580, .T. ) ;
#300 = PLANE ( 'NONE',  #172 ) ;
#301 = LINE ( 'NONE', #844, #211 ) ;
#302 = AXIS2_PLACEMENT_3D ( 'NONE', #449, #500, #639 ) ;
#303 = VERTEX_POINT ( 'NONE', #332 ) ;
#304 = CARTESIAN_POINT ( 'NONE',  ( -10.86753602020040077, 3.877058397527583189, 2.799999999999999822 ) ) ;
#305 = CARTESIAN_POINT ( 'NONE',  ( -8.972467989069858874, -2.122941602472415479, 1.800000000000000044 ) ) ;
#306 = CARTESIAN_POINT ( 'NONE',  ( 0.000000000000000000, 0.000000000000000000, 1.800000000000000044 ) ) ;
#307 = VERTEX_POINT ( 'NONE', #856 ) ;
#308 = ADVANCED_FACE ( 'NONE', ( #522 ), #740, .F. ) ;
#309 = DIRECTION ( 'NONE',  ( -0.000000000000000000, -0.000000000000000000, -1.000000000000000000 ) ) ;
#310 =( LENGTH_UNIT ( ) NAMED_UNIT ( * ) SI_UNIT ( .MILLI., .METRE. ) );
#311 = ORIENTED_EDGE ( 'NONE', *, *, #6, .F. ) ;
#312 = DIRECTION ( 'NONE',  ( -0.4916273249797259437, 0.8708057035488909747, 0.000000000000000000 ) ) ;
#313 = DIRECTION ( 'NONE',  ( 1.000000000000000000, -0.000000000000000000, -0.000000000000000000 ) ) ;
#314 = DIRECTION ( 'NONE',  ( 1.000000000000000000, 0.000000000000000000, -0.000000000000000000 ) ) ;
#315 = EDGE_CURVE ( 'NONE', #33, #845, #597, .T. ) ;
#316 = ORIENTED_EDGE ( 'NONE', *, *, #648, .T. ) ;
#317 = DIRECTION ( 'NONE',  ( 0.8744478349734966516, 0.4851195563056229232, 0.000000000000000000 ) ) ;
#318 = DIRECTION ( 'NONE',  ( -1.000000000000000000, 8.347860589179127138E-16, 0.000000000000000000 ) ) ;
#319 = ORIENTED_EDGE ( 'NONE', *, *, #57, .F. ) ;
#320 = CLOSED_SHELL ( 'NONE', ( #401, #233, #709, #863, #19, #727, #184, #167, #854, #267, #232, #718, #220, #474, #620, #149, #297, #783, #671, #454, #112, #115, #513, #873, #396, #308, #322 ) ) ;
#321 = ORIENTED_EDGE ( 'NONE', *, *, #525, .F. ) ;
#322 = ADVANCED_FACE ( 'NONE', ( #119 ), #393, .F. ) ;
#323 = LINE ( 'NONE', #649, #380 ) ;
#324 = ORIENTED_EDGE ( 'NONE', *, *, #153, .F. ) ;
#325 = AXIS2_PLACEMENT_3D ( 'NONE', #92, #573, #175 ) ;
#326 = DIRECTION ( 'NONE',  ( 0.000000000000000000, 0.000000000000000000, 1.000000000000000000 ) ) ;
#327 = ORIENTED_EDGE ( 'NONE', *, *, #799, .T. ) ;
#328 =( NAMED_UNIT ( * ) PLANE_ANGLE_UNIT ( ) SI_UNIT ( $, .RADIAN. ) );
#329 = LINE ( 'NONE', #741, #720 ) ;
#330 = ORIENTED_EDGE ( 'NONE', *, *, #48, .F. ) ;
#331 = EDGE_CURVE ( 'NONE', #33, #190, #64, .T. ) ;
#332 = CARTESIAN_POINT ( 'NONE',  ( -14.25493224171899698, -2.122941602472415479, 2.799999999999999822 ) ) ;
#333 = VECTOR ( 'NONE', #159, 1000.000000000000114 ) ;
#334 = CARTESIAN_POINT ( 'NONE',  ( 10.55328552369692829, 0.8770583975275871857, 2.799999999999999822 ) ) ;
#335 = DIRECTION ( 'NONE',  ( -1.000000000000000000, 8.347860589179127138E-16, 0.000000000000000000 ) ) ;
#336 = ORIENTED_EDGE ( 'NONE', *, *, #544, .F. ) ;
#337 = EDGE_CURVE ( 'NONE', #812, #797, #132, .T. ) ;
#338 = CARTESIAN_POINT ( 'NONE',  ( 5.756828581435939896, 3.877058397527568978, 2.799999999999999822 ) ) ;
#339 = DIRECTION ( 'NONE',  ( -0.000000000000000000, -0.000000000000000000, 1.000000000000000000 ) ) ;
#340 = CARTESIAN_POINT ( 'NONE',  ( 3.410030965643150225, -2.122941602472415479, 1.800000000000000044 ) ) ;
#341 = ORIENTED_EDGE ( 'NONE', *, *, #456, .F. ) ;
#342 = EDGE_LOOP ( 'NONE', ( #778, #581, #519, #208 ) ) ;
#343 = DIRECTION ( 'NONE',  ( 1.000000000000000000, -8.347860589179128124E-16, 0.000000000000000000 ) ) ;
#344 = LINE ( 'NONE', #832, #263 ) ;
#345 = CARTESIAN_POINT ( 'NONE',  ( 6.855116347805629395, -2.122941602472415479, 2.799999999999999822 ) ) ;
#346 = CARTESIAN_POINT ( 'NONE',  ( -14.25493224171899698, -2.122941602472415479, 2.799999999999999822 ) ) ;
#347 = ORIENTED_EDGE ( 'NONE', *, *, #650, .T. ) ;
#348 = FACE_OUTER_BOUND ( 'NONE', #342, .T. ) ;
#349 = CARTESIAN_POINT ( 'NONE',  ( 3.467720126287040294, 3.877058397527571643, 2.799999999999999822 ) ) ;
#350 = VERTEX_POINT ( 'NONE', #681 ) ;
#351 = ORIENTED_EDGE ( 'NONE', *, *, #796, .F. ) ;
#352 = UNCERTAINTY_MEASURE_WITH_UNIT (LENGTH_MEASURE( 1.000000000000000082E-05 ), #310, 'distance_accuracy_value', 'NONE');
#353 = PRODUCT_CONTEXT ( 'NONE', #441, 'mechanical' ) ;
#354 = CARTESIAN_POINT ( 'NONE',  ( -10.86753602020040077, 3.877058397527583189, 2.799999999999999822 ) ) ;
#355 = CARTESIAN_POINT ( 'NONE',  ( 4.386409561530370205, 3.877058397527571643, 1.800000000000000044 ) ) ;
#356 = ORIENTED_EDGE ( 'NONE', *, *, #153, .T. ) ;
#357 = AXIS2_PLACEMENT_3D ( 'NONE', #271, #55, #343 ) ;
#358 = LINE ( 'NONE', #377, #481 ) ;
#359 = LINE ( 'NONE', #611, #91 ) ;
#360 = EDGE_LOOP ( 'NONE', ( #470, #440, #286, #601 ) ) ;
#361 = EDGE_CURVE ( 'NONE', #375, #453, #675, .T. ) ;
#362 = EDGE_CURVE ( 'NONE', #88, #647, #150, .T. ) ;
#363 = FACE_OUTER_BOUND ( 'NONE', #256, .T. ) ;
#364 = FACE_OUTER_BOUND ( 'NONE', #360, .T. ) ;
#365 = ORIENTED_EDGE ( 'NONE', *, *, #701, .F. ) ;
#366 = PLANE ( 'NONE',  #880 ) ;
#367 = DIRECTION ( 'NONE',  ( -0.000000000000000000, -0.000000000000000000, 1.000000000000000000 ) ) ;
#368 = CARTESIAN_POINT ( 'NONE',  ( -13.33624280647566884, -2.122941602472415923, 1.800000000000000044 ) ) ;
#369 = EDGE_CURVE ( 'NONE', #480, #303, #269, .T. ) ;
#370 = AXIS2_PLACEMENT_3D ( 'NONE', #231, #773, #568 ) ;
#371 = ORIENTED_EDGE ( 'NONE', *, *, #557, .T. ) ;
#372 = VECTOR ( 'NONE', #59, 1000.000000000000000 ) ;
#373 = LINE ( 'NONE', #693, #16 ) ;
#374 = PRESENTATION_STYLE_ASSIGNMENT (( #169 ) ) ;
#375 = VERTEX_POINT ( 'NONE', #345 ) ;
#376 = EDGE_CURVE ( 'NONE', #787, #383, #78, .T. ) ;
#377 = CARTESIAN_POINT ( 'NONE',  ( 2.491341530399824311, -2.122941602472414147, 1.800000000000000044 ) ) ;
#378 = PLANE ( 'NONE',  #412 ) ;
#379 = ORIENTED_EDGE ( 'NONE', *, *, #637, .T. ) ;
#380 = VECTOR ( 'NONE', #572, 1000.000000000000000 ) ;
#381 = VECTOR ( 'NONE', #272, 1000.000000000000000 ) ;
#382 = LINE ( 'NONE', #874, #215 ) ;
#383 = VERTEX_POINT ( 'NONE', #820 ) ;
#384 = LINE ( 'NONE', #653, #451 ) ;
#385 = ORIENTED_EDGE ( 'NONE', *, *, #652, .F. ) ;
#386 = ORIENTED_EDGE ( 'NONE', *, *, #387, .F. ) ;
#387 = EDGE_CURVE ( 'NONE', #845, #453, #61, .T. ) ;
#388 = EDGE_CURVE ( 'NONE', #76, #855, #414, .T. ) ;
#389 = CARTESIAN_POINT ( 'NONE',  ( -6.503761202794595242, 3.877058397527571199, 2.799999999999999822 ) ) ;
#390 = EDGE_LOOP ( 'NONE', ( #224, #197, #498, #486 ) ) ;
#391 = EDGE_CURVE ( 'NONE', #723, #695, #610, .T. ) ;
#392 = ORIENTED_EDGE ( 'NONE', *, *, #868, .F. ) ;
#393 = PLANE ( 'NONE',  #123 ) ;
#394 = DIRECTION ( 'NONE',  ( 0.000000000000000000, 0.000000000000000000, 1.000000000000000000 ) ) ;
#395 = VERTEX_POINT ( 'NONE', #467 ) ;
#396 = ADVANCED_FACE ( 'NONE', ( #206 ), #146, .F. ) ;
#397 = VECTOR ( 'NONE', #435, 1000.000000000000000 ) ;
#398 = DIRECTION ( 'NONE',  ( -1.000000000000000000, 8.347860589179127138E-16, 0.000000000000000000 ) ) ;
#399 = VECTOR ( 'NONE', #882, 1000.000000000000000 ) ;
#400 = DIRECTION ( 'NONE',  ( 0.000000000000000000, 0.000000000000000000, 1.000000000000000000 ) ) ;
#401 = ADVANCED_FACE ( 'NONE', ( #685 ), #421, .F. ) ;
#402 = CARTESIAN_POINT ( 'NONE',  ( -2.840563229335014483, 3.877058397527571643, 2.799999999999999822 ) ) ;
#403 = ORIENTED_EDGE ( 'NONE', *, *, #331, .F. ) ;
#404 = VECTOR ( 'NONE', #817, 1000.000000000000000 ) ;
#405 = CARTESIAN_POINT ( 'NONE',  ( 9.408734730734510165, 7.292256997421183939, 0.000000000000000000 ) ) ;
#406 = VECTOR ( 'NONE', #466, 1000.000000000000000 ) ;
#407 = CARTESIAN_POINT ( 'NONE',  ( 5.756828581435939896, 3.877058397527568978, 2.799999999999999822 ) ) ;
#408 = CARTESIAN_POINT ( 'NONE',  ( 13.55328552369691053, 3.877058397527568978, 1.800000000000000044 ) ) ;
#409 = FACE_OUTER_BOUND ( 'NONE', #46, .T. ) ;
#410 = ORIENTED_EDGE ( 'NONE', *, *, #701, .T. ) ;
#411 = CARTESIAN_POINT ( 'NONE',  ( -14.25493224171899698, -2.122941602472415479, 0.000000000000000000 ) ) ;
#412 = AXIS2_PLACEMENT_3D ( 'NONE', #704, #642, #436 ) ;
#413 = CARTESIAN_POINT ( 'NONE',  ( -2.840563229335015372, -2.122941602472415479, 1.800000000000000044 ) ) ;
#414 = LINE ( 'NONE', #15, #664 ) ;
#415 = ORIENTED_EDGE ( 'NONE', *, *, #315, .F. ) ;
#416 = ORIENTED_EDGE ( 'NONE', *, *, #868, .T. ) ;
#417 = DIRECTION ( 'NONE',  ( -0.000000000000000000, -0.000000000000000000, 1.000000000000000000 ) ) ;
#418 = ORIENTED_EDGE ( 'NONE', *, *, #72, .F. ) ;
#419 = ORIENTED_EDGE ( 'NONE', *, *, #493, .F. ) ;
#420 = CARTESIAN_POINT ( 'NONE',  ( -14.25493224171899698, -2.122941602472415479, 2.799999999999999822 ) ) ;
#421 = PLANE ( 'NONE',  #786 ) ;
#422 = ORIENTED_EDGE ( 'NONE', *, *, #612, .T. ) ;
#423 = ORIENTED_EDGE ( 'NONE', *, *, #145, .T. ) ;
#424 = CARTESIAN_POINT ( 'NONE',  ( 10.55328552369692829, 0.8770583975275871857, 2.799999999999999822 ) ) ;
#425 = LINE ( 'NONE', #240, #213 ) ;
#426 = CARTESIAN_POINT ( 'NONE',  ( 11.98392510528478638, 3.006420493910630487, 1.800000000000000044 ) ) ;
#427 = EDGE_CURVE ( 'NONE', #574, #432, #600, .T. ) ;
#428 = ORIENTED_EDGE ( 'NONE', *, *, #775, .T. ) ;
#429 = APPLICATION_CONTEXT ( 'automotive_design' ) ;
#430 = LINE ( 'NONE', #696, #133 ) ;
#431 = PLANE ( 'NONE',  #815 ) ;
#432 = VERTEX_POINT ( 'NONE', #826 ) ;
#433 = VECTOR ( 'NONE', #227, 1000.000000000000000 ) ;
#434 = FACE_OUTER_BOUND ( 'NONE', #492, .T. ) ;
#435 = DIRECTION ( 'NONE',  ( 1.000000000000000000, -0.000000000000000000, -0.000000000000000000 ) ) ;
#436 = DIRECTION ( 'NONE',  ( 1.000000000000000000, 0.000000000000000000, -0.000000000000000000 ) ) ;
#437 = ORIENTED_EDGE ( 'NONE', *, *, #181, .F. ) ;
#438 = LINE ( 'NONE', #843, #784 ) ;
#439 = CARTESIAN_POINT ( 'NONE',  ( -8.972467989069858874, -2.122941602472415479, 1.800000000000000044 ) ) ;
#440 = ORIENTED_EDGE ( 'NONE', *, *, #135, .T. ) ;
#441 = APPLICATION_CONTEXT ( 'automotive_design' ) ;
#442 = AXIS2_PLACEMENT_3D ( 'NONE', #130, #672, #798 ) ;
#443 = DIRECTION ( 'NONE',  ( 1.000000000000000000, 0.000000000000000000, 0.000000000000000000 ) ) ;
#444 = LINE ( 'NONE', #713, #262 ) ;
#445 = CARTESIAN_POINT ( 'NONE',  ( -3.640563229335018303, -2.122941602472415479, 2.799999999999999822 ) ) ;
#446 = ORIENTED_EDGE ( 'NONE', *, *, #864, .F. ) ;
#447 = VECTOR ( 'NONE', #335, 1000.000000000000000 ) ;
#448 = DIRECTION ( 'NONE',  ( -0.4916273249797259992, 0.8708057035488908637, 0.000000000000000000 ) ) ;
#449 = CARTESIAN_POINT ( 'NONE',  ( -14.25493224171899698, -2.122941602472415479, 2.799999999999999822 ) ) ;
#450 = VERTEX_POINT ( 'NONE', #811 ) ;
#451 = VECTOR ( 'NONE', #45, 1000.000000000000000 ) ;
#452 = VECTOR ( 'NONE', #339, 1000.000000000000000 ) ;
#453 = VERTEX_POINT ( 'NONE', #349 ) ;
#454 = ADVANCED_FACE ( 'NONE', ( #201 ), #743, .F. ) ;
#455 = ORIENTED_EDGE ( 'NONE', *, *, #299, .T. ) ;
#456 = EDGE_CURVE ( 'NONE', #613, #8, #2, .T. ) ;
#457 = ORIENTED_EDGE ( 'NONE', *, *, #804, .T. ) ;
#458 = CARTESIAN_POINT ( 'NONE',  ( 4.386409561530370205, 3.877058397527571643, 1.800000000000000044 ) ) ;
#459 = CARTESIAN_POINT ( 'NONE',  ( 2.491341530399824311, -2.122941602472414147, 2.799999999999999822 ) ) ;
#460 = ORIENTED_EDGE ( 'NONE', *, *, #388, .F. ) ;
#461 = EDGE_CURVE ( 'NONE', #190, #617, #10, .T. ) ;
#462 = CARTESIAN_POINT ( 'NONE',  ( -2.840563229335015372, -2.122941602472415479, 1.800000000000000044 ) ) ;
#463 = CARTESIAN_POINT ( 'NONE',  ( 0.000000000000000000, 0.000000000000000000, 1.800000000000000044 ) ) ;
#464 = EDGE_LOOP ( 'NONE', ( #316, #248, #403, #161 ) ) ;
#465 = CARTESIAN_POINT ( 'NONE',  ( 4.386409561530370205, 3.877058397527571643, 1.800000000000000044 ) ) ;
#466 = DIRECTION ( 'NONE',  ( -0.000000000000000000, -0.000000000000000000, -1.000000000000000000 ) ) ;
#467 = CARTESIAN_POINT ( 'NONE',  ( -14.25493224171899698, -2.122941602472415479, 0.000000000000000000 ) ) ;
#468 = DIRECTION ( 'NONE',  ( 1.000000000000000000, 0.000000000000000000, 0.000000000000000000 ) ) ;
#469 = VECTOR ( 'NONE', #676, 1000.000000000000000 ) ;
#470 = ORIENTED_EDGE ( 'NONE', *, *, #456, .T. ) ;
#471 = CARTESIAN_POINT ( 'NONE',  ( 13.55328552369691053, 0.8770583975275871857, 1.800000000000000044 ) ) ;
#472 = CARTESIAN_POINT ( 'NONE',  ( 13.55328552369691053, 0.8770583975275871857, 2.799999999999999822 ) ) ;
#473 = DIRECTION ( 'NONE',  ( 0.4916273249797263323, 0.8708057035488908637, -0.000000000000000000 ) ) ;
#474 = ADVANCED_FACE ( 'NONE', ( #217 ), #689, .F. ) ;
#475 = EDGE_LOOP ( 'NONE', ( #43, #422, #356, #765 ) ) ;
#476 = VECTOR ( 'NONE', #312, 1000.000000000000000 ) ;
#477 = CARTESIAN_POINT ( 'NONE',  ( 10.55328552369692829, 0.8770583975275871857, 2.799999999999999822 ) ) ;
#478 = DIRECTION ( 'NONE',  ( 0.4916273249797258327, -0.8708057035488910858, 0.000000000000000000 ) ) ;
#479 = CARTESIAN_POINT ( 'NONE',  ( -5.585071767551271549, 3.877058397527572087, 1.800000000000000044 ) ) ;
#480 = VERTEX_POINT ( 'NONE', #168 ) ;
#481 = VECTOR ( 'NONE', #163, 1000.000000000000000 ) ;
#482 = DIRECTION ( 'NONE',  ( -0.000000000000000000, -0.000000000000000000, -1.000000000000000000 ) ) ;
#483 = EDGE_CURVE ( 'NONE', #84, #186, #425, .T. ) ;
#484 = CARTESIAN_POINT ( 'NONE',  ( -6.503761202794595242, 3.877058397527571199, 1.800000000000000044 ) ) ;
#485 = DIRECTION ( 'NONE',  ( 1.000000000000000000, 0.000000000000000000, 0.000000000000000000 ) ) ;
#486 = ORIENTED_EDGE ( 'NONE', *, *, #80, .T. ) ;
#487 = CARTESIAN_POINT ( 'NONE',  ( -13.33624280647566884, -2.122941602472415923, 2.799999999999999822 ) ) ;
#488 = AXIS2_PLACEMENT_3D ( 'NONE', #748, #540, #594 ) ;
#489 = EDGE_CURVE ( 'NONE', #4, #18, #103, .T. ) ;
#490 = DIRECTION ( 'NONE',  ( -0.8708057035488910858, 0.4916273249797257772, 0.000000000000000000 ) ) ;
#491 = CARTESIAN_POINT ( 'NONE',  ( -3.640563229335017414, 3.877058397527576972, 1.800000000000000044 ) ) ;
#492 = EDGE_LOOP ( 'NONE', ( #296, #595, #699, #253 ) ) ;
#493 = EDGE_CURVE ( 'NONE', #375, #617, #90, .T. ) ;
#494 = DIRECTION ( 'NONE',  ( -4.336808689942027597E-16, 1.000000000000000000, 0.000000000000000000 ) ) ;
#495 = EDGE_CURVE ( 'NONE', #93, #129, #221, .T. ) ;
#496 = DIRECTION ( 'NONE',  ( -1.000000000000000000, 0.000000000000000000, 0.000000000000000000 ) ) ;
#497 = CARTESIAN_POINT ( 'NONE',  ( 11.98392510528478638, 3.006420493910630487, 0.000000000000000000 ) ) ;
#498 = ORIENTED_EDGE ( 'NONE', *, *, #369, .T. ) ;
#499 = CARTESIAN_POINT ( 'NONE',  ( 2.491341530399824311, -2.122941602472414147, 1.800000000000000044 ) ) ;
#500 = DIRECTION ( 'NONE',  ( 0.000000000000000000, 1.000000000000000000, 0.000000000000000000 ) ) ;
#501 = ORIENTED_EDGE ( 'NONE', *, *, #603, .F. ) ;
#502 =( NAMED_UNIT ( * ) SI_UNIT ( $, .STERADIAN. ) SOLID_ANGLE_UNIT ( ) );
#503 = CARTESIAN_POINT ( 'NONE',  ( 0.02263474412455765417, 3.877058397527571643, 2.799999999999999822 ) ) ;
#504 = SURFACE_STYLE_FILL_AREA ( #237 ) ;
#505 = ORIENTED_EDGE ( 'NONE', *, *, #556, .T. ) ;
#506 = CARTESIAN_POINT ( 'NONE',  ( -14.25493224171899698, -2.122941602472415479, 2.799999999999999822 ) ) ;
#507 = ORIENTED_EDGE ( 'NONE', *, *, #493, .T. ) ;
#508 = VECTOR ( 'NONE', #730, 1000.000000000000000 ) ;
#509 = LINE ( 'NONE', #857, #670 ) ;
#510 = PLANE ( 'NONE',  #325 ) ;
#511 = ORIENTED_EDGE ( 'NONE', *, *, #809, .F. ) ;
#512 = VECTOR ( 'NONE', #242, 1000.000000000000000 ) ;
#513 = ADVANCED_FACE ( 'NONE', ( #363 ), #300, .F. ) ;
#514 = EDGE_CURVE ( 'NONE', #716, #613, #358, .T. ) ;
#515 = ORIENTED_EDGE ( 'NONE', *, *, #376, .T. ) ;
#516 = AXIS2_PLACEMENT_3D ( 'NONE', #477, #400, #56 ) ;
#517 = VECTOR ( 'NONE', #819, 1000.000000000000000 ) ;
#518 = LINE ( 'NONE', #38, #62 ) ;
#519 = ORIENTED_EDGE ( 'NONE', *, *, #535, .F. ) ;
#520 = EDGE_CURVE ( 'NONE', #350, #656, #100, .T. ) ;
#521 = EDGE_LOOP ( 'NONE', ( #311, #623, #821, #52 ) ) ;
#522 = FACE_OUTER_BOUND ( 'NONE', #151, .T. ) ;
#523 = PLANE ( 'NONE',  #488 ) ;
#524 = ORIENTED_EDGE ( 'NONE', *, *, #738, .F. ) ;
#525 = EDGE_CURVE ( 'NONE', #723, #787, #627, .T. ) ;
#526 = FACE_OUTER_BOUND ( 'NONE', #475, .T. ) ;
#527 = CARTESIAN_POINT ( 'NONE',  ( -0.8960546911187641239, 3.877058397527572531, 2.799999999999999822 ) ) ;
#528 = ORIENTED_EDGE ( 'NONE', *, *, #387, .T. ) ;
#529 = CARTESIAN_POINT ( 'NONE',  ( 6.855116347805629395, -2.122941602472415479, 1.800000000000000044 ) ) ;
#530 = CARTESIAN_POINT ( 'NONE',  ( -10.86753602020040077, 3.877058397527583189, 0.000000000000000000 ) ) ;
#531 = DIRECTION ( 'NONE',  ( -0.4916273249797261102, -0.8708057035488909747, 0.000000000000000000 ) ) ;
#532 = CARTESIAN_POINT ( 'NONE',  ( -6.503761202794595242, 3.877058397527571199, 2.799999999999999822 ) ) ;
#533 = ORIENTED_EDGE ( 'NONE', *, *, #525, .T. ) ;
#534 = DIRECTION ( 'NONE',  ( 0.4851195563056229232, -0.8744478349734966516, 0.000000000000000000 ) ) ;
#535 = EDGE_CURVE ( 'NONE', #432, #695, #772, .T. ) ;
#536 = DIRECTION ( 'NONE',  ( -1.000000000000000000, 8.347860589179127138E-16, 0.000000000000000000 ) ) ;
#537 = EDGE_CURVE ( 'NONE', #383, #574, #438, .T. ) ;
#538 = ORIENTED_EDGE ( 'NONE', *, *, #427, .F. ) ;
#539 = ORIENTED_EDGE ( 'NONE', *, *, #551, .F. ) ;
#540 = DIRECTION ( 'NONE',  ( -0.8708057035488907527, -0.4916273249797263878, 0.000000000000000000 ) ) ;
#541 = DIRECTION ( 'NONE',  ( -0.4916273249797259437, 0.8708057035488909747, 0.000000000000000000 ) ) ;
#542 = ORIENTED_EDGE ( 'NONE', *, *, #461, .T. ) ;
#543 = ORIENTED_EDGE ( 'NONE', *, *, #200, .F. ) ;
#544 = EDGE_CURVE ( 'NONE', #574, #723, #852, .T. ) ;
#545 = STYLED_ITEM ( 'NONE', ( #374 ), #229 ) ;
#546 = VECTOR ( 'NONE', #443, 1000.000000000000000 ) ;
#547 = DIRECTION ( 'NONE',  ( -0.000000000000000000, -0.000000000000000000, 1.000000000000000000 ) ) ;
#548 = CARTESIAN_POINT ( 'NONE',  ( 10.55328552369692829, 0.8770583975275871857, 0.000000000000000000 ) ) ;
#549 = ORIENTED_EDGE ( 'NONE', *, *, #726, .F. ) ;
#550 = VECTOR ( 'NONE', #706, 1000.000000000000000 ) ;
#551 = EDGE_CURVE ( 'NONE', #166, #647, #564, .T. ) ;
#552 = SHAPE_DEFINITION_REPRESENTATION ( #203, #139 ) ;
#553 = DIRECTION ( 'NONE',  ( -1.000000000000000000, 0.000000000000000000, -0.000000000000000000 ) ) ;
#554 = DIRECTION ( 'NONE',  ( -1.000000000000000000, 2.230285239025120731E-16, -0.000000000000000000 ) ) ;
#555 = VERTEX_POINT ( 'NONE', #631 ) ;
#556 = EDGE_CURVE ( 'NONE', #4, #656, #373, .T. ) ;
#557 = EDGE_CURVE ( 'NONE', #729, #782, #293, .T. ) ;
#558 = AXIS2_PLACEMENT_3D ( 'NONE', #590, #394, #268 ) ;
#559 = CARTESIAN_POINT ( 'NONE',  ( 9.408734730734510165, 7.292256997421183939, 1.800000000000000044 ) ) ;
#560 = DIRECTION ( 'NONE',  ( -0.4916273249797257217, -0.8708057035488910858, -0.000000000000000000 ) ) ;
#561 = ORIENTED_EDGE ( 'NONE', *, *, #391, .F. ) ;
#562 = VECTOR ( 'NONE', #482, 1000.000000000000000 ) ;
#563 = CARTESIAN_POINT ( 'NONE',  ( -9.891157424313187008, -2.122941602472415479, 1.800000000000000044 ) ) ;
#564 = LINE ( 'NONE', #506, #550 ) ;
#565 = CARTESIAN_POINT ( 'NONE',  ( -9.948846584957077965, 3.877058397527571643, 2.799999999999999822 ) ) ;
#566 = ORIENTED_EDGE ( 'NONE', *, *, #299, .F. ) ;
#567 = CARTESIAN_POINT ( 'NONE',  ( -14.25493224171899698, -2.122941602472415479, 2.799999999999999822 ) ) ;
#568 = DIRECTION ( 'NONE',  ( 0.4916273249797259992, 0.8708057035488908637, 0.000000000000000000 ) ) ;
#569 = ORIENTED_EDGE ( 'NONE', *, *, #644, .F. ) ;
#570 = PRODUCT_DEFINITION_CONTEXT ( 'detailed design', #429, 'design' ) ;
#571 = DIRECTION ( 'NONE',  ( -1.000000000000000000, 0.000000000000000000, 0.000000000000000000 ) ) ;
#572 = DIRECTION ( 'NONE',  ( -1.000000000000000000, 8.347860589179127138E-16, 0.000000000000000000 ) ) ;
#573 = DIRECTION ( 'NONE',  ( 0.000000000000000000, 0.000000000000000000, -1.000000000000000000 ) ) ;
#574 = VERTEX_POINT ( 'NONE', #230 ) ;
#575 = CARTESIAN_POINT ( 'NONE',  ( -8.972467989069858874, -2.122941602472415479, 1.800000000000000044 ) ) ;
#576 = CARTESIAN_POINT ( 'NONE',  ( 0.000000000000000000, 0.000000000000000000, 1.799999999999999156 ) ) ;
#577 = LINE ( 'NONE', #368, #822 ) ;
#578 = ORIENTED_EDGE ( 'NONE', *, *, #637, .F. ) ;
#579 = EDGE_CURVE ( 'NONE', #76, #93, #836, .T. ) ;
#580 = LINE ( 'NONE', #529, #372 ) ;
#581 = ORIENTED_EDGE ( 'NONE', *, *, #72, .T. ) ;
#582 = VECTOR ( 'NONE', #288, 1000.000000000000000 ) ;
#583 = AXIS2_PLACEMENT_3D ( 'NONE', #548, #607, #468 ) ;
#584 = ORIENTED_EDGE ( 'NONE', *, *, #71, .T. ) ;
#585 = DIRECTION ( 'NONE',  ( -0.000000000000000000, -0.000000000000000000, 1.000000000000000000 ) ) ;
#586 = MECHANICAL_DESIGN_GEOMETRIC_PRESENTATION_REPRESENTATION (  '', ( #545 ), #751 ) ;
#587 = ORIENTED_EDGE ( 'NONE', *, *, #514, .F. ) ;
#588 = AXIS2_PLACEMENT_3D ( 'NONE', #484, #758, #712 ) ;
#589 = VECTOR ( 'NONE', #679, 1000.000000000000000 ) ;
#590 = CARTESIAN_POINT ( 'NONE',  ( 10.55328552369692829, 0.8770583975275871857, 2.799999999999999822 ) ) ;
#591 = ORIENTED_EDGE ( 'NONE', *, *, #698, .F. ) ;
#592 = ORIENTED_EDGE ( 'NONE', *, *, #99, .T. ) ;
#593 = LINE ( 'NONE', #191, #589 ) ;
#594 = DIRECTION ( 'NONE',  ( 0.4916273249797263878, -0.8708057035488907527, 0.000000000000000000 ) ) ;
#595 = ORIENTED_EDGE ( 'NONE', *, *, #796, .T. ) ;
#596 = AXIS2_PLACEMENT_3D ( 'NONE', #576, #179, #185 ) ;
#597 = LINE ( 'NONE', #458, #508 ) ;
#598 = LINE ( 'NONE', #870, #406 ) ;
#599 = AXIS2_PLACEMENT_3D ( 'NONE', #292, #618, #89 ) ;
#600 = LINE ( 'NONE', #833, #399 ) ;
#601 = ORIENTED_EDGE ( 'NONE', *, *, #514, .T. ) ;
#602 = DIRECTION ( 'NONE',  ( -0.000000000000000000, -0.000000000000000000, -1.000000000000000000 ) ) ;
#603 = EDGE_CURVE ( 'NONE', #855, #705, #839, .T. ) ;
#604 = EDGE_CURVE ( 'NONE', #791, #129, #767, .T. ) ;
#605 = LINE ( 'NONE', #1, #381 ) ;
#606 = DIRECTION ( 'NONE',  ( -0.4916273249797259992, 0.8708057035488908637, -0.000000000000000000 ) ) ;
#607 = DIRECTION ( 'NONE',  ( 0.000000000000000000, 0.000000000000000000, 1.000000000000000000 ) ) ;
#608 = ORIENTED_EDGE ( 'NONE', *, *, #250, .F. ) ;
#609 = DIRECTION ( 'NONE',  ( -1.000000000000000000, 0.000000000000000000, 0.000000000000000000 ) ) ;
#610 = LINE ( 'NONE', #340, #177 ) ;
#611 = CARTESIAN_POINT ( 'NONE',  ( -14.25493224171899698, -2.122941602472415479, 2.799999999999999822 ) ) ;
#612 = EDGE_CURVE ( 'NONE', #93, #797, #430, .T. ) ;
#613 = VERTEX_POINT ( 'NONE', #499 ) ;
#614 = DIRECTION ( 'NONE',  ( -1.000000000000000000, 0.000000000000000000, 0.000000000000000000 ) ) ;
#615 = DIRECTION ( 'NONE',  ( 0.8708057035488909747, 0.4916273249797259992, 0.000000000000000000 ) ) ;
#616 = ORIENTED_EDGE ( 'NONE', *, *, #489, .F. ) ;
#617 = VERTEX_POINT ( 'NONE', #95 ) ;
#618 = DIRECTION ( 'NONE',  ( 0.000000000000000000, 0.000000000000000000, 1.000000000000000000 ) ) ;
#619 = CARTESIAN_POINT ( 'NONE',  ( 5.756828581435939896, 3.877058397527568978, 2.799999999999999822 ) ) ;
#620 = ADVANCED_FACE ( 'NONE', ( #638 ), #849, .F. ) ;
#621 = ORIENTED_EDGE ( 'NONE', *, *, #80, .F. ) ;
#622 = VECTOR ( 'NONE', #478, 1000.000000000000000 ) ;
#623 = ORIENTED_EDGE ( 'NONE', *, *, #551, .T. ) ;
#624 = VECTOR ( 'NONE', #779, 1000.000000000000000 ) ;
#625 = APPLICATION_PROTOCOL_DEFINITION ( 'draft international standard', 'automotive_design', 1998, #441 ) ;
#626 = VECTOR ( 'NONE', #749, 1000.000000000000227 ) ;
#627 = LINE ( 'NONE', #155, #397 ) ;
#628 = DIRECTION ( 'NONE',  ( -0.000000000000000000, -0.000000000000000000, 1.000000000000000000 ) ) ;
#629 = ORIENTED_EDGE ( 'NONE', *, *, #331, .T. ) ;
#630 = VECTOR ( 'NONE', #814, 1000.000000000000000 ) ;
#631 = CARTESIAN_POINT ( 'NONE',  ( -5.585071767551271549, 3.877058397527572087, 1.800000000000000044 ) ) ;
#632 = FACE_OUTER_BOUND ( 'NONE', #97, .T. ) ;
#633 = ORIENTED_EDGE ( 'NONE', *, *, #878, .T. ) ;
#634 = VECTOR ( 'NONE', #766, 1000.000000000000000 ) ;
#635 = DIRECTION ( 'NONE',  ( 0.000000000000000000, 0.000000000000000000, 1.000000000000000000 ) ) ;
#636 = PRODUCT_RELATED_PRODUCT_CATEGORY ( 'part', '', ( #715 ) ) ;
#637 = EDGE_CURVE ( 'NONE', #350, #691, #323, .T. ) ;
#638 = FACE_OUTER_BOUND ( 'NONE', #234, .T. ) ;
#639 = DIRECTION ( 'NONE',  ( 0.000000000000000000, -0.000000000000000000, 1.000000000000000000 ) ) ;
#640 = ORIENTED_EDGE ( 'NONE', *, *, #864, .T. ) ;
#641 = DIRECTION ( 'NONE',  ( -0.4916273249797257217, -0.8708057035488910858, -0.000000000000000000 ) ) ;
#642 = DIRECTION ( 'NONE',  ( 0.000000000000000000, 0.000000000000000000, 1.000000000000000000 ) ) ;
#643 = EDGE_LOOP ( 'NONE', ( #592, #437, #608, #633 ) ) ;
#644 = EDGE_CURVE ( 'NONE', #872, #63, #853, .T. ) ;
#645 = DIRECTION ( 'NONE',  ( 1.000000000000000000, 0.000000000000000000, 0.000000000000000000 ) ) ;
#646 = LINE ( 'NONE', #27, #171 ) ;
#647 = VERTEX_POINT ( 'NONE', #241 ) ;
#648 = EDGE_CURVE ( 'NONE', #845, #617, #509, .T. ) ;
#649 = CARTESIAN_POINT ( 'NONE',  ( 5.756828581435939896, 3.877058397527568978, 2.799999999999999822 ) ) ;
#650 = EDGE_CURVE ( 'NONE', #450, #656, #518, .T. ) ;
#651 = ORIENTED_EDGE ( 'NONE', *, *, #83, .T. ) ;
#652 = EDGE_CURVE ( 'NONE', #190, #835, #444, .T. ) ;
#653 = CARTESIAN_POINT ( 'NONE',  ( 2.491341530399824311, -2.122941602472414147, 1.800000000000000044 ) ) ;
#654 = EDGE_LOOP ( 'NONE', ( #460, #143, #807, #58 ) ) ;
#655 = ORIENTED_EDGE ( 'NONE', *, *, #145, .F. ) ;
#656 = VERTEX_POINT ( 'NONE', #724 ) ;
#657 = PLANE ( 'NONE',  #558 ) ;
#658 = COLOUR_RGB ( '',0.7921568627450980005, 0.8196078431372548767, 0.9333333333333333481 ) ;
#659 = ORIENTED_EDGE ( 'NONE', *, *, #337, .T. ) ;
#660 = EDGE_LOOP ( 'NONE', ( #867, #794, #212, #36 ) ) ;
#661 = CARTESIAN_POINT ( 'NONE',  ( 3.467720126287040294, 3.877058397527571643, 1.800000000000000044 ) ) ;
#662 = FACE_OUTER_BOUND ( 'NONE', #390, .T. ) ;
#663 = ORIENTED_EDGE ( 'NONE', *, *, #209, .F. ) ;
#664 = VECTOR ( 'NONE', #755, 1000.000000000000000 ) ;
#665 = FACE_OUTER_BOUND ( 'NONE', #75, .T. ) ;
#666 = CARTESIAN_POINT ( 'NONE',  ( 3.410030965643150225, -2.122941602472415479, 1.800000000000000044 ) ) ;
#667 = VECTOR ( 'NONE', #682, 1000.000000000000000 ) ;
#668 = CARTESIAN_POINT ( 'NONE',  ( 3.467720126287040294, 3.877058397527571643, 1.800000000000000044 ) ) ;
#669 = ORIENTED_EDGE ( 'NONE', *, *, #846, .T. ) ;
#670 = VECTOR ( 'NONE', #246, 1000.000000000000000 ) ;
#671 = ADVANCED_FACE ( 'NONE', ( #42 ), #113, .F. ) ;
#672 = DIRECTION ( 'NONE',  ( 0.000000000000000000, 0.000000000000000000, -1.000000000000000000 ) ) ;
#673 = DIRECTION ( 'NONE',  ( -0.000000000000000000, -0.000000000000000000, 1.000000000000000000 ) ) ;
#674 = AXIS2_PLACEMENT_3D ( 'NONE', #424, #635, #837 ) ;
#675 = LINE ( 'NONE', #736, #626 ) ;
#676 = DIRECTION ( 'NONE',  ( -4.336808689942027104E-16, 1.000000000000000000, -0.000000000000000000 ) ) ;
#677 = VECTOR ( 'NONE', #560, 1000.000000000000000 ) ;
#678 = ORIENTED_EDGE ( 'NONE', *, *, #556, .F. ) ;
#679 = DIRECTION ( 'NONE',  ( -0.4916273249797261657, -0.8708057035488908637, 0.000000000000000000 ) ) ;
#680 = CARTESIAN_POINT ( 'NONE',  ( -2.840563229335014483, 3.877058397527571643, 1.800000000000000044 ) ) ;
#681 = CARTESIAN_POINT ( 'NONE',  ( -5.585071767551271549, 3.877058397527572087, 2.799999999999999822 ) ) ;
#682 = DIRECTION ( 'NONE',  ( -1.000000000000000000, 1.258839247467300628E-16, -0.000000000000000000 ) ) ;
#683 = EDGE_LOOP ( 'NONE', ( #111, #379, #694, #347 ) ) ;
#684 = CYLINDRICAL_SURFACE ( 'NONE', #792, 2.999999999999992450 ) ;
#685 = FACE_OUTER_BOUND ( 'NONE', #69, .T. ) ;
#686 = DIRECTION ( 'NONE',  ( 0.000000000000000000, 1.000000000000000000, 0.000000000000000000 ) ) ;
#687 = ORIENTED_EDGE ( 'NONE', *, *, #391, .T. ) ;
#688 = EDGE_CURVE ( 'NONE', #170, #480, #108, .T. ) ;
#689 = PLANE ( 'NONE',  #588 ) ;
#690 = LINE ( 'NONE', #479, #742 ) ;
#691 = VERTEX_POINT ( 'NONE', #389 ) ;
#692 =( LENGTH_UNIT ( ) NAMED_UNIT ( * ) SI_UNIT ( .MILLI., .METRE. ) );
#693 = CARTESIAN_POINT ( 'NONE',  ( -8.972467989069858874, -2.122941602472415479, 1.800000000000000044 ) ) ;
#694 = ORIENTED_EDGE ( 'NONE', *, *, #99, .F. ) ;
#695 = VERTEX_POINT ( 'NONE', #116 ) ;
#696 = CARTESIAN_POINT ( 'NONE',  ( 13.55328552369691053, 3.877058397527568978, 1.800000000000000044 ) ) ;
#697 = DIRECTION ( 'NONE',  ( -1.000000000000000000, 1.445602896647342368E-16, 0.000000000000000000 ) ) ;
#698 = EDGE_CURVE ( 'NONE', #613, #729, #384, .T. ) ;
#699 = ORIENTED_EDGE ( 'NONE', *, *, #726, .T. ) ;
#700 = AXIS2_PLACEMENT_3D ( 'NONE', #280, #697, #785 ) ;
#701 = EDGE_CURVE ( 'NONE', #18, #166, #865, .T. ) ;
#702 = CARTESIAN_POINT ( 'NONE',  ( 4.386409561530370205, 3.877058397527571643, 2.799999999999999822 ) ) ;
#703 = CARTESIAN_POINT ( 'NONE',  ( 5.756828581435939896, 3.877058397527568978, 0.000000000000000000 ) ) ;
#704 = CARTESIAN_POINT ( 'NONE',  ( 10.55328552369692829, 0.8770583975275871857, 0.000000000000000000 ) ) ;
#705 = VERTEX_POINT ( 'NONE', #530 ) ;
#706 = DIRECTION ( 'NONE',  ( 1.000000000000000000, 0.000000000000000000, 0.000000000000000000 ) ) ;
#707 = VECTOR ( 'NONE', #645, 1000.000000000000000 ) ;
#708 = DIRECTION ( 'NONE',  ( 0.000000000000000000, 0.000000000000000000, 1.000000000000000000 ) ) ;
#709 = ADVANCED_FACE ( 'NONE', ( #735 ), #657, .T. ) ;
#710 = VERTEX_POINT ( 'NONE', #753 ) ;
#711 = VECTOR ( 'NONE', #398, 1000.000000000000000 ) ;
#712 = DIRECTION ( 'NONE',  ( 0.4916273249797263323, 0.8708057035488908637, 0.000000000000000000 ) ) ;
#713 = CARTESIAN_POINT ( 'NONE',  ( 13.55328552369691053, -2.122941602472415479, 1.800000000000000044 ) ) ;
#714 = EDGE_CURVE ( 'NONE', #432, #782, #50, .T. ) ;
#715 = PRODUCT ( 'bottom damper', 'bottom damper', '', ( #353 ) ) ;
#716 = VERTEX_POINT ( 'NONE', #413 ) ;
#717 = DIRECTION ( 'NONE',  ( -1.000000000000000000, 0.000000000000000000, 0.000000000000000000 ) ) ;
#718 = ADVANCED_FACE ( 'NONE', ( #126 ), #192, .T. ) ;
#719 = CARTESIAN_POINT ( 'NONE',  ( -3.640563229335020967, 3.877058397527571643, 2.799999999999999822 ) ) ;
#720 = VECTOR ( 'NONE', #5, 1000.000000000000000 ) ;
#721 = ORIENTED_EDGE ( 'NONE', *, *, #650, .F. ) ;
#722 = VECTOR ( 'NONE', #25, 999.9999999999998863 ) ;
#723 = VERTEX_POINT ( 'NONE', #666 ) ;
#724 = CARTESIAN_POINT ( 'NONE',  ( -8.972467989069858874, -2.122941602472415479, 2.799999999999999822 ) ) ;
#725 = ORIENTED_EDGE ( 'NONE', *, *, #135, .F. ) ;
#726 = EDGE_CURVE ( 'NONE', #835, #752, #598, .T. ) ;
#727 = ADVANCED_FACE ( 'NONE', ( #662 ), #881, .T. ) ;
#728 = DIRECTION ( 'NONE',  ( -0.8708057035488908637, 0.4916273249797262213, 0.000000000000000000 ) ) ;
#729 = VERTEX_POINT ( 'NONE', #459 ) ;
#730 = DIRECTION ( 'NONE',  ( -0.000000000000000000, -0.000000000000000000, 1.000000000000000000 ) ) ;
#731 = LINE ( 'NONE', #121, #517 ) ;
#732 = ORIENTED_EDGE ( 'NONE', *, *, #337, .F. ) ;
#733 = FACE_OUTER_BOUND ( 'NONE', #654, .T. ) ;
#734 = VECTOR ( 'NONE', #803, 1000.000000000000000 ) ;
#735 = FACE_OUTER_BOUND ( 'NONE', #521, .T. ) ;
#736 = CARTESIAN_POINT ( 'NONE',  ( 3.467720126287040294, 3.877058397527571643, 2.799999999999999822 ) ) ;
#737 = ORIENTED_EDGE ( 'NONE', *, *, #838, .F. ) ;
#738 = EDGE_CURVE ( 'NONE', #745, #872, #810, .T. ) ;
#739 = ORIENTED_EDGE ( 'NONE', *, *, #770, .F. ) ;
#740 = PLANE ( 'NONE',  #442 ) ;
#741 = CARTESIAN_POINT ( 'NONE',  ( 3.467720126287040294, 3.877058397527571643, 1.800000000000000044 ) ) ;
#742 = VECTOR ( 'NONE', #554, 1000.000000000000000 ) ;
#743 = PLANE ( 'NONE',  #29 ) ;
#744 = ORIENTED_EDGE ( 'NONE', *, *, #579, .F. ) ;
#745 = VERTEX_POINT ( 'NONE', #144 ) ;
#746 = VECTOR ( 'NONE', #789, 1000.000000000000000 ) ;
#747 = CARTESIAN_POINT ( 'NONE',  ( 9.408734730734510165, 7.292256997421183939, 2.799999999999999822 ) ) ;
#748 = CARTESIAN_POINT ( 'NONE',  ( 0.02263474412455765417, 3.877058397527571643, 1.800000000000000044 ) ) ;
#749 = DIRECTION ( 'NONE',  ( -0.4916273249797259992, 0.8708057035488908637, -0.000000000000000000 ) ) ;
#750 = ORIENTED_EDGE ( 'NONE', *, *, #604, .F. ) ;
#751 =( GEOMETRIC_REPRESENTATION_CONTEXT ( 3 ) GLOBAL_UNCERTAINTY_ASSIGNED_CONTEXT ( ( #352 ) ) GLOBAL_UNIT_ASSIGNED_CONTEXT ( ( #310, #328, #869 ) ) REPRESENTATION_CONTEXT ( 'NONE', 'WORKASPACE' ) );
#752 = VERTEX_POINT ( 'NONE', #258 ) ;
#753 = CARTESIAN_POINT ( 'NONE',  ( -6.503761202794595242, 3.877058397527579636, 1.800000000000000044 ) ) ;
#754 = AXIS2_PLACEMENT_3D ( 'NONE', #661, #813, #448 ) ;
#755 = DIRECTION ( 'NONE',  ( -0.000000000000000000, -0.000000000000000000, -1.000000000000000000 ) ) ;
#756 = CARTESIAN_POINT ( 'NONE',  ( -3.640563229335018303, -2.122941602472415479, 1.800000000000000044 ) ) ;
#757 = ORIENTED_EDGE ( 'NONE', *, *, #120, .F. ) ;
#758 = DIRECTION ( 'NONE',  ( 0.8708057035488908637, -0.4916273249797263323, 0.000000000000000000 ) ) ;
#759 = ORIENTED_EDGE ( 'NONE', *, *, #644, .T. ) ;
#760 = ORIENTED_EDGE ( 'NONE', *, *, #878, .F. ) ;
#761 = VECTOR ( 'NONE', #318, 1000.000000000000000 ) ;
#762 = CARTESIAN_POINT ( 'NONE',  ( 5.756828581435941672, 3.877058397527571643, 0.000000000000000000 ) ) ;
#763 = DIRECTION ( 'NONE',  ( -0.4916273249797257772, -0.8708057035488910858, 0.000000000000000000 ) ) ;
#764 = CARTESIAN_POINT ( 'NONE',  ( -2.840563229335014483, 3.877058397527571643, 2.799999999999999822 ) ) ;
#765 = ORIENTED_EDGE ( 'NONE', *, *, #604, .T. ) ;
#766 = DIRECTION ( 'NONE',  ( -0.000000000000000000, -0.000000000000000000, 1.000000000000000000 ) ) ;
#767 = LINE ( 'NONE', #31, #333 ) ;
#768 = LINE ( 'NONE', #22, #512 ) ;
#769 = EDGE_CURVE ( 'NONE', #383, #453, #329, .T. ) ;
#770 = EDGE_CURVE ( 'NONE', #18, #84, #875, .T. ) ;
#771 = EDGE_LOOP ( 'NONE', ( #515, #12, #276, #533 ) ) ;
#772 = LINE ( 'NONE', #503, #624 ) ;
#773 = DIRECTION ( 'NONE',  ( 0.8708057035488909747, -0.4916273249797260547, 0.000000000000000000 ) ) ;
#774 = ORIENTED_EDGE ( 'NONE', *, *, #361, .T. ) ;
#775 = EDGE_CURVE ( 'NONE', #255, #88, #278, .T. ) ;
#776 = CARTESIAN_POINT ( 'NONE',  ( 0.02263474412455765417, 3.877058397527571643, 1.800000000000000044 ) ) ;
#777 = SURFACE_SIDE_STYLE ('',( #504 ) ) ;
#778 = ORIENTED_EDGE ( 'NONE', *, *, #557, .F. ) ;
#779 = DIRECTION ( 'NONE',  ( 0.4916273249797263878, -0.8708057035488907527, 0.000000000000000000 ) ) ;
#780 = DIRECTION ( 'NONE',  ( 1.000000000000000000, 0.000000000000000000, 0.000000000000000000 ) ) ;
#781 = LINE ( 'NONE', #96, #164 ) ;
#782 = VERTEX_POINT ( 'NONE', #527 ) ;
#783 = ADVANCED_FACE ( 'NONE', ( #131 ), #523, .F. ) ;
#784 = VECTOR ( 'NONE', #496, 1000.000000000000000 ) ;
#785 = DIRECTION ( 'NONE',  ( -1.445602896647342368E-16, -1.000000000000000000, 0.000000000000000000 ) ) ;
#786 = AXIS2_PLACEMENT_3D ( 'NONE', #472, #279, #127 ) ;
#787 = VERTEX_POINT ( 'NONE', #205 ) ;
#788 = VECTOR ( 'NONE', #686, 1000.000000000000000 ) ;
#789 = DIRECTION ( 'NONE',  ( 1.000000000000000000, 1.258839247467300628E-16, 0.000000000000000000 ) ) ;
#790 = AXIS2_PLACEMENT_3D ( 'NONE', #334, #326, #210 ) ;
#791 = VERTEX_POINT ( 'NONE', #264 ) ;
#792 = AXIS2_PLACEMENT_3D ( 'NONE', #77, #158, #614 ) ;
#793 = CARTESIAN_POINT ( 'NONE',  ( 5.756828581435939896, 3.877058397527568978, 2.799999999999999822 ) ) ;
#794 = ORIENTED_EDGE ( 'NONE', *, *, #770, .T. ) ;
#795 = PRODUCT_DEFINITION ( 'UNKNOWN', '', #110, #570 ) ;
#796 = EDGE_CURVE ( 'NONE', #812, #835, #138, .T. ) ;
#797 = VERTEX_POINT ( 'NONE', #800 ) ;
#798 = DIRECTION ( 'NONE',  ( -1.000000000000000000, 0.000000000000000000, -0.000000000000000000 ) ) ;
#799 = EDGE_CURVE ( 'NONE', #716, #647, #195, .T. ) ;
#800 = CARTESIAN_POINT ( 'NONE',  ( 13.55328552369691053, 3.877058397527568978, 1.800000000000000044 ) ) ;
#801 = ORIENTED_EDGE ( 'NONE', *, *, #71, .F. ) ;
#802 = ORIENTED_EDGE ( 'NONE', *, *, #239, .F. ) ;
#803 = DIRECTION ( 'NONE',  ( 1.000000000000000000, 0.000000000000000000, 0.000000000000000000 ) ) ;
#804 = EDGE_CURVE ( 'NONE', #8, #782, #731, .T. ) ;
#805 = DIRECTION ( 'NONE',  ( 0.000000000000000000, 0.000000000000000000, -1.000000000000000000 ) ) ;
#806 = ORIENTED_EDGE ( 'NONE', *, *, #809, .T. ) ;
#807 = ORIENTED_EDGE ( 'NONE', *, *, #495, .T. ) ;
#808 = FACE_OUTER_BOUND ( 'NONE', #117, .T. ) ;
#809 = EDGE_CURVE ( 'NONE', #76, #33, #605, .T. ) ;
#810 = LINE ( 'NONE', #199, #630 ) ;
#811 = CARTESIAN_POINT ( 'NONE',  ( -9.891157424313187008, -2.122941602472415479, 2.799999999999999822 ) ) ;
#812 = VERTEX_POINT ( 'NONE', #471 ) ;
#813 = DIRECTION ( 'NONE',  ( 0.8708057035488909747, 0.4916273249797260547, 0.000000000000000000 ) ) ;
#814 = DIRECTION ( 'NONE',  ( -0.4916273249797261657, -0.8708057035488908637, 0.000000000000000000 ) ) ;
#815 = AXIS2_PLACEMENT_3D ( 'NONE', #306, #708, #314 ) ;
#816 = DIRECTION ( 'NONE',  ( -0.000000000000000000, 1.000000000000000000, -0.000000000000000000 ) ) ;
#817 = DIRECTION ( 'NONE',  ( -0.000000000000000000, -0.000000000000000000, -1.000000000000000000 ) ) ;
#818 = ORIENTED_EDGE ( 'NONE', *, *, #698, .T. ) ;
#819 = DIRECTION ( 'NONE',  ( -0.000000000000000000, -0.000000000000000000, 1.000000000000000000 ) ) ;
#820 = CARTESIAN_POINT ( 'NONE',  ( 3.467720126287040738, 3.877058397527570754, 1.799999999999999600 ) ) ;
#821 = ORIENTED_EDGE ( 'NONE', *, *, #362, .F. ) ;
#822 = VECTOR ( 'NONE', #39, 1000.000000000000000 ) ;
#823 = ORIENTED_EDGE ( 'NONE', *, *, #652, .T. ) ;
#824 = LINE ( 'NONE', #563, #634 ) ;
#825 = CIRCLE ( 'NONE', #54, 4.999999999999999112 ) ;
#826 = CARTESIAN_POINT ( 'NONE',  ( 0.02263474412455765417, 3.877058397527571643, 2.799999999999999822 ) ) ;
#827 = VECTOR ( 'NONE', #20, 1000.000000000000000 ) ;
#828 = CARTESIAN_POINT ( 'NONE',  ( 13.55328552369691053, 0.8770583975275871857, 0.000000000000000000 ) ) ;
#829 = CARTESIAN_POINT ( 'NONE',  ( -9.948846584957077965, 3.877058397527571643, 1.800000000000000044 ) ) ;
#830 = ORIENTED_EDGE ( 'NONE', *, *, #714, .F. ) ;
#831 = VECTOR ( 'NONE', #606, 1000.000000000000227 ) ;
#832 = CARTESIAN_POINT ( 'NONE',  ( -2.840563229335014483, 3.877058397527571643, 1.800000000000000044 ) ) ;
#833 = CARTESIAN_POINT ( 'NONE',  ( 0.02263474412455765417, 3.877058397527571643, 1.800000000000000044 ) ) ;
#834 = CARTESIAN_POINT ( 'NONE',  ( 5.756828581435940784, 3.877058397527571199, 1.800000000000000044 ) ) ;
#835 = VERTEX_POINT ( 'NONE', #73 ) ;
#836 = CIRCLE ( 'NONE', #24, 4.999999999999999112 ) ;
#837 = DIRECTION ( 'NONE',  ( 1.000000000000000000, 0.000000000000000000, -0.000000000000000000 ) ) ;
#838 = EDGE_CURVE ( 'NONE', #255, #716, #344, .T. ) ;
#839 = LINE ( 'NONE', #703, #183 ) ;
#840 = VECTOR ( 'NONE', #848, 1000.000000000000000 ) ;
#841 = LINE ( 'NONE', #247, #433 ) ;
#842 = ORIENTED_EDGE ( 'NONE', *, *, #427, .T. ) ;
#843 = CARTESIAN_POINT ( 'NONE',  ( 3.467720126287040294, 3.877058397527571643, 1.800000000000000044 ) ) ;
#844 = CARTESIAN_POINT ( 'NONE',  ( -6.503761202794595242, 3.877058397527571199, 1.800000000000000044 ) ) ;
#845 = VERTEX_POINT ( 'NONE', #702 ) ;
#846 = EDGE_CURVE ( 'NONE', #480, #705, #216, .T. ) ;
#847 = UNCERTAINTY_MEASURE_WITH_UNIT (LENGTH_MEASURE( 1.000000000000000082E-05 ), #692, 'distance_accuracy_value', 'NONE');
#848 = DIRECTION ( 'NONE',  ( -0.000000000000000000, -0.000000000000000000, -1.000000000000000000 ) ) ;
#849 = PLANE ( 'NONE',  #106 ) ;
#850 = LINE ( 'NONE', #439, #677 ) ;
#851 = VERTEX_POINT ( 'NONE', #487 ) ;
#852 = LINE ( 'NONE', #776, #827 ) ;
#853 = LINE ( 'NONE', #47, #746 ) ;
#854 = ADVANCED_FACE ( 'NONE', ( #434 ), #684, .T. ) ;
#855 = VERTEX_POINT ( 'NONE', #762 ) ;
#856 = CARTESIAN_POINT ( 'NONE',  ( 13.55328552369692119, 0.8770583975275871857, 0.000000000000000000 ) ) ;
#857 = CARTESIAN_POINT ( 'NONE',  ( 4.386409561530370205, 3.877058397527571643, 2.799999999999999822 ) ) ;
#858 = DIRECTION ( 'NONE',  ( -0.000000000000000000, -0.000000000000000000, -1.000000000000000000 ) ) ;
#859 = ORIENTED_EDGE ( 'NONE', *, *, #200, .T. ) ;
#860 = VECTOR ( 'NONE', #531, 999.9999999999998863 ) ;
#861 = ORIENTED_EDGE ( 'NONE', *, *, #362, .T. ) ;
#862 = VECTOR ( 'NONE', #270, 1000.000000000000000 ) ;
#863 = ADVANCED_FACE ( 'NONE', ( #348 ), #287, .T. ) ;
#864 = EDGE_CURVE ( 'NONE', #303, #395, #85, .T. ) ;
#865 = LINE ( 'NONE', #188, #223 ) ;
#866 = ORIENTED_EDGE ( 'NONE', *, *, #369, .F. ) ;
#867 = ORIENTED_EDGE ( 'NONE', *, *, #489, .T. ) ;
#868 = EDGE_CURVE ( 'NONE', #705, #395, #282, .T. ) ;
#869 =( NAMED_UNIT ( * ) SI_UNIT ( $, .STERADIAN. ) SOLID_ANGLE_UNIT ( ) );
#870 = CARTESIAN_POINT ( 'NONE',  ( 10.55328552369692829, -2.122941602472415479, 2.799999999999999822 ) ) ;
#871 = ORIENTED_EDGE ( 'NONE', *, *, #361, .F. ) ;
#872 = VERTEX_POINT ( 'NONE', #30 ) ;
#873 = ADVANCED_FACE ( 'NONE', ( #94 ), #366, .F. ) ;
#874 = CARTESIAN_POINT ( 'NONE',  ( -6.503761202794595242, 3.877058397527571199, 1.800000000000000044 ) ) ;
#875 = LINE ( 'NONE', #60, #876 ) ;
#876 = VECTOR ( 'NONE', #140, 1000.000000000000000 ) ;
#877 = ORIENTED_EDGE ( 'NONE', *, *, #249, .T. ) ;
#878 = EDGE_CURVE ( 'NONE', #63, #450, #824, .T. ) ;
#879 = CARTESIAN_POINT ( 'NONE',  ( 4.386409561530370205, 3.877058397527571643, 1.800000000000000044 ) ) ;
#880 = AXIS2_PLACEMENT_3D ( 'NONE', #225, #154, #494 ) ;
#881 = PLANE ( 'NONE',  #516 ) ;
#882 = DIRECTION ( 'NONE',  ( -0.000000000000000000, -0.000000000000000000, 1.000000000000000000 ) ) ;
#883 = LINE ( 'NONE', #532, #21 ) ;
#884 = PLANE ( 'NONE',  #754 ) ;
ENDSEC;
END-ISO-10303-21;
