ISO-10303-21;
HEADER;
FILE_DESCRIPTION (( 'STEP AP214' ),
    '1' );
FILE_NAME ('cover-ir-rx.STEP',
    '2026-04-06T18:09:55',
    ( '' ),
    ( '' ),
    'SwSTEP 2.0',
    'SolidWorks 2026',
    '' );
FILE_SCHEMA (( 'AUTOMOTIVE_DESIGN' ));
ENDSEC;

DATA;
#1 = CARTESIAN_POINT ( 'NONE',  ( 2.344806068534511123, 6.830014348734375851, 4.800000000000000711 ) ) ;
#2 = LINE ( 'NONE', #551, #665 ) ;
#3 = LINE ( 'NONE', #319, #91 ) ;
#4 = AXIS2_PLACEMENT_3D ( 'NONE', #490, #61, #616 ) ;
#5 = AXIS2_PLACEMENT_3D ( 'NONE', #586, #536, #705 ) ;
#6 = CARTESIAN_POINT ( 'NONE',  ( -1.223821133563065100, -7.594621824805086518, 2.800000000000000266 ) ) ;
#7 = AXIS2_PLACEMENT_3D ( 'NONE', #728, #691, #64 ) ;
#8 = FACE_OUTER_BOUND ( 'NONE', #650, .T. ) ;
#9 = ADVANCED_FACE ( 'NONE', ( #722 ), #374, .T. ) ;
#10 = DIRECTION ( 'NONE',  ( 6.036231218411886721E-17, -1.000000000000000000, -0.000000000000000000 ) ) ;
#11 = CARTESIAN_POINT ( 'NONE',  ( 0.6106615048778567534, 4.404236621023066789, 2.800000000000000266 ) ) ;
#12 = DIRECTION ( 'NONE',  ( -0.000000000000000000, -0.000000000000000000, -1.000000000000000000 ) ) ;
#13 = CARTESIAN_POINT ( 'NONE',  ( -1.389338495122143247, 4.404236621023066789, 4.800000000000000711 ) ) ;
#14 = LINE ( 'NONE', #564, #787 ) ;
#15 = CARTESIAN_POINT ( 'NONE',  ( 3.631823148235540977, -9.690684049156406132, 0.000000000000000000 ) ) ;
#16 = EDGE_CURVE ( 'NONE', #145, #36, #3, .T. ) ;
#17 = DIRECTION ( 'NONE',  ( 0.07766798534269502008, -0.9969792796506889987, 0.000000000000000000 ) ) ;
#18 = AXIS2_PLACEMENT_3D ( 'NONE', #385, #449, #203 ) ;
#19 = LINE ( 'NONE', #256, #457 ) ;
#20 = AXIS2_PLACEMENT_3D ( 'NONE', #303, #666, #741 ) ;
#21 = ORIENTED_EDGE ( 'NONE', *, *, #790, .T. ) ;
#22 = AXIS2_PLACEMENT_3D ( 'NONE', #13, #317, #387 ) ;
#23 = ORIENTED_EDGE ( 'NONE', *, *, #207, .T. ) ;
#24 = ORIENTED_EDGE ( 'NONE', *, *, #615, .F. ) ;
#25 = LINE ( 'NONE', #276, #707 ) ;
#26 = CARTESIAN_POINT ( 'NONE',  ( -1.223821133563065100, -7.594621824805086518, 2.800000000000000266 ) ) ;
#27 = VERTEX_POINT ( 'NONE', #552 ) ;
#28 = AXIS2_PLACEMENT_3D ( 'NONE', #794, #542, #241 ) ;
#29 = AXIS2_PLACEMENT_3D ( 'NONE', #78, #489, #432 ) ;
#30 = ORIENTED_EDGE ( 'NONE', *, *, #189, .T. ) ;
#31 = DIRECTION ( 'NONE',  ( -0.000000000000000000, -0.000000000000000000, -1.000000000000000000 ) ) ;
#32 = FACE_OUTER_BOUND ( 'NONE', #390, .T. ) ;
#33 = ORIENTED_EDGE ( 'NONE', *, *, #777, .F. ) ;
#34 = ORIENTED_EDGE ( 'NONE', *, *, #397, .T. ) ;
#35 = CARTESIAN_POINT ( 'NONE',  ( 3.631823148235540977, -9.690684049156406132, 1.800000000000000044 ) ) ;
#36 = VERTEX_POINT ( 'NONE', #253 ) ;
#37 = VERTEX_POINT ( 'NONE', #11 ) ;
#38 = APPLICATION_PROTOCOL_DEFINITION ( 'draft international standard', 'automotive_design', 1998, #211 ) ;
#39 = EDGE_CURVE ( 'NONE', #562, #47, #53, .T. ) ;
#40 = ADVANCED_BREP_SHAPE_REPRESENTATION ( 'cover-ir-rx', ( #701, #774 ), #554 ) ;
#41 = DIRECTION ( 'NONE',  ( 1.000000000000000000, 0.000000000000000000, 0.000000000000000000 ) ) ;
#42 = DIRECTION ( 'NONE',  ( 0.9998333489094135551, 0.01825580479154432709, -0.000000000000000000 ) ) ;
#43 = ORIENTED_EDGE ( 'NONE', *, *, #412, .F. ) ;
#44 = PRESENTATION_LAYER_ASSIGNMENT (  '', '', ( #731 ) ) ;
#45 = ORIENTED_EDGE ( 'NONE', *, *, #685, .F. ) ;
#46 = CARTESIAN_POINT ( 'NONE',  ( -2.323821133563065189, -7.594621824805086518, 1.800000000000000044 ) ) ;
#47 = VERTEX_POINT ( 'NONE', #380 ) ;
#48 = VERTEX_POINT ( 'NONE', #498 ) ;
#49 = FACE_OUTER_BOUND ( 'NONE', #606, .T. ) ;
#50 = CARTESIAN_POINT ( 'NONE',  ( 0.5464327840800276004, 1.984717243595775837, 1.800000000000000044 ) ) ;
#51 = EDGE_CURVE ( 'NONE', #696, #37, #251, .T. ) ;
#52 = FACE_OUTER_BOUND ( 'NONE', #407, .T. ) ;
#53 = CIRCLE ( 'NONE', #770, 4.926998846378876529 ) ;
#54 = CARTESIAN_POINT ( 'NONE',  ( -3.959590400273491184, 7.269057373875631001, 1.800000000000000044 ) ) ;
#55 = EDGE_CURVE ( 'NONE', #517, #413, #734, .T. ) ;
#56 = ORIENTED_EDGE ( 'NONE', *, *, #664, .T. ) ;
#57 = CIRCLE ( 'NONE', #69, 2.000000000000000000 ) ;
#58 = CIRCLE ( 'NONE', #22, 2.000000000000000000 ) ;
#59 = CARTESIAN_POINT ( 'NONE',  ( -1.223821133563065100, -7.594621824805086518, 2.800000000000000266 ) ) ;
#60 = PLANE ( 'NONE',  #573 ) ;
#61 = DIRECTION ( 'NONE',  ( 0.000000000000000000, 0.000000000000000000, 1.000000000000000000 ) ) ;
#62 = CARTESIAN_POINT ( 'NONE',  ( -1.223821133563065100, -7.594621824805086518, 2.800000000000000266 ) ) ;
#63 =( NAMED_UNIT ( * ) SI_UNIT ( $, .STERADIAN. ) SOLID_ANGLE_UNIT ( ) );
#64 = DIRECTION ( 'NONE',  ( 1.000000000000000000, 0.000000000000000000, -0.000000000000000000 ) ) ;
#65 = VERTEX_POINT ( 'NONE', #68 ) ;
#66 = CARTESIAN_POINT ( 'NONE',  ( 0.7761788664369350110, -7.594621824805086518, 2.800000000000000266 ) ) ;
#67 = CARTESIAN_POINT ( 'NONE',  ( 0.5464327840800283775, -5.199912590850854777, 1.800000000000000044 ) ) ;
#68 = CARTESIAN_POINT ( 'NONE',  ( 2.205416312212453711, -9.690684049156406132, 0.000000000000000000 ) ) ;
#69 = AXIS2_PLACEMENT_3D ( 'NONE', #59, #553, #735 ) ;
#70 = DIRECTION ( 'NONE',  ( 0.01825580479154432015, -0.9998333489094134441, -0.000000000000000000 ) ) ;
#71 = VECTOR ( 'NONE', #511, 1000.000000000000000 ) ;
#72 = DIRECTION ( 'NONE',  ( 1.000000000000000000, -0.000000000000000000, -0.000000000000000000 ) ) ;
#73 = PRODUCT_DEFINITION_CONTEXT ( 'detailed design', #211, 'design' ) ;
#74 = ORIENTED_EDGE ( 'NONE', *, *, #334, .T. ) ;
#75 = DIRECTION ( 'NONE',  ( -0.000000000000000000, -0.000000000000000000, -1.000000000000000000 ) ) ;
#76 = VERTEX_POINT ( 'NONE', #314 ) ;
#77 = EDGE_CURVE ( 'NONE', #168, #773, #560, .T. ) ;
#78 = CARTESIAN_POINT ( 'NONE',  ( -1.223821133563065100, -7.594621824805086518, 2.800000000000000266 ) ) ;
#79 = CARTESIAN_POINT ( 'NONE',  ( -3.982646507246556666, 8.531793523331554496, 1.800000000000000044 ) ) ;
#80 = ADVANCED_FACE ( 'NONE', ( #248 ), #120, .F. ) ;
#81 = VECTOR ( 'NONE', #12, 1000.000000000000000 ) ;
#82 = CARTESIAN_POINT ( 'NONE',  ( 0.5464327840800283775, -5.199912590850854777, 1.800000000000000044 ) ) ;
#83 = VECTOR ( 'NONE', #167, 1000.000000000000000 ) ;
#84 = CIRCLE ( 'NONE', #748, 1.100000000000000089 ) ;
#85 = EDGE_LOOP ( 'NONE', ( #759, #272, #466, #729 ) ) ;
#86 = PRODUCT_DEFINITION_FORMATION_WITH_SPECIFIED_SOURCE ( 'ANY', '', #491, .NOT_KNOWN. ) ;
#87 = VERTEX_POINT ( 'NONE', #425 ) ;
#88 = DIRECTION ( 'NONE',  ( 1.000000000000000000, 0.000000000000000000, -0.000000000000000000 ) ) ;
#89 = ADVANCED_FACE ( 'NONE', ( #52 ), #368, .F. ) ;
#90 = ORIENTED_EDGE ( 'NONE', *, *, #576, .T. ) ;
#91 = VECTOR ( 'NONE', #438, 1000.000000000000000 ) ;
#92 = ORIENTED_EDGE ( 'NONE', *, *, #117, .F. ) ;
#93 = DIRECTION ( 'NONE',  ( -0.000000000000000000, 0.000000000000000000, -1.000000000000000000 ) ) ;
#94 = CARTESIAN_POINT ( 'NONE',  ( 0.5464327840800283775, -5.199912590850854777, 3.799999999999999822 ) ) ;
#95 = ORIENTED_EDGE ( 'NONE', *, *, #334, .F. ) ;
#96 = AXIS2_PLACEMENT_3D ( 'NONE', #509, #330, #17 ) ;
#97 = AXIS2_PLACEMENT_3D ( 'NONE', #35, #767, #329 ) ;
#98 = ORIENTED_EDGE ( 'NONE', *, *, #213, .F. ) ;
#99 = LINE ( 'NONE', #234, #533 ) ;
#100 = DIRECTION ( 'NONE',  ( -1.000000000000000000, 7.434529182757744409E-16, 0.000000000000000000 ) ) ;
#101 = FACE_OUTER_BOUND ( 'NONE', #137, .T. ) ;
#102 = ORIENTED_EDGE ( 'NONE', *, *, #207, .F. ) ;
#103 = EDGE_CURVE ( 'NONE', #413, #280, #123, .T. ) ;
#104 = ORIENTED_EDGE ( 'NONE', *, *, #450, .T. ) ;
#105 = DIRECTION ( 'NONE',  ( -0.000000000000000000, -0.000000000000000000, -1.000000000000000000 ) ) ;
#106 = VERTEX_POINT ( 'NONE', #742 ) ;
#107 = DIRECTION ( 'NONE',  ( 1.000000000000000000, 0.000000000000000000, 0.000000000000000000 ) ) ;
#108 = EDGE_LOOP ( 'NONE', ( #737, #646 ) ) ;
#109 = LINE ( 'NONE', #226, #116 ) ;
#110 = CARTESIAN_POINT ( 'NONE',  ( -3.389338495122143247, 4.404236621023066789, 4.800000000000000711 ) ) ;
#111 = EDGE_LOOP ( 'NONE', ( #634, #537 ) ) ;
#112 = AXIS2_PLACEMENT_3D ( 'NONE', #429, #365, #609 ) ;
#113 = AXIS2_PLACEMENT_3D ( 'NONE', #476, #42, #288 ) ;
#114 = VECTOR ( 'NONE', #158, 1000.000000000000000 ) ;
#115 = ORIENTED_EDGE ( 'NONE', *, *, #187, .T. ) ;
#116 = VECTOR ( 'NONE', #176, 1000.000000000000000 ) ;
#117 = EDGE_CURVE ( 'NONE', #224, #453, #354, .T. ) ;
#118 = DIRECTION ( 'NONE',  ( -0.000000000000000000, -0.000000000000000000, -1.000000000000000000 ) ) ;
#119 = CARTESIAN_POINT ( 'NONE',  ( -2.323821133563065189, -7.594621824805086518, 4.800000000000000711 ) ) ;
#120 = PLANE ( 'NONE',  #112 ) ;
#121 = FACE_OUTER_BOUND ( 'NONE', #111, .T. ) ;
#122 = ADVANCED_FACE ( 'NONE', ( #464 ), #293, .F. ) ;
#123 = LINE ( 'NONE', #610, #518 ) ;
#124 = DIRECTION ( 'NONE',  ( 1.000000000000000000, 0.000000000000000000, 0.000000000000000000 ) ) ;
#125 = CARTESIAN_POINT ( 'NONE',  ( -1.389338495122143247, 4.404236621023066789, 1.800000000000000044 ) ) ;
#126 = ORIENTED_EDGE ( 'NONE', *, *, #367, .F. ) ;
#127 = PRESENTATION_STYLE_ASSIGNMENT (( #316 ) ) ;
#128 = FACE_OUTER_BOUND ( 'NONE', #461, .T. ) ;
#129 = ADVANCED_FACE ( 'NONE', ( #658 ), #235, .F. ) ;
#130 = ORIENTED_EDGE ( 'NONE', *, *, #338, .F. ) ;
#131 = CARTESIAN_POINT ( 'NONE',  ( 2.344806068534511123, 6.830014348734375851, 0.000000000000000000 ) ) ;
#132 = DIRECTION ( 'NONE',  ( -0.000000000000000000, -0.000000000000000000, -1.000000000000000000 ) ) ;
#133 = CARTESIAN_POINT ( 'NONE',  ( -1.389338495122143247, 4.404236621023066789, 2.800000000000000266 ) ) ;
#134 = ORIENTED_EDGE ( 'NONE', *, *, #221, .T. ) ;
#135 = CARTESIAN_POINT ( 'NONE',  ( 0.5464327840800279334, 1.984717243595775837, 3.799999999999999822 ) ) ;
#136 = DIRECTION ( 'NONE',  ( -0.01379311346324883954, 0.9999048704856827730, 0.000000000000000000 ) ) ;
#137 = EDGE_LOOP ( 'NONE', ( #274, #392, #281, #473 ) ) ;
#138 = CARTESIAN_POINT ( 'NONE',  ( -0.2893384951221423806, 4.404236621023066789, 4.800000000000000711 ) ) ;
#139 = EDGE_CURVE ( 'NONE', #408, #725, #277, .T. ) ;
#140 = VECTOR ( 'NONE', #143, 1000.000000000000000 ) ;
#141 = ORIENTED_EDGE ( 'NONE', *, *, #39, .F. ) ;
#142 = DIRECTION ( 'NONE',  ( -0.000000000000000000, -0.000000000000000000, -1.000000000000000000 ) ) ;
#143 = DIRECTION ( 'NONE',  ( -0.000000000000000000, -0.000000000000000000, -1.000000000000000000 ) ) ;
#144 = EDGE_CURVE ( 'NONE', #525, #755, #178, .T. ) ;
#145 = VERTEX_POINT ( 'NONE', #520 ) ;
#146 = CYLINDRICAL_SURFACE ( 'NONE', #544, 1.100000000000001199 ) ;
#147 = DIRECTION ( 'NONE',  ( -0.000000000000000000, -0.000000000000000000, 1.000000000000000000 ) ) ;
#148 = ORIENTED_EDGE ( 'NONE', *, *, #508, .T. ) ;
#149 = VECTOR ( 'NONE', #523, 1000.000000000000000 ) ;
#150 = ORIENTED_EDGE ( 'NONE', *, *, #326, .F. ) ;
#151 = ADVANCED_FACE ( 'NONE', ( #101 ), #278, .F. ) ;
#152 = DIRECTION ( 'NONE',  ( 1.000000000000000000, 0.000000000000000000, -0.000000000000000000 ) ) ;
#153 = ORIENTED_EDGE ( 'NONE', *, *, #273, .F. ) ;
#154 = CARTESIAN_POINT ( 'NONE',  ( -3.223821133563065100, -7.594621824805086518, 4.800000000000000711 ) ) ;
#155 = DIRECTION ( 'NONE',  ( 1.000000000000000000, 0.000000000000000000, 0.000000000000000000 ) ) ;
#156 = ORIENTED_EDGE ( 'NONE', *, *, #749, .T. ) ;
#157 = VERTEX_POINT ( 'NONE', #110 ) ;
#158 = DIRECTION ( 'NONE',  ( -0.000000000000000000, -0.000000000000000000, -1.000000000000000000 ) ) ;
#159 = ADVANCED_FACE ( 'NONE', ( #781 ), #643, .F. ) ;
#160 = DIRECTION ( 'NONE',  ( -0.000000000000000000, -0.000000000000000000, 1.000000000000000000 ) ) ;
#161 = ADVANCED_FACE ( 'NONE', ( #32 ), #223, .F. ) ;
#162 = ORIENTED_EDGE ( 'NONE', *, *, #777, .T. ) ;
#163 = CIRCLE ( 'NONE', #29, 1.100000000000000089 ) ;
#164 = ORIENTED_EDGE ( 'NONE', *, *, #549, .F. ) ;
#165 = CARTESIAN_POINT ( 'NONE',  ( 0.000000000000000000, 0.000000000000000000, 0.000000000000000000 ) ) ;
#166 = DIRECTION ( 'NONE',  ( -0.000000000000000000, -0.000000000000000000, -1.000000000000000000 ) ) ;
#167 = DIRECTION ( 'NONE',  ( -0.000000000000000000, -0.000000000000000000, -1.000000000000000000 ) ) ;
#168 = VERTEX_POINT ( 'NONE', #350 ) ;
#169 = ADVANCED_FACE ( 'NONE', ( #669, #121 ), #375, .T. ) ;
#170 = APPLICATION_CONTEXT ( 'automotive_design' ) ;
#171 = ORIENTED_EDGE ( 'NONE', *, *, #698, .T. ) ;
#172 = LINE ( 'NONE', #585, #369 ) ;
#173 = ORIENTED_EDGE ( 'NONE', *, *, #246, .T. ) ;
#174 = DIRECTION ( 'NONE',  ( 0.000000000000000000, 0.000000000000000000, 1.000000000000000000 ) ) ;
#175 = ORIENTED_EDGE ( 'NONE', *, *, #16, .F. ) ;
#176 = DIRECTION ( 'NONE',  ( -0.000000000000000000, -0.000000000000000000, 1.000000000000000000 ) ) ;
#177 = DIRECTION ( 'NONE',  ( -0.000000000000000000, -0.000000000000000000, -1.000000000000000000 ) ) ;
#178 = CIRCLE ( 'NONE', #5, 1.100000000000000977 ) ;
#179 = CIRCLE ( 'NONE', #690, 1.100000000000000977 ) ;
#180 = EDGE_LOOP ( 'NONE', ( #23, #92, #220, #90 ) ) ;
#181 = ADVANCED_FACE ( 'NONE', ( #249, #193 ), #312, .T. ) ;
#182 = DIRECTION ( 'NONE',  ( 0.01825580479154425423, -0.9998333489094135551, 0.000000000000000000 ) ) ;
#183 = DIRECTION ( 'NONE',  ( 1.000000000000000000, 0.000000000000000000, 0.000000000000000000 ) ) ;
#184 = CARTESIAN_POINT ( 'NONE',  ( -1.223821133563065100, -7.594621824805086518, 4.800000000000000711 ) ) ;
#185 = DIRECTION ( 'NONE',  ( 1.000000000000000000, -7.434529182757744409E-16, 0.000000000000000000 ) ) ;
#186 = DIRECTION ( 'NONE',  ( -0.000000000000000000, -0.000000000000000000, 1.000000000000000000 ) ) ;
#187 = EDGE_CURVE ( 'NONE', #562, #706, #434, .T. ) ;
#188 = FACE_OUTER_BOUND ( 'NONE', #286, .T. ) ;
#189 = EDGE_CURVE ( 'NONE', #725, #408, #57, .T. ) ;
#190 = DIRECTION ( 'NONE',  ( -7.434529182757744409E-16, -1.000000000000000000, 0.000000000000000000 ) ) ;
#191 = VERTEX_POINT ( 'NONE', #493 ) ;
#192 = VECTOR ( 'NONE', #247, 1000.000000000000000 ) ;
#193 = FACE_OUTER_BOUND ( 'NONE', #210, .T. ) ;
#194 = DIRECTION ( 'NONE',  ( 0.000000000000000000, 0.000000000000000000, 1.000000000000000000 ) ) ;
#195 = DIRECTION ( 'NONE',  ( 1.000000000000000000, 0.000000000000000000, 0.000000000000000000 ) ) ;
#196 = ORIENTED_EDGE ( 'NONE', *, *, #358, .F. ) ;
#197 = DIRECTION ( 'NONE',  ( 0.9999048704856826619, 0.01379311346324883954, -0.000000000000000000 ) ) ;
#198 = DIRECTION ( 'NONE',  ( -0.000000000000000000, -0.000000000000000000, -1.000000000000000000 ) ) ;
#199 = EDGE_LOOP ( 'NONE', ( #56, #782 ) ) ;
#200 = DIRECTION ( 'NONE',  ( 0.000000000000000000, -1.000000000000000000, 0.000000000000000000 ) ) ;
#201 = DIRECTION ( 'NONE',  ( -1.000000000000000000, 0.000000000000000000, 0.000000000000000000 ) ) ;
#202 = ADVANCED_FACE ( 'NONE', ( #49 ), #726, .F. ) ;
#203 = DIRECTION ( 'NONE',  ( 1.000000000000000000, 0.000000000000000000, 0.000000000000000000 ) ) ;
#204 = FILL_AREA_STYLE ('',( #386 ) ) ;
#205 = ORIENTED_EDGE ( 'NONE', *, *, #593, .F. ) ;
#206 = CARTESIAN_POINT ( 'NONE',  ( -1.223821133563065100, -7.594621824805086518, 4.800000000000000711 ) ) ;
#207 = EDGE_CURVE ( 'NONE', #711, #453, #255, .T. ) ;
#208 = VECTOR ( 'NONE', #366, 1000.000000000000000 ) ;
#209 = VECTOR ( 'NONE', #443, 1000.000000000000000 ) ;
#210 = EDGE_LOOP ( 'NONE', ( #403, #30 ) ) ;
#211 = APPLICATION_CONTEXT ( 'automotive_design' ) ;
#212 = DIRECTION ( 'NONE',  ( 6.036231218411886721E-17, -1.000000000000000000, -0.000000000000000000 ) ) ;
#213 = EDGE_CURVE ( 'NONE', #574, #27, #682, .T. ) ;
#214 = AXIS2_PLACEMENT_3D ( 'NONE', #633, #262, #194 ) ;
#215 = AXIS2_PLACEMENT_3D ( 'NONE', #206, #313, #376 ) ;
#216 = EDGE_LOOP ( 'NONE', ( #442, #681, #175, #410, #295 ) ) ;
#217 = DIRECTION ( 'NONE',  ( 0.9999048704856827730, 0.01379311346324878229, -0.000000000000000000 ) ) ;
#218 = VERTEX_POINT ( 'NONE', #54 ) ;
#219 = DIRECTION ( 'NONE',  ( -0.000000000000000000, -0.000000000000000000, 1.000000000000000000 ) ) ;
#220 = ORIENTED_EDGE ( 'NONE', *, *, #784, .F. ) ;
#221 = EDGE_CURVE ( 'NONE', #36, #218, #788, .T. ) ;
#222 = DIRECTION ( 'NONE',  ( 1.000000000000000000, 0.000000000000000000, 0.000000000000000000 ) ) ;
#223 = CYLINDRICAL_SURFACE ( 'NONE', #582, 2.000000000000000000 ) ;
#224 = VERTEX_POINT ( 'NONE', #389 ) ;
#225 = ORIENTED_EDGE ( 'NONE', *, *, #651, .F. ) ;
#226 = CARTESIAN_POINT ( 'NONE',  ( -3.223821133563065100, -7.594621824805086518, 2.800000000000000266 ) ) ;
#227 = CARTESIAN_POINT ( 'NONE',  ( -2.567309692168062707, 6.447344274550292909, 1.800000000000000044 ) ) ;
#228 = ADVANCED_FACE ( 'NONE', ( #638 ), #569, .F. ) ;
#229 = AXIS2_PLACEMENT_3D ( 'NONE', #94, #343, #528 ) ;
#230 = ORIENTED_EDGE ( 'NONE', *, *, #716, .T. ) ;
#231 =( GEOMETRIC_REPRESENTATION_CONTEXT ( 3 ) GLOBAL_UNCERTAINTY_ASSIGNED_CONTEXT ( ( #304 ) ) GLOBAL_UNIT_ASSIGNED_CONTEXT ( ( #378, #448, #63 ) ) REPRESENTATION_CONTEXT ( 'NONE', 'WORKASPACE' ) );
#232 = VECTOR ( 'NONE', #333, 1000.000000000000000 ) ;
#233 = ORIENTED_EDGE ( 'NONE', *, *, #593, .T. ) ;
#234 = CARTESIAN_POINT ( 'NONE',  ( 0.6106615048778567534, 4.404236621023066789, 2.800000000000000266 ) ) ;
#235 = CYLINDRICAL_SURFACE ( 'NONE', #294, 1.100000000000001199 ) ;
#236 = ORIENTED_EDGE ( 'NONE', *, *, #563, .F. ) ;
#237 = ORIENTED_EDGE ( 'NONE', *, *, #481, .T. ) ;
#238 = CARTESIAN_POINT ( 'NONE',  ( -3.982646507246556666, 8.531793523331554496, 4.800000000000000711 ) ) ;
#239 = EDGE_CURVE ( 'NONE', #48, #577, #746, .T. ) ;
#240 = ORIENTED_EDGE ( 'NONE', *, *, #266, .F. ) ;
#241 = DIRECTION ( 'NONE',  ( 1.000000000000000000, 0.000000000000000000, -0.000000000000000000 ) ) ;
#242 = VECTOR ( 'NONE', #611, 1000.000000000000000 ) ;
#243 = VECTOR ( 'NONE', #502, 1000.000000000000000 ) ;
#244 = VERTEX_POINT ( 'NONE', #753 ) ;
#245 = DIRECTION ( 'NONE',  ( 0.000000000000000000, 0.000000000000000000, 1.000000000000000000 ) ) ;
#246 = EDGE_CURVE ( 'NONE', #652, #517, #693, .T. ) ;
#247 = DIRECTION ( 'NONE',  ( 1.000000000000000000, -0.000000000000000000, -0.000000000000000000 ) ) ;
#248 = FACE_OUTER_BOUND ( 'NONE', #458, .T. ) ;
#249 = FACE_BOUND ( 'NONE', #789, .T. ) ;
#250 = SURFACE_STYLE_FILL_AREA ( #204 ) ;
#251 = CIRCLE ( 'NONE', #4, 2.000000000000000000 ) ;
#252 = DIRECTION ( 'NONE',  ( 0.01825580479154432015, -0.9998333489094134441, -0.000000000000000000 ) ) ;
#253 = CARTESIAN_POINT ( 'NONE',  ( -3.982646507246556666, 8.531793523331554496, 1.800000000000000044 ) ) ;
#254 = AXIS2_PLACEMENT_3D ( 'NONE', #494, #136, #439 ) ;
#255 = LINE ( 'NONE', #539, #687 ) ;
#256 = CARTESIAN_POINT ( 'NONE',  ( 3.631823148235540977, -9.690684049156406132, 4.800000000000000711 ) ) ;
#257 = ORIENTED_EDGE ( 'NONE', *, *, #608, .T. ) ;
#258 = CARTESIAN_POINT ( 'NONE',  ( 0.5464327840800279334, 1.984717243595775837, 3.799999999999999822 ) ) ;
#259 = ADVANCED_FACE ( 'NONE', ( #754, #335, #575, #441 ), #475, .F. ) ;
#260 = CARTESIAN_POINT ( 'NONE',  ( 0.7761788664369350110, -7.594621824805086518, 2.800000000000000266 ) ) ;
#261 = CARTESIAN_POINT ( 'NONE',  ( -3.982646507246556666, 8.531793523331554496, 0.000000000000000000 ) ) ;
#262 = DIRECTION ( 'NONE',  ( 0.000000000000000000, 1.000000000000000000, -0.000000000000000000 ) ) ;
#263 = EDGE_LOOP ( 'NONE', ( #104, #153, #692, #587 ) ) ;
#264 = CARTESIAN_POINT ( 'NONE',  ( -1.389338495122143247, 4.404236621023066789, 4.800000000000000711 ) ) ;
#265 = CARTESIAN_POINT ( 'NONE',  ( -2.953567215919971733, -5.199912590850852112, 1.800000000000000044 ) ) ;
#266 = EDGE_CURVE ( 'NONE', #706, #168, #512, .T. ) ;
#267 = CARTESIAN_POINT ( 'NONE',  ( -3.959590400273491184, 7.269057373875631001, 0.000000000000000000 ) ) ;
#268 = ORIENTED_EDGE ( 'NONE', *, *, #637, .F. ) ;
#269 = LINE ( 'NONE', #436, #628 ) ;
#270 = VECTOR ( 'NONE', #166, 1000.000000000000000 ) ;
#271 = COLOUR_RGB ( '',0.7921568627450980005, 0.8196078431372548767, 0.9333333333333333481 ) ;
#272 = ORIENTED_EDGE ( 'NONE', *, *, #588, .F. ) ;
#273 = EDGE_CURVE ( 'NONE', #538, #433, #292, .T. ) ;
#274 = ORIENTED_EDGE ( 'NONE', *, *, #471, .T. ) ;
#275 = VERTEX_POINT ( 'NONE', #649 ) ;
#276 = CARTESIAN_POINT ( 'NONE',  ( -2.489338495122144668, 4.404236621023066789, 4.800000000000000711 ) ) ;
#277 = CIRCLE ( 'NONE', #445, 2.000000000000000000 ) ;
#278 = PLANE ( 'NONE',  #113 ) ;
#279 = AXIS2_PLACEMENT_3D ( 'NONE', #125, #372, #680 ) ;
#280 = VERTEX_POINT ( 'NONE', #531 ) ;
#281 = ORIENTED_EDGE ( 'NONE', *, *, #221, .F. ) ;
#282 = LINE ( 'NONE', #337, #149 ) ;
#283 = CARTESIAN_POINT ( 'NONE',  ( -1.223821133563065100, -7.594621824805086518, 2.800000000000000266 ) ) ;
#284 = ORIENTED_EDGE ( 'NONE', *, *, #568, .T. ) ;
#285 = EDGE_CURVE ( 'NONE', #465, #706, #400, .T. ) ;
#286 = EDGE_LOOP ( 'NONE', ( #339, #164, #98, #583 ) ) ;
#287 = PLANE ( 'NONE',  #371 ) ;
#288 = DIRECTION ( 'NONE',  ( -0.01825580479154432362, 0.9998333489094134441, 0.000000000000000000 ) ) ;
#289 = EDGE_LOOP ( 'NONE', ( #761, #594 ) ) ;
#290 = ORIENTED_EDGE ( 'NONE', *, *, #790, .F. ) ;
#291 = CARTESIAN_POINT ( 'NONE',  ( 2.205416312200526363, -9.690684049156407909, 1.800000000000000044 ) ) ;
#292 = LINE ( 'NONE', #463, #612 ) ;
#293 = CYLINDRICAL_SURFACE ( 'NONE', #543, 2.000000000000000000 ) ;
#294 = AXIS2_PLACEMENT_3D ( 'NONE', #421, #118, #480 ) ;
#295 = ORIENTED_EDGE ( 'NONE', *, *, #495, .T. ) ;
#296 = VECTOR ( 'NONE', #322, 1000.000000000000000 ) ;
#297 = VERTEX_POINT ( 'NONE', #46 ) ;
#298 =( NAMED_UNIT ( * ) PLANE_ANGLE_UNIT ( ) SI_UNIT ( $, .RADIAN. ) );
#299 = EDGE_CURVE ( 'NONE', #604, #465, #714, .T. ) ;
#300 = ORIENTED_EDGE ( 'NONE', *, *, #508, .F. ) ;
#301 = DIRECTION ( 'NONE',  ( 0.000000000000000000, 0.000000000000000000, 1.000000000000000000 ) ) ;
#302 = ORIENTED_EDGE ( 'NONE', *, *, #285, .T. ) ;
#303 = CARTESIAN_POINT ( 'NONE',  ( -1.223821133563065100, -7.594621824805086518, 4.800000000000000711 ) ) ;
#304 = UNCERTAINTY_MEASURE_WITH_UNIT (LENGTH_MEASURE( 1.000000000000000082E-05 ), #378, 'distance_accuracy_value', 'NONE');
#305 = AXIS2_PLACEMENT_3D ( 'NONE', #377, #548, #201 ) ;
#306 = DIRECTION ( 'NONE',  ( -1.000000000000000000, 7.434529182757744409E-16, 0.000000000000000000 ) ) ;
#307 = DIRECTION ( 'NONE',  ( -0.000000000000000000, -0.000000000000000000, -1.000000000000000000 ) ) ;
#308 = PRODUCT_DEFINITION ( 'UNKNOWN', '', #86, #73 ) ;
#309 = EDGE_CURVE ( 'NONE', #755, #275, #25, .T. ) ;
#310 = VECTOR ( 'NONE', #132, 1000.000000000000000 ) ;
#311 = EDGE_LOOP ( 'NONE', ( #656, #624, #95, #417, #233, #764 ) ) ;
#312 = PLANE ( 'NONE',  #455 ) ;
#313 = DIRECTION ( 'NONE',  ( 0.000000000000000000, 0.000000000000000000, 1.000000000000000000 ) ) ;
#314 = CARTESIAN_POINT ( 'NONE',  ( 0.7761788664369350110, -7.594621824805086518, 4.800000000000000711 ) ) ;
#315 = ADVANCED_FACE ( 'NONE', ( #762 ), #287, .F. ) ;
#316 = SURFACE_STYLE_USAGE ( .BOTH. , #561 ) ;
#317 = DIRECTION ( 'NONE',  ( 0.000000000000000000, 0.000000000000000000, 1.000000000000000000 ) ) ;
#318 = CARTESIAN_POINT ( 'NONE',  ( -3.982646507246556666, 8.531793523331554496, 1.800000000000000044 ) ) ;
#319 = CARTESIAN_POINT ( 'NONE',  ( -3.982646507246556666, 8.531793523331554496, 4.800000000000000711 ) ) ;
#320 = CARTESIAN_POINT ( 'NONE',  ( 2.344806068534511123, 6.830014348734375851, 1.800000000000000044 ) ) ;
#321 = CARTESIAN_POINT ( 'NONE',  ( -2.953567215919971733, -5.199912590850852112, 3.799999999999999822 ) ) ;
#322 = DIRECTION ( 'NONE',  ( -0.000000000000000000, -0.000000000000000000, 1.000000000000000000 ) ) ;
#323 = CARTESIAN_POINT ( 'NONE',  ( -0.2893384951221423806, 4.404236621023066789, 2.800000000000000266 ) ) ;
#324 = ORIENTED_EDGE ( 'NONE', *, *, #426, .F. ) ;
#325 = AXIS2_PLACEMENT_3D ( 'NONE', #440, #190, #185 ) ;
#326 = EDGE_CURVE ( 'NONE', #574, #280, #172, .T. ) ;
#327 = ORIENTED_EDGE ( 'NONE', *, *, #144, .T. ) ;
#328 = DIRECTION ( 'NONE',  ( 0.000000000000000000, 0.000000000000000000, 1.000000000000000000 ) ) ;
#329 = DIRECTION ( 'NONE',  ( 0.000000000000000000, 0.000000000000000000, 1.000000000000000000 ) ) ;
#330 = DIRECTION ( 'NONE',  ( -0.9969792796506891097, -0.07766798534269503396, 0.000000000000000000 ) ) ;
#331 = CARTESIAN_POINT ( 'NONE',  ( -2.953567215919971733, -5.199912590850852112, 3.799999999999999822 ) ) ;
#332 = FACE_BOUND ( 'NONE', #108, .T. ) ;
#333 = DIRECTION ( 'NONE',  ( -0.000000000000000000, -0.000000000000000000, -1.000000000000000000 ) ) ;
#334 = EDGE_CURVE ( 'NONE', #538, #604, #775, .T. ) ;
#335 = FACE_BOUND ( 'NONE', #199, .T. ) ;
#336 = ORIENTED_EDGE ( 'NONE', *, *, #486, .T. ) ;
#337 = CARTESIAN_POINT ( 'NONE',  ( -3.982646507246556666, 8.531793523331554496, 4.800000000000000711 ) ) ;
#338 = EDGE_CURVE ( 'NONE', #87, #191, #758, .T. ) ;
#339 = ORIENTED_EDGE ( 'NONE', *, *, #760, .T. ) ;
#340 = ORIENTED_EDGE ( 'NONE', *, *, #187, .F. ) ;
#341 = CARTESIAN_POINT ( 'NONE',  ( 3.631823148235540977, -9.690684049156406132, 1.800000000000000044 ) ) ;
#342 = AXIS2_PLACEMENT_3D ( 'NONE', #6, #783, #730 ) ;
#343 = DIRECTION ( 'NONE',  ( 1.000000000000000000, 6.036231218411886721E-17, -0.000000000000000000 ) ) ;
#344 = CIRCLE ( 'NONE', #215, 2.000000000000000000 ) ;
#345 = ORIENTED_EDGE ( 'NONE', *, *, #549, .T. ) ;
#346 = ADVANCED_FACE ( 'NONE', ( #460 ), #469, .F. ) ;
#347 = EDGE_LOOP ( 'NONE', ( #659, #530, #130, #717 ) ) ;
#348 =( LENGTH_UNIT ( ) NAMED_UNIT ( * ) SI_UNIT ( .MILLI., .METRE. ) );
#349 = FACE_OUTER_BOUND ( 'NONE', #311, .T. ) ;
#350 = CARTESIAN_POINT ( 'NONE',  ( 1.845785321592047001, 8.638213972123507389, 0.000000000000000000 ) ) ;
#351 = ORIENTED_EDGE ( 'NONE', *, *, #695, .T. ) ;
#352 = EDGE_LOOP ( 'NONE', ( #302, #340, #751, #355 ) ) ;
#353 = DIRECTION ( 'NONE',  ( -0.000000000000000000, -0.000000000000000000, -1.000000000000000000 ) ) ;
#354 = LINE ( 'NONE', #776, #83 ) ;
#355 = ORIENTED_EDGE ( 'NONE', *, *, #299, .T. ) ;
#356 = CARTESIAN_POINT ( 'NONE',  ( 1.975901922448759729, 6.947514192505354735, 1.800000000000000044 ) ) ;
#357 = VERTEX_POINT ( 'NONE', #154 ) ;
#358 = EDGE_CURVE ( 'NONE', #87, #517, #703, .T. ) ;
#359 = DIRECTION ( 'NONE',  ( 0.01379311346324878056, -0.9999048704856826619, -0.000000000000000000 ) ) ;
#360 = VECTOR ( 'NONE', #72, 1000.000000000000000 ) ;
#361 = ORIENTED_EDGE ( 'NONE', *, *, #239, .F. ) ;
#362 = AXIS2_PLACEMENT_3D ( 'NONE', #184, #177, #540 ) ;
#363 = EDGE_LOOP ( 'NONE', ( #451, #34, #620, #171 ) ) ;
#364 = DIRECTION ( 'NONE',  ( 0.9999048704856826619, 0.01379311346324883954, -0.000000000000000000 ) ) ;
#365 = DIRECTION ( 'NONE',  ( -1.000000000000000000, -6.036231218411889186E-17, 0.000000000000000000 ) ) ;
#366 = DIRECTION ( 'NONE',  ( 1.000000000000000000, -0.000000000000000000, -0.000000000000000000 ) ) ;
#367 = EDGE_CURVE ( 'NONE', #453, #65, #479, .T. ) ;
#368 = CYLINDRICAL_SURFACE ( 'NONE', #663, 2.000000000000000000 ) ;
#369 = VECTOR ( 'NONE', #105, 1000.000000000000000 ) ;
#370 = ADVANCED_FACE ( 'NONE', ( #596 ), #602, .F. ) ;
#371 = AXIS2_PLACEMENT_3D ( 'NONE', #519, #217, #409 ) ;
#372 = DIRECTION ( 'NONE',  ( 0.000000000000000000, 0.000000000000000000, 1.000000000000000000 ) ) ;
#373 = VECTOR ( 'NONE', #75, 1000.000000000000000 ) ;
#374 = CYLINDRICAL_SURFACE ( 'NONE', #305, 4.926998846378876529 ) ;
#375 = PLANE ( 'NONE',  #28 ) ;
#376 = DIRECTION ( 'NONE',  ( 1.000000000000000000, 0.000000000000000000, 0.000000000000000000 ) ) ;
#377 = CARTESIAN_POINT ( 'NONE',  ( -2.567309692168062707, 6.447344274550292909, 1.800000000000000044 ) ) ;
#378 =( LENGTH_UNIT ( ) NAMED_UNIT ( * ) SI_UNIT ( .MILLI., .METRE. ) );
#379 = DIRECTION ( 'NONE',  ( 0.000000000000000000, 0.000000000000000000, 1.000000000000000000 ) ) ;
#380 = CARTESIAN_POINT ( 'NONE',  ( 1.845785321592037675, 8.638213972123502060, 4.800000000000000711 ) ) ;
#381 = EDGE_CURVE ( 'NONE', #145, #538, #282, .T. ) ;
#382 = LINE ( 'NONE', #626, #360 ) ;
#383 = ORIENTED_EDGE ( 'NONE', *, *, #514, .T. ) ;
#384 = DIRECTION ( 'NONE',  ( -1.000000000000000000, 0.000000000000000000, -0.000000000000000000 ) ) ;
#385 = CARTESIAN_POINT ( 'NONE',  ( -1.223821133563065100, -7.594621824805086518, 2.800000000000000266 ) ) ;
#386 = FILL_AREA_STYLE_COLOUR ( '', #271 ) ;
#387 = DIRECTION ( 'NONE',  ( 1.000000000000000000, 0.000000000000000000, 0.000000000000000000 ) ) ;
#388 = CARTESIAN_POINT ( 'NONE',  ( -1.389338495122143247, 4.404236621023066789, 4.800000000000000711 ) ) ;
#389 = CARTESIAN_POINT ( 'NONE',  ( 1.970338035482419370, 7.350857331209169843, 1.800000000000000044 ) ) ;
#390 = EDGE_LOOP ( 'NONE', ( #708, #162, #529, #591 ) ) ;
#391 = ADVANCED_FACE ( 'NONE', ( #349 ), #590, .F. ) ;
#392 = ORIENTED_EDGE ( 'NONE', *, *, #576, .F. ) ;
#393 = LINE ( 'NONE', #506, #209 ) ;
#394 = VECTOR ( 'NONE', #364, 1000.000000000000227 ) ;
#395 = VECTOR ( 'NONE', #359, 1000.000000000000114 ) ;
#396 = VERTEX_POINT ( 'NONE', #629 ) ;
#397 = EDGE_CURVE ( 'NONE', #27, #87, #14, .T. ) ;
#398 = CARTESIAN_POINT ( 'NONE',  ( -3.982646507246556666, -9.690684049156406132, 4.800000000000000711 ) ) ;
#399 = ORIENTED_EDGE ( 'NONE', *, *, #381, .T. ) ;
#400 = LINE ( 'NONE', #710, #674 ) ;
#401 = CARTESIAN_POINT ( 'NONE',  ( -1.389338495122143247, 4.404236621023066789, 2.800000000000000266 ) ) ;
#402 = ORIENTED_EDGE ( 'NONE', *, *, #739, .T. ) ;
#403 = ORIENTED_EDGE ( 'NONE', *, *, #139, .T. ) ;
#404 = DIRECTION ( 'NONE',  ( 0.000000000000000000, 0.000000000000000000, 1.000000000000000000 ) ) ;
#405 = VECTOR ( 'NONE', #212, 1000.000000000000000 ) ;
#406 = AXIS2_PLACEMENT_3D ( 'NONE', #605, #301, #719 ) ;
#407 = EDGE_LOOP ( 'NONE', ( #24, #45, #21, #284 ) ) ;
#408 = VERTEX_POINT ( 'NONE', #260 ) ;
#409 = DIRECTION ( 'NONE',  ( -0.01379311346324878056, 0.9999048704856826619, 0.000000000000000000 ) ) ;
#410 = ORIENTED_EDGE ( 'NONE', *, *, #716, .F. ) ;
#411 = DIRECTION ( 'NONE',  ( 0.000000000000000000, 0.000000000000000000, 1.000000000000000000 ) ) ;
#412 = EDGE_CURVE ( 'NONE', #525, #106, #428, .T. ) ;
#413 = VERTEX_POINT ( 'NONE', #265 ) ;
#414 = APPLICATION_PROTOCOL_DEFINITION ( 'draft international standard', 'automotive_design', 1998, #170 ) ;
#415 = DIRECTION ( 'NONE',  ( 1.000000000000000000, 0.000000000000000000, -0.000000000000000000 ) ) ;
#416 = DIRECTION ( 'NONE',  ( -0.000000000000000000, -0.000000000000000000, 1.000000000000000000 ) ) ;
#417 = ORIENTED_EDGE ( 'NONE', *, *, #273, .T. ) ;
#418 = LINE ( 'NONE', #356, #675 ) ;
#419 = ORIENTED_EDGE ( 'NONE', *, *, #139, .F. ) ;
#420 = CARTESIAN_POINT ( 'NONE',  ( -3.982646507246556666, 8.531793523331554496, 0.000000000000000000 ) ) ;
#421 = CARTESIAN_POINT ( 'NONE',  ( -1.389338495122143247, 4.404236621023066789, 4.800000000000000711 ) ) ;
#422 = CIRCLE ( 'NONE', #613, 1.100000000000000089 ) ;
#423 = ORIENTED_EDGE ( 'NONE', *, *, #664, .F. ) ;
#424 = ADVANCED_FACE ( 'NONE', ( #507 ), #60, .T. ) ;
#425 = CARTESIAN_POINT ( 'NONE',  ( 0.5464327840800283775, -5.199912590850854777, 3.799999999999999822 ) ) ;
#426 = EDGE_CURVE ( 'NONE', #577, #48, #163, .T. ) ;
#427 = CARTESIAN_POINT ( 'NONE',  ( -1.389338495122143247, 4.404236621023066789, 1.800000000000000044 ) ) ;
#428 = LINE ( 'NONE', #138, #373 ) ;
#429 = CARTESIAN_POINT ( 'NONE',  ( -2.953567215919971733, -5.199912590850852112, 3.799999999999999822 ) ) ;
#430 = LINE ( 'NONE', #79, #232 ) ;
#431 = VECTOR ( 'NONE', #219, 1000.000000000000000 ) ;
#432 = DIRECTION ( 'NONE',  ( 1.000000000000000000, 0.000000000000000000, 0.000000000000000000 ) ) ;
#433 = VERTEX_POINT ( 'NONE', #559 ) ;
#434 = LINE ( 'NONE', #320, #242 ) ;
#435 = LINE ( 'NONE', #321, #81 ) ;
#436 = CARTESIAN_POINT ( 'NONE',  ( 1.845785321592047001, 8.638213972123507389, 1.800000000000000044 ) ) ;
#437 = EDGE_CURVE ( 'NONE', #357, #76, #344, .T. ) ;
#438 = DIRECTION ( 'NONE',  ( -0.000000000000000000, -0.000000000000000000, -1.000000000000000000 ) ) ;
#439 = DIRECTION ( 'NONE',  ( -0.9999048704856826619, -0.01379311346324883780, 0.000000000000000000 ) ) ;
#440 = CARTESIAN_POINT ( 'NONE',  ( 0.5464327840800283775, -5.199912590850854777, 3.799999999999999822 ) ) ;
#441 = FACE_OUTER_BOUND ( 'NONE', #535, .T. ) ;
#442 = ORIENTED_EDGE ( 'NONE', *, *, #77, .T. ) ;
#443 = DIRECTION ( 'NONE',  ( -0.000000000000000000, -0.000000000000000000, -1.000000000000000000 ) ) ;
#444 = FACE_BOUND ( 'NONE', #688, .T. ) ;
#445 = AXIS2_PLACEMENT_3D ( 'NONE', #26, #598, #763 ) ;
#446 = CIRCLE ( 'NONE', #757, 2.000000000000000000 ) ;
#447 = ADVANCED_FACE ( 'NONE', ( #444, #332, #619 ), #503, .T. ) ;
#448 =( NAMED_UNIT ( * ) PLANE_ANGLE_UNIT ( ) SI_UNIT ( $, .RADIAN. ) );
#449 = DIRECTION ( 'NONE',  ( 0.000000000000000000, 0.000000000000000000, 1.000000000000000000 ) ) ;
#450 = EDGE_CURVE ( 'NONE', #36, #433, #738, .T. ) ;
#451 = ORIENTED_EDGE ( 'NONE', *, *, #213, .T. ) ;
#452 = CARTESIAN_POINT ( 'NONE',  ( -2.323821133563065189, -7.594621824805086518, 2.800000000000000266 ) ) ;
#453 = VERTEX_POINT ( 'NONE', #733 ) ;
#454 = VECTOR ( 'NONE', #306, 1000.000000000000000 ) ;
#455 = AXIS2_PLACEMENT_3D ( 'NONE', #62, #499, #617 ) ;
#456 = CIRCLE ( 'NONE', #406, 2.000000000000000000 ) ;
#457 = VECTOR ( 'NONE', #505, 1000.000000000000227 ) ;
#458 = EDGE_LOOP ( 'NONE', ( #522, #150, #501, #156 ) ) ;
#459 = ADVANCED_FACE ( 'NONE', ( #672 ), #567, .F. ) ;
#460 = FACE_OUTER_BOUND ( 'NONE', #487, .T. ) ;
#461 = EDGE_LOOP ( 'NONE', ( #383, #478, #300, #601 ) ) ;
#462 = EDGE_LOOP ( 'NONE', ( #697, #631, #336, #290 ) ) ;
#463 = CARTESIAN_POINT ( 'NONE',  ( -3.982646507246556666, -9.690684049156406132, 4.800000000000000711 ) ) ;
#464 = FACE_OUTER_BOUND ( 'NONE', #462, .T. ) ;
#465 = VERTEX_POINT ( 'NONE', #15 ) ;
#466 = ORIENTED_EDGE ( 'NONE', *, *, #671, .F. ) ;
#467 = LINE ( 'NONE', #713, #394 ) ;
#468 = AXIS2_PLACEMENT_3D ( 'NONE', #780, #404, #222 ) ;
#469 = PLANE ( 'NONE',  #584 ) ;
#470 = VECTOR ( 'NONE', #200, 1000.000000000000000 ) ;
#471 = EDGE_CURVE ( 'NONE', #773, #711, #2, .T. ) ;
#472 = CIRCLE ( 'NONE', #279, 1.100000000000000977 ) ;
#473 = ORIENTED_EDGE ( 'NONE', *, *, #727, .T. ) ;
#474 = EDGE_LOOP ( 'NONE', ( #785, #720, #769, #236 ) ) ;
#475 = PLANE ( 'NONE',  #572 ) ;
#476 = CARTESIAN_POINT ( 'NONE',  ( -3.959590400273491184, 7.269057373875631001, 1.800000000000000044 ) ) ;
#477 = ORIENTED_EDGE ( 'NONE', *, *, #671, .T. ) ;
#478 = ORIENTED_EDGE ( 'NONE', *, *, #412, .T. ) ;
#479 = LINE ( 'NONE', #578, #395 ) ;
#480 = DIRECTION ( 'NONE',  ( -1.000000000000000000, 0.000000000000000000, 0.000000000000000000 ) ) ;
#481 = EDGE_CURVE ( 'NONE', #48, #244, #497, .T. ) ;
#482 = ORIENTED_EDGE ( 'NONE', *, *, #784, .T. ) ;
#483 = VECTOR ( 'NONE', #307, 1000.000000000000000 ) ;
#484 = UNCERTAINTY_MEASURE_WITH_UNIT (LENGTH_MEASURE( 1.000000000000000082E-05 ), #348, 'distance_accuracy_value', 'NONE');
#485 = CARTESIAN_POINT ( 'NONE',  ( -1.389338495122143247, 4.404236621023066789, 2.800000000000000266 ) ) ;
#486 = EDGE_CURVE ( 'NONE', #157, #396, #446, .T. ) ;
#487 = EDGE_LOOP ( 'NONE', ( #240, #702, #778, #126, #102, #639, #579 ) ) ;
#488 = CYLINDRICAL_SURFACE ( 'NONE', #362, 1.100000000000000311 ) ;
#489 = DIRECTION ( 'NONE',  ( 0.000000000000000000, 0.000000000000000000, 1.000000000000000000 ) ) ;
#490 = CARTESIAN_POINT ( 'NONE',  ( -1.389338495122143247, 4.404236621023066789, 2.800000000000000266 ) ) ;
#491 = PRODUCT ( 'cover-ir-rx', 'cover-ir-rx', '', ( #647 ) ) ;
#492 = PRODUCT_RELATED_PRODUCT_CATEGORY ( 'part', '', ( #491 ) ) ;
#493 = CARTESIAN_POINT ( 'NONE',  ( -2.953567215919971733, -5.199912590850852112, 3.799999999999999822 ) ) ;
#494 = CARTESIAN_POINT ( 'NONE',  ( 1.970338035482419370, 7.350857331209169843, 1.800000000000000044 ) ) ;
#495 = EDGE_CURVE ( 'NONE', #47, #168, #269, .T. ) ;
#496 = LINE ( 'NONE', #679, #310 ) ;
#497 = LINE ( 'NONE', #684, #140 ) ;
#498 = CARTESIAN_POINT ( 'NONE',  ( -0.1238211335630649973, -7.594621824805086518, 2.800000000000000266 ) ) ;
#499 = DIRECTION ( 'NONE',  ( 0.000000000000000000, 0.000000000000000000, 1.000000000000000000 ) ) ;
#500 = CYLINDRICAL_SURFACE ( 'NONE', #661, 1.100000000000000311 ) ;
#501 = ORIENTED_EDGE ( 'NONE', *, *, #698, .F. ) ;
#502 = DIRECTION ( 'NONE',  ( -0.000000000000000000, -0.000000000000000000, -1.000000000000000000 ) ) ;
#503 = PLANE ( 'NONE',  #7 ) ;
#504 = ORIENTED_EDGE ( 'NONE', *, *, #760, .F. ) ;
#505 = DIRECTION ( 'NONE',  ( -0.07766798534269502008, 0.9969792796506889987, 0.000000000000000000 ) ) ;
#506 = CARTESIAN_POINT ( 'NONE',  ( -3.959590400273491184, 7.269057373875631001, 1.800000000000000044 ) ) ;
#507 = FACE_OUTER_BOUND ( 'NONE', #363, .T. ) ;
#508 = EDGE_CURVE ( 'NONE', #275, #106, #472, .T. ) ;
#509 = CARTESIAN_POINT ( 'NONE',  ( 2.344806068534511123, 6.830014348734375851, 1.800000000000000044 ) ) ;
#510 = DIRECTION ( 'NONE',  ( -6.036231218411889186E-17, 1.000000000000000000, 0.000000000000000000 ) ) ;
#511 = DIRECTION ( 'NONE',  ( 1.000000000000000000, 0.000000000000000000, 0.000000000000000000 ) ) ;
#512 = CIRCLE ( 'NONE', #468, 4.926998846378876529 ) ;
#513 = CIRCLE ( 'NONE', #20, 2.000000000000000000 ) ;
#514 = EDGE_CURVE ( 'NONE', #755, #525, #648, .T. ) ;
#515 = PLANE ( 'NONE',  #254 ) ;
#516 = CARTESIAN_POINT ( 'NONE',  ( -2.953567215919972178, 1.984717243595775837, 3.799999999999999822 ) ) ;
#517 = VERTEX_POINT ( 'NONE', #67 ) ;
#518 = VECTOR ( 'NONE', #673, 1000.000000000000000 ) ;
#519 = CARTESIAN_POINT ( 'NONE',  ( 2.205416312212453711, -9.690684049156406132, 1.800000000000000044 ) ) ;
#520 = CARTESIAN_POINT ( 'NONE',  ( -3.982646507246556666, 8.531793523331554496, 4.800000000000000711 ) ) ;
#521 = ORIENTED_EDGE ( 'NONE', *, *, #397, .F. ) ;
#522 = ORIENTED_EDGE ( 'NONE', *, *, #103, .T. ) ;
#523 = DIRECTION ( 'NONE',  ( 0.000000000000000000, -1.000000000000000000, 0.000000000000000000 ) ) ;
#524 = ORIENTED_EDGE ( 'NONE', *, *, #246, .F. ) ;
#525 = VERTEX_POINT ( 'NONE', #323 ) ;
#526 = EDGE_CURVE ( 'NONE', #65, #465, #547, .T. ) ;
#527 = DIRECTION ( 'NONE',  ( 0.000000000000000000, 0.000000000000000000, 1.000000000000000000 ) ) ;
#528 = DIRECTION ( 'NONE',  ( -6.036231218411886721E-17, 1.000000000000000000, 0.000000000000000000 ) ) ;
#529 = ORIENTED_EDGE ( 'NONE', *, *, #437, .T. ) ;
#530 = ORIENTED_EDGE ( 'NONE', *, *, #749, .F. ) ;
#531 = CARTESIAN_POINT ( 'NONE',  ( -2.953567215919972178, 1.984717243595775837, 1.800000000000000044 ) ) ;
#532 = AXIS2_PLACEMENT_3D ( 'NONE', #133, #379, #623 ) ;
#533 = VECTOR ( 'NONE', #147, 1000.000000000000000 ) ;
#534 = EDGE_LOOP ( 'NONE', ( #712, #635, #141, #115 ) ) ;
#535 = EDGE_LOOP ( 'NONE', ( #654, #134, #482, #477, #205 ) ) ;
#536 = DIRECTION ( 'NONE',  ( 0.000000000000000000, 0.000000000000000000, 1.000000000000000000 ) ) ;
#537 = ORIENTED_EDGE ( 'NONE', *, *, #51, .T. ) ;
#538 = VERTEX_POINT ( 'NONE', #676 ) ;
#539 = CARTESIAN_POINT ( 'NONE',  ( 1.970338035482419370, 7.350857331209169843, 0.000000000000000000 ) ) ;
#540 = DIRECTION ( 'NONE',  ( -1.000000000000000000, 0.000000000000000000, 0.000000000000000000 ) ) ;
#541 = ADVANCED_FACE ( 'NONE', ( #128 ), #146, .F. ) ;
#542 = DIRECTION ( 'NONE',  ( 0.000000000000000000, 0.000000000000000000, 1.000000000000000000 ) ) ;
#543 = AXIS2_PLACEMENT_3D ( 'NONE', #401, #416, #155 ) ;
#544 = AXIS2_PLACEMENT_3D ( 'NONE', #264, #142, #566 ) ;
#545 = ORIENTED_EDGE ( 'NONE', *, *, #55, .F. ) ;
#546 = CARTESIAN_POINT ( 'NONE',  ( -3.982646507246556666, 8.531793523331554496, 1.800000000000000044 ) ) ;
#547 = LINE ( 'NONE', #792, #192 ) ;
#548 = DIRECTION ( 'NONE',  ( -0.000000000000000000, -0.000000000000000000, -1.000000000000000000 ) ) ;
#549 = EDGE_CURVE ( 'NONE', #27, #652, #627, .T. ) ;
#550 = DIRECTION ( 'NONE',  ( 1.000000000000000000, 0.000000000000000000, 0.000000000000000000 ) ) ;
#551 = CARTESIAN_POINT ( 'NONE',  ( -3.959590400273491184, 7.269057373875631001, 0.000000000000000000 ) ) ;
#552 = CARTESIAN_POINT ( 'NONE',  ( 0.5464327840800279334, 1.984717243595775837, 3.799999999999999822 ) ) ;
#553 = DIRECTION ( 'NONE',  ( 0.000000000000000000, 0.000000000000000000, 1.000000000000000000 ) ) ;
#554 =( GEOMETRIC_REPRESENTATION_CONTEXT ( 3 ) GLOBAL_UNCERTAINTY_ASSIGNED_CONTEXT ( ( #484 ) ) GLOBAL_UNIT_ASSIGNED_CONTEXT ( ( #348, #298, #595 ) ) REPRESENTATION_CONTEXT ( 'NONE', 'WORKASPACE' ) );
#555 = CARTESIAN_POINT ( 'NONE',  ( -2.489338495122144668, 4.404236621023066789, 2.800000000000000266 ) ) ;
#556 = EDGE_LOOP ( 'NONE', ( #524, #504, #715, #545 ) ) ;
#557 = LINE ( 'NONE', #580, #431 ) ;
#558 = VECTOR ( 'NONE', #565, 1000.000000000000227 ) ;
#559 = CARTESIAN_POINT ( 'NONE',  ( -3.982646507246556666, -9.690684049156406132, 1.800000000000000044 ) ) ;
#560 = LINE ( 'NONE', #261, #581 ) ;
#561 = SURFACE_SIDE_STYLE ('',( #250 ) ) ;
#562 = VERTEX_POINT ( 'NONE', #1 ) ;
#563 = EDGE_CURVE ( 'NONE', #244, #297, #422, .T. ) ;
#564 = CARTESIAN_POINT ( 'NONE',  ( 0.5464327840800283775, -5.199912590850854777, 3.799999999999999822 ) ) ;
#565 = DIRECTION ( 'NONE',  ( -0.9998333489094134441, -0.01825580479154425076, -0.000000000000000000 ) ) ;
#566 = DIRECTION ( 'NONE',  ( -1.000000000000000000, 0.000000000000000000, 0.000000000000000000 ) ) ;
#567 = PLANE ( 'NONE',  #325 ) ;
#568 = EDGE_CURVE ( 'NONE', #396, #157, #58, .T. ) ;
#569 = PLANE ( 'NONE',  #96 ) ;
#570 = CARTESIAN_POINT ( 'NONE',  ( -3.982646507246556666, 8.531793523331554496, 4.800000000000000711 ) ) ;
#571 = LINE ( 'NONE', #622, #71 ) ;
#572 = AXIS2_PLACEMENT_3D ( 'NONE', #227, #699, #415 ) ;
#573 = AXIS2_PLACEMENT_3D ( 'NONE', #614, #744, #384 ) ;
#574 = VERTEX_POINT ( 'NONE', #516 ) ;
#575 = FACE_BOUND ( 'NONE', #645, .T. ) ;
#576 = EDGE_CURVE ( 'NONE', #218, #711, #393, .T. ) ;
#577 = VERTEX_POINT ( 'NONE', #452 ) ;
#578 = CARTESIAN_POINT ( 'NONE',  ( 2.205416312212453711, -9.690684049156406132, 0.000000000000000000 ) ) ;
#579 = ORIENTED_EDGE ( 'NONE', *, *, #77, .F. ) ;
#580 = CARTESIAN_POINT ( 'NONE',  ( -3.389338495122143247, 4.404236621023066789, 2.800000000000000266 ) ) ;
#581 = VECTOR ( 'NONE', #667, 1000.000000000000227 ) ;
#582 = AXIS2_PLACEMENT_3D ( 'NONE', #283, #160, #768 ) ;
#583 = ORIENTED_EDGE ( 'NONE', *, *, #326, .T. ) ;
#584 = AXIS2_PLACEMENT_3D ( 'NONE', #653, #527, #88 ) ;
#585 = CARTESIAN_POINT ( 'NONE',  ( -2.953567215919972178, 1.984717243595775837, 3.799999999999999822 ) ) ;
#586 = CARTESIAN_POINT ( 'NONE',  ( -1.389338495122143247, 4.404236621023066789, 2.800000000000000266 ) ) ;
#587 = ORIENTED_EDGE ( 'NONE', *, *, #16, .T. ) ;
#588 = EDGE_CURVE ( 'NONE', #765, #65, #496, .T. ) ;
#589 = ORIENTED_EDGE ( 'NONE', *, *, #309, .T. ) ;
#590 = PLANE ( 'NONE',  #97 ) ;
#591 = ORIENTED_EDGE ( 'NONE', *, *, #608, .F. ) ;
#592 = FACE_OUTER_BOUND ( 'NONE', #216, .T. ) ;
#593 = EDGE_CURVE ( 'NONE', #433, #765, #571, .T. ) ;
#594 = ORIENTED_EDGE ( 'NONE', *, *, #144, .F. ) ;
#595 =( NAMED_UNIT ( * ) SI_UNIT ( $, .STERADIAN. ) SOLID_ANGLE_UNIT ( ) );
#596 = FACE_OUTER_BOUND ( 'NONE', #263, .T. ) ;
#597 = CLOSED_SHELL ( 'NONE', ( #161, #122, #541, #756, #644, #129, #9, #630, #151, #704, #315, #391, #228, #346, #259, #447, #370, #723, #80, #459, #159, #424, #89, #169, #202, #181 ) ) ;
#598 = DIRECTION ( 'NONE',  ( 0.000000000000000000, 0.000000000000000000, 1.000000000000000000 ) ) ;
#599 = ORIENTED_EDGE ( 'NONE', *, *, #39, .T. ) ;
#600 = LINE ( 'NONE', #119, #483 ) ;
#601 = ORIENTED_EDGE ( 'NONE', *, *, #309, .F. ) ;
#602 = PLANE ( 'NONE',  #772 ) ;
#603 = MECHANICAL_DESIGN_GEOMETRIC_PRESENTATION_REPRESENTATION (  '', ( #731 ), #231 ) ;
#604 = VERTEX_POINT ( 'NONE', #747 ) ;
#605 = CARTESIAN_POINT ( 'NONE',  ( -1.389338495122143247, 4.404236621023066789, 2.800000000000000266 ) ) ;
#606 = EDGE_LOOP ( 'NONE', ( #33, #419, #257, #351 ) ) ;
#607 = DIRECTION ( 'NONE',  ( 1.000000000000000000, 0.000000000000000000, 0.000000000000000000 ) ) ;
#608 = EDGE_CURVE ( 'NONE', #408, #76, #752, .T. ) ;
#609 = DIRECTION ( 'NONE',  ( 6.036231218411889186E-17, -1.000000000000000000, 0.000000000000000000 ) ) ;
#610 = CARTESIAN_POINT ( 'NONE',  ( -2.953567215919971733, -5.199912590850852112, 1.800000000000000044 ) ) ;
#611 = DIRECTION ( 'NONE',  ( -0.000000000000000000, -0.000000000000000000, -1.000000000000000000 ) ) ;
#612 = VECTOR ( 'NONE', #31, 1000.000000000000000 ) ;
#613 = AXIS2_PLACEMENT_3D ( 'NONE', #689, #328, #550 ) ;
#614 = CARTESIAN_POINT ( 'NONE',  ( 0.000000000000000000, 0.000000000000000000, 3.799999999999999822 ) ) ;
#615 = EDGE_CURVE ( 'NONE', #696, #157, #557, .T. ) ;
#616 = DIRECTION ( 'NONE',  ( 1.000000000000000000, 0.000000000000000000, 0.000000000000000000 ) ) ;
#617 = DIRECTION ( 'NONE',  ( 1.000000000000000000, 0.000000000000000000, -0.000000000000000000 ) ) ;
#618 = LINE ( 'NONE', #331, #636 ) ;
#619 = FACE_OUTER_BOUND ( 'NONE', #779, .T. ) ;
#620 = ORIENTED_EDGE ( 'NONE', *, *, #338, .T. ) ;
#621 = CARTESIAN_POINT ( 'NONE',  ( -3.223821133563065100, -7.594621824805086518, 2.800000000000000266 ) ) ;
#622 = CARTESIAN_POINT ( 'NONE',  ( -3.982646507246556666, -9.690684049156406132, 1.800000000000000044 ) ) ;
#623 = DIRECTION ( 'NONE',  ( 1.000000000000000000, 0.000000000000000000, 0.000000000000000000 ) ) ;
#624 = ORIENTED_EDGE ( 'NONE', *, *, #299, .F. ) ;
#625 = CARTESIAN_POINT ( 'NONE',  ( -3.959590400273491184, 7.269057373875631001, 1.800000000000000044 ) ) ;
#626 = CARTESIAN_POINT ( 'NONE',  ( 0.5464327840800279334, 1.984717243595775837, 1.800000000000000044 ) ) ;
#627 = LINE ( 'NONE', #258, #243 ) ;
#628 = VECTOR ( 'NONE', #718, 1000.000000000000000 ) ;
#629 = CARTESIAN_POINT ( 'NONE',  ( 0.6106615048778567534, 4.404236621023066789, 4.800000000000000711 ) ) ;
#630 = ADVANCED_FACE ( 'NONE', ( #592 ), #670, .F. ) ;
#631 = ORIENTED_EDGE ( 'NONE', *, *, #615, .T. ) ;
#632 = DIRECTION ( 'NONE',  ( 0.000000000000000000, 0.000000000000000000, 1.000000000000000000 ) ) ;
#633 = CARTESIAN_POINT ( 'NONE',  ( 0.5464327840800279334, 1.984717243595775837, 3.799999999999999822 ) ) ;
#634 = ORIENTED_EDGE ( 'NONE', *, *, #685, .T. ) ;
#635 = ORIENTED_EDGE ( 'NONE', *, *, #495, .F. ) ;
#636 = VECTOR ( 'NONE', #510, 1000.000000000000000 ) ;
#637 = EDGE_CURVE ( 'NONE', #577, #297, #600, .T. ) ;
#638 = FACE_OUTER_BOUND ( 'NONE', #352, .T. ) ;
#639 = ORIENTED_EDGE ( 'NONE', *, *, #471, .F. ) ;
#640 = DIRECTION ( 'NONE',  ( -0.07766798534269502008, 0.9969792796506889987, -0.000000000000000000 ) ) ;
#641 = ORIENTED_EDGE ( 'NONE', *, *, #651, .T. ) ;
#642 = CARTESIAN_POINT ( 'NONE',  ( 0.5464327840800283775, -5.199912590850854777, 3.799999999999999822 ) ) ;
#643 = PLANE ( 'NONE',  #229 ) ;
#644 = ADVANCED_FACE ( 'NONE', ( #724 ), #488, .F. ) ;
#645 = EDGE_LOOP ( 'NONE', ( #148, #641 ) ) ;
#646 = ORIENTED_EDGE ( 'NONE', *, *, #437, .F. ) ;
#647 = PRODUCT_CONTEXT ( 'NONE', #170, 'mechanical' ) ;
#648 = CIRCLE ( 'NONE', #532, 1.100000000000000977 ) ;
#649 = CARTESIAN_POINT ( 'NONE',  ( -2.489338495122144668, 4.404236621023066789, 1.800000000000000044 ) ) ;
#650 = EDGE_LOOP ( 'NONE', ( #677, #237, #423, #268 ) ) ;
#651 = EDGE_CURVE ( 'NONE', #106, #275, #179, .T. ) ;
#652 = VERTEX_POINT ( 'NONE', #50 ) ;
#653 = CARTESIAN_POINT ( 'NONE',  ( -2.567309692168062707, 6.447344274550292909, 0.000000000000000000 ) ) ;
#654 = ORIENTED_EDGE ( 'NONE', *, *, #450, .F. ) ;
#655 = CARTESIAN_POINT ( 'NONE',  ( -1.223821133563065100, -7.594621824805086518, 1.800000000000000044 ) ) ;
#656 = ORIENTED_EDGE ( 'NONE', *, *, #526, .T. ) ;
#657 = CARTESIAN_POINT ( 'NONE',  ( 0.5464327840800283775, -5.199912590850854777, 3.799999999999999822 ) ) ;
#658 = FACE_OUTER_BOUND ( 'NONE', #694, .T. ) ;
#659 = ORIENTED_EDGE ( 'NONE', *, *, #55, .T. ) ;
#660 = DIRECTION ( 'NONE',  ( 0.01379311346253208996, -0.9999048704856925429, -0.000000000000000000 ) ) ;
#661 = AXIS2_PLACEMENT_3D ( 'NONE', #736, #198, #683 ) ;
#662 = ORIENTED_EDGE ( 'NONE', *, *, #568, .F. ) ;
#663 = AXIS2_PLACEMENT_3D ( 'NONE', #485, #186, #183 ) ;
#664 = EDGE_CURVE ( 'NONE', #297, #244, #84, .T. ) ;
#665 = VECTOR ( 'NONE', #252, 1000.000000000000227 ) ;
#666 = DIRECTION ( 'NONE',  ( 0.000000000000000000, 0.000000000000000000, 1.000000000000000000 ) ) ;
#667 = DIRECTION ( 'NONE',  ( -0.9998333489094134441, -0.01825580479154425076, -0.000000000000000000 ) ) ;
#668 = CARTESIAN_POINT ( 'NONE',  ( -2.567309692168062707, 6.447344274550292909, 4.800000000000000711 ) ) ;
#669 = FACE_BOUND ( 'NONE', #289, .T. ) ;
#670 = PLANE ( 'NONE',  #721 ) ;
#671 = EDGE_CURVE ( 'NONE', #224, #765, #418, .T. ) ;
#672 = FACE_OUTER_BOUND ( 'NONE', #347, .T. ) ;
#673 = DIRECTION ( 'NONE',  ( -6.036231218411889186E-17, 1.000000000000000000, 0.000000000000000000 ) ) ;
#674 = VECTOR ( 'NONE', #640, 1000.000000000000227 ) ;
#675 = VECTOR ( 'NONE', #660, 1000.000000000000114 ) ;
#676 = CARTESIAN_POINT ( 'NONE',  ( -3.982646507246556666, -9.690684049156406132, 4.800000000000000711 ) ) ;
#677 = ORIENTED_EDGE ( 'NONE', *, *, #426, .T. ) ;
#678 = PRODUCT_DEFINITION_SHAPE ( 'NONE', 'NONE',  #308 ) ;
#679 = CARTESIAN_POINT ( 'NONE',  ( 2.205416312212453711, -9.690684049156406132, 1.800000000000000044 ) ) ;
#680 = DIRECTION ( 'NONE',  ( 1.000000000000000000, 0.000000000000000000, 0.000000000000000000 ) ) ;
#681 = ORIENTED_EDGE ( 'NONE', *, *, #727, .F. ) ;
#682 = LINE ( 'NONE', #135, #208 ) ;
#683 = DIRECTION ( 'NONE',  ( -1.000000000000000000, 0.000000000000000000, 0.000000000000000000 ) ) ;
#684 = CARTESIAN_POINT ( 'NONE',  ( -0.1238211335630649973, -7.594621824805086518, 4.800000000000000711 ) ) ;
#685 = EDGE_CURVE ( 'NONE', #37, #696, #456, .T. ) ;
#686 = CARTESIAN_POINT ( 'NONE',  ( -3.389338495122143247, 4.404236621023066789, 2.800000000000000266 ) ) ;
#687 = VECTOR ( 'NONE', #197, 1000.000000000000227 ) ;
#688 = EDGE_LOOP ( 'NONE', ( #662, #743 ) ) ;
#689 = CARTESIAN_POINT ( 'NONE',  ( -1.223821133563065100, -7.594621824805086518, 1.800000000000000044 ) ) ;
#690 = AXIS2_PLACEMENT_3D ( 'NONE', #427, #411, #124 ) ;
#691 = DIRECTION ( 'NONE',  ( 0.000000000000000000, 0.000000000000000000, 1.000000000000000000 ) ) ;
#692 = ORIENTED_EDGE ( 'NONE', *, *, #381, .F. ) ;
#693 = LINE ( 'NONE', #82, #405 ) ;
#694 = EDGE_LOOP ( 'NONE', ( #43, #327, #589, #225 ) ) ;
#695 = EDGE_CURVE ( 'NONE', #76, #357, #513, .T. ) ;
#696 = VERTEX_POINT ( 'NONE', #686 ) ;
#697 = ORIENTED_EDGE ( 'NONE', *, *, #51, .F. ) ;
#698 = EDGE_CURVE ( 'NONE', #191, #574, #618, .T. ) ;
#699 = DIRECTION ( 'NONE',  ( 0.000000000000000000, 0.000000000000000000, 1.000000000000000000 ) ) ;
#700 = EDGE_LOOP ( 'NONE', ( #173, #196, #521, #345 ) ) ;
#701 = MANIFOLD_SOLID_BREP ( 'Cut-Extrude2', #597 ) ;
#702 = ORIENTED_EDGE ( 'NONE', *, *, #285, .F. ) ;
#703 = LINE ( 'NONE', #642, #114 ) ;
#704 = ADVANCED_FACE ( 'NONE', ( #795 ), #515, .F. ) ;
#705 = DIRECTION ( 'NONE',  ( 1.000000000000000000, 0.000000000000000000, 0.000000000000000000 ) ) ;
#706 = VERTEX_POINT ( 'NONE', #131 ) ;
#707 = VECTOR ( 'NONE', #353, 1000.000000000000000 ) ;
#708 = ORIENTED_EDGE ( 'NONE', *, *, #189, .F. ) ;
#709 = VECTOR ( 'NONE', #100, 1000.000000000000000 ) ;
#710 = CARTESIAN_POINT ( 'NONE',  ( 2.344806068534511123, 6.830014348734375851, 0.000000000000000000 ) ) ;
#711 = VERTEX_POINT ( 'NONE', #267 ) ;
#712 = ORIENTED_EDGE ( 'NONE', *, *, #266, .T. ) ;
#713 = CARTESIAN_POINT ( 'NONE',  ( 1.970338035482419370, 7.350857331209169843, 1.800000000000000044 ) ) ;
#714 = LINE ( 'NONE', #341, #270 ) ;
#715 = ORIENTED_EDGE ( 'NONE', *, *, #103, .F. ) ;
#716 = EDGE_CURVE ( 'NONE', #47, #145, #745, .T. ) ;
#717 = ORIENTED_EDGE ( 'NONE', *, *, #358, .T. ) ;
#718 = DIRECTION ( 'NONE',  ( -0.000000000000000000, -0.000000000000000000, -1.000000000000000000 ) ) ;
#719 = DIRECTION ( 'NONE',  ( 1.000000000000000000, 0.000000000000000000, 0.000000000000000000 ) ) ;
#720 = ORIENTED_EDGE ( 'NONE', *, *, #239, .T. ) ;
#721 = AXIS2_PLACEMENT_3D ( 'NONE', #546, #182, #791 ) ;
#722 = FACE_OUTER_BOUND ( 'NONE', #534, .T. ) ;
#723 = ADVANCED_FACE ( 'NONE', ( #188 ), #732, .F. ) ;
#724 = FACE_OUTER_BOUND ( 'NONE', #474, .T. ) ;
#725 = VERTEX_POINT ( 'NONE', #621 ) ;
#726 = CYLINDRICAL_SURFACE ( 'NONE', #342, 2.000000000000000000 ) ;
#727 = EDGE_CURVE ( 'NONE', #36, #773, #430, .T. ) ;
#728 = CARTESIAN_POINT ( 'NONE',  ( -2.567309692168062707, 6.447344274550292909, 4.800000000000000711 ) ) ;
#729 = ORIENTED_EDGE ( 'NONE', *, *, #117, .T. ) ;
#730 = DIRECTION ( 'NONE',  ( 1.000000000000000000, 0.000000000000000000, 0.000000000000000000 ) ) ;
#731 = STYLED_ITEM ( 'NONE', ( #127 ), #701 ) ;
#732 = PLANE ( 'NONE',  #214 ) ;
#733 = CARTESIAN_POINT ( 'NONE',  ( 1.970338035482419370, 7.350857331209169843, 0.000000000000000000 ) ) ;
#734 = LINE ( 'NONE', #793, #454 ) ;
#735 = DIRECTION ( 'NONE',  ( 1.000000000000000000, 0.000000000000000000, 0.000000000000000000 ) ) ;
#736 = CARTESIAN_POINT ( 'NONE',  ( -1.223821133563065100, -7.594621824805086518, 4.800000000000000711 ) ) ;
#737 = ORIENTED_EDGE ( 'NONE', *, *, #695, .F. ) ;
#738 = LINE ( 'NONE', #318, #470 ) ;
#739 = EDGE_CURVE ( 'NONE', #604, #562, #19, .T. ) ;
#740 = DIRECTION ( 'NONE',  ( 1.000000000000000000, 0.000000000000000000, 0.000000000000000000 ) ) ;
#741 = DIRECTION ( 'NONE',  ( 1.000000000000000000, 0.000000000000000000, 0.000000000000000000 ) ) ;
#742 = CARTESIAN_POINT ( 'NONE',  ( -0.2893384951221423806, 4.404236621023066789, 1.800000000000000044 ) ) ;
#743 = ORIENTED_EDGE ( 'NONE', *, *, #486, .F. ) ;
#744 = DIRECTION ( 'NONE',  ( 0.000000000000000000, 0.000000000000000000, -1.000000000000000000 ) ) ;
#745 = LINE ( 'NONE', #570, #558 ) ;
#746 = CIRCLE ( 'NONE', #18, 1.100000000000000089 ) ;
#747 = CARTESIAN_POINT ( 'NONE',  ( 3.631823148235540977, -9.690684049156406132, 4.800000000000000711 ) ) ;
#748 = AXIS2_PLACEMENT_3D ( 'NONE', #655, #174, #107 ) ;
#749 = EDGE_CURVE ( 'NONE', #191, #413, #435, .T. ) ;
#750 = DIRECTION ( 'NONE',  ( 0.000000000000000000, 0.000000000000000000, 1.000000000000000000 ) ) ;
#751 = ORIENTED_EDGE ( 'NONE', *, *, #739, .F. ) ;
#752 = LINE ( 'NONE', #66, #296 ) ;
#753 = CARTESIAN_POINT ( 'NONE',  ( -0.1238211335630649973, -7.594621824805086518, 1.800000000000000044 ) ) ;
#754 = FACE_BOUND ( 'NONE', #556, .T. ) ;
#755 = VERTEX_POINT ( 'NONE', #555 ) ;
#756 = ADVANCED_FACE ( 'NONE', ( #8 ), #500, .F. ) ;
#757 = AXIS2_PLACEMENT_3D ( 'NONE', #388, #632, #195 ) ;
#758 = LINE ( 'NONE', #657, #709 ) ;
#759 = ORIENTED_EDGE ( 'NONE', *, *, #367, .T. ) ;
#760 = EDGE_CURVE ( 'NONE', #280, #652, #382, .T. ) ;
#761 = ORIENTED_EDGE ( 'NONE', *, *, #514, .F. ) ;
#762 = FACE_OUTER_BOUND ( 'NONE', #85, .T. ) ;
#763 = DIRECTION ( 'NONE',  ( 1.000000000000000000, 0.000000000000000000, 0.000000000000000000 ) ) ;
#764 = ORIENTED_EDGE ( 'NONE', *, *, #588, .T. ) ;
#765 = VERTEX_POINT ( 'NONE', #291 ) ;
#766 = SHAPE_DEFINITION_REPRESENTATION ( #678, #40 ) ;
#767 = DIRECTION ( 'NONE',  ( 0.000000000000000000, 1.000000000000000000, -0.000000000000000000 ) ) ;
#768 = DIRECTION ( 'NONE',  ( 1.000000000000000000, 0.000000000000000000, 0.000000000000000000 ) ) ;
#769 = ORIENTED_EDGE ( 'NONE', *, *, #637, .T. ) ;
#770 = AXIS2_PLACEMENT_3D ( 'NONE', #668, #245, #740 ) ;
#771 = VECTOR ( 'NONE', #41, 1000.000000000000000 ) ;
#772 = AXIS2_PLACEMENT_3D ( 'NONE', #238, #152, #93 ) ;
#773 = VERTEX_POINT ( 'NONE', #420 ) ;
#774 = AXIS2_PLACEMENT_3D ( 'NONE', #165, #750, #607 ) ;
#775 = LINE ( 'NONE', #398, #771 ) ;
#776 = CARTESIAN_POINT ( 'NONE',  ( 1.970338035482419370, 7.350857331209169843, 1.800000000000000044 ) ) ;
#777 = EDGE_CURVE ( 'NONE', #725, #357, #109, .T. ) ;
#778 = ORIENTED_EDGE ( 'NONE', *, *, #526, .F. ) ;
#779 = EDGE_LOOP ( 'NONE', ( #230, #399, #74, #402, #599 ) ) ;
#780 = CARTESIAN_POINT ( 'NONE',  ( -2.567309692168062707, 6.447344274550292909, 0.000000000000000000 ) ) ;
#781 = FACE_OUTER_BOUND ( 'NONE', #700, .T. ) ;
#782 = ORIENTED_EDGE ( 'NONE', *, *, #563, .T. ) ;
#783 = DIRECTION ( 'NONE',  ( -0.000000000000000000, -0.000000000000000000, 1.000000000000000000 ) ) ;
#784 = EDGE_CURVE ( 'NONE', #218, #224, #467, .T. ) ;
#785 = ORIENTED_EDGE ( 'NONE', *, *, #481, .F. ) ;
#786 = VECTOR ( 'NONE', #70, 1000.000000000000227 ) ;
#787 = VECTOR ( 'NONE', #10, 1000.000000000000000 ) ;
#788 = LINE ( 'NONE', #625, #786 ) ;
#789 = EDGE_LOOP ( 'NONE', ( #324, #361 ) ) ;
#790 = EDGE_CURVE ( 'NONE', #37, #396, #99, .T. ) ;
#791 = DIRECTION ( 'NONE',  ( 0.9998333489094134441, 0.01825580479154425076, 0.000000000000000000 ) ) ;
#792 = CARTESIAN_POINT ( 'NONE',  ( 3.631823148235540977, -9.690684049156406132, 0.000000000000000000 ) ) ;
#793 = CARTESIAN_POINT ( 'NONE',  ( 0.5464327840800283775, -5.199912590850854777, 1.800000000000000044 ) ) ;
#794 = CARTESIAN_POINT ( 'NONE',  ( -1.389338495122143247, 4.404236621023066789, 2.800000000000000266 ) ) ;
#795 = FACE_OUTER_BOUND ( 'NONE', #180, .T. ) ;
ENDSEC;
END-ISO-10303-21;
