ISO-10303-21;
HEADER;
FILE_DESCRIPTION (( 'STEP AP214' ),
    '1' );
FILE_NAME ('damper-1.STEP',
    '2026-04-07T19:37:13',
    ( '' ),
    ( '' ),
    'SwSTEP 2.0',
    'SolidWorks 2026',
    '' );
FILE_SCHEMA (( 'AUTOMOTIVE_DESIGN' ));
ENDSEC;

DATA;
#1 = EDGE_CURVE ( 'NONE', #479, #346, #438, .T. ) ;
#2 = ORIENTED_EDGE ( 'NONE', *, *, #1043, .T. ) ;
#3 = DIRECTION ( 'NONE',  ( 0.8660254037844387076, 0.4999999999999997780, -0.000000000000000000 ) ) ;
#4 = ORIENTED_EDGE ( 'NONE', *, *, #447, .F. ) ;
#5 = DIRECTION ( 'NONE',  ( 0.8660254037844391517, -0.4999999999999991118, -0.000000000000000000 ) ) ;
#6 = EDGE_CURVE ( 'NONE', #1059, #830, #796, .T. ) ;
#7 = CARTESIAN_POINT ( 'NONE',  ( 5.375411679505521789, 9.350823359011043223, 8.000000000000000000 ) ) ;
#8 = ORIENTED_EDGE ( 'NONE', *, *, #75, .T. ) ;
#9 = AXIS2_PLACEMENT_3D ( 'NONE', #588, #350, #596 ) ;
#10 = DIRECTION ( 'NONE',  ( -1.000000000000000000, 0.000000000000000000, 0.000000000000000000 ) ) ;
#11 = LINE ( 'NONE', #591, #1046 ) ;
#12 = ORIENTED_EDGE ( 'NONE', *, *, #561, .T. ) ;
#13 = VERTEX_POINT ( 'NONE', #915 ) ;
#14 = VECTOR ( 'NONE', #577, 1000.000000000000000 ) ;
#15 = FACE_OUTER_BOUND ( 'NONE', #585, .T. ) ;
#16 = AXIS2_PLACEMENT_3D ( 'NONE', #671, #746, #261 ) ;
#17 = CARTESIAN_POINT ( 'NONE',  ( 4.375411679505521789, 0.1983442204178467172, 8.000000000000000000 ) ) ;
#18 = CARTESIAN_POINT ( 'NONE',  ( -4.624588320494479099, 7.546975781717672582, 8.000000000000000000 ) ) ;
#19 = ORIENTED_EDGE ( 'NONE', *, *, #45, .F. ) ;
#20 = ORIENTED_EDGE ( 'NONE', *, *, #947, .F. ) ;
#21 = LINE ( 'NONE', #860, #762 ) ;
#22 = DIRECTION ( 'NONE',  ( 0.8660254037844384856, 0.5000000000000001110, 0.000000000000000000 ) ) ;
#23 = ORIENTED_EDGE ( 'NONE', *, *, #1062, .T. ) ;
#24 = ORIENTED_EDGE ( 'NONE', *, *, #710, .F. ) ;
#25 = DIRECTION ( 'NONE',  ( -1.000000000000000000, 0.000000000000000000, 0.000000000000000000 ) ) ;
#26 = FACE_OUTER_BOUND ( 'NONE', #355, .T. ) ;
#27 = ORIENTED_EDGE ( 'NONE', *, *, #81, .F. ) ;
#28 = CYLINDRICAL_SURFACE ( 'NONE', #382, 0.7999999999999986011 ) ;
#29 = AXIS2_PLACEMENT_3D ( 'NONE', #414, #750, #922 ) ;
#30 = VECTOR ( 'NONE', #944, 1000.000000000000000 ) ;
#31 = DIRECTION ( 'NONE',  ( 0.000000000000000000, 0.000000000000000000, -1.000000000000000000 ) ) ;
#32 = EDGE_CURVE ( 'NONE', #244, #269, #850, .T. ) ;
#33 = ORIENTED_EDGE ( 'NONE', *, *, #492, .T. ) ;
#34 = CARTESIAN_POINT ( 'NONE',  ( -5.424588320494477145, 13.16133513566256319, 8.000000000000000000 ) ) ;
#35 = DIRECTION ( 'NONE',  ( 1.000000000000000000, 0.000000000000000000, 0.000000000000000000 ) ) ;
#36 = VERTEX_POINT ( 'NONE', #425 ) ;
#37 = FACE_OUTER_BOUND ( 'NONE', #827, .T. ) ;
#38 = EDGE_CURVE ( 'NONE', #87, #639, #680, .T. ) ;
#39 = DIRECTION ( 'NONE',  ( -1.000000000000000000, 0.000000000000000000, 0.000000000000000000 ) ) ;
#40 = CARTESIAN_POINT ( 'NONE',  ( 5.375411679505521789, -12.64917664098895855, 4.000000000000000000 ) ) ;
#41 = ORIENTED_EDGE ( 'NONE', *, *, #599, .F. ) ;
#42 = EDGE_CURVE ( 'NONE', #453, #36, #843, .T. ) ;
#43 = DIRECTION ( 'NONE',  ( 1.000000000000000000, 0.000000000000000000, 0.000000000000000000 ) ) ;
#44 = ORIENTED_EDGE ( 'NONE', *, *, #341, .T. ) ;
#45 = EDGE_CURVE ( 'NONE', #639, #453, #666, .T. ) ;
#46 = CARTESIAN_POINT ( 'NONE',  ( -5.424588320494477145, -12.45968841764047674, 0.000000000000000000 ) ) ;
#47 = DIRECTION ( 'NONE',  ( -1.000000000000000000, -0.000000000000000000, -0.000000000000000000 ) ) ;
#48 = EDGE_LOOP ( 'NONE', ( #528, #616 ) ) ;
#49 = DIRECTION ( 'NONE',  ( 1.000000000000000000, -0.000000000000000000, -0.000000000000000000 ) ) ;
#50 = VECTOR ( 'NONE', #900, 1000.000000000000000 ) ;
#51 = VERTEX_POINT ( 'NONE', #352 ) ;
#52 = LINE ( 'NONE', #637, #152 ) ;
#53 = LINE ( 'NONE', #221, #118 ) ;
#54 = ORIENTED_EDGE ( 'NONE', *, *, #543, .T. ) ;
#55 = FACE_OUTER_BOUND ( 'NONE', #896, .T. ) ;
#56 = EDGE_CURVE ( 'NONE', #112, #698, #573, .T. ) ;
#57 = DIRECTION ( 'NONE',  ( -0.000000000000000000, -1.000000000000000000, -0.000000000000000000 ) ) ;
#58 = CARTESIAN_POINT ( 'NONE',  ( -5.024588320494478566, 13.85415545869011389, 0.000000000000000000 ) ) ;
#59 = ORIENTED_EDGE ( 'NONE', *, *, #934, .F. ) ;
#60 = CYLINDRICAL_SURFACE ( 'NONE', #66, 1.600000000000001643 ) ;
#61 = EDGE_CURVE ( 'NONE', #13, #731, #921, .T. ) ;
#62 = DIRECTION ( 'NONE',  ( 0.8660254037844390407, 0.4999999999999991118, 0.000000000000000000 ) ) ;
#63 = VERTEX_POINT ( 'NONE', #335 ) ;
#64 = CARTESIAN_POINT ( 'NONE',  ( -5.824588320494476612, 13.85415545869011389, 0.000000000000000000 ) ) ;
#65 = AXIS2_PLACEMENT_3D ( 'NONE', #451, #195, #35 ) ;
#66 = AXIS2_PLACEMENT_3D ( 'NONE', #814, #238, #139 ) ;
#67 = PRODUCT_DEFINITION ( 'UNKNOWN', '', #378, #693 ) ;
#68 = VECTOR ( 'NONE', #998, 1000.000000000000000 ) ;
#69 = DIRECTION ( 'NONE',  ( -0.000000000000000000, -0.000000000000000000, -1.000000000000000000 ) ) ;
#70 = ORIENTED_EDGE ( 'NONE', *, *, #779, .T. ) ;
#71 = APPLICATION_CONTEXT ( 'automotive_design' ) ;
#72 = EDGE_CURVE ( 'NONE', #507, #244, #672, .T. ) ;
#73 = CARTESIAN_POINT ( 'NONE',  ( -5.024588320494478566, -13.15250874066802744, 8.000000000000000000 ) ) ;
#74 = ORIENTED_EDGE ( 'NONE', *, *, #219, .F. ) ;
#75 = EDGE_CURVE ( 'NONE', #879, #479, #249, .T. ) ;
#76 = LINE ( 'NONE', #411, #310 ) ;
#77 = CIRCLE ( 'NONE', #430, 0.7999999999999986011 ) ;
#78 = DIRECTION ( 'NONE',  ( 1.000000000000000000, 0.000000000000000000, 0.000000000000000000 ) ) ;
#79 = ORIENTED_EDGE ( 'NONE', *, *, #754, .F. ) ;
#80 = CARTESIAN_POINT ( 'NONE',  ( 4.375411679505521789, 2.350823359011043223, 8.000000000000000000 ) ) ;
#81 = EDGE_CURVE ( 'NONE', #609, #923, #584, .T. ) ;
#82 = DIRECTION ( 'NONE',  ( -0.000000000000000000, -1.000000000000000000, -0.000000000000000000 ) ) ;
#83 = CIRCLE ( 'NONE', #366, 1.600000000000001643 ) ;
#84 = ORIENTED_EDGE ( 'NONE', *, *, #245, .F. ) ;
#85 = VECTOR ( 'NONE', #464, 999.9999999999998863 ) ;
#86 = CARTESIAN_POINT ( 'NONE',  ( -5.024588320494478566, -6.152508740668036324, 0.000000000000000000 ) ) ;
#87 = VERTEX_POINT ( 'NONE', #95 ) ;
#88 = DIRECTION ( 'NONE',  ( 0.000000000000000000, 0.000000000000000000, 1.000000000000000000 ) ) ;
#89 = DIRECTION ( 'NONE',  ( -0.000000000000000000, -1.000000000000000000, -0.000000000000000000 ) ) ;
#90 = EDGE_CURVE ( 'NONE', #574, #761, #169, .T. ) ;
#91 = DIRECTION ( 'NONE',  ( -0.000000000000000000, -0.000000000000000000, -1.000000000000000000 ) ) ;
#92 = ORIENTED_EDGE ( 'NONE', *, *, #733, .F. ) ;
#93 =( NAMED_UNIT ( * ) SI_UNIT ( $, .STERADIAN. ) SOLID_ANGLE_UNIT ( ) );
#94 = CARTESIAN_POINT ( 'NONE',  ( 5.375411679505521789, -12.64917664098895855, 4.000000000000000000 ) ) ;
#95 = CARTESIAN_POINT ( 'NONE',  ( 4.375411679505521789, 7.503302497604243726, 8.000000000000000000 ) ) ;
#96 = CARTESIAN_POINT ( 'NONE',  ( -5.024588320494478566, -13.15250874066802744, 8.000000000000000000 ) ) ;
#97 = ORIENTED_EDGE ( 'NONE', *, *, #1031, .T. ) ;
#98 = CARTESIAN_POINT ( 'NONE',  ( -4.624588320494479099, 7.546975781717672582, 8.000000000000000000 ) ) ;
#99 = CARTESIAN_POINT ( 'NONE',  ( -4.624588320494479099, 7.546975781717673470, 8.000000000000000000 ) ) ;
#100 = EDGE_LOOP ( 'NONE', ( #770, #942, #450, #632 ) ) ;
#101 = ORIENTED_EDGE ( 'NONE', *, *, #6, .F. ) ;
#102 = EDGE_CURVE ( 'NONE', #427, #521, #11, .T. ) ;
#103 = CIRCLE ( 'NONE', #1073, 0.7999999999999986011 ) ;
#104 = DIRECTION ( 'NONE',  ( 0.8660254037844385966, -0.5000000000000002220, -0.000000000000000000 ) ) ;
#105 = ORIENTED_EDGE ( 'NONE', *, *, #72, .F. ) ;
#106 = DIRECTION ( 'NONE',  ( -0.000000000000000000, -0.000000000000000000, -1.000000000000000000 ) ) ;
#107 = VERTEX_POINT ( 'NONE', #933 ) ;
#108 = ADVANCED_FACE ( 'NONE', ( #1072 ), #500, .T. ) ;
#109 = DIRECTION ( 'NONE',  ( -0.000000000000000000, -0.000000000000000000, -1.000000000000000000 ) ) ;
#110 = ORIENTED_EDGE ( 'NONE', *, *, #365, .T. ) ;
#111 = DIRECTION ( 'NONE',  ( -0.000000000000000000, -0.000000000000000000, -1.000000000000000000 ) ) ;
#112 = VERTEX_POINT ( 'NONE', #1002 ) ;
#113 = DIRECTION ( 'NONE',  ( 0.000000000000000000, 0.000000000000000000, -1.000000000000000000 ) ) ;
#114 = CARTESIAN_POINT ( 'NONE',  ( 6.175411679505521612, -12.64917664098895855, 5.600000000000001421 ) ) ;
#115 = ORIENTED_EDGE ( 'NONE', *, *, #526, .F. ) ;
#116 = LINE ( 'NONE', #287, #1021 ) ;
#117 = DIRECTION ( 'NONE',  ( -1.000000000000000000, 0.000000000000000000, 0.000000000000000000 ) ) ;
#118 = VECTOR ( 'NONE', #895, 1000.000000000000000 ) ;
#119 = VECTOR ( 'NONE', #89, 1000.000000000000000 ) ;
#120 = CYLINDRICAL_SURFACE ( 'NONE', #837, 1.600000000000001643 ) ;
#121 = ADVANCED_FACE ( 'NONE', ( #949 ), #370, .T. ) ;
#122 = DIRECTION ( 'NONE',  ( 0.000000000000000000, 0.000000000000000000, 1.000000000000000000 ) ) ;
#123 = DIRECTION ( 'NONE',  ( -1.000000000000000000, 0.000000000000000000, 0.000000000000000000 ) ) ;
#124 = ORIENTED_EDGE ( 'NONE', *, *, #397, .F. ) ;
#125 = LINE ( 'NONE', #686, #730 ) ;
#126 = CARTESIAN_POINT ( 'NONE',  ( -5.424588320494477145, -5.459688417640487401, 8.000000000000000000 ) ) ;
#127 = ADVANCED_FACE ( 'NONE', ( #26 ), #120, .F. ) ;
#128 = LINE ( 'NONE', #46, #395 ) ;
#129 = CARTESIAN_POINT ( 'NONE',  ( 5.375411679505521789, -8.649176640988956777, 0.000000000000000000 ) ) ;
#130 = ORIENTED_EDGE ( 'NONE', *, *, #947, .T. ) ;
#131 = DIRECTION ( 'NONE',  ( -1.000000000000000000, -0.000000000000000000, -0.000000000000000000 ) ) ;
#132 = VECTOR ( 'NONE', #471, 999.9999999999998863 ) ;
#133 = CARTESIAN_POINT ( 'NONE',  ( -5.024588320494478566, -6.152508740668036324, 8.000000000000000000 ) ) ;
#134 = EDGE_CURVE ( 'NONE', #269, #841, #1038, .T. ) ;
#135 = CARTESIAN_POINT ( 'NONE',  ( -4.624588320494479099, 14.54697578171766281, 8.000000000000000000 ) ) ;
#136 = EDGE_LOOP ( 'NONE', ( #1064, #1050, #173, #141 ) ) ;
#137 = AXIS2_PLACEMENT_3D ( 'NONE', #581, #424, #334 ) ;
#138 = EDGE_CURVE ( 'NONE', #357, #286, #125, .T. ) ;
#139 = DIRECTION ( 'NONE',  ( 0.000000000000000000, 0.000000000000000000, 1.000000000000000000 ) ) ;
#140 = AXIS2_PLACEMENT_3D ( 'NONE', #696, #615, #22 ) ;
#141 = ORIENTED_EDGE ( 'NONE', *, *, #1056, .T. ) ;
#142 = CARTESIAN_POINT ( 'NONE',  ( 4.375411679505521789, 7.503302497604243726, 8.000000000000000000 ) ) ;
#143 = CARTESIAN_POINT ( 'NONE',  ( -5.824588320494476612, 13.85415545869011389, 8.000000000000000000 ) ) ;
#144 = EDGE_LOOP ( 'NONE', ( #24, #608, #813, #533 ) ) ;
#145 = CARTESIAN_POINT ( 'NONE',  ( 4.375411679505521789, 0.5033024976042397292, 8.000000000000000000 ) ) ;
#146 = ADVANCED_FACE ( 'NONE', ( #861, #542 ), #364, .F. ) ;
#147 = PLANE ( 'NONE',  #201 ) ;
#148 = VERTEX_POINT ( 'NONE', #207 ) ;
#149 = DIRECTION ( 'NONE',  ( 0.000000000000000000, 0.000000000000000000, 1.000000000000000000 ) ) ;
#150 = VERTEX_POINT ( 'NONE', #114 ) ;
#151 = SURFACE_STYLE_FILL_AREA ( #490 ) ;
#152 = VECTOR ( 'NONE', #57, 1000.000000000000000 ) ;
#153 = VECTOR ( 'NONE', #162, 1000.000000000000114 ) ;
#154 = ADVANCED_FACE ( 'NONE', ( #878 ), #289, .F. ) ;
#155 = CIRCLE ( 'NONE', #767, 1.600000000000001643 ) ;
#156 = CARTESIAN_POINT ( 'NONE',  ( 6.175411679505521612, -16.64917664098895855, 8.000000000000000000 ) ) ;
#157 = VERTEX_POINT ( 'NONE', #1045 ) ;
#158 = CARTESIAN_POINT ( 'NONE',  ( 4.375411679505521789, 2.350823359011043223, 8.000000000000000000 ) ) ;
#159 = CARTESIAN_POINT ( 'NONE',  ( 4.375411679505521789, 9.350823359011043223, 0.000000000000000000 ) ) ;
#160 = ORIENTED_EDGE ( 'NONE', *, *, #652, .T. ) ;
#161 = CARTESIAN_POINT ( 'NONE',  ( 4.375411679505521789, -6.801655779582157280, 8.000000000000000000 ) ) ;
#162 = DIRECTION ( 'NONE',  ( 0.8660254037844387076, 0.4999999999999997780, -0.000000000000000000 ) ) ;
#163 = ORIENTED_EDGE ( 'NONE', *, *, #825, .F. ) ;
#164 = PRODUCT_RELATED_PRODUCT_CATEGORY ( 'part', '', ( #831 ) ) ;
#165 = LINE ( 'NONE', #156, #187 ) ;
#166 = ORIENTED_EDGE ( 'NONE', *, *, #230, .T. ) ;
#167 = ADVANCED_FACE ( 'NONE', ( #865, #37 ), #611, .F. ) ;
#168 = CARTESIAN_POINT ( 'NONE',  ( 14.87541167950552179, 13.35082335901104500, 5.600000000000001421 ) ) ;
#169 = LINE ( 'NONE', #758, #153 ) ;
#170 = VECTOR ( 'NONE', #757, 1000.000000000000000 ) ;
#171 = VERTEX_POINT ( 'NONE', #199 ) ;
#172 = LINE ( 'NONE', #840, #804 ) ;
#173 = ORIENTED_EDGE ( 'NONE', *, *, #1, .F. ) ;
#174 = CARTESIAN_POINT ( 'NONE',  ( -4.624588320494479099, 14.54697578171766281, 8.000000000000000000 ) ) ;
#175 = ORIENTED_EDGE ( 'NONE', *, *, #198, .F. ) ;
#176 = FACE_OUTER_BOUND ( 'NONE', #954, .T. ) ;
#177 = VERTEX_POINT ( 'NONE', #700 ) ;
#178 = CARTESIAN_POINT ( 'NONE',  ( -5.024588320494478566, -6.152508740668036324, 8.000000000000000000 ) ) ;
#179 = DIRECTION ( 'NONE',  ( 0.000000000000000000, 0.000000000000000000, -1.000000000000000000 ) ) ;
#180 = ADVANCED_FACE ( 'NONE', ( #285 ), #871, .F. ) ;
#181 = ORIENTED_EDGE ( 'NONE', *, *, #134, .F. ) ;
#182 = ORIENTED_EDGE ( 'NONE', *, *, #1023, .T. ) ;
#183 = FACE_OUTER_BOUND ( 'NONE', #938, .T. ) ;
#184 = DIRECTION ( 'NONE',  ( -0.000000000000000000, -0.000000000000000000, -1.000000000000000000 ) ) ;
#185 = AXIS2_PLACEMENT_3D ( 'NONE', #1053, #817, #62 ) ;
#186 = EDGE_CURVE ( 'NONE', #923, #148, #190, .T. ) ;
#187 = VECTOR ( 'NONE', #673, 1000.000000000000000 ) ;
#188 = VERTEX_POINT ( 'NONE', #966 ) ;
#189 = ORIENTED_EDGE ( 'NONE', *, *, #1067, .T. ) ;
#190 = CIRCLE ( 'NONE', #805, 0.7999999999999986011 ) ;
#191 = CARTESIAN_POINT ( 'NONE',  ( 4.375411679505521789, 7.503302497604243726, 8.000000000000000000 ) ) ;
#192 = EDGE_LOOP ( 'NONE', ( #1032, #182 ) ) ;
#193 = LINE ( 'NONE', #529, #473 ) ;
#194 = ORIENTED_EDGE ( 'NONE', *, *, #42, .T. ) ;
#195 = DIRECTION ( 'NONE',  ( 0.000000000000000000, 0.000000000000000000, 1.000000000000000000 ) ) ;
#196 = DIRECTION ( 'NONE',  ( 0.000000000000000000, 0.000000000000000000, -1.000000000000000000 ) ) ;
#197 = DIRECTION ( 'NONE',  ( -0.000000000000000000, -0.000000000000000000, -1.000000000000000000 ) ) ;
#198 = EDGE_CURVE ( 'NONE', #594, #13, #646, .T. ) ;
#199 = CARTESIAN_POINT ( 'NONE',  ( -5.424588320494477145, -12.45968841764047674, 8.000000000000000000 ) ) ;
#200 = APPLICATION_PROTOCOL_DEFINITION ( 'draft international standard', 'automotive_design', 1998, #629 ) ;
#201 = AXIS2_PLACEMENT_3D ( 'NONE', #399, #1063, #649 ) ;
#202 = ORIENTED_EDGE ( 'NONE', *, *, #799, .T. ) ;
#203 = AXIS2_PLACEMENT_3D ( 'NONE', #73, #570, #737 ) ;
#204 = CARTESIAN_POINT ( 'NONE',  ( 14.87541167950552179, -12.64917664098895855, 5.600000000000001421 ) ) ;
#205 = DIRECTION ( 'NONE',  ( -0.000000000000000000, -0.000000000000000000, -1.000000000000000000 ) ) ;
#206 = CLOSED_SHELL ( 'NONE', ( #901, #275, #517, #975, #748, #621, #911, #326, #146, #1052, #320, #108, #417, #371, #815, #662, #866, #154, #208, #727, #180, #619, #668, #121, #687, #590, #167, #859, #950, #282, #412, #127 ) ) ;
#207 = CARTESIAN_POINT ( 'NONE',  ( -4.624588320494479099, -6.845329063695587024, 0.000000000000000000 ) ) ;
#208 = ADVANCED_FACE ( 'NONE', ( #791 ), #536, .F. ) ;
#209 = CARTESIAN_POINT ( 'NONE',  ( -5.424588320494477145, -5.459688417640487401, 0.000000000000000000 ) ) ;
#210 = DIRECTION ( 'NONE',  ( -1.000000000000000000, 0.000000000000000000, 0.000000000000000000 ) ) ;
#211 = ORIENTED_EDGE ( 'NONE', *, *, #1024, .T. ) ;
#212 = CARTESIAN_POINT ( 'NONE',  ( 6.175411679505521612, 13.35082335901104500, 4.000000000000000000 ) ) ;
#213 = DIRECTION ( 'NONE',  ( 0.000000000000000000, 0.000000000000000000, 1.000000000000000000 ) ) ;
#214 = CARTESIAN_POINT ( 'NONE',  ( -5.824588320494476612, -6.152508740668036324, 0.000000000000000000 ) ) ;
#215 = DIRECTION ( 'NONE',  ( -1.000000000000000000, 0.000000000000000000, 0.000000000000000000 ) ) ;
#216 = VERTEX_POINT ( 'NONE', #273 ) ;
#217 = CARTESIAN_POINT ( 'NONE',  ( 5.375411679505521789, -16.64917664098895855, 8.000000000000000000 ) ) ;
#218 = AXIS2_PLACEMENT_3D ( 'NONE', #880, #213, #967 ) ;
#219 = EDGE_CURVE ( 'NONE', #188, #1059, #952, .T. ) ;
#220 = DIRECTION ( 'NONE',  ( -0.8660254037844391517, -0.4999999999999991118, -0.000000000000000000 ) ) ;
#221 = CARTESIAN_POINT ( 'NONE',  ( 4.375411679505521789, -8.649176640988956777, 0.000000000000000000 ) ) ;
#222 = ORIENTED_EDGE ( 'NONE', *, *, #820, .F. ) ;
#223 = AXIS2_PLACEMENT_3D ( 'NONE', #940, #864, #113 ) ;
#224 = AXIS2_PLACEMENT_3D ( 'NONE', #259, #653, #829 ) ;
#225 = DIRECTION ( 'NONE',  ( -0.4999999999999991673, -0.8660254037844391517, 0.000000000000000000 ) ) ;
#226 = AXIS2_PLACEMENT_3D ( 'NONE', #380, #771, #532 ) ;
#227 = LINE ( 'NONE', #703, #974 ) ;
#228 = DIRECTION ( 'NONE',  ( -0.8660254037844391517, -0.4999999999999991118, -0.000000000000000000 ) ) ;
#229 = ORIENTED_EDGE ( 'NONE', *, *, #56, .F. ) ;
#230 = EDGE_CURVE ( 'NONE', #346, #751, #193, .T. ) ;
#231 = LINE ( 'NONE', #135, #802 ) ;
#232 = ORIENTED_EDGE ( 'NONE', *, *, #481, .T. ) ;
#233 = DIRECTION ( 'NONE',  ( -0.8660254037844391517, 0.4999999999999991118, -0.000000000000000000 ) ) ;
#234 = EDGE_CURVE ( 'NONE', #841, #918, #448, .T. ) ;
#235 = AXIS2_PLACEMENT_3D ( 'NONE', #868, #807, #788 ) ;
#236 = FACE_BOUND ( 'NONE', #192, .T. ) ;
#237 = ORIENTED_EDGE ( 'NONE', *, *, #526, .T. ) ;
#238 = DIRECTION ( 'NONE',  ( -1.000000000000000000, -0.000000000000000000, -0.000000000000000000 ) ) ;
#239 = VECTOR ( 'NONE', #789, 1000.000000000000000 ) ;
#240 = AXIS2_PLACEMENT_3D ( 'NONE', #458, #620, #959 ) ;
#241 = CARTESIAN_POINT ( 'NONE',  ( -5.424588320494477145, -12.45968841764047674, 8.000000000000000000 ) ) ;
#242 = VERTEX_POINT ( 'NONE', #1055 ) ;
#243 = PLANE ( 'NONE',  #962 ) ;
#244 = VERTEX_POINT ( 'NONE', #640 ) ;
#245 = EDGE_CURVE ( 'NONE', #879, #830, #552, .T. ) ;
#246 = CARTESIAN_POINT ( 'NONE',  ( 4.375411679505521789, 0.5033024976042397292, 8.000000000000000000 ) ) ;
#247 = ORIENTED_EDGE ( 'NONE', *, *, #134, .T. ) ;
#248 = DIRECTION ( 'NONE',  ( -0.000000000000000000, -1.000000000000000000, -0.000000000000000000 ) ) ;
#249 = LINE ( 'NONE', #442, #420 ) ;
#250 = EDGE_LOOP ( 'NONE', ( #381, #304, #899, #92, #79, #844, #59, #851, #836, #546, #1070, #928, #361, #476, #101, #20, #258, #270, #421, #295, #353, #670, #434, #181, #423, #372 ) ) ;
#251 = EDGE_CURVE ( 'NONE', #150, #51, #537, .T. ) ;
#252 = PLANE ( 'NONE',  #29 ) ;
#253 = ORIENTED_EDGE ( 'NONE', *, *, #481, .F. ) ;
#254 = CARTESIAN_POINT ( 'NONE',  ( -5.024588320494478566, 6.854155458690122771, 8.000000000000000000 ) ) ;
#255 = VECTOR ( 'NONE', #228, 1000.000000000000000 ) ;
#256 = CARTESIAN_POINT ( 'NONE',  ( 5.375411679505521789, 9.350823359011043223, 0.000000000000000000 ) ) ;
#257 = VECTOR ( 'NONE', #575, 1000.000000000000000 ) ;
#258 = ORIENTED_EDGE ( 'NONE', *, *, #281, .F. ) ;
#259 = CARTESIAN_POINT ( 'NONE',  ( 6.175411679505521612, -16.64917664098895855, 8.000000000000000000 ) ) ;
#260 = EDGE_LOOP ( 'NONE', ( #595, #124 ) ) ;
#261 = DIRECTION ( 'NONE',  ( 1.000000000000000000, 0.000000000000000000, 0.000000000000000000 ) ) ;
#262 = EDGE_CURVE ( 'NONE', #357, #970, #475, .T. ) ;
#263 = CARTESIAN_POINT ( 'NONE',  ( 14.87541167950552179, 13.35082335901104500, 2.399999999999998579 ) ) ;
#264 = ORIENTED_EDGE ( 'NONE', *, *, #75, .F. ) ;
#265 = EDGE_LOOP ( 'NONE', ( #338, #777, #483, #780 ) ) ;
#266 = ORIENTED_EDGE ( 'NONE', *, *, #973, .T. ) ;
#267 = LINE ( 'NONE', #161, #486 ) ;
#268 = VERTEX_POINT ( 'NONE', #565 ) ;
#269 = VERTEX_POINT ( 'NONE', #897 ) ;
#270 = ORIENTED_EDGE ( 'NONE', *, *, #1010, .F. ) ;
#271 = AXIS2_PLACEMENT_3D ( 'NONE', #133, #976, #881 ) ;
#272 = DIRECTION ( 'NONE',  ( 0.000000000000000000, 0.000000000000000000, 1.000000000000000000 ) ) ;
#273 = CARTESIAN_POINT ( 'NONE',  ( 5.375411679505521789, -16.64917664098895855, 8.000000000000000000 ) ) ;
#274 = AXIS2_PLACEMENT_3D ( 'NONE', #704, #109, #117 ) ;
#275 = ADVANCED_FACE ( 'NONE', ( #889 ), #60, .F. ) ;
#276 = AXIS2_PLACEMENT_3D ( 'NONE', #58, #1004, #78 ) ;
#277 = EDGE_LOOP ( 'NONE', ( #439, #400, #535, #23 ) ) ;
#278 = AXIS2_PLACEMENT_3D ( 'NONE', #711, #1022, #31 ) ;
#279 = CARTESIAN_POINT ( 'NONE',  ( -5.024588320494478566, 13.85415545869011389, 8.000000000000000000 ) ) ;
#280 = CARTESIAN_POINT ( 'NONE',  ( -4.624588320494479099, 14.54697578171766281, 0.000000000000000000 ) ) ;
#281 = EDGE_CURVE ( 'NONE', #36, #1015, #103, .T. ) ;
#282 = ADVANCED_FACE ( 'NONE', ( #485 ), #648, .F. ) ;
#283 = DIRECTION ( 'NONE',  ( 0.000000000000000000, 0.000000000000000000, 1.000000000000000000 ) ) ;
#284 = CARTESIAN_POINT ( 'NONE',  ( -5.824588320494476612, -13.15250874066802744, 8.000000000000000000 ) ) ;
#285 = FACE_OUTER_BOUND ( 'NONE', #888, .T. ) ;
#286 = VERTEX_POINT ( 'NONE', #725 ) ;
#287 = CARTESIAN_POINT ( 'NONE',  ( 6.175411679505521612, -16.64917664098895855, 0.000000000000000000 ) ) ;
#288 = CARTESIAN_POINT ( 'NONE',  ( 4.375411679505521789, 9.350823359011043223, 8.000000000000000000 ) ) ;
#289 = PLANE ( 'NONE',  #226 ) ;
#290 = CIRCLE ( 'NONE', #712, 1.600000000000001643 ) ;
#291 = LINE ( 'NONE', #209, #132 ) ;
#292 = ADVANCED_BREP_SHAPE_REPRESENTATION ( 'damper-1', ( #316, #218 ), #919 ) ;
#293 = LINE ( 'NONE', #191, #398 ) ;
#294 = CIRCLE ( 'NONE', #347, 0.7999999999999986011 ) ;
#295 = ORIENTED_EDGE ( 'NONE', *, *, #349, .F. ) ;
#296 = VECTOR ( 'NONE', #828, 1000.000000000000000 ) ;
#297 = CARTESIAN_POINT ( 'NONE',  ( -5.024588320494478566, -6.152508740668036324, 0.000000000000000000 ) ) ;
#298 = DIRECTION ( 'NONE',  ( 0.000000000000000000, 1.000000000000000000, 0.000000000000000000 ) ) ;
#299 = DIRECTION ( 'NONE',  ( -1.000000000000000000, 0.000000000000000000, 0.000000000000000000 ) ) ;
#300 = ORIENTED_EDGE ( 'NONE', *, *, #1056, .F. ) ;
#301 = CARTESIAN_POINT ( 'NONE',  ( -4.624588320494479099, 14.54697578171766281, 8.000000000000000000 ) ) ;
#302 = FACE_OUTER_BOUND ( 'NONE', #498, .T. ) ;
#303 = LINE ( 'NONE', #626, #742 ) ;
#304 = ORIENTED_EDGE ( 'NONE', *, *, #988, .F. ) ;
#305 = VECTOR ( 'NONE', #307, 1000.000000000000000 ) ;
#306 = DIRECTION ( 'NONE',  ( 0.000000000000000000, 0.000000000000000000, 1.000000000000000000 ) ) ;
#307 = DIRECTION ( 'NONE',  ( 1.000000000000000000, -0.000000000000000000, -0.000000000000000000 ) ) ;
#308 = DIRECTION ( 'NONE',  ( -0.8660254037844391517, 0.4999999999999991118, -0.000000000000000000 ) ) ;
#309 = ORIENTED_EDGE ( 'NONE', *, *, #636, .F. ) ;
#310 = VECTOR ( 'NONE', #661, 1000.000000000000000 ) ;
#311 =( LENGTH_UNIT ( ) NAMED_UNIT ( * ) SI_UNIT ( .MILLI., .METRE. ) );
#312 = EDGE_CURVE ( 'NONE', #157, #698, #315, .T. ) ;
#313 = CARTESIAN_POINT ( 'NONE',  ( 4.375411679505521789, 2.350823359011043223, 8.000000000000000000 ) ) ;
#314 = VERTEX_POINT ( 'NONE', #64 ) ;
#315 = LINE ( 'NONE', #824, #50 ) ;
#316 = MANIFOLD_SOLID_BREP ( 'Cut-Extrude1', #206 ) ;
#317 = LINE ( 'NONE', #1074, #401 ) ;
#318 = ORIENTED_EDGE ( 'NONE', *, *, #410, .F. ) ;
#319 = FILL_AREA_STYLE_COLOUR ( '', #606 ) ;
#320 = ADVANCED_FACE ( 'NONE', ( #402 ), #651, .F. ) ;
#321 = VECTOR ( 'NONE', #376, 1000.000000000000000 ) ;
#322 = PLANE ( 'NONE',  #623 ) ;
#323 = ORIENTED_EDGE ( 'NONE', *, *, #102, .T. ) ;
#324 = CARTESIAN_POINT ( 'NONE',  ( 5.375411679505521789, 17.35082335901104500, 8.000000000000000000 ) ) ;
#325 = CIRCLE ( 'NONE', #604, 1.600000000000001643 ) ;
#326 = ADVANCED_FACE ( 'NONE', ( #55 ), #558, .F. ) ;
#327 = AXIS2_PLACEMENT_3D ( 'NONE', #452, #463, #795 ) ;
#328 = LINE ( 'NONE', #241, #659 ) ;
#329 = ORIENTED_EDGE ( 'NONE', *, *, #1018, .T. ) ;
#330 = CARTESIAN_POINT ( 'NONE',  ( 4.375411679505521789, -8.649176640988956777, 8.000000000000000000 ) ) ;
#331 = ORIENTED_EDGE ( 'NONE', *, *, #705, .F. ) ;
#332 = CYLINDRICAL_SURFACE ( 'NONE', #436, 1.600000000000001643 ) ;
#333 = VERTEX_POINT ( 'NONE', #633 ) ;
#334 = DIRECTION ( 'NONE',  ( 0.000000000000000000, 0.000000000000000000, 1.000000000000000000 ) ) ;
#335 = CARTESIAN_POINT ( 'NONE',  ( 4.375411679505521789, 0.1983442204178467172, 0.000000000000000000 ) ) ;
#336 = AXIS2_PLACEMENT_3D ( 'NONE', #886, #894, #373 ) ;
#337 = PLANE ( 'NONE',  #224 ) ;
#338 = ORIENTED_EDGE ( 'NONE', *, *, #988, .T. ) ;
#339 = EDGE_CURVE ( 'NONE', #970, #216, #971, .T. ) ;
#340 = LINE ( 'NONE', #324, #783 ) ;
#341 = EDGE_CURVE ( 'NONE', #453, #852, #679, .T. ) ;
#342 = CIRCLE ( 'NONE', #582, 0.7999999999999986011 ) ;
#343 = DIRECTION ( 'NONE',  ( -0.000000000000000000, -0.000000000000000000, -1.000000000000000000 ) ) ;
#344 = VECTOR ( 'NONE', #835, 1000.000000000000000 ) ;
#345 = AXIS2_PLACEMENT_3D ( 'NONE', #301, #225, #810 ) ;
#346 = VERTEX_POINT ( 'NONE', #1001 ) ;
#347 = AXIS2_PLACEMENT_3D ( 'NONE', #1017, #833, #920 ) ;
#348 = ORIENTED_EDGE ( 'NONE', *, *, #832, .T. ) ;
#349 = EDGE_CURVE ( 'NONE', #268, #242, #838, .T. ) ;
#350 = DIRECTION ( 'NONE',  ( 0.000000000000000000, -1.000000000000000000, 0.000000000000000000 ) ) ;
#351 = CARTESIAN_POINT ( 'NONE',  ( 5.375411679505521789, -16.64917664098895855, 8.000000000000000000 ) ) ;
#352 = CARTESIAN_POINT ( 'NONE',  ( 6.175411679505521612, -12.64917664098895855, 2.399999999999998135 ) ) ;
#353 = ORIENTED_EDGE ( 'NONE', *, *, #779, .F. ) ;
#354 = ORIENTED_EDGE ( 'NONE', *, *, #365, .F. ) ;
#355 = EDGE_LOOP ( 'NONE', ( #441, #175, #658, #681 ) ) ;
#356 = DIRECTION ( 'NONE',  ( 0.000000000000000000, 0.000000000000000000, 1.000000000000000000 ) ) ;
#357 = VERTEX_POINT ( 'NONE', #330 ) ;
#358 = EDGE_CURVE ( 'NONE', #809, #918, #764, .T. ) ;
#359 = DIRECTION ( 'NONE',  ( 0.000000000000000000, 0.000000000000000000, 1.000000000000000000 ) ) ;
#360 = VERTEX_POINT ( 'NONE', #932 ) ;
#361 = ORIENTED_EDGE ( 'NONE', *, *, #960, .F. ) ;
#362 = LINE ( 'NONE', #1041, #853 ) ;
#363 = EDGE_CURVE ( 'NONE', #594, #360, #741, .T. ) ;
#364 = PLANE ( 'NONE',  #1011 ) ;
#365 = EDGE_CURVE ( 'NONE', #609, #574, #294, .T. ) ;
#366 = AXIS2_PLACEMENT_3D ( 'NONE', #876, #123, #377 ) ;
#367 = ORIENTED_EDGE ( 'NONE', *, *, #90, .T. ) ;
#368 = AXIS2_PLACEMENT_3D ( 'NONE', #212, #547, #884 ) ;
#369 = CARTESIAN_POINT ( 'NONE',  ( -5.024588320494478566, 13.85415545869011389, 8.000000000000000000 ) ) ;
#370 = CYLINDRICAL_SURFACE ( 'NONE', #327, 0.7999999999999986011 ) ;
#371 = ADVANCED_FACE ( 'NONE', ( #589 ), #243, .F. ) ;
#372 = ORIENTED_EDGE ( 'NONE', *, *, #832, .F. ) ;
#373 = DIRECTION ( 'NONE',  ( 1.000000000000000000, 0.000000000000000000, -0.000000000000000000 ) ) ;
#374 = DIRECTION ( 'NONE',  ( -1.000000000000000000, -0.000000000000000000, -0.000000000000000000 ) ) ;
#375 = CARTESIAN_POINT ( 'NONE',  ( 14.87541167950552179, 13.35082335901104500, 4.000000000000000000 ) ) ;
#376 = DIRECTION ( 'NONE',  ( -1.000000000000000000, -0.000000000000000000, -0.000000000000000000 ) ) ;
#377 = DIRECTION ( 'NONE',  ( 0.000000000000000000, 0.000000000000000000, 1.000000000000000000 ) ) ;
#378 = PRODUCT_DEFINITION_FORMATION_WITH_SPECIFIED_SOURCE ( 'ANY', '', #831, .NOT_KNOWN. ) ;
#379 = ORIENTED_EDGE ( 'NONE', *, *, #186, .T. ) ;
#380 = CARTESIAN_POINT ( 'NONE',  ( 4.375411679505521789, 0.1983442204178467172, 8.000000000000000000 ) ) ;
#381 = ORIENTED_EDGE ( 'NONE', *, *, #945, .F. ) ;
#382 = AXIS2_PLACEMENT_3D ( 'NONE', #369, #699, #1033 ) ;
#383 = AXIS2_PLACEMENT_3D ( 'NONE', #977, #1049, #299 ) ;
#384 = DIRECTION ( 'NONE',  ( 0.000000000000000000, 0.000000000000000000, 1.000000000000000000 ) ) ;
#385 = CYLINDRICAL_SURFACE ( 'NONE', #383, 0.7999999999999986011 ) ;
#386 = ORIENTED_EDGE ( 'NONE', *, *, #251, .F. ) ;
#387 = EDGE_CURVE ( 'NONE', #759, #913, #491, .T. ) ;
#388 =( NAMED_UNIT ( * ) PLANE_ANGLE_UNIT ( ) SI_UNIT ( $, .RADIAN. ) );
#389 = CARTESIAN_POINT ( 'NONE',  ( -5.024588320494478566, -13.15250874066802744, 0.000000000000000000 ) ) ;
#390 = LINE ( 'NONE', #482, #255 ) ;
#391 = ORIENTED_EDGE ( 'NONE', *, *, #945, .T. ) ;
#392 = CARTESIAN_POINT ( 'NONE',  ( 5.375411679505521789, 17.35082335901104500, 8.000000000000000000 ) ) ;
#393 = DIRECTION ( 'NONE',  ( 1.000000000000000000, 0.000000000000000000, 0.000000000000000000 ) ) ;
#394 = EDGE_LOOP ( 'NONE', ( #512, #587, #115, #97 ) ) ;
#395 = VECTOR ( 'NONE', #220, 1000.000000000000000 ) ;
#396 = DIRECTION ( 'NONE',  ( 0.000000000000000000, 0.000000000000000000, 1.000000000000000000 ) ) ;
#397 = EDGE_CURVE ( 'NONE', #731, #360, #155, .T. ) ;
#398 = VECTOR ( 'NONE', #951, 1000.000000000000000 ) ;
#399 = CARTESIAN_POINT ( 'NONE',  ( 4.375411679505521789, -8.649176640988956777, 8.000000000000000000 ) ) ;
#400 = ORIENTED_EDGE ( 'NONE', *, *, #607, .F. ) ;
#401 = VECTOR ( 'NONE', #999, 1000.000000000000000 ) ;
#402 = FACE_OUTER_BOUND ( 'NONE', #462, .T. ) ;
#403 = AXIS2_PLACEMENT_3D ( 'NONE', #392, #736, #910 ) ;
#404 = PRODUCT_DEFINITION_SHAPE ( 'NONE', 'NONE',  #67 ) ;
#405 = CARTESIAN_POINT ( 'NONE',  ( -5.024588320494478566, 6.854155458690122771, 8.000000000000000000 ) ) ;
#406 = ORIENTED_EDGE ( 'NONE', *, *, #820, .T. ) ;
#407 = PRESENTATION_STYLE_ASSIGNMENT (( #1060 ) ) ;
#408 = CARTESIAN_POINT ( 'NONE',  ( 14.87541167950552179, 13.35082335901104500, 4.000000000000000000 ) ) ;
#409 = ORIENTED_EDGE ( 'NONE', *, *, #138, .T. ) ;
#410 = EDGE_CURVE ( 'NONE', #858, #269, #665, .T. ) ;
#411 = CARTESIAN_POINT ( 'NONE',  ( 5.375411679505521789, -16.64917664098895855, 0.000000000000000000 ) ) ;
#412 = ADVANCED_FACE ( 'NONE', ( #752 ), #914, .F. ) ;
#413 = VECTOR ( 'NONE', #445, 1000.000000000000000 ) ;
#414 = CARTESIAN_POINT ( 'NONE',  ( -4.624588320494479099, 7.546975781717673470, 8.000000000000000000 ) ) ;
#415 = ORIENTED_EDGE ( 'NONE', *, *, #555, .F. ) ;
#416 = DIRECTION ( 'NONE',  ( -0.000000000000000000, -0.000000000000000000, -1.000000000000000000 ) ) ;
#417 = ADVANCED_FACE ( 'NONE', ( #842 ), #1012, .F. ) ;
#418 = VECTOR ( 'NONE', #3, 1000.000000000000114 ) ;
#419 = CARTESIAN_POINT ( 'NONE',  ( -5.824588320494476612, -6.152508740668036324, 8.000000000000000000 ) ) ;
#420 = VECTOR ( 'NONE', #82, 1000.000000000000000 ) ;
#421 = ORIENTED_EDGE ( 'NONE', *, *, #634, .F. ) ;
#422 = PLANE ( 'NONE',  #941 ) ;
#423 = ORIENTED_EDGE ( 'NONE', *, *, #32, .F. ) ;
#424 = DIRECTION ( 'NONE',  ( -1.000000000000000000, -0.000000000000000000, -0.000000000000000000 ) ) ;
#425 = CARTESIAN_POINT ( 'NONE',  ( -4.624588320494479099, 7.546975781717672582, 0.000000000000000000 ) ) ;
#426 = CARTESIAN_POINT ( 'NONE',  ( 5.375411679505521789, -8.649176640988956777, 8.000000000000000000 ) ) ;
#427 = VERTEX_POINT ( 'NONE', #925 ) ;
#428 = DIRECTION ( 'NONE',  ( 0.4999999999999991673, 0.8660254037844391517, -0.000000000000000000 ) ) ;
#429 = DIRECTION ( 'NONE',  ( -0.8660254037844387076, 0.4999999999999997780, -0.000000000000000000 ) ) ;
#430 = AXIS2_PLACEMENT_3D ( 'NONE', #178, #283, #515 ) ;
#431 = ORIENTED_EDGE ( 'NONE', *, *, #555, .T. ) ;
#432 = EDGE_CURVE ( 'NONE', #877, #107, #290, .T. ) ;
#433 = DIRECTION ( 'NONE',  ( 0.000000000000000000, 0.000000000000000000, 1.000000000000000000 ) ) ;
#434 = ORIENTED_EDGE ( 'NONE', *, *, #234, .F. ) ;
#435 = DIRECTION ( 'NONE',  ( -1.000000000000000000, -0.000000000000000000, -0.000000000000000000 ) ) ;
#436 = AXIS2_PLACEMENT_3D ( 'NONE', #408, #669, #513 ) ;
#437 = VECTOR ( 'NONE', #753, 1000.000000000000000 ) ;
#438 = LINE ( 'NONE', #126, #85 ) ;
#439 = ORIENTED_EDGE ( 'NONE', *, *, #349, .T. ) ;
#440 = CARTESIAN_POINT ( 'NONE',  ( -5.424588320494477145, -12.45968841764047674, 0.000000000000000000 ) ) ;
#441 = ORIENTED_EDGE ( 'NONE', *, *, #61, .F. ) ;
#442 = CARTESIAN_POINT ( 'NONE',  ( 4.375411679505521789, 0.1983442204178467172, 8.000000000000000000 ) ) ;
#443 = ORIENTED_EDGE ( 'NONE', *, *, #312, .T. ) ;
#444 = ORIENTED_EDGE ( 'NONE', *, *, #219, .T. ) ;
#445 = DIRECTION ( 'NONE',  ( -0.000000000000000000, -0.000000000000000000, -1.000000000000000000 ) ) ;
#446 = PLANE ( 'NONE',  #695 ) ;
#447 = EDGE_CURVE ( 'NONE', #216, #768, #1071, .T. ) ;
#448 = LINE ( 'NONE', #280, #981 ) ;
#449 = CIRCLE ( 'NONE', #484, 1.600000000000001643 ) ;
#450 = ORIENTED_EDGE ( 'NONE', *, *, #38, .F. ) ;
#451 = CARTESIAN_POINT ( 'NONE',  ( -5.024588320494478566, 6.854155458690122771, 8.000000000000000000 ) ) ;
#452 = CARTESIAN_POINT ( 'NONE',  ( -5.024588320494478566, -13.15250874066802744, 8.000000000000000000 ) ) ;
#453 = VERTEX_POINT ( 'NONE', #98 ) ;
#454 = VECTOR ( 'NONE', #106, 1000.000000000000000 ) ;
#455 = DIRECTION ( 'NONE',  ( 1.000000000000000000, -0.000000000000000000, -0.000000000000000000 ) ) ;
#456 = FACE_OUTER_BOUND ( 'NONE', #514, .T. ) ;
#457 = ORIENTED_EDGE ( 'NONE', *, *, #1031, .F. ) ;
#458 = CARTESIAN_POINT ( 'NONE',  ( 4.375411679505521789, -1.649176640988956777, 8.000000000000000000 ) ) ;
#459 = EDGE_CURVE ( 'NONE', #525, #507, #340, .T. ) ;
#460 = DIRECTION ( 'NONE',  ( -1.000000000000000000, 0.000000000000000000, 0.000000000000000000 ) ) ;
#461 = FACE_OUTER_BOUND ( 'NONE', #823, .T. ) ;
#462 = EDGE_LOOP ( 'NONE', ( #1042, #501, #331, #756 ) ) ;
#463 = DIRECTION ( 'NONE',  ( -0.000000000000000000, -0.000000000000000000, -1.000000000000000000 ) ) ;
#464 = DIRECTION ( 'NONE',  ( -0.8660254037844385966, -0.5000000000000002220, -0.000000000000000000 ) ) ;
#465 = CARTESIAN_POINT ( 'NONE',  ( 6.175411679505521612, -16.64917664098895855, 8.000000000000000000 ) ) ;
#466 = LINE ( 'NONE', #800, #470 ) ;
#467 = ORIENTED_EDGE ( 'NONE', *, *, #341, .F. ) ;
#468 = EDGE_LOOP ( 'NONE', ( #519, #689, #70, #647 ) ) ;
#469 = APPLICATION_PROTOCOL_DEFINITION ( 'draft international standard', 'automotive_design', 1998, #71 ) ;
#470 = VECTOR ( 'NONE', #47, 1000.000000000000000 ) ;
#471 = DIRECTION ( 'NONE',  ( -0.8660254037844385966, -0.5000000000000002220, -0.000000000000000000 ) ) ;
#472 = FACE_OUTER_BOUND ( 'NONE', #667, .T. ) ;
#473 = VECTOR ( 'NONE', #111, 1000.000000000000000 ) ;
#474 = ORIENTED_EDGE ( 'NONE', *, *, #339, .T. ) ;
#475 = LINE ( 'NONE', #732, #893 ) ;
#476 = ORIENTED_EDGE ( 'NONE', *, *, #926, .F. ) ;
#477 = DIRECTION ( 'NONE',  ( 0.8660254037844391517, -0.4999999999999991118, -0.000000000000000000 ) ) ;
#478 = CARTESIAN_POINT ( 'NONE',  ( 4.375411679505521789, -1.649176640988956777, 8.000000000000000000 ) ) ;
#479 = VERTEX_POINT ( 'NONE', #17 ) ;
#480 = DIRECTION ( 'NONE',  ( -1.000000000000000000, 0.000000000000000000, 0.000000000000000000 ) ) ;
#481 = EDGE_CURVE ( 'NONE', #761, #112, #267, .T. ) ;
#482 = CARTESIAN_POINT ( 'NONE',  ( -5.424588320494477145, -12.45968841764047674, 8.000000000000000000 ) ) ;
#483 = ORIENTED_EDGE ( 'NONE', *, *, #973, .F. ) ;
#484 = AXIS2_PLACEMENT_3D ( 'NONE', #617, #39, #384 ) ;
#485 = FACE_OUTER_BOUND ( 'NONE', #250, .T. ) ;
#486 = VECTOR ( 'NONE', #248, 1000.000000000000000 ) ;
#487 = DIRECTION ( 'NONE',  ( -0.000000000000000000, -0.000000000000000000, -1.000000000000000000 ) ) ;
#488 = ORIENTED_EDGE ( 'NONE', *, *, #710, .T. ) ;
#489 = VECTOR ( 'NONE', #416, 1000.000000000000000 ) ;
#490 = FILL_AREA_STYLE ('',( #319 ) ) ;
#491 = CIRCLE ( 'NONE', #16, 0.7999999999999986011 ) ;
#492 = EDGE_CURVE ( 'NONE', #639, #857, #597, .T. ) ;
#493 = FACE_OUTER_BOUND ( 'NONE', #787, .T. ) ;
#494 = EDGE_LOOP ( 'NONE', ( #720, #300, #264, #1003 ) ) ;
#495 = DIRECTION ( 'NONE',  ( -0.000000000000000000, -0.000000000000000000, -1.000000000000000000 ) ) ;
#496 = EDGE_CURVE ( 'NONE', #965, #768, #76, .T. ) ;
#497 = CARTESIAN_POINT ( 'NONE',  ( 5.375411679505521789, -12.64917664098895855, 2.399999999999998135 ) ) ;
#498 = EDGE_LOOP ( 'NONE', ( #354, #551, #379, #701 ) ) ;
#499 = CARTESIAN_POINT ( 'NONE',  ( 5.375411679505521789, 17.35082335901104500, 8.000000000000000000 ) ) ;
#500 = CYLINDRICAL_SURFACE ( 'NONE', #697, 0.7999999999999986011 ) ;
#501 = ORIENTED_EDGE ( 'NONE', *, *, #358, .F. ) ;
#502 = DIRECTION ( 'NONE',  ( -0.8660254037844384856, 0.5000000000000001110, 0.000000000000000000 ) ) ;
#503 = ORIENTED_EDGE ( 'NONE', *, *, #548, .F. ) ;
#504 = CARTESIAN_POINT ( 'NONE',  ( 5.375411679505521789, 13.35082335901104500, 4.000000000000000000 ) ) ;
#505 = CIRCLE ( 'NONE', #65, 0.7999999999999986011 ) ;
#506 = AXIS2_PLACEMENT_3D ( 'NONE', #979, #480, #1068 ) ;
#507 = VERTEX_POINT ( 'NONE', #499 ) ;
#508 = DIRECTION ( 'NONE',  ( -0.000000000000000000, -0.000000000000000000, -1.000000000000000000 ) ) ;
#509 = ORIENTED_EDGE ( 'NONE', *, *, #339, .F. ) ;
#510 = CARTESIAN_POINT ( 'NONE',  ( 5.375411679505521789, 9.350823359011043223, 8.000000000000000000 ) ) ;
#511 = EDGE_CURVE ( 'NONE', #852, #188, #505, .T. ) ;
#512 = ORIENTED_EDGE ( 'NONE', *, *, #754, .T. ) ;
#513 = DIRECTION ( 'NONE',  ( 0.000000000000000000, 0.000000000000000000, 1.000000000000000000 ) ) ;
#514 = EDGE_LOOP ( 'NONE', ( #996, #163, #773, #409 ) ) ;
#515 = DIRECTION ( 'NONE',  ( 1.000000000000000000, 0.000000000000000000, 0.000000000000000000 ) ) ;
#516 = DIRECTION ( 'NONE',  ( 1.000000000000000000, 0.000000000000000000, 0.000000000000000000 ) ) ;
#517 = ADVANCED_FACE ( 'NONE', ( #461 ), #794, .T. ) ;
#518 = EDGE_CURVE ( 'NONE', #852, #1015, #610, .T. ) ;
#519 = ORIENTED_EDGE ( 'NONE', *, *, #387, .F. ) ;
#520 = DIRECTION ( 'NONE',  ( 0.000000000000000000, 0.000000000000000000, 1.000000000000000000 ) ) ;
#521 = VERTEX_POINT ( 'NONE', #527 ) ;
#522 = CIRCLE ( 'NONE', #656, 0.7999999999999986011 ) ;
#523 = CARTESIAN_POINT ( 'NONE',  ( 5.375411679505521789, 17.35082335901104500, 8.000000000000000000 ) ) ;
#524 = MECHANICAL_DESIGN_GEOMETRIC_PRESENTATION_REPRESENTATION (  '', ( #1029 ), #873 ) ;
#525 = VERTEX_POINT ( 'NONE', #769 ) ;
#526 = EDGE_CURVE ( 'NONE', #177, #357, #1037, .T. ) ;
#527 = CARTESIAN_POINT ( 'NONE',  ( 6.175411679505521612, -16.64917664098895855, 0.000000000000000000 ) ) ;
#528 = ORIENTED_EDGE ( 'NONE', *, *, #543, .F. ) ;
#529 = CARTESIAN_POINT ( 'NONE',  ( -5.424588320494477145, -5.459688417640487401, 8.000000000000000000 ) ) ;
#530 = VERTEX_POINT ( 'NONE', #440 ) ;
#531 = LINE ( 'NONE', #956, #641 ) ;
#532 = DIRECTION ( 'NONE',  ( 0.000000000000000000, 0.000000000000000000, -1.000000000000000000 ) ) ;
#533 = ORIENTED_EDGE ( 'NONE', *, *, #1043, .F. ) ;
#534 = CARTESIAN_POINT ( 'NONE',  ( 4.375411679505521789, -8.649176640988956777, 8.000000000000000000 ) ) ;
#535 = ORIENTED_EDGE ( 'NONE', *, *, #1024, .F. ) ;
#536 = PLANE ( 'NONE',  #140 ) ;
#537 = CIRCLE ( 'NONE', #506, 1.600000000000001643 ) ;
#538 = ORIENTED_EDGE ( 'NONE', *, *, #387, .T. ) ;
#539 = VECTOR ( 'NONE', #721, 1000.000000000000000 ) ;
#540 = PLANE ( 'NONE',  #336 ) ;
#541 = CARTESIAN_POINT ( 'NONE',  ( 4.375411679505521789, 0.5033024976042397292, 8.000000000000000000 ) ) ;
#542 = FACE_OUTER_BOUND ( 'NONE', #801, .T. ) ;
#543 = EDGE_CURVE ( 'NONE', #107, #877, #939, .T. ) ;
#544 = DIRECTION ( 'NONE',  ( 0.000000000000000000, 0.000000000000000000, 1.000000000000000000 ) ) ;
#545 = CARTESIAN_POINT ( 'NONE',  ( 5.375411679505521789, 13.35082335901104500, 2.399999999999998135 ) ) ;
#546 = ORIENTED_EDGE ( 'NONE', *, *, #872, .F. ) ;
#547 = DIRECTION ( 'NONE',  ( -1.000000000000000000, 0.000000000000000000, 0.000000000000000000 ) ) ;
#548 = EDGE_CURVE ( 'NONE', #525, #333, #531, .T. ) ;
#549 = CARTESIAN_POINT ( 'NONE',  ( 5.375411679505521789, -8.649176640988956777, 8.000000000000000000 ) ) ;
#550 = PLANE ( 'NONE',  #185 ) ;
#551 = ORIENTED_EDGE ( 'NONE', *, *, #81, .T. ) ;
#552 = LINE ( 'NONE', #145, #765 ) ;
#553 = ORIENTED_EDGE ( 'NONE', *, *, #856, .T. ) ;
#554 = LINE ( 'NONE', #142, #740 ) ;
#555 = EDGE_CURVE ( 'NONE', #188, #879, #854, .T. ) ;
#556 = DIRECTION ( 'NONE',  ( -0.000000000000000000, -1.000000000000000000, -0.000000000000000000 ) ) ;
#557 = ORIENTED_EDGE ( 'NONE', *, *, #1010, .T. ) ;
#558 = PLANE ( 'NONE',  #403 ) ;
#559 = CYLINDRICAL_SURFACE ( 'NONE', #819, 0.7999999999999986011 ) ;
#560 = VERTEX_POINT ( 'NONE', #288 ) ;
#561 = EDGE_CURVE ( 'NONE', #858, #560, #21, .T. ) ;
#562 = CARTESIAN_POINT ( 'NONE',  ( -5.024588320494478566, 6.854155458690122771, 0.000000000000000000 ) ) ;
#563 = CARTESIAN_POINT ( 'NONE',  ( 6.175411679505521612, -12.64917664098895855, 4.000000000000000000 ) ) ;
#564 = ORIENTED_EDGE ( 'NONE', *, *, #717, .T. ) ;
#565 = CARTESIAN_POINT ( 'NONE',  ( -5.424588320494477145, 13.16133513566256319, 0.000000000000000000 ) ) ;
#566 = EDGE_CURVE ( 'NONE', #360, #731, #83, .T. ) ;
#567 = FACE_BOUND ( 'NONE', #946, .T. ) ;
#568 = ORIENTED_EDGE ( 'NONE', *, *, #592, .T. ) ;
#569 = CARTESIAN_POINT ( 'NONE',  ( -5.024588320494478566, 13.85415545869011389, 0.000000000000000000 ) ) ;
#570 = DIRECTION ( 'NONE',  ( 0.000000000000000000, 0.000000000000000000, 1.000000000000000000 ) ) ;
#571 = ORIENTED_EDGE ( 'NONE', *, *, #251, .T. ) ;
#572 = CARTESIAN_POINT ( 'NONE',  ( 4.375411679505521789, 7.503302497604243726, 0.000000000000000000 ) ) ;
#573 = LINE ( 'NONE', #1013, #924 ) ;
#574 = VERTEX_POINT ( 'NONE', #708 ) ;
#575 = DIRECTION ( 'NONE',  ( -0.000000000000000000, -1.000000000000000000, -0.000000000000000000 ) ) ;
#576 = ORIENTED_EDGE ( 'NONE', *, *, #642, .F. ) ;
#577 = DIRECTION ( 'NONE',  ( -1.000000000000000000, -0.000000000000000000, -0.000000000000000000 ) ) ;
#578 = EDGE_LOOP ( 'NONE', ( #883, #749, #130, #74 ) ) ;
#579 = FACE_OUTER_BOUND ( 'NONE', #978, .T. ) ;
#580 = VERTEX_POINT ( 'NONE', #284 ) ;
#581 = CARTESIAN_POINT ( 'NONE',  ( 14.87541167950552179, -12.64917664098895855, 4.000000000000000000 ) ) ;
#582 = AXIS2_PLACEMENT_3D ( 'NONE', #279, #272, #1020 ) ;
#583 = VECTOR ( 'NONE', #887, 1000.000000000000000 ) ;
#584 = LINE ( 'NONE', #419, #943 ) ;
#585 = EDGE_LOOP ( 'NONE', ( #247, #309, #674, #612 ) ) ;
#586 = CARTESIAN_POINT ( 'NONE',  ( 4.375411679505521789, -1.649176640988956777, 0.000000000000000000 ) ) ;
#587 = ORIENTED_EDGE ( 'NONE', *, *, #138, .F. ) ;
#588 = CARTESIAN_POINT ( 'NONE',  ( 4.375411679505521789, 9.350823359011043223, 8.000000000000000000 ) ) ;
#589 = FACE_OUTER_BOUND ( 'NONE', #100, .T. ) ;
#590 = ADVANCED_FACE ( 'NONE', ( #456 ), #446, .F. ) ;
#591 = CARTESIAN_POINT ( 'NONE',  ( 6.175411679505521612, -16.64917664098895855, 8.000000000000000000 ) ) ;
#592 = EDGE_CURVE ( 'NONE', #574, #148, #362, .T. ) ;
#593 = ORIENTED_EDGE ( 'NONE', *, *, #358, .T. ) ;
#594 = VERTEX_POINT ( 'NONE', #694 ) ;
#595 = ORIENTED_EDGE ( 'NONE', *, *, #566, .F. ) ;
#596 = DIRECTION ( 'NONE',  ( 0.000000000000000000, -0.000000000000000000, -1.000000000000000000 ) ) ;
#597 = LINE ( 'NONE', #158, #980 ) ;
#598 = DIRECTION ( 'NONE',  ( -0.000000000000000000, -0.000000000000000000, -1.000000000000000000 ) ) ;
#599 = EDGE_CURVE ( 'NONE', #809, #759, #342, .T. ) ;
#600 = AXIS2_PLACEMENT_3D ( 'NONE', #389, #544, #718 ) ;
#601 = ORIENTED_EDGE ( 'NONE', *, *, #262, .T. ) ;
#602 = PLANE ( 'NONE',  #223 ) ;
#603 = VERTEX_POINT ( 'NONE', #685 ) ;
#604 = AXIS2_PLACEMENT_3D ( 'NONE', #563, #903, #149 ) ;
#605 = CARTESIAN_POINT ( 'NONE',  ( -5.424588320494477145, 6.161335135662573848, 8.000000000000000000 ) ) ;
#606 = COLOUR_RGB ( '',0.7921568627450980005, 0.8196078431372548767, 0.9333333333333333481 ) ;
#607 = EDGE_CURVE ( 'NONE', #87, #242, #293, .T. ) ;
#608 = ORIENTED_EDGE ( 'NONE', *, *, #739, .T. ) ;
#609 = VERTEX_POINT ( 'NONE', #937 ) ;
#610 = LINE ( 'NONE', #948, #675 ) ;
#611 = PLANE ( 'NONE',  #278 ) ;
#612 = ORIENTED_EDGE ( 'NONE', *, *, #410, .T. ) ;
#613 = UNCERTAINTY_MEASURE_WITH_UNIT (LENGTH_MEASURE( 1.000000000000000082E-05 ), #311, 'distance_accuracy_value', 'NONE');
#614 = LINE ( 'NONE', #869, #870 ) ;
#615 = DIRECTION ( 'NONE',  ( 0.5000000000000002220, -0.8660254037844385966, 0.000000000000000000 ) ) ;
#616 = ORIENTED_EDGE ( 'NONE', *, *, #432, .F. ) ;
#617 = CARTESIAN_POINT ( 'NONE',  ( 6.175411679505521612, 13.35082335901104500, 4.000000000000000000 ) ) ;
#618 = DIRECTION ( 'NONE',  ( -0.000000000000000000, -0.000000000000000000, -1.000000000000000000 ) ) ;
#619 = ADVANCED_FACE ( 'NONE', ( #183 ), #602, .F. ) ;
#620 = DIRECTION ( 'NONE',  ( -0.4999999999999997780, 0.8660254037844388186, 0.000000000000000000 ) ) ;
#621 = ADVANCED_FACE ( 'NONE', ( #782 ), #28, .T. ) ;
#622 = VECTOR ( 'NONE', #985, 1000.000000000000000 ) ;
#623 = AXIS2_PLACEMENT_3D ( 'NONE', #707, #460, #122 ) ;
#624 = VECTOR ( 'NONE', #598, 1000.000000000000000 ) ;
#625 = CYLINDRICAL_SURFACE ( 'NONE', #271, 0.7999999999999986011 ) ;
#626 = CARTESIAN_POINT ( 'NONE',  ( -5.824588320494476612, -13.15250874066802744, 8.000000000000000000 ) ) ;
#627 = ORIENTED_EDGE ( 'NONE', *, *, #1, .T. ) ;
#628 = DIRECTION ( 'NONE',  ( 0.000000000000000000, 0.000000000000000000, 1.000000000000000000 ) ) ;
#629 = APPLICATION_CONTEXT ( 'automotive_design' ) ;
#630 = LINE ( 'NONE', #968, #953 ) ;
#631 = DIRECTION ( 'NONE',  ( -0.000000000000000000, -0.000000000000000000, -1.000000000000000000 ) ) ;
#632 = ORIENTED_EDGE ( 'NONE', *, *, #607, .T. ) ;
#633 = CARTESIAN_POINT ( 'NONE',  ( 6.175411679505521612, 17.35082335901104500, 0.000000000000000000 ) ) ;
#634 = EDGE_CURVE ( 'NONE', #242, #857, #614, .T. ) ;
#635 = ORIENTED_EDGE ( 'NONE', *, *, #934, .T. ) ;
#636 = EDGE_CURVE ( 'NONE', #560, #841, #969, .T. ) ;
#637 = CARTESIAN_POINT ( 'NONE',  ( 4.375411679505521789, 0.1983442204178467172, 0.000000000000000000 ) ) ;
#638 = FACE_OUTER_BOUND ( 'NONE', #578, .T. ) ;
#639 = VERTEX_POINT ( 'NONE', #313 ) ;
#640 = CARTESIAN_POINT ( 'NONE',  ( 5.375411679505521789, 17.35082335901104500, 0.000000000000000000 ) ) ;
#641 = VECTOR ( 'NONE', #205, 1000.000000000000000 ) ;
#642 = EDGE_CURVE ( 'NONE', #112, #171, #390, .T. ) ;
#643 = CIRCLE ( 'NONE', #203, 0.7999999999999986011 ) ;
#644 = CARTESIAN_POINT ( 'NONE',  ( -5.024588320494478566, 13.85415545869011389, 0.000000000000000000 ) ) ;
#645 = CARTESIAN_POINT ( 'NONE',  ( -5.024588320494478566, -13.15250874066802744, 0.000000000000000000 ) ) ;
#646 = CIRCLE ( 'NONE', #368, 1.600000000000001643 ) ;
#647 = ORIENTED_EDGE ( 'NONE', *, *, #1062, .F. ) ;
#648 = PLANE ( 'NONE',  #994 ) ;
#649 = DIRECTION ( 'NONE',  ( -0.8660254037844390407, -0.4999999999999991118, 0.000000000000000000 ) ) ;
#650 = ORIENTED_EDGE ( 'NONE', *, *, #906, .F. ) ;
#651 = PLANE ( 'NONE',  #345 ) ;
#652 = EDGE_CURVE ( 'NONE', #603, #1014, #522, .T. ) ;
#653 = DIRECTION ( 'NONE',  ( 0.000000000000000000, 1.000000000000000000, -0.000000000000000000 ) ) ;
#654 = ORIENTED_EDGE ( 'NONE', *, *, #705, .T. ) ;
#655 = CIRCLE ( 'NONE', #235, 0.7999999999999986011 ) ;
#656 = AXIS2_PLACEMENT_3D ( 'NONE', #645, #1058, #393 ) ;
#657 = LINE ( 'NONE', #586, #418 ) ;
#658 = ORIENTED_EDGE ( 'NONE', *, *, #363, .T. ) ;
#659 = VECTOR ( 'NONE', #508, 1000.000000000000000 ) ;
#660 = VECTOR ( 'NONE', #131, 1000.000000000000000 ) ;
#661 = DIRECTION ( 'NONE',  ( -0.000000000000000000, -1.000000000000000000, -0.000000000000000000 ) ) ;
#662 = ADVANCED_FACE ( 'NONE', ( #983 ), #559, .T. ) ;
#663 = CARTESIAN_POINT ( 'NONE',  ( 4.375411679505521789, 0.5033024976042397292, 8.000000000000000000 ) ) ;
#664 = EDGE_LOOP ( 'NONE', ( #891, #84, #415, #444 ) ) ;
#665 = LINE ( 'NONE', #510, #296 ) ;
#666 = LINE ( 'NONE', #99, #745 ) ;
#667 = EDGE_LOOP ( 'NONE', ( #27, #818, #166, #1075 ) ) ;
#668 = ADVANCED_FACE ( 'NONE', ( #729 ), #550, .F. ) ;
#669 = DIRECTION ( 'NONE',  ( -1.000000000000000000, -0.000000000000000000, -0.000000000000000000 ) ) ;
#670 = ORIENTED_EDGE ( 'NONE', *, *, #992, .F. ) ;
#671 = CARTESIAN_POINT ( 'NONE',  ( -5.024588320494478566, 13.85415545869011389, 8.000000000000000000 ) ) ;
#672 = LINE ( 'NONE', #523, #454 ) ;
#673 = DIRECTION ( 'NONE',  ( 0.000000000000000000, 1.000000000000000000, 0.000000000000000000 ) ) ;
#674 = ORIENTED_EDGE ( 'NONE', *, *, #561, .F. ) ;
#675 = VECTOR ( 'NONE', #618, 1000.000000000000000 ) ;
#676 = PLANE ( 'NONE',  #9 ) ;
#677 = DIRECTION ( 'NONE',  ( 0.000000000000000000, 0.000000000000000000, 1.000000000000000000 ) ) ;
#678 = AXIS2_PLACEMENT_3D ( 'NONE', #822, #69, #210 ) ;
#679 = CIRCLE ( 'NONE', #821, 0.7999999999999986011 ) ;
#680 = LINE ( 'NONE', #766, #68 ) ;
#681 = ORIENTED_EDGE ( 'NONE', *, *, #566, .T. ) ;
#682 = DIRECTION ( 'NONE',  ( 1.000000000000000000, 0.000000000000000000, 0.000000000000000000 ) ) ;
#683 = ORIENTED_EDGE ( 'NONE', *, *, #739, .F. ) ;
#684 = ORIENTED_EDGE ( 'NONE', *, *, #799, .F. ) ;
#685 = CARTESIAN_POINT ( 'NONE',  ( -5.824588320494476612, -13.15250874066802744, 0.000000000000000000 ) ) ;
#686 = CARTESIAN_POINT ( 'NONE',  ( 4.375411679505521789, -8.649176640988956777, 8.000000000000000000 ) ) ;
#687 = ADVANCED_FACE ( 'NONE', ( #898 ), #147, .F. ) ;
#688 = VECTOR ( 'NONE', #763, 1000.000000000000000 ) ;
#689 = ORIENTED_EDGE ( 'NONE', *, *, #702, .T. ) ;
#690 = EDGE_LOOP ( 'NONE', ( #735, #867, #202, #635 ) ) ;
#691 = ORIENTED_EDGE ( 'NONE', *, *, #856, .F. ) ;
#692 = CARTESIAN_POINT ( 'NONE',  ( 4.375411679505521789, 0.1983442204178467172, 8.000000000000000000 ) ) ;
#693 = PRODUCT_DEFINITION_CONTEXT ( 'detailed design', #71, 'design' ) ;
#694 = CARTESIAN_POINT ( 'NONE',  ( 6.175411679505521612, 13.35082335901104500, 5.600000000000001421 ) ) ;
#695 = AXIS2_PLACEMENT_3D ( 'NONE', #776, #1027, #356 ) ;
#696 = CARTESIAN_POINT ( 'NONE',  ( -5.424588320494477145, -5.459688417640487401, 8.000000000000000000 ) ) ;
#697 = AXIS2_PLACEMENT_3D ( 'NONE', #834, #747, #1077 ) ;
#698 = VERTEX_POINT ( 'NONE', #723 ) ;
#699 = DIRECTION ( 'NONE',  ( -0.000000000000000000, -0.000000000000000000, -1.000000000000000000 ) ) ;
#700 = CARTESIAN_POINT ( 'NONE',  ( -4.624588320494479099, -13.84532906369557637, 8.000000000000000000 ) ) ;
#701 = ORIENTED_EDGE ( 'NONE', *, *, #592, .F. ) ;
#702 = EDGE_CURVE ( 'NONE', #759, #314, #734, .T. ) ;
#703 = CARTESIAN_POINT ( 'NONE',  ( -4.624588320494479099, 7.546975781717673470, 0.000000000000000000 ) ) ;
#704 = CARTESIAN_POINT ( 'NONE',  ( -5.024588320494478566, -13.15250874066802744, 8.000000000000000000 ) ) ;
#705 = EDGE_CURVE ( 'NONE', #560, #809, #231, .T. ) ;
#706 = CARTESIAN_POINT ( 'NONE',  ( 4.375411679505521789, 9.350823359011043223, 0.000000000000000000 ) ) ;
#707 = CARTESIAN_POINT ( 'NONE',  ( 6.175411679505521612, -16.64917664098895855, 8.000000000000000000 ) ) ;
#708 = CARTESIAN_POINT ( 'NONE',  ( -4.624588320494479099, -6.845329063695587024, 8.000000000000000000 ) ) ;
#709 = ORIENTED_EDGE ( 'NONE', *, *, #816, .F. ) ;
#710 = EDGE_CURVE ( 'NONE', #51, #150, #325, .T. ) ;
#711 = CARTESIAN_POINT ( 'NONE',  ( 5.375411679505521789, -16.64917664098895855, 8.000000000000000000 ) ) ;
#712 = AXIS2_PLACEMENT_3D ( 'NONE', #94, #10, #677 ) ;
#713 = CARTESIAN_POINT ( 'NONE',  ( -4.624588320494479099, 14.54697578171766281, 0.000000000000000000 ) ) ;
#714 = CYLINDRICAL_SURFACE ( 'NONE', #678, 0.7999999999999986011 ) ;
#715 = EDGE_LOOP ( 'NONE', ( #990, #904, #553, #12, #654, #774, #538, #211, #916, #972, #44, #874, #431, #8, #627, #189, #110, #367, #232, #744, #957, #930, #237, #601, #474, #266 ) ) ;
#716 = SURFACE_SIDE_STYLE ('',( #151 ) ) ;
#717 = EDGE_CURVE ( 'NONE', #580, #603, #303, .T. ) ;
#718 = DIRECTION ( 'NONE',  ( 1.000000000000000000, 0.000000000000000000, 0.000000000000000000 ) ) ;
#719 = CARTESIAN_POINT ( 'NONE',  ( 4.375411679505521789, 9.350823359011043223, 8.000000000000000000 ) ) ;
#720 = ORIENTED_EDGE ( 'NONE', *, *, #926, .T. ) ;
#721 = DIRECTION ( 'NONE',  ( -0.000000000000000000, -1.000000000000000000, -0.000000000000000000 ) ) ;
#722 = FACE_OUTER_BOUND ( 'NONE', #715, .T. ) ;
#723 = CARTESIAN_POINT ( 'NONE',  ( 4.375411679505521789, -6.801655779582157280, 0.000000000000000000 ) ) ;
#724 = ORIENTED_EDGE ( 'NONE', *, *, #363, .F. ) ;
#725 = CARTESIAN_POINT ( 'NONE',  ( 4.375411679505521789, -8.649176640988956777, 0.000000000000000000 ) ) ;
#726 = AXIS2_PLACEMENT_3D ( 'NONE', #1076, #428, #1006 ) ;
#727 = ADVANCED_FACE ( 'NONE', ( #472 ), #714, .T. ) ;
#728 = CIRCLE ( 'NONE', #276, 0.7999999999999986011 ) ;
#729 = FACE_OUTER_BOUND ( 'NONE', #984, .T. ) ;
#730 = VECTOR ( 'NONE', #1030, 1000.000000000000000 ) ;
#731 = VERTEX_POINT ( 'NONE', #545 ) ;
#732 = CARTESIAN_POINT ( 'NONE',  ( 5.375411679505521789, -8.649176640988956777, 8.000000000000000000 ) ) ;
#733 = EDGE_CURVE ( 'NONE', #286, #965, #882, .T. ) ;
#734 = LINE ( 'NONE', #964, #622 ) ;
#735 = ORIENTED_EDGE ( 'NONE', *, *, #717, .F. ) ;
#736 = DIRECTION ( 'NONE',  ( 0.000000000000000000, -1.000000000000000000, 0.000000000000000000 ) ) ;
#737 = DIRECTION ( 'NONE',  ( 1.000000000000000000, 0.000000000000000000, 0.000000000000000000 ) ) ;
#738 = ORIENTED_EDGE ( 'NONE', *, *, #42, .F. ) ;
#739 = EDGE_CURVE ( 'NONE', #51, #877, #466, .T. ) ;
#740 = VECTOR ( 'NONE', #477, 1000.000000000000000 ) ;
#741 = LINE ( 'NONE', #168, #14 ) ;
#742 = VECTOR ( 'NONE', #487, 1000.000000000000000 ) ;
#743 = FACE_OUTER_BOUND ( 'NONE', #664, .T. ) ;
#744 = ORIENTED_EDGE ( 'NONE', *, *, #642, .T. ) ;
#745 = VECTOR ( 'NONE', #429, 1000.000000000000114 ) ;
#746 = DIRECTION ( 'NONE',  ( 0.000000000000000000, 0.000000000000000000, 1.000000000000000000 ) ) ;
#747 = DIRECTION ( 'NONE',  ( -0.000000000000000000, -0.000000000000000000, -1.000000000000000000 ) ) ;
#748 = ADVANCED_FACE ( 'NONE', ( #638 ), #385, .T. ) ;
#749 = ORIENTED_EDGE ( 'NONE', *, *, #518, .T. ) ;
#750 = DIRECTION ( 'NONE',  ( -0.4999999999999997780, -0.8660254037844388186, 0.000000000000000000 ) ) ;
#751 = VERTEX_POINT ( 'NONE', #808 ) ;
#752 = FACE_OUTER_BOUND ( 'NONE', #1009, .T. ) ;
#753 = DIRECTION ( 'NONE',  ( -1.000000000000000000, -0.000000000000000000, -0.000000000000000000 ) ) ;
#754 = EDGE_CURVE ( 'NONE', #1014, #286, #53, .T. ) ;
#755 = CARTESIAN_POINT ( 'NONE',  ( -5.824588320494476612, 6.854155458690122771, 8.000000000000000000 ) ) ;
#756 = ORIENTED_EDGE ( 'NONE', *, *, #636, .T. ) ;
#757 = DIRECTION ( 'NONE',  ( -0.000000000000000000, -0.000000000000000000, -1.000000000000000000 ) ) ;
#758 = CARTESIAN_POINT ( 'NONE',  ( 4.375411679505521789, -1.649176640988956777, 8.000000000000000000 ) ) ;
#759 = VERTEX_POINT ( 'NONE', #143 ) ;
#760 = DIRECTION ( 'NONE',  ( 0.000000000000000000, 0.000000000000000000, 1.000000000000000000 ) ) ;
#761 = VERTEX_POINT ( 'NONE', #478 ) ;
#762 = VECTOR ( 'NONE', #374, 1000.000000000000000 ) ;
#763 = DIRECTION ( 'NONE',  ( -0.000000000000000000, -0.000000000000000000, -1.000000000000000000 ) ) ;
#764 = LINE ( 'NONE', #174, #489 ) ;
#765 = VECTOR ( 'NONE', #987, 1000.000000000000000 ) ;
#766 = CARTESIAN_POINT ( 'NONE',  ( 4.375411679505521789, 2.350823359011043223, 8.000000000000000000 ) ) ;
#767 = AXIS2_PLACEMENT_3D ( 'NONE', #504, #849, #88 ) ;
#768 = VERTEX_POINT ( 'NONE', #812 ) ;
#769 = CARTESIAN_POINT ( 'NONE',  ( 6.175411679505521612, 17.35082335901104500, 8.000000000000000000 ) ) ;
#770 = ORIENTED_EDGE ( 'NONE', *, *, #634, .T. ) ;
#771 = DIRECTION ( 'NONE',  ( 1.000000000000000000, 0.000000000000000000, 0.000000000000000000 ) ) ;
#772 = ORIENTED_EDGE ( 'NONE', *, *, #72, .T. ) ;
#773 = ORIENTED_EDGE ( 'NONE', *, *, #262, .F. ) ;
#774 = ORIENTED_EDGE ( 'NONE', *, *, #599, .T. ) ;
#775 = CARTESIAN_POINT ( 'NONE',  ( -5.424588320494477145, 6.161335135662573848, 0.000000000000000000 ) ) ;
#776 = CARTESIAN_POINT ( 'NONE',  ( 5.375411679505521789, -8.649176640988956777, 8.000000000000000000 ) ) ;
#777 = ORIENTED_EDGE ( 'NONE', *, *, #102, .F. ) ;
#778 = DIRECTION ( 'NONE',  ( 1.000000000000000000, 0.000000000000000000, 0.000000000000000000 ) ) ;
#779 = EDGE_CURVE ( 'NONE', #314, #268, #728, .T. ) ;
#780 = ORIENTED_EDGE ( 'NONE', *, *, #447, .T. ) ;
#781 = LINE ( 'NONE', #692, #413 ) ;
#782 = FACE_OUTER_BOUND ( 'NONE', #468, .T. ) ;
#783 = VECTOR ( 'NONE', #435, 1000.000000000000000 ) ;
#784 = DIRECTION ( 'NONE',  ( -1.000000000000000000, -0.000000000000000000, -0.000000000000000000 ) ) ;
#785 = EDGE_CURVE ( 'NONE', #171, #580, #643, .T. ) ;
#786 = PRESENTATION_LAYER_ASSIGNMENT (  '', '', ( #1029 ) ) ;
#787 = EDGE_LOOP ( 'NONE', ( #391, #503, #709, #323 ) ) ;
#788 = DIRECTION ( 'NONE',  ( 1.000000000000000000, 0.000000000000000000, 0.000000000000000000 ) ) ;
#789 = DIRECTION ( 'NONE',  ( 0.8660254037844391517, 0.4999999999999991118, -0.000000000000000000 ) ) ;
#790 = ORIENTED_EDGE ( 'NONE', *, *, #1023, .F. ) ;
#791 = FACE_OUTER_BOUND ( 'NONE', #136, .T. ) ;
#792 = EDGE_CURVE ( 'NONE', #751, #923, #892, .T. ) ;
#793 = DIRECTION ( 'NONE',  ( 1.000000000000000000, 0.000000000000000000, 0.000000000000000000 ) ) ;
#794 = CYLINDRICAL_SURFACE ( 'NONE', #274, 0.7999999999999986011 ) ;
#795 = DIRECTION ( 'NONE',  ( -1.000000000000000000, 0.000000000000000000, 0.000000000000000000 ) ) ;
#796 = LINE ( 'NONE', #1047, #907 ) ;
#797 = CIRCLE ( 'NONE', #885, 0.7999999999999986011 ) ;
#798 = CARTESIAN_POINT ( 'NONE',  ( -4.624588320494479099, -13.84532906369557637, 0.000000000000000000 ) ) ;
#799 = EDGE_CURVE ( 'NONE', #171, #530, #328, .T. ) ;
#800 = CARTESIAN_POINT ( 'NONE',  ( 14.87541167950552179, -12.64917664098895855, 2.399999999999998579 ) ) ;
#801 = EDGE_LOOP ( 'NONE', ( #1019, #318, #691, #772 ) ) ;
#802 = VECTOR ( 'NONE', #308, 1000.000000000000000 ) ;
#803 = ORIENTED_EDGE ( 'NONE', *, *, #872, .T. ) ;
#804 = VECTOR ( 'NONE', #91, 1000.000000000000000 ) ;
#805 = AXIS2_PLACEMENT_3D ( 'NONE', #297, #628, #778 ) ;
#806 = SHAPE_DEFINITION_REPRESENTATION ( #404, #292 ) ;
#807 = DIRECTION ( 'NONE',  ( 0.000000000000000000, 0.000000000000000000, 1.000000000000000000 ) ) ;
#808 = CARTESIAN_POINT ( 'NONE',  ( -5.424588320494477145, -5.459688417640487401, 0.000000000000000000 ) ) ;
#809 = VERTEX_POINT ( 'NONE', #912 ) ;
#810 = DIRECTION ( 'NONE',  ( 0.8660254037844390407, -0.4999999999999991118, 0.000000000000000000 ) ) ;
#811 = DIRECTION ( 'NONE',  ( -0.000000000000000000, -0.000000000000000000, -1.000000000000000000 ) ) ;
#812 = CARTESIAN_POINT ( 'NONE',  ( 5.375411679505521789, -16.64917664098895855, 0.000000000000000000 ) ) ;
#813 = ORIENTED_EDGE ( 'NONE', *, *, #432, .T. ) ;
#814 = CARTESIAN_POINT ( 'NONE',  ( 14.87541167950552179, -12.64917664098895855, 4.000000000000000000 ) ) ;
#815 = ADVANCED_FACE ( 'NONE', ( #579 ), #252, .F. ) ;
#816 = EDGE_CURVE ( 'NONE', #427, #525, #165, .T. ) ;
#817 = DIRECTION ( 'NONE',  ( 0.4999999999999991673, -0.8660254037844391517, 0.000000000000000000 ) ) ;
#818 = ORIENTED_EDGE ( 'NONE', *, *, #1067, .F. ) ;
#819 = AXIS2_PLACEMENT_3D ( 'NONE', #405, #631, #215 ) ;
#820 = EDGE_CURVE ( 'NONE', #761, #157, #172, .T. ) ;
#821 = AXIS2_PLACEMENT_3D ( 'NONE', #254, #997, #682 ) ;
#822 = CARTESIAN_POINT ( 'NONE',  ( -5.024588320494478566, -6.152508740668036324, 8.000000000000000000 ) ) ;
#823 = EDGE_LOOP ( 'NONE', ( #650, #564, #160, #457 ) ) ;
#824 = CARTESIAN_POINT ( 'NONE',  ( 4.375411679505521789, -6.801655779582157280, 0.000000000000000000 ) ) ;
#825 = EDGE_CURVE ( 'NONE', #970, #965, #1069, .T. ) ;
#826 = CARTESIAN_POINT ( 'NONE',  ( 4.375411679505521789, 2.350823359011043223, 0.000000000000000000 ) ) ;
#827 = EDGE_LOOP ( 'NONE', ( #1025, #4, #509, #986 ) ) ;
#828 = DIRECTION ( 'NONE',  ( -0.000000000000000000, -0.000000000000000000, -1.000000000000000000 ) ) ;
#829 = DIRECTION ( 'NONE',  ( 0.000000000000000000, 0.000000000000000000, 1.000000000000000000 ) ) ;
#830 = VERTEX_POINT ( 'NONE', #929 ) ;
#831 = PRODUCT ( 'damper-1', 'damper-1', '', ( #1039 ) ) ;
#832 = EDGE_CURVE ( 'NONE', #333, #244, #317, .T. ) ;
#833 = DIRECTION ( 'NONE',  ( 0.000000000000000000, 0.000000000000000000, 1.000000000000000000 ) ) ;
#834 = CARTESIAN_POINT ( 'NONE',  ( -5.024588320494478566, 13.85415545869011389, 8.000000000000000000 ) ) ;
#835 = DIRECTION ( 'NONE',  ( -0.000000000000000000, -0.000000000000000000, -1.000000000000000000 ) ) ;
#836 = ORIENTED_EDGE ( 'NONE', *, *, #312, .F. ) ;
#837 = AXIS2_PLACEMENT_3D ( 'NONE', #375, #784, #359 ) ;
#838 = LINE ( 'NONE', #572, #961 ) ;
#839 = ORIENTED_EDGE ( 'NONE', *, *, #702, .F. ) ;
#840 = CARTESIAN_POINT ( 'NONE',  ( 4.375411679505521789, -1.649176640988956777, 8.000000000000000000 ) ) ;
#841 = VERTEX_POINT ( 'NONE', #159 ) ;
#842 = FACE_OUTER_BOUND ( 'NONE', #277, .T. ) ;
#843 = LINE ( 'NONE', #18, #624 ) ;
#844 = ORIENTED_EDGE ( 'NONE', *, *, #652, .F. ) ;
#845 = DIRECTION ( 'NONE',  ( 0.5000000000000002220, 0.8660254037844385966, -0.000000000000000000 ) ) ;
#846 = ORIENTED_EDGE ( 'NONE', *, *, #281, .T. ) ;
#847 =( LENGTH_UNIT ( ) NAMED_UNIT ( * ) SI_UNIT ( .MILLI., .METRE. ) );
#848 = UNCERTAINTY_MEASURE_WITH_UNIT (LENGTH_MEASURE( 1.000000000000000082E-05 ), #847, 'distance_accuracy_value', 'NONE');
#849 = DIRECTION ( 'NONE',  ( -1.000000000000000000, 0.000000000000000000, 0.000000000000000000 ) ) ;
#850 = LINE ( 'NONE', #256, #119 ) ;
#851 = ORIENTED_EDGE ( 'NONE', *, *, #1018, .F. ) ;
#852 = VERTEX_POINT ( 'NONE', #755 ) ;
#853 = VECTOR ( 'NONE', #197, 1000.000000000000000 ) ;
#854 = LINE ( 'NONE', #541, #1061 ) ;
#855 = DIRECTION ( 'NONE',  ( 0.8660254037844385966, -0.5000000000000002220, -0.000000000000000000 ) ) ;
#856 = EDGE_CURVE ( 'NONE', #507, #858, #995, .T. ) ;
#857 = VERTEX_POINT ( 'NONE', #826 ) ;
#858 = VERTEX_POINT ( 'NONE', #917 ) ;
#859 = ADVANCED_FACE ( 'NONE', ( #1008 ), #337, .F. ) ;
#860 = CARTESIAN_POINT ( 'NONE',  ( 4.375411679505521789, 9.350823359011043223, 8.000000000000000000 ) ) ;
#861 = FACE_BOUND ( 'NONE', #260, .T. ) ;
#862 = ORIENTED_EDGE ( 'NONE', *, *, #548, .T. ) ;
#863 = LINE ( 'NONE', #931, #688 ) ;
#864 = DIRECTION ( 'NONE',  ( 1.000000000000000000, 0.000000000000000000, 0.000000000000000000 ) ) ;
#865 = FACE_BOUND ( 'NONE', #48, .T. ) ;
#866 = ADVANCED_FACE ( 'NONE', ( #743 ), #422, .F. ) ;
#867 = ORIENTED_EDGE ( 'NONE', *, *, #785, .F. ) ;
#868 = CARTESIAN_POINT ( 'NONE',  ( -5.024588320494478566, 6.854155458690122771, 0.000000000000000000 ) ) ;
#869 = CARTESIAN_POINT ( 'NONE',  ( 4.375411679505521789, 2.350823359011043223, 0.000000000000000000 ) ) ;
#870 = VECTOR ( 'NONE', #556, 1000.000000000000000 ) ;
#871 = PLANE ( 'NONE',  #240 ) ;
#872 = EDGE_CURVE ( 'NONE', #148, #157, #657, .T. ) ;
#873 =( GEOMETRIC_REPRESENTATION_CONTEXT ( 3 ) GLOBAL_UNCERTAINTY_ASSIGNED_CONTEXT ( ( #613 ) ) GLOBAL_UNIT_ASSIGNED_CONTEXT ( ( #311, #388, #1051 ) ) REPRESENTATION_CONTEXT ( 'NONE', 'WORKASPACE' ) );
#874 = ORIENTED_EDGE ( 'NONE', *, *, #511, .T. ) ;
#875 = DIRECTION ( 'NONE',  ( 0.000000000000000000, 0.000000000000000000, 1.000000000000000000 ) ) ;
#876 = CARTESIAN_POINT ( 'NONE',  ( 5.375411679505521789, 13.35082335901104500, 4.000000000000000000 ) ) ;
#877 = VERTEX_POINT ( 'NONE', #497 ) ;
#878 = FACE_OUTER_BOUND ( 'NONE', #494, .T. ) ;
#879 = VERTEX_POINT ( 'NONE', #246 ) ;
#880 = CARTESIAN_POINT ( 'NONE',  ( 0.000000000000000000, 0.000000000000000000, 0.000000000000000000 ) ) ;
#881 = DIRECTION ( 'NONE',  ( -1.000000000000000000, 0.000000000000000000, 0.000000000000000000 ) ) ;
#882 = LINE ( 'NONE', #129, #583 ) ;
#883 = ORIENTED_EDGE ( 'NONE', *, *, #511, .F. ) ;
#884 = DIRECTION ( 'NONE',  ( 0.000000000000000000, 0.000000000000000000, 1.000000000000000000 ) ) ;
#885 = AXIS2_PLACEMENT_3D ( 'NONE', #644, #875, #793 ) ;
#886 = CARTESIAN_POINT ( 'NONE',  ( -5.024588320494478566, 13.85415545869011389, 8.000000000000000000 ) ) ;
#887 = DIRECTION ( 'NONE',  ( 1.000000000000000000, -0.000000000000000000, -0.000000000000000000 ) ) ;
#888 = EDGE_LOOP ( 'NONE', ( #803, #222, #1066, #568 ) ) ;
#889 = FACE_OUTER_BOUND ( 'NONE', #144, .T. ) ;
#890 = AXIS2_PLACEMENT_3D ( 'NONE', #40, #25, #520 ) ;
#891 = ORIENTED_EDGE ( 'NONE', *, *, #6, .T. ) ;
#892 = CIRCLE ( 'NONE', #993, 0.7999999999999986011 ) ;
#893 = VECTOR ( 'NONE', #49, 1000.000000000000000 ) ;
#894 = DIRECTION ( 'NONE',  ( 0.000000000000000000, 0.000000000000000000, 1.000000000000000000 ) ) ;
#895 = DIRECTION ( 'NONE',  ( 0.8660254037844391517, 0.4999999999999991118, -0.000000000000000000 ) ) ;
#896 = EDGE_LOOP ( 'NONE', ( #348, #105, #1026, #862 ) ) ;
#897 = CARTESIAN_POINT ( 'NONE',  ( 5.375411679505521789, 9.350823359011043223, 0.000000000000000000 ) ) ;
#898 = FACE_OUTER_BOUND ( 'NONE', #394, .T. ) ;
#899 = ORIENTED_EDGE ( 'NONE', *, *, #496, .F. ) ;
#900 = DIRECTION ( 'NONE',  ( -0.000000000000000000, -1.000000000000000000, -0.000000000000000000 ) ) ;
#901 = ADVANCED_FACE ( 'NONE', ( #176 ), #332, .F. ) ;
#902 = VECTOR ( 'NONE', #455, 1000.000000000000000 ) ;
#903 = DIRECTION ( 'NONE',  ( -1.000000000000000000, 0.000000000000000000, 0.000000000000000000 ) ) ;
#904 = ORIENTED_EDGE ( 'NONE', *, *, #459, .T. ) ;
#905 = DIRECTION ( 'NONE',  ( 1.000000000000000000, 0.000000000000000000, -0.000000000000000000 ) ) ;
#906 = EDGE_CURVE ( 'NONE', #580, #177, #1028, .T. ) ;
#907 = VECTOR ( 'NONE', #855, 999.9999999999998863 ) ;
#908 = DIRECTION ( 'NONE',  ( 1.000000000000000000, 0.000000000000000000, 0.000000000000000000 ) ) ;
#909 = EDGE_LOOP ( 'NONE', ( #1005, #467, #194, #846 ) ) ;
#910 = DIRECTION ( 'NONE',  ( 0.000000000000000000, -0.000000000000000000, -1.000000000000000000 ) ) ;
#911 = ADVANCED_FACE ( 'NONE', ( #236, #567, #493 ), #322, .F. ) ;
#912 = CARTESIAN_POINT ( 'NONE',  ( -4.624588320494479099, 14.54697578171766281, 8.000000000000000000 ) ) ;
#913 = VERTEX_POINT ( 'NONE', #34 ) ;
#914 = CYLINDRICAL_SURFACE ( 'NONE', #137, 1.600000000000001643 ) ;
#915 = CARTESIAN_POINT ( 'NONE',  ( 6.175411679505521612, 13.35082335901104500, 2.399999999999998135 ) ) ;
#916 = ORIENTED_EDGE ( 'NONE', *, *, #38, .T. ) ;
#917 = CARTESIAN_POINT ( 'NONE',  ( 5.375411679505521789, 9.350823359011043223, 8.000000000000000000 ) ) ;
#918 = VERTEX_POINT ( 'NONE', #713 ) ;
#919 =( GEOMETRIC_REPRESENTATION_CONTEXT ( 3 ) GLOBAL_UNCERTAINTY_ASSIGNED_CONTEXT ( ( #848 ) ) GLOBAL_UNIT_ASSIGNED_CONTEXT ( ( #847, #1016, #93 ) ) REPRESENTATION_CONTEXT ( 'NONE', 'WORKASPACE' ) );
#920 = DIRECTION ( 'NONE',  ( 1.000000000000000000, 0.000000000000000000, 0.000000000000000000 ) ) ;
#921 = LINE ( 'NONE', #263, #437 ) ;
#922 = DIRECTION ( 'NONE',  ( 0.8660254037844387076, -0.4999999999999997224, 0.000000000000000000 ) ) ;
#923 = VERTEX_POINT ( 'NONE', #214 ) ;
#924 = VECTOR ( 'NONE', #184, 1000.000000000000000 ) ;
#925 = CARTESIAN_POINT ( 'NONE',  ( 6.175411679505521612, -16.64917664098895855, 8.000000000000000000 ) ) ;
#926 = EDGE_CURVE ( 'NONE', #830, #63, #52, .T. ) ;
#927 = DIRECTION ( 'NONE',  ( -0.000000000000000000, -0.000000000000000000, -1.000000000000000000 ) ) ;
#928 = ORIENTED_EDGE ( 'NONE', *, *, #792, .F. ) ;
#929 = CARTESIAN_POINT ( 'NONE',  ( 4.375411679505521789, 0.5033024976042397292, 0.000000000000000000 ) ) ;
#930 = ORIENTED_EDGE ( 'NONE', *, *, #906, .T. ) ;
#931 = CARTESIAN_POINT ( 'NONE',  ( -5.424588320494477145, 13.16133513566256319, 8.000000000000000000 ) ) ;
#932 = CARTESIAN_POINT ( 'NONE',  ( 5.375411679505521789, 13.35082335901104500, 5.600000000000001421 ) ) ;
#933 = CARTESIAN_POINT ( 'NONE',  ( 5.375411679505521789, -12.64917664098895855, 5.600000000000001421 ) ) ;
#934 = EDGE_CURVE ( 'NONE', #530, #603, #1044, .T. ) ;
#935 = ORIENTED_EDGE ( 'NONE', *, *, #397, .T. ) ;
#936 = EDGE_LOOP ( 'NONE', ( #839, #41, #593, #1035 ) ) ;
#937 = CARTESIAN_POINT ( 'NONE',  ( -5.824588320494476612, -6.152508740668036324, 8.000000000000000000 ) ) ;
#938 = EDGE_LOOP ( 'NONE', ( #443, #229, #253, #406 ) ) ;
#939 = CIRCLE ( 'NONE', #890, 1.600000000000001643 ) ;
#940 = CARTESIAN_POINT ( 'NONE',  ( 4.375411679505521789, -6.801655779582157280, 8.000000000000000000 ) ) ;
#941 = AXIS2_PLACEMENT_3D ( 'NONE', #663, #845, #502 ) ;
#942 = ORIENTED_EDGE ( 'NONE', *, *, #492, .F. ) ;
#943 = VECTOR ( 'NONE', #927, 1000.000000000000000 ) ;
#944 = DIRECTION ( 'NONE',  ( -0.000000000000000000, -0.000000000000000000, -1.000000000000000000 ) ) ;
#945 = EDGE_CURVE ( 'NONE', #521, #333, #116, .T. ) ;
#946 = EDGE_LOOP ( 'NONE', ( #571, #488 ) ) ;
#947 = EDGE_CURVE ( 'NONE', #1015, #1059, #655, .T. ) ;
#948 = CARTESIAN_POINT ( 'NONE',  ( -5.824588320494476612, 6.854155458690122771, 8.000000000000000000 ) ) ;
#949 = FACE_OUTER_BOUND ( 'NONE', #690, .T. ) ;
#950 = ADVANCED_FACE ( 'NONE', ( #722 ), #540, .T. ) ;
#951 = DIRECTION ( 'NONE',  ( -0.000000000000000000, -0.000000000000000000, -1.000000000000000000 ) ) ;
#952 = LINE ( 'NONE', #605, #30 ) ;
#953 = VECTOR ( 'NONE', #811, 1000.000000000000000 ) ;
#954 = EDGE_LOOP ( 'NONE', ( #790, #1000, #935, #724 ) ) ;
#955 = LINE ( 'NONE', #204, #321 ) ;
#956 = CARTESIAN_POINT ( 'NONE',  ( 6.175411679505521612, 17.35082335901104500, 8.000000000000000000 ) ) ;
#957 = ORIENTED_EDGE ( 'NONE', *, *, #785, .T. ) ;
#958 = AXIS2_PLACEMENT_3D ( 'NONE', #96, #433, #989 ) ;
#959 = DIRECTION ( 'NONE',  ( -0.8660254037844387076, -0.4999999999999997224, 0.000000000000000000 ) ) ;
#960 = EDGE_CURVE ( 'NONE', #63, #751, #291, .T. ) ;
#961 = VECTOR ( 'NONE', #5, 1000.000000000000000 ) ;
#962 = AXIS2_PLACEMENT_3D ( 'NONE', #80, #516, #179 ) ;
#963 = CARTESIAN_POINT ( 'NONE',  ( 6.175411679505521612, -16.64917664098895855, 0.000000000000000000 ) ) ;
#964 = CARTESIAN_POINT ( 'NONE',  ( -5.824588320494476612, 13.85415545869011389, 8.000000000000000000 ) ) ;
#965 = VERTEX_POINT ( 'NONE', #1048 ) ;
#966 = CARTESIAN_POINT ( 'NONE',  ( -5.424588320494477145, 6.161335135662573848, 8.000000000000000000 ) ) ;
#967 = DIRECTION ( 'NONE',  ( 1.000000000000000000, 0.000000000000000000, 0.000000000000000000 ) ) ;
#968 = CARTESIAN_POINT ( 'NONE',  ( -4.624588320494479099, -13.84532906369557637, 8.000000000000000000 ) ) ;
#969 = LINE ( 'NONE', #719, #1007 ) ;
#970 = VERTEX_POINT ( 'NONE', #549 ) ;
#971 = LINE ( 'NONE', #217, #539 ) ;
#972 = ORIENTED_EDGE ( 'NONE', *, *, #45, .T. ) ;
#973 = EDGE_CURVE ( 'NONE', #216, #427, #1057, .T. ) ;
#974 = VECTOR ( 'NONE', #982, 1000.000000000000114 ) ;
#975 = ADVANCED_FACE ( 'NONE', ( #302 ), #625, .T. ) ;
#976 = DIRECTION ( 'NONE',  ( -0.000000000000000000, -0.000000000000000000, -1.000000000000000000 ) ) ;
#977 = CARTESIAN_POINT ( 'NONE',  ( -5.024588320494478566, 6.854155458690122771, 8.000000000000000000 ) ) ;
#978 = EDGE_LOOP ( 'NONE', ( #557, #738, #19, #33 ) ) ;
#979 = CARTESIAN_POINT ( 'NONE',  ( 6.175411679505521612, -12.64917664098895855, 4.000000000000000000 ) ) ;
#980 = VECTOR ( 'NONE', #495, 1000.000000000000000 ) ;
#981 = VECTOR ( 'NONE', #233, 1000.000000000000000 ) ;
#982 = DIRECTION ( 'NONE',  ( -0.8660254037844387076, 0.4999999999999997780, -0.000000000000000000 ) ) ;
#983 = FACE_OUTER_BOUND ( 'NONE', #909, .T. ) ;
#984 = EDGE_LOOP ( 'NONE', ( #329, #684, #576, #1054 ) ) ;
#985 = DIRECTION ( 'NONE',  ( -0.000000000000000000, -0.000000000000000000, -1.000000000000000000 ) ) ;
#986 = ORIENTED_EDGE ( 'NONE', *, *, #825, .T. ) ;
#987 = DIRECTION ( 'NONE',  ( -0.000000000000000000, -0.000000000000000000, -1.000000000000000000 ) ) ;
#988 = EDGE_CURVE ( 'NONE', #768, #521, #1040, .T. ) ;
#989 = DIRECTION ( 'NONE',  ( 1.000000000000000000, 0.000000000000000000, 0.000000000000000000 ) ) ;
#990 = ORIENTED_EDGE ( 'NONE', *, *, #816, .T. ) ;
#991 = DIRECTION ( 'NONE',  ( 1.000000000000000000, 0.000000000000000000, 0.000000000000000000 ) ) ;
#992 = EDGE_CURVE ( 'NONE', #918, #314, #797, .T. ) ;
#993 = AXIS2_PLACEMENT_3D ( 'NONE', #86, #760, #908 ) ;
#994 = AXIS2_PLACEMENT_3D ( 'NONE', #569, #306, #905 ) ;
#995 = LINE ( 'NONE', #7, #257 ) ;
#996 = ORIENTED_EDGE ( 'NONE', *, *, #733, .T. ) ;
#997 = DIRECTION ( 'NONE',  ( 0.000000000000000000, 0.000000000000000000, 1.000000000000000000 ) ) ;
#998 = DIRECTION ( 'NONE',  ( -0.000000000000000000, -1.000000000000000000, -0.000000000000000000 ) ) ;
#999 = DIRECTION ( 'NONE',  ( -1.000000000000000000, -0.000000000000000000, -0.000000000000000000 ) ) ;
#1000 = ORIENTED_EDGE ( 'NONE', *, *, #61, .T. ) ;
#1001 = CARTESIAN_POINT ( 'NONE',  ( -5.424588320494477145, -5.459688417640487401, 8.000000000000000000 ) ) ;
#1002 = CARTESIAN_POINT ( 'NONE',  ( 4.375411679505521789, -6.801655779582157280, 8.000000000000000000 ) ) ;
#1003 = ORIENTED_EDGE ( 'NONE', *, *, #245, .T. ) ;
#1004 = DIRECTION ( 'NONE',  ( 0.000000000000000000, 0.000000000000000000, 1.000000000000000000 ) ) ;
#1005 = ORIENTED_EDGE ( 'NONE', *, *, #518, .F. ) ;
#1006 = DIRECTION ( 'NONE',  ( -0.8660254037844390407, 0.4999999999999991118, 0.000000000000000000 ) ) ;
#1007 = VECTOR ( 'NONE', #1065, 1000.000000000000000 ) ;
#1008 = FACE_OUTER_BOUND ( 'NONE', #265, .T. ) ;
#1009 = EDGE_LOOP ( 'NONE', ( #683, #386, #2, #54 ) ) ;
#1010 = EDGE_CURVE ( 'NONE', #857, #36, #227, .T. ) ;
#1011 = AXIS2_PLACEMENT_3D ( 'NONE', #1034, #43, #196 ) ;
#1012 = PLANE ( 'NONE',  #726 ) ;
#1013 = CARTESIAN_POINT ( 'NONE',  ( 4.375411679505521789, -6.801655779582157280, 8.000000000000000000 ) ) ;
#1014 = VERTEX_POINT ( 'NONE', #798 ) ;
#1015 = VERTEX_POINT ( 'NONE', #1036 ) ;
#1016 =( NAMED_UNIT ( * ) PLANE_ANGLE_UNIT ( ) SI_UNIT ( $, .RADIAN. ) );
#1017 = CARTESIAN_POINT ( 'NONE',  ( -5.024588320494478566, -6.152508740668036324, 8.000000000000000000 ) ) ;
#1018 = EDGE_CURVE ( 'NONE', #698, #530, #128, .T. ) ;
#1019 = ORIENTED_EDGE ( 'NONE', *, *, #32, .T. ) ;
#1020 = DIRECTION ( 'NONE',  ( 1.000000000000000000, 0.000000000000000000, 0.000000000000000000 ) ) ;
#1021 = VECTOR ( 'NONE', #298, 1000.000000000000000 ) ;
#1022 = DIRECTION ( 'NONE',  ( 1.000000000000000000, 0.000000000000000000, 0.000000000000000000 ) ) ;
#1023 = EDGE_CURVE ( 'NONE', #13, #594, #449, .T. ) ;
#1024 = EDGE_CURVE ( 'NONE', #913, #87, #554, .T. ) ;
#1025 = ORIENTED_EDGE ( 'NONE', *, *, #496, .T. ) ;
#1026 = ORIENTED_EDGE ( 'NONE', *, *, #459, .F. ) ;
#1027 = DIRECTION ( 'NONE',  ( 0.000000000000000000, 1.000000000000000000, -0.000000000000000000 ) ) ;
#1028 = CIRCLE ( 'NONE', #958, 0.7999999999999986011 ) ;
#1029 = STYLED_ITEM ( 'NONE', ( #407 ), #316 ) ;
#1030 = DIRECTION ( 'NONE',  ( -0.000000000000000000, -0.000000000000000000, -1.000000000000000000 ) ) ;
#1031 = EDGE_CURVE ( 'NONE', #177, #1014, #630, .T. ) ;
#1032 = ORIENTED_EDGE ( 'NONE', *, *, #198, .T. ) ;
#1033 = DIRECTION ( 'NONE',  ( -1.000000000000000000, 0.000000000000000000, 0.000000000000000000 ) ) ;
#1034 = CARTESIAN_POINT ( 'NONE',  ( 5.375411679505521789, 9.350823359011043223, 8.000000000000000000 ) ) ;
#1035 = ORIENTED_EDGE ( 'NONE', *, *, #992, .T. ) ;
#1036 = CARTESIAN_POINT ( 'NONE',  ( -5.824588320494476612, 6.854155458690122771, 0.000000000000000000 ) ) ;
#1037 = LINE ( 'NONE', #534, #239 ) ;
#1038 = LINE ( 'NONE', #706, #660 ) ;
#1039 = PRODUCT_CONTEXT ( 'NONE', #629, 'mechanical' ) ;
#1040 = LINE ( 'NONE', #963, #305 ) ;
#1041 = CARTESIAN_POINT ( 'NONE',  ( -4.624588320494479099, -6.845329063695587024, 8.000000000000000000 ) ) ;
#1042 = ORIENTED_EDGE ( 'NONE', *, *, #234, .T. ) ;
#1043 = EDGE_CURVE ( 'NONE', #150, #107, #955, .T. ) ;
#1044 = CIRCLE ( 'NONE', #600, 0.7999999999999986011 ) ;
#1045 = CARTESIAN_POINT ( 'NONE',  ( 4.375411679505521789, -1.649176640988956777, 0.000000000000000000 ) ) ;
#1046 = VECTOR ( 'NONE', #343, 1000.000000000000000 ) ;
#1047 = CARTESIAN_POINT ( 'NONE',  ( 4.375411679505521789, 0.5033024976042397292, 0.000000000000000000 ) ) ;
#1048 = CARTESIAN_POINT ( 'NONE',  ( 5.375411679505521789, -8.649176640988956777, 0.000000000000000000 ) ) ;
#1049 = DIRECTION ( 'NONE',  ( -0.000000000000000000, -0.000000000000000000, -1.000000000000000000 ) ) ;
#1050 = ORIENTED_EDGE ( 'NONE', *, *, #230, .F. ) ;
#1051 =( NAMED_UNIT ( * ) SI_UNIT ( $, .STERADIAN. ) SOLID_ANGLE_UNIT ( ) );
#1052 = ADVANCED_FACE ( 'NONE', ( #15 ), #676, .F. ) ;
#1053 = CARTESIAN_POINT ( 'NONE',  ( -5.424588320494477145, -12.45968841764047674, 8.000000000000000000 ) ) ;
#1054 = ORIENTED_EDGE ( 'NONE', *, *, #56, .T. ) ;
#1055 = CARTESIAN_POINT ( 'NONE',  ( 4.375411679505521789, 7.503302497604243726, 0.000000000000000000 ) ) ;
#1056 = EDGE_CURVE ( 'NONE', #479, #63, #781, .T. ) ;
#1057 = LINE ( 'NONE', #465, #902 ) ;
#1058 = DIRECTION ( 'NONE',  ( 0.000000000000000000, 0.000000000000000000, 1.000000000000000000 ) ) ;
#1059 = VERTEX_POINT ( 'NONE', #775 ) ;
#1060 = SURFACE_STYLE_USAGE ( .BOTH. , #716 ) ;
#1061 = VECTOR ( 'NONE', #104, 999.9999999999998863 ) ;
#1062 = EDGE_CURVE ( 'NONE', #913, #268, #863, .T. ) ;
#1063 = DIRECTION ( 'NONE',  ( -0.4999999999999991673, 0.8660254037844391517, 0.000000000000000000 ) ) ;
#1064 = ORIENTED_EDGE ( 'NONE', *, *, #960, .T. ) ;
#1065 = DIRECTION ( 'NONE',  ( -0.000000000000000000, -0.000000000000000000, -1.000000000000000000 ) ) ;
#1066 = ORIENTED_EDGE ( 'NONE', *, *, #90, .F. ) ;
#1067 = EDGE_CURVE ( 'NONE', #346, #609, #77, .T. ) ;
#1068 = DIRECTION ( 'NONE',  ( 0.000000000000000000, 0.000000000000000000, 1.000000000000000000 ) ) ;
#1069 = LINE ( 'NONE', #426, #344 ) ;
#1070 = ORIENTED_EDGE ( 'NONE', *, *, #186, .F. ) ;
#1071 = LINE ( 'NONE', #351, #170 ) ;
#1072 = FACE_OUTER_BOUND ( 'NONE', #936, .T. ) ;
#1073 = AXIS2_PLACEMENT_3D ( 'NONE', #562, #396, #991 ) ;
#1074 = CARTESIAN_POINT ( 'NONE',  ( 5.375411679505521789, 17.35082335901104500, 0.000000000000000000 ) ) ;
#1075 = ORIENTED_EDGE ( 'NONE', *, *, #792, .T. ) ;
#1076 = CARTESIAN_POINT ( 'NONE',  ( 4.375411679505521789, 7.503302497604243726, 8.000000000000000000 ) ) ;
#1077 = DIRECTION ( 'NONE',  ( -1.000000000000000000, 0.000000000000000000, 0.000000000000000000 ) ) ;
ENDSEC;
END-ISO-10303-21;
