ISO-10303-21;
HEADER;
FILE_DESCRIPTION (( 'STEP AP214' ),
    '1' );
FILE_NAME ('motor-magnet-holder.STEP',
    '2026-04-10T23:10:23',
    ( '' ),
    ( '' ),
    'SwSTEP 2.0',
    'SolidWorks 2026',
    '' );
FILE_SCHEMA (( 'AUTOMOTIVE_DESIGN' ));
ENDSEC;

DATA;
#1 = DIRECTION ( 'NONE',  ( 0.000000000000000000, 0.000000000000000000, -1.000000000000000000 ) ) ;
#2 = VECTOR ( 'NONE', #23, 1000.000000000000114 ) ;
#3 = ADVANCED_FACE ( 'NONE', ( #280 ), #124, .F. ) ;
#4 = EDGE_CURVE ( 'NONE', #195, #295, #190, .T. ) ;
#5 = CLOSED_SHELL ( 'NONE', ( #88, #39, #142, #214, #326, #307, #198, #59, #149, #3, #81 ) ) ;
#6 = AXIS2_PLACEMENT_3D ( 'NONE', #193, #36, #187 ) ;
#7 = ORIENTED_EDGE ( 'NONE', *, *, #98, .T. ) ;
#8 = CARTESIAN_POINT ( 'NONE',  ( 12.00000000000000000, 0.000000000000000000, 3.200000000000000178 ) ) ;
#9 = ORIENTED_EDGE ( 'NONE', *, *, #205, .F. ) ;
#10 = DIRECTION ( 'NONE',  ( -1.000000000000000000, -0.000000000000000000, -0.000000000000000000 ) ) ;
#11 = EDGE_CURVE ( 'NONE', #295, #195, #90, .T. ) ;
#12 = DIRECTION ( 'NONE',  ( -1.000000000000000000, -0.000000000000000000, -0.000000000000000000 ) ) ;
#13 = CARTESIAN_POINT ( 'NONE',  ( 0.000000000000000000, 0.000000000000000000, 0.000000000000000000 ) ) ;
#14 = VECTOR ( 'NONE', #96, 1000.000000000000000 ) ;
#15 = CARTESIAN_POINT ( 'NONE',  ( 13.00000000000000178, 0.000000000000000000, 0.000000000000000000 ) ) ;
#16 = DIRECTION ( 'NONE',  ( -1.000000000000000000, -0.000000000000000000, -0.000000000000000000 ) ) ;
#17 = LINE ( 'NONE', #176, #128 ) ;
#18 = ORIENTED_EDGE ( 'NONE', *, *, #131, .T. ) ;
#19 = SURFACE_STYLE_USAGE ( .BOTH. , #64 ) ;
#20 = EDGE_CURVE ( 'NONE', #195, #321, #203, .T. ) ;
#21 = FACE_OUTER_BOUND ( 'NONE', #60, .T. ) ;
#22 = EDGE_LOOP ( 'NONE', ( #245, #219 ) ) ;
#23 = DIRECTION ( 'NONE',  ( 0.1736481776669268617, 0.000000000000000000, -0.9848077530122086864 ) ) ;
#24 = VERTEX_POINT ( 'NONE', #259 ) ;
#25 = ORIENTED_EDGE ( 'NONE', *, *, #153, .T. ) ;
#26 = CIRCLE ( 'NONE', #179, 21.39999999999999858 ) ;
#27 = ORIENTED_EDGE ( 'NONE', *, *, #205, .T. ) ;
#28 = ORIENTED_EDGE ( 'NONE', *, *, #232, .T. ) ;
#29 = AXIS2_PLACEMENT_3D ( 'NONE', #43, #145, #243 ) ;
#30 = EDGE_LOOP ( 'NONE', ( #284, #223 ) ) ;
#31 = EDGE_CURVE ( 'NONE', #321, #251, #55, .T. ) ;
#32 = ORIENTED_EDGE ( 'NONE', *, *, #153, .F. ) ;
#33 = CARTESIAN_POINT ( 'NONE',  ( 13.00000000000000178, 0.000000000000000000, 0.000000000000000000 ) ) ;
#34 = AXIS2_PLACEMENT_3D ( 'NONE', #215, #217, #87 ) ;
#35 = EDGE_LOOP ( 'NONE', ( #229, #204, #172, #9 ) ) ;
#36 = DIRECTION ( 'NONE',  ( 1.000000000000000000, 0.000000000000000000, 0.000000000000000000 ) ) ;
#37 = CARTESIAN_POINT ( 'NONE',  ( 0.3526539614169296732, 0.000000000000000000, 0.000000000000000000 ) ) ;
#38 = CARTESIAN_POINT ( 'NONE',  ( 0.000000000000000000, 0.000000000000000000, 3.200000000000000178 ) ) ;
#39 = ADVANCED_FACE ( 'NONE', ( #263 ), #111, .F. ) ;
#40 = DIRECTION ( 'NONE',  ( 0.000000000000000000, 0.000000000000000000, 1.000000000000000000 ) ) ;
#41 = CARTESIAN_POINT ( 'NONE',  ( 1.000000000000000000, 0.000000000000000000, 0.000000000000000000 ) ) ;
#42 = MECHANICAL_DESIGN_GEOMETRIC_PRESENTATION_REPRESENTATION (  '', ( #267 ), #252 ) ;
#43 = CARTESIAN_POINT ( 'NONE',  ( 1.000000000000000000, 0.000000000000000000, 0.000000000000000000 ) ) ;
#44 = DIRECTION ( 'NONE',  ( 0.000000000000000000, 0.000000000000000000, -1.000000000000000000 ) ) ;
#45 = EDGE_LOOP ( 'NONE', ( #32, #72, #18, #108 ) ) ;
#46 = AXIS2_PLACEMENT_3D ( 'NONE', #33, #83, #262 ) ;
#47 = LINE ( 'NONE', #138, #181 ) ;
#48 = EDGE_CURVE ( 'NONE', #52, #24, #26, .T. ) ;
#49 = CARTESIAN_POINT ( 'NONE',  ( 0.000000000000000000, 0.000000000000000000, 0.000000000000000000 ) ) ;
#50 = VERTEX_POINT ( 'NONE', #143 ) ;
#51 = AXIS2_PLACEMENT_3D ( 'NONE', #178, #228, #1 ) ;
#52 = VERTEX_POINT ( 'NONE', #139 ) ;
#53 =( NAMED_UNIT ( * ) SI_UNIT ( $, .STERADIAN. ) SOLID_ANGLE_UNIT ( ) );
#54 = CARTESIAN_POINT ( 'NONE',  ( 12.00000000000000000, 0.000000000000000000, 0.000000000000000000 ) ) ;
#55 = CIRCLE ( 'NONE', #34, 21.89999999999999858 ) ;
#56 = DIRECTION ( 'NONE',  ( 0.1736481776669268617, 1.206041662501898361E-16, 0.9848077530122086864 ) ) ;
#57 = AXIS2_PLACEMENT_3D ( 'NONE', #41, #120, #71 ) ;
#58 = EDGE_LOOP ( 'NONE', ( #175, #319, #27, #95 ) ) ;
#59 = ADVANCED_FACE ( 'NONE', ( #167 ), #164, .F. ) ;
#60 = EDGE_LOOP ( 'NONE', ( #151, #257, #309, #118 ) ) ;
#61 = PLANE ( 'NONE',  #29 ) ;
#62 = FACE_OUTER_BOUND ( 'NONE', #155, .T. ) ;
#63 = CARTESIAN_POINT ( 'NONE',  ( 13.00000000000000178, 0.000000000000000000, 0.000000000000000000 ) ) ;
#64 = SURFACE_SIDE_STYLE ('',( #220 ) ) ;
#65 = DIRECTION ( 'NONE',  ( 0.000000000000000000, 0.000000000000000000, -1.000000000000000000 ) ) ;
#66 = CARTESIAN_POINT ( 'NONE',  ( 13.00000000000000178, 0.000000000000000000, 0.000000000000000000 ) ) ;
#67 = DIRECTION ( 'NONE',  ( -1.000000000000000000, -0.000000000000000000, -0.000000000000000000 ) ) ;
#68 = DIRECTION ( 'NONE',  ( 1.000000000000000000, 0.000000000000000000, 0.000000000000000000 ) ) ;
#69 = ORIENTED_EDGE ( 'NONE', *, *, #20, .T. ) ;
#70 = CYLINDRICAL_SURFACE ( 'NONE', #75, 21.39999999999999858 ) ;
#71 = DIRECTION ( 'NONE',  ( 0.000000000000000000, 0.000000000000000000, 1.000000000000000000 ) ) ;
#72 = ORIENTED_EDGE ( 'NONE', *, *, #261, .T. ) ;
#73 = LINE ( 'NONE', #297, #2 ) ;
#74 =( GEOMETRIC_REPRESENTATION_CONTEXT ( 3 ) GLOBAL_UNCERTAINTY_ASSIGNED_CONTEXT ( ( #270 ) ) GLOBAL_UNIT_ASSIGNED_CONTEXT ( ( #303, #156, #53 ) ) REPRESENTATION_CONTEXT ( 'NONE', 'WORKASPACE' ) );
#75 = AXIS2_PLACEMENT_3D ( 'NONE', #15, #67, #169 ) ;
#76 = DIRECTION ( 'NONE',  ( -1.000000000000000000, -0.000000000000000000, -0.000000000000000000 ) ) ;
#77 = VERTEX_POINT ( 'NONE', #113 ) ;
#78 = APPLICATION_CONTEXT ( 'automotive_design' ) ;
#79 = PRESENTATION_LAYER_ASSIGNMENT (  '', '', ( #267 ) ) ;
#80 = ORIENTED_EDGE ( 'NONE', *, *, #110, .F. ) ;
#81 = ADVANCED_FACE ( 'NONE', ( #317 ), #308, .T. ) ;
#82 = VERTEX_POINT ( 'NONE', #237 ) ;
#83 = DIRECTION ( 'NONE',  ( 1.000000000000000000, 0.000000000000000000, 0.000000000000000000 ) ) ;
#84 = CARTESIAN_POINT ( 'NONE',  ( 0.3526539614169296732, 0.000000000000000000, 0.000000000000000000 ) ) ;
#85 = PRODUCT_DEFINITION_SHAPE ( 'NONE', 'NONE',  #277 ) ;
#86 = CARTESIAN_POINT ( 'NONE',  ( 1.000000000000000888, 0.000000000000000000, 0.000000000000000000 ) ) ;
#87 = DIRECTION ( 'NONE',  ( 0.000000000000000000, 0.000000000000000000, -1.000000000000000000 ) ) ;
#88 = ADVANCED_FACE ( 'NONE', ( #62 ), #196, .T. ) ;
#89 = CARTESIAN_POINT ( 'NONE',  ( 1.000000000000000000, 0.000000000000000000, 21.89999999999999858 ) ) ;
#90 = CIRCLE ( 'NONE', #276, 19.89999999999995950 ) ;
#91 = CARTESIAN_POINT ( 'NONE',  ( 0.000000000000000000, 0.000000000000000000, -19.89999999999995950 ) ) ;
#92 = ORIENTED_EDGE ( 'NONE', *, *, #31, .F. ) ;
#93 = DIRECTION ( 'NONE',  ( 0.000000000000000000, 0.000000000000000000, -1.000000000000000000 ) ) ;
#94 = DIRECTION ( 'NONE',  ( -1.000000000000000000, -0.000000000000000000, -0.000000000000000000 ) ) ;
#95 = ORIENTED_EDGE ( 'NONE', *, *, #101, .T. ) ;
#96 = DIRECTION ( 'NONE',  ( -1.000000000000000000, -0.000000000000000000, -0.000000000000000000 ) ) ;
#97 = AXIS2_PLACEMENT_3D ( 'NONE', #313, #12, #315 ) ;
#98 = EDGE_CURVE ( 'NONE', #50, #251, #47, .T. ) ;
#99 = DIRECTION ( 'NONE',  ( 1.000000000000000000, 0.000000000000000000, 0.000000000000000000 ) ) ;
#100 = CIRCLE ( 'NONE', #180, 3.200000000000000178 ) ;
#101 = EDGE_CURVE ( 'NONE', #107, #82, #227, .T. ) ;
#102 = CARTESIAN_POINT ( 'NONE',  ( 0.000000000000000000, 0.000000000000000000, 0.000000000000000000 ) ) ;
#103 = VECTOR ( 'NONE', #329, 1000.000000000000000 ) ;
#104 = ORIENTED_EDGE ( 'NONE', *, *, #283, .F. ) ;
#105 = AXIS2_PLACEMENT_3D ( 'NONE', #54, #76, #127 ) ;
#106 = AXIS2_PLACEMENT_3D ( 'NONE', #37, #289, #271 ) ;
#107 = VERTEX_POINT ( 'NONE', #211 ) ;
#108 = ORIENTED_EDGE ( 'NONE', *, *, #159, .T. ) ;
#109 = FILL_AREA_STYLE_COLOUR ( '', #226 ) ;
#110 = EDGE_CURVE ( 'NONE', #24, #52, #157, .T. ) ;
#111 = CYLINDRICAL_SURFACE ( 'NONE', #97, 3.200000000000000178 ) ;
#112 = CARTESIAN_POINT ( 'NONE',  ( 13.00000000000000178, 0.000000000000000000, 21.39999999999999858 ) ) ;
#113 = CARTESIAN_POINT ( 'NONE',  ( 1.000000000000000888, 0.000000000000000000, 3.200000000000000178 ) ) ;
#114 = PLANE ( 'NONE',  #170 ) ;
#115 = ORIENTED_EDGE ( 'NONE', *, *, #283, .T. ) ;
#116 = LINE ( 'NONE', #320, #302 ) ;
#117 = LINE ( 'NONE', #112, #14 ) ;
#118 = ORIENTED_EDGE ( 'NONE', *, *, #31, .T. ) ;
#119 = AXIS2_PLACEMENT_3D ( 'NONE', #63, #174, #191 ) ;
#120 = DIRECTION ( 'NONE',  ( -1.000000000000000000, -0.000000000000000000, -0.000000000000000000 ) ) ;
#121 = EDGE_CURVE ( 'NONE', #82, #107, #126, .T. ) ;
#122 = EDGE_CURVE ( 'NONE', #251, #321, #279, .T. ) ;
#123 = DIRECTION ( 'NONE',  ( 0.000000000000000000, 0.000000000000000000, 1.000000000000000000 ) ) ;
#124 = CYLINDRICAL_SURFACE ( 'NONE', #105, 3.200000000000000178 ) ;
#125 = PRODUCT_CONTEXT ( 'NONE', #185, 'mechanical' ) ;
#126 = CIRCLE ( 'NONE', #233, 21.39999999999999858 ) ;
#127 = DIRECTION ( 'NONE',  ( 0.000000000000000000, 0.000000000000000000, 1.000000000000000000 ) ) ;
#128 = VECTOR ( 'NONE', #288, 1000.000000000000000 ) ;
#129 = EDGE_CURVE ( 'NONE', #50, #274, #325, .T. ) ;
#130 = VECTOR ( 'NONE', #56, 1000.000000000000114 ) ;
#131 = EDGE_CURVE ( 'NONE', #77, #278, #236, .T. ) ;
#132 = VERTEX_POINT ( 'NONE', #296 ) ;
#133 = DIRECTION ( 'NONE',  ( -1.000000000000000000, -0.000000000000000000, -0.000000000000000000 ) ) ;
#134 = AXIS2_PLACEMENT_3D ( 'NONE', #258, #246, #239 ) ;
#135 = ORIENTED_EDGE ( 'NONE', *, *, #131, .F. ) ;
#136 = MANIFOLD_SOLID_BREP ( 'Chamfer1', #5 ) ;
#137 = PRODUCT ( 'motor-magnet-holder', 'motor-magnet-holder', '', ( #125 ) ) ;
#138 = CARTESIAN_POINT ( 'NONE',  ( 1.000000000000000000, 2.681976490132703452E-15, -21.89999999999999858 ) ) ;
#139 = CARTESIAN_POINT ( 'NONE',  ( 13.00000000000000178, 2.620744150175335878E-15, -21.39999999999999858 ) ) ;
#140 = DIRECTION ( 'NONE',  ( -1.000000000000000000, 0.000000000000000000, 0.000000000000000000 ) ) ;
#141 = DIRECTION ( 'NONE',  ( 0.000000000000000000, 0.000000000000000000, -1.000000000000000000 ) ) ;
#142 = ADVANCED_FACE ( 'NONE', ( #293 ), #70, .F. ) ;
#143 = CARTESIAN_POINT ( 'NONE',  ( 13.00000000000000178, 2.681976490132703452E-15, -21.89999999999999858 ) ) ;
#144 = DIRECTION ( 'NONE',  ( 0.000000000000000000, 0.000000000000000000, -1.000000000000000000 ) ) ;
#145 = DIRECTION ( 'NONE',  ( 1.000000000000000000, 0.000000000000000000, 0.000000000000000000 ) ) ;
#146 = CARTESIAN_POINT ( 'NONE',  ( 1.000000000000000888, 0.000000000000000000, 0.000000000000000000 ) ) ;
#147 = ORIENTED_EDGE ( 'NONE', *, *, #287, .F. ) ;
#148 = DIRECTION ( 'NONE',  ( -1.000000000000000000, -0.000000000000000000, -0.000000000000000000 ) ) ;
#149 = ADVANCED_FACE ( 'NONE', ( #173, #266 ), #61, .T. ) ;
#150 = DIRECTION ( 'NONE',  ( -1.000000000000000000, 0.000000000000000000, 0.000000000000000000 ) ) ;
#151 = ORIENTED_EDGE ( 'NONE', *, *, #98, .F. ) ;
#152 = PRODUCT_DEFINITION_FORMATION_WITH_SPECIFIED_SOURCE ( 'ANY', '', #137, .NOT_KNOWN. ) ;
#153 = EDGE_CURVE ( 'NONE', #213, #132, #116, .T. ) ;
#154 = CARTESIAN_POINT ( 'NONE',  ( 0.000000000000000000, 0.000000000000000000, 0.000000000000000000 ) ) ;
#155 = EDGE_LOOP ( 'NONE', ( #209, #69, #235, #147 ) ) ;
#156 =( NAMED_UNIT ( * ) PLANE_ANGLE_UNIT ( ) SI_UNIT ( $, .RADIAN. ) );
#157 = CIRCLE ( 'NONE', #6, 21.39999999999999858 ) ;
#158 = EDGE_LOOP ( 'NONE', ( #104, #310 ) ) ;
#159 = EDGE_CURVE ( 'NONE', #278, #132, #160, .T. ) ;
#160 = CIRCLE ( 'NONE', #306, 3.200000000000000178 ) ;
#161 = ORIENTED_EDGE ( 'NONE', *, *, #48, .F. ) ;
#162 = ORIENTED_EDGE ( 'NONE', *, *, #129, .T. ) ;
#163 = CARTESIAN_POINT ( 'NONE',  ( 1.000000000000000888, 0.000000000000000000, 0.000000000000000000 ) ) ;
#164 = CYLINDRICAL_SURFACE ( 'NONE', #272, 21.39999999999999858 ) ;
#165 = CARTESIAN_POINT ( 'NONE',  ( 0.3526539614169296732, 2.681976490132703452E-15, -21.89999999999999858 ) ) ;
#166 =( LENGTH_UNIT ( ) NAMED_UNIT ( * ) SI_UNIT ( .MILLI., .METRE. ) );
#167 = FACE_OUTER_BOUND ( 'NONE', #58, .T. ) ;
#168 = DIRECTION ( 'NONE',  ( -1.000000000000000000, -0.000000000000000000, -0.000000000000000000 ) ) ;
#169 = DIRECTION ( 'NONE',  ( 0.000000000000000000, 0.000000000000000000, 1.000000000000000000 ) ) ;
#170 = AXIS2_PLACEMENT_3D ( 'NONE', #66, #194, #44 ) ;
#171 = FACE_BOUND ( 'NONE', #323, .T. ) ;
#172 = ORIENTED_EDGE ( 'NONE', *, *, #121, .T. ) ;
#173 = FACE_BOUND ( 'NONE', #158, .T. ) ;
#174 = DIRECTION ( 'NONE',  ( 1.000000000000000000, 0.000000000000000000, 0.000000000000000000 ) ) ;
#175 = ORIENTED_EDGE ( 'NONE', *, *, #292, .F. ) ;
#176 = CARTESIAN_POINT ( 'NONE',  ( 13.00000000000000178, 2.620744150175335878E-15, -21.39999999999999858 ) ) ;
#177 = ORIENTED_EDGE ( 'NONE', *, *, #11, .F. ) ;
#178 = CARTESIAN_POINT ( 'NONE',  ( 0.000000000000000000, 0.000000000000000000, 0.000000000000000000 ) ) ;
#179 = AXIS2_PLACEMENT_3D ( 'NONE', #188, #290, #65 ) ;
#180 = AXIS2_PLACEMENT_3D ( 'NONE', #294, #242, #197 ) ;
#181 = VECTOR ( 'NONE', #10, 1000.000000000000000 ) ;
#182 = EDGE_LOOP ( 'NONE', ( #253, #230 ) ) ;
#183 = EDGE_LOOP ( 'NONE', ( #255, #177, #231, #92 ) ) ;
#184 =( NAMED_UNIT ( * ) SI_UNIT ( $, .STERADIAN. ) SOLID_ANGLE_UNIT ( ) );
#185 = APPLICATION_CONTEXT ( 'automotive_design' ) ;
#186 = DIRECTION ( 'NONE',  ( 1.000000000000000000, -0.000000000000000000, -0.000000000000000000 ) ) ;
#187 = DIRECTION ( 'NONE',  ( 0.000000000000000000, 0.000000000000000000, -1.000000000000000000 ) ) ;
#188 = CARTESIAN_POINT ( 'NONE',  ( 13.00000000000000178, 0.000000000000000000, 0.000000000000000000 ) ) ;
#189 = DIRECTION ( 'NONE',  ( 0.000000000000000000, 0.000000000000000000, 1.000000000000000000 ) ) ;
#190 = CIRCLE ( 'NONE', #51, 19.89999999999995950 ) ;
#191 = DIRECTION ( 'NONE',  ( 0.000000000000000000, 0.000000000000000000, -1.000000000000000000 ) ) ;
#192 = EDGE_LOOP ( 'NONE', ( #115, #25, #28, #135 ) ) ;
#193 = CARTESIAN_POINT ( 'NONE',  ( 13.00000000000000178, 0.000000000000000000, 0.000000000000000000 ) ) ;
#194 = DIRECTION ( 'NONE',  ( 1.000000000000000000, 0.000000000000000000, 0.000000000000000000 ) ) ;
#195 = VERTEX_POINT ( 'NONE', #316 ) ;
#196 = CONICAL_SURFACE ( 'NONE', #106, 21.89999999999999858, 1.396263401595467135 ) ;
#197 = DIRECTION ( 'NONE',  ( 0.000000000000000000, 0.000000000000000000, -1.000000000000000000 ) ) ;
#198 = ADVANCED_FACE ( 'NONE', ( #291, #171 ), #114, .T. ) ;
#199 = AXIS2_PLACEMENT_3D ( 'NONE', #264, #140, #275 ) ;
#200 = APPLICATION_PROTOCOL_DEFINITION ( 'draft international standard', 'automotive_design', 1998, #78 ) ;
#201 = DIRECTION ( 'NONE',  ( -1.000000000000000000, -0.000000000000000000, -0.000000000000000000 ) ) ;
#202 = AXIS2_PLACEMENT_3D ( 'NONE', #13, #68, #273 ) ;
#203 = LINE ( 'NONE', #305, #130 ) ;
#204 = ORIENTED_EDGE ( 'NONE', *, *, #292, .T. ) ;
#205 = EDGE_CURVE ( 'NONE', #24, #107, #117, .T. ) ;
#206 = VECTOR ( 'NONE', #133, 1000.000000000000000 ) ;
#207 = EDGE_LOOP ( 'NONE', ( #285, #162 ) ) ;
#208 = AXIS2_PLACEMENT_3D ( 'NONE', #84, #186, #286 ) ;
#209 = ORIENTED_EDGE ( 'NONE', *, *, #4, .F. ) ;
#210 = PRODUCT_DEFINITION_CONTEXT ( 'detailed design', #78, 'design' ) ;
#211 = CARTESIAN_POINT ( 'NONE',  ( 1.000000000000000888, 0.000000000000000000, 21.39999999999999858 ) ) ;
#212 = AXIS2_PLACEMENT_3D ( 'NONE', #154, #123, #99 ) ;
#213 = VERTEX_POINT ( 'NONE', #218 ) ;
#214 = ADVANCED_FACE ( 'NONE', ( #318 ), #301, .T. ) ;
#215 = CARTESIAN_POINT ( 'NONE',  ( 0.3526539614169296732, 0.000000000000000000, 0.000000000000000000 ) ) ;
#216 = LINE ( 'NONE', #89, #103 ) ;
#217 = DIRECTION ( 'NONE',  ( 1.000000000000000000, -0.000000000000000000, -0.000000000000000000 ) ) ;
#218 = CARTESIAN_POINT ( 'NONE',  ( 1.000000000000000888, 3.918869757271530460E-16, -3.200000000000000178 ) ) ;
#219 = ORIENTED_EDGE ( 'NONE', *, *, #121, .F. ) ;
#220 = SURFACE_STYLE_FILL_AREA ( #234 ) ;
#221 = CYLINDRICAL_SURFACE ( 'NONE', #312, 21.89999999999999858 ) ;
#222 = PRODUCT_RELATED_PRODUCT_CATEGORY ( 'part', '', ( #137 ) ) ;
#223 = ORIENTED_EDGE ( 'NONE', *, *, #232, .F. ) ;
#224 = FACE_BOUND ( 'NONE', #30, .T. ) ;
#225 = SHAPE_DEFINITION_REPRESENTATION ( #85, #265 ) ;
#226 = COLOUR_RGB ( '',0.7921568627450980005, 0.8196078431372548767, 0.9333333333333333481 ) ;
#227 = CIRCLE ( 'NONE', #299, 21.39999999999999858 ) ;
#228 = DIRECTION ( 'NONE',  ( -1.000000000000000000, -0.000000000000000000, -0.000000000000000000 ) ) ;
#229 = ORIENTED_EDGE ( 'NONE', *, *, #110, .T. ) ;
#230 = ORIENTED_EDGE ( 'NONE', *, *, #4, .T. ) ;
#231 = ORIENTED_EDGE ( 'NONE', *, *, #287, .T. ) ;
#232 = EDGE_CURVE ( 'NONE', #132, #278, #281, .T. ) ;
#233 = AXIS2_PLACEMENT_3D ( 'NONE', #163, #148, #141 ) ;
#234 = FILL_AREA_STYLE ('',( #109 ) ) ;
#235 = ORIENTED_EDGE ( 'NONE', *, *, #122, .F. ) ;
#236 = LINE ( 'NONE', #8, #206 ) ;
#237 = CARTESIAN_POINT ( 'NONE',  ( 1.000000000000000888, 2.620744150175335878E-15, -21.39999999999999858 ) ) ;
#238 = DIRECTION ( 'NONE',  ( 0.000000000000000000, 0.000000000000000000, 1.000000000000000000 ) ) ;
#239 = DIRECTION ( 'NONE',  ( 0.000000000000000000, 0.000000000000000000, -1.000000000000000000 ) ) ;
#240 = CIRCLE ( 'NONE', #327, 3.200000000000000178 ) ;
#241 = CARTESIAN_POINT ( 'NONE',  ( 13.00000000000000178, 0.000000000000000000, 0.000000000000000000 ) ) ;
#242 = DIRECTION ( 'NONE',  ( 1.000000000000000000, 0.000000000000000000, 0.000000000000000000 ) ) ;
#243 = DIRECTION ( 'NONE',  ( 0.000000000000000000, 0.000000000000000000, -1.000000000000000000 ) ) ;
#244 = PLANE ( 'NONE',  #202 ) ;
#245 = ORIENTED_EDGE ( 'NONE', *, *, #101, .F. ) ;
#246 = DIRECTION ( 'NONE',  ( 1.000000000000000000, -0.000000000000000000, -0.000000000000000000 ) ) ;
#247 = CARTESIAN_POINT ( 'NONE',  ( 13.00000000000000178, 0.000000000000000000, 21.89999999999999858 ) ) ;
#248 = ORIENTED_EDGE ( 'NONE', *, *, #129, .F. ) ;
#249 = APPLICATION_PROTOCOL_DEFINITION ( 'draft international standard', 'automotive_design', 1998, #185 ) ;
#250 = ORIENTED_EDGE ( 'NONE', *, *, #122, .T. ) ;
#251 = VERTEX_POINT ( 'NONE', #165 ) ;
#252 =( GEOMETRIC_REPRESENTATION_CONTEXT ( 3 ) GLOBAL_UNCERTAINTY_ASSIGNED_CONTEXT ( ( #282 ) ) GLOBAL_UNIT_ASSIGNED_CONTEXT ( ( #166, #314, #184 ) ) REPRESENTATION_CONTEXT ( 'NONE', 'WORKASPACE' ) );
#253 = ORIENTED_EDGE ( 'NONE', *, *, #11, .T. ) ;
#254 = CIRCLE ( 'NONE', #119, 21.89999999999999858 ) ;
#255 = ORIENTED_EDGE ( 'NONE', *, *, #20, .F. ) ;
#256 = PRESENTATION_STYLE_ASSIGNMENT (( #19 ) ) ;
#257 = ORIENTED_EDGE ( 'NONE', *, *, #300, .F. ) ;
#258 = CARTESIAN_POINT ( 'NONE',  ( 0.3526539614169296732, 0.000000000000000000, 0.000000000000000000 ) ) ;
#259 = CARTESIAN_POINT ( 'NONE',  ( 13.00000000000000178, 0.000000000000000000, 21.39999999999999858 ) ) ;
#260 = FACE_OUTER_BOUND ( 'NONE', #182, .T. ) ;
#261 = EDGE_CURVE ( 'NONE', #213, #77, #240, .T. ) ;
#262 = DIRECTION ( 'NONE',  ( 0.000000000000000000, 0.000000000000000000, -1.000000000000000000 ) ) ;
#263 = FACE_OUTER_BOUND ( 'NONE', #192, .T. ) ;
#264 = CARTESIAN_POINT ( 'NONE',  ( 0.000000000000000000, 0.000000000000000000, 0.000000000000000000 ) ) ;
#265 = ADVANCED_BREP_SHAPE_REPRESENTATION ( 'motor-magnet-holder', ( #136, #212 ), #74 ) ;
#266 = FACE_OUTER_BOUND ( 'NONE', #22, .T. ) ;
#267 = STYLED_ITEM ( 'NONE', ( #256 ), #136 ) ;
#268 = CARTESIAN_POINT ( 'NONE',  ( 0.3526539614169296732, 0.000000000000000000, 21.89999999999999858 ) ) ;
#269 = EDGE_LOOP ( 'NONE', ( #248, #7, #250, #298 ) ) ;
#270 = UNCERTAINTY_MEASURE_WITH_UNIT (LENGTH_MEASURE( 1.000000000000000082E-05 ), #303, 'distance_accuracy_value', 'NONE');
#271 = DIRECTION ( 'NONE',  ( 0.000000000000000000, 0.000000000000000000, -1.000000000000000000 ) ) ;
#272 = AXIS2_PLACEMENT_3D ( 'NONE', #241, #16, #40 ) ;
#273 = DIRECTION ( 'NONE',  ( 0.000000000000000000, 0.000000000000000000, -1.000000000000000000 ) ) ;
#274 = VERTEX_POINT ( 'NONE', #247 ) ;
#275 = DIRECTION ( 'NONE',  ( 0.000000000000000000, 0.000000000000000000, 1.000000000000000000 ) ) ;
#276 = AXIS2_PLACEMENT_3D ( 'NONE', #102, #201, #304 ) ;
#277 = PRODUCT_DEFINITION ( 'UNKNOWN', '', #152, #210 ) ;
#278 = VERTEX_POINT ( 'NONE', #38 ) ;
#279 = CIRCLE ( 'NONE', #134, 21.89999999999999858 ) ;
#280 = FACE_OUTER_BOUND ( 'NONE', #45, .T. ) ;
#281 = CIRCLE ( 'NONE', #199, 3.200000000000000178 ) ;
#282 = UNCERTAINTY_MEASURE_WITH_UNIT (LENGTH_MEASURE( 1.000000000000000082E-05 ), #166, 'distance_accuracy_value', 'NONE');
#283 = EDGE_CURVE ( 'NONE', #77, #213, #100, .T. ) ;
#284 = ORIENTED_EDGE ( 'NONE', *, *, #159, .F. ) ;
#285 = ORIENTED_EDGE ( 'NONE', *, *, #300, .T. ) ;
#286 = DIRECTION ( 'NONE',  ( 0.000000000000000000, 0.000000000000000000, -1.000000000000000000 ) ) ;
#287 = EDGE_CURVE ( 'NONE', #295, #251, #73, .T. ) ;
#288 = DIRECTION ( 'NONE',  ( -1.000000000000000000, -0.000000000000000000, -0.000000000000000000 ) ) ;
#289 = DIRECTION ( 'NONE',  ( 1.000000000000000000, -0.000000000000000000, -0.000000000000000000 ) ) ;
#290 = DIRECTION ( 'NONE',  ( 1.000000000000000000, 0.000000000000000000, 0.000000000000000000 ) ) ;
#291 = FACE_OUTER_BOUND ( 'NONE', #207, .T. ) ;
#292 = EDGE_CURVE ( 'NONE', #52, #82, #17, .T. ) ;
#293 = FACE_OUTER_BOUND ( 'NONE', #35, .T. ) ;
#294 = CARTESIAN_POINT ( 'NONE',  ( 1.000000000000000888, 0.000000000000000000, 0.000000000000000000 ) ) ;
#295 = VERTEX_POINT ( 'NONE', #91 ) ;
#296 = CARTESIAN_POINT ( 'NONE',  ( 0.000000000000000000, 3.918869757271530460E-16, -3.200000000000000178 ) ) ;
#297 = CARTESIAN_POINT ( 'NONE',  ( 0.3526539614169296732, 0.000000000000000000, -21.89999999999999858 ) ) ;
#298 = ORIENTED_EDGE ( 'NONE', *, *, #328, .F. ) ;
#299 = AXIS2_PLACEMENT_3D ( 'NONE', #86, #311, #93 ) ;
#300 = EDGE_CURVE ( 'NONE', #274, #50, #254, .T. ) ;
#301 = CYLINDRICAL_SURFACE ( 'NONE', #57, 21.89999999999999858 ) ;
#302 = VECTOR ( 'NONE', #168, 1000.000000000000000 ) ;
#303 =( LENGTH_UNIT ( ) NAMED_UNIT ( * ) SI_UNIT ( .MILLI., .METRE. ) );
#304 = DIRECTION ( 'NONE',  ( 0.000000000000000000, 0.000000000000000000, -1.000000000000000000 ) ) ;
#305 = CARTESIAN_POINT ( 'NONE',  ( 0.3526539614169296732, 2.681976490132703452E-15, 21.89999999999999858 ) ) ;
#306 = AXIS2_PLACEMENT_3D ( 'NONE', #49, #150, #189 ) ;
#307 = ADVANCED_FACE ( 'NONE', ( #260, #224 ), #244, .F. ) ;
#308 = CONICAL_SURFACE ( 'NONE', #208, 21.89999999999999858, 1.396263401595467135 ) ;
#309 = ORIENTED_EDGE ( 'NONE', *, *, #328, .T. ) ;
#310 = ORIENTED_EDGE ( 'NONE', *, *, #261, .F. ) ;
#311 = DIRECTION ( 'NONE',  ( -1.000000000000000000, -0.000000000000000000, -0.000000000000000000 ) ) ;
#312 = AXIS2_PLACEMENT_3D ( 'NONE', #322, #94, #238 ) ;
#313 = CARTESIAN_POINT ( 'NONE',  ( 12.00000000000000000, 0.000000000000000000, 0.000000000000000000 ) ) ;
#314 =( NAMED_UNIT ( * ) PLANE_ANGLE_UNIT ( ) SI_UNIT ( $, .RADIAN. ) );
#315 = DIRECTION ( 'NONE',  ( 0.000000000000000000, 0.000000000000000000, 1.000000000000000000 ) ) ;
#316 = CARTESIAN_POINT ( 'NONE',  ( 0.000000000000000000, 2.559511810217965543E-15, 19.89999999999995950 ) ) ;
#317 = FACE_OUTER_BOUND ( 'NONE', #183, .T. ) ;
#318 = FACE_OUTER_BOUND ( 'NONE', #269, .T. ) ;
#319 = ORIENTED_EDGE ( 'NONE', *, *, #48, .T. ) ;
#320 = CARTESIAN_POINT ( 'NONE',  ( 12.00000000000000000, 3.918869757271530460E-16, -3.200000000000000178 ) ) ;
#321 = VERTEX_POINT ( 'NONE', #268 ) ;
#322 = CARTESIAN_POINT ( 'NONE',  ( 1.000000000000000000, 0.000000000000000000, 0.000000000000000000 ) ) ;
#323 = EDGE_LOOP ( 'NONE', ( #80, #161 ) ) ;
#324 = DIRECTION ( 'NONE',  ( 1.000000000000000000, 0.000000000000000000, 0.000000000000000000 ) ) ;
#325 = CIRCLE ( 'NONE', #46, 21.89999999999999858 ) ;
#326 = ADVANCED_FACE ( 'NONE', ( #21 ), #221, .T. ) ;
#327 = AXIS2_PLACEMENT_3D ( 'NONE', #146, #324, #144 ) ;
#328 = EDGE_CURVE ( 'NONE', #274, #321, #216, .T. ) ;
#329 = DIRECTION ( 'NONE',  ( -1.000000000000000000, -0.000000000000000000, -0.000000000000000000 ) ) ;
ENDSEC;
END-ISO-10303-21;
