ISO-10303-21;
HEADER;
FILE_DESCRIPTION (( 'STEP AP214' ),
    '1' );
FILE_NAME ('top motor holder.STEP',
    '2026-03-22T11:16:25',
    ( '' ),
    ( '' ),
    'SwSTEP 2.0',
    'SolidWorks 2026',
    '' );
FILE_SCHEMA (( 'AUTOMOTIVE_DESIGN' ));
ENDSEC;

DATA;
#1 = CIRCLE ( 'NONE', #367, 4.250000000000004441 ) ;
#2 = CARTESIAN_POINT ( 'NONE',  ( 79.49592939232516642, 48.39999999999999858, -12.76697142838393795 ) ) ;
#3 = AXIS2_PLACEMENT_3D ( 'NONE', #1335, #1006, #377 ) ;
#4 = VECTOR ( 'NONE', #104, 1000.000000000000114 ) ;
#5 = ORIENTED_EDGE ( 'NONE', *, *, #1381, .T. ) ;
#6 = VERTEX_POINT ( 'NONE', #1142 ) ;
#7 = FACE_BOUND ( 'NONE', #401, .T. ) ;
#8 = CIRCLE ( 'NONE', #322, 4.250000000000005329 ) ;
#9 = LINE ( 'NONE', #1180, #315 ) ;
#10 = ORIENTED_EDGE ( 'NONE', *, *, #1085, .T. ) ;
#11 = EDGE_CURVE ( 'NONE', #1186, #1248, #1182, .T. ) ;
#12 = ORIENTED_EDGE ( 'NONE', *, *, #830, .F. ) ;
#13 = CARTESIAN_POINT ( 'NONE',  ( 57.62920266670384706, 48.39999999999999858, 23.68807716974958311 ) ) ;
#14 = ORIENTED_EDGE ( 'NONE', *, *, #727, .F. ) ;
#15 = EDGE_CURVE ( 'NONE', #683, #658, #847, .T. ) ;
#16 = EDGE_LOOP ( 'NONE', ( #336, #689 ) ) ;
#17 = CARTESIAN_POINT ( 'NONE',  ( 29.34493141924195214, 43.39999999999999858, 51.97234841721148513 ) ) ;
#18 = DIRECTION ( 'NONE',  ( -2.775557561562890957E-15, 0.000000000000000000, -1.000000000000000000 ) ) ;
#19 = ORIENTED_EDGE ( 'NONE', *, *, #1369, .F. ) ;
#20 = AXIS2_PLACEMENT_3D ( 'NONE', #1133, #284, #403 ) ;
#21 = EDGE_CURVE ( 'NONE', #441, #1082, #1148, .T. ) ;
#22 = DIRECTION ( 'NONE',  ( 0.000000000000000000, 1.000000000000000000, 0.000000000000000000 ) ) ;
#23 = ORIENTED_EDGE ( 'NONE', *, *, #734, .T. ) ;
#24 = VECTOR ( 'NONE', #446, 1000.000000000000000 ) ;
#25 = DIRECTION ( 'NONE',  ( 0.000000000000000000, -1.000000000000000000, -0.000000000000000000 ) ) ;
#26 = ADVANCED_FACE ( 'NONE', ( #1362 ), #266, .F. ) ;
#27 = CIRCLE ( 'NONE', #1380, 13.00000000000000178 ) ;
#28 = AXIS2_PLACEMENT_3D ( 'NONE', #1324, #585, #933 ) ;
#29 = VECTOR ( 'NONE', #1191, 1000.000000000000000 ) ;
#30 = DIRECTION ( 'NONE',  ( -0.000000000000000000, 1.000000000000000000, -0.000000000000000000 ) ) ;
#31 = ORIENTED_EDGE ( 'NONE', *, *, #1038, .F. ) ;
#32 = EDGE_LOOP ( 'NONE', ( #1079, #433, #986, #729 ) ) ;
#33 = LINE ( 'NONE', #361, #1020 ) ;
#34 = DIRECTION ( 'NONE',  ( 0.7071067811865475727, 0.000000000000000000, -0.7071067811865474617 ) ) ;
#35 = ORIENTED_EDGE ( 'NONE', *, *, #1273, .T. ) ;
#36 = VERTEX_POINT ( 'NONE', #712 ) ;
#37 = DIRECTION ( 'NONE',  ( 0.7071067811865473507, 0.000000000000000000, 0.7071067811865477948 ) ) ;
#38 = EDGE_CURVE ( 'NONE', #1225, #99, #840, .T. ) ;
#39 = ORIENTED_EDGE ( 'NONE', *, *, #123, .F. ) ;
#40 = DIRECTION ( 'NONE',  ( 0.7071067811865482389, 0.000000000000000000, 0.7071067811865469066 ) ) ;
#41 = VERTEX_POINT ( 'NONE', #375 ) ;
#42 = CIRCLE ( 'NONE', #268, 84.99999999999963052 ) ;
#43 = DIRECTION ( 'NONE',  ( -0.000000000000000000, -1.000000000000000000, -0.000000000000000000 ) ) ;
#44 = VECTOR ( 'NONE', #34, 1000.000000000000000 ) ;
#45 = CIRCLE ( 'NONE', #28, 1.600000000000004086 ) ;
#46 = FACE_OUTER_BOUND ( 'NONE', #1357, .T. ) ;
#47 = ORIENTED_EDGE ( 'NONE', *, *, #1017, .F. ) ;
#48 = VECTOR ( 'NONE', #706, 1000.000000000000000 ) ;
#49 = EDGE_CURVE ( 'NONE', #335, #945, #1021, .T. ) ;
#50 = DIRECTION ( 'NONE',  ( 0.000000000000000000, 1.000000000000000000, 0.000000000000000000 ) ) ;
#51 = CARTESIAN_POINT ( 'NONE',  ( 29.34493141924195214, 48.39999999999999858, 51.97234841721148513 ) ) ;
#52 = FACE_OUTER_BOUND ( 'NONE', #158, .T. ) ;
#53 = CARTESIAN_POINT ( 'NONE',  ( 49.92017209138204237, 43.39999999999999858, 7.197332653602018127 ) ) ;
#54 = ORIENTED_EDGE ( 'NONE', *, *, #845, .T. ) ;
#55 = EDGE_CURVE ( 'NONE', #1131, #209, #522, .T. ) ;
#56 = CARTESIAN_POINT ( 'NONE',  ( 78.00000000000000000, 43.39999999999999858, -13.00000000000000000 ) ) ;
#57 = CARTESIAN_POINT ( 'NONE',  ( 69.50000000000000000, 38.87451660040608203, 29.80000000000000782 ) ) ;
#58 = CARTESIAN_POINT ( 'NONE',  ( 69.50000000000000000, 38.87451660040608203, 28.20000000000000284 ) ) ;
#59 = CARTESIAN_POINT ( 'NONE',  ( 46.18951439602320619, 48.39999999999999858, -46.41959456802228345 ) ) ;
#60 = VERTEX_POINT ( 'NONE', #1037 ) ;
#61 = DIRECTION ( 'NONE',  ( 0.7071067811865469066, 0.000000000000000000, -0.7071067811865482389 ) ) ;
#62 = ORIENTED_EDGE ( 'NONE', *, *, #761, .T. ) ;
#63 = CARTESIAN_POINT ( 'NONE',  ( 78.64058469130669948, 48.39999999999999858, 33.59168413613174664 ) ) ;
#64 = EDGE_CURVE ( 'NONE', #221, #701, #1015, .T. ) ;
#65 = VECTOR ( 'NONE', #1271, 1000.000000000000000 ) ;
#66 = LINE ( 'NONE', #1129, #48 ) ;
#67 = CARTESIAN_POINT ( 'NONE',  ( 79.49592939232516642, 43.39999999999999858, -12.76697142838393795 ) ) ;
#68 = VECTOR ( 'NONE', #651, 1000.000000000000000 ) ;
#69 = ORIENTED_EDGE ( 'NONE', *, *, #338, .T. ) ;
#70 = CIRCLE ( 'NONE', #1272, 4.999999999999999112 ) ;
#71 = DIRECTION ( 'NONE',  ( 0.000000000000000000, 0.000000000000000000, -1.000000000000000000 ) ) ;
#72 = CIRCLE ( 'NONE', #156, 5.000000000000000000 ) ;
#73 = DIRECTION ( 'NONE',  ( 0.000000000000000000, 1.000000000000000000, 0.000000000000000000 ) ) ;
#74 = VERTEX_POINT ( 'NONE', #1030 ) ;
#75 = DIRECTION ( 'NONE',  ( 0.000000000000000000, 0.000000000000000000, -1.000000000000000000 ) ) ;
#76 = PLANE ( 'NONE',  #645 ) ;
#77 = DIRECTION ( 'NONE',  ( 0.000000000000000000, 0.000000000000000000, 1.000000000000000000 ) ) ;
#78 = ORIENTED_EDGE ( 'NONE', *, *, #529, .F. ) ;
#79 = DIRECTION ( 'NONE',  ( 2.775557561562890957E-15, 0.000000000000000000, -1.000000000000000000 ) ) ;
#80 = DIRECTION ( 'NONE',  ( 0.000000000000000000, 0.000000000000000000, 1.000000000000000000 ) ) ;
#81 = CARTESIAN_POINT ( 'NONE',  ( 51.97234841721103038, 43.39999999999999858, 33.58757210636078838 ) ) ;
#82 = DIRECTION ( 'NONE',  ( 0.000000000000000000, 1.000000000000000000, 0.000000000000000000 ) ) ;
#83 = EDGE_CURVE ( 'NONE', #146, #1314, #995, .T. ) ;
#84 = CYLINDRICAL_SURFACE ( 'NONE', #414, 1.600000000000004086 ) ;
#85 = VERTEX_POINT ( 'NONE', #816 ) ;
#86 = ADVANCED_FACE ( 'NONE', ( #1356 ), #157, .F. ) ;
#87 = DIRECTION ( 'NONE',  ( 0.000000000000000000, 0.000000000000000000, 1.000000000000000000 ) ) ;
#88 = CARTESIAN_POINT ( 'NONE',  ( 66.11448404094313958, 48.39999999999999858, 30.75914498161433741 ) ) ;
#89 = ORIENTED_EDGE ( 'NONE', *, *, #952, .T. ) ;
#90 = DIRECTION ( 'NONE',  ( -0.000000000000000000, 1.000000000000000000, 0.000000000000000000 ) ) ;
#91 = AXIS2_PLACEMENT_3D ( 'NONE', #310, #1295, #87 ) ;
#92 = VECTOR ( 'NONE', #308, 1000.000000000000000 ) ;
#93 = EDGE_CURVE ( 'NONE', #582, #106, #1093, .T. ) ;
#94 = VECTOR ( 'NONE', #372, 1000.000000000000000 ) ;
#95 = DIRECTION ( 'NONE',  ( 0.000000000000000000, 0.000000000000000000, 1.000000000000000000 ) ) ;
#96 = DIRECTION ( 'NONE',  ( 0.7071067811865473507, -0.000000000000000000, 0.7071067811865477948 ) ) ;
#97 = LINE ( 'NONE', #773, #180 ) ;
#98 = DIRECTION ( 'NONE',  ( -0.5150380749100557098, -0.000000000000000000, -0.8571673007021114454 ) ) ;
#99 = VERTEX_POINT ( 'NONE', #1156 ) ;
#100 = CARTESIAN_POINT ( 'NONE',  ( 45.16312671864704242, 43.39999999999999858, -40.80297844118578610 ) ) ;
#101 = CARTESIAN_POINT ( 'NONE',  ( 45.16312671864704242, 48.39999999999999858, -42.30297844118578610 ) ) ;
#102 = ORIENTED_EDGE ( 'NONE', *, *, #1237, .F. ) ;
#103 = ORIENTED_EDGE ( 'NONE', *, *, #356, .T. ) ;
#104 = DIRECTION ( 'NONE',  ( -0.1218693434051398711, 0.000000000000000000, 0.9925461516413228713 ) ) ;
#105 = CARTESIAN_POINT ( 'NONE',  ( 29.34493141924195214, 43.39999999999999858, 51.97234841721148513 ) ) ;
#106 = VERTEX_POINT ( 'NONE', #1345 ) ;
#107 = AXIS2_PLACEMENT_3D ( 'NONE', #408, #1269, #298 ) ;
#108 = DIRECTION ( 'NONE',  ( 0.000000000000000000, 0.000000000000000000, -1.000000000000000000 ) ) ;
#109 = CIRCLE ( 'NONE', #996, 1.500000000000001332 ) ;
#110 = VECTOR ( 'NONE', #558, 1000.000000000000114 ) ;
#111 = VERTEX_POINT ( 'NONE', #510 ) ;
#112 = VERTEX_POINT ( 'NONE', #169 ) ;
#113 = LINE ( 'NONE', #1297, #4 ) ;
#114 = AXIS2_PLACEMENT_3D ( 'NONE', #561, #481, #791 ) ;
#115 = EDGE_CURVE ( 'NONE', #111, #772, #247, .T. ) ;
#116 = FACE_OUTER_BOUND ( 'NONE', #1016, .T. ) ;
#117 = VERTEX_POINT ( 'NONE', #388 ) ;
#118 = ORIENTED_EDGE ( 'NONE', *, *, #448, .F. ) ;
#119 = FACE_OUTER_BOUND ( 'NONE', #1304, .T. ) ;
#120 = ADVANCED_FACE ( 'NONE', ( #1253 ), #1047, .F. ) ;
#121 = VERTEX_POINT ( 'NONE', #182 ) ;
#122 = CARTESIAN_POINT ( 'NONE',  ( 52.49536246593231681, 43.39999999999999858, 11.48316915711257025 ) ) ;
#123 = EDGE_CURVE ( 'NONE', #677, #317, #1068, .T. ) ;
#124 = ORIENTED_EDGE ( 'NONE', *, *, #283, .F. ) ;
#125 = DIRECTION ( 'NONE',  ( -0.000000000000000000, -1.000000000000000000, -0.000000000000000000 ) ) ;
#126 = FACE_BOUND ( 'NONE', #588, .T. ) ;
#127 = ORIENTED_EDGE ( 'NONE', *, *, #38, .T. ) ;
#128 = CYLINDRICAL_SURFACE ( 'NONE', #114, 5.000000000000000888 ) ;
#129 = AXIS2_PLACEMENT_3D ( 'NONE', #608, #703, #1058 ) ;
#130 = ORIENTED_EDGE ( 'NONE', *, *, #155, .F. ) ;
#131 = DIRECTION ( 'NONE',  ( 0.000000000000000000, 0.000000000000000000, -1.000000000000000000 ) ) ;
#132 = CIRCLE ( 'NONE', #1019, 1.600000000000005862 ) ;
#133 = AXIS2_PLACEMENT_3D ( 'NONE', #234, #1002, #874 ) ;
#134 = CYLINDRICAL_SURFACE ( 'NONE', #684, 5.000000000000000888 ) ;
#135 = ORIENTED_EDGE ( 'NONE', *, *, #123, .T. ) ;
#136 = ORIENTED_EDGE ( 'NONE', *, *, #137, .T. ) ;
#137 = EDGE_CURVE ( 'NONE', #41, #121, #314, .T. ) ;
#138 = CARTESIAN_POINT ( 'NONE',  ( 78.00000000000000000, 43.39999999999999858, -13.00000000000000000 ) ) ;
#139 = CARTESIAN_POINT ( 'NONE',  ( 52.49536246593231681, 15.54475805715730630, 11.48316915711257025 ) ) ;
#140 = ORIENTED_EDGE ( 'NONE', *, *, #783, .F. ) ;
#141 = DIRECTION ( 'NONE',  ( 0.000000000000000000, 0.000000000000000000, 1.000000000000000000 ) ) ;
#142 = ORIENTED_EDGE ( 'NONE', *, *, #1196, .T. ) ;
#143 = CARTESIAN_POINT ( 'NONE',  ( 57.62920266670384706, 15.54475805715730630, 23.68807716974958311 ) ) ;
#144 = EDGE_CURVE ( 'NONE', #352, #111, #1172, .T. ) ;
#145 = FACE_OUTER_BOUND ( 'NONE', #194, .T. ) ;
#146 = VERTEX_POINT ( 'NONE', #1371 ) ;
#147 = CARTESIAN_POINT ( 'NONE',  ( 59.04341622907766407, 48.39999999999999858, 30.75914498161434807 ) ) ;
#148 = DIRECTION ( 'NONE',  ( 0.7071067811865473507, 0.000000000000000000, 0.7071067811865477948 ) ) ;
#149 = VECTOR ( 'NONE', #148, 999.9999999999998863 ) ;
#150 = CARTESIAN_POINT ( 'NONE',  ( 79.50000000000000000, 43.39999999999999858, -0.7499999999999945599 ) ) ;
#151 = COLOUR_RGB ( '',0.7921568627450980005, 0.8196078431372548767, 0.9333333333333333481 ) ;
#152 = VECTOR ( 'NONE', #251, 1000.000000000000000 ) ;
#153 = CARTESIAN_POINT ( 'NONE',  ( 45.16312671864704242, 48.39999999999999858, -40.80297844118578610 ) ) ;
#154 = ORIENTED_EDGE ( 'NONE', *, *, #420, .T. ) ;
#155 = EDGE_CURVE ( 'NONE', #1082, #664, #873, .T. ) ;
#156 = AXIS2_PLACEMENT_3D ( 'NONE', #122, #1214, #576 ) ;
#157 = PLANE ( 'NONE',  #1201 ) ;
#158 = EDGE_LOOP ( 'NONE', ( #1143, #1160, #449, #437 ) ) ;
#159 = LINE ( 'NONE', #57, #644 ) ;
#160 = CARTESIAN_POINT ( 'NONE',  ( 51.97234841721103038, 43.39999999999999858, 35.08757210636078838 ) ) ;
#161 = CARTESIAN_POINT ( 'NONE',  ( 69.50000000000000000, 48.39999999999999858, 28.20000000000000284 ) ) ;
#162 = EDGE_LOOP ( 'NONE', ( #1219, #1296 ) ) ;
#163 = CARTESIAN_POINT ( 'NONE',  ( 67.30607546733548929, 43.39999999999999858, -11.27573523923572907 ) ) ;
#164 = EDGE_CURVE ( 'NONE', #639, #1209, #1177, .T. ) ;
#165 = ORIENTED_EDGE ( 'NONE', *, *, #187, .F. ) ;
#166 = DIRECTION ( 'NONE',  ( 0.000000000000000000, 0.000000000000000000, 1.000000000000000000 ) ) ;
#167 = LINE ( 'NONE', #153, #1139 ) ;
#168 = ORIENTED_EDGE ( 'NONE', *, *, #239, .T. ) ;
#169 = CARTESIAN_POINT ( 'NONE',  ( 54.09366876077110931, 48.39999999999999858, 20.15254326381684535 ) ) ;
#170 = EDGE_CURVE ( 'NONE', #117, #850, #1, .T. ) ;
#171 = ORIENTED_EDGE ( 'NONE', *, *, #206, .T. ) ;
#172 = DIRECTION ( 'NONE',  ( -0.000000000000000000, -1.000000000000000000, -0.000000000000000000 ) ) ;
#173 = CIRCLE ( 'NONE', #107, 1.500000000000001332 ) ;
#174 = CARTESIAN_POINT ( 'NONE',  ( 84.43118714041850126, 43.39999999999999858, -13.56898823611595439 ) ) ;
#175 = CARTESIAN_POINT ( 'NONE',  ( 62.67442126558891857, 43.39999999999999858, -13.15929021731400361 ) ) ;
#176 = AXIS2_PLACEMENT_3D ( 'NONE', #941, #1342, #77 ) ;
#177 = VERTEX_POINT ( 'NONE', #1074 ) ;
#178 = AXIS2_PLACEMENT_3D ( 'NONE', #724, #867, #513 ) ;
#179 = DIRECTION ( 'NONE',  ( -0.000000000000000000, -1.000000000000000000, -0.000000000000000000 ) ) ;
#180 = VECTOR ( 'NONE', #509, 1000.000000000000114 ) ;
#181 = DIRECTION ( 'NONE',  ( 0.000000000000000000, 0.000000000000000000, -1.000000000000000000 ) ) ;
#182 = CARTESIAN_POINT ( 'NONE',  ( 33.58757210636080259, 43.39999999999999858, 50.47234841721104459 ) ) ;
#183 = EDGE_CURVE ( 'NONE', #567, #358, #42, .T. ) ;
#184 = ORIENTED_EDGE ( 'NONE', *, *, #1155, .T. ) ;
#185 = CARTESIAN_POINT ( 'NONE',  ( 62.67442126558891857, 48.39999999999999858, -13.15929021731400361 ) ) ;
#186 = UNCERTAINTY_MEASURE_WITH_UNIT (LENGTH_MEASURE( 1.000000000000000082E-05 ), #1057, 'distance_accuracy_value', 'NONE');
#187 = EDGE_CURVE ( 'NONE', #777, #1082, #321, .T. ) ;
#188 = DIRECTION ( 'NONE',  ( 0.000000000000000000, -1.000000000000000000, -0.000000000000000000 ) ) ;
#189 = FACE_OUTER_BOUND ( 'NONE', #1031, .T. ) ;
#190 = DIRECTION ( 'NONE',  ( -0.000000000000000000, -1.000000000000000000, -0.000000000000000000 ) ) ;
#191 = VERTEX_POINT ( 'NONE', #1190 ) ;
#192 =( NAMED_UNIT ( * ) PLANE_ANGLE_UNIT ( ) SI_UNIT ( $, .RADIAN. ) );
#193 = DIRECTION ( 'NONE',  ( 0.000000000000000000, 1.000000000000000000, 0.000000000000000000 ) ) ;
#194 = EDGE_LOOP ( 'NONE', ( #1026, #634, #323, #1260 ) ) ;
#195 = CARTESIAN_POINT ( 'NONE',  ( 46.18951439602320619, 43.39999999999999858, -46.41959456802228345 ) ) ;
#196 = LINE ( 'NONE', #793, #297 ) ;
#197 = CARTESIAN_POINT ( 'NONE',  ( 41.04651059181053796, 48.39999999999999858, -43.32936611856194986 ) ) ;
#198 = ADVANCED_FACE ( 'NONE', ( #409 ), #1386, .F. ) ;
#199 = CARTESIAN_POINT ( 'NONE',  ( 29.34493141924195214, 48.39999999999999858, 51.97234841721148513 ) ) ;
#200 = LINE ( 'NONE', #1387, #803 ) ;
#201 = DIRECTION ( 'NONE',  ( -0.000000000000000000, 1.000000000000000000, 0.000000000000000000 ) ) ;
#202 = ORIENTED_EDGE ( 'NONE', *, *, #1075, .T. ) ;
#203 = CIRCLE ( 'NONE', #91, 1.600000000000005862 ) ;
#204 = AXIS2_PLACEMENT_3D ( 'NONE', #425, #1073, #959 ) ;
#205 = CARTESIAN_POINT ( 'NONE',  ( 84.43118714041850126, 48.39999999999999858, -13.56898823611595439 ) ) ;
#206 = EDGE_CURVE ( 'NONE', #582, #209, #861, .T. ) ;
#207 = AXIS2_PLACEMENT_3D ( 'NONE', #1060, #869, #950 ) ;
#208 = VECTOR ( 'NONE', #1337, 1000.000000000000000 ) ;
#209 = VERTEX_POINT ( 'NONE', #971 ) ;
#210 = ORIENTED_EDGE ( 'NONE', *, *, #555, .T. ) ;
#211 = CARTESIAN_POINT ( 'NONE',  ( 69.50000000000000000, 48.39999999999999858, 26.59999999999999787 ) ) ;
#212 = EDGE_LOOP ( 'NONE', ( #752, #911 ) ) ;
#213 = DIRECTION ( 'NONE',  ( -0.000000000000000000, 1.000000000000000000, -0.000000000000000000 ) ) ;
#214 = EDGE_CURVE ( 'NONE', #1009, #352, #566, .T. ) ;
#215 = LINE ( 'NONE', #443, #275 ) ;
#216 = EDGE_LOOP ( 'NONE', ( #254, #557 ) ) ;
#217 = ORIENTED_EDGE ( 'NONE', *, *, #1346, .F. ) ;
#218 = LINE ( 'NONE', #17, #905 ) ;
#219 = DIRECTION ( 'NONE',  ( 0.000000000000000000, 1.000000000000000000, 0.000000000000000000 ) ) ;
#220 = EDGE_CURVE ( 'NONE', #209, #1131, #203, .T. ) ;
#221 = VERTEX_POINT ( 'NONE', #299 ) ;
#222 = PLANE ( 'NONE',  #418 ) ;
#223 = CARTESIAN_POINT ( 'NONE',  ( 69.01672159629576697, 48.39999999999999858, -18.13676211729657695 ) ) ;
#224 = ORIENTED_EDGE ( 'NONE', *, *, #1204, .F. ) ;
#225 = VECTOR ( 'NONE', #282, 1000.000000000000000 ) ;
#226 = VECTOR ( 'NONE', #43, 1000.000000000000000 ) ;
#227 = ORIENTED_EDGE ( 'NONE', *, *, #838, .F. ) ;
#228 = CARTESIAN_POINT ( 'NONE',  ( 29.34493141924195214, 48.39999999999999858, 51.97234841721148513 ) ) ;
#229 = VECTOR ( 'NONE', #1024, 1000.000000000000000 ) ;
#230 = EDGE_CURVE ( 'NONE', #677, #36, #1377, .T. ) ;
#231 = EDGE_CURVE ( 'NONE', #99, #112, #1344, .T. ) ;
#232 = DIRECTION ( 'NONE',  ( 0.000000000000000000, 0.000000000000000000, -1.000000000000000000 ) ) ;
#233 = ORIENTED_EDGE ( 'NONE', *, *, #430, .F. ) ;
#234 = CARTESIAN_POINT ( 'NONE',  ( 62.67442126558891857, 43.39999999999999858, -13.15929021731400361 ) ) ;
#235 = ORIENTED_EDGE ( 'NONE', *, *, #1138, .F. ) ;
#236 = CARTESIAN_POINT ( 'NONE',  ( 45.16312671864704242, 48.39999999999999858, -40.80297844118578610 ) ) ;
#237 = CARTESIAN_POINT ( 'NONE',  ( 0.5318054228320850951, 48.39999999999999858, 0.06529749532824952185 ) ) ;
#238 = ORIENTED_EDGE ( 'NONE', *, *, #338, .F. ) ;
#239 = EDGE_CURVE ( 'NONE', #808, #350, #1044, .T. ) ;
#240 = DIRECTION ( 'NONE',  ( 0.000000000000000000, 0.000000000000000000, -1.000000000000000000 ) ) ;
#241 = ORIENTED_EDGE ( 'NONE', *, *, #155, .T. ) ;
#242 = FACE_BOUND ( 'NONE', #680, .T. ) ;
#243 = CARTESIAN_POINT ( 'NONE',  ( 33.58757210636123602, 43.39999999999999858, 56.21498910433076901 ) ) ;
#244 = ORIENTED_EDGE ( 'NONE', *, *, #1029, .T. ) ;
#245 = CYLINDRICAL_SURFACE ( 'NONE', #1100, 1.600000000000005862 ) ;
#246 = ADVANCED_FACE ( 'NONE', ( #1153 ), #821, .T. ) ;
#247 = CIRCLE ( 'NONE', #1066, 5.000000000000000888 ) ;
#248 = EDGE_LOOP ( 'NONE', ( #789, #708, #918, #360 ) ) ;
#249 = VECTOR ( 'NONE', #30, 1000.000000000000000 ) ;
#250 = AXIS2_PLACEMENT_3D ( 'NONE', #1187, #650, #537 ) ;
#251 = DIRECTION ( 'NONE',  ( -0.000000000000000000, -1.000000000000000000, -0.000000000000000000 ) ) ;
#252 = CIRCLE ( 'NONE', #1291, 5.000000000000000000 ) ;
#253 = FACE_BOUND ( 'NONE', #1322, .T. ) ;
#254 = ORIENTED_EDGE ( 'NONE', *, *, #381, .F. ) ;
#255 = ORIENTED_EDGE ( 'NONE', *, *, #1189, .T. ) ;
#256 = DIRECTION ( 'NONE',  ( -0.5150380749100557098, -0.000000000000000000, -0.8571673007021114454 ) ) ;
#257 = CYLINDRICAL_SURFACE ( 'NONE', #931, 4.250000000000005329 ) ;
#258 = FACE_BOUND ( 'NONE', #1278, .T. ) ;
#259 = EDGE_LOOP ( 'NONE', ( #1215, #62, #410, #1043 ) ) ;
#260 = DIRECTION ( 'NONE',  ( -0.000000000000000000, 1.000000000000000000, -0.000000000000000000 ) ) ;
#261 = CARTESIAN_POINT ( 'NONE',  ( 46.18951439602320619, 43.39999999999999858, -46.41959456802228345 ) ) ;
#262 = EDGE_CURVE ( 'NONE', #85, #99, #1220, .T. ) ;
#263 = CARTESIAN_POINT ( 'NONE',  ( 29.34493141924195214, 48.39999999999999858, 51.97234841721148513 ) ) ;
#264 = LINE ( 'NONE', #243, #44 ) ;
#265 = ORIENTED_EDGE ( 'NONE', *, *, #1065, .F. ) ;
#266 = CYLINDRICAL_SURFACE ( 'NONE', #129, 1.500000000000004885 ) ;
#267 = VECTOR ( 'NONE', #846, 1000.000000000000000 ) ;
#268 = AXIS2_PLACEMENT_3D ( 'NONE', #1067, #865, #633 ) ;
#269 = ORIENTED_EDGE ( 'NONE', *, *, #811, .F. ) ;
#270 = PLANE ( 'NONE',  #1250 ) ;
#271 = EDGE_CURVE ( 'NONE', #772, #858, #1323, .T. ) ;
#272 = CARTESIAN_POINT ( 'NONE',  ( 62.57895013501040182, 43.39999999999999858, 27.22361107568160676 ) ) ;
#273 = EDGE_LOOP ( 'NONE', ( #765, #136 ) ) ;
#274 = EDGE_CURVE ( 'NONE', #1314, #41, #606, .T. ) ;
#275 = VECTOR ( 'NONE', #769, 1000.000000000000000 ) ;
#276 = DIRECTION ( 'NONE',  ( -0.000000000000000000, -1.000000000000000000, -0.000000000000000000 ) ) ;
#277 = ORIENTED_EDGE ( 'NONE', *, *, #985, .F. ) ;
#278 = CARTESIAN_POINT ( 'NONE',  ( 76.92073901777487777, 43.39999999999999858, -17.05280793189450250 ) ) ;
#279 = DIRECTION ( 'NONE',  ( 0.000000000000000000, 0.000000000000000000, 1.000000000000000000 ) ) ;
#280 = CARTESIAN_POINT ( 'NONE',  ( 74.04595061669053280, 48.39999999999999858, 31.61954374549624092 ) ) ;
#281 = ORIENTED_EDGE ( 'NONE', *, *, #879, .T. ) ;
#282 = DIRECTION ( 'NONE',  ( -0.000000000000000000, 1.000000000000000000, -0.000000000000000000 ) ) ;
#283 = EDGE_CURVE ( 'NONE', #572, #6, #797, .T. ) ;
#284 = DIRECTION ( 'NONE',  ( 0.000000000000000000, 1.000000000000000000, 0.000000000000000000 ) ) ;
#285 = ORIENTED_EDGE ( 'NONE', *, *, #1135, .T. ) ;
#286 = CARTESIAN_POINT ( 'NONE',  ( 33.58757210636080259, 48.39999999999999858, 51.97234841721104459 ) ) ;
#287 = CARTESIAN_POINT ( 'NONE',  ( 56.47548792926680505, 48.39999999999999858, -7.943215570130718994 ) ) ;
#288 = ORIENTED_EDGE ( 'NONE', *, *, #734, .F. ) ;
#289 = DIRECTION ( 'NONE',  ( 0.000000000000000000, -1.000000000000000000, -0.000000000000000000 ) ) ;
#290 = ADVANCED_FACE ( 'NONE', ( #508 ), #944, .F. ) ;
#291 = CARTESIAN_POINT ( 'NONE',  ( 51.97234841721103038, 43.39999999999999858, 33.58757210636078838 ) ) ;
#292 = VERTEX_POINT ( 'NONE', #855 ) ;
#293 = DIRECTION ( 'NONE',  ( 0.000000000000000000, 0.000000000000000000, 1.000000000000000000 ) ) ;
#294 = DIRECTION ( 'NONE',  ( 0.000000000000000000, 0.000000000000000000, 1.000000000000000000 ) ) ;
#295 = CIRCLE ( 'NONE', #568, 5.000000000000000888 ) ;
#296 = ORIENTED_EDGE ( 'NONE', *, *, #771, .F. ) ;
#297 = VECTOR ( 'NONE', #125, 1000.000000000000000 ) ;
#298 = DIRECTION ( 'NONE',  ( 0.000000000000000000, 0.000000000000000000, 1.000000000000000000 ) ) ;
#299 = CARTESIAN_POINT ( 'NONE',  ( 69.50000000000000000, 43.39999999999999858, 26.59999999999999787 ) ) ;
#300 = CARTESIAN_POINT ( 'NONE',  ( 49.92017209138204237, 48.39999999999999858, 7.197332653602017238 ) ) ;
#301 = DIRECTION ( 'NONE',  ( 0.000000000000000000, 1.000000000000000000, 0.000000000000000000 ) ) ;
#302 = LINE ( 'NONE', #199, #1203 ) ;
#303 = ORIENTED_EDGE ( 'NONE', *, *, #384, .F. ) ;
#304 = ORIENTED_EDGE ( 'NONE', *, *, #1279, .T. ) ;
#305 = DIRECTION ( 'NONE',  ( -0.8571673007021110013, -0.000000000000000000, 0.5150380749100562650 ) ) ;
#306 = ORIENTED_EDGE ( 'NONE', *, *, #21, .F. ) ;
#307 = EDGE_CURVE ( 'NONE', #658, #683, #173, .T. ) ;
#308 = DIRECTION ( 'NONE',  ( 0.000000000000000000, -1.000000000000000000, 0.000000000000000000 ) ) ;
#309 = ORIENTED_EDGE ( 'NONE', *, *, #21, .T. ) ;
#310 = CARTESIAN_POINT ( 'NONE',  ( 78.00000000000000000, 48.39999999999999858, -13.00000000000000000 ) ) ;
#311 = VERTEX_POINT ( 'NONE', #741 ) ;
#312 = FACE_OUTER_BOUND ( 'NONE', #368, .T. ) ;
#313 = CYLINDRICAL_SURFACE ( 'NONE', #393, 5.000000000000000888 ) ;
#314 = CIRCLE ( 'NONE', #1114, 1.500000000000001332 ) ;
#315 = VECTOR ( 'NONE', #877, 1000.000000000000000 ) ;
#316 = LINE ( 'NONE', #1293, #24 ) ;
#317 = VERTEX_POINT ( 'NONE', #1170 ) ;
#318 = ADVANCED_FACE ( 'NONE', ( #1354 ), #397, .F. ) ;
#319 = CIRCLE ( 'NONE', #1116, 1.499999999999994449 ) ;
#320 = CARTESIAN_POINT ( 'NONE',  ( 69.50000000000000000, 43.39999999999999858, 28.20000000000000284 ) ) ;
#321 = LINE ( 'NONE', #528, #65 ) ;
#322 = AXIS2_PLACEMENT_3D ( 'NONE', #699, #1223, #1150 ) ;
#323 = ORIENTED_EDGE ( 'NONE', *, *, #747, .T. ) ;
#324 = ORIENTED_EDGE ( 'NONE', *, *, #1339, .F. ) ;
#325 = DIRECTION ( 'NONE',  ( 0.5150380749100557098, 0.000000000000000000, 0.8571673007021114454 ) ) ;
#326 = CARTESIAN_POINT ( 'NONE',  ( 79.50000000000000000, 31.37918471982867885, -9.250000000000005329 ) ) ;
#327 = EDGE_LOOP ( 'NONE', ( #241, #1200, #288, #1146 ) ) ;
#328 = ADVANCED_FACE ( 'NONE', ( #1062 ), #84, .F. ) ;
#329 = CARTESIAN_POINT ( 'NONE',  ( 33.58757210636080259, 48.39999999999999858, 53.47234841721104459 ) ) ;
#330 = ORIENTED_EDGE ( 'NONE', *, *, #670, .F. ) ;
#331 = FACE_BOUND ( 'NONE', #1267, .T. ) ;
#332 = DIRECTION ( 'NONE',  ( -0.000000000000000000, -1.000000000000000000, -0.000000000000000000 ) ) ;
#333 = ORIENTED_EDGE ( 'NONE', *, *, #1257, .F. ) ;
#334 = EDGE_CURVE ( 'NONE', #601, #1039, #302, .T. ) ;
#335 = VERTEX_POINT ( 'NONE', #1064 ) ;
#336 = ORIENTED_EDGE ( 'NONE', *, *, #1237, .T. ) ;
#337 = CARTESIAN_POINT ( 'NONE',  ( 69.00000000000000000, 43.39999999999999858, 12.00000000000000000 ) ) ;
#338 = EDGE_CURVE ( 'NONE', #550, #493, #532, .T. ) ;
#339 = CARTESIAN_POINT ( 'NONE',  ( 46.18951439602320619, 43.39999999999999858, -46.41959456802228345 ) ) ;
#340 = ORIENTED_EDGE ( 'NONE', *, *, #1085, .F. ) ;
#341 = AXIS2_PLACEMENT_3D ( 'NONE', #291, #1234, #722 ) ;
#342 = STYLED_ITEM ( 'NONE', ( #796 ), #507 ) ;
#343 = CARTESIAN_POINT ( 'NONE',  ( 62.67442126558891857, 43.39999999999999858, -11.65929021731400006 ) ) ;
#344 = VECTOR ( 'NONE', #1284, 1000.000000000000000 ) ;
#345 = ORIENTED_EDGE ( 'NONE', *, *, #1235, .T. ) ;
#346 = CARTESIAN_POINT ( 'NONE',  ( 51.97234841721103038, 48.39999999999999858, 33.58757210636078838 ) ) ;
#347 = AXIS2_PLACEMENT_3D ( 'NONE', #320, #1090, #717 ) ;
#348 = EDGE_CURVE ( 'NONE', #1094, #563, #1096, .T. ) ;
#349 = LINE ( 'NONE', #788, #662 ) ;
#350 = VERTEX_POINT ( 'NONE', #422 ) ;
#351 = CARTESIAN_POINT ( 'NONE',  ( 62.57895013501040182, 48.39999999999999858, 27.22361107568160676 ) ) ;
#352 = VERTEX_POINT ( 'NONE', #776 ) ;
#353 = CARTESIAN_POINT ( 'NONE',  ( 41.04651059181053796, 43.39999999999999858, -43.32936611856194986 ) ) ;
#354 = PRODUCT ( 'top motor holder', 'top motor holder', '', ( #742 ) ) ;
#355 = EDGE_LOOP ( 'NONE', ( #39, #993, #1103, #217 ) ) ;
#356 = EDGE_CURVE ( 'NONE', #820, #1055, #984, .T. ) ;
#357 = DIRECTION ( 'NONE',  ( 0.000000000000000000, 1.000000000000000000, 0.000000000000000000 ) ) ;
#358 = VERTEX_POINT ( 'NONE', #205 ) ;
#359 = CARTESIAN_POINT ( 'NONE',  ( 69.50000000000000000, 38.87451660040608203, 26.59999999999999787 ) ) ;
#360 = ORIENTED_EDGE ( 'NONE', *, *, #1279, .F. ) ;
#361 = CARTESIAN_POINT ( 'NONE',  ( 60.72653840579042850, 48.39999999999999858, -1.537698093119816978 ) ) ;
#362 = CARTESIAN_POINT ( 'NONE',  ( 33.58757210636123602, 48.39999999999999858, 56.21498910433076901 ) ) ;
#363 = CARTESIAN_POINT ( 'NONE',  ( 70.51041671075779504, 43.39999999999999858, 35.15507765142898933 ) ) ;
#364 = CARTESIAN_POINT ( 'NONE',  ( 70.51041671075779504, 48.39999999999999858, 35.15507765142898933 ) ) ;
#365 = ORIENTED_EDGE ( 'NONE', *, *, #676, .T. ) ;
#366 = CARTESIAN_POINT ( 'NONE',  ( 52.49536246593231681, 48.39999999999999858, 11.48316915711257025 ) ) ;
#367 = AXIS2_PLACEMENT_3D ( 'NONE', #960, #201, #108 ) ;
#368 = EDGE_LOOP ( 'NONE', ( #1124, #901, #655, #324 ) ) ;
#369 = AXIS2_PLACEMENT_3D ( 'NONE', #597, #385, #486 ) ;
#370 = VECTOR ( 'NONE', #1078, 1000.000000000000000 ) ;
#371 = CARTESIAN_POINT ( 'NONE',  ( 33.58757210636080259, 48.39999999999999858, 51.97234841721104459 ) ) ;
#372 = DIRECTION ( 'NONE',  ( 0.000000000000000000, -1.000000000000000000, 0.000000000000000000 ) ) ;
#373 = ORIENTED_EDGE ( 'NONE', *, *, #1138, .T. ) ;
#374 = EDGE_CURVE ( 'NONE', #60, #335, #928, .T. ) ;
#375 = CARTESIAN_POINT ( 'NONE',  ( 33.58757210636080259, 43.39999999999999858, 53.47234841721104459 ) ) ;
#376 = DIRECTION ( 'NONE',  ( -0.8571673007021113344, 0.000000000000000000, 0.5150380749100558209 ) ) ;
#377 = DIRECTION ( 'NONE',  ( 0.8571673007021110013, 0.000000000000000000, -0.5150380749100562650 ) ) ;
#378 = ORIENTED_EDGE ( 'NONE', *, *, #830, .T. ) ;
#379 = CYLINDRICAL_SURFACE ( 'NONE', #824, 1.500000000000001332 ) ;
#380 = VERTEX_POINT ( 'NONE', #105 ) ;
#381 = EDGE_CURVE ( 'NONE', #311, #191, #735, .T. ) ;
#382 = ORIENTED_EDGE ( 'NONE', *, *, #542, .F. ) ;
#383 = CARTESIAN_POINT ( 'NONE',  ( 50.55813485483837155, 48.39999999999999858, 23.68807716974957955 ) ) ;
#384 = EDGE_CURVE ( 'NONE', #1299, #112, #432, .T. ) ;
#385 = DIRECTION ( 'NONE',  ( 0.000000000000000000, 1.000000000000000000, 0.000000000000000000 ) ) ;
#386 = ORIENTED_EDGE ( 'NONE', *, *, #977, .F. ) ;
#387 = DIRECTION ( 'NONE',  ( -0.000000000000000000, 1.000000000000000000, -0.000000000000000000 ) ) ;
#388 = CARTESIAN_POINT ( 'NONE',  ( 79.50000000000000000, 43.39999999999999858, -9.250000000000005329 ) ) ;
#389 = AXIS2_PLACEMENT_3D ( 'NONE', #519, #213, #743 ) ;
#390 = AXIS2_PLACEMENT_3D ( 'NONE', #1105, #859, #1281 ) ;
#391 = DIRECTION ( 'NONE',  ( 0.000000000000000000, 1.000000000000000000, 0.000000000000000000 ) ) ;
#392 = CYLINDRICAL_SURFACE ( 'NONE', #178, 13.00000000000000178 ) ;
#393 = AXIS2_PLACEMENT_3D ( 'NONE', #412, #758, #523 ) ;
#394 = AXIS2_PLACEMENT_3D ( 'NONE', #58, #909, #923 ) ;
#395 = CARTESIAN_POINT ( 'NONE',  ( 51.97234841721103038, 48.39999999999999858, 33.58757210636078838 ) ) ;
#396 = EDGE_LOOP ( 'NONE', ( #1364, #988, #627, #118 ) ) ;
#397 = CYLINDRICAL_SURFACE ( 'NONE', #1069, 1.500000000000004885 ) ;
#398 = DIRECTION ( 'NONE',  ( 0.9925461516413229823, -0.000000000000000000, 0.1218693434051398850 ) ) ;
#399 = FACE_OUTER_BOUND ( 'NONE', #1302, .T. ) ;
#400 = CARTESIAN_POINT ( 'NONE',  ( 69.00000000000000000, 43.39999999999999858, -1.000000000000000888 ) ) ;
#401 = EDGE_LOOP ( 'NONE', ( #255, #844 ) ) ;
#402 = EDGE_CURVE ( 'NONE', #833, #820, #799, .T. ) ;
#403 = DIRECTION ( 'NONE',  ( 0.000000000000000000, 0.000000000000000000, 1.000000000000000000 ) ) ;
#404 = ORIENTED_EDGE ( 'NONE', *, *, #1306, .T. ) ;
#405 = LINE ( 'NONE', #195, #957 ) ;
#406 = CARTESIAN_POINT ( 'NONE',  ( 64.73088509278520064, 43.39999999999999858, -15.56157174274629185 ) ) ;
#407 = EDGE_LOOP ( 'NONE', ( #672, #373, #12, #202, #31, #1372, #130, #306, #1229, #1137, #210, #843, #942, #365, #386, #427, #417, #154, #382, #423, #693, #719 ) ) ;
#408 = CARTESIAN_POINT ( 'NONE',  ( 45.16312671864704242, 43.39999999999999858, -42.30297844118578610 ) ) ;
#409 = FACE_OUTER_BOUND ( 'NONE', #981, .T. ) ;
#410 = ORIENTED_EDGE ( 'NONE', *, *, #1339, .T. ) ;
#411 = AXIS2_PLACEMENT_3D ( 'NONE', #837, #289, #1162 ) ;
#412 = CARTESIAN_POINT ( 'NONE',  ( 79.49592939232516642, 48.39999999999999858, -12.76697142838393795 ) ) ;
#413 = PLANE ( 'NONE',  #455 ) ;
#414 = AXIS2_PLACEMENT_3D ( 'NONE', #516, #416, #1275 ) ;
#415 = AXIS2_PLACEMENT_3D ( 'NONE', #263, #704, #1134 ) ;
#416 = DIRECTION ( 'NONE',  ( -0.000000000000000000, 1.000000000000000000, -0.000000000000000000 ) ) ;
#417 = ORIENTED_EDGE ( 'NONE', *, *, #586, .F. ) ;
#418 = AXIS2_PLACEMENT_3D ( 'NONE', #1113, #994, #131 ) ;
#419 = CARTESIAN_POINT ( 'NONE',  ( 78.00000000000000000, 38.87451660040608203, -14.60000000000000497 ) ) ;
#420 = EDGE_CURVE ( 'NONE', #447, #639, #295, .T. ) ;
#421 = CYLINDRICAL_SURFACE ( 'NONE', #1140, 1.499999999999994449 ) ;
#422 = CARTESIAN_POINT ( 'NONE',  ( 71.59191197084605562, 43.39999999999999858, -13.85092561378601772 ) ) ;
#423 = ORIENTED_EDGE ( 'NONE', *, *, #1381, .F. ) ;
#424 = DIRECTION ( 'NONE',  ( 0.000000000000000000, -1.000000000000000000, -0.000000000000000000 ) ) ;
#425 = CARTESIAN_POINT ( 'NONE',  ( 79.50000000000000000, 48.39999999999999858, -5.000000000000000000 ) ) ;
#426 = DIRECTION ( 'NONE',  ( 0.5150380749100557098, 0.000000000000000000, 0.8571673007021114454 ) ) ;
#427 = ORIENTED_EDGE ( 'NONE', *, *, #1099, .T. ) ;
#428 = ORIENTED_EDGE ( 'NONE', *, *, #93, .T. ) ;
#429 = LINE ( 'NONE', #1292, #997 ) ;
#430 = EDGE_CURVE ( 'NONE', #1009, #990, #1286, .T. ) ;
#431 = AXIS2_PLACEMENT_3D ( 'NONE', #682, #989, #18 ) ;
#432 = LINE ( 'NONE', #13, #868 ) ;
#433 = ORIENTED_EDGE ( 'NONE', *, *, #348, .T. ) ;
#434 = AXIS2_PLACEMENT_3D ( 'NONE', #1265, #424, #512 ) ;
#435 = DIRECTION ( 'NONE',  ( -0.000000000000000000, 1.000000000000000000, 0.000000000000000000 ) ) ;
#436 = AXIS2_PLACEMENT_3D ( 'NONE', #337, #450, #668 ) ;
#437 = ORIENTED_EDGE ( 'NONE', *, *, #381, .T. ) ;
#438 = FACE_OUTER_BOUND ( 'NONE', #407, .T. ) ;
#439 = DIRECTION ( 'NONE',  ( -0.000000000000000000, 1.000000000000000000, 0.000000000000000000 ) ) ;
#440 = ADVANCED_FACE ( 'NONE', ( #545 ), #671, .F. ) ;
#441 = VERTEX_POINT ( 'NONE', #339 ) ;
#442 = ADVANCED_FACE ( 'NONE', ( #116 ), #763, .F. ) ;
#443 = CARTESIAN_POINT ( 'NONE',  ( 69.00000000000000000, 6.630447378299527905, 25.00000000000000000 ) ) ;
#444 = ORIENTED_EDGE ( 'NONE', *, *, #271, .F. ) ;
#445 = DIRECTION ( 'NONE',  ( -0.7071067811865474617, -0.000000000000000000, 0.7071067811865474617 ) ) ;
#446 = DIRECTION ( 'NONE',  ( 0.000000000000000000, -1.000000000000000000, 0.000000000000000000 ) ) ;
#447 = VERTEX_POINT ( 'NONE', #553 ) ;
#448 = EDGE_CURVE ( 'NONE', #1370, #447, #316, .T. ) ;
#449 = ORIENTED_EDGE ( 'NONE', *, *, #943, .T. ) ;
#450 = DIRECTION ( 'NONE',  ( -0.000000000000000000, 1.000000000000000000, 0.000000000000000000 ) ) ;
#451 = AXIS2_PLACEMENT_3D ( 'NONE', #1249, #276, #71 ) ;
#452 = ORIENTED_EDGE ( 'NONE', *, *, #49, .F. ) ;
#453 = AXIS2_PLACEMENT_3D ( 'NONE', #525, #1088, #871 ) ;
#454 = DIRECTION ( 'NONE',  ( -0.000000000000000000, 1.000000000000000000, 0.000000000000000000 ) ) ;
#455 = AXIS2_PLACEMENT_3D ( 'NONE', #59, #1274, #1033 ) ;
#456 = VECTOR ( 'NONE', #805, 1000.000000000000000 ) ;
#457 = ORIENTED_EDGE ( 'NONE', *, *, #1273, .F. ) ;
#458 = EDGE_CURVE ( 'NONE', #117, #191, #969, .T. ) ;
#459 = DIRECTION ( 'NONE',  ( 0.000000000000000000, 0.000000000000000000, -1.000000000000000000 ) ) ;
#460 = AXIS2_PLACEMENT_3D ( 'NONE', #766, #25, #459 ) ;
#461 = FACE_BOUND ( 'NONE', #216, .T. ) ;
#462 = ORIENTED_EDGE ( 'NONE', *, *, #1127, .T. ) ;
#463 = ORIENTED_EDGE ( 'NONE', *, *, #402, .F. ) ;
#464 = DIRECTION ( 'NONE',  ( 0.000000000000000000, 0.000000000000000000, -1.000000000000000000 ) ) ;
#465 = CARTESIAN_POINT ( 'NONE',  ( 45.16312671864704242, 48.39999999999999858, -43.80297844118578610 ) ) ;
#466 = ORIENTED_EDGE ( 'NONE', *, *, #214, .T. ) ;
#467 = CARTESIAN_POINT ( 'NONE',  ( 45.16312671864704242, 48.39999999999999858, -42.30297844118578610 ) ) ;
#468 = EDGE_LOOP ( 'NONE', ( #885, #762, #1022, #632 ) ) ;
#469 = CARTESIAN_POINT ( 'NONE',  ( 69.01672159629576697, 48.39999999999999858, -13.13676211729657517 ) ) ;
#470 =( NAMED_UNIT ( * ) SI_UNIT ( $, .STERADIAN. ) SOLID_ANGLE_UNIT ( ) );
#471 = EDGE_LOOP ( 'NONE', ( #490, #171, #605, #78 ) ) ;
#472 = APPLICATION_CONTEXT ( 'automotive_design' ) ;
#473 = EDGE_CURVE ( 'NONE', #74, #1209, #9, .T. ) ;
#474 = CARTESIAN_POINT ( 'NONE',  ( 48.95982855999957906, 43.39999999999999858, 15.01870306304530978 ) ) ;
#475 = VERTEX_POINT ( 'NONE', #211 ) ;
#476 = CIRCLE ( 'NONE', #1166, 5.000000000000000888 ) ;
#477 = CARTESIAN_POINT ( 'NONE',  ( 62.67442126558891857, 48.39999999999999858, -14.65929021731400894 ) ) ;
#478 = VECTOR ( 'NONE', #1005, 1000.000000000000000 ) ;
#479 =( LENGTH_UNIT ( ) NAMED_UNIT ( * ) SI_UNIT ( .MILLI., .METRE. ) );
#480 = EDGE_LOOP ( 'NONE', ( #982, #785, #1118, #804 ) ) ;
#481 = DIRECTION ( 'NONE',  ( -0.000000000000000000, -1.000000000000000000, -0.000000000000000000 ) ) ;
#482 = ADVANCED_FACE ( 'NONE', ( #1394 ), #1298, .F. ) ;
#483 = ADVANCED_FACE ( 'NONE', ( #646 ), #1198, .F. ) ;
#484 = DIRECTION ( 'NONE',  ( -0.000000000000000000, 1.000000000000000000, 0.000000000000000000 ) ) ;
#485 = DIRECTION ( 'NONE',  ( -0.7071067811865477948, 0.000000000000000000, 0.7071067811865473507 ) ) ;
#486 = DIRECTION ( 'NONE',  ( 0.000000000000000000, 0.000000000000000000, 1.000000000000000000 ) ) ;
#487 = ORIENTED_EDGE ( 'NONE', *, *, #115, .F. ) ;
#488 = DIRECTION ( 'NONE',  ( -0.000000000000000000, 1.000000000000000000, 0.000000000000000000 ) ) ;
#489 = EDGE_CURVE ( 'NONE', #121, #41, #109, .T. ) ;
#490 = ORIENTED_EDGE ( 'NONE', *, *, #93, .F. ) ;
#491 = FACE_OUTER_BOUND ( 'NONE', #780, .T. ) ;
#492 = CYLINDRICAL_SURFACE ( 'NONE', #954, 1.499999999999994449 ) ;
#493 = VERTEX_POINT ( 'NONE', #581 ) ;
#494 = CARTESIAN_POINT ( 'NONE',  ( 60.42934015416136617, 48.39999999999999858, 0.8827874259357323394 ) ) ;
#495 = AXIS2_PLACEMENT_3D ( 'NONE', #56, #488, #919 ) ;
#496 =( GEOMETRIC_REPRESENTATION_CONTEXT ( 3 ) GLOBAL_UNCERTAINTY_ASSIGNED_CONTEXT ( ( #603 ) ) GLOBAL_UNIT_ASSIGNED_CONTEXT ( ( #479, #1231, #470 ) ) REPRESENTATION_CONTEXT ( 'NONE', 'WORKASPACE' ) );
#497 = DIRECTION ( 'NONE',  ( -0.000000000000000000, -1.000000000000000000, -0.000000000000000000 ) ) ;
#498 = VECTOR ( 'NONE', #172, 1000.000000000000000 ) ;
#499 = DIRECTION ( 'NONE',  ( 0.000000000000000000, -1.000000000000000000, -0.000000000000000000 ) ) ;
#500 = VERTEX_POINT ( 'NONE', #1108 ) ;
#501 = DIRECTION ( 'NONE',  ( 1.387778780781445478E-15, 0.000000000000000000, -1.000000000000000000 ) ) ;
#502 = DIRECTION ( 'NONE',  ( 0.000000000000000000, 1.000000000000000000, 0.000000000000000000 ) ) ;
#503 = CARTESIAN_POINT ( 'NONE',  ( 79.49592939232516642, 43.39999999999999858, -17.76697142838393972 ) ) ;
#504 = CARTESIAN_POINT ( 'NONE',  ( 45.16312671864704242, 43.39999999999999858, -43.80297844118578610 ) ) ;
#505 = ORIENTED_EDGE ( 'NONE', *, *, #884, .T. ) ;
#506 = EDGE_CURVE ( 'NONE', #1242, #829, #587, .T. ) ;
#507 = MANIFOLD_SOLID_BREP ( 'Extrude20', #614 ) ;
#508 = FACE_OUTER_BOUND ( 'NONE', #480, .T. ) ;
#509 = DIRECTION ( 'NONE',  ( 0.7071067811865474617, 0.000000000000000000, 0.7071067811865474617 ) ) ;
#510 = CARTESIAN_POINT ( 'NONE',  ( 71.59191197084605562, 48.39999999999999858, -13.85092561378601772 ) ) ;
#511 = DIRECTION ( 'NONE',  ( 0.000000000000000000, 1.000000000000000000, 0.000000000000000000 ) ) ;
#512 = DIRECTION ( 'NONE',  ( 0.000000000000000000, 0.000000000000000000, -1.000000000000000000 ) ) ;
#513 = DIRECTION ( 'NONE',  ( 0.000000000000000000, 0.000000000000000000, 1.000000000000000000 ) ) ;
#514 = DIRECTION ( 'NONE',  ( 0.8571673007021114454, 0.000000000000000000, -0.5150380749100557098 ) ) ;
#515 = DIRECTION ( 'NONE',  ( 0.000000000000000000, 0.000000000000000000, 1.000000000000000000 ) ) ;
#516 = CARTESIAN_POINT ( 'NONE',  ( 69.50000000000000000, 38.87451660040608203, 28.20000000000000284 ) ) ;
#517 = ADVANCED_FACE ( 'NONE', ( #1326, #1316, #1212, #461, #119, #807, #126, #253, #258 ), #700, .F. ) ;
#518 = EDGE_LOOP ( 'NONE', ( #47, #10, #404, #1305 ) ) ;
#519 = CARTESIAN_POINT ( 'NONE',  ( 79.50000000000000000, 31.37918471982867885, -5.000000000000000000 ) ) ;
#520 = VERTEX_POINT ( 'NONE', #1123 ) ;
#521 = DIRECTION ( 'NONE',  ( 0.000000000000000000, 0.000000000000000000, -1.000000000000000000 ) ) ;
#522 = CIRCLE ( 'NONE', #733, 1.600000000000005862 ) ;
#523 = DIRECTION ( 'NONE',  ( 0.000000000000000000, 0.000000000000000000, -1.000000000000000000 ) ) ;
#524 = CIRCLE ( 'NONE', #1184, 1.500000000000001332 ) ;
#525 = CARTESIAN_POINT ( 'NONE',  ( 62.67442126558891857, 48.39999999999999858, -13.15929021731400361 ) ) ;
#526 = AXIS2_PLACEMENT_3D ( 'NONE', #1301, #22, #556 ) ;
#527 = ADVANCED_FACE ( 'NONE', ( #559 ), #134, .T. ) ;
#528 = CARTESIAN_POINT ( 'NONE',  ( 41.04651059181053796, 48.39999999999999858, -43.32936611856194986 ) ) ;
#529 = EDGE_CURVE ( 'NONE', #106, #1131, #1130, .T. ) ;
#530 = LINE ( 'NONE', #948, #370 ) ;
#531 = DIRECTION ( 'NONE',  ( 0.000000000000000000, -1.000000000000000000, 0.000000000000000000 ) ) ;
#532 = LINE ( 'NONE', #767, #92 ) ;
#533 = CARTESIAN_POINT ( 'NONE',  ( 59.04341622907766407, 48.39999999999999858, 30.75914498161434096 ) ) ;
#534 = CARTESIAN_POINT ( 'NONE',  ( 58.33899802213409203, 43.39999999999999858, 2.138791693365039936 ) ) ;
#535 = EDGE_CURVE ( 'NONE', #664, #520, #349, .T. ) ;
#536 = ORIENTED_EDGE ( 'NONE', *, *, #1075, .F. ) ;
#537 = DIRECTION ( 'NONE',  ( -2.775557561562890957E-15, 0.000000000000000000, -1.000000000000000000 ) ) ;
#538 = DIRECTION ( 'NONE',  ( -0.000000000000000000, -1.000000000000000000, -0.000000000000000000 ) ) ;
#539 = ORIENTED_EDGE ( 'NONE', *, *, #747, .F. ) ;
#540 = ORIENTED_EDGE ( 'NONE', *, *, #555, .F. ) ;
#541 = CARTESIAN_POINT ( 'NONE',  ( 51.97234841721103038, 48.39999999999999858, 32.08757210636079549 ) ) ;
#542 = EDGE_CURVE ( 'NONE', #1382, #639, #264, .T. ) ;
#543 = AXIS2_PLACEMENT_3D ( 'NONE', #1361, #937, #501 ) ;
#544 = VECTOR ( 'NONE', #1188, 1000.000000000000000 ) ;
#545 = FACE_OUTER_BOUND ( 'NONE', #396, .T. ) ;
#546 = ORIENTED_EDGE ( 'NONE', *, *, #961, .T. ) ;
#547 = AXIS2_PLACEMENT_3D ( 'NONE', #81, #1173, #293 ) ;
#548 = AXIS2_PLACEMENT_3D ( 'NONE', #1318, #991, #809 ) ;
#549 = CARTESIAN_POINT ( 'NONE',  ( 33.58757210636080259, 48.39999999999999858, 50.47234841721104459 ) ) ;
#550 = VERTEX_POINT ( 'NONE', #707 ) ;
#551 = ORIENTED_EDGE ( 'NONE', *, *, #705, .F. ) ;
#552 = FACE_BOUND ( 'NONE', #16, .T. ) ;
#553 = CARTESIAN_POINT ( 'NONE',  ( 66.11448404094313958, 43.39999999999999858, 30.75914498161433741 ) ) ;
#554 = ORIENTED_EDGE ( 'NONE', *, *, #782, .T. ) ;
#555 = EDGE_CURVE ( 'NONE', #6, #350, #1045, .T. ) ;
#556 = DIRECTION ( 'NONE',  ( 0.000000000000000000, 0.000000000000000000, 1.000000000000000000 ) ) ;
#557 = ORIENTED_EDGE ( 'NONE', *, *, #1285, .F. ) ;
#558 = DIRECTION ( 'NONE',  ( 0.7071067811865474617, 0.000000000000000000, 0.7071067811865474617 ) ) ;
#559 = FACE_OUTER_BOUND ( 'NONE', #616, .T. ) ;
#560 = EDGE_LOOP ( 'NONE', ( #540, #35, #487, #296 ) ) ;
#561 = CARTESIAN_POINT ( 'NONE',  ( 79.49592939232516642, 48.39999999999999858, -12.76697142838393795 ) ) ;
#562 = ADVANCED_FACE ( 'NONE', ( #46 ), #1320, .F. ) ;
#563 = VERTEX_POINT ( 'NONE', #465 ) ;
#564 = FACE_BOUND ( 'NONE', #273, .T. ) ;
#565 = SURFACE_STYLE_USAGE ( .BOTH. , #813 ) ;
#566 = CIRCLE ( 'NONE', #710, 5.000000000000000888 ) ;
#567 = VERTEX_POINT ( 'NONE', #899 ) ;
#568 = AXIS2_PLACEMENT_3D ( 'NONE', #1384, #439, #965 ) ;
#569 = CARTESIAN_POINT ( 'NONE',  ( 78.64058469130669948, 43.39999999999999858, 33.59168413613174664 ) ) ;
#570 = VECTOR ( 'NONE', #256, 1000.000000000000000 ) ;
#571 = CIRCLE ( 'NONE', #853, 5.000000000000000888 ) ;
#572 = VERTEX_POINT ( 'NONE', #406 ) ;
#573 = CARTESIAN_POINT ( 'NONE',  ( 84.43118714041851547, 48.39999999999999858, -13.56898823611595617 ) ) ;
#574 = SURFACE_STYLE_FILL_AREA ( #784 ) ;
#575 = VERTEX_POINT ( 'NONE', #740 ) ;
#576 = DIRECTION ( 'NONE',  ( 0.000000000000000000, 0.000000000000000000, -1.000000000000000000 ) ) ;
#577 = ORIENTED_EDGE ( 'NONE', *, *, #589, .F. ) ;
#578 = ADVANCED_FACE ( 'NONE', ( #1025 ), #718, .F. ) ;
#579 = FACE_OUTER_BOUND ( 'NONE', #880, .T. ) ;
#580 = CARTESIAN_POINT ( 'NONE',  ( 54.09366876077110931, 48.39999999999999858, 27.22361107568232086 ) ) ;
#581 = CARTESIAN_POINT ( 'NONE',  ( 61.43821868747342307, 43.39999999999999858, -7.333868853105019348 ) ) ;
#582 = VERTEX_POINT ( 'NONE', #1042 ) ;
#583 = CARTESIAN_POINT ( 'NONE',  ( 78.00000000000000000, 38.87451660040608203, -13.00000000000000000 ) ) ;
#584 = VERTEX_POINT ( 'NONE', #53 ) ;
#585 = DIRECTION ( 'NONE',  ( 0.000000000000000000, 1.000000000000000000, 0.000000000000000000 ) ) ;
#586 = EDGE_CURVE ( 'NONE', #447, #1242, #623, .T. ) ;
#587 = LINE ( 'NONE', #364, #849 ) ;
#588 = EDGE_LOOP ( 'NONE', ( #1290, #463 ) ) ;
#589 = EDGE_CURVE ( 'NONE', #292, #475, #887, .T. ) ;
#590 = DIRECTION ( 'NONE',  ( 0.000000000000000000, 0.000000000000000000, -1.000000000000000000 ) ) ;
#591 = AXIS2_PLACEMENT_3D ( 'NONE', #625, #1056, #79 ) ;
#592 = CARTESIAN_POINT ( 'NONE',  ( 57.62920266670384706, 43.39999999999999858, 23.68807716974958311 ) ) ;
#593 = AXIS2_PLACEMENT_3D ( 'NONE', #175, #935, #294 ) ;
#594 = VECTOR ( 'NONE', #1063, 1000.000000000000000 ) ;
#595 = CYLINDRICAL_SURFACE ( 'NONE', #1309, 5.000000000000000888 ) ;
#596 = AXIS2_PLACEMENT_3D ( 'NONE', #862, #753, #1076 ) ;
#597 = CARTESIAN_POINT ( 'NONE',  ( 69.01672159629576697, 48.39999999999999858, -18.13676211729657695 ) ) ;
#598 = ORIENTED_EDGE ( 'NONE', *, *, #334, .T. ) ;
#599 = ADVANCED_FACE ( 'NONE', ( #1261 ), #1375, .F. ) ;
#600 = CARTESIAN_POINT ( 'NONE',  ( 61.64803358821276902, 48.39999999999999858, -9.042674090477497373 ) ) ;
#601 = VERTEX_POINT ( 'NONE', #1266 ) ;
#602 = CARTESIAN_POINT ( 'NONE',  ( 41.04651059181053796, 48.39999999999999858, -43.32936611856194986 ) ) ;
#603 = UNCERTAINTY_MEASURE_WITH_UNIT (LENGTH_MEASURE( 1.000000000000000082E-05 ), #479, 'distance_accuracy_value', 'NONE');
#604 = DIRECTION ( 'NONE',  ( -0.000000000000000000, -1.000000000000000000, -0.000000000000000000 ) ) ;
#605 = ORIENTED_EDGE ( 'NONE', *, *, #220, .T. ) ;
#606 = LINE ( 'NONE', #1035, #1245 ) ;
#607 = ADVANCED_FACE ( 'NONE', ( #828 ), #492, .F. ) ;
#608 = CARTESIAN_POINT ( 'NONE',  ( 62.67442126558891857, 48.39999999999999858, -13.15929021731400361 ) ) ;
#609 = ORIENTED_EDGE ( 'NONE', *, *, #1257, .T. ) ;
#610 = FACE_OUTER_BOUND ( 'NONE', #248, .T. ) ;
#611 = DIRECTION ( 'NONE',  ( -2.775557561562890957E-15, 0.000000000000000000, -1.000000000000000000 ) ) ;
#612 = ORIENTED_EDGE ( 'NONE', *, *, #934, .T. ) ;
#613 = DIRECTION ( 'NONE',  ( 0.000000000000000000, 0.000000000000000000, -1.000000000000000000 ) ) ;
#614 = CLOSED_SHELL ( 'NONE', ( #1004, #1294, #483, #720, #1228, #198, #898, #987, #318, #442, #517, #1097, #628, #654, #687, #86, #848, #863, #790, #290, #246, #562, #1179, #26, #607, #482, #1280, #1211, #992, #745, #801, #527, #578, #120, #440, #1389, #1174, #638, #328, #599 ) ) ;
#615 = AXIS2_PLACEMENT_3D ( 'NONE', #237, #1239, #692 ) ;
#616 = EDGE_LOOP ( 'NONE', ( #235, #1192, #798, #19 ) ) ;
#617 = DIRECTION ( 'NONE',  ( 0.000000000000000000, 0.000000000000000000, -1.000000000000000000 ) ) ;
#618 = EDGE_CURVE ( 'NONE', #1332, #1055, #1018, .T. ) ;
#619 = CIRCLE ( 'NONE', #547, 1.499999999999994449 ) ;
#620 = PRODUCT_DEFINITION_CONTEXT ( 'detailed design', #472, 'design' ) ;
#621 = AXIS2_PLACEMENT_3D ( 'NONE', #346, #781, #1210 ) ;
#622 = FACE_OUTER_BOUND ( 'NONE', #1152, .T. ) ;
#623 = LINE ( 'NONE', #272, #1222 ) ;
#624 = ORIENTED_EDGE ( 'NONE', *, *, #943, .F. ) ;
#625 = CARTESIAN_POINT ( 'NONE',  ( 69.01672159629576697, 43.39999999999999858, -18.13676211729657695 ) ) ;
#626 = CARTESIAN_POINT ( 'NONE',  ( 69.00000000000000000, 43.39999999999999858, 12.00000000000000000 ) ) ;
#627 = ORIENTED_EDGE ( 'NONE', *, *, #420, .F. ) ;
#628 = ADVANCED_FACE ( 'NONE', ( #1136 ), #413, .F. ) ;
#629 = CARTESIAN_POINT ( 'NONE',  ( 64.73088509278520064, 43.39999999999999858, -15.56157174274629540 ) ) ;
#630 = DIRECTION ( 'NONE',  ( 0.000000000000000000, 0.000000000000000000, 1.000000000000000000 ) ) ;
#631 = DIRECTION ( 'NONE',  ( 0.000000000000000000, 0.000000000000000000, -1.000000000000000000 ) ) ;
#632 = ORIENTED_EDGE ( 'NONE', *, *, #985, .T. ) ;
#633 = DIRECTION ( 'NONE',  ( 0.000000000000000000, 0.000000000000000000, -1.000000000000000000 ) ) ;
#634 = ORIENTED_EDGE ( 'NONE', *, *, #1204, .T. ) ;
#635 = CARTESIAN_POINT ( 'NONE',  ( 0.5318054228320850951, 43.39999999999999858, 0.06529749532824952185 ) ) ;
#636 = EDGE_CURVE ( 'NONE', #1094, #683, #167, .T. ) ;
#637 = DIRECTION ( 'NONE',  ( -0.7071067811865474617, -0.000000000000000000, 0.7071067811865474617 ) ) ;
#638 = ADVANCED_FACE ( 'NONE', ( #189 ), #1054, .F. ) ;
#639 = VERTEX_POINT ( 'NONE', #924 ) ;
#640 = VECTOR ( 'NONE', #1175, 1000.000000000000114 ) ;
#641 = CYLINDRICAL_SURFACE ( 'NONE', #1205, 1.500000000000001332 ) ;
#642 = VECTOR ( 'NONE', #663, 1000.000000000000000 ) ;
#643 = DIRECTION ( 'NONE',  ( 0.000000000000000000, 0.000000000000000000, -1.000000000000000000 ) ) ;
#644 = VECTOR ( 'NONE', #922, 1000.000000000000000 ) ;
#645 = AXIS2_PLACEMENT_3D ( 'NONE', #143, #485, #37 ) ;
#646 = FACE_OUTER_BOUND ( 'NONE', #560, .T. ) ;
#647 = CARTESIAN_POINT ( 'NONE',  ( 41.04651059181053796, 43.39999999999999858, -43.32936611856194986 ) ) ;
#648 = ORIENTED_EDGE ( 'NONE', *, *, #183, .F. ) ;
#649 = ORIENTED_EDGE ( 'NONE', *, *, #679, .T. ) ;
#650 = DIRECTION ( 'NONE',  ( -0.000000000000000000, 1.000000000000000000, 0.000000000000000000 ) ) ;
#651 = DIRECTION ( 'NONE',  ( -0.000000000000000000, -1.000000000000000000, -0.000000000000000000 ) ) ;
#652 = EDGE_LOOP ( 'NONE', ( #770, #1321 ) ) ;
#653 = DIRECTION ( 'NONE',  ( 0.000000000000000000, 0.000000000000000000, -1.000000000000000000 ) ) ;
#654 = ADVANCED_FACE ( 'NONE', ( #1061 ), #819, .F. ) ;
#655 = ORIENTED_EDGE ( 'NONE', *, *, #489, .F. ) ;
#656 = DIRECTION ( 'NONE',  ( 0.000000000000000000, 0.000000000000000000, 1.000000000000000000 ) ) ;
#657 = ORIENTED_EDGE ( 'NONE', *, *, #11, .F. ) ;
#658 = VERTEX_POINT ( 'NONE', #504 ) ;
#659 = DIRECTION ( 'NONE',  ( 0.000000000000000000, 1.000000000000000000, 0.000000000000000000 ) ) ;
#660 = EDGE_CURVE ( 'NONE', #1059, #500, #319, .T. ) ;
#661 = VECTOR ( 'NONE', #305, 1000.000000000000114 ) ;
#662 = VECTOR ( 'NONE', #1216, 1000.000000000000000 ) ;
#663 = DIRECTION ( 'NONE',  ( -0.000000000000000000, -1.000000000000000000, -0.000000000000000000 ) ) ;
#664 = VERTEX_POINT ( 'NONE', #951 ) ;
#665 = CIRCLE ( 'NONE', #207, 4.999999999999999112 ) ;
#666 = VECTOR ( 'NONE', #40, 1000.000000000000000 ) ;
#667 = EDGE_LOOP ( 'NONE', ( #1391, #1208, #551, #238 ) ) ;
#668 = DIRECTION ( 'NONE',  ( 0.000000000000000000, 0.000000000000000000, -1.000000000000000000 ) ) ;
#669 = APPLICATION_CONTEXT ( 'automotive_design' ) ;
#670 = EDGE_CURVE ( 'NONE', #829, #567, #1098, .T. ) ;
#671 = CYLINDRICAL_SURFACE ( 'NONE', #1115, 4.999999999999997335 ) ;
#672 = ORIENTED_EDGE ( 'NONE', *, *, #38, .F. ) ;
#673 = ORIENTED_EDGE ( 'NONE', *, *, #977, .T. ) ;
#674 = FACE_BOUND ( 'NONE', #652, .T. ) ;
#675 = DIRECTION ( 'NONE',  ( 0.000000000000000000, 1.000000000000000000, 0.000000000000000000 ) ) ;
#676 = EDGE_CURVE ( 'NONE', #990, #736, #476, .T. ) ;
#677 = VERTEX_POINT ( 'NONE', #400 ) ;
#678 = DIRECTION ( 'NONE',  ( -0.000000000000000000, 1.000000000000000000, -0.000000000000000000 ) ) ;
#679 = EDGE_CURVE ( 'NONE', #520, #550, #70, .T. ) ;
#680 = EDGE_LOOP ( 'NONE', ( #903, #546 ) ) ;
#681 = FACE_BOUND ( 'NONE', #756, .T. ) ;
#682 = CARTESIAN_POINT ( 'NONE',  ( 69.01672159629576697, 43.39999999999999858, -18.13676211729657695 ) ) ;
#683 = VERTEX_POINT ( 'NONE', #100 ) ;
#684 = AXIS2_PLACEMENT_3D ( 'NONE', #139, #675, #910 ) ;
#685 = CARTESIAN_POINT ( 'NONE',  ( 78.00000000000000000, 38.87451660040608203, -13.00000000000000000 ) ) ;
#686 = AXIS2_PLACEMENT_3D ( 'NONE', #635, #90, #521 ) ;
#687 = ADVANCED_FACE ( 'NONE', ( #1053 ), #748, .F. ) ;
#688 = AXIS2_PLACEMENT_3D ( 'NONE', #1095, #1307, #464 ) ;
#689 = ORIENTED_EDGE ( 'NONE', *, *, #64, .T. ) ;
#690 = LINE ( 'NONE', #63, #1048 ) ;
#691 = CYLINDRICAL_SURFACE ( 'NONE', #394, 1.600000000000004086 ) ;
#692 = DIRECTION ( 'NONE',  ( 0.000000000000000000, 0.000000000000000000, -1.000000000000000000 ) ) ;
#693 = ORIENTED_EDGE ( 'NONE', *, *, #1050, .F. ) ;
#694 = FACE_OUTER_BOUND ( 'NONE', #1107, .T. ) ;
#695 = ORIENTED_EDGE ( 'NONE', *, *, #1027, .F. ) ;
#696 = EDGE_CURVE ( 'NONE', #858, #572, #1080, .T. ) ;
#697 = PLANE ( 'NONE',  #1071 ) ;
#698 = CARTESIAN_POINT ( 'NONE',  ( 60.42934015416136617, 15.54475805715730630, 0.8827874259357323394 ) ) ;
#699 = CARTESIAN_POINT ( 'NONE',  ( 79.50000000000000000, 48.39999999999999858, -5.000000000000000000 ) ) ;
#700 = PLANE ( 'NONE',  #615 ) ;
#701 = VERTEX_POINT ( 'NONE', #964 ) ;
#702 = CARTESIAN_POINT ( 'NONE',  ( 50.55813485483837155, 48.39999999999999858, 23.68807716974957955 ) ) ;
#703 = DIRECTION ( 'NONE',  ( -0.000000000000000000, -1.000000000000000000, -0.000000000000000000 ) ) ;
#704 = DIRECTION ( 'NONE',  ( 0.7071067811865475727, -0.000000000000000000, 0.7071067811865475727 ) ) ;
#705 = EDGE_CURVE ( 'NONE', #493, #664, #665, .T. ) ;
#706 = DIRECTION ( 'NONE',  ( 0.000000000000000000, -1.000000000000000000, 0.000000000000000000 ) ) ;
#707 = CARTESIAN_POINT ( 'NONE',  ( 61.43821868747342307, 48.39999999999999858, -7.333868853105019348 ) ) ;
#708 = ORIENTED_EDGE ( 'NONE', *, *, #231, .F. ) ;
#709 = DIRECTION ( 'NONE',  ( 0.000000000000000000, 0.000000000000000000, -1.000000000000000000 ) ) ;
#710 = AXIS2_PLACEMENT_3D ( 'NONE', #2, #435, #947 ) ;
#711 = APPLICATION_PROTOCOL_DEFINITION ( 'draft international standard', 'automotive_design', 1998, #472 ) ;
#712 = CARTESIAN_POINT ( 'NONE',  ( 69.00000000000000000, 48.39999999999999858, -1.000000000000000888 ) ) ;
#713 = VECTOR ( 'NONE', #531, 1000.000000000000000 ) ;
#714 = CARTESIAN_POINT ( 'NONE',  ( 29.34493141924195214, 48.39999999999999858, 51.97234841721148513 ) ) ;
#715 = CIRCLE ( 'NONE', #548, 4.250000000000004441 ) ;
#716 = FACE_OUTER_BOUND ( 'NONE', #355, .T. ) ;
#717 = DIRECTION ( 'NONE',  ( 0.000000000000000000, 0.000000000000000000, -1.000000000000000000 ) ) ;
#718 = CYLINDRICAL_SURFACE ( 'NONE', #176, 5.000000000000000000 ) ;
#719 = ORIENTED_EDGE ( 'NONE', *, *, #262, .T. ) ;
#720 = ADVANCED_FACE ( 'NONE', ( #1374 ), #313, .T. ) ;
#721 = CARTESIAN_POINT ( 'NONE',  ( 69.00000000000000000, 6.630447378299527905, -1.000000000000000888 ) ) ;
#722 = DIRECTION ( 'NONE',  ( 0.000000000000000000, 0.000000000000000000, 1.000000000000000000 ) ) ;
#723 = CARTESIAN_POINT ( 'NONE',  ( 62.67442126558891857, 48.39999999999999858, -11.65929021731400006 ) ) ;
#724 = CARTESIAN_POINT ( 'NONE',  ( 69.00000000000000000, 6.630447378299527905, 12.00000000000000000 ) ) ;
#725 = DIRECTION ( 'NONE',  ( -0.000000000000000000, 1.000000000000000000, 0.000000000000000000 ) ) ;
#726 = ORIENTED_EDGE ( 'NONE', *, *, #934, .F. ) ;
#727 = EDGE_CURVE ( 'NONE', #358, #1009, #976, .T. ) ;
#728 = DIRECTION ( 'NONE',  ( 0.1218693434051398711, 0.000000000000000000, -0.9925461516413228713 ) ) ;
#729 = ORIENTED_EDGE ( 'NONE', *, *, #15, .F. ) ;
#730 = LINE ( 'NONE', #1388, #778 ) ;
#731 = ORIENTED_EDGE ( 'NONE', *, *, #348, .F. ) ;
#732 = CARTESIAN_POINT ( 'NONE',  ( 56.47548792926680505, 48.39999999999999858, -7.943215570130718994 ) ) ;
#733 = AXIS2_PLACEMENT_3D ( 'NONE', #1241, #50, #810 ) ;
#734 = EDGE_CURVE ( 'NONE', #777, #520, #429, .T. ) ;
#735 = CIRCLE ( 'NONE', #204, 4.250000000000005329 ) ;
#736 = VERTEX_POINT ( 'NONE', #174 ) ;
#737 = FACE_OUTER_BOUND ( 'NONE', #1089, .T. ) ;
#738 =( GEOMETRIC_REPRESENTATION_CONTEXT ( 3 ) GLOBAL_UNCERTAINTY_ASSIGNED_CONTEXT ( ( #186 ) ) GLOBAL_UNIT_ASSIGNED_CONTEXT ( ( #1057, #192, #1036 ) ) REPRESENTATION_CONTEXT ( 'NONE', 'WORKASPACE' ) );
#739 = DIRECTION ( 'NONE',  ( -0.5150380749100557098, 0.000000000000000000, -0.8571673007021114454 ) ) ;
#740 = CARTESIAN_POINT ( 'NONE',  ( 60.72653840579042850, 43.39999999999999858, -1.537698093119816978 ) ) ;
#741 = CARTESIAN_POINT ( 'NONE',  ( 79.50000000000000000, 48.39999999999999858, -0.7499999999999945599 ) ) ;
#742 = PRODUCT_CONTEXT ( 'NONE', #669, 'mechanical' ) ;
#743 = DIRECTION ( 'NONE',  ( 0.000000000000000000, 0.000000000000000000, 1.000000000000000000 ) ) ;
#744 = ORIENTED_EDGE ( 'NONE', *, *, #1099, .F. ) ;
#745 = ADVANCED_FACE ( 'NONE', ( #622 ), #76, .T. ) ;
#746 = CARTESIAN_POINT ( 'NONE',  ( 46.18951439602320619, 48.39999999999999858, -46.41959456802228345 ) ) ;
#747 = EDGE_CURVE ( 'NONE', #475, #292, #45, .T. ) ;
#748 = PLANE ( 'NONE',  #852 ) ;
#749 = CARTESIAN_POINT ( 'NONE',  ( 54.09366876077110931, 15.54475805715730630, 20.15254326381684535 ) ) ;
#750 = ORIENTED_EDGE ( 'NONE', *, *, #206, .F. ) ;
#751 = CARTESIAN_POINT ( 'NONE',  ( 79.49592939232516642, 48.39999999999999858, -17.76697142838393972 ) ) ;
#752 = ORIENTED_EDGE ( 'NONE', *, *, #55, .F. ) ;
#753 = DIRECTION ( 'NONE',  ( 0.000000000000000000, 1.000000000000000000, 0.000000000000000000 ) ) ;
#754 = ORIENTED_EDGE ( 'NONE', *, *, #49, .T. ) ;
#755 = VECTOR ( 'NONE', #1259, 1000.000000000000000 ) ;
#756 = EDGE_LOOP ( 'NONE', ( #999, #792 ) ) ;
#757 = MECHANICAL_DESIGN_GEOMETRIC_PRESENTATION_REPRESENTATION (  '', ( #342 ), #496 ) ;
#758 = DIRECTION ( 'NONE',  ( -0.000000000000000000, -1.000000000000000000, -0.000000000000000000 ) ) ;
#759 = CARTESIAN_POINT ( 'NONE',  ( 33.58757210636123602, 43.39999999999999858, 56.21498910433076901 ) ) ;
#760 = DIRECTION ( 'NONE',  ( 0.000000000000000000, 0.000000000000000000, -1.000000000000000000 ) ) ;
#761 = EDGE_CURVE ( 'NONE', #1314, #146, #524, .T. ) ;
#762 = ORIENTED_EDGE ( 'NONE', *, *, #164, .T. ) ;
#763 = CYLINDRICAL_SURFACE ( 'NONE', #1270, 1.500000000000001332 ) ;
#764 = ORIENTED_EDGE ( 'NONE', *, *, #374, .F. ) ;
#765 = ORIENTED_EDGE ( 'NONE', *, *, #489, .T. ) ;
#766 = CARTESIAN_POINT ( 'NONE',  ( 74.04595061669053280, 43.39999999999999858, 31.61954374549624092 ) ) ;
#767 = CARTESIAN_POINT ( 'NONE',  ( 61.43821868747342307, 43.39999999999999858, -7.333868853105019348 ) ) ;
#768 = EDGE_LOOP ( 'NONE', ( #1003, #265, #1232, #505 ) ) ;
#769 = DIRECTION ( 'NONE',  ( -0.000000000000000000, 1.000000000000000000, -0.000000000000000000 ) ) ;
#770 = ORIENTED_EDGE ( 'NONE', *, *, #1331, .T. ) ;
#771 = EDGE_CURVE ( 'NONE', #350, #111, #1333, .T. ) ;
#772 = VERTEX_POINT ( 'NONE', #469 ) ;
#773 = CARTESIAN_POINT ( 'NONE',  ( 29.34493141924195214, 43.39999999999999858, 51.97234841721148513 ) ) ;
#774 = AXIS2_PLACEMENT_3D ( 'NONE', #822, #73, #1338 ) ;
#775 = AXIS2_PLACEMENT_3D ( 'NONE', #223, #1101, #882 ) ;
#776 = CARTESIAN_POINT ( 'NONE',  ( 76.92073901777487777, 48.39999999999999858, -17.05280793189450250 ) ) ;
#777 = VERTEX_POINT ( 'NONE', #602 ) ;
#778 = VECTOR ( 'NONE', #851, 1000.000000000000000 ) ;
#779 = AXIS2_PLACEMENT_3D ( 'NONE', #1046, #1147, #1258 ) ;
#780 = EDGE_LOOP ( 'NONE', ( #1367, #304, #936, #1109 ) ) ;
#781 = DIRECTION ( 'NONE',  ( 0.000000000000000000, 1.000000000000000000, 0.000000000000000000 ) ) ;
#782 = EDGE_CURVE ( 'NONE', #1039, #380, #1243, .T. ) ;
#783 = EDGE_CURVE ( 'NONE', #858, #1126, #1230, .T. ) ;
#784 = FILL_AREA_STYLE ('',( #1117 ) ) ;
#785 = ORIENTED_EDGE ( 'NONE', *, *, #448, .T. ) ;
#786 = FACE_OUTER_BOUND ( 'NONE', #471, .T. ) ;
#787 = EDGE_LOOP ( 'NONE', ( #140, #1051, #89, #955 ) ) ;
#788 = CARTESIAN_POINT ( 'NONE',  ( 60.76132443277736428, 48.39999999999999858, -10.51840594468099432 ) ) ;
#789 = ORIENTED_EDGE ( 'NONE', *, *, #1235, .F. ) ;
#790 = ADVANCED_FACE ( 'NONE', ( #902 ), #697, .F. ) ;
#791 = DIRECTION ( 'NONE',  ( 0.000000000000000000, 0.000000000000000000, -1.000000000000000000 ) ) ;
#792 = ORIENTED_EDGE ( 'NONE', *, *, #15, .T. ) ;
#793 = CARTESIAN_POINT ( 'NONE',  ( 62.67442126558891857, 48.39999999999999858, -11.65929021731400006 ) ) ;
#794 = LINE ( 'NONE', #1255, #152 ) ;
#795 = DIRECTION ( 'NONE',  ( -0.000000000000000000, 1.000000000000000000, -0.000000000000000000 ) ) ;
#796 = PRESENTATION_STYLE_ASSIGNMENT (( #565 ) ) ;
#797 = CIRCLE ( 'NONE', #591, 5.000000000000000888 ) ;
#798 = ORIENTED_EDGE ( 'NONE', *, *, #1135, .F. ) ;
#799 = CIRCLE ( 'NONE', #453, 1.500000000000004885 ) ;
#800 = DIRECTION ( 'NONE',  ( -0.000000000000000000, -1.000000000000000000, -0.000000000000000000 ) ) ;
#801 = ADVANCED_FACE ( 'NONE', ( #610 ), #595, .F. ) ;
#802 = CIRCLE ( 'NONE', #823, 1.500000000000004885 ) ;
#803 = VECTOR ( 'NONE', #511, 1000.000000000000000 ) ;
#804 = ORIENTED_EDGE ( 'NONE', *, *, #506, .T. ) ;
#805 = DIRECTION ( 'NONE',  ( -0.000000000000000000, 1.000000000000000000, -0.000000000000000000 ) ) ;
#806 = CARTESIAN_POINT ( 'NONE',  ( 79.50000000000000000, 31.37918471982867885, -5.000000000000000000 ) ) ;
#807 = FACE_BOUND ( 'NONE', #1312, .T. ) ;
#808 = VERTEX_POINT ( 'NONE', #278 ) ;
#809 = DIRECTION ( 'NONE',  ( 0.000000000000000000, 0.000000000000000000, -1.000000000000000000 ) ) ;
#810 = DIRECTION ( 'NONE',  ( 0.000000000000000000, 0.000000000000000000, 1.000000000000000000 ) ) ;
#811 = EDGE_CURVE ( 'NONE', #563, #658, #794, .T. ) ;
#812 = DIRECTION ( 'NONE',  ( -0.000000000000000000, 1.000000000000000000, 0.000000000000000000 ) ) ;
#813 = SURFACE_SIDE_STYLE ('',( #574 ) ) ;
#814 = ORIENTED_EDGE ( 'NONE', *, *, #271, .T. ) ;
#815 = CARTESIAN_POINT ( 'NONE',  ( 51.97234841721103038, 43.39999999999999858, 32.08757210636079549 ) ) ;
#816 = CARTESIAN_POINT ( 'NONE',  ( 54.09366876077110931, 43.39999999999999858, 27.22361107568232086 ) ) ;
#817 = ORIENTED_EDGE ( 'NONE', *, *, #307, .F. ) ;
#818 = CARTESIAN_POINT ( 'NONE',  ( 64.73088509278520064, 48.39999999999999858, -15.56157174274629185 ) ) ;
#819 = PLANE ( 'NONE',  #1308 ) ;
#820 = VERTEX_POINT ( 'NONE', #477 ) ;
#821 = CYLINDRICAL_SURFACE ( 'NONE', #451, 84.99999999999963052 ) ;
#822 = CARTESIAN_POINT ( 'NONE',  ( 33.58757210636080259, 48.39999999999999858, 51.97234841721104459 ) ) ;
#823 = AXIS2_PLACEMENT_3D ( 'NONE', #185, #1365, #95 ) ;
#824 = AXIS2_PLACEMENT_3D ( 'NONE', #467, #800, #240 ) ;
#825 = DIRECTION ( 'NONE',  ( 0.7071067811865475727, 0.000000000000000000, -0.7071067811865475727 ) ) ;
#826 = CIRCLE ( 'NONE', #436, 13.00000000000000178 ) ;
#827 = LINE ( 'NONE', #580, #94 ) ;
#828 = FACE_OUTER_BOUND ( 'NONE', #518, .T. ) ;
#829 = VERTEX_POINT ( 'NONE', #1023 ) ;
#830 = EDGE_CURVE ( 'NONE', #966, #584, #908, .T. ) ;
#831 = CARTESIAN_POINT ( 'NONE',  ( 62.67442126558891857, 48.39999999999999858, -13.15929021731400361 ) ) ;
#832 = ORIENTED_EDGE ( 'NONE', *, *, #1285, .T. ) ;
#833 = VERTEX_POINT ( 'NONE', #723 ) ;
#834 = CARTESIAN_POINT ( 'NONE',  ( 51.97234841721103038, 48.39999999999999858, 33.58757210636078838 ) ) ;
#835 = DIRECTION ( 'NONE',  ( -0.000000000000000000, -1.000000000000000000, -0.000000000000000000 ) ) ;
#836 = ORIENTED_EDGE ( 'NONE', *, *, #1369, .T. ) ;
#837 = CARTESIAN_POINT ( 'NONE',  ( 69.01672159629576697, 48.39999999999999858, -18.13676211729657695 ) ) ;
#838 = EDGE_CURVE ( 'NONE', #567, #1176, #690, .T. ) ;
#839 = SHAPE_DEFINITION_REPRESENTATION ( #1363, #932 ) ;
#840 = LINE ( 'NONE', #592, #149 ) ;
#841 = CARTESIAN_POINT ( 'NONE',  ( 33.58757210636123602, 48.39999999999999858, 56.21498910433076901 ) ) ;
#842 = DIRECTION ( 'NONE',  ( 0.000000000000000000, 0.000000000000000000, -1.000000000000000000 ) ) ;
#843 = ORIENTED_EDGE ( 'NONE', *, *, #239, .F. ) ;
#844 = ORIENTED_EDGE ( 'NONE', *, *, #170, .T. ) ;
#845 = EDGE_CURVE ( 'NONE', #106, #582, #132, .T. ) ;
#846 = DIRECTION ( 'NONE',  ( -0.000000000000000000, 1.000000000000000000, -0.000000000000000000 ) ) ;
#847 = CIRCLE ( 'NONE', #20, 1.500000000000001332 ) ;
#848 = ADVANCED_FACE ( 'NONE', ( #491 ), #1236, .F. ) ;
#849 = VECTOR ( 'NONE', #888, 1000.000000000000000 ) ;
#850 = VERTEX_POINT ( 'NONE', #150 ) ;
#851 = DIRECTION ( 'NONE',  ( -0.000000000000000000, 1.000000000000000000, -0.000000000000000000 ) ) ;
#852 = AXIS2_PLACEMENT_3D ( 'NONE', #197, #514, #739 ) ;
#853 = AXIS2_PLACEMENT_3D ( 'NONE', #702, #1132, #590 ) ;
#854 = DIRECTION ( 'NONE',  ( 0.000000000000000000, 0.000000000000000000, -1.000000000000000000 ) ) ;
#855 = CARTESIAN_POINT ( 'NONE',  ( 69.50000000000000000, 48.39999999999999858, 29.80000000000000782 ) ) ;
#856 = ORIENTED_EDGE ( 'NONE', *, *, #144, .F. ) ;
#857 = CARTESIAN_POINT ( 'NONE',  ( 67.30607546733548929, 48.39999999999999858, -11.27573523923572907 ) ) ;
#858 = VERTEX_POINT ( 'NONE', #818 ) ;
#859 = DIRECTION ( 'NONE',  ( 0.000000000000000000, -1.000000000000000000, -0.000000000000000000 ) ) ;
#860 = ORIENTED_EDGE ( 'NONE', *, *, #458, .T. ) ;
#861 = LINE ( 'NONE', #419, #267 ) ;
#862 = CARTESIAN_POINT ( 'NONE',  ( 69.00000000000000000, 48.39999999999999858, 12.00000000000000000 ) ) ;
#863 = ADVANCED_FACE ( 'NONE', ( #579 ), #270, .F. ) ;
#864 = DIRECTION ( 'NONE',  ( 0.000000000000000000, 0.000000000000000000, 1.000000000000000000 ) ) ;
#865 = DIRECTION ( 'NONE',  ( -0.000000000000000000, 1.000000000000000000, 0.000000000000000000 ) ) ;
#866 = ORIENTED_EDGE ( 'NONE', *, *, #55, .T. ) ;
#867 = DIRECTION ( 'NONE',  ( -0.000000000000000000, 1.000000000000000000, -0.000000000000000000 ) ) ;
#868 = VECTOR ( 'NONE', #96, 999.9999999999998863 ) ;
#869 = DIRECTION ( 'NONE',  ( -0.000000000000000000, 1.000000000000000000, 0.000000000000000000 ) ) ;
#870 = AXIS2_PLACEMENT_3D ( 'NONE', #698, #1244, #1238 ) ;
#871 = DIRECTION ( 'NONE',  ( 0.000000000000000000, 0.000000000000000000, 1.000000000000000000 ) ) ;
#872 = EDGE_LOOP ( 'NONE', ( #577, #539 ) ) ;
#873 = LINE ( 'NONE', #647, #953 ) ;
#874 = DIRECTION ( 'NONE',  ( 0.000000000000000000, 0.000000000000000000, 1.000000000000000000 ) ) ;
#875 = ORIENTED_EDGE ( 'NONE', *, *, #1111, .F. ) ;
#876 = CARTESIAN_POINT ( 'NONE',  ( 62.67442126558891857, 43.39999999999999858, -14.65929021731400894 ) ) ;
#877 = DIRECTION ( 'NONE',  ( 0.7071067811865475727, 0.000000000000000000, -0.7071067811865474617 ) ) ;
#878 = ORIENTED_EDGE ( 'NONE', *, *, #1331, .F. ) ;
#879 = EDGE_CURVE ( 'NONE', #701, #292, #159, .T. ) ;
#880 = EDGE_LOOP ( 'NONE', ( #5, #277, #1343, #554 ) ) ;
#881 = CARTESIAN_POINT ( 'NONE',  ( 46.18951439602320619, 48.39999999999999858, -46.41959456802228345 ) ) ;
#882 = DIRECTION ( 'NONE',  ( 0.000000000000000000, 0.000000000000000000, 1.000000000000000000 ) ) ;
#883 = ORIENTED_EDGE ( 'NONE', *, *, #771, .T. ) ;
#884 = EDGE_CURVE ( 'NONE', #177, #36, #27, .T. ) ;
#885 = ORIENTED_EDGE ( 'NONE', *, *, #542, .T. ) ;
#886 = EDGE_CURVE ( 'NONE', #1126, #441, #940, .T. ) ;
#887 = CIRCLE ( 'NONE', #975, 1.600000000000004086 ) ;
#888 = DIRECTION ( 'NONE',  ( -0.000000000000000000, 1.000000000000000000, -0.000000000000000000 ) ) ;
#889 = ORIENTED_EDGE ( 'NONE', *, *, #115, .T. ) ;
#890 = VECTOR ( 'NONE', #1383, 1000.000000000000000 ) ;
#891 = DIRECTION ( 'NONE',  ( -0.1218693434051398711, 0.000000000000000000, 0.9925461516413228713 ) ) ;
#892 = CIRCLE ( 'NONE', #688, 5.000000000000000000 ) ;
#893 = ORIENTED_EDGE ( 'NONE', *, *, #384, .T. ) ;
#894 = LINE ( 'NONE', #573, #478 ) ;
#895 = ORIENTED_EDGE ( 'NONE', *, *, #1330, .F. ) ;
#896 = EDGE_LOOP ( 'NONE', ( #1262, #462, #1167, #69 ) ) ;
#897 = CARTESIAN_POINT ( 'NONE',  ( 29.34493141924195214, 48.39999999999999858, 51.97234841721148513 ) ) ;
#898 = ADVANCED_FACE ( 'NONE', ( #312 ), #641, .F. ) ;
#899 = CARTESIAN_POINT ( 'NONE',  ( 78.64058469130669948, 48.39999999999999858, 33.59168413613174664 ) ) ;
#900 = ORIENTED_EDGE ( 'NONE', *, *, #727, .T. ) ;
#901 = ORIENTED_EDGE ( 'NONE', *, *, #274, .T. ) ;
#902 = FACE_OUTER_BOUND ( 'NONE', #468, .T. ) ;
#903 = ORIENTED_EDGE ( 'NONE', *, *, #11, .T. ) ;
#904 = LINE ( 'NONE', #1125, #906 ) ;
#905 = VECTOR ( 'NONE', #445, 1000.000000000000114 ) ;
#906 = VECTOR ( 'NONE', #891, 1000.000000000000114 ) ;
#907 = ORIENTED_EDGE ( 'NONE', *, *, #1111, .T. ) ;
#908 = LINE ( 'NONE', #1032, #1353 ) ;
#909 = DIRECTION ( 'NONE',  ( -0.000000000000000000, 1.000000000000000000, -0.000000000000000000 ) ) ;
#910 = DIRECTION ( 'NONE',  ( 0.000000000000000000, 0.000000000000000000, 1.000000000000000000 ) ) ;
#911 = ORIENTED_EDGE ( 'NONE', *, *, #220, .F. ) ;
#912 = FACE_OUTER_BOUND ( 'NONE', #32, .T. ) ;
#913 = DIRECTION ( 'NONE',  ( 0.000000000000000000, -1.000000000000000000, -0.000000000000000000 ) ) ;
#914 = EDGE_CURVE ( 'NONE', #820, #833, #802, .T. ) ;
#915 = DIRECTION ( 'NONE',  ( 0.000000000000000000, 0.000000000000000000, -1.000000000000000000 ) ) ;
#916 = DIRECTION ( 'NONE',  ( -0.7071067811865475727, 0.000000000000000000, 0.7071067811865474617 ) ) ;
#917 = DIRECTION ( 'NONE',  ( 0.000000000000000000, 1.000000000000000000, 0.000000000000000000 ) ) ;
#918 = ORIENTED_EDGE ( 'NONE', *, *, #262, .F. ) ;
#919 = DIRECTION ( 'NONE',  ( 0.000000000000000000, 0.000000000000000000, -1.000000000000000000 ) ) ;
#920 = EDGE_CURVE ( 'NONE', #335, #966, #530, .T. ) ;
#921 = ORIENTED_EDGE ( 'NONE', *, *, #183, .T. ) ;
#922 = DIRECTION ( 'NONE',  ( -0.000000000000000000, 1.000000000000000000, -0.000000000000000000 ) ) ;
#923 = DIRECTION ( 'NONE',  ( 0.000000000000000000, 0.000000000000000000, 1.000000000000000000 ) ) ;
#924 = CARTESIAN_POINT ( 'NONE',  ( 59.04341622907766407, 43.39999999999999858, 30.75914498161434807 ) ) ;
#925 = ORIENTED_EDGE ( 'NONE', *, *, #1127, .F. ) ;
#926 = AXIS2_PLACEMENT_3D ( 'NONE', #732, #502, #80 ) ;
#927 = DIRECTION ( 'NONE',  ( -0.7071067811865482389, 0.000000000000000000, -0.7071067811865469066 ) ) ;
#928 = CIRCLE ( 'NONE', #390, 5.000000000000000000 ) ;
#929 = CARTESIAN_POINT ( 'NONE',  ( 74.04595061669053280, 48.39999999999999858, 31.61954374549624092 ) ) ;
#930 = CARTESIAN_POINT ( 'NONE',  ( 69.50000000000000000, 43.39999999999999858, 28.20000000000000284 ) ) ;
#931 = AXIS2_PLACEMENT_3D ( 'NONE', #806, #795, #279 ) ;
#932 = ADVANCED_BREP_SHAPE_REPRESENTATION ( 'top motor holder', ( #507, #779 ), #738 ) ;
#933 = DIRECTION ( 'NONE',  ( 0.000000000000000000, 0.000000000000000000, 1.000000000000000000 ) ) ;
#934 = EDGE_CURVE ( 'NONE', #1126, #777, #956, .T. ) ;
#935 = DIRECTION ( 'NONE',  ( 0.000000000000000000, 1.000000000000000000, 0.000000000000000000 ) ) ;
#936 = ORIENTED_EDGE ( 'NONE', *, *, #1050, .T. ) ;
#937 = DIRECTION ( 'NONE',  ( -0.000000000000000000, 1.000000000000000000, 0.000000000000000000 ) ) ;
#938 = DIRECTION ( 'NONE',  ( 0.000000000000000000, -1.000000000000000000, -0.000000000000000000 ) ) ;
#939 = EDGE_LOOP ( 'NONE', ( #536, #1086, #764, #925 ) ) ;
#940 = LINE ( 'NONE', #1158, #498 ) ;
#941 = CARTESIAN_POINT ( 'NONE',  ( 55.76380764758381048, 48.39999999999999858, -2.147044810145516625 ) ) ;
#942 = ORIENTED_EDGE ( 'NONE', *, *, #968, .T. ) ;
#943 = EDGE_CURVE ( 'NONE', #850, #311, #730, .T. ) ;
#944 = PLANE ( 'NONE',  #1348 ) ;
#945 = VERTEX_POINT ( 'NONE', #300 ) ;
#946 = APPLICATION_PROTOCOL_DEFINITION ( 'draft international standard', 'automotive_design', 1998, #669 ) ;
#947 = DIRECTION ( 'NONE',  ( 0.000000000000000000, 0.000000000000000000, -1.000000000000000000 ) ) ;
#948 = CARTESIAN_POINT ( 'NONE',  ( 58.33899802213409203, 15.54475805715730630, 2.138791693365039048 ) ) ;
#949 = LINE ( 'NONE', #1373, #344 ) ;
#950 = DIRECTION ( 'NONE',  ( 1.387778780781445873E-15, 0.000000000000000000, -1.000000000000000000 ) ) ;
#951 = CARTESIAN_POINT ( 'NONE',  ( 60.76132443277736428, 43.39999999999999858, -10.51840594468098722 ) ) ;
#952 = EDGE_CURVE ( 'NONE', #572, #441, #405, .T. ) ;
#953 = VECTOR ( 'NONE', #426, 1000.000000000000000 ) ;
#954 = AXIS2_PLACEMENT_3D ( 'NONE', #1159, #604, #854 ) ;
#955 = ORIENTED_EDGE ( 'NONE', *, *, #886, .F. ) ;
#956 = LINE ( 'NONE', #746, #594 ) ;
#957 = VECTOR ( 'NONE', #98, 1000.000000000000000 ) ;
#958 = CIRCLE ( 'NONE', #133, 1.500000000000004885 ) ;
#959 = DIRECTION ( 'NONE',  ( 0.000000000000000000, 0.000000000000000000, 1.000000000000000000 ) ) ;
#960 = CARTESIAN_POINT ( 'NONE',  ( 79.50000000000000000, 43.39999999999999858, -5.000000000000000000 ) ) ;
#961 = EDGE_CURVE ( 'NONE', #1248, #1186, #619, .T. ) ;
#962 = ORIENTED_EDGE ( 'NONE', *, *, #231, .T. ) ;
#963 = CARTESIAN_POINT ( 'NONE',  ( 79.49592939232516642, 48.39999999999999858, -17.76697142838393972 ) ) ;
#964 = CARTESIAN_POINT ( 'NONE',  ( 69.50000000000000000, 43.39999999999999858, 29.80000000000000782 ) ) ;
#965 = DIRECTION ( 'NONE',  ( -2.775557561562890957E-15, 0.000000000000000000, -1.000000000000000000 ) ) ;
#966 = VERTEX_POINT ( 'NONE', #534 ) ;
#967 = EDGE_LOOP ( 'NONE', ( #54, #428 ) ) ;
#968 = EDGE_CURVE ( 'NONE', #808, #990, #1289, .T. ) ;
#969 = LINE ( 'NONE', #326, #544 ) ;
#970 = ORIENTED_EDGE ( 'NONE', *, *, #886, .T. ) ;
#971 = CARTESIAN_POINT ( 'NONE',  ( 78.00000000000000000, 48.39999999999999858, -14.60000000000000497 ) ) ;
#972 = ORIENTED_EDGE ( 'NONE', *, *, #660, .T. ) ;
#973 = AXIS2_PLACEMENT_3D ( 'NONE', #930, #484, #915 ) ;
#974 = EDGE_LOOP ( 'NONE', ( #309, #165, #726, #970 ) ) ;
#975 = AXIS2_PLACEMENT_3D ( 'NONE', #161, #301, #630 ) ;
#976 = CIRCLE ( 'NONE', #250, 5.000000000000000888 ) ;
#977 = EDGE_CURVE ( 'NONE', #1176, #736, #1325, .T. ) ;
#978 = AXIS2_PLACEMENT_3D ( 'NONE', #929, #1154, #1028 ) ;
#979 = CARTESIAN_POINT ( 'NONE',  ( 62.67442126558891857, 48.39999999999999858, -14.65929021731400894 ) ) ;
#980 = EDGE_LOOP ( 'NONE', ( #1254, #1360, #878, #1197 ) ) ;
#981 = EDGE_LOOP ( 'NONE', ( #1352, #860, #832, #624 ) ) ;
#982 = ORIENTED_EDGE ( 'NONE', *, *, #1218, .F. ) ;
#983 = CARTESIAN_POINT ( 'NONE',  ( 78.00000000000000000, 48.39999999999999858, -11.39999999999999325 ) ) ;
#984 = LINE ( 'NONE', #979, #68 ) ;
#985 = EDGE_CURVE ( 'NONE', #74, #1382, #1358, .T. ) ;
#986 = ORIENTED_EDGE ( 'NONE', *, *, #811, .T. ) ;
#987 = ADVANCED_FACE ( 'NONE', ( #399 ), #421, .F. ) ;
#988 = ORIENTED_EDGE ( 'NONE', *, *, #164, .F. ) ;
#989 = DIRECTION ( 'NONE',  ( -0.000000000000000000, 1.000000000000000000, 0.000000000000000000 ) ) ;
#990 = VERTEX_POINT ( 'NONE', #503 ) ;
#991 = DIRECTION ( 'NONE',  ( -0.000000000000000000, 1.000000000000000000, 0.000000000000000000 ) ) ;
#992 = ADVANCED_FACE ( 'NONE', ( #737 ), #1168, .T. ) ;
#993 = ORIENTED_EDGE ( 'NONE', *, *, #230, .T. ) ;
#994 = DIRECTION ( 'NONE',  ( 0.000000000000000000, -1.000000000000000000, 0.000000000000000000 ) ) ;
#995 = CIRCLE ( 'NONE', #774, 1.500000000000001332 ) ;
#996 = AXIS2_PLACEMENT_3D ( 'NONE', #1303, #357, #998 ) ;
#997 = VECTOR ( 'NONE', #325, 1000.000000000000000 ) ;
#998 = DIRECTION ( 'NONE',  ( 0.000000000000000000, 0.000000000000000000, 1.000000000000000000 ) ) ;
#999 = ORIENTED_EDGE ( 'NONE', *, *, #307, .T. ) ;
#1000 = CIRCLE ( 'NONE', #347, 1.600000000000004086 ) ;
#1001 = CARTESIAN_POINT ( 'NONE',  ( 48.95982855999957906, 15.54475805715730630, 15.01870306304530978 ) ) ;
#1002 = DIRECTION ( 'NONE',  ( 0.000000000000000000, 1.000000000000000000, 0.000000000000000000 ) ) ;
#1003 = ORIENTED_EDGE ( 'NONE', *, *, #230, .F. ) ;
#1004 = ADVANCED_FACE ( 'NONE', ( #716 ), #392, .F. ) ;
#1005 = DIRECTION ( 'NONE',  ( 0.000000000000000000, 1.000000000000000000, 0.000000000000000000 ) ) ;
#1006 = DIRECTION ( 'NONE',  ( 0.5150380749100563760, -0.000000000000000000, 0.8571673007021111124 ) ) ;
#1007 = ORIENTED_EDGE ( 'NONE', *, *, #618, .F. ) ;
#1008 = FACE_OUTER_BOUND ( 'NONE', #1392, .T. ) ;
#1009 = VERTEX_POINT ( 'NONE', #963 ) ;
#1010 = CARTESIAN_POINT ( 'NONE',  ( 71.59191197084605562, 48.39999999999999858, -13.85092561378601772 ) ) ;
#1011 = LINE ( 'NONE', #1041, #1226 ) ;
#1012 = EDGE_LOOP ( 'NONE', ( #648, #1193, #673, #907 ) ) ;
#1013 = ORIENTED_EDGE ( 'NONE', *, *, #783, .T. ) ;
#1014 = DIRECTION ( 'NONE',  ( 0.000000000000000000, -1.000000000000000000, 0.000000000000000000 ) ) ;
#1015 = CIRCLE ( 'NONE', #973, 1.600000000000004086 ) ;
#1016 = EDGE_LOOP ( 'NONE', ( #1240, #1385, #817, #269 ) ) ;
#1017 = EDGE_CURVE ( 'NONE', #500, #1248, #949, .T. ) ;
#1018 = CIRCLE ( 'NONE', #593, 1.500000000000004885 ) ;
#1019 = AXIS2_PLACEMENT_3D ( 'NONE', #138, #812, #1149 ) ;
#1020 = VECTOR ( 'NONE', #659, 1000.000000000000000 ) ;
#1021 = LINE ( 'NONE', #494, #1161 ) ;
#1022 = ORIENTED_EDGE ( 'NONE', *, *, #473, .F. ) ;
#1023 = CARTESIAN_POINT ( 'NONE',  ( 70.51041671075779504, 48.39999999999999858, 35.15507765142898933 ) ) ;
#1024 = DIRECTION ( 'NONE',  ( -0.000000000000000000, -1.000000000000000000, -0.000000000000000000 ) ) ;
#1025 = FACE_OUTER_BOUND ( 'NONE', #939, .T. ) ;
#1026 = ORIENTED_EDGE ( 'NONE', *, *, #64, .F. ) ;
#1027 = EDGE_CURVE ( 'NONE', #833, #1332, #196, .T. ) ;
#1028 = DIRECTION ( 'NONE',  ( 0.000000000000000000, 0.000000000000000000, -1.000000000000000000 ) ) ;
#1029 = EDGE_CURVE ( 'NONE', #1039, #74, #1087, .T. ) ;
#1030 = CARTESIAN_POINT ( 'NONE',  ( 33.58757210636123602, 48.39999999999999858, 56.21498910433076901 ) ) ;
#1031 = EDGE_LOOP ( 'NONE', ( #457, #124, #1157, #444 ) ) ;
#1032 = CARTESIAN_POINT ( 'NONE',  ( 60.42934015416136617, 43.39999999999999858, 0.8827874259357323394 ) ) ;
#1033 = DIRECTION ( 'NONE',  ( 0.5150380749100557098, 0.000000000000000000, 0.8571673007021114454 ) ) ;
#1034 = EDGE_LOOP ( 'NONE', ( #330, #1336, #744, #227 ) ) ;
#1035 = CARTESIAN_POINT ( 'NONE',  ( 33.58757210636080259, 48.39999999999999858, 53.47234841721104459 ) ) ;
#1036 =( NAMED_UNIT ( * ) SI_UNIT ( $, .STERADIAN. ) SOLID_ANGLE_UNIT ( ) );
#1037 = CARTESIAN_POINT ( 'NONE',  ( 60.72653840579042850, 48.39999999999999858, -1.537698093119816978 ) ) ;
#1038 = EDGE_CURVE ( 'NONE', #493, #575, #113, .T. ) ;
#1039 = VERTEX_POINT ( 'NONE', #228 ) ;
#1040 = DIRECTION ( 'NONE',  ( 0.000000000000000000, 0.000000000000000000, -1.000000000000000000 ) ) ;
#1041 = CARTESIAN_POINT ( 'NONE',  ( 69.01672159629576697, 48.39999999999999858, -13.13676211729657517 ) ) ;
#1042 = CARTESIAN_POINT ( 'NONE',  ( 78.00000000000000000, 43.39999999999999858, -14.60000000000000497 ) ) ;
#1043 = ORIENTED_EDGE ( 'NONE', *, *, #137, .F. ) ;
#1044 = LINE ( 'NONE', #163, #640 ) ;
#1045 = CIRCLE ( 'NONE', #431, 5.000000000000000888 ) ;
#1046 = CARTESIAN_POINT ( 'NONE',  ( 0.000000000000000000, 0.000000000000000000, 0.000000000000000000 ) ) ;
#1047 = CYLINDRICAL_SURFACE ( 'NONE', #926, 5.000000000000000000 ) ;
#1048 = VECTOR ( 'NONE', #497, 1000.000000000000000 ) ;
#1049 = VECTOR ( 'NONE', #260, 1000.000000000000000 ) ;
#1050 = EDGE_CURVE ( 'NONE', #85, #380, #218, .T. ) ;
#1051 = ORIENTED_EDGE ( 'NONE', *, *, #696, .T. ) ;
#1052 = DIRECTION ( 'NONE',  ( -0.000000000000000000, -1.000000000000000000, -0.000000000000000000 ) ) ;
#1053 = FACE_OUTER_BOUND ( 'NONE', #327, .T. ) ;
#1054 = CYLINDRICAL_SURFACE ( 'NONE', #369, 5.000000000000000888 ) ;
#1055 = VERTEX_POINT ( 'NONE', #876 ) ;
#1056 = DIRECTION ( 'NONE',  ( -0.000000000000000000, 1.000000000000000000, 0.000000000000000000 ) ) ;
#1057 =( LENGTH_UNIT ( ) NAMED_UNIT ( * ) SI_UNIT ( .MILLI., .METRE. ) );
#1058 = DIRECTION ( 'NONE',  ( 0.000000000000000000, 0.000000000000000000, -1.000000000000000000 ) ) ;
#1059 = VERTEX_POINT ( 'NONE', #541 ) ;
#1060 = CARTESIAN_POINT ( 'NONE',  ( 56.47548792926680505, 43.39999999999999858, -7.943215570130718994 ) ) ;
#1061 = FACE_OUTER_BOUND ( 'NONE', #974, .T. ) ;
#1062 = FACE_OUTER_BOUND ( 'NONE', #1199, .T. ) ;
#1063 = DIRECTION ( 'NONE',  ( -0.8571673007021116675, 0.000000000000000000, 0.5150380749100552658 ) ) ;
#1064 = CARTESIAN_POINT ( 'NONE',  ( 58.33899802213409203, 48.39999999999999858, 2.138791693365039936 ) ) ;
#1065 = EDGE_CURVE ( 'NONE', #317, #677, #826, .T. ) ;
#1066 = AXIS2_PLACEMENT_3D ( 'NONE', #1165, #938, #613 ) ;
#1067 = CARTESIAN_POINT ( 'NONE',  ( 0.5318054228320850951, 48.39999999999999858, 0.06529749532824952185 ) ) ;
#1068 = CIRCLE ( 'NONE', #1268, 13.00000000000000178 ) ;
#1069 = AXIS2_PLACEMENT_3D ( 'NONE', #831, #190, #631 ) ;
#1070 = DIRECTION ( 'NONE',  ( -0.000000000000000000, -1.000000000000000000, -0.000000000000000000 ) ) ;
#1071 = AXIS2_PLACEMENT_3D ( 'NONE', #362, #1221, #916 ) ;
#1072 = CIRCLE ( 'NONE', #1328, 5.000000000000000888 ) ;
#1073 = DIRECTION ( 'NONE',  ( 0.000000000000000000, 1.000000000000000000, 0.000000000000000000 ) ) ;
#1074 = CARTESIAN_POINT ( 'NONE',  ( 69.00000000000000000, 48.39999999999999858, 25.00000000000000000 ) ) ;
#1075 = EDGE_CURVE ( 'NONE', #966, #575, #892, .T. ) ;
#1076 = DIRECTION ( 'NONE',  ( 0.000000000000000000, 0.000000000000000000, 1.000000000000000000 ) ) ;
#1077 = ORIENTED_EDGE ( 'NONE', *, *, #473, .T. ) ;
#1078 = DIRECTION ( 'NONE',  ( -0.000000000000000000, -1.000000000000000000, -0.000000000000000000 ) ) ;
#1079 = ORIENTED_EDGE ( 'NONE', *, *, #636, .F. ) ;
#1080 = LINE ( 'NONE', #629, #713 ) ;
#1081 = CARTESIAN_POINT ( 'NONE',  ( 45.16312671864704242, 48.39999999999999858, -42.30297844118578610 ) ) ;
#1082 = VERTEX_POINT ( 'NONE', #353 ) ;
#1083 = CARTESIAN_POINT ( 'NONE',  ( 33.58757210636080259, 43.39999999999999858, 51.97234841721104459 ) ) ;
#1084 = ORIENTED_EDGE ( 'NONE', *, *, #968, .F. ) ;
#1085 = EDGE_CURVE ( 'NONE', #500, #1059, #1141, .T. ) ;
#1086 = ORIENTED_EDGE ( 'NONE', *, *, #920, .F. ) ;
#1087 = LINE ( 'NONE', #897, #110 ) ;
#1088 = DIRECTION ( 'NONE',  ( 0.000000000000000000, 1.000000000000000000, 0.000000000000000000 ) ) ;
#1089 = EDGE_LOOP ( 'NONE', ( #378, #836, #452, #1319 ) ) ;
#1090 = DIRECTION ( 'NONE',  ( -0.000000000000000000, 1.000000000000000000, 0.000000000000000000 ) ) ;
#1091 = DIRECTION ( 'NONE',  ( 0.000000000000000000, 0.000000000000000000, 1.000000000000000000 ) ) ;
#1092 = ORIENTED_EDGE ( 'NONE', *, *, #589, .T. ) ;
#1093 = CIRCLE ( 'NONE', #495, 1.600000000000005862 ) ;
#1094 = VERTEX_POINT ( 'NONE', #236 ) ;
#1095 = CARTESIAN_POINT ( 'NONE',  ( 55.76380764758381048, 43.39999999999999858, -2.147044810145516625 ) ) ;
#1096 = CIRCLE ( 'NONE', #1163, 1.500000000000001332 ) ;
#1097 = ADVANCED_FACE ( 'NONE', ( #331, #552, #1104, #7, #242, #681, #438, #674, #564 ), #222, .T. ) ;
#1098 = CIRCLE ( 'NONE', #1224, 5.000000000000000888 ) ;
#1099 = EDGE_CURVE ( 'NONE', #1176, #1242, #1310, .T. ) ;
#1100 = AXIS2_PLACEMENT_3D ( 'NONE', #583, #1233, #141 ) ;
#1101 = DIRECTION ( 'NONE',  ( 0.000000000000000000, 1.000000000000000000, 0.000000000000000000 ) ) ;
#1102 = ORIENTED_EDGE ( 'NONE', *, *, #1306, .F. ) ;
#1103 = ORIENTED_EDGE ( 'NONE', *, *, #1378, .T. ) ;
#1104 = FACE_BOUND ( 'NONE', #967, .T. ) ;
#1105 = CARTESIAN_POINT ( 'NONE',  ( 55.76380764758381048, 48.39999999999999858, -2.147044810145516625 ) ) ;
#1106 = EDGE_LOOP ( 'NONE', ( #1121, #1283, #1084, #333 ) ) ;
#1107 = EDGE_LOOP ( 'NONE', ( #750, #1264, #1317, #866 ) ) ;
#1108 = CARTESIAN_POINT ( 'NONE',  ( 51.97234841721103038, 48.39999999999999858, 35.08757210636078838 ) ) ;
#1109 = ORIENTED_EDGE ( 'NONE', *, *, #782, .F. ) ;
#1110 = LINE ( 'NONE', #1001, #208 ) ;
#1111 = EDGE_CURVE ( 'NONE', #736, #358, #894, .T. ) ;
#1112 = ORIENTED_EDGE ( 'NONE', *, *, #83, .F. ) ;
#1113 = CARTESIAN_POINT ( 'NONE',  ( 0.5318054228320850951, 43.39999999999999858, 0.06529749532824952185 ) ) ;
#1114 = AXIS2_PLACEMENT_3D ( 'NONE', #1083, #193, #1091 ) ;
#1115 = AXIS2_PLACEMENT_3D ( 'NONE', #1390, #1194, #864 ) ;
#1116 = AXIS2_PLACEMENT_3D ( 'NONE', #395, #82, #515 ) ;
#1117 = FILL_AREA_STYLE_COLOUR ( '', #151 ) ;
#1118 = ORIENTED_EDGE ( 'NONE', *, *, #586, .T. ) ;
#1119 = CIRCLE ( 'NONE', #526, 1.500000000000001332 ) ;
#1120 = DIRECTION ( 'NONE',  ( 0.000000000000000000, 0.000000000000000000, 1.000000000000000000 ) ) ;
#1121 = ORIENTED_EDGE ( 'NONE', *, *, #214, .F. ) ;
#1122 = CARTESIAN_POINT ( 'NONE',  ( 46.18951439602320619, 48.39999999999999858, -46.41959456802228345 ) ) ;
#1123 = CARTESIAN_POINT ( 'NONE',  ( 60.76132443277736428, 48.39999999999999858, -10.51840594468098722 ) ) ;
#1124 = ORIENTED_EDGE ( 'NONE', *, *, #83, .T. ) ;
#1125 = CARTESIAN_POINT ( 'NONE',  ( 61.64803358821276902, 48.39999999999999858, -9.042674090477497373 ) ) ;
#1126 = VERTEX_POINT ( 'NONE', #881 ) ;
#1127 = EDGE_CURVE ( 'NONE', #575, #60, #33, .T. ) ;
#1128 = DIRECTION ( 'NONE',  ( 0.000000000000000000, 1.000000000000000000, 0.000000000000000000 ) ) ;
#1129 = CARTESIAN_POINT ( 'NONE',  ( 76.92073901777487777, 48.39999999999999858, -17.05280793189450250 ) ) ;
#1130 = LINE ( 'NONE', #1311, #249 ) ;
#1131 = VERTEX_POINT ( 'NONE', #983 ) ;
#1132 = DIRECTION ( 'NONE',  ( 0.000000000000000000, -1.000000000000000000, -0.000000000000000000 ) ) ;
#1133 = CARTESIAN_POINT ( 'NONE',  ( 45.16312671864704242, 43.39999999999999858, -42.30297844118578610 ) ) ;
#1134 = DIRECTION ( 'NONE',  ( 0.7071067811865474617, 0.000000000000000000, -0.7071067811865474617 ) ) ;
#1135 = EDGE_CURVE ( 'NONE', #945, #1299, #252, .T. ) ;
#1136 = FACE_OUTER_BOUND ( 'NONE', #787, .T. ) ;
#1137 = ORIENTED_EDGE ( 'NONE', *, *, #283, .T. ) ;
#1138 = EDGE_CURVE ( 'NONE', #1225, #584, #72, .T. ) ;
#1139 = VECTOR ( 'NONE', #835, 1000.000000000000000 ) ;
#1140 = AXIS2_PLACEMENT_3D ( 'NONE', #834, #1052, #75 ) ;
#1141 = CIRCLE ( 'NONE', #621, 1.499999999999994449 ) ;
#1142 = CARTESIAN_POINT ( 'NONE',  ( 69.01672159629576697, 43.39999999999999858, -13.13676211729657517 ) ) ;
#1143 = ORIENTED_EDGE ( 'NONE', *, *, #458, .F. ) ;
#1144 = DIRECTION ( 'NONE',  ( -0.7071067811865474617, 0.000000000000000000, -0.7071067811865474617 ) ) ;
#1145 = DIRECTION ( 'NONE',  ( 0.7071067811865482389, 0.000000000000000000, 0.7071067811865469066 ) ) ;
#1146 = ORIENTED_EDGE ( 'NONE', *, *, #187, .T. ) ;
#1147 = DIRECTION ( 'NONE',  ( 0.000000000000000000, 0.000000000000000000, 1.000000000000000000 ) ) ;
#1148 = LINE ( 'NONE', #261, #755 ) ;
#1149 = DIRECTION ( 'NONE',  ( 0.000000000000000000, 0.000000000000000000, -1.000000000000000000 ) ) ;
#1150 = DIRECTION ( 'NONE',  ( 0.000000000000000000, 0.000000000000000000, 1.000000000000000000 ) ) ;
#1151 = CARTESIAN_POINT ( 'NONE',  ( 69.00000000000000000, 6.630447378299527905, 12.00000000000000000 ) ) ;
#1152 = EDGE_LOOP ( 'NONE', ( #127, #962, #303, #142 ) ) ;
#1153 = FACE_OUTER_BOUND ( 'NONE', #1012, .T. ) ;
#1154 = DIRECTION ( 'NONE',  ( -0.000000000000000000, -1.000000000000000000, -0.000000000000000000 ) ) ;
#1155 = EDGE_CURVE ( 'NONE', #550, #60, #904, .T. ) ;
#1156 = CARTESIAN_POINT ( 'NONE',  ( 54.09366876077110931, 43.39999999999999858, 20.15254326381684535 ) ) ;
#1157 = ORIENTED_EDGE ( 'NONE', *, *, #696, .F. ) ;
#1158 = CARTESIAN_POINT ( 'NONE',  ( 46.18951439602320619, 48.39999999999999858, -46.41959456802228345 ) ) ;
#1159 = CARTESIAN_POINT ( 'NONE',  ( 51.97234841721103038, 48.39999999999999858, 33.58757210636078838 ) ) ;
#1160 = ORIENTED_EDGE ( 'NONE', *, *, #1189, .F. ) ;
#1161 = VECTOR ( 'NONE', #1263, 1000.000000000000000 ) ;
#1162 = DIRECTION ( 'NONE',  ( 0.000000000000000000, 0.000000000000000000, -1.000000000000000000 ) ) ;
#1163 = AXIS2_PLACEMENT_3D ( 'NONE', #101, #219, #656 ) ;
#1164 = FACE_OUTER_BOUND ( 'NONE', #1034, .T. ) ;
#1165 = CARTESIAN_POINT ( 'NONE',  ( 69.01672159629576697, 48.39999999999999858, -18.13676211729657695 ) ) ;
#1166 = AXIS2_PLACEMENT_3D ( 'NONE', #67, #499, #842 ) ;
#1167 = ORIENTED_EDGE ( 'NONE', *, *, #1155, .F. ) ;
#1168 = PLANE ( 'NONE',  #870 ) ;
#1169 = DIRECTION ( 'NONE',  ( 0.8571673007021116675, 0.000000000000000000, -0.5150380749100552658 ) ) ;
#1170 = CARTESIAN_POINT ( 'NONE',  ( 69.00000000000000000, 43.39999999999999858, 25.00000000000000000 ) ) ;
#1171 = CYLINDRICAL_SURFACE ( 'NONE', #978, 5.000000000000000888 ) ;
#1172 = LINE ( 'NONE', #857, #661 ) ;
#1173 = DIRECTION ( 'NONE',  ( 0.000000000000000000, 1.000000000000000000, 0.000000000000000000 ) ) ;
#1174 = ADVANCED_FACE ( 'NONE', ( #1008 ), #128, .T. ) ;
#1175 = DIRECTION ( 'NONE',  ( -0.8571673007021110013, -0.000000000000000000, 0.5150380749100562650 ) ) ;
#1176 = VERTEX_POINT ( 'NONE', #569 ) ;
#1177 = LINE ( 'NONE', #533, #1287 ) ;
#1178 = ORIENTED_EDGE ( 'NONE', *, *, #1393, .T. ) ;
#1179 = ADVANCED_FACE ( 'NONE', ( #912 ), #379, .F. ) ;
#1180 = CARTESIAN_POINT ( 'NONE',  ( 33.58757210636123602, 48.39999999999999858, 56.21498910433076901 ) ) ;
#1181 = ORIENTED_EDGE ( 'NONE', *, *, #144, .T. ) ;
#1182 = CIRCLE ( 'NONE', #341, 1.499999999999994449 ) ;
#1183 = PRESENTATION_LAYER_ASSIGNMENT (  '', '', ( #342 ) ) ;
#1184 = AXIS2_PLACEMENT_3D ( 'NONE', #371, #1128, #1340 ) ;
#1185 = ORIENTED_EDGE ( 'NONE', *, *, #670, .T. ) ;
#1186 = VERTEX_POINT ( 'NONE', #815 ) ;
#1187 = CARTESIAN_POINT ( 'NONE',  ( 79.49592939232516642, 48.39999999999999858, -12.76697142838393795 ) ) ;
#1188 = DIRECTION ( 'NONE',  ( -0.000000000000000000, 1.000000000000000000, -0.000000000000000000 ) ) ;
#1189 = EDGE_CURVE ( 'NONE', #850, #117, #715, .T. ) ;
#1190 = CARTESIAN_POINT ( 'NONE',  ( 79.50000000000000000, 48.39999999999999858, -9.250000000000005329 ) ) ;
#1191 = DIRECTION ( 'NONE',  ( -0.000000000000000000, -1.000000000000000000, -0.000000000000000000 ) ) ;
#1192 = ORIENTED_EDGE ( 'NONE', *, *, #1196, .F. ) ;
#1193 = ORIENTED_EDGE ( 'NONE', *, *, #838, .T. ) ;
#1194 = DIRECTION ( 'NONE',  ( 0.000000000000000000, 1.000000000000000000, 0.000000000000000000 ) ) ;
#1195 = ORIENTED_EDGE ( 'NONE', *, *, #660, .F. ) ;
#1196 = EDGE_CURVE ( 'NONE', #1299, #1225, #1110, .T. ) ;
#1197 = ORIENTED_EDGE ( 'NONE', *, *, #356, .F. ) ;
#1198 = CYLINDRICAL_SURFACE ( 'NONE', #775, 5.000000000000000888 ) ;
#1199 = EDGE_LOOP ( 'NONE', ( #224, #102, #281, #1092 ) ) ;
#1200 = ORIENTED_EDGE ( 'NONE', *, *, #535, .T. ) ;
#1201 = AXIS2_PLACEMENT_3D ( 'NONE', #600, #398, #728 ) ;
#1202 = ORIENTED_EDGE ( 'NONE', *, *, #761, .F. ) ;
#1203 = VECTOR ( 'NONE', #637, 1000.000000000000114 ) ;
#1204 = EDGE_CURVE ( 'NONE', #221, #475, #1227, .T. ) ;
#1205 = AXIS2_PLACEMENT_3D ( 'NONE', #286, #1070, #617 ) ;
#1206 = CIRCLE ( 'NONE', #596, 13.00000000000000178 ) ;
#1207 = CARTESIAN_POINT ( 'NONE',  ( 33.58757210636080259, 48.39999999999999858, 51.97234841721104459 ) ) ;
#1208 = ORIENTED_EDGE ( 'NONE', *, *, #535, .F. ) ;
#1209 = VERTEX_POINT ( 'NONE', #147 ) ;
#1210 = DIRECTION ( 'NONE',  ( 0.000000000000000000, 0.000000000000000000, 1.000000000000000000 ) ) ;
#1211 = ADVANCED_FACE ( 'NONE', ( #694 ), #245, .F. ) ;
#1212 = FACE_BOUND ( 'NONE', #212, .T. ) ;
#1213 = ORIENTED_EDGE ( 'NONE', *, *, #402, .T. ) ;
#1214 = DIRECTION ( 'NONE',  ( 0.000000000000000000, -1.000000000000000000, -0.000000000000000000 ) ) ;
#1215 = ORIENTED_EDGE ( 'NONE', *, *, #274, .F. ) ;
#1216 = DIRECTION ( 'NONE',  ( -0.000000000000000000, 1.000000000000000000, -0.000000000000000000 ) ) ;
#1217 = ORIENTED_EDGE ( 'NONE', *, *, #374, .T. ) ;
#1218 = EDGE_CURVE ( 'NONE', #1370, #829, #1313, .T. ) ;
#1219 = ORIENTED_EDGE ( 'NONE', *, *, #884, .F. ) ;
#1220 = CIRCLE ( 'NONE', #543, 5.000000000000000888 ) ;
#1221 = DIRECTION ( 'NONE',  ( -0.7071067811865474617, 0.000000000000000000, -0.7071067811865475727 ) ) ;
#1222 = VECTOR ( 'NONE', #1145, 1000.000000000000000 ) ;
#1223 = DIRECTION ( 'NONE',  ( 0.000000000000000000, 1.000000000000000000, 0.000000000000000000 ) ) ;
#1224 = AXIS2_PLACEMENT_3D ( 'NONE', #280, #725, #611 ) ;
#1225 = VERTEX_POINT ( 'NONE', #474 ) ;
#1226 = VECTOR ( 'NONE', #917, 1000.000000000000000 ) ;
#1227 = LINE ( 'NONE', #359, #1049 ) ;
#1228 = ADVANCED_FACE ( 'NONE', ( #786 ), #1329, .F. ) ;
#1229 = ORIENTED_EDGE ( 'NONE', *, *, #952, .F. ) ;
#1230 = LINE ( 'NONE', #1122, #570 ) ;
#1231 =( NAMED_UNIT ( * ) PLANE_ANGLE_UNIT ( ) SI_UNIT ( $, .RADIAN. ) );
#1232 = ORIENTED_EDGE ( 'NONE', *, *, #1346, .T. ) ;
#1233 = DIRECTION ( 'NONE',  ( -0.000000000000000000, 1.000000000000000000, -0.000000000000000000 ) ) ;
#1234 = DIRECTION ( 'NONE',  ( 0.000000000000000000, 1.000000000000000000, 0.000000000000000000 ) ) ;
#1235 = EDGE_CURVE ( 'NONE', #112, #601, #571, .T. ) ;
#1236 = PLANE ( 'NONE',  #415 ) ;
#1237 = EDGE_CURVE ( 'NONE', #701, #221, #1000, .T. ) ;
#1238 = DIRECTION ( 'NONE',  ( -0.8571673007021113344, 0.000000000000000000, 0.5150380749100558209 ) ) ;
#1239 = DIRECTION ( 'NONE',  ( 0.000000000000000000, -1.000000000000000000, 0.000000000000000000 ) ) ;
#1240 = ORIENTED_EDGE ( 'NONE', *, *, #1330, .T. ) ;
#1241 = CARTESIAN_POINT ( 'NONE',  ( 78.00000000000000000, 48.39999999999999858, -13.00000000000000000 ) ) ;
#1242 = VERTEX_POINT ( 'NONE', #363 ) ;
#1243 = LINE ( 'NONE', #51, #226 ) ;
#1244 = DIRECTION ( 'NONE',  ( -0.5150380749100558209, 0.000000000000000000, -0.8571673007021113344 ) ) ;
#1245 = VECTOR ( 'NONE', #179, 1000.000000000000000 ) ;
#1246 = DIRECTION ( 'NONE',  ( 0.000000000000000000, 0.000000000000000000, 1.000000000000000000 ) ) ;
#1247 = AXIS2_PLACEMENT_3D ( 'NONE', #1151, #1359, #1246 ) ;
#1248 = VERTEX_POINT ( 'NONE', #160 ) ;
#1249 = CARTESIAN_POINT ( 'NONE',  ( 0.5318054228320850951, 48.39999999999999858, 0.06529749532824952185 ) ) ;
#1250 = AXIS2_PLACEMENT_3D ( 'NONE', #714, #825, #1144 ) ;
#1251 = CARTESIAN_POINT ( 'NONE',  ( 62.57895013501040182, 48.39999999999999858, 34.29467888754707872 ) ) ;
#1252 = PRODUCT_DEFINITION_FORMATION_WITH_SPECIFIED_SOURCE ( 'ANY', '', #354, .NOT_KNOWN. ) ;
#1253 = FACE_OUTER_BOUND ( 'NONE', #667, .T. ) ;
#1254 = ORIENTED_EDGE ( 'NONE', *, *, #914, .T. ) ;
#1255 = CARTESIAN_POINT ( 'NONE',  ( 45.16312671864704242, 48.39999999999999858, -43.80297844118578610 ) ) ;
#1256 = ORIENTED_EDGE ( 'NONE', *, *, #1065, .T. ) ;
#1257 = EDGE_CURVE ( 'NONE', #352, #808, #66, .T. ) ;
#1258 = DIRECTION ( 'NONE',  ( 1.000000000000000000, 0.000000000000000000, 0.000000000000000000 ) ) ;
#1259 = DIRECTION ( 'NONE',  ( -0.8571673007021116675, 0.000000000000000000, 0.5150380749100552658 ) ) ;
#1260 = ORIENTED_EDGE ( 'NONE', *, *, #879, .F. ) ;
#1261 = FACE_OUTER_BOUND ( 'NONE', #768, .T. ) ;
#1262 = ORIENTED_EDGE ( 'NONE', *, *, #1038, .T. ) ;
#1263 = DIRECTION ( 'NONE',  ( -0.8571673007021113344, 0.000000000000000000, 0.5150380749100559319 ) ) ;
#1264 = ORIENTED_EDGE ( 'NONE', *, *, #845, .F. ) ;
#1265 = CARTESIAN_POINT ( 'NONE',  ( 79.49592939232516642, 43.39999999999999858, -12.76697142838393795 ) ) ;
#1266 = CARTESIAN_POINT ( 'NONE',  ( 54.09366876077110931, 48.39999999999999858, 27.22361107568232086 ) ) ;
#1267 = EDGE_LOOP ( 'NONE', ( #1256, #135 ) ) ;
#1268 = AXIS2_PLACEMENT_3D ( 'NONE', #626, #1282, #653 ) ;
#1269 = DIRECTION ( 'NONE',  ( 0.000000000000000000, 1.000000000000000000, 0.000000000000000000 ) ) ;
#1270 = AXIS2_PLACEMENT_3D ( 'NONE', #1081, #538, #760 ) ;
#1271 = DIRECTION ( 'NONE',  ( -0.000000000000000000, -1.000000000000000000, -0.000000000000000000 ) ) ;
#1272 = AXIS2_PLACEMENT_3D ( 'NONE', #287, #188, #643 ) ;
#1273 = EDGE_CURVE ( 'NONE', #6, #772, #1011, .T. ) ;
#1274 = DIRECTION ( 'NONE',  ( -0.8571673007021114454, 0.000000000000000000, 0.5150380749100557098 ) ) ;
#1275 = DIRECTION ( 'NONE',  ( 0.000000000000000000, 0.000000000000000000, 1.000000000000000000 ) ) ;
#1276 = EDGE_LOOP ( 'NONE', ( #695, #1213, #103, #1007 ) ) ;
#1277 = ORIENTED_EDGE ( 'NONE', *, *, #1218, .T. ) ;
#1278 = EDGE_LOOP ( 'NONE', ( #1112, #1202 ) ) ;
#1279 = EDGE_CURVE ( 'NONE', #601, #85, #827, .T. ) ;
#1280 = ADVANCED_FACE ( 'NONE', ( #52 ), #257, .F. ) ;
#1281 = DIRECTION ( 'NONE',  ( 0.000000000000000000, 0.000000000000000000, -1.000000000000000000 ) ) ;
#1282 = DIRECTION ( 'NONE',  ( -0.000000000000000000, 1.000000000000000000, 0.000000000000000000 ) ) ;
#1283 = ORIENTED_EDGE ( 'NONE', *, *, #430, .T. ) ;
#1284 = DIRECTION ( 'NONE',  ( -0.000000000000000000, -1.000000000000000000, -0.000000000000000000 ) ) ;
#1285 = EDGE_CURVE ( 'NONE', #191, #311, #8, .T. ) ;
#1286 = LINE ( 'NONE', #751, #642 ) ;
#1287 = VECTOR ( 'NONE', #1379, 1000.000000000000000 ) ;
#1288 = LINE ( 'NONE', #549, #29 ) ;
#1289 = CIRCLE ( 'NONE', #434, 5.000000000000000888 ) ;
#1290 = ORIENTED_EDGE ( 'NONE', *, *, #914, .F. ) ;
#1291 = AXIS2_PLACEMENT_3D ( 'NONE', #366, #454, #709 ) ;
#1292 = CARTESIAN_POINT ( 'NONE',  ( 41.04651059181053796, 48.39999999999999858, -43.32936611856194986 ) ) ;
#1293 = CARTESIAN_POINT ( 'NONE',  ( 66.11448404094313958, 43.39999999999999858, 30.75914498161433741 ) ) ;
#1294 = ADVANCED_FACE ( 'NONE', ( #145 ), #691, .F. ) ;
#1295 = DIRECTION ( 'NONE',  ( 0.000000000000000000, 1.000000000000000000, 0.000000000000000000 ) ) ;
#1296 = ORIENTED_EDGE ( 'NONE', *, *, #1378, .F. ) ;
#1297 = CARTESIAN_POINT ( 'NONE',  ( 61.64803358821276902, 43.39999999999999858, -9.042674090477497373 ) ) ;
#1298 = CYLINDRICAL_SURFACE ( 'NONE', #1351, 1.500000000000001332 ) ;
#1299 = VERTEX_POINT ( 'NONE', #1341 ) ;
#1300 = PRODUCT_RELATED_PRODUCT_CATEGORY ( 'part', '', ( #354 ) ) ;
#1301 = CARTESIAN_POINT ( 'NONE',  ( 45.16312671864704242, 48.39999999999999858, -42.30297844118578610 ) ) ;
#1302 = EDGE_LOOP ( 'NONE', ( #972, #1327, #657, #1102 ) ) ;
#1303 = CARTESIAN_POINT ( 'NONE',  ( 33.58757210636080259, 43.39999999999999858, 51.97234841721104459 ) ) ;
#1304 = EDGE_LOOP ( 'NONE', ( #754, #285, #893, #345, #598, #244, #1077, #1178, #1277, #1185, #921, #900, #466, #1181, #889, #814, #1013, #612, #23, #649, #184, #1217 ) ) ;
#1305 = ORIENTED_EDGE ( 'NONE', *, *, #961, .F. ) ;
#1306 = EDGE_CURVE ( 'NONE', #1059, #1186, #1334, .T. ) ;
#1307 = DIRECTION ( 'NONE',  ( -0.000000000000000000, 1.000000000000000000, 0.000000000000000000 ) ) ;
#1308 = AXIS2_PLACEMENT_3D ( 'NONE', #1350, #1366, #1169 ) ;
#1309 = AXIS2_PLACEMENT_3D ( 'NONE', #383, #1014, #1040 ) ;
#1310 = CIRCLE ( 'NONE', #460, 5.000000000000000888 ) ;
#1311 = CARTESIAN_POINT ( 'NONE',  ( 78.00000000000000000, 38.87451660040608203, -11.39999999999999325 ) ) ;
#1312 = EDGE_LOOP ( 'NONE', ( #895, #731 ) ) ;
#1313 = LINE ( 'NONE', #351, #666 ) ;
#1314 = VERTEX_POINT ( 'NONE', #329 ) ;
#1315 = PRODUCT_DEFINITION ( 'UNKNOWN', '', #1252, #620 ) ;
#1316 = FACE_BOUND ( 'NONE', #872, .T. ) ;
#1317 = ORIENTED_EDGE ( 'NONE', *, *, #529, .T. ) ;
#1318 = CARTESIAN_POINT ( 'NONE',  ( 79.50000000000000000, 43.39999999999999858, -5.000000000000000000 ) ) ;
#1319 = ORIENTED_EDGE ( 'NONE', *, *, #920, .T. ) ;
#1320 = PLANE ( 'NONE',  #3 ) ;
#1321 = ORIENTED_EDGE ( 'NONE', *, *, #618, .T. ) ;
#1322 = EDGE_LOOP ( 'NONE', ( #1195, #340 ) ) ;
#1323 = CIRCLE ( 'NONE', #411, 5.000000000000000888 ) ;
#1324 = CARTESIAN_POINT ( 'NONE',  ( 69.50000000000000000, 48.39999999999999858, 28.20000000000000284 ) ) ;
#1325 = CIRCLE ( 'NONE', #686, 84.99999999999963052 ) ;
#1326 = FACE_BOUND ( 'NONE', #162, .T. ) ;
#1327 = ORIENTED_EDGE ( 'NONE', *, *, #1017, .T. ) ;
#1328 = AXIS2_PLACEMENT_3D ( 'NONE', #1251, #913, #181 ) ;
#1329 = CYLINDRICAL_SURFACE ( 'NONE', #1355, 1.600000000000005862 ) ;
#1330 = EDGE_CURVE ( 'NONE', #563, #1094, #1119, .T. ) ;
#1331 = EDGE_CURVE ( 'NONE', #1055, #1332, #958, .T. ) ;
#1332 = VERTEX_POINT ( 'NONE', #343 ) ;
#1333 = LINE ( 'NONE', #1010, #456 ) ;
#1334 = LINE ( 'NONE', #1349, #229 ) ;
#1335 = CARTESIAN_POINT ( 'NONE',  ( 67.30607546733548929, 48.39999999999999858, -11.27573523923572907 ) ) ;
#1336 = ORIENTED_EDGE ( 'NONE', *, *, #506, .F. ) ;
#1337 = DIRECTION ( 'NONE',  ( -0.000000000000000000, -1.000000000000000000, -0.000000000000000000 ) ) ;
#1338 = DIRECTION ( 'NONE',  ( 0.000000000000000000, 0.000000000000000000, 1.000000000000000000 ) ) ;
#1339 = EDGE_CURVE ( 'NONE', #146, #121, #1288, .T. ) ;
#1340 = DIRECTION ( 'NONE',  ( 0.000000000000000000, 0.000000000000000000, 1.000000000000000000 ) ) ;
#1341 = CARTESIAN_POINT ( 'NONE',  ( 48.95982855999957906, 48.39999999999999858, 15.01870306304530978 ) ) ;
#1342 = DIRECTION ( 'NONE',  ( 0.000000000000000000, 1.000000000000000000, 0.000000000000000000 ) ) ;
#1343 = ORIENTED_EDGE ( 'NONE', *, *, #1029, .F. ) ;
#1344 = LINE ( 'NONE', #749, #1376 ) ;
#1345 = CARTESIAN_POINT ( 'NONE',  ( 78.00000000000000000, 43.39999999999999858, -11.39999999999999325 ) ) ;
#1346 = EDGE_CURVE ( 'NONE', #317, #177, #215, .T. ) ;
#1347 = CARTESIAN_POINT ( 'NONE',  ( 69.00000000000000000, 48.39999999999999858, 12.00000000000000000 ) ) ;
#1348 = AXIS2_PLACEMENT_3D ( 'NONE', #1368, #61, #927 ) ;
#1349 = CARTESIAN_POINT ( 'NONE',  ( 51.97234841721103038, 48.39999999999999858, 32.08757210636079549 ) ) ;
#1350 = CARTESIAN_POINT ( 'NONE',  ( 46.18951439602320619, 48.39999999999999858, -46.41959456802228345 ) ) ;
#1351 = AXIS2_PLACEMENT_3D ( 'NONE', #1207, #332, #232 ) ;
#1352 = ORIENTED_EDGE ( 'NONE', *, *, #170, .F. ) ;
#1353 = VECTOR ( 'NONE', #376, 999.9999999999998863 ) ;
#1354 = FACE_OUTER_BOUND ( 'NONE', #980, .T. ) ;
#1355 = AXIS2_PLACEMENT_3D ( 'NONE', #685, #678, #1120 ) ;
#1356 = FACE_OUTER_BOUND ( 'NONE', #896, .T. ) ;
#1357 = EDGE_LOOP ( 'NONE', ( #856, #609, #168, #883 ) ) ;
#1358 = LINE ( 'NONE', #841, #890 ) ;
#1359 = DIRECTION ( 'NONE',  ( -0.000000000000000000, 1.000000000000000000, -0.000000000000000000 ) ) ;
#1360 = ORIENTED_EDGE ( 'NONE', *, *, #1027, .T. ) ;
#1361 = CARTESIAN_POINT ( 'NONE',  ( 50.55813485483837155, 43.39999999999999858, 23.68807716974957955 ) ) ;
#1362 = FACE_OUTER_BOUND ( 'NONE', #1276, .T. ) ;
#1363 = PRODUCT_DEFINITION_SHAPE ( 'NONE', 'NONE',  #1315 ) ;
#1364 = ORIENTED_EDGE ( 'NONE', *, *, #1393, .F. ) ;
#1365 = DIRECTION ( 'NONE',  ( 0.000000000000000000, 1.000000000000000000, 0.000000000000000000 ) ) ;
#1366 = DIRECTION ( 'NONE',  ( 0.5150380749100552658, -0.000000000000000000, 0.8571673007021116675 ) ) ;
#1367 = ORIENTED_EDGE ( 'NONE', *, *, #334, .F. ) ;
#1368 = CARTESIAN_POINT ( 'NONE',  ( 62.57895013501040182, 48.39999999999999858, 27.22361107568160676 ) ) ;
#1369 = EDGE_CURVE ( 'NONE', #584, #945, #200, .T. ) ;
#1370 = VERTEX_POINT ( 'NONE', #88 ) ;
#1371 = CARTESIAN_POINT ( 'NONE',  ( 33.58757210636080259, 48.39999999999999858, 50.47234841721104459 ) ) ;
#1372 = ORIENTED_EDGE ( 'NONE', *, *, #705, .T. ) ;
#1373 = CARTESIAN_POINT ( 'NONE',  ( 51.97234841721103038, 48.39999999999999858, 35.08757210636078838 ) ) ;
#1374 = FACE_OUTER_BOUND ( 'NONE', #1106, .T. ) ;
#1375 = CYLINDRICAL_SURFACE ( 'NONE', #1247, 13.00000000000000178 ) ;
#1376 = VECTOR ( 'NONE', #387, 1000.000000000000000 ) ;
#1377 = LINE ( 'NONE', #721, #225 ) ;
#1378 = EDGE_CURVE ( 'NONE', #36, #177, #1206, .T. ) ;
#1379 = DIRECTION ( 'NONE',  ( -0.000000000000000000, 1.000000000000000000, -0.000000000000000000 ) ) ;
#1380 = AXIS2_PLACEMENT_3D ( 'NONE', #1347, #391, #166 ) ;
#1381 = EDGE_CURVE ( 'NONE', #380, #1382, #97, .T. ) ;
#1382 = VERTEX_POINT ( 'NONE', #759 ) ;
#1383 = DIRECTION ( 'NONE',  ( -0.000000000000000000, -1.000000000000000000, -0.000000000000000000 ) ) ;
#1384 = CARTESIAN_POINT ( 'NONE',  ( 62.57895013501040182, 43.39999999999999858, 34.29467888754707872 ) ) ;
#1385 = ORIENTED_EDGE ( 'NONE', *, *, #636, .T. ) ;
#1386 = CYLINDRICAL_SURFACE ( 'NONE', #389, 4.250000000000005329 ) ;
#1387 = CARTESIAN_POINT ( 'NONE',  ( 49.92017209138204237, 15.54475805715730630, 7.197332653602017238 ) ) ;
#1388 = CARTESIAN_POINT ( 'NONE',  ( 79.50000000000000000, 31.37918471982867885, -0.7499999999999945599 ) ) ;
#1389 = ADVANCED_FACE ( 'NONE', ( #1164 ), #1171, .T. ) ;
#1390 = CARTESIAN_POINT ( 'NONE',  ( 62.57895013501040182, 48.39999999999999858, 34.29467888754707872 ) ) ;
#1391 = ORIENTED_EDGE ( 'NONE', *, *, #679, .F. ) ;
#1392 = EDGE_LOOP ( 'NONE', ( #233, #14, #875, #1395 ) ) ;
#1393 = EDGE_CURVE ( 'NONE', #1209, #1370, #1072, .T. ) ;
#1394 = FACE_OUTER_BOUND ( 'NONE', #259, .T. ) ;
#1395 = ORIENTED_EDGE ( 'NONE', *, *, #676, .F. ) ;
ENDSEC;
END-ISO-10303-21;
