ISO-10303-21;
HEADER;
FILE_DESCRIPTION (( 'STEP AP214' ),
    '1' );
FILE_NAME ('motor-magnet-holder.STEP',
    '2026-03-21T22:31:32',
    ( '' ),
    ( '' ),
    'SwSTEP 2.0',
    'SolidWorks 2026',
    '' );
FILE_SCHEMA (( 'AUTOMOTIVE_DESIGN' ));
ENDSEC;

DATA;
#1 =( NAMED_UNIT ( * ) PLANE_ANGLE_UNIT ( ) SI_UNIT ( $, .RADIAN. ) );
#2 = CARTESIAN_POINT ( 'NONE',  ( -2.000000000000000000, 0.000000000000000000, 0.000000000000000000 ) ) ;
#3 = VECTOR ( 'NONE', #400, 1000.000000000000114 ) ;
#4 = CARTESIAN_POINT ( 'NONE',  ( -2.000000000000000000, 7.225416114969384193E-16, 5.899999999999999467 ) ) ;
#5 = CARTESIAN_POINT ( 'NONE',  ( 0.000000000000000000, 0.000000000000000000, 0.000000000000000000 ) ) ;
#6 = VERTEX_POINT ( 'NONE', #267 ) ;
#7 = DIRECTION ( 'NONE',  ( -1.000000000000000000, -0.000000000000000000, -0.000000000000000000 ) ) ;
#8 = ORIENTED_EDGE ( 'NONE', *, *, #245, .T. ) ;
#9 = AXIS2_PLACEMENT_3D ( 'NONE', #360, #196, #162 ) ;
#10 = CARTESIAN_POINT ( 'NONE',  ( 12.00000000000000000, 3.918869757271530460E-16, -3.200000000000000178 ) ) ;
#11 = CARTESIAN_POINT ( 'NONE',  ( 0.5999999999999999778, 2.681976490132703452E-15, -21.89999999999999858 ) ) ;
#12 = DIRECTION ( 'NONE',  ( 1.000000000000000000, -0.000000000000000000, -0.000000000000000000 ) ) ;
#13 = DIRECTION ( 'NONE',  ( 0.000000000000000000, 0.000000000000000000, 1.000000000000000000 ) ) ;
#14 = TOROIDAL_SURFACE ( 'NONE', #63, 5.899999999999999467, 2.000000000000000000 ) ;
#15 = DIRECTION ( 'NONE',  ( 1.000000000000000000, 0.000000000000000000, 0.000000000000000000 ) ) ;
#16 = CARTESIAN_POINT ( 'NONE',  ( 0.5999999999999998668, 0.000000000000000000, 21.39999999999999858 ) ) ;
#17 = VERTEX_POINT ( 'NONE', #200 ) ;
#18 = ADVANCED_FACE ( 'NONE', ( #169 ), #230, .T. ) ;
#19 = LINE ( 'NONE', #323, #3 ) ;
#20 =( NAMED_UNIT ( * ) PLANE_ANGLE_UNIT ( ) SI_UNIT ( $, .RADIAN. ) );
#21 = APPLICATION_CONTEXT ( 'automotive_design' ) ;
#22 = VERTEX_POINT ( 'NONE', #181 ) ;
#23 = CARTESIAN_POINT ( 'NONE',  ( 0.000000000000000000, 0.000000000000000000, 0.000000000000000000 ) ) ;
#24 = EDGE_LOOP ( 'NONE', ( #82, #337 ) ) ;
#25 = DIRECTION ( 'NONE',  ( 0.000000000000000000, 0.000000000000000000, 1.000000000000000000 ) ) ;
#26 = ORIENTED_EDGE ( 'NONE', *, *, #257, .F. ) ;
#27 = EDGE_LOOP ( 'NONE', ( #301, #73 ) ) ;
#28 = UNCERTAINTY_MEASURE_WITH_UNIT (LENGTH_MEASURE( 1.000000000000000082E-05 ), #158, 'distance_accuracy_value', 'NONE');
#29 = CARTESIAN_POINT ( 'NONE',  ( 0.5999999999999998668, 0.000000000000000000, 3.200000000000000178 ) ) ;
#30 = CARTESIAN_POINT ( 'NONE',  ( 12.59999999999999964, 0.000000000000000000, 0.000000000000000000 ) ) ;
#31 = CIRCLE ( 'NONE', #324, 3.200000000000000178 ) ;
#32 = AXIS2_PLACEMENT_3D ( 'NONE', #39, #45, #40 ) ;
#33 = DIRECTION ( 'NONE',  ( -1.000000000000000000, -0.000000000000000000, -0.000000000000000000 ) ) ;
#34 = ADVANCED_FACE ( 'NONE', ( #75 ), #341, .F. ) ;
#35 = AXIS2_PLACEMENT_3D ( 'NONE', #367, #270, #25 ) ;
#36 = DIRECTION ( 'NONE',  ( 0.000000000000000000, 0.000000000000000000, 1.000000000000000000 ) ) ;
#37 = AXIS2_PLACEMENT_3D ( 'NONE', #321, #395, #394 ) ;
#38 = DIRECTION ( 'NONE',  ( -1.000000000000000000, -0.000000000000000000, -0.000000000000000000 ) ) ;
#39 = CARTESIAN_POINT ( 'NONE',  ( 0.5999999999999998668, 0.000000000000000000, 0.000000000000000000 ) ) ;
#40 = DIRECTION ( 'NONE',  ( 0.000000000000000000, 0.000000000000000000, -1.000000000000000000 ) ) ;
#41 = CARTESIAN_POINT ( 'NONE',  ( -2.000000000000000000, 0.000000000000000000, 3.200000000000000178 ) ) ;
#42 = DIRECTION ( 'NONE',  ( -1.000000000000000000, -0.000000000000000000, -0.000000000000000000 ) ) ;
#43 = EDGE_LOOP ( 'NONE', ( #340, #239, #406, #126 ) ) ;
#44 = EDGE_LOOP ( 'NONE', ( #52, #155, #370, #369 ) ) ;
#45 = DIRECTION ( 'NONE',  ( 1.000000000000000000, 0.000000000000000000, 0.000000000000000000 ) ) ;
#46 = ORIENTED_EDGE ( 'NONE', *, *, #277, .T. ) ;
#47 = ADVANCED_FACE ( 'NONE', ( #300 ), #131, .F. ) ;
#48 = AXIS2_PLACEMENT_3D ( 'NONE', #326, #12, #62 ) ;
#49 = ORIENTED_EDGE ( 'NONE', *, *, #110, .T. ) ;
#50 = VERTEX_POINT ( 'NONE', #53 ) ;
#51 = SHAPE_DEFINITION_REPRESENTATION ( #391, #374 ) ;
#52 = ORIENTED_EDGE ( 'NONE', *, *, #277, .F. ) ;
#53 = CARTESIAN_POINT ( 'NONE',  ( 0.5000000000000004441, 0.000000000000000000, 21.89999999999999858 ) ) ;
#54 = AXIS2_PLACEMENT_3D ( 'NONE', #195, #42, #225 ) ;
#55 = FACE_OUTER_BOUND ( 'NONE', #284, .T. ) ;
#56 = DIRECTION ( 'NONE',  ( 0.000000000000000000, 1.000000000000000000, -1.224646799147353207E-16 ) ) ;
#57 = DIRECTION ( 'NONE',  ( 1.000000000000000000, 0.000000000000000000, 0.000000000000000000 ) ) ;
#58 = CONICAL_SURFACE ( 'NONE', #104, 21.89999999999999858, 0.7853981633974482790 ) ;
#59 = FACE_BOUND ( 'NONE', #176, .T. ) ;
#60 = FACE_OUTER_BOUND ( 'NONE', #102, .T. ) ;
#61 = AXIS2_PLACEMENT_3D ( 'NONE', #87, #183, #218 ) ;
#62 = DIRECTION ( 'NONE',  ( 0.000000000000000000, 0.000000000000000000, -1.000000000000000000 ) ) ;
#63 = AXIS2_PLACEMENT_3D ( 'NONE', #132, #269, #228 ) ;
#64 = ADVANCED_FACE ( 'NONE', ( #274, #101 ), #231, .F. ) ;
#65 = FACE_OUTER_BOUND ( 'NONE', #98, .T. ) ;
#66 = CARTESIAN_POINT ( 'NONE',  ( 12.59999999999999964, 0.000000000000000000, 21.39999999999999858 ) ) ;
#67 = CARTESIAN_POINT ( 'NONE',  ( 0.5000000000000004441, 0.000000000000000000, -21.89999999999999858 ) ) ;
#68 = ADVANCED_FACE ( 'NONE', ( #60 ), #114, .F. ) ;
#69 = AXIS2_PLACEMENT_3D ( 'NONE', #237, #304, #405 ) ;
#70 = DIRECTION ( 'NONE',  ( -1.000000000000000000, -0.000000000000000000, -0.000000000000000000 ) ) ;
#71 = VERTEX_POINT ( 'NONE', #148 ) ;
#72 = CARTESIAN_POINT ( 'NONE',  ( 12.59999999999999964, 2.620744150175335878E-15, -21.39999999999999858 ) ) ;
#73 = ORIENTED_EDGE ( 'NONE', *, *, #389, .T. ) ;
#74 = EDGE_CURVE ( 'NONE', #194, #50, #318, .T. ) ;
#75 = FACE_OUTER_BOUND ( 'NONE', #401, .T. ) ;
#76 = ORIENTED_EDGE ( 'NONE', *, *, #141, .F. ) ;
#77 = ORIENTED_EDGE ( 'NONE', *, *, #384, .T. ) ;
#78 = AXIS2_PLACEMENT_3D ( 'NONE', #90, #122, #298 ) ;
#79 = CARTESIAN_POINT ( 'NONE',  ( 0.000000000000000000, 0.000000000000000000, 0.000000000000000000 ) ) ;
#80 = DIRECTION ( 'NONE',  ( 0.000000000000000000, 0.000000000000000000, 1.000000000000000000 ) ) ;
#81 = EDGE_LOOP ( 'NONE', ( #160, #207, #49, #375 ) ) ;
#82 = ORIENTED_EDGE ( 'NONE', *, *, #257, .T. ) ;
#83 = DIRECTION ( 'NONE',  ( -1.000000000000000000, 0.000000000000000000, 0.000000000000000000 ) ) ;
#84 = AXIS2_PLACEMENT_3D ( 'NONE', #329, #80, #177 ) ;
#85 = FACE_OUTER_BOUND ( 'NONE', #411, .T. ) ;
#86 = EDGE_CURVE ( 'NONE', #6, #164, #204, .T. ) ;
#87 = CARTESIAN_POINT ( 'NONE',  ( 12.59999999999999964, 0.000000000000000000, 0.000000000000000000 ) ) ;
#88 = DIRECTION ( 'NONE',  ( -1.000000000000000000, 0.000000000000000000, 0.000000000000000000 ) ) ;
#89 = CARTESIAN_POINT ( 'NONE',  ( 0.5000000000000004441, 0.000000000000000000, 0.000000000000000000 ) ) ;
#90 = CARTESIAN_POINT ( 'NONE',  ( -2.000000000000000000, 0.000000000000000000, -5.899999999999999467 ) ) ;
#91 = DIRECTION ( 'NONE',  ( 1.000000000000000000, 0.000000000000000000, 0.000000000000000000 ) ) ;
#92 = EDGE_CURVE ( 'NONE', #399, #232, #272, .T. ) ;
#93 = CARTESIAN_POINT ( 'NONE',  ( -2.000000000000000000, 0.000000000000000000, 0.000000000000000000 ) ) ;
#94 = EDGE_LOOP ( 'NONE', ( #211, #299 ) ) ;
#95 = EDGE_CURVE ( 'NONE', #229, #264, #381, .T. ) ;
#96 = CIRCLE ( 'NONE', #191, 21.39999999999999858 ) ;
#97 = PRESENTATION_STYLE_ASSIGNMENT (( #100 ) ) ;
#98 = EDGE_LOOP ( 'NONE', ( #161, #368, #105, #134 ) ) ;
#99 = ORIENTED_EDGE ( 'NONE', *, *, #136, .F. ) ;
#100 = SURFACE_STYLE_USAGE ( .BOTH. , #199 ) ;
#101 = FACE_BOUND ( 'NONE', #24, .T. ) ;
#102 = EDGE_LOOP ( 'NONE', ( #339, #352, #147, #258 ) ) ;
#103 = AXIS2_PLACEMENT_3D ( 'NONE', #5, #7, #241 ) ;
#104 = AXIS2_PLACEMENT_3D ( 'NONE', #89, #140, #278 ) ;
#105 = ORIENTED_EDGE ( 'NONE', *, *, #384, .F. ) ;
#106 = ORIENTED_EDGE ( 'NONE', *, *, #141, .T. ) ;
#107 = AXIS2_PLACEMENT_3D ( 'NONE', #311, #182, #189 ) ;
#108 = PLANE ( 'NONE',  #118 ) ;
#109 = AXIS2_PLACEMENT_3D ( 'NONE', #23, #198, #119 ) ;
#110 = EDGE_CURVE ( 'NONE', #71, #179, #31, .T. ) ;
#111 = FACE_BOUND ( 'NONE', #94, .T. ) ;
#112 = DIRECTION ( 'NONE',  ( 0.000000000000000000, 0.000000000000000000, 1.000000000000000000 ) ) ;
#113 = DIRECTION ( 'NONE',  ( -1.000000000000000000, 0.000000000000000000, 0.000000000000000000 ) ) ;
#114 = CYLINDRICAL_SURFACE ( 'NONE', #259, 21.39999999999999858 ) ;
#115 = PRODUCT ( 'motor-magnet-holder', 'motor-magnet-holder', '', ( #306 ) ) ;
#116 = LINE ( 'NONE', #11, #387 ) ;
#117 = DIRECTION ( 'NONE',  ( 1.000000000000000000, -0.000000000000000000, -0.000000000000000000 ) ) ;
#118 = AXIS2_PLACEMENT_3D ( 'NONE', #30, #146, #188 ) ;
#119 = DIRECTION ( 'NONE',  ( 0.000000000000000000, 0.000000000000000000, -1.000000000000000000 ) ) ;
#120 = CIRCLE ( 'NONE', #54, 21.39999999999999858 ) ;
#121 = EDGE_CURVE ( 'NONE', #175, #129, #307, .T. ) ;
#122 = DIRECTION ( 'NONE',  ( 0.000000000000000000, -1.000000000000000000, 0.000000000000000000 ) ) ;
#123 = ADVANCED_FACE ( 'NONE', ( #55, #316 ), #212, .T. ) ;
#124 = DIRECTION ( 'NONE',  ( 0.000000000000000000, 0.000000000000000000, -1.000000000000000000 ) ) ;
#125 = DIRECTION ( 'NONE',  ( -1.000000000000000000, -0.000000000000000000, -0.000000000000000000 ) ) ;
#126 = ORIENTED_EDGE ( 'NONE', *, *, #293, .T. ) ;
#127 = FACE_OUTER_BOUND ( 'NONE', #81, .T. ) ;
#128 = AXIS2_PLACEMENT_3D ( 'NONE', #282, #113, #145 ) ;
#129 = VERTEX_POINT ( 'NONE', #29 ) ;
#130 = EDGE_LOOP ( 'NONE', ( #276, #335, #271, #106 ) ) ;
#131 = CYLINDRICAL_SURFACE ( 'NONE', #69, 3.200000000000000178 ) ;
#132 = CARTESIAN_POINT ( 'NONE',  ( -2.000000000000000000, 0.000000000000000000, 0.000000000000000000 ) ) ;
#133 = DIRECTION ( 'NONE',  ( 0.000000000000000000, 0.000000000000000000, 1.000000000000000000 ) ) ;
#134 = ORIENTED_EDGE ( 'NONE', *, *, #342, .F. ) ;
#135 = CARTESIAN_POINT ( 'NONE',  ( 12.59999999999999964, 0.000000000000000000, 0.000000000000000000 ) ) ;
#136 = EDGE_CURVE ( 'NONE', #17, #6, #371, .T. ) ;
#137 = VERTEX_POINT ( 'NONE', #351 ) ;
#138 = ADVANCED_FACE ( 'NONE', ( #85 ), #58, .T. ) ;
#139 = APPLICATION_PROTOCOL_DEFINITION ( 'draft international standard', 'automotive_design', 1998, #21 ) ;
#140 = DIRECTION ( 'NONE',  ( 1.000000000000000000, -0.000000000000000000, -0.000000000000000000 ) ) ;
#141 = EDGE_CURVE ( 'NONE', #179, #71, #233, .T. ) ;
#142 = DIRECTION ( 'NONE',  ( 0.000000000000000000, 0.000000000000000000, -1.000000000000000000 ) ) ;
#143 = CIRCLE ( 'NONE', #393, 5.899999999999999467 ) ;
#144 = EDGE_CURVE ( 'NONE', #175, #71, #214, .T. ) ;
#145 = DIRECTION ( 'NONE',  ( 0.000000000000000000, 0.000000000000000000, 1.000000000000000000 ) ) ;
#146 = DIRECTION ( 'NONE',  ( 1.000000000000000000, 0.000000000000000000, 0.000000000000000000 ) ) ;
#147 = ORIENTED_EDGE ( 'NONE', *, *, #297, .T. ) ;
#148 = CARTESIAN_POINT ( 'NONE',  ( -2.000000000000000000, 3.918869757271530460E-16, -3.200000000000000178 ) ) ;
#149 = AXIS2_PLACEMENT_3D ( 'NONE', #379, #410, #309 ) ;
#150 = COLOUR_RGB ( '',0.7921568627450980005, 0.8196078431372548767, 0.9333333333333333481 ) ;
#151 = ADVANCED_FACE ( 'NONE', ( #242, #59 ), #108, .T. ) ;
#152 = DIRECTION ( 'NONE',  ( -1.000000000000000000, 0.000000000000000000, 0.000000000000000000 ) ) ;
#153 = CARTESIAN_POINT ( 'NONE',  ( 12.59999999999999964, 0.000000000000000000, 0.000000000000000000 ) ) ;
#154 = DIRECTION ( 'NONE',  ( 1.000000000000000000, 0.000000000000000000, 0.000000000000000000 ) ) ;
#155 = ORIENTED_EDGE ( 'NONE', *, *, #344, .T. ) ;
#156 = VECTOR ( 'NONE', #249, 1000.000000000000000 ) ;
#157 = LINE ( 'NONE', #66, #156 ) ;
#158 =( LENGTH_UNIT ( ) NAMED_UNIT ( * ) SI_UNIT ( .MILLI., .METRE. ) );
#159 = DIRECTION ( 'NONE',  ( 1.000000000000000000, 0.000000000000000000, 0.000000000000000000 ) ) ;
#160 = ORIENTED_EDGE ( 'NONE', *, *, #315, .T. ) ;
#161 = ORIENTED_EDGE ( 'NONE', *, *, #314, .F. ) ;
#162 = DIRECTION ( 'NONE',  ( 0.000000000000000000, 0.000000000000000000, 1.000000000000000000 ) ) ;
#163 = APPLICATION_CONTEXT ( 'automotive_design' ) ;
#164 = VERTEX_POINT ( 'NONE', #281 ) ;
#165 = ADVANCED_FACE ( 'NONE', ( #111, #385 ), #216, .T. ) ;
#166 = PRESENTATION_LAYER_ASSIGNMENT (  '', '', ( #348 ) ) ;
#167 = CIRCLE ( 'NONE', #382, 3.899999999999999911 ) ;
#168 =( LENGTH_UNIT ( ) NAMED_UNIT ( * ) SI_UNIT ( .MILLI., .METRE. ) );
#169 = FACE_OUTER_BOUND ( 'NONE', #362, .T. ) ;
#170 = ORIENTED_EDGE ( 'NONE', *, *, #408, .F. ) ;
#171 = APPLICATION_PROTOCOL_DEFINITION ( 'draft international standard', 'automotive_design', 1998, #163 ) ;
#172 = ORIENTED_EDGE ( 'NONE', *, *, #95, .T. ) ;
#173 = LINE ( 'NONE', #409, #319 ) ;
#174 = ORIENTED_EDGE ( 'NONE', *, *, #408, .T. ) ;
#175 = VERTEX_POINT ( 'NONE', #313 ) ;
#176 = EDGE_LOOP ( 'NONE', ( #336, #226 ) ) ;
#177 = DIRECTION ( 'NONE',  ( 1.000000000000000000, 0.000000000000000000, 0.000000000000000000 ) ) ;
#178 = EDGE_CURVE ( 'NONE', #302, #22, #96, .T. ) ;
#179 = VERTEX_POINT ( 'NONE', #41 ) ;
#180 = EDGE_CURVE ( 'NONE', #402, #194, #116, .T. ) ;
#181 = CARTESIAN_POINT ( 'NONE',  ( 0.5999999999999998668, 2.620744150175335878E-15, -21.39999999999999858 ) ) ;
#182 = DIRECTION ( 'NONE',  ( 1.000000000000000000, 0.000000000000000000, 0.000000000000000000 ) ) ;
#183 = DIRECTION ( 'NONE',  ( 1.000000000000000000, 0.000000000000000000, 0.000000000000000000 ) ) ;
#184 = AXIS2_PLACEMENT_3D ( 'NONE', #4, #56, #350 ) ;
#185 = DIRECTION ( 'NONE',  ( 0.000000000000000000, 0.000000000000000000, -1.000000000000000000 ) ) ;
#186 = VECTOR ( 'NONE', #33, 1000.000000000000000 ) ;
#187 = AXIS2_PLACEMENT_3D ( 'NONE', #354, #154, #357 ) ;
#188 = DIRECTION ( 'NONE',  ( 0.000000000000000000, 0.000000000000000000, -1.000000000000000000 ) ) ;
#189 = DIRECTION ( 'NONE',  ( 0.000000000000000000, 0.000000000000000000, -1.000000000000000000 ) ) ;
#190 = PRODUCT_DEFINITION ( 'UNKNOWN', '', #349, #345 ) ;
#191 = AXIS2_PLACEMENT_3D ( 'NONE', #283, #253, #396 ) ;
#192 = LINE ( 'NONE', #67, #280 ) ;
#193 = CYLINDRICAL_SURFACE ( 'NONE', #9, 3.200000000000000178 ) ;
#194 = VERTEX_POINT ( 'NONE', #248 ) ;
#195 = CARTESIAN_POINT ( 'NONE',  ( 0.5999999999999998668, 0.000000000000000000, 0.000000000000000000 ) ) ;
#196 = DIRECTION ( 'NONE',  ( -1.000000000000000000, -0.000000000000000000, -0.000000000000000000 ) ) ;
#197 = CIRCLE ( 'NONE', #262, 21.89999999999999858 ) ;
#198 = DIRECTION ( 'NONE',  ( -1.000000000000000000, -0.000000000000000000, -0.000000000000000000 ) ) ;
#199 = SURFACE_SIDE_STYLE ('',( #202 ) ) ;
#200 = CARTESIAN_POINT ( 'NONE',  ( 0.000000000000000000, 7.225416114969384193E-16, 5.899999999999999467 ) ) ;
#201 = EDGE_LOOP ( 'NONE', ( #172, #46 ) ) ;
#202 = SURFACE_STYLE_FILL_AREA ( #256 ) ;
#203 = ORIENTED_EDGE ( 'NONE', *, *, #74, .T. ) ;
#204 = CIRCLE ( 'NONE', #128, 3.899999999999999911 ) ;
#205 = CIRCLE ( 'NONE', #32, 3.200000000000000178 ) ;
#206 = ORIENTED_EDGE ( 'NONE', *, *, #389, .F. ) ;
#207 = ORIENTED_EDGE ( 'NONE', *, *, #144, .T. ) ;
#208 = FACE_OUTER_BOUND ( 'NONE', #296, .T. ) ;
#209 = ORIENTED_EDGE ( 'NONE', *, *, #377, .T. ) ;
#210 = EDGE_CURVE ( 'NONE', #232, #399, #217, .T. ) ;
#211 = ORIENTED_EDGE ( 'NONE', *, *, #315, .F. ) ;
#212 = PLANE ( 'NONE',  #251 ) ;
#213 = CONICAL_SURFACE ( 'NONE', #273, 21.89999999999999858, 0.7853981633974482790 ) ;
#214 = LINE ( 'NONE', #10, #186 ) ;
#215 = EDGE_CURVE ( 'NONE', #129, #179, #290, .T. ) ;
#216 = PLANE ( 'NONE',  #325 ) ;
#217 = CIRCLE ( 'NONE', #361, 21.39999999999999858 ) ;
#218 = DIRECTION ( 'NONE',  ( 0.000000000000000000, 0.000000000000000000, -1.000000000000000000 ) ) ;
#219 = EDGE_CURVE ( 'NONE', #137, #50, #250, .T. ) ;
#220 = DIRECTION ( 'NONE',  ( 0.000000000000000000, 0.000000000000000000, -1.000000000000000000 ) ) ;
#221 = CIRCLE ( 'NONE', #356, 5.899999999999999467 ) ;
#222 = CYLINDRICAL_SURFACE ( 'NONE', #37, 21.89999999999999858 ) ;
#223 = CARTESIAN_POINT ( 'NONE',  ( 12.59999999999999964, 0.000000000000000000, 21.39999999999999858 ) ) ;
#224 = CARTESIAN_POINT ( 'NONE',  ( 12.00000000000000000, 0.000000000000000000, 3.200000000000000178 ) ) ;
#225 = DIRECTION ( 'NONE',  ( 0.000000000000000000, 0.000000000000000000, -1.000000000000000000 ) ) ;
#226 = ORIENTED_EDGE ( 'NONE', *, *, #210, .F. ) ;
#227 = CARTESIAN_POINT ( 'NONE',  ( 12.59999999999999964, 0.000000000000000000, 0.000000000000000000 ) ) ;
#228 = DIRECTION ( 'NONE',  ( 0.000000000000000000, 0.000000000000000000, -1.000000000000000000 ) ) ;
#229 = VERTEX_POINT ( 'NONE', #288 ) ;
#230 = CYLINDRICAL_SURFACE ( 'NONE', #35, 21.89999999999999858 ) ;
#231 = PLANE ( 'NONE',  #149 ) ;
#232 = VERTEX_POINT ( 'NONE', #72 ) ;
#233 = CIRCLE ( 'NONE', #240, 3.200000000000000178 ) ;
#234 = VECTOR ( 'NONE', #38, 1000.000000000000000 ) ;
#235 = DIRECTION ( 'NONE',  ( -1.000000000000000000, -0.000000000000000000, -0.000000000000000000 ) ) ;
#236 = DIRECTION ( 'NONE',  ( -1.000000000000000000, -0.000000000000000000, -0.000000000000000000 ) ) ;
#237 = CARTESIAN_POINT ( 'NONE',  ( 12.00000000000000000, 0.000000000000000000, 0.000000000000000000 ) ) ;
#238 = VERTEX_POINT ( 'NONE', #263 ) ;
#239 = ORIENTED_EDGE ( 'NONE', *, *, #366, .F. ) ;
#240 = AXIS2_PLACEMENT_3D ( 'NONE', #2, #88, #36 ) ;
#241 = DIRECTION ( 'NONE',  ( 0.000000000000000000, 0.000000000000000000, -1.000000000000000000 ) ) ;
#242 = FACE_OUTER_BOUND ( 'NONE', #27, .T. ) ;
#243 = CARTESIAN_POINT ( 'NONE',  ( -2.000000000000000000, 0.000000000000000000, 0.000000000000000000 ) ) ;
#244 = ADVANCED_FACE ( 'NONE', ( #208 ), #14, .F. ) ;
#245 = EDGE_CURVE ( 'NONE', #232, #22, #173, .T. ) ;
#246 = DIRECTION ( 'NONE',  ( 1.000000000000000000, -0.000000000000000000, -0.000000000000000000 ) ) ;
#247 = DIRECTION ( 'NONE',  ( -1.000000000000000000, -0.000000000000000000, -0.000000000000000000 ) ) ;
#248 = CARTESIAN_POINT ( 'NONE',  ( 0.5000000000000004441, 2.681976490132703452E-15, -21.89999999999999858 ) ) ;
#249 = DIRECTION ( 'NONE',  ( -1.000000000000000000, -0.000000000000000000, -0.000000000000000000 ) ) ;
#250 = LINE ( 'NONE', #353, #234 ) ;
#251 = AXIS2_PLACEMENT_3D ( 'NONE', #310, #388, #112 ) ;
#252 = FACE_OUTER_BOUND ( 'NONE', #43, .T. ) ;
#253 = DIRECTION ( 'NONE',  ( -1.000000000000000000, -0.000000000000000000, -0.000000000000000000 ) ) ;
#254 = CARTESIAN_POINT ( 'NONE',  ( 0.5000000000000004441, 0.000000000000000000, 0.000000000000000000 ) ) ;
#255 = AXIS2_PLACEMENT_3D ( 'NONE', #135, #236, #133 ) ;
#256 = FILL_AREA_STYLE ('',( #338 ) ) ;
#257 = EDGE_CURVE ( 'NONE', #238, #17, #221, .T. ) ;
#258 = ORIENTED_EDGE ( 'NONE', *, *, #178, .T. ) ;
#259 = AXIS2_PLACEMENT_3D ( 'NONE', #383, #247, #285 ) ;
#260 = CIRCLE ( 'NONE', #48, 21.89999999999999858 ) ;
#261 = DIRECTION ( 'NONE',  ( 1.000000000000000000, 0.000000000000000000, 0.000000000000000000 ) ) ;
#262 = AXIS2_PLACEMENT_3D ( 'NONE', #227, #91, #124 ) ;
#263 = CARTESIAN_POINT ( 'NONE',  ( 0.000000000000000000, 0.000000000000000000, -5.899999999999999467 ) ) ;
#264 = VERTEX_POINT ( 'NONE', #404 ) ;
#265 = MANIFOLD_SOLID_BREP ( 'Chamfer1', #328 ) ;
#266 =( NAMED_UNIT ( * ) SI_UNIT ( $, .STERADIAN. ) SOLID_ANGLE_UNIT ( ) );
#267 = CARTESIAN_POINT ( 'NONE',  ( -2.000000000000000000, 6.000769315822030740E-16, 3.899999999999999911 ) ) ;
#268 = ORIENTED_EDGE ( 'NONE', *, *, #110, .F. ) ;
#269 = DIRECTION ( 'NONE',  ( 1.000000000000000000, 0.000000000000000000, 0.000000000000000000 ) ) ;
#270 = DIRECTION ( 'NONE',  ( -1.000000000000000000, -0.000000000000000000, -0.000000000000000000 ) ) ;
#271 = ORIENTED_EDGE ( 'NONE', *, *, #215, .T. ) ;
#272 = CIRCLE ( 'NONE', #61, 21.39999999999999858 ) ;
#273 = AXIS2_PLACEMENT_3D ( 'NONE', #254, #117, #220 ) ;
#274 = FACE_OUTER_BOUND ( 'NONE', #201, .T. ) ;
#275 = ORIENTED_EDGE ( 'NONE', *, *, #180, .T. ) ;
#276 = ORIENTED_EDGE ( 'NONE', *, *, #144, .F. ) ;
#277 = EDGE_CURVE ( 'NONE', #264, #229, #292, .T. ) ;
#278 = DIRECTION ( 'NONE',  ( 0.000000000000000000, 0.000000000000000000, -1.000000000000000000 ) ) ;
#279 = TOROIDAL_SURFACE ( 'NONE', #332, 5.899999999999999467, 2.000000000000000000 ) ;
#280 = VECTOR ( 'NONE', #291, 1000.000000000000114 ) ;
#281 = CARTESIAN_POINT ( 'NONE',  ( -2.000000000000000000, 0.000000000000000000, -3.899999999999999911 ) ) ;
#282 = CARTESIAN_POINT ( 'NONE',  ( -2.000000000000000000, 0.000000000000000000, 0.000000000000000000 ) ) ;
#283 = CARTESIAN_POINT ( 'NONE',  ( 0.5999999999999998668, 0.000000000000000000, 0.000000000000000000 ) ) ;
#284 = EDGE_LOOP ( 'NONE', ( #77, #380 ) ) ;
#285 = DIRECTION ( 'NONE',  ( 0.000000000000000000, 0.000000000000000000, 1.000000000000000000 ) ) ;
#286 = MECHANICAL_DESIGN_GEOMETRIC_PRESENTATION_REPRESENTATION (  '', ( #348 ), #355 ) ;
#287 = ORIENTED_EDGE ( 'NONE', *, *, #95, .F. ) ;
#288 = CARTESIAN_POINT ( 'NONE',  ( 0.000000000000000000, 0.000000000000000000, -21.39999999999999858 ) ) ;
#289 = CARTESIAN_POINT ( 'NONE',  ( 0.000000000000000000, 0.000000000000000000, 0.000000000000000000 ) ) ;
#290 = LINE ( 'NONE', #224, #343 ) ;
#291 = DIRECTION ( 'NONE',  ( 0.7071067811865474617, 0.000000000000000000, -0.7071067811865474617 ) ) ;
#292 = CIRCLE ( 'NONE', #109, 21.39999999999999858 ) ;
#293 = EDGE_CURVE ( 'NONE', #50, #194, #260, .T. ) ;
#294 = DIRECTION ( 'NONE',  ( 0.000000000000000000, 0.000000000000000000, -1.000000000000000000 ) ) ;
#295 = ADVANCED_FACE ( 'NONE', ( #65 ), #279, .F. ) ;
#296 = EDGE_LOOP ( 'NONE', ( #99, #26, #331, #305 ) ) ;
#297 = EDGE_CURVE ( 'NONE', #399, #302, #157, .T. ) ;
#298 = DIRECTION ( 'NONE',  ( 0.000000000000000000, 0.000000000000000000, -1.000000000000000000 ) ) ;
#299 = ORIENTED_EDGE ( 'NONE', *, *, #121, .F. ) ;
#300 = FACE_OUTER_BOUND ( 'NONE', #130, .T. ) ;
#301 = ORIENTED_EDGE ( 'NONE', *, *, #366, .T. ) ;
#302 = VERTEX_POINT ( 'NONE', #16 ) ;
#303 = EDGE_LOOP ( 'NONE', ( #76, #268 ) ) ;
#304 = DIRECTION ( 'NONE',  ( -1.000000000000000000, -0.000000000000000000, -0.000000000000000000 ) ) ;
#305 = ORIENTED_EDGE ( 'NONE', *, *, #86, .F. ) ;
#306 = PRODUCT_CONTEXT ( 'NONE', #21, 'mechanical' ) ;
#307 = CIRCLE ( 'NONE', #107, 3.200000000000000178 ) ;
#308 = UNCERTAINTY_MEASURE_WITH_UNIT (LENGTH_MEASURE( 1.000000000000000082E-05 ), #168, 'distance_accuracy_value', 'NONE');
#309 = DIRECTION ( 'NONE',  ( 0.000000000000000000, 0.000000000000000000, -1.000000000000000000 ) ) ;
#310 = CARTESIAN_POINT ( 'NONE',  ( -2.000000000000000000, 0.000000000000000000, 0.000000000000000000 ) ) ;
#311 = CARTESIAN_POINT ( 'NONE',  ( 0.5999999999999998668, 0.000000000000000000, 0.000000000000000000 ) ) ;
#312 = CIRCLE ( 'NONE', #78, 2.000000000000000888 ) ;
#313 = CARTESIAN_POINT ( 'NONE',  ( 0.5999999999999998668, 3.918869757271530460E-16, -3.200000000000000178 ) ) ;
#314 = EDGE_CURVE ( 'NONE', #17, #238, #143, .T. ) ;
#315 = EDGE_CURVE ( 'NONE', #129, #175, #205, .T. ) ;
#316 = FACE_BOUND ( 'NONE', #303, .T. ) ;
#317 = CARTESIAN_POINT ( 'NONE',  ( 0.5000000000000004441, 0.000000000000000000, 0.000000000000000000 ) ) ;
#318 = CIRCLE ( 'NONE', #398, 21.89999999999999858 ) ;
#319 = VECTOR ( 'NONE', #235, 1000.000000000000000 ) ;
#320 = ADVANCED_FACE ( 'NONE', ( #127 ), #193, .F. ) ;
#321 = CARTESIAN_POINT ( 'NONE',  ( 0.5999999999999999778, 0.000000000000000000, 0.000000000000000000 ) ) ;
#322 = DIRECTION ( 'NONE',  ( 0.000000000000000000, 0.000000000000000000, -1.000000000000000000 ) ) ;
#323 = CARTESIAN_POINT ( 'NONE',  ( 0.5000000000000004441, 2.681976490132703452E-15, 21.89999999999999858 ) ) ;
#324 = AXIS2_PLACEMENT_3D ( 'NONE', #243, #83, #386 ) ;
#325 = AXIS2_PLACEMENT_3D ( 'NONE', #347, #57, #185 ) ;
#326 = CARTESIAN_POINT ( 'NONE',  ( 0.5000000000000004441, 0.000000000000000000, 0.000000000000000000 ) ) ;
#327 = ORIENTED_EDGE ( 'NONE', *, *, #219, .F. ) ;
#328 = CLOSED_SHELL ( 'NONE', ( #346, #295, #320, #34, #18, #64, #358, #151, #68, #165, #47, #123, #244, #138 ) ) ;
#329 = CARTESIAN_POINT ( 'NONE',  ( 0.000000000000000000, 0.000000000000000000, 0.000000000000000000 ) ) ;
#330 = DIRECTION ( 'NONE',  ( 1.000000000000000000, 0.000000000000000000, 0.000000000000000000 ) ) ;
#331 = ORIENTED_EDGE ( 'NONE', *, *, #342, .T. ) ;
#332 = AXIS2_PLACEMENT_3D ( 'NONE', #392, #261, #363 ) ;
#333 = CIRCLE ( 'NONE', #187, 21.89999999999999858 ) ;
#334 =( NAMED_UNIT ( * ) SI_UNIT ( $, .STERADIAN. ) SOLID_ANGLE_UNIT ( ) );
#335 = ORIENTED_EDGE ( 'NONE', *, *, #121, .T. ) ;
#336 = ORIENTED_EDGE ( 'NONE', *, *, #92, .F. ) ;
#337 = ORIENTED_EDGE ( 'NONE', *, *, #314, .T. ) ;
#338 = FILL_AREA_STYLE_COLOUR ( '', #150 ) ;
#339 = ORIENTED_EDGE ( 'NONE', *, *, #245, .F. ) ;
#340 = ORIENTED_EDGE ( 'NONE', *, *, #180, .F. ) ;
#341 = CYLINDRICAL_SURFACE ( 'NONE', #255, 21.39999999999999858 ) ;
#342 = EDGE_CURVE ( 'NONE', #238, #164, #312, .T. ) ;
#343 = VECTOR ( 'NONE', #125, 1000.000000000000000 ) ;
#344 = EDGE_CURVE ( 'NONE', #264, #50, #19, .T. ) ;
#345 = PRODUCT_DEFINITION_CONTEXT ( 'detailed design', #163, 'design' ) ;
#346 = ADVANCED_FACE ( 'NONE', ( #397 ), #213, .T. ) ;
#347 = CARTESIAN_POINT ( 'NONE',  ( 0.5999999999999999778, 0.000000000000000000, 0.000000000000000000 ) ) ;
#348 = STYLED_ITEM ( 'NONE', ( #97 ), #265 ) ;
#349 = PRODUCT_DEFINITION_FORMATION_WITH_SPECIFIED_SOURCE ( 'ANY', '', #115, .NOT_KNOWN. ) ;
#350 = DIRECTION ( 'NONE',  ( 0.000000000000000000, 1.224646799147352961E-16, 1.000000000000000000 ) ) ;
#351 = CARTESIAN_POINT ( 'NONE',  ( 12.59999999999999964, 0.000000000000000000, 21.89999999999999858 ) ) ;
#352 = ORIENTED_EDGE ( 'NONE', *, *, #210, .T. ) ;
#353 = CARTESIAN_POINT ( 'NONE',  ( 0.5999999999999999778, 0.000000000000000000, 21.89999999999999858 ) ) ;
#354 = CARTESIAN_POINT ( 'NONE',  ( 12.59999999999999964, 0.000000000000000000, 0.000000000000000000 ) ) ;
#355 =( GEOMETRIC_REPRESENTATION_CONTEXT ( 3 ) GLOBAL_UNCERTAINTY_ASSIGNED_CONTEXT ( ( #308 ) ) GLOBAL_UNIT_ASSIGNED_CONTEXT ( ( #168, #20, #266 ) ) REPRESENTATION_CONTEXT ( 'NONE', 'WORKASPACE' ) );
#356 = AXIS2_PLACEMENT_3D ( 'NONE', #79, #330, #365 ) ;
#357 = DIRECTION ( 'NONE',  ( 0.000000000000000000, 0.000000000000000000, -1.000000000000000000 ) ) ;
#358 = ADVANCED_FACE ( 'NONE', ( #252 ), #222, .T. ) ;
#359 = CARTESIAN_POINT ( 'NONE',  ( 12.59999999999999964, 2.681976490132703452E-15, -21.89999999999999858 ) ) ;
#360 = CARTESIAN_POINT ( 'NONE',  ( 12.00000000000000000, 0.000000000000000000, 0.000000000000000000 ) ) ;
#361 = AXIS2_PLACEMENT_3D ( 'NONE', #153, #159, #294 ) ;
#362 = EDGE_LOOP ( 'NONE', ( #206, #275, #203, #327 ) ) ;
#363 = DIRECTION ( 'NONE',  ( 0.000000000000000000, 0.000000000000000000, -1.000000000000000000 ) ) ;
#364 = ORIENTED_EDGE ( 'NONE', *, *, #92, .T. ) ;
#365 = DIRECTION ( 'NONE',  ( 0.000000000000000000, 0.000000000000000000, -1.000000000000000000 ) ) ;
#366 = EDGE_CURVE ( 'NONE', #137, #402, #333, .T. ) ;
#367 = CARTESIAN_POINT ( 'NONE',  ( 0.5999999999999999778, 0.000000000000000000, 0.000000000000000000 ) ) ;
#368 = ORIENTED_EDGE ( 'NONE', *, *, #136, .T. ) ;
#369 = ORIENTED_EDGE ( 'NONE', *, *, #377, .F. ) ;
#370 = ORIENTED_EDGE ( 'NONE', *, *, #74, .F. ) ;
#371 = CIRCLE ( 'NONE', #184, 2.000000000000000888 ) ;
#372 = ORIENTED_EDGE ( 'NONE', *, *, #178, .F. ) ;
#373 =( GEOMETRIC_REPRESENTATION_CONTEXT ( 3 ) GLOBAL_UNCERTAINTY_ASSIGNED_CONTEXT ( ( #28 ) ) GLOBAL_UNIT_ASSIGNED_CONTEXT ( ( #158, #1, #334 ) ) REPRESENTATION_CONTEXT ( 'NONE', 'WORKASPACE' ) );
#374 = ADVANCED_BREP_SHAPE_REPRESENTATION ( 'motor-magnet-holder', ( #265, #84 ), #373 ) ;
#375 = ORIENTED_EDGE ( 'NONE', *, *, #215, .F. ) ;
#376 = EDGE_LOOP ( 'NONE', ( #372, #170 ) ) ;
#377 = EDGE_CURVE ( 'NONE', #229, #194, #192, .T. ) ;
#378 = ORIENTED_EDGE ( 'NONE', *, *, #293, .F. ) ;
#379 = CARTESIAN_POINT ( 'NONE',  ( 0.000000000000000000, 0.000000000000000000, 0.000000000000000000 ) ) ;
#380 = ORIENTED_EDGE ( 'NONE', *, *, #86, .T. ) ;
#381 = CIRCLE ( 'NONE', #103, 21.39999999999999858 ) ;
#382 = AXIS2_PLACEMENT_3D ( 'NONE', #93, #152, #13 ) ;
#383 = CARTESIAN_POINT ( 'NONE',  ( 12.59999999999999964, 0.000000000000000000, 0.000000000000000000 ) ) ;
#384 = EDGE_CURVE ( 'NONE', #164, #6, #167, .T. ) ;
#385 = FACE_OUTER_BOUND ( 'NONE', #376, .T. ) ;
#386 = DIRECTION ( 'NONE',  ( 0.000000000000000000, 0.000000000000000000, 1.000000000000000000 ) ) ;
#387 = VECTOR ( 'NONE', #70, 1000.000000000000000 ) ;
#388 = DIRECTION ( 'NONE',  ( -1.000000000000000000, 0.000000000000000000, 0.000000000000000000 ) ) ;
#389 = EDGE_CURVE ( 'NONE', #402, #137, #197, .T. ) ;
#390 = PRODUCT_RELATED_PRODUCT_CATEGORY ( 'part', '', ( #115 ) ) ;
#391 = PRODUCT_DEFINITION_SHAPE ( 'NONE', 'NONE',  #190 ) ;
#392 = CARTESIAN_POINT ( 'NONE',  ( -2.000000000000000000, 0.000000000000000000, 0.000000000000000000 ) ) ;
#393 = AXIS2_PLACEMENT_3D ( 'NONE', #289, #15, #322 ) ;
#394 = DIRECTION ( 'NONE',  ( 0.000000000000000000, 0.000000000000000000, 1.000000000000000000 ) ) ;
#395 = DIRECTION ( 'NONE',  ( -1.000000000000000000, -0.000000000000000000, -0.000000000000000000 ) ) ;
#396 = DIRECTION ( 'NONE',  ( 0.000000000000000000, 0.000000000000000000, -1.000000000000000000 ) ) ;
#397 = FACE_OUTER_BOUND ( 'NONE', #44, .T. ) ;
#398 = AXIS2_PLACEMENT_3D ( 'NONE', #317, #246, #142 ) ;
#399 = VERTEX_POINT ( 'NONE', #223 ) ;
#400 = DIRECTION ( 'NONE',  ( 0.7071067811865474617, 8.659560562354932858E-17, 0.7071067811865474617 ) ) ;
#401 = EDGE_LOOP ( 'NONE', ( #364, #8, #174, #407 ) ) ;
#402 = VERTEX_POINT ( 'NONE', #359 ) ;
#403 = ORIENTED_EDGE ( 'NONE', *, *, #344, .F. ) ;
#404 = CARTESIAN_POINT ( 'NONE',  ( 0.000000000000000000, 2.651360320154019665E-15, 21.39999999999999858 ) ) ;
#405 = DIRECTION ( 'NONE',  ( 0.000000000000000000, 0.000000000000000000, 1.000000000000000000 ) ) ;
#406 = ORIENTED_EDGE ( 'NONE', *, *, #219, .T. ) ;
#407 = ORIENTED_EDGE ( 'NONE', *, *, #297, .F. ) ;
#408 = EDGE_CURVE ( 'NONE', #22, #302, #120, .T. ) ;
#409 = CARTESIAN_POINT ( 'NONE',  ( 12.59999999999999964, 2.620744150175335878E-15, -21.39999999999999858 ) ) ;
#410 = DIRECTION ( 'NONE',  ( 1.000000000000000000, 0.000000000000000000, 0.000000000000000000 ) ) ;
#411 = EDGE_LOOP ( 'NONE', ( #403, #287, #209, #378 ) ) ;
ENDSEC;
END-ISO-10303-21;
