ISO-10303-21;
HEADER;
FILE_DESCRIPTION (( 'STEP AP214' ),
    '1' );
FILE_NAME ('mikona holder door.STEP',
    '2026-03-21T12:10:15',
    ( '' ),
    ( '' ),
    'SwSTEP 2.0',
    'SolidWorks 2026',
    '' );
FILE_SCHEMA (( 'AUTOMOTIVE_DESIGN' ));
ENDSEC;

DATA;
#1 = ORIENTED_EDGE ( 'NONE', *, *, #47, .F. ) ;
#2 = ORIENTED_EDGE ( 'NONE', *, *, #127, .F. ) ;
#3 = ORIENTED_EDGE ( 'NONE', *, *, #124, .T. ) ;
#4 = DIRECTION ( 'NONE',  ( 1.000000000000000000, 0.000000000000000000, -0.000000000000000000 ) ) ;
#5 =( NAMED_UNIT ( * ) PLANE_ANGLE_UNIT ( ) SI_UNIT ( $, .RADIAN. ) );
#6 = FILL_AREA_STYLE_COLOUR ( '', #179 ) ;
#7 = CARTESIAN_POINT ( 'NONE',  ( 0.000000000000000000, 0.000000000000000000, 0.000000000000000000 ) ) ;
#8 = FILL_AREA_STYLE ('',( #6 ) ) ;
#9 = VECTOR ( 'NONE', #154, 1000.000000000000000 ) ;
#10 = UNCERTAINTY_MEASURE_WITH_UNIT (LENGTH_MEASURE( 1.000000000000000082E-05 ), #96, 'distance_accuracy_value', 'NONE');
#11 = EDGE_LOOP ( 'NONE', ( #117, #176, #69, #14 ) ) ;
#12 = ORIENTED_EDGE ( 'NONE', *, *, #81, .F. ) ;
#13 = ADVANCED_FACE ( 'NONE', ( #103 ), #155, .F. ) ;
#14 = ORIENTED_EDGE ( 'NONE', *, *, #81, .T. ) ;
#15 = ORIENTED_EDGE ( 'NONE', *, *, #16, .F. ) ;
#16 = EDGE_CURVE ( 'NONE', #43, #130, #49, .T. ) ;
#17 = CARTESIAN_POINT ( 'NONE',  ( 5.400000000000000355, 20.49999999999999645, 1.149999999999999911 ) ) ;
#18 = VECTOR ( 'NONE', #92, 1000.000000000000000 ) ;
#19 = CARTESIAN_POINT ( 'NONE',  ( -5.400000000000000355, 20.49999999999999645, 1.149999999999999911 ) ) ;
#20 = PRESENTATION_STYLE_ASSIGNMENT (( #182 ) ) ;
#21 = LINE ( 'NONE', #170, #118 ) ;
#22 = APPLICATION_PROTOCOL_DEFINITION ( 'draft international standard', 'automotive_design', 1998, #143 ) ;
#23 = DIRECTION ( 'NONE',  ( 1.000000000000000000, -3.212450881438531748E-16, 0.000000000000000000 ) ) ;
#24 = DIRECTION ( 'NONE',  ( -0.000000000000000000, -1.000000000000000000, -0.000000000000000000 ) ) ;
#25 = LINE ( 'NONE', #159, #141 ) ;
#26 = VECTOR ( 'NONE', #48, 1000.000000000000000 ) ;
#27 = VERTEX_POINT ( 'NONE', #180 ) ;
#28 = ORIENTED_EDGE ( 'NONE', *, *, #124, .F. ) ;
#29 =( GEOMETRIC_REPRESENTATION_CONTEXT ( 3 ) GLOBAL_UNCERTAINTY_ASSIGNED_CONTEXT ( ( #70 ) ) GLOBAL_UNIT_ASSIGNED_CONTEXT ( ( #91, #5, #78 ) ) REPRESENTATION_CONTEXT ( 'NONE', 'WORKASPACE' ) );
#30 = CARTESIAN_POINT ( 'NONE',  ( 0.000000000000000000, 0.000000000000000000, 1.149999999999999911 ) ) ;
#31 = SURFACE_STYLE_FILL_AREA ( #8 ) ;
#32 = DIRECTION ( 'NONE',  ( 0.000000000000000000, 0.000000000000000000, 1.000000000000000000 ) ) ;
#33 = DIRECTION ( 'NONE',  ( 1.000000000000000000, 0.000000000000000000, -0.000000000000000000 ) ) ;
#34 = MANIFOLD_SOLID_BREP ( 'Boss-Extrude1', #108 ) ;
#35 = DIRECTION ( 'NONE',  ( -1.000000000000000000, -0.000000000000000000, -0.000000000000000000 ) ) ;
#36 = AXIS2_PLACEMENT_3D ( 'NONE', #171, #55, #146 ) ;
#37 = CARTESIAN_POINT ( 'NONE',  ( 5.400000000000000355, -20.50000000000000711, 1.149999999999999911 ) ) ;
#38 = FACE_OUTER_BOUND ( 'NONE', #100, .T. ) ;
#39 = DIRECTION ( 'NONE',  ( -0.000000000000000000, -0.000000000000000000, -1.000000000000000000 ) ) ;
#40 = EDGE_CURVE ( 'NONE', #57, #27, #151, .T. ) ;
#41 = ORIENTED_EDGE ( 'NONE', *, *, #157, .F. ) ;
#42 = ORIENTED_EDGE ( 'NONE', *, *, #136, .T. ) ;
#43 = VERTEX_POINT ( 'NONE', #17 ) ;
#44 = DIRECTION ( 'NONE',  ( 0.000000000000000000, -0.000000000000000000, -1.000000000000000000 ) ) ;
#45 = ORIENTED_EDGE ( 'NONE', *, *, #40, .T. ) ;
#46 = LINE ( 'NONE', #62, #93 ) ;
#47 = EDGE_CURVE ( 'NONE', #43, #57, #46, .T. ) ;
#48 = DIRECTION ( 'NONE',  ( 0.000000000000000000, 1.000000000000000000, 0.000000000000000000 ) ) ;
#49 = LINE ( 'NONE', #74, #80 ) ;
#50 = SHAPE_DEFINITION_REPRESENTATION ( #186, #90 ) ;
#51 = VECTOR ( 'NONE', #23, 1000.000000000000000 ) ;
#52 = APPLICATION_PROTOCOL_DEFINITION ( 'draft international standard', 'automotive_design', 1998, #153 ) ;
#53 = CARTESIAN_POINT ( 'NONE',  ( -5.400000000000000355, -20.50000000000000355, 1.149999999999999911 ) ) ;
#54 =( GEOMETRIC_REPRESENTATION_CONTEXT ( 3 ) GLOBAL_UNCERTAINTY_ASSIGNED_CONTEXT ( ( #10 ) ) GLOBAL_UNIT_ASSIGNED_CONTEXT ( ( #96, #144, #184 ) ) REPRESENTATION_CONTEXT ( 'NONE', 'WORKASPACE' ) );
#55 = DIRECTION ( 'NONE',  ( -1.000000000000000000, 0.000000000000000000, 0.000000000000000000 ) ) ;
#56 = VECTOR ( 'NONE', #39, 1000.000000000000000 ) ;
#57 = VERTEX_POINT ( 'NONE', #104 ) ;
#58 = ORIENTED_EDGE ( 'NONE', *, *, #95, .T. ) ;
#59 = PRODUCT_DEFINITION_CONTEXT ( 'detailed design', #153, 'design' ) ;
#60 = ORIENTED_EDGE ( 'NONE', *, *, #16, .T. ) ;
#61 = LINE ( 'NONE', #120, #51 ) ;
#62 = CARTESIAN_POINT ( 'NONE',  ( -5.400000000000000355, 20.49999999999999645, 1.149999999999999911 ) ) ;
#63 = FACE_OUTER_BOUND ( 'NONE', #147, .T. ) ;
#64 = CARTESIAN_POINT ( 'NONE',  ( -5.400000000000000355, -20.50000000000000355, 1.149999999999999911 ) ) ;
#65 = DIRECTION ( 'NONE',  ( -0.000000000000000000, -0.000000000000000000, -1.000000000000000000 ) ) ;
#66 = PRODUCT_DEFINITION ( 'UNKNOWN', '', #98, #59 ) ;
#67 = DIRECTION ( 'NONE',  ( 0.000000000000000000, 0.000000000000000000, 1.000000000000000000 ) ) ;
#68 = VECTOR ( 'NONE', #24, 1000.000000000000000 ) ;
#69 = ORIENTED_EDGE ( 'NONE', *, *, #107, .T. ) ;
#70 = UNCERTAINTY_MEASURE_WITH_UNIT (LENGTH_MEASURE( 1.000000000000000082E-05 ), #91, 'distance_accuracy_value', 'NONE');
#71 = ADVANCED_FACE ( 'NONE', ( #121 ), #168, .F. ) ;
#72 = ORIENTED_EDGE ( 'NONE', *, *, #165, .T. ) ;
#73 = DIRECTION ( 'NONE',  ( 0.000000000000000000, 0.000000000000000000, 1.000000000000000000 ) ) ;
#74 = CARTESIAN_POINT ( 'NONE',  ( 5.400000000000000355, 20.49999999999999645, 1.149999999999999911 ) ) ;
#75 = EDGE_CURVE ( 'NONE', #27, #86, #89, .T. ) ;
#76 = LINE ( 'NONE', #119, #26 ) ;
#77 = FACE_OUTER_BOUND ( 'NONE', #113, .T. ) ;
#78 =( NAMED_UNIT ( * ) SI_UNIT ( $, .STERADIAN. ) SOLID_ANGLE_UNIT ( ) );
#79 = DIRECTION ( 'NONE',  ( 1.000000000000000000, -3.212450881438531748E-16, 0.000000000000000000 ) ) ;
#80 = VECTOR ( 'NONE', #167, 1000.000000000000000 ) ;
#81 = EDGE_CURVE ( 'NONE', #132, #43, #76, .T. ) ;
#82 = ORIENTED_EDGE ( 'NONE', *, *, #75, .T. ) ;
#83 = VERTEX_POINT ( 'NONE', #135 ) ;
#84 = ORIENTED_EDGE ( 'NONE', *, *, #75, .F. ) ;
#85 = AXIS2_PLACEMENT_3D ( 'NONE', #110, #67, #172 ) ;
#86 = VERTEX_POINT ( 'NONE', #106 ) ;
#87 = EDGE_LOOP ( 'NONE', ( #163, #28, #41, #84 ) ) ;
#88 = AXIS2_PLACEMENT_3D ( 'NONE', #30, #73, #4 ) ;
#89 = LINE ( 'NONE', #152, #9 ) ;
#90 = ADVANCED_BREP_SHAPE_REPRESENTATION ( 'mikona holder door', ( #34, #85 ), #54 ) ;
#91 =( LENGTH_UNIT ( ) NAMED_UNIT ( * ) SI_UNIT ( .MILLI., .METRE. ) );
#92 = DIRECTION ( 'NONE',  ( -0.000000000000000000, -0.000000000000000000, -1.000000000000000000 ) ) ;
#93 = VECTOR ( 'NONE', #169, 1000.000000000000000 ) ;
#94 = PLANE ( 'NONE',  #36 ) ;
#95 = EDGE_CURVE ( 'NONE', #130, #27, #21, .T. ) ;
#96 =( LENGTH_UNIT ( ) NAMED_UNIT ( * ) SI_UNIT ( .MILLI., .METRE. ) );
#97 = LINE ( 'NONE', #53, #138 ) ;
#98 = PRODUCT_DEFINITION_FORMATION_WITH_SPECIFIED_SOURCE ( 'ANY', '', #123, .NOT_KNOWN. ) ;
#99 = ADVANCED_FACE ( 'NONE', ( #77 ), #139, .F. ) ;
#100 = EDGE_LOOP ( 'NONE', ( #131, #149, #116, #42 ) ) ;
#101 = FACE_OUTER_BOUND ( 'NONE', #11, .T. ) ;
#102 = ADVANCED_FACE ( 'NONE', ( #101 ), #166, .T. ) ;
#103 = FACE_OUTER_BOUND ( 'NONE', #148, .T. ) ;
#104 = CARTESIAN_POINT ( 'NONE',  ( -5.400000000000000355, 20.49999999999999645, 1.149999999999999911 ) ) ;
#105 = AXIS2_PLACEMENT_3D ( 'NONE', #142, #111, #158 ) ;
#106 = CARTESIAN_POINT ( 'NONE',  ( -5.400000000000000355, -20.50000000000000355, 0.000000000000000000 ) ) ;
#107 = EDGE_CURVE ( 'NONE', #177, #132, #61, .T. ) ;
#108 = CLOSED_SHELL ( 'NONE', ( #99, #13, #145, #115, #102, #71 ) ) ;
#109 = PRODUCT_RELATED_PRODUCT_CATEGORY ( 'part', '', ( #123 ) ) ;
#110 = CARTESIAN_POINT ( 'NONE',  ( 0.000000000000000000, 0.000000000000000000, 0.000000000000000000 ) ) ;
#111 = DIRECTION ( 'NONE',  ( 3.212450881438531748E-16, 1.000000000000000000, -0.000000000000000000 ) ) ;
#112 = LINE ( 'NONE', #161, #68 ) ;
#113 = EDGE_LOOP ( 'NONE', ( #58, #114, #1, #60 ) ) ;
#114 = ORIENTED_EDGE ( 'NONE', *, *, #40, .F. ) ;
#115 = ADVANCED_FACE ( 'NONE', ( #63 ), #94, .F. ) ;
#116 = ORIENTED_EDGE ( 'NONE', *, *, #107, .F. ) ;
#117 = ORIENTED_EDGE ( 'NONE', *, *, #47, .T. ) ;
#118 = VECTOR ( 'NONE', #35, 1000.000000000000000 ) ;
#119 = CARTESIAN_POINT ( 'NONE',  ( 5.400000000000000355, -20.50000000000000711, 1.149999999999999911 ) ) ;
#120 = CARTESIAN_POINT ( 'NONE',  ( -5.400000000000000355, -20.50000000000000355, 1.149999999999999911 ) ) ;
#121 = FACE_OUTER_BOUND ( 'NONE', #87, .T. ) ;
#122 = DIRECTION ( 'NONE',  ( 1.000000000000000000, 0.000000000000000000, 0.000000000000000000 ) ) ;
#123 = PRODUCT ( 'mikona holder door', 'mikona holder door', '', ( #125 ) ) ;
#124 = EDGE_CURVE ( 'NONE', #83, #130, #173, .T. ) ;
#125 = PRODUCT_CONTEXT ( 'NONE', #143, 'mechanical' ) ;
#126 = MECHANICAL_DESIGN_GEOMETRIC_PRESENTATION_REPRESENTATION (  '', ( #164 ), #29 ) ;
#127 = EDGE_CURVE ( 'NONE', #57, #177, #112, .T. ) ;
#128 = PLANE ( 'NONE',  #105 ) ;
#129 = CARTESIAN_POINT ( 'NONE',  ( 5.400000000000000355, -20.50000000000000711, 0.000000000000000000 ) ) ;
#130 = VERTEX_POINT ( 'NONE', #140 ) ;
#131 = ORIENTED_EDGE ( 'NONE', *, *, #157, .T. ) ;
#132 = VERTEX_POINT ( 'NONE', #37 ) ;
#133 = AXIS2_PLACEMENT_3D ( 'NONE', #137, #183, #44 ) ;
#134 = CARTESIAN_POINT ( 'NONE',  ( -5.400000000000000355, -20.50000000000000355, 1.149999999999999911 ) ) ;
#135 = CARTESIAN_POINT ( 'NONE',  ( 5.400000000000000355, -20.50000000000000711, 0.000000000000000000 ) ) ;
#136 = EDGE_CURVE ( 'NONE', #177, #86, #97, .T. ) ;
#137 = CARTESIAN_POINT ( 'NONE',  ( -5.400000000000000355, 20.49999999999999645, 1.149999999999999911 ) ) ;
#138 = VECTOR ( 'NONE', #65, 1000.000000000000000 ) ;
#139 = PLANE ( 'NONE',  #133 ) ;
#140 = CARTESIAN_POINT ( 'NONE',  ( 5.400000000000000355, 20.49999999999999645, 0.000000000000000000 ) ) ;
#141 = VECTOR ( 'NONE', #79, 1000.000000000000000 ) ;
#142 = CARTESIAN_POINT ( 'NONE',  ( -5.400000000000000355, -20.50000000000000355, 1.149999999999999911 ) ) ;
#143 = APPLICATION_CONTEXT ( 'automotive_design' ) ;
#144 =( NAMED_UNIT ( * ) PLANE_ANGLE_UNIT ( ) SI_UNIT ( $, .RADIAN. ) );
#145 = ADVANCED_FACE ( 'NONE', ( #38 ), #128, .F. ) ;
#146 = DIRECTION ( 'NONE',  ( 0.000000000000000000, 0.000000000000000000, 1.000000000000000000 ) ) ;
#147 = EDGE_LOOP ( 'NONE', ( #3, #15, #12, #72 ) ) ;
#148 = EDGE_LOOP ( 'NONE', ( #82, #178, #2, #45 ) ) ;
#149 = ORIENTED_EDGE ( 'NONE', *, *, #165, .F. ) ;
#150 = SURFACE_SIDE_STYLE ('',( #31 ) ) ;
#151 = LINE ( 'NONE', #19, #18 ) ;
#152 = CARTESIAN_POINT ( 'NONE',  ( -5.400000000000000355, -20.50000000000000355, 0.000000000000000000 ) ) ;
#153 = APPLICATION_CONTEXT ( 'automotive_design' ) ;
#154 = DIRECTION ( 'NONE',  ( -0.000000000000000000, -1.000000000000000000, -0.000000000000000000 ) ) ;
#155 = PLANE ( 'NONE',  #156 ) ;
#156 = AXIS2_PLACEMENT_3D ( 'NONE', #134, #122, #181 ) ;
#157 = EDGE_CURVE ( 'NONE', #86, #83, #25, .T. ) ;
#158 = DIRECTION ( 'NONE',  ( -1.000000000000000000, 3.212450881438531748E-16, 0.000000000000000000 ) ) ;
#159 = CARTESIAN_POINT ( 'NONE',  ( -5.400000000000000355, -20.50000000000000355, 0.000000000000000000 ) ) ;
#160 = PRESENTATION_LAYER_ASSIGNMENT (  '', '', ( #164 ) ) ;
#161 = CARTESIAN_POINT ( 'NONE',  ( -5.400000000000000355, -20.50000000000000355, 1.149999999999999911 ) ) ;
#162 = CARTESIAN_POINT ( 'NONE',  ( 5.400000000000000355, -20.50000000000000711, 1.149999999999999911 ) ) ;
#163 = ORIENTED_EDGE ( 'NONE', *, *, #95, .F. ) ;
#164 = STYLED_ITEM ( 'NONE', ( #20 ), #34 ) ;
#165 = EDGE_CURVE ( 'NONE', #132, #83, #175, .T. ) ;
#166 = PLANE ( 'NONE',  #88 ) ;
#167 = DIRECTION ( 'NONE',  ( -0.000000000000000000, -0.000000000000000000, -1.000000000000000000 ) ) ;
#168 = PLANE ( 'NONE',  #174 ) ;
#169 = DIRECTION ( 'NONE',  ( -1.000000000000000000, -0.000000000000000000, -0.000000000000000000 ) ) ;
#170 = CARTESIAN_POINT ( 'NONE',  ( -5.400000000000000355, 20.49999999999999645, 0.000000000000000000 ) ) ;
#171 = CARTESIAN_POINT ( 'NONE',  ( 5.400000000000000355, -20.50000000000000711, 1.149999999999999911 ) ) ;
#172 = DIRECTION ( 'NONE',  ( 1.000000000000000000, 0.000000000000000000, 0.000000000000000000 ) ) ;
#173 = LINE ( 'NONE', #129, #185 ) ;
#174 = AXIS2_PLACEMENT_3D ( 'NONE', #7, #32, #33 ) ;
#175 = LINE ( 'NONE', #162, #56 ) ;
#176 = ORIENTED_EDGE ( 'NONE', *, *, #127, .T. ) ;
#177 = VERTEX_POINT ( 'NONE', #64 ) ;
#178 = ORIENTED_EDGE ( 'NONE', *, *, #136, .F. ) ;
#179 = COLOUR_RGB ( '',0.7921568627450980005, 0.8196078431372548767, 0.9333333333333333481 ) ;
#180 = CARTESIAN_POINT ( 'NONE',  ( -5.400000000000000355, 20.49999999999999645, 0.000000000000000000 ) ) ;
#181 = DIRECTION ( 'NONE',  ( 0.000000000000000000, 0.000000000000000000, -1.000000000000000000 ) ) ;
#182 = SURFACE_STYLE_USAGE ( .BOTH. , #150 ) ;
#183 = DIRECTION ( 'NONE',  ( 0.000000000000000000, -1.000000000000000000, 0.000000000000000000 ) ) ;
#184 =( NAMED_UNIT ( * ) SI_UNIT ( $, .STERADIAN. ) SOLID_ANGLE_UNIT ( ) );
#185 = VECTOR ( 'NONE', #187, 1000.000000000000000 ) ;
#186 = PRODUCT_DEFINITION_SHAPE ( 'NONE', 'NONE',  #66 ) ;
#187 = DIRECTION ( 'NONE',  ( 0.000000000000000000, 1.000000000000000000, 0.000000000000000000 ) ) ;
ENDSEC;
END-ISO-10303-21;
