ISO-10303-21;
HEADER;
FILE_DESCRIPTION (( 'STEP AP214' ),
    '1' );
FILE_NAME ('mikona-holder-back.STEP',
    '2026-03-26T22:50:46',
    ( '' ),
    ( '' ),
    'SwSTEP 2.0',
    'SolidWorks 2026',
    '' );
FILE_SCHEMA (( 'AUTOMOTIVE_DESIGN' ));
ENDSEC;

DATA;
#1 = FACE_OUTER_BOUND ( 'NONE', #402, .T. ) ;
#2 = CIRCLE ( 'NONE', #790, 2.249999999999999112 ) ;
#3 = DIRECTION ( 'NONE',  ( 0.000000000000000000, -0.000000000000000000, 1.000000000000000000 ) ) ;
#4 = VECTOR ( 'NONE', #307, 1000.000000000000000 ) ;
#5 = DIRECTION ( 'NONE',  ( -0.000000000000000000, -0.000000000000000000, 1.000000000000000000 ) ) ;
#6 = ADVANCED_FACE ( 'NONE', ( #87 ), #363, .F. ) ;
#7 = EDGE_CURVE ( 'NONE', #640, #398, #147, .T. ) ;
#8 = LINE ( 'NONE', #157, #469 ) ;
#9 = CARTESIAN_POINT ( 'NONE',  ( -25.30000000000000071, -25.00000000000000711, -10.20000000000000107 ) ) ;
#10 = LINE ( 'NONE', #422, #355 ) ;
#11 = DIRECTION ( 'NONE',  ( 0.000000000000000000, 0.000000000000000000, -1.000000000000000000 ) ) ;
#12 = ORIENTED_EDGE ( 'NONE', *, *, #494, .T. ) ;
#13 = DIRECTION ( 'NONE',  ( -0.000000000000000000, -1.000000000000000000, -0.000000000000000000 ) ) ;
#14 = EDGE_CURVE ( 'NONE', #543, #203, #320, .T. ) ;
#15 = CARTESIAN_POINT ( 'NONE',  ( -25.29999999999999361, 25.00000000000000355, 1.000000000000000000 ) ) ;
#16 = PRODUCT_DEFINITION_SHAPE ( 'NONE', 'NONE',  #211 ) ;
#17 = EDGE_LOOP ( 'NONE', ( #734, #545, #25, #540, #231, #597 ) ) ;
#18 = ADVANCED_FACE ( 'NONE', ( #252 ), #37, .F. ) ;
#19 = EDGE_LOOP ( 'NONE', ( #270, #491, #341, #633, #322, #869 ) ) ;
#20 = LINE ( 'NONE', #298, #155 ) ;
#21 = VECTOR ( 'NONE', #427, 1000.000000000000000 ) ;
#22 = DIRECTION ( 'NONE',  ( 0.000000000000000000, 0.000000000000000000, -1.000000000000000000 ) ) ;
#23 = FACE_OUTER_BOUND ( 'NONE', #855, .T. ) ;
#24 = APPLICATION_PROTOCOL_DEFINITION ( 'draft international standard', 'automotive_design', 1998, #121 ) ;
#25 = ORIENTED_EDGE ( 'NONE', *, *, #632, .F. ) ;
#26 = DIRECTION ( 'NONE',  ( 1.000000000000000000, 0.000000000000000000, 0.000000000000000000 ) ) ;
#27 = DIRECTION ( 'NONE',  ( -1.000000000000000000, -0.000000000000000000, -0.000000000000000000 ) ) ;
#28 = CARTESIAN_POINT ( 'NONE',  ( -25.30000000000000426, -20.50000000000000355, -8.200000000000001066 ) ) ;
#29 = EDGE_LOOP ( 'NONE', ( #671, #527, #588, #827 ) ) ;
#30 = APPLICATION_PROTOCOL_DEFINITION ( 'draft international standard', 'automotive_design', 1998, #440 ) ;
#31 = CYLINDRICAL_SURFACE ( 'NONE', #569, 2.249999999999999112 ) ;
#32 = VECTOR ( 'NONE', #877, 1000.000000000000000 ) ;
#33 = PLANE ( 'NONE',  #526 ) ;
#34 = DIRECTION ( 'NONE',  ( -0.000000000000000000, -0.000000000000000000, 1.000000000000000000 ) ) ;
#35 = ORIENTED_EDGE ( 'NONE', *, *, #432, .T. ) ;
#36 = CARTESIAN_POINT ( 'NONE',  ( -25.29999999999999716, -19.50000000000000000, -6.400000000000000355 ) ) ;
#37 = PLANE ( 'NONE',  #704 ) ;
#38 = PLANE ( 'NONE',  #282 ) ;
#39 = EDGE_CURVE ( 'NONE', #699, #543, #94, .T. ) ;
#40 = ADVANCED_FACE ( 'NONE', ( #317 ), #570, .F. ) ;
#41 = LINE ( 'NONE', #776, #189 ) ;
#42 = CARTESIAN_POINT ( 'NONE',  ( -25.30000000000000426, 20.49999999999999645, -6.400000000000000355 ) ) ;
#43 = ORIENTED_EDGE ( 'NONE', *, *, #407, .F. ) ;
#44 = ORIENTED_EDGE ( 'NONE', *, *, #415, .F. ) ;
#45 = CARTESIAN_POINT ( 'NONE',  ( 25.30000000000000782, 19.50000000000000000, -6.400000000000000355 ) ) ;
#46 = ORIENTED_EDGE ( 'NONE', *, *, #39, .F. ) ;
#47 = DIRECTION ( 'NONE',  ( -1.261617073437675287E-15, 1.000000000000000000, 0.000000000000000000 ) ) ;
#48 = EDGE_CURVE ( 'NONE', #131, #581, #41, .T. ) ;
#49 = ORIENTED_EDGE ( 'NONE', *, *, #811, .T. ) ;
#50 = ORIENTED_EDGE ( 'NONE', *, *, #761, .F. ) ;
#51 = CARTESIAN_POINT ( 'NONE',  ( -25.29999999999999361, 19.50000000000000000, -6.400000000000000355 ) ) ;
#52 = ORIENTED_EDGE ( 'NONE', *, *, #695, .T. ) ;
#53 = CARTESIAN_POINT ( 'NONE',  ( -25.29999999999999716, -19.50000000000000000, -6.400000000000000355 ) ) ;
#54 =( GEOMETRIC_REPRESENTATION_CONTEXT ( 3 ) GLOBAL_UNCERTAINTY_ASSIGNED_CONTEXT ( ( #69 ) ) GLOBAL_UNIT_ASSIGNED_CONTEXT ( ( #766, #161, #372 ) ) REPRESENTATION_CONTEXT ( 'NONE', 'WORKASPACE' ) );
#55 = ORIENTED_EDGE ( 'NONE', *, *, #120, .T. ) ;
#56 = ORIENTED_EDGE ( 'NONE', *, *, #346, .F. ) ;
#57 = PLANE ( 'NONE',  #763 ) ;
#58 = ORIENTED_EDGE ( 'NONE', *, *, #784, .T. ) ;
#59 = LINE ( 'NONE', #348, #642 ) ;
#60 = ORIENTED_EDGE ( 'NONE', *, *, #610, .F. ) ;
#61 = EDGE_LOOP ( 'NONE', ( #842, #672, #509, #557, #504, #791 ) ) ;
#62 = CARTESIAN_POINT ( 'NONE',  ( 29.70000000000000639, 24.99999999999999289, 1.000000000000000000 ) ) ;
#63 = FACE_OUTER_BOUND ( 'NONE', #738, .T. ) ;
#64 = LINE ( 'NONE', #741, #760 ) ;
#65 = AXIS2_PLACEMENT_3D ( 'NONE', #411, #748, #11 ) ;
#66 = ORIENTED_EDGE ( 'NONE', *, *, #417, .F. ) ;
#67 = AXIS2_PLACEMENT_3D ( 'NONE', #36, #697, #574 ) ;
#68 = CARTESIAN_POINT ( 'NONE',  ( -25.29999999999999716, -20.50000000000000711, -6.400000000000000355 ) ) ;
#69 = UNCERTAINTY_MEASURE_WITH_UNIT (LENGTH_MEASURE( 1.000000000000000082E-05 ), #766, 'distance_accuracy_value', 'NONE');
#70 = DIRECTION ( 'NONE',  ( -0.000000000000000000, -0.000000000000000000, 1.000000000000000000 ) ) ;
#71 = EDGE_CURVE ( 'NONE', #656, #850, #312, .T. ) ;
#72 = CARTESIAN_POINT ( 'NONE',  ( 25.30000000000000071, -25.00000000000000711, -10.20000000000000107 ) ) ;
#73 = ADVANCED_FACE ( 'NONE', ( #844 ), #306, .F. ) ;
#74 = VECTOR ( 'NONE', #238, 1000.000000000000000 ) ;
#75 = DIRECTION ( 'NONE',  ( 0.000000000000000000, 0.000000000000000000, -1.000000000000000000 ) ) ;
#76 = VECTOR ( 'NONE', #720, 1000.000000000000000 ) ;
#77 = DIRECTION ( 'NONE',  ( -1.371322905910519167E-16, -1.000000000000000000, 0.000000000000000000 ) ) ;
#78 = VECTOR ( 'NONE', #724, 1000.000000000000000 ) ;
#79 = DIRECTION ( 'NONE',  ( 0.000000000000000000, 0.000000000000000000, -1.000000000000000000 ) ) ;
#80 = DIRECTION ( 'NONE',  ( -0.000000000000000000, -0.000000000000000000, 1.000000000000000000 ) ) ;
#81 = EDGE_CURVE ( 'NONE', #712, #875, #580, .T. ) ;
#82 = ORIENTED_EDGE ( 'NONE', *, *, #184, .T. ) ;
#83 = FACE_OUTER_BOUND ( 'NONE', #91, .T. ) ;
#84 = LINE ( 'NONE', #617, #828 ) ;
#85 = ORIENTED_EDGE ( 'NONE', *, *, #460, .T. ) ;
#86 = EDGE_CURVE ( 'NONE', #329, #429, #862, .T. ) ;
#87 = FACE_OUTER_BOUND ( 'NONE', #865, .T. ) ;
#88 = CARTESIAN_POINT ( 'NONE',  ( 0.000000000000000000, 0.000000000000000000, 0.000000000000000000 ) ) ;
#89 = CARTESIAN_POINT ( 'NONE',  ( 25.29999999999999716, -20.50000000000001066, -6.400000000000000355 ) ) ;
#90 = DIRECTION ( 'NONE',  ( -1.000000000000000000, 1.371322905910519167E-16, 0.000000000000000000 ) ) ;
#91 = EDGE_LOOP ( 'NONE', ( #378, #361, #534, #471 ) ) ;
#92 = DIRECTION ( 'NONE',  ( 1.000000000000000000, 0.000000000000000000, 0.000000000000000000 ) ) ;
#93 = EDGE_CURVE ( 'NONE', #669, #782, #244, .T. ) ;
#94 = LINE ( 'NONE', #852, #100 ) ;
#95 = CARTESIAN_POINT ( 'NONE',  ( 29.70000000000000639, 24.99999999999999289, -10.40000000000000036 ) ) ;
#96 = ORIENTED_EDGE ( 'NONE', *, *, #695, .F. ) ;
#97 = CARTESIAN_POINT ( 'NONE',  ( 0.000000000000000000, 0.000000000000000000, -6.400000000000000355 ) ) ;
#98 = ORIENTED_EDGE ( 'NONE', *, *, #324, .T. ) ;
#99 = CARTESIAN_POINT ( 'NONE',  ( -25.30000000000000782, -19.49999999999999645, -8.200000000000001066 ) ) ;
#100 = VECTOR ( 'NONE', #368, 1000.000000000000000 ) ;
#101 = CARTESIAN_POINT ( 'NONE',  ( -25.29999999999999361, -24.99999999999998934, 1.000000000000000000 ) ) ;
#102 = ORIENTED_EDGE ( 'NONE', *, *, #48, .T. ) ;
#103 = CARTESIAN_POINT ( 'NONE',  ( 25.30000000000000782, 0.000000000000000000, 0.000000000000000000 ) ) ;
#104 = AXIS2_PLACEMENT_3D ( 'NONE', #479, #593, #410 ) ;
#105 = DIRECTION ( 'NONE',  ( -0.000000000000000000, 1.000000000000000000, 1.387778780781445922E-16 ) ) ;
#106 = EDGE_CURVE ( 'NONE', #867, #395, #437, .T. ) ;
#107 = LINE ( 'NONE', #326, #502 ) ;
#108 = ORIENTED_EDGE ( 'NONE', *, *, #736, .T. ) ;
#109 = DIRECTION ( 'NONE',  ( -0.000000000000000000, -0.000000000000000000, 1.000000000000000000 ) ) ;
#110 = AXIS2_PLACEMENT_3D ( 'NONE', #681, #489, #289 ) ;
#111 = CARTESIAN_POINT ( 'NONE',  ( 0.000000000000000000, 0.000000000000000000, -8.200000000000001066 ) ) ;
#112 = LINE ( 'NONE', #28, #764 ) ;
#113 = ORIENTED_EDGE ( 'NONE', *, *, #48, .F. ) ;
#114 = AXIS2_PLACEMENT_3D ( 'NONE', #232, #92, #171 ) ;
#115 = EDGE_CURVE ( 'NONE', #535, #127, #181, .T. ) ;
#116 = VECTOR ( 'NONE', #849, 1000.000000000000000 ) ;
#117 = LINE ( 'NONE', #173, #464 ) ;
#118 = EDGE_LOOP ( 'NONE', ( #871, #226, #371, #332 ) ) ;
#119 = CARTESIAN_POINT ( 'NONE',  ( 25.30000000000000782, 19.50000000000000000, -6.400000000000000355 ) ) ;
#120 = EDGE_CURVE ( 'NONE', #669, #561, #576, .T. ) ;
#121 = APPLICATION_CONTEXT ( 'automotive_design' ) ;
#122 = ORIENTED_EDGE ( 'NONE', *, *, #457, .T. ) ;
#123 = CARTESIAN_POINT ( 'NONE',  ( -25.29999999999999361, 25.00000000000000355, 1.000000000000000000 ) ) ;
#124 = ORIENTED_EDGE ( 'NONE', *, *, #435, .T. ) ;
#125 = CYLINDRICAL_SURFACE ( 'NONE', #104, 2.249999999999999112 ) ;
#126 = VERTEX_POINT ( 'NONE', #452 ) ;
#127 = VERTEX_POINT ( 'NONE', #512 ) ;
#128 = CARTESIAN_POINT ( 'NONE',  ( 29.70000000000000639, 19.99999999999999645, -3.787139035180583146 ) ) ;
#129 = ORIENTED_EDGE ( 'NONE', *, *, #831, .T. ) ;
#130 = CARTESIAN_POINT ( 'NONE',  ( -25.29999999999999361, 19.50000000000000000, 0.000000000000000000 ) ) ;
#131 = VERTEX_POINT ( 'NONE', #716 ) ;
#132 = ORIENTED_EDGE ( 'NONE', *, *, #487, .T. ) ;
#133 = CYLINDRICAL_SURFACE ( 'NONE', #350, 2.249999999999999112 ) ;
#134 = CARTESIAN_POINT ( 'NONE',  ( 29.70000000000000639, -20.00000000000000355, -6.037139035180581814 ) ) ;
#135 = DIRECTION ( 'NONE',  ( 1.000000000000000000, 6.856614529552597070E-17, 0.000000000000000000 ) ) ;
#136 = VERTEX_POINT ( 'NONE', #101 ) ;
#137 = ADVANCED_FACE ( 'NONE', ( #643 ), #33, .T. ) ;
#138 = DIRECTION ( 'NONE',  ( 1.000000000000000000, 0.000000000000000000, 0.000000000000000000 ) ) ;
#139 = DIRECTION ( 'NONE',  ( -0.000000000000000000, -0.000000000000000000, 1.000000000000000000 ) ) ;
#140 = CARTESIAN_POINT ( 'NONE',  ( 29.70000000000000639, 19.99999999999999645, -1.537139035180584035 ) ) ;
#141 = EDGE_CURVE ( 'NONE', #757, #857, #518, .T. ) ;
#142 = VECTOR ( 'NONE', #280, 1000.000000000000000 ) ;
#143 = VECTOR ( 'NONE', #641, 1000.000000000000000 ) ;
#144 = CARTESIAN_POINT ( 'NONE',  ( 25.30000000000000426, -19.50000000000000000, -6.400000000000000355 ) ) ;
#145 = PRODUCT_RELATED_PRODUCT_CATEGORY ( 'part', '', ( #431 ) ) ;
#146 = FACE_OUTER_BOUND ( 'NONE', #823, .T. ) ;
#147 = CIRCLE ( 'NONE', #263, 2.249999999999999112 ) ;
#148 = CARTESIAN_POINT ( 'NONE',  ( -25.29999999999999361, 19.50000000000000000, -6.400000000000000355 ) ) ;
#149 = AXIS2_PLACEMENT_3D ( 'NONE', #546, #138, #409 ) ;
#150 = CARTESIAN_POINT ( 'NONE',  ( 25.29999999999999716, 19.49999999999999645, -8.200000000000001066 ) ) ;
#151 = CIRCLE ( 'NONE', #604, 2.249999999999999112 ) ;
#152 = ORIENTED_EDGE ( 'NONE', *, *, #721, .T. ) ;
#153 = PLANE ( 'NONE',  #185 ) ;
#154 = CARTESIAN_POINT ( 'NONE',  ( 25.29999999999999716, -20.50000000000001066, -8.200000000000001066 ) ) ;
#155 = VECTOR ( 'NONE', #237, 1000.000000000000000 ) ;
#156 = VERTEX_POINT ( 'NONE', #99 ) ;
#157 = CARTESIAN_POINT ( 'NONE',  ( -25.29999999999999716, -25.00000000000000000, -6.400000000000000355 ) ) ;
#158 = EDGE_CURVE ( 'NONE', #473, #395, #713, .T. ) ;
#159 = CIRCLE ( 'NONE', #719, 2.249999999999999112 ) ;
#160 = ORIENTED_EDGE ( 'NONE', *, *, #71, .F. ) ;
#161 =( NAMED_UNIT ( * ) PLANE_ANGLE_UNIT ( ) SI_UNIT ( $, .RADIAN. ) );
#162 = MECHANICAL_DESIGN_GEOMETRIC_PRESENTATION_REPRESENTATION (  '', ( #793 ), #722 ) ;
#163 = EDGE_CURVE ( 'NONE', #347, #694, #382, .T. ) ;
#164 = ORIENTED_EDGE ( 'NONE', *, *, #323, .F. ) ;
#165 = PLANE ( 'NONE',  #525 ) ;
#166 = DIRECTION ( 'NONE',  ( 1.000000000000000000, -0.000000000000000000, -0.000000000000000000 ) ) ;
#167 = ADVANCED_FACE ( 'NONE', ( #775 ), #315, .F. ) ;
#168 = DIRECTION ( 'NONE',  ( 0.000000000000000000, 0.000000000000000000, -1.000000000000000000 ) ) ;
#169 = CARTESIAN_POINT ( 'NONE',  ( -25.29999999999999716, -19.50000000000000000, -6.400000000000000355 ) ) ;
#170 = ORIENTED_EDGE ( 'NONE', *, *, #424, .T. ) ;
#171 = DIRECTION ( 'NONE',  ( 0.000000000000000000, 0.000000000000000000, -1.000000000000000000 ) ) ;
#172 = DIRECTION ( 'NONE',  ( 6.308085367188400102E-16, 1.000000000000000000, 0.000000000000000000 ) ) ;
#173 = CARTESIAN_POINT ( 'NONE',  ( 29.70000000000000639, 24.99999999999999289, 1.000000000000000000 ) ) ;
#174 = ORIENTED_EDGE ( 'NONE', *, *, #206, .T. ) ;
#175 = FACE_OUTER_BOUND ( 'NONE', #271, .T. ) ;
#176 = VECTOR ( 'NONE', #710, 1000.000000000000000 ) ;
#177 = EDGE_CURVE ( 'NONE', #429, #640, #564, .T. ) ;
#178 = DIRECTION ( 'NONE',  ( 1.000000000000000000, 0.000000000000000000, 0.000000000000000000 ) ) ;
#179 = ORIENTED_EDGE ( 'NONE', *, *, #853, .T. ) ;
#180 = DIRECTION ( 'NONE',  ( -0.000000000000000000, 0.000000000000000000, 1.000000000000000000 ) ) ;
#181 = LINE ( 'NONE', #649, #631 ) ;
#182 = DIRECTION ( 'NONE',  ( -6.856614529552597070E-17, 1.000000000000000000, 0.000000000000000000 ) ) ;
#183 = ORIENTED_EDGE ( 'NONE', *, *, #714, .T. ) ;
#184 = EDGE_CURVE ( 'NONE', #303, #769, #159, .T. ) ;
#185 = AXIS2_PLACEMENT_3D ( 'NONE', #553, #79, #215 ) ;
#186 =( LENGTH_UNIT ( ) NAMED_UNIT ( * ) SI_UNIT ( .MILLI., .METRE. ) );
#187 = EDGE_LOOP ( 'NONE', ( #218, #397, #408, #626, #659, #480, #222, #624, #778, #800, #657, #386, #310, #273, #400, #666, #723, #358, #194, #96 ) ) ;
#188 = DIRECTION ( 'NONE',  ( -0.000000000000000000, -0.000000000000000000, 1.000000000000000000 ) ) ;
#189 = VECTOR ( 'NONE', #27, 1000.000000000000000 ) ;
#190 = AXIS2_PLACEMENT_3D ( 'NONE', #103, #779, #180 ) ;
#191 = AXIS2_PLACEMENT_3D ( 'NONE', #668, #472, #733 ) ;
#192 = EDGE_LOOP ( 'NONE', ( #330, #198, #49, #179 ) ) ;
#193 = LINE ( 'NONE', #62, #614 ) ;
#194 = ORIENTED_EDGE ( 'NONE', *, *, #424, .F. ) ;
#195 = PLANE ( 'NONE',  #690 ) ;
#196 = AXIS2_PLACEMENT_3D ( 'NONE', #603, #730, #740 ) ;
#197 = ORIENTED_EDGE ( 'NONE', *, *, #478, .F. ) ;
#198 = ORIENTED_EDGE ( 'NONE', *, *, #661, .T. ) ;
#199 = CARTESIAN_POINT ( 'NONE',  ( 25.30000000000000782, 19.50000000000000000, -6.400000000000000355 ) ) ;
#200 = ORIENTED_EDGE ( 'NONE', *, *, #367, .F. ) ;
#201 = LINE ( 'NONE', #670, #221 ) ;
#202 = EDGE_LOOP ( 'NONE', ( #60, #476, #461, #43 ) ) ;
#203 = VERTEX_POINT ( 'NONE', #89 ) ;
#204 = DIRECTION ( 'NONE',  ( -1.000000000000000000, 0.000000000000000000, 0.000000000000000000 ) ) ;
#205 = DIRECTION ( 'NONE',  ( 1.000000000000000000, -1.371322905910519414E-16, -0.000000000000000000 ) ) ;
#206 = EDGE_CURVE ( 'NONE', #646, #517, #428, .T. ) ;
#207 = EDGE_LOOP ( 'NONE', ( #132, #707, #46, #122 ) ) ;
#208 = DIRECTION ( 'NONE',  ( 0.000000000000000000, -1.000000000000000000, -1.387778780781445922E-16 ) ) ;
#209 = CARTESIAN_POINT ( 'NONE',  ( -25.29999999999999361, 19.50000000000000000, -6.400000000000000355 ) ) ;
#210 = LINE ( 'NONE', #213, #381 ) ;
#211 = PRODUCT_DEFINITION ( 'UNKNOWN', '', #443, #623 ) ;
#212 = CARTESIAN_POINT ( 'NONE',  ( 25.30000000000000782, 19.50000000000000000, -6.400000000000000355 ) ) ;
#213 = CARTESIAN_POINT ( 'NONE',  ( 25.29999999999999361, -19.50000000000000355, -10.20000000000000107 ) ) ;
#214 = EDGE_CURVE ( 'NONE', #325, #850, #442, .T. ) ;
#215 = DIRECTION ( 'NONE',  ( -1.000000000000000000, 0.000000000000000000, -0.000000000000000000 ) ) ;
#216 = DIRECTION ( 'NONE',  ( 1.000000000000000000, 0.000000000000000000, 0.000000000000000000 ) ) ;
#217 = AXIS2_PLACEMENT_3D ( 'NONE', #506, #520, #768 ) ;
#218 = ORIENTED_EDGE ( 'NONE', *, *, #262, .F. ) ;
#219 = CARTESIAN_POINT ( 'NONE',  ( 25.30000000000000782, 19.99999999999999645, -6.037139035180581814 ) ) ;
#220 = LINE ( 'NONE', #416, #345 ) ;
#221 = VECTOR ( 'NONE', #205, 1000.000000000000000 ) ;
#222 = ORIENTED_EDGE ( 'NONE', *, *, #674, .F. ) ;
#223 = FACE_OUTER_BOUND ( 'NONE', #592, .T. ) ;
#224 = DIRECTION ( 'NONE',  ( 6.308085367188392213E-16, -1.000000000000000000, -0.000000000000000000 ) ) ;
#225 = VECTOR ( 'NONE', #80, 1000.000000000000000 ) ;
#226 = ORIENTED_EDGE ( 'NONE', *, *, #346, .T. ) ;
#227 = ADVANCED_FACE ( 'NONE', ( #703 ), #31, .F. ) ;
#228 = VECTOR ( 'NONE', #663, 1000.000000000000000 ) ;
#229 = VERTEX_POINT ( 'NONE', #364 ) ;
#230 = ADVANCED_FACE ( 'NONE', ( #175 ), #311, .T. ) ;
#231 = ORIENTED_EDGE ( 'NONE', *, *, #811, .F. ) ;
#232 = CARTESIAN_POINT ( 'NONE',  ( 25.30000000000000782, 19.99999999999999645, -3.787139035180583146 ) ) ;
#233 = VECTOR ( 'NONE', #858, 1000.000000000000000 ) ;
#234 = CARTESIAN_POINT ( 'NONE',  ( -25.29999999999999716, -19.50000000000000000, 0.000000000000000000 ) ) ;
#235 = VECTOR ( 'NONE', #70, 1000.000000000000000 ) ;
#236 = ORIENTED_EDGE ( 'NONE', *, *, #262, .T. ) ;
#237 = DIRECTION ( 'NONE',  ( -0.000000000000000000, -1.000000000000000000, -0.000000000000000000 ) ) ;
#238 = DIRECTION ( 'NONE',  ( -0.000000000000000000, -0.000000000000000000, 1.000000000000000000 ) ) ;
#239 = DIRECTION ( 'NONE',  ( 1.000000000000000000, 0.000000000000000000, 0.000000000000000000 ) ) ;
#240 = DIRECTION ( 'NONE',  ( -1.000000000000000000, -6.856614529552597070E-17, 0.000000000000000000 ) ) ;
#241 = ORIENTED_EDGE ( 'NONE', *, *, #736, .F. ) ;
#242 = DIRECTION ( 'NONE',  ( 1.000000000000000000, 0.000000000000000000, -0.000000000000000000 ) ) ;
#243 = EDGE_CURVE ( 'NONE', #640, #303, #634, .T. ) ;
#244 = LINE ( 'NONE', #780, #334 ) ;
#245 =( NAMED_UNIT ( * ) PLANE_ANGLE_UNIT ( ) SI_UNIT ( $, .RADIAN. ) );
#246 = ORIENTED_EDGE ( 'NONE', *, *, #93, .F. ) ;
#247 = CARTESIAN_POINT ( 'NONE',  ( 25.30000000000000782, 19.99999999999999645, -6.037139035180581814 ) ) ;
#248 = CARTESIAN_POINT ( 'NONE',  ( 25.30000000000000782, 19.99999999999999645, -3.787139035180583146 ) ) ;
#249 = EDGE_CURVE ( 'NONE', #806, #325, #2, .T. ) ;
#250 = SURFACE_STYLE_USAGE ( .BOTH. , #785 ) ;
#251 = ORIENTED_EDGE ( 'NONE', *, *, #550, .F. ) ;
#252 = FACE_OUTER_BOUND ( 'NONE', #450, .T. ) ;
#253 = CARTESIAN_POINT ( 'NONE',  ( 25.29999999999999716, 19.49999999999999645, -8.200000000000001066 ) ) ;
#254 = ORIENTED_EDGE ( 'NONE', *, *, #141, .F. ) ;
#255 = PLANE ( 'NONE',  #196 ) ;
#256 = VECTOR ( 'NONE', #505, 1000.000000000000000 ) ;
#257 = ADVANCED_FACE ( 'NONE', ( #647 ), #299, .T. ) ;
#258 = ORIENTED_EDGE ( 'NONE', *, *, #460, .F. ) ;
#259 = LINE ( 'NONE', #253, #116 ) ;
#260 = VERTEX_POINT ( 'NONE', #511 ) ;
#261 = CARTESIAN_POINT ( 'NONE',  ( 25.29999999999999361, -19.50000000000000355, -10.20000000000000107 ) ) ;
#262 = EDGE_CURVE ( 'NONE', #309, #691, #771, .T. ) ;
#263 = AXIS2_PLACEMENT_3D ( 'NONE', #584, #178, #523 ) ;
#264 = VERTEX_POINT ( 'NONE', #567 ) ;
#265 = EDGE_LOOP ( 'NONE', ( #113, #702, #160, #662 ) ) ;
#266 = CARTESIAN_POINT ( 'NONE',  ( 25.30000000000000426, -19.50000000000000000, -1.593397938332554276 ) ) ;
#267 = ORIENTED_EDGE ( 'NONE', *, *, #7, .T. ) ;
#268 = LINE ( 'NONE', #209, #78 ) ;
#269 = VECTOR ( 'NONE', #47, 1000.000000000000000 ) ;
#270 = ORIENTED_EDGE ( 'NONE', *, *, #851, .F. ) ;
#271 = EDGE_LOOP ( 'NONE', ( #365, #98, #537, #56 ) ) ;
#272 = LINE ( 'NONE', #123, #501 ) ;
#273 = ORIENTED_EDGE ( 'NONE', *, *, #249, .T. ) ;
#274 = CARTESIAN_POINT ( 'NONE',  ( 25.30000000000000782, 19.49999999999999645, -10.20000000000000107 ) ) ;
#275 = ADVANCED_FACE ( 'NONE', ( #23 ), #57, .F. ) ;
#276 = VECTOR ( 'NONE', #13, 1000.000000000000000 ) ;
#277 = ORIENTED_EDGE ( 'NONE', *, *, #385, .T. ) ;
#278 = FACE_OUTER_BOUND ( 'NONE', #590, .T. ) ;
#279 = DIRECTION ( 'NONE',  ( 6.308085367188400102E-16, 1.000000000000000000, 0.000000000000000000 ) ) ;
#280 = DIRECTION ( 'NONE',  ( -1.000000000000000000, -0.000000000000000000, -0.000000000000000000 ) ) ;
#281 = VECTOR ( 'NONE', #792, 1000.000000000000000 ) ;
#282 = AXIS2_PLACEMENT_3D ( 'NONE', #773, #521, #638 ) ;
#283 = EDGE_CURVE ( 'NONE', #694, #581, #466, .T. ) ;
#284 = CARTESIAN_POINT ( 'NONE',  ( 29.70000000000000639, -20.00000000000000355, -1.537139035180584035 ) ) ;
#285 = LINE ( 'NONE', #486, #225 ) ;
#286 = DIRECTION ( 'NONE',  ( -0.000000000000000000, 1.000000000000000000, 0.000000000000000000 ) ) ;
#287 = CARTESIAN_POINT ( 'NONE',  ( 29.70000000000000639, 24.99999999999999289, -10.40000000000000036 ) ) ;
#288 = LINE ( 'NONE', #688, #377 ) ;
#289 = DIRECTION ( 'NONE',  ( 1.000000000000000000, 0.000000000000000000, -0.000000000000000000 ) ) ;
#290 = ORIENTED_EDGE ( 'NONE', *, *, #714, .F. ) ;
#291 = DIRECTION ( 'NONE',  ( -1.000000000000000000, 0.000000000000000000, 0.000000000000000000 ) ) ;
#292 = LINE ( 'NONE', #72, #715 ) ;
#293 = VERTEX_POINT ( 'NONE', #536 ) ;
#294 = EDGE_CURVE ( 'NONE', #136, #757, #601, .T. ) ;
#295 = VECTOR ( 'NONE', #344, 1000.000000000000000 ) ;
#296 = VECTOR ( 'NONE', #840, 1000.000000000000000 ) ;
#297 = EDGE_LOOP ( 'NONE', ( #664, #731 ) ) ;
#298 = CARTESIAN_POINT ( 'NONE',  ( 25.30000000000000426, -25.00000000000000000, -6.400000000000000355 ) ) ;
#299 = PLANE ( 'NONE',  #190 ) ;
#300 = ADVANCED_FACE ( 'NONE', ( #337 ), #809, .F. ) ;
#301 = VECTOR ( 'NONE', #585, 1000.000000000000000 ) ;
#302 = CIRCLE ( 'NONE', #191, 2.249999999999999112 ) ;
#303 = VERTEX_POINT ( 'NONE', #596 ) ;
#304 = CARTESIAN_POINT ( 'NONE',  ( 25.29999999999999716, 20.49999999999998934, -8.200000000000001066 ) ) ;
#305 = AXIS2_PLACEMENT_3D ( 'NONE', #128, #342, #876 ) ;
#306 = PLANE ( 'NONE',  #217 ) ;
#307 = DIRECTION ( 'NONE',  ( -0.000000000000000000, -0.000000000000000000, 1.000000000000000000 ) ) ;
#308 = VECTOR ( 'NONE', #612, 1000.000000000000000 ) ;
#309 = VERTEX_POINT ( 'NONE', #481 ) ;
#310 = ORIENTED_EDGE ( 'NONE', *, *, #583, .T. ) ;
#311 = PLANE ( 'NONE',  #833 ) ;
#312 = LINE ( 'NONE', #234, #176 ) ;
#313 = LINE ( 'NONE', #508, #76 ) ;
#314 = ORIENTED_EDGE ( 'NONE', *, *, #826, .T. ) ;
#315 = PLANE ( 'NONE',  #67 ) ;
#316 = EDGE_CURVE ( 'NONE', #229, #669, #678, .T. ) ;
#317 = FACE_OUTER_BOUND ( 'NONE', #496, .T. ) ;
#318 = CARTESIAN_POINT ( 'NONE',  ( 25.29999999999999361, -19.50000000000000355, -10.20000000000000107 ) ) ;
#319 = VECTOR ( 'NONE', #606, 1000.000000000000000 ) ;
#320 = LINE ( 'NONE', #701, #301 ) ;
#321 = CARTESIAN_POINT ( 'NONE',  ( -25.30000000000000782, -19.49999999999999645, -10.20000000000000107 ) ) ;
#322 = ORIENTED_EDGE ( 'NONE', *, *, #586, .T. ) ;
#323 = EDGE_CURVE ( 'NONE', #798, #794, #272, .T. ) ;
#324 = EDGE_CURVE ( 'NONE', #794, #136, #542, .T. ) ;
#325 = VERTEX_POINT ( 'NONE', #266 ) ;
#326 = CARTESIAN_POINT ( 'NONE',  ( -25.30000000000000426, 20.49999999999999645, -8.200000000000001066 ) ) ;
#327 = ORIENTED_EDGE ( 'NONE', *, *, #610, .T. ) ;
#328 = FACE_OUTER_BOUND ( 'NONE', #600, .T. ) ;
#329 = VERTEX_POINT ( 'NONE', #399 ) ;
#330 = ORIENTED_EDGE ( 'NONE', *, *, #487, .F. ) ;
#331 = DIRECTION ( 'NONE',  ( 0.000000000000000000, -1.387778780781445922E-16, 1.000000000000000000 ) ) ;
#332 = ORIENTED_EDGE ( 'NONE', *, *, #93, .T. ) ;
#333 = DIRECTION ( 'NONE',  ( -1.000000000000000000, 1.371322905910519414E-16, 0.000000000000000000 ) ) ;
#334 = VECTOR ( 'NONE', #105, 1000.000000000000000 ) ;
#335 = ORIENTED_EDGE ( 'NONE', *, *, #362, .F. ) ;
#336 = ORIENTED_EDGE ( 'NONE', *, *, #484, .F. ) ;
#337 = FACE_OUTER_BOUND ( 'NONE', #467, .T. ) ;
#338 = ADVANCED_FACE ( 'NONE', ( #278 ), #133, .F. ) ;
#339 = ORIENTED_EDGE ( 'NONE', *, *, #163, .F. ) ;
#340 = FACE_OUTER_BOUND ( 'NONE', #863, .T. ) ;
#341 = ORIENTED_EDGE ( 'NONE', *, *, #249, .F. ) ;
#342 = DIRECTION ( 'NONE',  ( 1.000000000000000000, 0.000000000000000000, 0.000000000000000000 ) ) ;
#343 = DIRECTION ( 'NONE',  ( -1.371322905910519414E-16, -1.000000000000000000, 0.000000000000000000 ) ) ;
#344 = DIRECTION ( 'NONE',  ( 6.308085367188392213E-16, -1.000000000000000000, -0.000000000000000000 ) ) ;
#345 = VECTOR ( 'NONE', #224, 1000.000000000000000 ) ;
#346 = EDGE_CURVE ( 'NONE', #798, #229, #193, .T. ) ;
#347 = VERTEX_POINT ( 'NONE', #199 ) ;
#348 = CARTESIAN_POINT ( 'NONE',  ( 25.30000000000000782, -20.00000000000000355, -6.037139035180581814 ) ) ;
#349 = CARTESIAN_POINT ( 'NONE',  ( 25.29999999999999716, 19.49999999999999645, -10.20000000000000107 ) ) ;
#350 = AXIS2_PLACEMENT_3D ( 'NONE', #394, #673, #799 ) ;
#351 = VECTOR ( 'NONE', #735, 1000.000000000000000 ) ;
#352 = DIRECTION ( 'NONE',  ( -1.000000000000000000, 0.000000000000000000, -0.000000000000000000 ) ) ;
#353 = CARTESIAN_POINT ( 'NONE',  ( -25.29999999999999361, -24.99999999999998934, 1.000000000000000000 ) ) ;
#354 = EDGE_CURVE ( 'NONE', #578, #806, #302, .T. ) ;
#355 = VECTOR ( 'NONE', #359, 1000.000000000000000 ) ;
#356 = CARTESIAN_POINT ( 'NONE',  ( -25.30000000000000071, 19.50000000000000355, -8.200000000000001066 ) ) ;
#357 = LINE ( 'NONE', #548, #142 ) ;
#358 = ORIENTED_EDGE ( 'NONE', *, *, #86, .T. ) ;
#359 = DIRECTION ( 'NONE',  ( 1.261617073437676865E-15, -1.000000000000000000, -0.000000000000000000 ) ) ;
#360 = PLANE ( 'NONE',  #110 ) ;
#361 = ORIENTED_EDGE ( 'NONE', *, *, #531, .T. ) ;
#362 = EDGE_CURVE ( 'NONE', #769, #303, #615, .T. ) ;
#363 = PLANE ( 'NONE',  #751 ) ;
#364 = CARTESIAN_POINT ( 'NONE',  ( 29.70000000000000639, -25.00000000000000355, 1.000000000000000000 ) ) ;
#365 = ORIENTED_EDGE ( 'NONE', *, *, #323, .T. ) ;
#366 = DIRECTION ( 'NONE',  ( 0.000000000000000000, 0.000000000000000000, -1.000000000000000000 ) ) ;
#367 = EDGE_CURVE ( 'NONE', #398, #329, #834, .T. ) ;
#368 = DIRECTION ( 'NONE',  ( 1.000000000000000000, -1.371322905910519414E-16, -0.000000000000000000 ) ) ;
#369 = AXIS2_PLACEMENT_3D ( 'NONE', #772, #836, #383 ) ;
#370 = FACE_OUTER_BOUND ( 'NONE', #118, .T. ) ;
#371 = ORIENTED_EDGE ( 'NONE', *, *, #316, .T. ) ;
#372 =( NAMED_UNIT ( * ) SI_UNIT ( $, .STERADIAN. ) SOLID_ANGLE_UNIT ( ) );
#373 = VERTEX_POINT ( 'NONE', #68 ) ;
#374 = CARTESIAN_POINT ( 'NONE',  ( -25.30000000000000071, -25.00000000000000711, -10.20000000000000107 ) ) ;
#375 = DIRECTION ( 'NONE',  ( 1.371322905910519660E-16, 1.000000000000000000, 0.000000000000000000 ) ) ;
#376 = DIRECTION ( 'NONE',  ( -0.000000000000000000, -0.000000000000000000, 1.000000000000000000 ) ) ;
#377 = VECTOR ( 'NONE', #819, 1000.000000000000000 ) ;
#378 = ORIENTED_EDGE ( 'NONE', *, *, #725, .F. ) ;
#379 = CARTESIAN_POINT ( 'NONE',  ( 29.70000000000000639, -20.00000000000000355, -3.787139035180583146 ) ) ;
#380 = CARTESIAN_POINT ( 'NONE',  ( -25.29999999999999716, 24.99999999999999289, -10.20000000000000107 ) ) ;
#381 = VECTOR ( 'NONE', #689, 1000.000000000000000 ) ;
#382 = LINE ( 'NONE', #767, #413 ) ;
#383 = DIRECTION ( 'NONE',  ( 0.000000000000000000, 0.000000000000000000, -1.000000000000000000 ) ) ;
#384 = CARTESIAN_POINT ( 'NONE',  ( 25.29999999999999361, -19.50000000000000355, -8.200000000000001066 ) ) ;
#385 = EDGE_CURVE ( 'NONE', #293, #712, #259, .T. ) ;
#386 = ORIENTED_EDGE ( 'NONE', *, *, #853, .F. ) ;
#387 = VECTOR ( 'NONE', #515, 1000.000000000000000 ) ;
#388 = VECTOR ( 'NONE', #376, 1000.000000000000000 ) ;
#389 = ADVANCED_FACE ( 'NONE', ( #513 ), #706, .F. ) ;
#390 = VERTEX_POINT ( 'NONE', #318 ) ;
#391 = ORIENTED_EDGE ( 'NONE', *, *, #184, .F. ) ;
#392 = LINE ( 'NONE', #660, #269 ) ;
#393 = ORIENTED_EDGE ( 'NONE', *, *, #457, .F. ) ;
#394 = CARTESIAN_POINT ( 'NONE',  ( 25.30000000000000782, 19.99999999999999645, -3.787139035180583146 ) ) ;
#395 = VERTEX_POINT ( 'NONE', #454 ) ;
#396 = CARTESIAN_POINT ( 'NONE',  ( 25.29999999999999716, 20.49999999999998934, -8.200000000000001066 ) ) ;
#397 = ORIENTED_EDGE ( 'NONE', *, *, #725, .T. ) ;
#398 = VERTEX_POINT ( 'NONE', #459 ) ;
#399 = CARTESIAN_POINT ( 'NONE',  ( 25.30000000000000782, 19.50000000000000000, -1.593397938332552499 ) ) ;
#400 = ORIENTED_EDGE ( 'NONE', *, *, #214, .T. ) ;
#401 = CARTESIAN_POINT ( 'NONE',  ( 25.30000000000000426, -19.50000000000000000, -6.400000000000000355 ) ) ;
#402 = EDGE_LOOP ( 'NONE', ( #522, #58, #677, #108 ) ) ;
#403 = ORIENTED_EDGE ( 'NONE', *, *, #560, .T. ) ;
#404 = DIRECTION ( 'NONE',  ( -1.000000000000000000, -6.856614529552597070E-17, -0.000000000000000000 ) ) ;
#405 = CARTESIAN_POINT ( 'NONE',  ( 25.30000000000000782, -25.00000000000000000, -10.40000000000000568 ) ) ;
#406 = DIRECTION ( 'NONE',  ( 1.000000000000000000, 6.856614529552597070E-17, 0.000000000000000000 ) ) ;
#407 = EDGE_CURVE ( 'NONE', #156, #264, #845, .T. ) ;
#408 = ORIENTED_EDGE ( 'NONE', *, *, #826, .F. ) ;
#409 = DIRECTION ( 'NONE',  ( 0.000000000000000000, 0.000000000000000000, -1.000000000000000000 ) ) ;
#410 = DIRECTION ( 'NONE',  ( 0.000000000000000000, 0.000000000000000000, -1.000000000000000000 ) ) ;
#411 = CARTESIAN_POINT ( 'NONE',  ( 29.70000000000000639, -20.00000000000000355, -3.787139035180583146 ) ) ;
#412 = VECTOR ( 'NONE', #135, 1000.000000000000000 ) ;
#413 = VECTOR ( 'NONE', #651, 1000.000000000000000 ) ;
#414 = LINE ( 'NONE', #692, #575 ) ;
#415 = EDGE_CURVE ( 'NONE', #782, #473, #655, .T. ) ;
#416 = CARTESIAN_POINT ( 'NONE',  ( 25.29999999999999716, 19.49999999999999645, -10.20000000000000107 ) ) ;
#417 = EDGE_CURVE ( 'NONE', #782, #798, #117, .T. ) ;
#418 = PRESENTATION_LAYER_ASSIGNMENT (  '', '', ( #793 ) ) ;
#419 = CARTESIAN_POINT ( 'NONE',  ( -25.30000000000000782, -20.50000000000000355, -8.200000000000001066 ) ) ;
#420 = CARTESIAN_POINT ( 'NONE',  ( 25.30000000000000782, -20.00000000000000355, -1.537139035180584035 ) ) ;
#421 = VERTEX_POINT ( 'NONE', #169 ) ;
#422 = CARTESIAN_POINT ( 'NONE',  ( 25.30000000000000071, -25.00000000000000711, -8.200000000000001066 ) ) ;
#423 = LINE ( 'NONE', #693, #21 ) ;
#424 = EDGE_CURVE ( 'NONE', #347, #429, #524, .T. ) ;
#425 = ORIENTED_EDGE ( 'NONE', *, *, #407, .T. ) ;
#426 = LINE ( 'NONE', #144, #308 ) ;
#427 = DIRECTION ( 'NONE',  ( 1.000000000000000000, -0.000000000000000000, -0.000000000000000000 ) ) ;
#428 = CIRCLE ( 'NONE', #654, 2.249999999999999112 ) ;
#429 = VERTEX_POINT ( 'NONE', #658 ) ;
#430 = CARTESIAN_POINT ( 'NONE',  ( -25.30000000000000071, 20.49999999999999289, -8.200000000000001066 ) ) ;
#431 = PRODUCT ( 'mikona-holder-back', 'mikona-holder-back', '', ( #759 ) ) ;
#432 = EDGE_CURVE ( 'NONE', #561, #473, #313, .T. ) ;
#433 = DIRECTION ( 'NONE',  ( 1.371322905910519167E-16, 1.000000000000000000, 0.000000000000000000 ) ) ;
#434 = DIRECTION ( 'NONE',  ( 0.000000000000000000, 0.000000000000000000, 1.000000000000000000 ) ) ;
#435 = EDGE_CURVE ( 'NONE', #875, #465, #107, .T. ) ;
#436 = CARTESIAN_POINT ( 'NONE',  ( 25.30000000000000782, 24.99999999999999289, 1.000000000000000000 ) ) ;
#437 = LINE ( 'NONE', #380, #822 ) ;
#438 = MANIFOLD_SOLID_BREP ( 'Boss-Extrude5', #635 ) ;
#439 = DIRECTION ( 'NONE',  ( -0.000000000000000000, -0.000000000000000000, 1.000000000000000000 ) ) ;
#440 = APPLICATION_CONTEXT ( 'automotive_design' ) ;
#441 = ORIENTED_EDGE ( 'NONE', *, *, #550, .T. ) ;
#442 = LINE ( 'NONE', #843, #74 ) ;
#443 = PRODUCT_DEFINITION_FORMATION_WITH_SPECIFIED_SOURCE ( 'ANY', '', #431, .NOT_KNOWN. ) ;
#444 = CARTESIAN_POINT ( 'NONE',  ( 25.29999999999999716, 19.49999999999999645, -10.20000000000000107 ) ) ;
#445 = FILL_AREA_STYLE_COLOUR ( '', #687 ) ;
#446 = ORIENTED_EDGE ( 'NONE', *, *, #7, .F. ) ;
#447 = DIRECTION ( 'NONE',  ( 1.000000000000000000, 0.000000000000000000, 0.000000000000000000 ) ) ;
#448 = DIRECTION ( 'NONE',  ( -1.000000000000000000, 1.371322905910519660E-16, 0.000000000000000000 ) ) ;
#449 = FACE_BOUND ( 'NONE', #297, .T. ) ;
#450 = EDGE_LOOP ( 'NONE', ( #277, #251, #765, #314 ) ) ;
#451 = CARTESIAN_POINT ( 'NONE',  ( 25.30000000000000782, -20.00000000000000355, -3.787139035180583146 ) ) ;
#452 = CARTESIAN_POINT ( 'NONE',  ( 25.30000000000000071, -25.00000000000000711, -10.20000000000000107 ) ) ;
#453 = ADVANCED_FACE ( 'NONE', ( #449, #650, #370 ), #38, .F. ) ;
#454 = CARTESIAN_POINT ( 'NONE',  ( 25.29999999999999361, 24.99999999999999289, -10.20000000000000107 ) ) ;
#455 = AXIS2_PLACEMENT_3D ( 'NONE', #154, #77, #554 ) ;
#456 = ORIENTED_EDGE ( 'NONE', *, *, #549, .T. ) ;
#457 = EDGE_CURVE ( 'NONE', #699, #373, #112, .T. ) ;
#458 = ADVANCED_BREP_SHAPE_REPRESENTATION ( 'mikona-holder-back', ( #438, #820 ), #54 ) ;
#459 = CARTESIAN_POINT ( 'NONE',  ( 25.30000000000000782, 19.99999999999999645, -1.537139035180584035 ) ) ;
#460 = EDGE_CURVE ( 'NONE', #857, #156, #717, .T. ) ;
#461 = ORIENTED_EDGE ( 'NONE', *, *, #652, .F. ) ;
#462 = DIRECTION ( 'NONE',  ( 1.000000000000000000, -0.000000000000000000, -0.000000000000000000 ) ) ;
#463 = VECTOR ( 'NONE', #109, 1000.000000000000000 ) ;
#464 = VECTOR ( 'NONE', #34, 1000.000000000000000 ) ;
#465 = VERTEX_POINT ( 'NONE', #42 ) ;
#466 = LINE ( 'NONE', #51, #319 ) ;
#467 = EDGE_LOOP ( 'NONE', ( #35, #44, #246, #55 ) ) ;
#468 = LINE ( 'NONE', #533, #726 ) ;
#469 = VECTOR ( 'NONE', #555, 1000.000000000000000 ) ;
#470 = ORIENTED_EDGE ( 'NONE', *, *, #415, .T. ) ;
#471 = ORIENTED_EDGE ( 'NONE', *, *, #385, .F. ) ;
#472 = DIRECTION ( 'NONE',  ( 1.000000000000000000, 0.000000000000000000, 0.000000000000000000 ) ) ;
#473 = VERTEX_POINT ( 'NONE', #587 ) ;
#474 = DIRECTION ( 'NONE',  ( 0.000000000000000000, 0.000000000000000000, -1.000000000000000000 ) ) ;
#475 = EDGE_LOOP ( 'NONE', ( #503, #446, #829, #82 ) ) ;
#476 = ORIENTED_EDGE ( 'NONE', *, *, #39, .T. ) ;
#477 = CARTESIAN_POINT ( 'NONE',  ( -25.29999999999999361, -24.99999999999998934, 1.000000000000000000 ) ) ;
#478 = EDGE_CURVE ( 'NONE', #421, #656, #854, .T. ) ;
#479 = CARTESIAN_POINT ( 'NONE',  ( 25.30000000000000782, 19.99999999999999645, -3.787139035180583146 ) ) ;
#480 = ORIENTED_EDGE ( 'NONE', *, *, #432, .F. ) ;
#481 = CARTESIAN_POINT ( 'NONE',  ( 25.29999999999999716, 20.49999999999999289, -8.200000000000001066 ) ) ;
#482 = DIRECTION ( 'NONE',  ( 1.000000000000000000, 0.000000000000000000, 0.000000000000000000 ) ) ;
#483 = CARTESIAN_POINT ( 'NONE',  ( 25.30000000000000782, -20.00000000000000355, -3.787139035180583146 ) ) ;
#484 = EDGE_CURVE ( 'NONE', #390, #264, #812, .T. ) ;
#485 = FACE_OUTER_BOUND ( 'NONE', #29, .T. ) ;
#486 = CARTESIAN_POINT ( 'NONE',  ( 25.30000000000000782, 19.50000000000000000, -6.400000000000000355 ) ) ;
#487 = EDGE_CURVE ( 'NONE', #373, #203, #201, .T. ) ;
#488 = CARTESIAN_POINT ( 'NONE',  ( -25.29999999999999361, 19.50000000000000000, -6.400000000000000355 ) ) ;
#489 = DIRECTION ( 'NONE',  ( 0.000000000000000000, 0.000000000000000000, 1.000000000000000000 ) ) ;
#490 = AXIS2_PLACEMENT_3D ( 'NONE', #248, #239, #168 ) ;
#491 = ORIENTED_EDGE ( 'NONE', *, *, #573, .F. ) ;
#492 = CARTESIAN_POINT ( 'NONE',  ( 29.70000000000000639, -25.00000000000000000, -10.40000000000000568 ) ) ;
#493 = DIRECTION ( 'NONE',  ( 6.856614529552597070E-17, -1.000000000000000000, 0.000000000000000000 ) ) ;
#494 = EDGE_CURVE ( 'NONE', #329, #131, #795, .T. ) ;
#495 = VECTOR ( 'NONE', #279, 1000.000000000000000 ) ;
#496 = EDGE_LOOP ( 'NONE', ( #605, #532, #174, #696 ) ) ;
#497 = CARTESIAN_POINT ( 'NONE',  ( 0.000000000000000000, 0.000000000000000000, -6.400000000000000355 ) ) ;
#498 = AXIS2_PLACEMENT_3D ( 'NONE', #618, #75, #814 ) ;
#499 = CARTESIAN_POINT ( 'NONE',  ( -25.30000000000000782, -19.49999999999999645, -10.20000000000000107 ) ) ;
#500 = ADVANCED_FACE ( 'NONE', ( #63 ), #675, .F. ) ;
#501 = VECTOR ( 'NONE', #404, 1000.000000000000000 ) ;
#502 = VECTOR ( 'NONE', #439, 1000.000000000000000 ) ;
#503 = ORIENTED_EDGE ( 'NONE', *, *, #568, .F. ) ;
#504 = ORIENTED_EDGE ( 'NONE', *, *, #316, .F. ) ;
#505 = DIRECTION ( 'NONE',  ( -1.261617073437675287E-15, 1.000000000000000000, 0.000000000000000000 ) ) ;
#506 = CARTESIAN_POINT ( 'NONE',  ( 0.000000000000000000, 0.000000000000000000, 0.000000000000000000 ) ) ;
#507 = ADVANCED_FACE ( 'NONE', ( #340 ), #255, .F. ) ;
#508 = CARTESIAN_POINT ( 'NONE',  ( 25.30000000000000782, 24.99999999999999289, -10.40000000000000036 ) ) ;
#509 = ORIENTED_EDGE ( 'NONE', *, *, #674, .T. ) ;
#510 = DIRECTION ( 'NONE',  ( 1.000000000000000000, 0.000000000000000000, 0.000000000000000000 ) ) ;
#511 = CARTESIAN_POINT ( 'NONE',  ( 25.30000000000000426, -19.50000000000000000, -6.400000000000000355 ) ) ;
#512 = CARTESIAN_POINT ( 'NONE',  ( -25.30000000000000071, 19.50000000000000355, -10.20000000000000107 ) ) ;
#513 = FACE_OUTER_BOUND ( 'NONE', #61, .T. ) ;
#514 = ORIENTED_EDGE ( 'NONE', *, *, #362, .T. ) ;
#515 = DIRECTION ( 'NONE',  ( 1.000000000000000000, -0.000000000000000000, -0.000000000000000000 ) ) ;
#516 = DIRECTION ( 'NONE',  ( -1.000000000000000000, 1.371322905910519660E-16, 0.000000000000000000 ) ) ;
#517 = VERTEX_POINT ( 'NONE', #134 ) ;
#518 = LINE ( 'NONE', #374, #256 ) ;
#519 = ADVANCED_FACE ( 'NONE', ( #872 ), #125, .F. ) ;
#520 = DIRECTION ( 'NONE',  ( 0.000000000000000000, 0.000000000000000000, 1.000000000000000000 ) ) ;
#521 = DIRECTION ( 'NONE',  ( -1.000000000000000000, 0.000000000000000000, -0.000000000000000000 ) ) ;
#522 = ORIENTED_EDGE ( 'NONE', *, *, #770, .T. ) ;
#523 = DIRECTION ( 'NONE',  ( 0.000000000000000000, 0.000000000000000000, -1.000000000000000000 ) ) ;
#524 = LINE ( 'NONE', #45, #4 ) ;
#525 = AXIS2_PLACEMENT_3D ( 'NONE', #97, #830, #562 ) ;
#526 = AXIS2_PLACEMENT_3D ( 'NONE', #111, #653, #700 ) ;
#527 = ORIENTED_EDGE ( 'NONE', *, *, #573, .T. ) ;
#528 = DIRECTION ( 'NONE',  ( 0.000000000000000000, 1.000000000000000000, 0.000000000000000000 ) ) ;
#529 = ORIENTED_EDGE ( 'NONE', *, *, #163, .T. ) ;
#530 = CARTESIAN_POINT ( 'NONE',  ( 29.70000000000000639, -25.00000000000000355, 1.000000000000000000 ) ) ;
#531 = EDGE_CURVE ( 'NONE', #309, #875, #607, .T. ) ;
#532 = ORIENTED_EDGE ( 'NONE', *, *, #851, .T. ) ;
#533 = CARTESIAN_POINT ( 'NONE',  ( 25.30000000000000782, -24.99999999999998579, 0.000000000000000000 ) ) ;
#534 = ORIENTED_EDGE ( 'NONE', *, *, #81, .F. ) ;
#535 = VERTEX_POINT ( 'NONE', #274 ) ;
#536 = CARTESIAN_POINT ( 'NONE',  ( 25.29999999999999716, 19.49999999999999645, -8.200000000000001066 ) ) ;
#537 = ORIENTED_EDGE ( 'NONE', *, *, #788, .T. ) ;
#538 = LINE ( 'NONE', #679, #539 ) ;
#539 = VECTOR ( 'NONE', #462, 1000.000000000000000 ) ;
#540 = ORIENTED_EDGE ( 'NONE', *, *, #583, .F. ) ;
#541 = ORIENTED_EDGE ( 'NONE', *, *, #86, .F. ) ;
#542 = LINE ( 'NONE', #805, #810 ) ;
#543 = VERTEX_POINT ( 'NONE', #866 ) ;
#544 = CARTESIAN_POINT ( 'NONE',  ( 25.29999999999999361, -19.50000000000000355, -10.20000000000000107 ) ) ;
#545 = ORIENTED_EDGE ( 'NONE', *, *, #214, .F. ) ;
#546 = CARTESIAN_POINT ( 'NONE',  ( 25.30000000000000782, 19.99999999999999645, -3.787139035180583146 ) ) ;
#547 = LINE ( 'NONE', #665, #755 ) ;
#548 = CARTESIAN_POINT ( 'NONE',  ( -25.30000000000000071, -25.00000000000000711, -10.20000000000000107 ) ) ;
#549 = EDGE_CURVE ( 'NONE', #127, #867, #787, .T. ) ;
#550 = EDGE_CURVE ( 'NONE', #127, #712, #547, .T. ) ;
#551 = PLANE ( 'NONE',  #498 ) ;
#552 = LINE ( 'NONE', #353, #412 ) ;
#553 = CARTESIAN_POINT ( 'NONE',  ( 0.000000000000000000, 0.000000000000000000, -8.200000000000001066 ) ) ;
#554 = DIRECTION ( 'NONE',  ( 1.000000000000000000, -1.371322905910519167E-16, 0.000000000000000000 ) ) ;
#555 = DIRECTION ( 'NONE',  ( 0.000000000000000000, 1.000000000000000000, 0.000000000000000000 ) ) ;
#556 = LINE ( 'NONE', #813, #630 ) ;
#557 = ORIENTED_EDGE ( 'NONE', *, *, #120, .F. ) ;
#558 = DIRECTION ( 'NONE',  ( 0.000000000000000000, 0.000000000000000000, 1.000000000000000000 ) ) ;
#559 = DIRECTION ( 'NONE',  ( 1.261617073437676865E-15, -1.000000000000000000, -0.000000000000000000 ) ) ;
#560 = EDGE_CURVE ( 'NONE', #694, #465, #268, .T. ) ;
#561 = VERTEX_POINT ( 'NONE', #405 ) ;
#562 = DIRECTION ( 'NONE',  ( -1.000000000000000000, 0.000000000000000000, -0.000000000000000000 ) ) ;
#563 = VECTOR ( 'NONE', #5, 1000.000000000000000 ) ;
#564 = CIRCLE ( 'NONE', #114, 2.249999999999999112 ) ;
#565 = CARTESIAN_POINT ( 'NONE',  ( 25.29999999999999716, 20.49999999999998934, -8.200000000000001066 ) ) ;
#566 = CARTESIAN_POINT ( 'NONE',  ( -25.29999999999999716, 24.99999999999999289, -10.20000000000000107 ) ) ;
#567 = CARTESIAN_POINT ( 'NONE',  ( 25.30000000000000782, -19.50000000000000355, -8.200000000000001066 ) ) ;
#568 = EDGE_CURVE ( 'NONE', #398, #769, #538, .T. ) ;
#569 = AXIS2_PLACEMENT_3D ( 'NONE', #451, #166, #366 ) ;
#570 = CYLINDRICAL_SURFACE ( 'NONE', #369, 2.249999999999999112 ) ;
#571 = VECTOR ( 'NONE', #777, 1000.000000000000000 ) ;
#572 = ORIENTED_EDGE ( 'NONE', *, *, #106, .T. ) ;
#573 = EDGE_CURVE ( 'NONE', #325, #729, #151, .T. ) ;
#574 = DIRECTION ( 'NONE',  ( 0.000000000000000000, -0.000000000000000000, -1.000000000000000000 ) ) ;
#575 = VECTOR ( 'NONE', #683, 1000.000000000000000 ) ;
#576 = LINE ( 'NONE', #705, #296 ) ;
#577 = FILL_AREA_STYLE ('',( #445 ) ) ;
#578 = VERTEX_POINT ( 'NONE', #744 ) ;
#579 = DIRECTION ( 'NONE',  ( 0.000000000000000000, 0.000000000000000000, 1.000000000000000000 ) ) ;
#580 = LINE ( 'NONE', #848, #789 ) ;
#581 = VERTEX_POINT ( 'NONE', #130 ) ;
#582 = CARTESIAN_POINT ( 'NONE',  ( 29.70000000000000639, 19.99999999999999645, -3.787139035180583146 ) ) ;
#583 = EDGE_CURVE ( 'NONE', #260, #806, #860, .T. ) ;
#584 = CARTESIAN_POINT ( 'NONE',  ( 25.30000000000000782, 19.99999999999999645, -3.787139035180583146 ) ) ;
#585 = DIRECTION ( 'NONE',  ( -0.000000000000000000, -0.000000000000000000, 1.000000000000000000 ) ) ;
#586 = EDGE_CURVE ( 'NONE', #578, #517, #59, .T. ) ;
#587 = CARTESIAN_POINT ( 'NONE',  ( 25.30000000000000782, 24.99999999999999289, -10.40000000000000036 ) ) ;
#588 = ORIENTED_EDGE ( 'NONE', *, *, #762, .T. ) ;
#589 = EDGE_CURVE ( 'NONE', #850, #131, #468, .T. ) ;
#590 = EDGE_LOOP ( 'NONE', ( #200, #861, #514, #859, #796, #541 ) ) ;
#591 = SURFACE_STYLE_FILL_AREA ( #577 ) ;
#592 = EDGE_LOOP ( 'NONE', ( #102, #639, #339, #170, #727, #12 ) ) ;
#593 = DIRECTION ( 'NONE',  ( 1.000000000000000000, -0.000000000000000000, -0.000000000000000000 ) ) ;
#594 = ORIENTED_EDGE ( 'NONE', *, *, #435, .F. ) ;
#595 = ORIENTED_EDGE ( 'NONE', *, *, #106, .F. ) ;
#596 = CARTESIAN_POINT ( 'NONE',  ( 29.70000000000000639, 19.99999999999999645, -6.037139035180581814 ) ) ;
#597 = ORIENTED_EDGE ( 'NONE', *, *, #478, .T. ) ;
#598 = CARTESIAN_POINT ( 'NONE',  ( -25.30000000000000071, 19.50000000000000355, -10.20000000000000107 ) ) ;
#599 = ORIENTED_EDGE ( 'NONE', *, *, #294, .F. ) ;
#600 = EDGE_LOOP ( 'NONE', ( #290, #52, #529, #403 ) ) ;
#601 = LINE ( 'NONE', #477, #228 ) ;
#602 = ORIENTED_EDGE ( 'NONE', *, *, #324, .F. ) ;
#603 = CARTESIAN_POINT ( 'NONE',  ( -25.29999999999999361, -24.99999999999998934, 1.000000000000000000 ) ) ;
#604 = AXIS2_PLACEMENT_3D ( 'NONE', #801, #482, #474 ) ;
#605 = ORIENTED_EDGE ( 'NONE', *, *, #762, .F. ) ;
#606 = DIRECTION ( 'NONE',  ( -0.000000000000000000, -0.000000000000000000, 1.000000000000000000 ) ) ;
#607 = LINE ( 'NONE', #396, #797 ) ;
#608 = AXIS2_PLACEMENT_3D ( 'NONE', #747, #291, #558 ) ;
#609 = DIRECTION ( 'NONE',  ( 1.000000000000000000, 0.000000000000000000, 0.000000000000000000 ) ) ;
#610 = EDGE_CURVE ( 'NONE', #699, #156, #392, .T. ) ;
#611 = ADVANCED_FACE ( 'NONE', ( #328 ), #195, .T. ) ;
#612 = DIRECTION ( 'NONE',  ( -0.000000000000000000, -0.000000000000000000, 1.000000000000000000 ) ) ;
#613 = PLANE ( 'NONE',  #783 ) ;
#614 = VECTOR ( 'NONE', #743, 1000.000000000000000 ) ;
#615 = CIRCLE ( 'NONE', #305, 2.249999999999999112 ) ;
#616 = CARTESIAN_POINT ( 'NONE',  ( -25.29999999999999716, -19.50000000000000000, 0.000000000000000000 ) ) ;
#617 = CARTESIAN_POINT ( 'NONE',  ( -25.29999999999999361, 25.00000000000000355, 1.000000000000000000 ) ) ;
#618 = CARTESIAN_POINT ( 'NONE',  ( 0.000000000000000000, 0.000000000000000000, -10.20000000000000107 ) ) ;
#619 = CARTESIAN_POINT ( 'NONE',  ( 29.70000000000000639, 24.99999999999999289, 1.000000000000000000 ) ) ;
#620 = ORIENTED_EDGE ( 'NONE', *, *, #721, .F. ) ;
#621 = CARTESIAN_POINT ( 'NONE',  ( 25.30000000000000782, 20.49999999999999289, -6.400000000000000355 ) ) ;
#622 = LINE ( 'NONE', #349, #563 ) ;
#623 = PRODUCT_DEFINITION_CONTEXT ( 'detailed design', #440, 'design' ) ;
#624 = ORIENTED_EDGE ( 'NONE', *, *, #770, .F. ) ;
#625 = FACE_OUTER_BOUND ( 'NONE', #192, .T. ) ;
#626 = ORIENTED_EDGE ( 'NONE', *, *, #831, .F. ) ;
#627 = SHAPE_DEFINITION_REPRESENTATION ( #16, #458 ) ;
#628 = CARTESIAN_POINT ( 'NONE',  ( 25.30000000000000782, -20.00000000000000355, -3.787139035180583146 ) ) ;
#629 = EDGE_CURVE ( 'NONE', #581, #656, #288, .T. ) ;
#630 = VECTOR ( 'NONE', #609, 1000.000000000000000 ) ;
#631 = VECTOR ( 'NONE', #516, 1000.000000000000000 ) ;
#632 = EDGE_CURVE ( 'NONE', #806, #325, #426, .T. ) ;
#633 = ORIENTED_EDGE ( 'NONE', *, *, #354, .F. ) ;
#634 = LINE ( 'NONE', #247, #387 ) ;
#635 = CLOSED_SHELL ( 'NONE', ( #40, #338, #257, #73, #835, #507, #389, #230, #300, #453, #519, #227, #698, #167, #873, #275, #644, #611, #6, #746, #500, #816, #137, #686, #18, #682 ) ) ;
#636 = DIRECTION ( 'NONE',  ( 1.000000000000000000, 0.000000000000000000, 0.000000000000000000 ) ) ;
#637 = AXIS2_PLACEMENT_3D ( 'NONE', #645, #182, #240 ) ;
#638 = DIRECTION ( 'NONE',  ( -0.000000000000000000, 0.000000000000000000, 1.000000000000000000 ) ) ;
#639 = ORIENTED_EDGE ( 'NONE', *, *, #283, .F. ) ;
#640 = VERTEX_POINT ( 'NONE', #219 ) ;
#641 = DIRECTION ( 'NONE',  ( -0.000000000000000000, -0.000000000000000000, 1.000000000000000000 ) ) ;
#642 = VECTOR ( 'NONE', #856, 1000.000000000000000 ) ;
#643 = FACE_OUTER_BOUND ( 'NONE', #202, .T. ) ;
#644 = ADVANCED_FACE ( 'NONE', ( #223 ), #753, .F. ) ;
#645 = CARTESIAN_POINT ( 'NONE',  ( -25.29999999999999361, -24.99999999999998934, 1.000000000000000000 ) ) ;
#646 = VERTEX_POINT ( 'NONE', #284 ) ;
#647 = FACE_OUTER_BOUND ( 'NONE', #187, .T. ) ;
#648 = CIRCLE ( 'NONE', #680, 2.249999999999999112 ) ;
#649 = CARTESIAN_POINT ( 'NONE',  ( 25.29999999999999716, 19.49999999999999645, -10.20000000000000107 ) ) ;
#650 = FACE_BOUND ( 'NONE', #667, .T. ) ;
#651 = DIRECTION ( 'NONE',  ( -1.000000000000000000, -0.000000000000000000, -0.000000000000000000 ) ) ;
#652 = EDGE_CURVE ( 'NONE', #264, #543, #10, .T. ) ;
#653 = DIRECTION ( 'NONE',  ( 0.000000000000000000, 0.000000000000000000, 1.000000000000000000 ) ) ;
#654 = AXIS2_PLACEMENT_3D ( 'NONE', #379, #847, #832 ) ;
#655 = LINE ( 'NONE', #95, #233 ) ;
#656 = VERTEX_POINT ( 'NONE', #616 ) ;
#657 = ORIENTED_EDGE ( 'NONE', *, *, #14, .T. ) ;
#658 = CARTESIAN_POINT ( 'NONE',  ( 25.30000000000000782, 19.50000000000000000, -5.980880132028612906 ) ) ;
#659 = ORIENTED_EDGE ( 'NONE', *, *, #158, .F. ) ;
#660 = CARTESIAN_POINT ( 'NONE',  ( -25.30000000000000071, -25.00000000000000711, -8.200000000000001066 ) ) ;
#661 = EDGE_CURVE ( 'NONE', #373, #421, #8, .T. ) ;
#662 = ORIENTED_EDGE ( 'NONE', *, *, #629, .F. ) ;
#663 = DIRECTION ( 'NONE',  ( -0.000000000000000000, -0.000000000000000000, -1.000000000000000000 ) ) ;
#664 = ORIENTED_EDGE ( 'NONE', *, *, #802, .F. ) ;
#665 = CARTESIAN_POINT ( 'NONE',  ( -25.30000000000000071, 19.50000000000000355, -10.20000000000000107 ) ) ;
#666 = ORIENTED_EDGE ( 'NONE', *, *, #589, .T. ) ;
#667 = EDGE_LOOP ( 'NONE', ( #391, #335 ) ) ;
#668 = CARTESIAN_POINT ( 'NONE',  ( 25.30000000000000782, -20.00000000000000355, -3.787139035180583146 ) ) ;
#669 = VERTEX_POINT ( 'NONE', #492 ) ;
#670 = CARTESIAN_POINT ( 'NONE',  ( 25.29999999999999716, -20.50000000000001066, -6.400000000000000355 ) ) ;
#671 = ORIENTED_EDGE ( 'NONE', *, *, #632, .T. ) ;
#672 = ORIENTED_EDGE ( 'NONE', *, *, #784, .F. ) ;
#673 = DIRECTION ( 'NONE',  ( 1.000000000000000000, -0.000000000000000000, -0.000000000000000000 ) ) ;
#674 = EDGE_CURVE ( 'NONE', #126, #561, #414, .T. ) ;
#675 = PLANE ( 'NONE',  #709 ) ;
#676 = CARTESIAN_POINT ( 'NONE',  ( 25.30000000000000426, -19.50000000000000000, -5.980880132028611129 ) ) ;
#677 = ORIENTED_EDGE ( 'NONE', *, *, #141, .T. ) ;
#678 = LINE ( 'NONE', #530, #281 ) ;
#679 = CARTESIAN_POINT ( 'NONE',  ( 25.30000000000000782, 19.99999999999999645, -1.537139035180584035 ) ) ;
#680 = AXIS2_PLACEMENT_3D ( 'NONE', #483, #216, #745 ) ;
#681 = CARTESIAN_POINT ( 'NONE',  ( 0.000000000000000000, 0.000000000000000000, -10.20000000000000107 ) ) ;
#682 = ADVANCED_FACE ( 'NONE', ( #758 ), #551, .T. ) ;
#683 = DIRECTION ( 'NONE',  ( 0.000000000000000000, 3.043374519257554550E-16, -1.000000000000000000 ) ) ;
#684 = PLANE ( 'NONE',  #455 ) ;
#685 = AXIS2_PLACEMENT_3D ( 'NONE', #870, #331, #208 ) ;
#686 = ADVANCED_FACE ( 'NONE', ( #83 ), #153, .F. ) ;
#687 = COLOUR_RGB ( '',0.7921568627450980005, 0.8196078431372548767, 0.9333333333333333481 ) ;
#688 = CARTESIAN_POINT ( 'NONE',  ( -25.29999999999999361, -24.99999999999998934, 0.000000000000000000 ) ) ;
#689 = DIRECTION ( 'NONE',  ( 1.000000000000000000, -1.371322905910519414E-16, -0.000000000000000000 ) ) ;
#690 = AXIS2_PLACEMENT_3D ( 'NONE', #497, #817, #352 ) ;
#691 = VERTEX_POINT ( 'NONE', #621 ) ;
#692 = CARTESIAN_POINT ( 'NONE',  ( 25.30000000000000782, -25.00000000000000355, 1.000000000000000000 ) ) ;
#693 = CARTESIAN_POINT ( 'NONE',  ( 25.30000000000000782, -20.00000000000000355, -1.537139035180584035 ) ) ;
#694 = VERTEX_POINT ( 'NONE', #488 ) ;
#695 = EDGE_CURVE ( 'NONE', #691, #347, #824, .T. ) ;
#696 = ORIENTED_EDGE ( 'NONE', *, *, #586, .F. ) ;
#697 = DIRECTION ( 'NONE',  ( 0.000000000000000000, -1.000000000000000000, 0.000000000000000000 ) ) ;
#698 = ADVANCED_FACE ( 'NONE', ( #485 ), #749, .F. ) ;
#699 = VERTEX_POINT ( 'NONE', #419 ) ;
#700 = DIRECTION ( 'NONE',  ( 1.000000000000000000, 0.000000000000000000, -0.000000000000000000 ) ) ;
#701 = CARTESIAN_POINT ( 'NONE',  ( 25.29999999999999716, -20.50000000000001066, -8.200000000000001066 ) ) ;
#702 = ORIENTED_EDGE ( 'NONE', *, *, #589, .F. ) ;
#703 = FACE_OUTER_BOUND ( 'NONE', #19, .T. ) ;
#704 = AXIS2_PLACEMENT_3D ( 'NONE', #444, #375, #448 ) ;
#705 = CARTESIAN_POINT ( 'NONE',  ( 29.70000000000000639, -25.00000000000000000, -10.40000000000000568 ) ) ;
#706 = PLANE ( 'NONE',  #637 ) ;
#707 = ORIENTED_EDGE ( 'NONE', *, *, #14, .F. ) ;
#708 = CARTESIAN_POINT ( 'NONE',  ( 0.000000000000000000, 0.000000000000000000, 1.000000000000000000 ) ) ;
#709 = AXIS2_PLACEMENT_3D ( 'NONE', #261, #343, #807 ) ;
#710 = DIRECTION ( 'NONE',  ( 1.000000000000000000, 0.000000000000000000, 0.000000000000000000 ) ) ;
#711 =( NAMED_UNIT ( * ) SI_UNIT ( $, .STERADIAN. ) SOLID_ANGLE_UNIT ( ) );
#712 = VERTEX_POINT ( 'NONE', #356 ) ;
#713 = LINE ( 'NONE', #436, #143 ) ;
#714 = EDGE_CURVE ( 'NONE', #691, #465, #64, .T. ) ;
#715 = VECTOR ( 'NONE', #559, 1000.000000000000000 ) ;
#716 = CARTESIAN_POINT ( 'NONE',  ( 25.30000000000000782, 19.49999999999998224, 0.000000000000000000 ) ) ;
#717 = LINE ( 'NONE', #321, #388 ) ;
#718 = ORIENTED_EDGE ( 'NONE', *, *, #367, .T. ) ;
#719 = AXIS2_PLACEMENT_3D ( 'NONE', #582, #447, #838 ) ;
#720 = DIRECTION ( 'NONE',  ( -0.000000000000000000, 1.000000000000000000, 1.387778780781445922E-16 ) ) ;
#721 = EDGE_CURVE ( 'NONE', #794, #867, #84, .T. ) ;
#722 =( GEOMETRIC_REPRESENTATION_CONTEXT ( 3 ) GLOBAL_UNCERTAINTY_ASSIGNED_CONTEXT ( ( #756 ) ) GLOBAL_UNIT_ASSIGNED_CONTEXT ( ( #186, #245, #711 ) ) REPRESENTATION_CONTEXT ( 'NONE', 'WORKASPACE' ) );
#723 = ORIENTED_EDGE ( 'NONE', *, *, #494, .F. ) ;
#724 = DIRECTION ( 'NONE',  ( 0.000000000000000000, 1.000000000000000000, 0.000000000000000000 ) ) ;
#725 = EDGE_CURVE ( 'NONE', #309, #293, #825, .T. ) ;
#726 = VECTOR ( 'NONE', #528, 1000.000000000000000 ) ;
#727 = ORIENTED_EDGE ( 'NONE', *, *, #761, .T. ) ;
#728 = CARTESIAN_POINT ( 'NONE',  ( 25.30000000000000782, 19.50000000000000000, -6.400000000000000355 ) ) ;
#729 = VERTEX_POINT ( 'NONE', #420 ) ;
#730 = DIRECTION ( 'NONE',  ( 1.000000000000000000, 0.000000000000000000, 0.000000000000000000 ) ) ;
#731 = ORIENTED_EDGE ( 'NONE', *, *, #206, .F. ) ;
#732 = ORIENTED_EDGE ( 'NONE', *, *, #177, .T. ) ;
#733 = DIRECTION ( 'NONE',  ( 0.000000000000000000, 0.000000000000000000, -1.000000000000000000 ) ) ;
#734 = ORIENTED_EDGE ( 'NONE', *, *, #71, .T. ) ;
#735 = DIRECTION ( 'NONE',  ( -0.000000000000000000, -0.000000000000000000, 1.000000000000000000 ) ) ;
#736 = EDGE_CURVE ( 'NONE', #857, #390, #210, .T. ) ;
#737 = ORIENTED_EDGE ( 'NONE', *, *, #531, .F. ) ;
#738 = EDGE_LOOP ( 'NONE', ( #425, #336, #241, #85 ) ) ;
#739 = DIRECTION ( 'NONE',  ( -0.000000000000000000, -1.000000000000000000, -0.000000000000000000 ) ) ;
#740 = DIRECTION ( 'NONE',  ( 0.000000000000000000, 0.000000000000000000, -1.000000000000000000 ) ) ;
#741 = CARTESIAN_POINT ( 'NONE',  ( 25.29999999999999716, 20.49999999999998934, -6.400000000000000355 ) ) ;
#742 = ORIENTED_EDGE ( 'NONE', *, *, #560, .F. ) ;
#743 = DIRECTION ( 'NONE',  ( 0.000000000000000000, -1.000000000000000000, 0.000000000000000000 ) ) ;
#744 = CARTESIAN_POINT ( 'NONE',  ( 25.30000000000000782, -20.00000000000000355, -6.037139035180581814 ) ) ;
#745 = DIRECTION ( 'NONE',  ( 0.000000000000000000, 0.000000000000000000, -1.000000000000000000 ) ) ;
#746 = ADVANCED_FACE ( 'NONE', ( #821 ), #684, .F. ) ;
#747 = CARTESIAN_POINT ( 'NONE',  ( 25.30000000000000426, -25.00000000000000000, -6.400000000000000355 ) ) ;
#748 = DIRECTION ( 'NONE',  ( 1.000000000000000000, 0.000000000000000000, 0.000000000000000000 ) ) ;
#749 = PLANE ( 'NONE',  #608 ) ;
#750 = DIRECTION ( 'NONE',  ( -1.000000000000000000, 1.371322905910519414E-16, 0.000000000000000000 ) ) ;
#751 = AXIS2_PLACEMENT_3D ( 'NONE', #565, #433, #90 ) ;
#752 = EDGE_LOOP ( 'NONE', ( #846, #456, #572, #129 ) ) ;
#753 = PLANE ( 'NONE',  #868 ) ;
#754 = CARTESIAN_POINT ( 'NONE',  ( 25.30000000000000782, -19.50000000000000355, 0.000000000000000000 ) ) ;
#755 = VECTOR ( 'NONE', #188, 1000.000000000000000 ) ;
#756 = UNCERTAINTY_MEASURE_WITH_UNIT (LENGTH_MEASURE( 1.000000000000000082E-05 ), #186, 'distance_accuracy_value', 'NONE');
#757 = VERTEX_POINT ( 'NONE', #9 ) ;
#758 = FACE_OUTER_BOUND ( 'NONE', #752, .T. ) ;
#759 = PRODUCT_CONTEXT ( 'NONE', #121, 'mechanical' ) ;
#760 = VECTOR ( 'NONE', #750, 1000.000000000000000 ) ;
#761 = EDGE_CURVE ( 'NONE', #429, #329, #285, .T. ) ;
#762 = EDGE_CURVE ( 'NONE', #729, #578, #648, .T. ) ;
#763 = AXIS2_PLACEMENT_3D ( 'NONE', #728, #204, #864 ) ;
#764 = VECTOR ( 'NONE', #781, 1000.000000000000000 ) ;
#765 = ORIENTED_EDGE ( 'NONE', *, *, #115, .F. ) ;
#766 =( LENGTH_UNIT ( ) NAMED_UNIT ( * ) SI_UNIT ( .MILLI., .METRE. ) );
#767 = CARTESIAN_POINT ( 'NONE',  ( -25.29999999999999361, 19.50000000000000000, -6.400000000000000355 ) ) ;
#768 = DIRECTION ( 'NONE',  ( 1.000000000000000000, 0.000000000000000000, -0.000000000000000000 ) ) ;
#769 = VERTEX_POINT ( 'NONE', #140 ) ;
#770 = EDGE_CURVE ( 'NONE', #390, #126, #292, .T. ) ;
#771 = LINE ( 'NONE', #304, #463 ) ;
#772 = CARTESIAN_POINT ( 'NONE',  ( 25.30000000000000782, -20.00000000000000355, -3.787139035180583146 ) ) ;
#773 = CARTESIAN_POINT ( 'NONE',  ( 29.70000000000000639, 0.000000000000000000, 0.000000000000000000 ) ) ;
#774 = ORIENTED_EDGE ( 'NONE', *, *, #661, .F. ) ;
#775 = FACE_OUTER_BOUND ( 'NONE', #17, .T. ) ;
#776 = CARTESIAN_POINT ( 'NONE',  ( -25.29999999999999361, 19.50000000000000000, 0.000000000000000000 ) ) ;
#777 = DIRECTION ( 'NONE',  ( 1.000000000000000000, -1.371322905910519414E-16, -0.000000000000000000 ) ) ;
#778 = ORIENTED_EDGE ( 'NONE', *, *, #484, .T. ) ;
#779 = DIRECTION ( 'NONE',  ( -1.000000000000000000, 0.000000000000000000, -0.000000000000000000 ) ) ;
#780 = CARTESIAN_POINT ( 'NONE',  ( 29.70000000000000639, 24.99999999999999289, -10.40000000000000036 ) ) ;
#781 = DIRECTION ( 'NONE',  ( -0.000000000000000000, -0.000000000000000000, 1.000000000000000000 ) ) ;
#782 = VERTEX_POINT ( 'NONE', #287 ) ;
#783 = AXIS2_PLACEMENT_3D ( 'NONE', #15, #493, #406 ) ;
#784 = EDGE_CURVE ( 'NONE', #126, #757, #357, .T. ) ;
#785 = SURFACE_SIDE_STYLE ('',( #591 ) ) ;
#786 = ORIENTED_EDGE ( 'NONE', *, *, #549, .F. ) ;
#787 = LINE ( 'NONE', #598, #495 ) ;
#788 = EDGE_CURVE ( 'NONE', #136, #229, #552, .T. ) ;
#789 = VECTOR ( 'NONE', #172, 1000.000000000000000 ) ;
#790 = AXIS2_PLACEMENT_3D ( 'NONE', #628, #26, #22 ) ;
#791 = ORIENTED_EDGE ( 'NONE', *, *, #788, .F. ) ;
#792 = DIRECTION ( 'NONE',  ( 0.000000000000000000, 3.043374519257554550E-16, -1.000000000000000000 ) ) ;
#793 = STYLED_ITEM ( 'NONE', ( #841 ), #438 ) ;
#794 = VERTEX_POINT ( 'NONE', #818 ) ;
#795 = LINE ( 'NONE', #119, #32 ) ;
#796 = ORIENTED_EDGE ( 'NONE', *, *, #177, .F. ) ;
#797 = VECTOR ( 'NONE', #333, 1000.000000000000000 ) ;
#798 = VERTEX_POINT ( 'NONE', #619 ) ;
#799 = DIRECTION ( 'NONE',  ( 0.000000000000000000, 0.000000000000000000, -1.000000000000000000 ) ) ;
#800 = ORIENTED_EDGE ( 'NONE', *, *, #652, .T. ) ;
#801 = CARTESIAN_POINT ( 'NONE',  ( 25.30000000000000782, -20.00000000000000355, -3.787139035180583146 ) ) ;
#802 = EDGE_CURVE ( 'NONE', #517, #646, #874, .T. ) ;
#803 = ORIENTED_EDGE ( 'NONE', *, *, #283, .T. ) ;
#804 = ORIENTED_EDGE ( 'NONE', *, *, #158, .T. ) ;
#805 = CARTESIAN_POINT ( 'NONE',  ( -25.29999999999999361, 19.00000000000001421, 1.000000000000000000 ) ) ;
#806 = VERTEX_POINT ( 'NONE', #676 ) ;
#807 = DIRECTION ( 'NONE',  ( 1.000000000000000000, -1.371322905910519414E-16, 0.000000000000000000 ) ) ;
#808 = ORIENTED_EDGE ( 'NONE', *, *, #81, .T. ) ;
#809 = PLANE ( 'NONE',  #685 ) ;
#810 = VECTOR ( 'NONE', #739, 1000.000000000000000 ) ;
#811 = EDGE_CURVE ( 'NONE', #421, #260, #556, .T. ) ;
#812 = LINE ( 'NONE', #544, #839 ) ;
#813 = CARTESIAN_POINT ( 'NONE',  ( -25.29999999999999716, -19.50000000000000000, -6.400000000000000355 ) ) ;
#814 = DIRECTION ( 'NONE',  ( -1.000000000000000000, 0.000000000000000000, -0.000000000000000000 ) ) ;
#815 = DIRECTION ( 'NONE',  ( -0.000000000000000000, -0.000000000000000000, -1.000000000000000000 ) ) ;
#816 = ADVANCED_FACE ( 'NONE', ( #1 ), #360, .F. ) ;
#817 = DIRECTION ( 'NONE',  ( 0.000000000000000000, 0.000000000000000000, -1.000000000000000000 ) ) ;
#818 = CARTESIAN_POINT ( 'NONE',  ( -25.29999999999999361, 25.00000000000000355, 1.000000000000000000 ) ) ;
#819 = DIRECTION ( 'NONE',  ( -0.000000000000000000, -1.000000000000000000, -0.000000000000000000 ) ) ;
#820 = AXIS2_PLACEMENT_3D ( 'NONE', #88, #434, #510 ) ;
#821 = FACE_OUTER_BOUND ( 'NONE', #207, .T. ) ;
#822 = VECTOR ( 'NONE', #636, 1000.000000000000000 ) ;
#823 = EDGE_LOOP ( 'NONE', ( #595, #620, #164, #66, #470, #804 ) ) ;
#824 = LINE ( 'NONE', #212, #276 ) ;
#825 = LINE ( 'NONE', #150, #295 ) ;
#826 = EDGE_CURVE ( 'NONE', #535, #293, #622, .T. ) ;
#827 = ORIENTED_EDGE ( 'NONE', *, *, #354, .T. ) ;
#828 = VECTOR ( 'NONE', #815, 1000.000000000000000 ) ;
#829 = ORIENTED_EDGE ( 'NONE', *, *, #243, .T. ) ;
#830 = DIRECTION ( 'NONE',  ( 0.000000000000000000, 0.000000000000000000, -1.000000000000000000 ) ) ;
#831 = EDGE_CURVE ( 'NONE', #395, #535, #220, .T. ) ;
#832 = DIRECTION ( 'NONE',  ( 0.000000000000000000, 0.000000000000000000, -1.000000000000000000 ) ) ;
#833 = AXIS2_PLACEMENT_3D ( 'NONE', #708, #579, #242 ) ;
#834 = CIRCLE ( 'NONE', #149, 2.249999999999999112 ) ;
#835 = ADVANCED_FACE ( 'NONE', ( #146 ), #613, .F. ) ;
#836 = DIRECTION ( 'NONE',  ( 1.000000000000000000, -0.000000000000000000, -0.000000000000000000 ) ) ;
#837 = ORIENTED_EDGE ( 'NONE', *, *, #629, .T. ) ;
#838 = DIRECTION ( 'NONE',  ( 0.000000000000000000, 0.000000000000000000, -1.000000000000000000 ) ) ;
#839 = VECTOR ( 'NONE', #139, 1000.000000000000000 ) ;
#840 = DIRECTION ( 'NONE',  ( -1.000000000000000000, -0.000000000000000000, -0.000000000000000000 ) ) ;
#841 = PRESENTATION_STYLE_ASSIGNMENT (( #250 ) ) ;
#842 = ORIENTED_EDGE ( 'NONE', *, *, #294, .T. ) ;
#843 = CARTESIAN_POINT ( 'NONE',  ( 25.30000000000000426, -19.50000000000000000, -6.400000000000000355 ) ) ;
#844 = FACE_OUTER_BOUND ( 'NONE', #265, .T. ) ;
#845 = LINE ( 'NONE', #384, #571 ) ;
#846 = ORIENTED_EDGE ( 'NONE', *, *, #115, .T. ) ;
#847 = DIRECTION ( 'NONE',  ( 1.000000000000000000, 0.000000000000000000, 0.000000000000000000 ) ) ;
#848 = CARTESIAN_POINT ( 'NONE',  ( -25.30000000000000071, 19.50000000000000355, -8.200000000000001066 ) ) ;
#849 = DIRECTION ( 'NONE',  ( -1.000000000000000000, 1.371322905910519660E-16, 0.000000000000000000 ) ) ;
#850 = VERTEX_POINT ( 'NONE', #754 ) ;
#851 = EDGE_CURVE ( 'NONE', #729, #646, #423, .T. ) ;
#852 = CARTESIAN_POINT ( 'NONE',  ( 25.29999999999999716, -20.50000000000001066, -8.200000000000001066 ) ) ;
#853 = EDGE_CURVE ( 'NONE', #260, #203, #20, .T. ) ;
#854 = LINE ( 'NONE', #53, #351 ) ;
#855 = EDGE_LOOP ( 'NONE', ( #50, #732, #267, #718 ) ) ;
#856 = DIRECTION ( 'NONE',  ( 1.000000000000000000, -0.000000000000000000, -0.000000000000000000 ) ) ;
#857 = VERTEX_POINT ( 'NONE', #499 ) ;
#858 = DIRECTION ( 'NONE',  ( -1.000000000000000000, -0.000000000000000000, -0.000000000000000000 ) ) ;
#859 = ORIENTED_EDGE ( 'NONE', *, *, #243, .F. ) ;
#860 = LINE ( 'NONE', #401, #235 ) ;
#861 = ORIENTED_EDGE ( 'NONE', *, *, #568, .T. ) ;
#862 = CIRCLE ( 'NONE', #490, 2.249999999999999112 ) ;
#863 = EDGE_LOOP ( 'NONE', ( #152, #786, #441, #808, #124, #742, #803, #837, #197, #774, #393, #327, #258, #254, #599, #602 ) ) ;
#864 = DIRECTION ( 'NONE',  ( 0.000000000000000000, 0.000000000000000000, 1.000000000000000000 ) ) ;
#865 = EDGE_LOOP ( 'NONE', ( #183, #594, #737, #236 ) ) ;
#866 = CARTESIAN_POINT ( 'NONE',  ( 25.29999999999999361, -20.50000000000000711, -8.200000000000001066 ) ) ;
#867 = VERTEX_POINT ( 'NONE', #566 ) ;
#868 = AXIS2_PLACEMENT_3D ( 'NONE', #148, #286, #3 ) ;
#869 = ORIENTED_EDGE ( 'NONE', *, *, #802, .T. ) ;
#870 = CARTESIAN_POINT ( 'NONE',  ( 29.70000000000000639, 24.99999999999999289, -10.40000000000000036 ) ) ;
#871 = ORIENTED_EDGE ( 'NONE', *, *, #417, .T. ) ;
#872 = FACE_OUTER_BOUND ( 'NONE', #475, .T. ) ;
#873 = ADVANCED_FACE ( 'NONE', ( #625 ), #165, .T. ) ;
#874 = CIRCLE ( 'NONE', #65, 2.249999999999999112 ) ;
#875 = VERTEX_POINT ( 'NONE', #430 ) ;
#876 = DIRECTION ( 'NONE',  ( 0.000000000000000000, 0.000000000000000000, -1.000000000000000000 ) ) ;
#877 = DIRECTION ( 'NONE',  ( -0.000000000000000000, -0.000000000000000000, 1.000000000000000000 ) ) ;
ENDSEC;
END-ISO-10303-21;
