ISO-10303-21;
HEADER;
FILE_DESCRIPTION (( 'STEP AP214' ),
    '1' );
FILE_NAME ('rail (2 times).STEP',
    '2026-03-24T22:48:25',
    ( '' ),
    ( '' ),
    'SwSTEP 2.0',
    'SolidWorks 2026',
    '' );
FILE_SCHEMA (( 'AUTOMOTIVE_DESIGN' ));
ENDSEC;

DATA;
#1 = EDGE_CURVE ( 'NONE', #181, #197, #9, .T. ) ;
#2 = VECTOR ( 'NONE', #41, 1000.000000000000000 ) ;
#3 = DIRECTION ( 'NONE',  ( 0.000000000000000000, 0.000000000000000000, 1.000000000000000000 ) ) ;
#4 = AXIS2_PLACEMENT_3D ( 'NONE', #316, #399, #5 ) ;
#5 = DIRECTION ( 'NONE',  ( 1.000000000000000000, 0.000000000000000000, 0.000000000000000000 ) ) ;
#6 = CARTESIAN_POINT ( 'NONE',  ( -7.749999999999998224, -4.336808689942017736E-16, 9.000000000000000000 ) ) ;
#7 = VERTEX_POINT ( 'NONE', #284 ) ;
#8 = UNCERTAINTY_MEASURE_WITH_UNIT (LENGTH_MEASURE( 1.000000000000000082E-05 ), #90, 'distance_accuracy_value', 'NONE');
#9 = LINE ( 'NONE', #6, #223 ) ;
#10 = EDGE_CURVE ( 'NONE', #57, #347, #66, .T. ) ;
#11 = CARTESIAN_POINT ( 'NONE',  ( 18.00000000000000355, -2.999999999999997335, 9.000000000000000000 ) ) ;
#12 =( GEOMETRIC_REPRESENTATION_CONTEXT ( 3 ) GLOBAL_UNCERTAINTY_ASSIGNED_CONTEXT ( ( #8 ) ) GLOBAL_UNIT_ASSIGNED_CONTEXT ( ( #90, #391, #56 ) ) REPRESENTATION_CONTEXT ( 'NONE', 'WORKASPACE' ) );
#13 = DIRECTION ( 'NONE',  ( -0.000000000000000000, -1.000000000000000000, -0.000000000000000000 ) ) ;
#14 = CARTESIAN_POINT ( 'NONE',  ( 9.500000000000001776, -2.999999999999997335, 6.499999999999999112 ) ) ;
#15 = LINE ( 'NONE', #239, #311 ) ;
#16 = AXIS2_PLACEMENT_3D ( 'NONE', #260, #386, #176 ) ;
#17 = CIRCLE ( 'NONE', #4, 1.250000000000000222 ) ;
#18 = FACE_OUTER_BOUND ( 'NONE', #28, .T. ) ;
#19 = PLANE ( 'NONE',  #140 ) ;
#20 = EDGE_CURVE ( 'NONE', #389, #160, #349, .T. ) ;
#21 = CYLINDRICAL_SURFACE ( 'NONE', #199, 1.250000000000000222 ) ;
#22 = VERTEX_POINT ( 'NONE', #318 ) ;
#23 = AXIS2_PLACEMENT_3D ( 'NONE', #339, #251, #102 ) ;
#24 = EDGE_LOOP ( 'NONE', ( #267, #158, #138, #169, #368, #104 ) ) ;
#25 = LINE ( 'NONE', #155, #335 ) ;
#26 = EDGE_LOOP ( 'NONE', ( #94, #117 ) ) ;
#27 = DIRECTION ( 'NONE',  ( -0.000000000000000000, -0.000000000000000000, -1.000000000000000000 ) ) ;
#28 = EDGE_LOOP ( 'NONE', ( #362, #312, #258, #290, #338, #220 ) ) ;
#29 = AXIS2_PLACEMENT_3D ( 'NONE', #228, #3, #286 ) ;
#30 = MECHANICAL_DESIGN_GEOMETRIC_PRESENTATION_REPRESENTATION (  '', ( #292 ), #12 ) ;
#31 = ORIENTED_EDGE ( 'NONE', *, *, #161, .F. ) ;
#32 =( NAMED_UNIT ( * ) PLANE_ANGLE_UNIT ( ) SI_UNIT ( $, .RADIAN. ) );
#33 = LINE ( 'NONE', #253, #208 ) ;
#34 = EDGE_CURVE ( 'NONE', #96, #329, #36, .T. ) ;
#35 = CARTESIAN_POINT ( 'NONE',  ( 9.500000000000001776, 3.000000000000002665, 0.000000000000000000 ) ) ;
#36 = LINE ( 'NONE', #38, #381 ) ;
#37 = CLOSED_SHELL ( 'NONE', ( #120, #320, #346, #361, #225, #206, #218, #248, #298, #231, #382, #350 ) ) ;
#38 = CARTESIAN_POINT ( 'NONE',  ( -9.499999999999998224, -3.000000000000000000, 0.000000000000000000 ) ) ;
#39 = AXIS2_PLACEMENT_3D ( 'NONE', #54, #394, #334 ) ;
#40 = ADVANCED_BREP_SHAPE_REPRESENTATION ( 'rail (2 times)', ( #377, #23 ), #367 ) ;
#41 = DIRECTION ( 'NONE',  ( -0.000000000000000000, -0.000000000000000000, -1.000000000000000000 ) ) ;
#42 = LINE ( 'NONE', #207, #190 ) ;
#43 = FACE_OUTER_BOUND ( 'NONE', #24, .T. ) ;
#44 = FACE_OUTER_BOUND ( 'NONE', #213, .T. ) ;
#45 = EDGE_CURVE ( 'NONE', #7, #389, #132, .T. ) ;
#46 = CARTESIAN_POINT ( 'NONE',  ( -9.499999999999998224, 3.000000000000000000, 9.000000000000000000 ) ) ;
#47 = UNCERTAINTY_MEASURE_WITH_UNIT (LENGTH_MEASURE( 1.000000000000000082E-05 ), #62, 'distance_accuracy_value', 'NONE');
#48 = DIRECTION ( 'NONE',  ( 1.000000000000000000, 1.369518533665900312E-16, 0.000000000000000000 ) ) ;
#49 = VECTOR ( 'NONE', #122, 1000.000000000000000 ) ;
#50 = DIRECTION ( 'NONE',  ( 0.000000000000000000, 0.000000000000000000, 1.000000000000000000 ) ) ;
#51 = EDGE_CURVE ( 'NONE', #347, #244, #178, .T. ) ;
#52 = EDGE_LOOP ( 'NONE', ( #188, #194, #136, #200 ) ) ;
#53 = PRODUCT_DEFINITION_CONTEXT ( 'detailed design', #152, 'design' ) ;
#54 = CARTESIAN_POINT ( 'NONE',  ( 18.00000000000000355, 0.000000000000000000, 0.000000000000000000 ) ) ;
#55 = ORIENTED_EDGE ( 'NONE', *, *, #142, .F. ) ;
#56 =( NAMED_UNIT ( * ) SI_UNIT ( $, .STERADIAN. ) SOLID_ANGLE_UNIT ( ) );
#57 = VERTEX_POINT ( 'NONE', #71 ) ;
#58 = FACE_OUTER_BOUND ( 'NONE', #134, .T. ) ;
#59 = ORIENTED_EDGE ( 'NONE', *, *, #333, .F. ) ;
#60 = DIRECTION ( 'NONE',  ( 0.000000000000000000, 0.000000000000000000, 1.000000000000000000 ) ) ;
#61 = EDGE_LOOP ( 'NONE', ( #59, #341, #332, #170 ) ) ;
#62 =( LENGTH_UNIT ( ) NAMED_UNIT ( * ) SI_UNIT ( .MILLI., .METRE. ) );
#63 = ORIENTED_EDGE ( 'NONE', *, *, #97, .T. ) ;
#64 = AXIS2_PLACEMENT_3D ( 'NONE', #65, #137, #254 ) ;
#65 = CARTESIAN_POINT ( 'NONE',  ( -6.499999999999998224, -4.336808689942017736E-16, 0.000000000000000000 ) ) ;
#66 = LINE ( 'NONE', #224, #296 ) ;
#67 = DIRECTION ( 'NONE',  ( 1.000000000000000000, 1.369518533665900312E-16, 0.000000000000000000 ) ) ;
#68 = ORIENTED_EDGE ( 'NONE', *, *, #1, .F. ) ;
#69 = EDGE_CURVE ( 'NONE', #359, #197, #372, .T. ) ;
#70 = CARTESIAN_POINT ( 'NONE',  ( -9.499999999999998224, 3.000000000000000000, 9.000000000000000000 ) ) ;
#71 = CARTESIAN_POINT ( 'NONE',  ( 5.250000000000000888, -4.336808689942017736E-16, 9.000000000000000000 ) ) ;
#72 = AXIS2_PLACEMENT_3D ( 'NONE', #214, #50, #245 ) ;
#73 = CARTESIAN_POINT ( 'NONE',  ( 6.500000000000001776, -4.336808689942017736E-16, 0.000000000000000000 ) ) ;
#74 = DIRECTION ( 'NONE',  ( 1.000000000000000000, 0.000000000000000000, 0.000000000000000000 ) ) ;
#75 = CARTESIAN_POINT ( 'NONE',  ( -7.749999999999998224, -4.336808689942017736E-16, 9.000000000000000000 ) ) ;
#76 = AXIS2_PLACEMENT_3D ( 'NONE', #322, #163, #127 ) ;
#77 = VECTOR ( 'NONE', #314, 1000.000000000000000 ) ;
#78 = EDGE_CURVE ( 'NONE', #160, #96, #375, .T. ) ;
#79 = CARTESIAN_POINT ( 'NONE',  ( 0.000000000000000000, 0.000000000000000000, 0.000000000000000000 ) ) ;
#80 = CARTESIAN_POINT ( 'NONE',  ( -9.499999999999998224, -3.000000000000000000, 9.000000000000000000 ) ) ;
#81 = ORIENTED_EDGE ( 'NONE', *, *, #20, .T. ) ;
#82 = EDGE_CURVE ( 'NONE', #329, #395, #103, .T. ) ;
#83 = CARTESIAN_POINT ( 'NONE',  ( 18.00000000000000355, -2.999999999999997335, 9.000000000000000000 ) ) ;
#84 = CIRCLE ( 'NONE', #167, 1.250000000000000222 ) ;
#85 = PRESENTATION_STYLE_ASSIGNMENT (( #358 ) ) ;
#86 = ORIENTED_EDGE ( 'NONE', *, *, #396, .T. ) ;
#87 = APPLICATION_CONTEXT ( 'automotive_design' ) ;
#88 = DIRECTION ( 'NONE',  ( 0.000000000000000000, 1.000000000000000000, 0.000000000000000000 ) ) ;
#89 = ORIENTED_EDGE ( 'NONE', *, *, #97, .F. ) ;
#90 =( LENGTH_UNIT ( ) NAMED_UNIT ( * ) SI_UNIT ( .MILLI., .METRE. ) );
#91 = VERTEX_POINT ( 'NONE', #287 ) ;
#92 = COLOUR_RGB ( '',0.7921568627450980005, 0.8196078431372548767, 0.9333333333333333481 ) ;
#93 = CARTESIAN_POINT ( 'NONE',  ( 9.500000000000001776, -2.999999999999997335, 9.000000000000000000 ) ) ;
#94 = ORIENTED_EDGE ( 'NONE', *, *, #340, .F. ) ;
#95 = SURFACE_STYLE_FILL_AREA ( #388 ) ;
#96 = VERTEX_POINT ( 'NONE', #401 ) ;
#97 = EDGE_CURVE ( 'NONE', #22, #359, #129, .T. ) ;
#98 = CYLINDRICAL_SURFACE ( 'NONE', #278, 1.250000000000000222 ) ;
#99 = CIRCLE ( 'NONE', #153, 1.250000000000000222 ) ;
#100 = PRODUCT_CONTEXT ( 'NONE', #87, 'mechanical' ) ;
#101 = DIRECTION ( 'NONE',  ( -0.000000000000000000, -0.000000000000000000, -1.000000000000000000 ) ) ;
#102 = DIRECTION ( 'NONE',  ( 1.000000000000000000, 0.000000000000000000, 0.000000000000000000 ) ) ;
#103 = LINE ( 'NONE', #226, #270 ) ;
#104 = ORIENTED_EDGE ( 'NONE', *, *, #313, .T. ) ;
#105 = ORIENTED_EDGE ( 'NONE', *, *, #390, .T. ) ;
#106 = EDGE_CURVE ( 'NONE', #164, #242, #289, .T. ) ;
#107 = CARTESIAN_POINT ( 'NONE',  ( 18.00000000000000355, -2.999999999999996891, 6.499999999999999112 ) ) ;
#108 = CYLINDRICAL_SURFACE ( 'NONE', #230, 1.250000000000000222 ) ;
#109 = EDGE_CURVE ( 'NONE', #244, #347, #357, .T. ) ;
#110 = CARTESIAN_POINT ( 'NONE',  ( -9.499999999999998224, -3.000000000000000000, 9.000000000000000000 ) ) ;
#111 = CARTESIAN_POINT ( 'NONE',  ( -9.499999999999998224, -3.000000000000000000, 9.000000000000000000 ) ) ;
#112 = DIRECTION ( 'NONE',  ( 0.000000000000000000, 1.000000000000000000, 0.000000000000000000 ) ) ;
#113 = ORIENTED_EDGE ( 'NONE', *, *, #51, .F. ) ;
#114 = EDGE_CURVE ( 'NONE', #22, #181, #229, .T. ) ;
#115 = DIRECTION ( 'NONE',  ( -1.000000000000000000, -1.369518533665900312E-16, 0.000000000000000000 ) ) ;
#116 = SURFACE_SIDE_STYLE ('',( #95 ) ) ;
#117 = ORIENTED_EDGE ( 'NONE', *, *, #306, .F. ) ;
#118 = VERTEX_POINT ( 'NONE', #252 ) ;
#119 = LINE ( 'NONE', #249, #210 ) ;
#120 = ADVANCED_FACE ( 'NONE', ( #371 ), #98, .F. ) ;
#121 = ORIENTED_EDGE ( 'NONE', *, *, #283, .T. ) ;
#122 = DIRECTION ( 'NONE',  ( -0.000000000000000000, -0.000000000000000000, -1.000000000000000000 ) ) ;
#123 = EDGE_LOOP ( 'NONE', ( #302, #243 ) ) ;
#124 = AXIS2_PLACEMENT_3D ( 'NONE', #73, #201, #400 ) ;
#125 = DIRECTION ( 'NONE',  ( -1.000000000000000000, 0.000000000000000000, 0.000000000000000000 ) ) ;
#126 = ORIENTED_EDGE ( 'NONE', *, *, #324, .F. ) ;
#127 = DIRECTION ( 'NONE',  ( 1.000000000000000000, 0.000000000000000000, 0.000000000000000000 ) ) ;
#128 = PRODUCT_DEFINITION_SHAPE ( 'NONE', 'NONE',  #262 ) ;
#129 = LINE ( 'NONE', #342, #2 ) ;
#130 = AXIS2_PLACEMENT_3D ( 'NONE', #162, #281, #193 ) ;
#131 = APPLICATION_PROTOCOL_DEFINITION ( 'draft international standard', 'automotive_design', 1998, #152 ) ;
#132 = LINE ( 'NONE', #166, #264 ) ;
#133 = SHAPE_DEFINITION_REPRESENTATION ( #128, #40 ) ;
#134 = EDGE_LOOP ( 'NONE', ( #272, #183, #55, #148 ) ) ;
#135 = EDGE_CURVE ( 'NONE', #317, #96, #33, .T. ) ;
#136 = ORIENTED_EDGE ( 'NONE', *, *, #20, .F. ) ;
#137 = DIRECTION ( 'NONE',  ( 0.000000000000000000, 0.000000000000000000, 1.000000000000000000 ) ) ;
#138 = ORIENTED_EDGE ( 'NONE', *, *, #45, .F. ) ;
#139 = VECTOR ( 'NONE', #380, 1000.000000000000000 ) ;
#140 = AXIS2_PLACEMENT_3D ( 'NONE', #219, #60, #268 ) ;
#141 = PLANE ( 'NONE',  #247 ) ;
#142 = EDGE_CURVE ( 'NONE', #164, #118, #42, .T. ) ;
#143 = LINE ( 'NONE', #147, #353 ) ;
#144 = CARTESIAN_POINT ( 'NONE',  ( 7.750000000000001776, -2.806000191007825919E-16, 0.000000000000000000 ) ) ;
#145 = FACE_BOUND ( 'NONE', #123, .T. ) ;
#146 = EDGE_CURVE ( 'NONE', #389, #317, #205, .T. ) ;
#147 = CARTESIAN_POINT ( 'NONE',  ( -9.499999999999998224, 3.000000000000000000, 0.000000000000000000 ) ) ;
#148 = ORIENTED_EDGE ( 'NONE', *, *, #106, .T. ) ;
#149 = DIRECTION ( 'NONE',  ( -0.000000000000000000, -0.000000000000000000, -1.000000000000000000 ) ) ;
#150 = CARTESIAN_POINT ( 'NONE',  ( -5.249999999999997335, -2.806000191007825919E-16, 0.000000000000000000 ) ) ;
#151 = ORIENTED_EDGE ( 'NONE', *, *, #51, .T. ) ;
#152 = APPLICATION_CONTEXT ( 'automotive_design' ) ;
#153 = AXIS2_PLACEMENT_3D ( 'NONE', #175, #304, #241 ) ;
#154 = EDGE_CURVE ( 'NONE', #197, #359, #84, .T. ) ;
#155 = CARTESIAN_POINT ( 'NONE',  ( 9.500000000000001776, -2.999999999999996891, 6.499999999999999112 ) ) ;
#156 = ORIENTED_EDGE ( 'NONE', *, *, #135, .F. ) ;
#157 = DIRECTION ( 'NONE',  ( 0.000000000000000000, 0.000000000000000000, 1.000000000000000000 ) ) ;
#158 = ORIENTED_EDGE ( 'NONE', *, *, #146, .F. ) ;
#159 = LINE ( 'NONE', #185, #280 ) ;
#160 = VERTEX_POINT ( 'NONE', #110 ) ;
#161 = EDGE_CURVE ( 'NONE', #395, #317, #143, .T. ) ;
#162 = CARTESIAN_POINT ( 'NONE',  ( 18.00000000000000355, -2.999999999999996891, 6.499999999999999112 ) ) ;
#163 = DIRECTION ( 'NONE',  ( 0.000000000000000000, 0.000000000000000000, 1.000000000000000000 ) ) ;
#164 = VERTEX_POINT ( 'NONE', #265 ) ;
#165 = CARTESIAN_POINT ( 'NONE',  ( 9.500000000000001776, 3.000000000000002665, 6.499999999999999112 ) ) ;
#166 = CARTESIAN_POINT ( 'NONE',  ( -9.499999999999998224, 3.000000000000000000, 9.000000000000000000 ) ) ;
#167 = AXIS2_PLACEMENT_3D ( 'NONE', #327, #385, #384 ) ;
#168 = DIRECTION ( 'NONE',  ( 0.000000000000000000, 1.000000000000000000, 0.000000000000000000 ) ) ;
#169 = ORIENTED_EDGE ( 'NONE', *, *, #396, .F. ) ;
#170 = ORIENTED_EDGE ( 'NONE', *, *, #313, .F. ) ;
#171 = EDGE_LOOP ( 'NONE', ( #305, #81, #274, #308 ) ) ;
#172 = FACE_OUTER_BOUND ( 'NONE', #52, .T. ) ;
#173 = EDGE_CURVE ( 'NONE', #7, #91, #352, .T. ) ;
#174 = VECTOR ( 'NONE', #209, 1000.000000000000000 ) ;
#175 = CARTESIAN_POINT ( 'NONE',  ( 6.500000000000001776, -4.336808689942017736E-16, 9.000000000000000000 ) ) ;
#176 = DIRECTION ( 'NONE',  ( -1.000000000000000000, 0.000000000000000000, 0.000000000000000000 ) ) ;
#177 = DIRECTION ( 'NONE',  ( 0.000000000000000000, 0.000000000000000000, -1.000000000000000000 ) ) ;
#178 = CIRCLE ( 'NONE', #29, 1.250000000000000222 ) ;
#179 = PLANE ( 'NONE',  #235 ) ;
#180 = PLANE ( 'NONE',  #343 ) ;
#181 = VERTEX_POINT ( 'NONE', #75 ) ;
#182 = CARTESIAN_POINT ( 'NONE',  ( -9.499999999999998224, 3.000000000000000000, 0.000000000000000000 ) ) ;
#183 = ORIENTED_EDGE ( 'NONE', *, *, #212, .F. ) ;
#184 = VECTOR ( 'NONE', #293, 1000.000000000000000 ) ;
#185 = CARTESIAN_POINT ( 'NONE',  ( 9.500000000000001776, -2.999999999999997335, 9.000000000000000000 ) ) ;
#186 = ORIENTED_EDGE ( 'NONE', *, *, #114, .F. ) ;
#187 = CARTESIAN_POINT ( 'NONE',  ( 5.250000000000000888, -4.336808689942017736E-16, 0.000000000000000000 ) ) ;
#188 = ORIENTED_EDGE ( 'NONE', *, *, #135, .T. ) ;
#189 = EDGE_LOOP ( 'NONE', ( #31, #255, #279, #156 ) ) ;
#190 = VECTOR ( 'NONE', #112, 1000.000000000000000 ) ;
#191 = PRODUCT_DEFINITION_FORMATION_WITH_SPECIFIED_SOURCE ( 'ANY', '', #211, .NOT_KNOWN. ) ;
#192 = DIRECTION ( 'NONE',  ( -0.000000000000000000, -0.000000000000000000, -1.000000000000000000 ) ) ;
#193 = DIRECTION ( 'NONE',  ( 1.000000000000000000, 0.000000000000000000, -0.000000000000000000 ) ) ;
#194 = ORIENTED_EDGE ( 'NONE', *, *, #78, .F. ) ;
#195 = PRODUCT_RELATED_PRODUCT_CATEGORY ( 'part', '', ( #211 ) ) ;
#196 = DIRECTION ( 'NONE',  ( -0.000000000000000000, -0.000000000000000000, -1.000000000000000000 ) ) ;
#197 = VERTEX_POINT ( 'NONE', #295 ) ;
#198 = AXIS2_PLACEMENT_3D ( 'NONE', #46, #291, #48 ) ;
#199 = AXIS2_PLACEMENT_3D ( 'NONE', #337, #309, #125 ) ;
#200 = ORIENTED_EDGE ( 'NONE', *, *, #146, .T. ) ;
#201 = DIRECTION ( 'NONE',  ( 0.000000000000000000, 0.000000000000000000, 1.000000000000000000 ) ) ;
#202 = DIRECTION ( 'NONE',  ( 1.000000000000000000, 1.369518533665900312E-16, 0.000000000000000000 ) ) ;
#203 = VECTOR ( 'NONE', #232, 1000.000000000000000 ) ;
#204 = DIRECTION ( 'NONE',  ( -1.000000000000000000, -0.000000000000000000, -0.000000000000000000 ) ) ;
#205 = LINE ( 'NONE', #261, #303 ) ;
#206 = ADVANCED_FACE ( 'NONE', ( #43 ), #237, .F. ) ;
#207 = CARTESIAN_POINT ( 'NONE',  ( 18.00000000000000355, -2.999999999999996891, 6.499999999999999112 ) ) ;
#208 = VECTOR ( 'NONE', #13, 1000.000000000000000 ) ;
#209 = DIRECTION ( 'NONE',  ( 0.000000000000000000, 1.734723475976806848E-16, -1.000000000000000000 ) ) ;
#210 = VECTOR ( 'NONE', #27, 1000.000000000000000 ) ;
#211 = PRODUCT ( 'rail (2 times)', 'rail (2 times)', '', ( #100 ) ) ;
#212 = EDGE_CURVE ( 'NONE', #118, #393, #15, .T. ) ;
#213 = EDGE_LOOP ( 'NONE', ( #126, #227, #250, #398 ) ) ;
#214 = CARTESIAN_POINT ( 'NONE',  ( 6.500000000000001776, -4.336808689942017736E-16, 9.000000000000000000 ) ) ;
#215 = ORIENTED_EDGE ( 'NONE', *, *, #324, .T. ) ;
#216 = ORIENTED_EDGE ( 'NONE', *, *, #10, .F. ) ;
#217 = VECTOR ( 'NONE', #202, 1000.000000000000000 ) ;
#218 = ADVANCED_FACE ( 'NONE', ( #172 ), #179, .F. ) ;
#219 = CARTESIAN_POINT ( 'NONE',  ( 0.000000000000000000, 0.000000000000000000, 9.000000000000000000 ) ) ;
#220 = ORIENTED_EDGE ( 'NONE', *, *, #78, .T. ) ;
#221 = ORIENTED_EDGE ( 'NONE', *, *, #142, .T. ) ;
#222 = CARTESIAN_POINT ( 'NONE',  ( 6.500000000000001776, -4.336808689942017736E-16, 9.000000000000000000 ) ) ;
#223 = VECTOR ( 'NONE', #378, 1000.000000000000000 ) ;
#224 = CARTESIAN_POINT ( 'NONE',  ( 5.250000000000000888, -4.336808689942017736E-16, 9.000000000000000000 ) ) ;
#225 = ADVANCED_FACE ( 'NONE', ( #355, #145, #294 ), #141, .F. ) ;
#226 = CARTESIAN_POINT ( 'NONE',  ( 9.500000000000001776, -2.999999999999997335, 0.000000000000000000 ) ) ;
#227 = ORIENTED_EDGE ( 'NONE', *, *, #306, .T. ) ;
#228 = CARTESIAN_POINT ( 'NONE',  ( 6.500000000000001776, -4.336808689942017736E-16, 0.000000000000000000 ) ) ;
#229 = CIRCLE ( 'NONE', #76, 1.250000000000000222 ) ;
#230 = AXIS2_PLACEMENT_3D ( 'NONE', #233, #351, #323 ) ;
#231 = ADVANCED_FACE ( 'NONE', ( #44 ), #297, .F. ) ;
#232 = DIRECTION ( 'NONE',  ( -1.000000000000000000, -0.000000000000000000, -0.000000000000000000 ) ) ;
#233 = CARTESIAN_POINT ( 'NONE',  ( -6.499999999999998224, -4.336808689942017736E-16, 9.000000000000000000 ) ) ;
#234 = DIRECTION ( 'NONE',  ( -0.000000000000000000, -0.000000000000000000, -1.000000000000000000 ) ) ;
#235 = AXIS2_PLACEMENT_3D ( 'NONE', #111, #74, #177 ) ;
#236 = DIRECTION ( 'NONE',  ( 1.000000000000000000, 0.000000000000000000, -0.000000000000000000 ) ) ;
#237 = PLANE ( 'NONE',  #198 ) ;
#238 = EDGE_LOOP ( 'NONE', ( #89, #269, #364, #392 ) ) ;
#239 = CARTESIAN_POINT ( 'NONE',  ( 18.00000000000000355, 3.000000000000002665, 6.499999999999999112 ) ) ;
#240 = EDGE_CURVE ( 'NONE', #160, #91, #354, .T. ) ;
#241 = DIRECTION ( 'NONE',  ( 1.000000000000000000, 0.000000000000000000, 0.000000000000000000 ) ) ;
#242 = VERTEX_POINT ( 'NONE', #14 ) ;
#243 = ORIENTED_EDGE ( 'NONE', *, *, #69, .T. ) ;
#244 = VERTEX_POINT ( 'NONE', #144 ) ;
#245 = DIRECTION ( 'NONE',  ( 1.000000000000000000, 0.000000000000000000, 0.000000000000000000 ) ) ;
#246 = ORIENTED_EDGE ( 'NONE', *, *, #340, .T. ) ;
#247 = AXIS2_PLACEMENT_3D ( 'NONE', #79, #325, #236 ) ;
#248 = ADVANCED_FACE ( 'NONE', ( #18 ), #263, .F. ) ;
#249 = CARTESIAN_POINT ( 'NONE',  ( 9.500000000000001776, 3.000000000000002665, 9.000000000000000000 ) ) ;
#250 = ORIENTED_EDGE ( 'NONE', *, *, #10, .T. ) ;
#251 = DIRECTION ( 'NONE',  ( 0.000000000000000000, 0.000000000000000000, 1.000000000000000000 ) ) ;
#252 = CARTESIAN_POINT ( 'NONE',  ( 18.00000000000000355, 3.000000000000002665, 6.499999999999999112 ) ) ;
#253 = CARTESIAN_POINT ( 'NONE',  ( -9.499999999999998224, -3.000000000000000000, 0.000000000000000000 ) ) ;
#254 = DIRECTION ( 'NONE',  ( 1.000000000000000000, 0.000000000000000000, 0.000000000000000000 ) ) ;
#255 = ORIENTED_EDGE ( 'NONE', *, *, #82, .F. ) ;
#256 = ORIENTED_EDGE ( 'NONE', *, *, #390, .F. ) ;
#257 = CARTESIAN_POINT ( 'NONE',  ( 18.00000000000000355, 3.000000000000002665, 9.000000000000000000 ) ) ;
#258 = ORIENTED_EDGE ( 'NONE', *, *, #106, .F. ) ;
#259 = AXIS2_PLACEMENT_3D ( 'NONE', #266, #387, #115 ) ;
#260 = CARTESIAN_POINT ( 'NONE',  ( 6.500000000000001776, -4.336808689942017736E-16, 9.000000000000000000 ) ) ;
#261 = CARTESIAN_POINT ( 'NONE',  ( -9.499999999999998224, 3.000000000000000000, 9.000000000000000000 ) ) ;
#262 = PRODUCT_DEFINITION ( 'UNKNOWN', '', #191, #53 ) ;
#263 = PLANE ( 'NONE',  #259 ) ;
#264 = VECTOR ( 'NONE', #344, 1000.000000000000000 ) ;
#265 = CARTESIAN_POINT ( 'NONE',  ( 18.00000000000000355, -2.999999999999996891, 6.499999999999999112 ) ) ;
#266 = CARTESIAN_POINT ( 'NONE',  ( -9.499999999999998224, -3.000000000000000000, 9.000000000000000000 ) ) ;
#267 = ORIENTED_EDGE ( 'NONE', *, *, #161, .T. ) ;
#268 = DIRECTION ( 'NONE',  ( 1.000000000000000000, 0.000000000000000000, -0.000000000000000000 ) ) ;
#269 = ORIENTED_EDGE ( 'NONE', *, *, #114, .T. ) ;
#270 = VECTOR ( 'NONE', #168, 1000.000000000000000 ) ;
#271 = PLANE ( 'NONE',  #130 ) ;
#272 = ORIENTED_EDGE ( 'NONE', *, *, #333, .T. ) ;
#273 = FACE_OUTER_BOUND ( 'NONE', #61, .T. ) ;
#274 = ORIENTED_EDGE ( 'NONE', *, *, #240, .T. ) ;
#275 = FACE_BOUND ( 'NONE', #26, .T. ) ;
#276 = EDGE_LOOP ( 'NONE', ( #105, #63, #345, #68 ) ) ;
#277 = FILL_AREA_STYLE_COLOUR ( '', #92 ) ;
#278 = AXIS2_PLACEMENT_3D ( 'NONE', #222, #192, #315 ) ;
#279 = ORIENTED_EDGE ( 'NONE', *, *, #34, .F. ) ;
#280 = VECTOR ( 'NONE', #149, 1000.000000000000000 ) ;
#281 = DIRECTION ( 'NONE',  ( 0.000000000000000000, 0.000000000000000000, 1.000000000000000000 ) ) ;
#282 = ORIENTED_EDGE ( 'NONE', *, *, #109, .T. ) ;
#283 = EDGE_CURVE ( 'NONE', #91, #164, #356, .T. ) ;
#284 = CARTESIAN_POINT ( 'NONE',  ( 18.00000000000000355, 3.000000000000002665, 9.000000000000000000 ) ) ;
#285 = LINE ( 'NONE', #257, #77 ) ;
#286 = DIRECTION ( 'NONE',  ( 1.000000000000000000, 0.000000000000000000, 0.000000000000000000 ) ) ;
#287 = CARTESIAN_POINT ( 'NONE',  ( 18.00000000000000355, -2.999999999999997335, 9.000000000000000000 ) ) ;
#288 = APPLICATION_PROTOCOL_DEFINITION ( 'draft international standard', 'automotive_design', 1998, #87 ) ;
#289 = LINE ( 'NONE', #107, #203 ) ;
#290 = ORIENTED_EDGE ( 'NONE', *, *, #283, .F. ) ;
#291 = DIRECTION ( 'NONE',  ( 1.369518533665900312E-16, -1.000000000000000000, 0.000000000000000000 ) ) ;
#292 = STYLED_ITEM ( 'NONE', ( #85 ), #377 ) ;
#293 = DIRECTION ( 'NONE',  ( -0.000000000000000000, -1.000000000000000000, -0.000000000000000000 ) ) ;
#294 = FACE_BOUND ( 'NONE', #300, .T. ) ;
#295 = CARTESIAN_POINT ( 'NONE',  ( -7.749999999999998224, -4.336808689942017736E-16, 0.000000000000000000 ) ) ;
#296 = VECTOR ( 'NONE', #196, 1000.000000000000000 ) ;
#297 = CYLINDRICAL_SURFACE ( 'NONE', #16, 1.250000000000000222 ) ;
#298 = ADVANCED_FACE ( 'NONE', ( #383 ), #108, .F. ) ;
#299 = FACE_BOUND ( 'NONE', #310, .T. ) ;
#300 = EDGE_LOOP ( 'NONE', ( #151, #282 ) ) ;
#301 = LINE ( 'NONE', #363, #49 ) ;
#302 = ORIENTED_EDGE ( 'NONE', *, *, #154, .T. ) ;
#303 = VECTOR ( 'NONE', #234, 1000.000000000000000 ) ;
#304 = DIRECTION ( 'NONE',  ( 0.000000000000000000, 0.000000000000000000, 1.000000000000000000 ) ) ;
#305 = ORIENTED_EDGE ( 'NONE', *, *, #45, .T. ) ;
#306 = EDGE_CURVE ( 'NONE', #330, #57, #99, .T. ) ;
#307 = CARTESIAN_POINT ( 'NONE',  ( 7.750000000000001776, -2.806000191007825919E-16, 9.000000000000000000 ) ) ;
#308 = ORIENTED_EDGE ( 'NONE', *, *, #173, .F. ) ;
#309 = DIRECTION ( 'NONE',  ( -0.000000000000000000, -0.000000000000000000, -1.000000000000000000 ) ) ;
#310 = EDGE_LOOP ( 'NONE', ( #256, #186 ) ) ;
#311 = VECTOR ( 'NONE', #204, 1000.000000000000000 ) ;
#312 = ORIENTED_EDGE ( 'NONE', *, *, #376, .F. ) ;
#313 = EDGE_CURVE ( 'NONE', #393, #395, #119, .T. ) ;
#314 = DIRECTION ( 'NONE',  ( -0.000000000000000000, -0.000000000000000000, 1.000000000000000000 ) ) ;
#315 = DIRECTION ( 'NONE',  ( -1.000000000000000000, 0.000000000000000000, 0.000000000000000000 ) ) ;
#316 = CARTESIAN_POINT ( 'NONE',  ( -6.499999999999998224, -4.336808689942017736E-16, 9.000000000000000000 ) ) ;
#317 = VERTEX_POINT ( 'NONE', #182 ) ;
#318 = CARTESIAN_POINT ( 'NONE',  ( -5.249999999999997335, -2.806000191007825919E-16, 9.000000000000000000 ) ) ;
#319 = CIRCLE ( 'NONE', #72, 1.250000000000000222 ) ;
#320 = ADVANCED_FACE ( 'NONE', ( #360 ), #21, .F. ) ;
#321 = CARTESIAN_POINT ( 'NONE',  ( -9.499999999999998224, -3.000000000000000000, 9.000000000000000000 ) ) ;
#322 = CARTESIAN_POINT ( 'NONE',  ( -6.499999999999998224, -4.336808689942017736E-16, 9.000000000000000000 ) ) ;
#323 = DIRECTION ( 'NONE',  ( -1.000000000000000000, 0.000000000000000000, 0.000000000000000000 ) ) ;
#324 = EDGE_CURVE ( 'NONE', #330, #244, #301, .T. ) ;
#325 = DIRECTION ( 'NONE',  ( 0.000000000000000000, 0.000000000000000000, 1.000000000000000000 ) ) ;
#326 = DIRECTION ( 'NONE',  ( -1.000000000000000000, -1.369518533665900312E-16, -0.000000000000000000 ) ) ;
#327 = CARTESIAN_POINT ( 'NONE',  ( -6.499999999999998224, -4.336808689942017736E-16, 0.000000000000000000 ) ) ;
#328 = PLANE ( 'NONE',  #39 ) ;
#329 = VERTEX_POINT ( 'NONE', #369 ) ;
#330 = VERTEX_POINT ( 'NONE', #307 ) ;
#331 = DIRECTION ( 'NONE',  ( -1.000000000000000000, 0.000000000000000000, 0.000000000000000000 ) ) ;
#332 = ORIENTED_EDGE ( 'NONE', *, *, #82, .T. ) ;
#333 = EDGE_CURVE ( 'NONE', #242, #393, #25, .T. ) ;
#334 = DIRECTION ( 'NONE',  ( 0.000000000000000000, 0.000000000000000000, -1.000000000000000000 ) ) ;
#335 = VECTOR ( 'NONE', #88, 1000.000000000000000 ) ;
#336 = EDGE_LOOP ( 'NONE', ( #246, #215, #113, #216 ) ) ;
#337 = CARTESIAN_POINT ( 'NONE',  ( -6.499999999999998224, -4.336808689942017736E-16, 9.000000000000000000 ) ) ;
#338 = ORIENTED_EDGE ( 'NONE', *, *, #240, .F. ) ;
#339 = CARTESIAN_POINT ( 'NONE',  ( 0.000000000000000000, 0.000000000000000000, 0.000000000000000000 ) ) ;
#340 = EDGE_CURVE ( 'NONE', #57, #330, #319, .T. ) ;
#341 = ORIENTED_EDGE ( 'NONE', *, *, #376, .T. ) ;
#342 = CARTESIAN_POINT ( 'NONE',  ( -5.249999999999997335, -2.806000191007825919E-16, 9.000000000000000000 ) ) ;
#343 = AXIS2_PLACEMENT_3D ( 'NONE', #93, #331, #157 ) ;
#344 = DIRECTION ( 'NONE',  ( -1.000000000000000000, -1.369518533665900312E-16, -0.000000000000000000 ) ) ;
#345 = ORIENTED_EDGE ( 'NONE', *, *, #154, .F. ) ;
#346 = ADVANCED_FACE ( 'NONE', ( #273 ), #180, .F. ) ;
#347 = VERTEX_POINT ( 'NONE', #187 ) ;
#348 = ORIENTED_EDGE ( 'NONE', *, *, #173, .T. ) ;
#349 = LINE ( 'NONE', #373, #139 ) ;
#350 = ADVANCED_FACE ( 'NONE', ( #366 ), #328, .T. ) ;
#351 = DIRECTION ( 'NONE',  ( -0.000000000000000000, -0.000000000000000000, -1.000000000000000000 ) ) ;
#352 = LINE ( 'NONE', #11, #184 ) ;
#353 = VECTOR ( 'NONE', #326, 1000.000000000000000 ) ;
#354 = LINE ( 'NONE', #80, #217 ) ;
#355 = FACE_OUTER_BOUND ( 'NONE', #189, .T. ) ;
#356 = LINE ( 'NONE', #83, #174 ) ;
#357 = CIRCLE ( 'NONE', #124, 1.250000000000000222 ) ;
#358 = SURFACE_STYLE_USAGE ( .BOTH. , #116 ) ;
#359 = VERTEX_POINT ( 'NONE', #150 ) ;
#360 = FACE_OUTER_BOUND ( 'NONE', #276, .T. ) ;
#361 = ADVANCED_FACE ( 'NONE', ( #299, #397, #275 ), #19, .T. ) ;
#362 = ORIENTED_EDGE ( 'NONE', *, *, #34, .T. ) ;
#363 = CARTESIAN_POINT ( 'NONE',  ( 7.750000000000001776, -2.806000191007825919E-16, 9.000000000000000000 ) ) ;
#364 = ORIENTED_EDGE ( 'NONE', *, *, #1, .T. ) ;
#365 = VECTOR ( 'NONE', #101, 1000.000000000000000 ) ;
#366 = FACE_OUTER_BOUND ( 'NONE', #370, .T. ) ;
#367 =( GEOMETRIC_REPRESENTATION_CONTEXT ( 3 ) GLOBAL_UNCERTAINTY_ASSIGNED_CONTEXT ( ( #47 ) ) GLOBAL_UNIT_ASSIGNED_CONTEXT ( ( #62, #32, #379 ) ) REPRESENTATION_CONTEXT ( 'NONE', 'WORKASPACE' ) );
#368 = ORIENTED_EDGE ( 'NONE', *, *, #212, .T. ) ;
#369 = CARTESIAN_POINT ( 'NONE',  ( 9.500000000000001776, -2.999999999999997335, 0.000000000000000000 ) ) ;
#370 = EDGE_LOOP ( 'NONE', ( #121, #221, #86, #348 ) ) ;
#371 = FACE_OUTER_BOUND ( 'NONE', #336, .T. ) ;
#372 = CIRCLE ( 'NONE', #64, 1.250000000000000222 ) ;
#373 = CARTESIAN_POINT ( 'NONE',  ( -9.499999999999998224, -3.000000000000000000, 9.000000000000000000 ) ) ;
#374 = PRESENTATION_LAYER_ASSIGNMENT (  '', '', ( #292 ) ) ;
#375 = LINE ( 'NONE', #321, #365 ) ;
#376 = EDGE_CURVE ( 'NONE', #242, #329, #159, .T. ) ;
#377 = MANIFOLD_SOLID_BREP ( 'Boss-Extrude2', #37 ) ;
#378 = DIRECTION ( 'NONE',  ( -0.000000000000000000, -0.000000000000000000, -1.000000000000000000 ) ) ;
#379 =( NAMED_UNIT ( * ) SI_UNIT ( $, .STERADIAN. ) SOLID_ANGLE_UNIT ( ) );
#380 = DIRECTION ( 'NONE',  ( -0.000000000000000000, -1.000000000000000000, -0.000000000000000000 ) ) ;
#381 = VECTOR ( 'NONE', #67, 1000.000000000000000 ) ;
#382 = ADVANCED_FACE ( 'NONE', ( #58 ), #271, .F. ) ;
#383 = FACE_OUTER_BOUND ( 'NONE', #238, .T. ) ;
#384 = DIRECTION ( 'NONE',  ( 1.000000000000000000, 0.000000000000000000, 0.000000000000000000 ) ) ;
#385 = DIRECTION ( 'NONE',  ( 0.000000000000000000, 0.000000000000000000, 1.000000000000000000 ) ) ;
#386 = DIRECTION ( 'NONE',  ( -0.000000000000000000, -0.000000000000000000, -1.000000000000000000 ) ) ;
#387 = DIRECTION ( 'NONE',  ( -1.369518533665900312E-16, 1.000000000000000000, 0.000000000000000000 ) ) ;
#388 = FILL_AREA_STYLE ('',( #277 ) ) ;
#389 = VERTEX_POINT ( 'NONE', #70 ) ;
#390 = EDGE_CURVE ( 'NONE', #181, #22, #17, .T. ) ;
#391 =( NAMED_UNIT ( * ) PLANE_ANGLE_UNIT ( ) SI_UNIT ( $, .RADIAN. ) );
#392 = ORIENTED_EDGE ( 'NONE', *, *, #69, .F. ) ;
#393 = VERTEX_POINT ( 'NONE', #165 ) ;
#394 = DIRECTION ( 'NONE',  ( 1.000000000000000000, -0.000000000000000000, 0.000000000000000000 ) ) ;
#395 = VERTEX_POINT ( 'NONE', #35 ) ;
#396 = EDGE_CURVE ( 'NONE', #118, #7, #285, .T. ) ;
#397 = FACE_OUTER_BOUND ( 'NONE', #171, .T. ) ;
#398 = ORIENTED_EDGE ( 'NONE', *, *, #109, .F. ) ;
#399 = DIRECTION ( 'NONE',  ( 0.000000000000000000, 0.000000000000000000, 1.000000000000000000 ) ) ;
#400 = DIRECTION ( 'NONE',  ( 1.000000000000000000, 0.000000000000000000, 0.000000000000000000 ) ) ;
#401 = CARTESIAN_POINT ( 'NONE',  ( -9.499999999999998224, -3.000000000000000000, 0.000000000000000000 ) ) ;
ENDSEC;
END-ISO-10303-21;
