ISO-10303-21;
HEADER;
FILE_DESCRIPTION (( 'STEP AP214' ),
    '1' );
FILE_NAME ('slider - left.STEP',
    '2026-03-24T22:40:00',
    ( '' ),
    ( '' ),
    'SwSTEP 2.0',
    'SolidWorks 2026',
    '' );
FILE_SCHEMA (( 'AUTOMOTIVE_DESIGN' ));
ENDSEC;

DATA;
#1 = LINE ( 'NONE', #104, #301 ) ;
#2 = ORIENTED_EDGE ( 'NONE', *, *, #939, .F. ) ;
#3 = FACE_BOUND ( 'NONE', #829, .T. ) ;
#4 = CYLINDRICAL_SURFACE ( 'NONE', #632, 1.249999999999997113 ) ;
#5 = ORIENTED_EDGE ( 'NONE', *, *, #462, .F. ) ;
#6 = LINE ( 'NONE', #506, #792 ) ;
#7 = ORIENTED_EDGE ( 'NONE', *, *, #584, .T. ) ;
#8 = CYLINDRICAL_SURFACE ( 'NONE', #398, 0.7999999999999986011 ) ;
#9 = DIRECTION ( 'NONE',  ( -0.000000000000000000, 0.000000000000000000, 1.000000000000000000 ) ) ;
#10 = DIRECTION ( 'NONE',  ( -0.000000000000000000, -0.000000000000000000, -1.000000000000000000 ) ) ;
#11 = DIRECTION ( 'NONE',  ( -1.000000000000000000, 0.000000000000000000, 0.000000000000000000 ) ) ;
#12 = VERTEX_POINT ( 'NONE', #432 ) ;
#13 = LINE ( 'NONE', #343, #399 ) ;
#14 = ADVANCED_FACE ( 'NONE', ( #345, #100, #274, #1022, #752, #676 ), #836, .F. ) ;
#15 = VERTEX_POINT ( 'NONE', #844 ) ;
#16 = FACE_OUTER_BOUND ( 'NONE', #996, .T. ) ;
#17 = AXIS2_PLACEMENT_3D ( 'NONE', #761, #943, #583 ) ;
#18 = FACE_OUTER_BOUND ( 'NONE', #718, .T. ) ;
#19 = DIRECTION ( 'NONE',  ( -1.000000000000000000, 0.000000000000000000, 0.000000000000000000 ) ) ;
#20 = CIRCLE ( 'NONE', #112, 0.8000000000000020428 ) ;
#21 = EDGE_CURVE ( 'NONE', #813, #1040, #1057, .T. ) ;
#22 = DIRECTION ( 'NONE',  ( -0.000000000000000000, -0.000000000000000000, -1.000000000000000000 ) ) ;
#23 = EDGE_CURVE ( 'NONE', #1005, #223, #668, .T. ) ;
#24 = EDGE_LOOP ( 'NONE', ( #142, #581, #590, #163 ) ) ;
#25 = ORIENTED_EDGE ( 'NONE', *, *, #1052, .F. ) ;
#26 = DIRECTION ( 'NONE',  ( -0.000000000000000000, -0.000000000000000000, -1.000000000000000000 ) ) ;
#27 = CARTESIAN_POINT ( 'NONE',  ( 2.061842121472243328, 0.1236842429444846153, 5.000000000000000000 ) ) ;
#28 = SHAPE_DEFINITION_REPRESENTATION ( #289, #211 ) ;
#29 = DIRECTION ( 'NONE',  ( 0.000000000000000000, -0.000000000000000000, -1.000000000000000000 ) ) ;
#30 = VECTOR ( 'NONE', #841, 1000.000000000000000 ) ;
#31 = CYLINDRICAL_SURFACE ( 'NONE', #893, 0.8000000000000003775 ) ;
#32 = VERTEX_POINT ( 'NONE', #261 ) ;
#33 = CARTESIAN_POINT ( 'NONE',  ( 2.061842121472243328, 0.1236842429444846153, 5.000000000000000000 ) ) ;
#34 = CARTESIAN_POINT ( 'NONE',  ( -23.93815787852775756, 12.62368424294447600, 5.000000000000000000 ) ) ;
#35 = PLANE ( 'NONE',  #778 ) ;
#36 = DIRECTION ( 'NONE',  ( -1.000000000000000000, -0.000000000000000000, -0.000000000000000000 ) ) ;
#37 = ADVANCED_FACE ( 'NONE', ( #418 ), #524, .F. ) ;
#38 = CARTESIAN_POINT ( 'NONE',  ( 2.061842121472243328, 6.623684242944484879, 5.000000000000000000 ) ) ;
#39 = AXIS2_PLACEMENT_3D ( 'NONE', #436, #770, #19 ) ;
#40 = CARTESIAN_POINT ( 'NONE',  ( 3.459664663323483758E-16, -8.376315757055515121, 5.000000000000000000 ) ) ;
#41 = AXIS2_PLACEMENT_3D ( 'NONE', #575, #68, #910 ) ;
#42 = CARTESIAN_POINT ( 'NONE',  ( 16.06184212147224244, 9.123684242944484879, 5.000000000000000000 ) ) ;
#43 =( GEOMETRIC_REPRESENTATION_CONTEXT ( 3 ) GLOBAL_UNCERTAINTY_ASSIGNED_CONTEXT ( ( #106 ) ) GLOBAL_UNIT_ASSIGNED_CONTEXT ( ( #651, #168, #413 ) ) REPRESENTATION_CONTEXT ( 'NONE', 'WORKASPACE' ) );
#44 = DIRECTION ( 'NONE',  ( -1.000000000000000000, 0.000000000000000000, -0.000000000000000000 ) ) ;
#45 = ORIENTED_EDGE ( 'NONE', *, *, #738, .F. ) ;
#46 = DIRECTION ( 'NONE',  ( 1.000000000000000000, 0.000000000000000000, 0.000000000000000000 ) ) ;
#47 = AXIS2_PLACEMENT_3D ( 'NONE', #484, #406, #977 ) ;
#48 = DIRECTION ( 'NONE',  ( 1.000000000000000000, 4.130293990420965692E-17, 0.000000000000000000 ) ) ;
#49 = ORIENTED_EDGE ( 'NONE', *, *, #616, .T. ) ;
#50 = EDGE_CURVE ( 'NONE', #541, #80, #684, .T. ) ;
#51 = DIRECTION ( 'NONE',  ( -0.000000000000000000, 0.000000000000000000, 1.000000000000000000 ) ) ;
#52 = AXIS2_PLACEMENT_3D ( 'NONE', #201, #196, #101 ) ;
#53 = ORIENTED_EDGE ( 'NONE', *, *, #359, .F. ) ;
#54 = EDGE_CURVE ( 'NONE', #166, #246, #131, .T. ) ;
#55 = ORIENTED_EDGE ( 'NONE', *, *, #540, .F. ) ;
#56 = ADVANCED_FACE ( 'NONE', ( #266 ), #592, .F. ) ;
#57 = AXIS2_PLACEMENT_3D ( 'NONE', #699, #284, #123 ) ;
#58 = ADVANCED_FACE ( 'NONE', ( #16 ), #515, .F. ) ;
#59 = ORIENTED_EDGE ( 'NONE', *, *, #1029, .T. ) ;
#60 = ORIENTED_EDGE ( 'NONE', *, *, #908, .F. ) ;
#61 = ORIENTED_EDGE ( 'NONE', *, *, #1012, .F. ) ;
#62 = ORIENTED_EDGE ( 'NONE', *, *, #511, .F. ) ;
#63 = ORIENTED_EDGE ( 'NONE', *, *, #947, .F. ) ;
#64 = EDGE_CURVE ( 'NONE', #114, #464, #1015, .T. ) ;
#65 = CARTESIAN_POINT ( 'NONE',  ( 16.06184212147224244, 9.123684242944484879, 0.000000000000000000 ) ) ;
#66 = AXIS2_PLACEMENT_3D ( 'NONE', #518, #263, #840 ) ;
#67 = ORIENTED_EDGE ( 'NONE', *, *, #705, .T. ) ;
#68 = DIRECTION ( 'NONE',  ( -0.000000000000000000, 0.000000000000000000, 1.000000000000000000 ) ) ;
#69 = CARTESIAN_POINT ( 'NONE',  ( 16.86184212147224315, 9.123684242944484879, 5.000000000000000000 ) ) ;
#70 = DIRECTION ( 'NONE',  ( -1.000000000000000000, -0.000000000000000000, -0.000000000000000000 ) ) ;
#71 = ORIENTED_EDGE ( 'NONE', *, *, #133, .T. ) ;
#72 = DIRECTION ( 'NONE',  ( 1.000000000000000000, 0.000000000000000000, 0.000000000000000000 ) ) ;
#73 = VECTOR ( 'NONE', #186, 1000.000000000000000 ) ;
#74 = FACE_OUTER_BOUND ( 'NONE', #187, .T. ) ;
#75 = DIRECTION ( 'NONE',  ( 1.000000000000000000, 0.000000000000000000, 0.000000000000000000 ) ) ;
#76 = ORIENTED_EDGE ( 'NONE', *, *, #314, .F. ) ;
#77 = LINE ( 'NONE', #313, #497 ) ;
#78 = DIRECTION ( 'NONE',  ( -0.000000000000000000, -0.000000000000000000, -1.000000000000000000 ) ) ;
#79 = CYLINDRICAL_SURFACE ( 'NONE', #613, 10.00000000000000533 ) ;
#80 = VERTEX_POINT ( 'NONE', #279 ) ;
#81 = LINE ( 'NONE', #745, #956 ) ;
#82 = AXIS2_PLACEMENT_3D ( 'NONE', #786, #954, #863 ) ;
#83 = MECHANICAL_DESIGN_GEOMETRIC_PRESENTATION_REPRESENTATION (  '', ( #434 ), #543 ) ;
#84 = EDGE_LOOP ( 'NONE', ( #749, #76 ) ) ;
#85 = CARTESIAN_POINT ( 'NONE',  ( -18.93815787852775756, -5.376315757055517786, 1.250000000000000888 ) ) ;
#86 = DIRECTION ( 'NONE',  ( 0.000000000000000000, 0.000000000000000000, 1.000000000000000000 ) ) ;
#87 = ORIENTED_EDGE ( 'NONE', *, *, #119, .T. ) ;
#88 = CIRCLE ( 'NONE', #797, 5.100000000000001421 ) ;
#89 = AXIS2_PLACEMENT_3D ( 'NONE', #1056, #985, #72 ) ;
#90 = VERTEX_POINT ( 'NONE', #443 ) ;
#91 = CARTESIAN_POINT ( 'NONE',  ( -21.43815787852776111, 4.623684242944484879, 5.000000000000000000 ) ) ;
#92 = CARTESIAN_POINT ( 'NONE',  ( -9.036437400828607025, 14.61125857067261613, 5.000000000000000000 ) ) ;
#93 = DIRECTION ( 'NONE',  ( -0.000000000000000000, -0.000000000000000000, -1.000000000000000000 ) ) ;
#94 = ORIENTED_EDGE ( 'NONE', *, *, #126, .F. ) ;
#95 = EDGE_CURVE ( 'NONE', #272, #716, #360, .T. ) ;
#96 = CIRCLE ( 'NONE', #315, 6.499999999999991118 ) ;
#97 = CARTESIAN_POINT ( 'NONE',  ( 4.061842121472241551, 9.123684242944484879, 5.000000000000000000 ) ) ;
#98 = ADVANCED_FACE ( 'NONE', ( #200 ), #8, .F. ) ;
#99 = ORIENTED_EDGE ( 'NONE', *, *, #160, .T. ) ;
#100 = FACE_BOUND ( 'NONE', #736, .T. ) ;
#101 = DIRECTION ( 'NONE',  ( 0.000000000000000000, 0.000000000000000000, 1.000000000000000000 ) ) ;
#102 = PRODUCT_CONTEXT ( 'NONE', #219, 'mechanical' ) ;
#103 = DIRECTION ( 'NONE',  ( -0.000000000000000000, 0.000000000000000000, 1.000000000000000000 ) ) ;
#104 = CARTESIAN_POINT ( 'NONE',  ( 3.261842121472240841, 9.123684242944484879, 5.000000000000000000 ) ) ;
#105 = ORIENTED_EDGE ( 'NONE', *, *, #319, .F. ) ;
#106 = UNCERTAINTY_MEASURE_WITH_UNIT (LENGTH_MEASURE( 1.000000000000000082E-05 ), #651, 'distance_accuracy_value', 'NONE');
#107 = ORIENTED_EDGE ( 'NONE', *, *, #212, .T. ) ;
#108 = CARTESIAN_POINT ( 'NONE',  ( -23.93815787852775756, -5.376315757055517786, 2.500000000000000000 ) ) ;
#109 = AXIS2_PLACEMENT_3D ( 'NONE', #427, #855, #838 ) ;
#110 = CARTESIAN_POINT ( 'NONE',  ( -22.23815787852775827, 4.623684242944484879, 0.000000000000000000 ) ) ;
#111 = DIRECTION ( 'NONE',  ( 1.000000000000000000, 0.000000000000000000, 0.000000000000000000 ) ) ;
#112 = AXIS2_PLACEMENT_3D ( 'NONE', #42, #614, #1034 ) ;
#113 = ORIENTED_EDGE ( 'NONE', *, *, #811, .T. ) ;
#114 = VERTEX_POINT ( 'NONE', #230 ) ;
#115 = CARTESIAN_POINT ( 'NONE',  ( -14.53815787852776076, 8.123684242944490208, 5.000000000000000000 ) ) ;
#116 = AXIS2_PLACEMENT_3D ( 'NONE', #477, #558, #894 ) ;
#117 = DIRECTION ( 'NONE',  ( -1.000000000000000000, -0.000000000000000000, -0.000000000000000000 ) ) ;
#118 = DIRECTION ( 'NONE',  ( 1.000000000000000000, 0.000000000000000000, 0.000000000000000000 ) ) ;
#119 = EDGE_CURVE ( 'NONE', #465, #1054, #542, .T. ) ;
#120 = CARTESIAN_POINT ( 'NONE',  ( 3.459664663323483758E-16, -8.376315757055515121, 5.000000000000000000 ) ) ;
#121 = FACE_OUTER_BOUND ( 'NONE', #1048, .T. ) ;
#122 = DIRECTION ( 'NONE',  ( 1.000000000000000000, 0.000000000000000000, 0.000000000000000000 ) ) ;
#123 = DIRECTION ( 'NONE',  ( 1.000000000000000000, 0.000000000000000000, 0.000000000000000000 ) ) ;
#124 = CARTESIAN_POINT ( 'NONE',  ( -18.93815787852775756, 9.623684242944477774, 2.500000000000000000 ) ) ;
#125 = VECTOR ( 'NONE', #392, 1000.000000000000000 ) ;
#126 = EDGE_CURVE ( 'NONE', #479, #1040, #747, .T. ) ;
#127 = CARTESIAN_POINT ( 'NONE',  ( 15.26184212147224173, 9.123684242944484879, 5.000000000000000000 ) ) ;
#128 = DIRECTION ( 'NONE',  ( -1.000000000000000000, 0.000000000000000000, 0.000000000000000000 ) ) ;
#129 = ORIENTED_EDGE ( 'NONE', *, *, #391, .F. ) ;
#130 = PLANE ( 'NONE',  #259 ) ;
#131 = CIRCLE ( 'NONE', #967, 6.500000000000000888 ) ;
#132 = AXIS2_PLACEMENT_3D ( 'NONE', #498, #997, #1004 ) ;
#133 = EDGE_CURVE ( 'NONE', #252, #992, #643, .T. ) ;
#134 = ORIENTED_EDGE ( 'NONE', *, *, #789, .F. ) ;
#135 = EDGE_CURVE ( 'NONE', #250, #114, #173, .T. ) ;
#136 = VECTOR ( 'NONE', #48, 1000.000000000000000 ) ;
#137 = ORIENTED_EDGE ( 'NONE', *, *, #451, .F. ) ;
#138 = VERTEX_POINT ( 'NONE', #241 ) ;
#139 = EDGE_LOOP ( 'NONE', ( #834, #573 ) ) ;
#140 = ORIENTED_EDGE ( 'NONE', *, *, #928, .T. ) ;
#141 = ORIENTED_EDGE ( 'NONE', *, *, #441, .T. ) ;
#142 = ORIENTED_EDGE ( 'NONE', *, *, #1029, .F. ) ;
#143 = EDGE_CURVE ( 'NONE', #821, #751, #481, .T. ) ;
#144 = VECTOR ( 'NONE', #326, 1000.000000000000000 ) ;
#145 = CARTESIAN_POINT ( 'NONE',  ( 23.06184212147224244, 0.000000000000000000, 5.000000000000000000 ) ) ;
#146 = ORIENTED_EDGE ( 'NONE', *, *, #332, .F. ) ;
#147 = CARTESIAN_POINT ( 'NONE',  ( 2.061842121472243328, 6.623684242944484879, 5.000000000000000000 ) ) ;
#148 = FACE_OUTER_BOUND ( 'NONE', #767, .T. ) ;
#149 = CARTESIAN_POINT ( 'NONE',  ( 9.261842121472241729, 9.623684242944484879, 0.000000000000000000 ) ) ;
#150 = CIRCLE ( 'NONE', #17, 6.500000000000000888 ) ;
#151 = ORIENTED_EDGE ( 'NONE', *, *, #143, .F. ) ;
#152 = COLOUR_RGB ( '',0.7921568627450980005, 0.8196078431372548767, 0.9333333333333333481 ) ;
#153 = DIRECTION ( 'NONE',  ( 1.000000000000000000, 0.000000000000000000, 0.000000000000000000 ) ) ;
#154 = CARTESIAN_POINT ( 'NONE',  ( 3.261842121472240397, 9.123684242944484879, 5.000000000000000000 ) ) ;
#155 = CARTESIAN_POINT ( 'NONE',  ( -18.93815787852775756, -5.376315757055517786, 2.500000000000000000 ) ) ;
#156 = ADVANCED_FACE ( 'NONE', ( #3, #638, #412, #253, #722, #1051, #557 ), #885, .T. ) ;
#157 = ORIENTED_EDGE ( 'NONE', *, *, #848, .F. ) ;
#158 = DIRECTION ( 'NONE',  ( -0.000000000000000000, -0.000000000000000000, -1.000000000000000000 ) ) ;
#159 = LINE ( 'NONE', #316, #879 ) ;
#160 = EDGE_CURVE ( 'NONE', #256, #884, #733, .T. ) ;
#161 = DIRECTION ( 'NONE',  ( -0.000000000000000000, -0.000000000000000000, -1.000000000000000000 ) ) ;
#162 = EDGE_CURVE ( 'NONE', #489, #372, #633, .T. ) ;
#163 = ORIENTED_EDGE ( 'NONE', *, *, #858, .F. ) ;
#164 = ADVANCED_FACE ( 'NONE', ( #320 ), #649, .T. ) ;
#165 =( LENGTH_UNIT ( ) NAMED_UNIT ( * ) SI_UNIT ( .MILLI., .METRE. ) );
#166 = VERTEX_POINT ( 'NONE', #147 ) ;
#167 = CARTESIAN_POINT ( 'NONE',  ( 4.061842121472241551, 9.123684242944484879, 5.000000000000000000 ) ) ;
#168 =( NAMED_UNIT ( * ) PLANE_ANGLE_UNIT ( ) SI_UNIT ( $, .RADIAN. ) );
#169 = DIRECTION ( 'NONE',  ( -1.000000000000000000, 0.000000000000000000, 0.000000000000000000 ) ) ;
#170 = ORIENTED_EDGE ( 'NONE', *, *, #737, .F. ) ;
#171 = CARTESIAN_POINT ( 'NONE',  ( -4.338157878527758804, 8.123684242944490208, 1.000000000000000000 ) ) ;
#172 = AXIS2_PLACEMENT_3D ( 'NONE', #572, #169, #86 ) ;
#173 = CIRCLE ( 'NONE', #1050, 5.100000000000001421 ) ;
#174 = ORIENTED_EDGE ( 'NONE', *, *, #588, .F. ) ;
#175 = CARTESIAN_POINT ( 'NONE',  ( -18.93815787852775756, -5.376315757055517786, 2.500000000000000000 ) ) ;
#176 = LINE ( 'NONE', #727, #831 ) ;
#177 = DIRECTION ( 'NONE',  ( 1.000000000000000000, 0.000000000000000000, 0.000000000000000000 ) ) ;
#178 = ORIENTED_EDGE ( 'NONE', *, *, #739, .F. ) ;
#179 = EDGE_CURVE ( 'NONE', #265, #80, #366, .T. ) ;
#180 = AXIS2_PLACEMENT_3D ( 'NONE', #607, #26, #353 ) ;
#181 = ORIENTED_EDGE ( 'NONE', *, *, #544, .T. ) ;
#182 = DIRECTION ( 'NONE',  ( -1.000000000000000000, -0.000000000000000000, -0.000000000000000000 ) ) ;
#183 = LINE ( 'NONE', #509, #429 ) ;
#184 = DIRECTION ( 'NONE',  ( -0.000000000000000000, -0.000000000000000000, -1.000000000000000000 ) ) ;
#185 = CIRCLE ( 'NONE', #1061, 0.8000000000000012657 ) ;
#186 = DIRECTION ( 'NONE',  ( -0.000000000000000000, -0.000000000000000000, -1.000000000000000000 ) ) ;
#187 = EDGE_LOOP ( 'NONE', ( #178, #653, #1014, #408 ) ) ;
#188 = ORIENTED_EDGE ( 'NONE', *, *, #438, .T. ) ;
#189 = DIRECTION ( 'NONE',  ( 0.000000000000000000, 0.000000000000000000, 1.000000000000000000 ) ) ;
#190 = CARTESIAN_POINT ( 'NONE',  ( -17.31216575253955625, 22.62368424294448488, 5.000000000000000000 ) ) ;
#191 = CYLINDRICAL_SURFACE ( 'NONE', #378, 6.500000000000000888 ) ;
#192 = DIRECTION ( 'NONE',  ( 1.000000000000000000, 0.000000000000000000, 0.000000000000000000 ) ) ;
#193 = VERTEX_POINT ( 'NONE', #816 ) ;
#194 = ORIENTED_EDGE ( 'NONE', *, *, #290, .F. ) ;
#195 = DIRECTION ( 'NONE',  ( -0.000000000000000000, -0.000000000000000000, -1.000000000000000000 ) ) ;
#196 = DIRECTION ( 'NONE',  ( -1.000000000000000000, 0.000000000000000000, 0.000000000000000000 ) ) ;
#197 = CARTESIAN_POINT ( 'NONE',  ( 10.86184212147224493, 9.623684242944484879, 0.000000000000000000 ) ) ;
#198 = AXIS2_PLACEMENT_3D ( 'NONE', #528, #862, #534 ) ;
#199 = DIRECTION ( 'NONE',  ( 1.000000000000000000, 0.000000000000000000, 0.000000000000000000 ) ) ;
#200 = FACE_OUTER_BOUND ( 'NONE', #915, .T. ) ;
#201 = CARTESIAN_POINT ( 'NONE',  ( -23.93815787852775756, 9.623684242944477774, 2.500000000000000000 ) ) ;
#202 = PLANE ( 'NONE',  #407 ) ;
#203 = FACE_OUTER_BOUND ( 'NONE', #648, .T. ) ;
#204 = CARTESIAN_POINT ( 'NONE',  ( 4.861842121472243150, 9.123684242944484879, 5.000000000000000000 ) ) ;
#205 = EDGE_CURVE ( 'NONE', #469, #292, #77, .T. ) ;
#206 = DIRECTION ( 'NONE',  ( -0.000000000000000000, 0.000000000000000000, 1.000000000000000000 ) ) ;
#207 = ADVANCED_FACE ( 'NONE', ( #740 ), #904, .F. ) ;
#208 = CARTESIAN_POINT ( 'NONE',  ( -23.93815787852775756, 12.62368424294447600, 5.000000000000000000 ) ) ;
#209 = EDGE_LOOP ( 'NONE', ( #793, #304, #157, #137 ) ) ;
#210 = DIRECTION ( 'NONE',  ( -0.000000000000000000, -0.000000000000000000, -1.000000000000000000 ) ) ;
#211 = ADVANCED_BREP_SHAPE_REPRESENTATION ( 'slider - left', ( #383, #898 ), #43 ) ;
#212 = EDGE_CURVE ( 'NONE', #884, #272, #579, .T. ) ;
#213 = EDGE_CURVE ( 'NONE', #851, #479, #389, .T. ) ;
#214 = LINE ( 'NONE', #368, #937 ) ;
#215 = ORIENTED_EDGE ( 'NONE', *, *, #505, .F. ) ;
#216 = VECTOR ( 'NONE', #361, 1000.000000000000000 ) ;
#217 = ORIENTED_EDGE ( 'NONE', *, *, #467, .T. ) ;
#218 = ORIENTED_EDGE ( 'NONE', *, *, #737, .T. ) ;
#219 = APPLICATION_CONTEXT ( 'automotive_design' ) ;
#220 = EDGE_CURVE ( 'NONE', #751, #1005, #308, .T. ) ;
#221 = ORIENTED_EDGE ( 'NONE', *, *, #220, .F. ) ;
#222 = AXIS2_PLACEMENT_3D ( 'NONE', #561, #654, #822 ) ;
#223 = VERTEX_POINT ( 'NONE', #373 ) ;
#224 = VERTEX_POINT ( 'NONE', #859 ) ;
#225 = AXIS2_PLACEMENT_3D ( 'NONE', #248, #419, #994 ) ;
#226 = DIRECTION ( 'NONE',  ( 0.000000000000000000, 0.000000000000000000, 1.000000000000000000 ) ) ;
#227 = VECTOR ( 'NONE', #195, 1000.000000000000000 ) ;
#228 = ORIENTED_EDGE ( 'NONE', *, *, #424, .F. ) ;
#229 = EDGE_LOOP ( 'NONE', ( #63, #703, #188, #45 ) ) ;
#230 = CARTESIAN_POINT ( 'NONE',  ( -14.53815787852776076, 8.123684242944490208, 5.000000000000000000 ) ) ;
#231 = VECTOR ( 'NONE', #800, 1000.000000000000000 ) ;
#232 = DIRECTION ( 'NONE',  ( -1.000000000000000000, 0.000000000000000000, 0.000000000000000000 ) ) ;
#233 = FACE_OUTER_BOUND ( 'NONE', #299, .T. ) ;
#234 = ORIENTED_EDGE ( 'NONE', *, *, #1017, .F. ) ;
#235 = DIRECTION ( 'NONE',  ( -1.000000000000000000, 0.000000000000000000, 0.000000000000000000 ) ) ;
#236 = DIRECTION ( 'NONE',  ( -1.000000000000000000, 0.000000000000000000, 0.000000000000000000 ) ) ;
#237 = DIRECTION ( 'NONE',  ( -0.000000000000000000, -0.000000000000000000, -1.000000000000000000 ) ) ;
#238 = CIRCLE ( 'NONE', #52, 1.249999999999997113 ) ;
#239 = ORIENTED_EDGE ( 'NONE', *, *, #895, .F. ) ;
#240 = VECTOR ( 'NONE', #210, 1000.000000000000000 ) ;
#241 = CARTESIAN_POINT ( 'NONE',  ( 4.861842121472243150, 9.123684242944484879, 0.000000000000000000 ) ) ;
#242 = ADVANCED_FACE ( 'NONE', ( #203 ), #130, .F. ) ;
#243 = CYLINDRICAL_SURFACE ( 'NONE', #966, 4.999999999999999112 ) ;
#244 = EDGE_CURVE ( 'NONE', #872, #782, #865, .T. ) ;
#245 = DIRECTION ( 'NONE',  ( -1.000000000000000000, 0.000000000000000000, 0.000000000000000000 ) ) ;
#246 = VERTEX_POINT ( 'NONE', #790 ) ;
#247 = DIRECTION ( 'NONE',  ( -1.000000000000000000, 0.000000000000000000, 0.000000000000000000 ) ) ;
#248 = CARTESIAN_POINT ( 'NONE',  ( 4.061842121472241551, 9.123684242944484879, 5.000000000000000000 ) ) ;
#249 = DIRECTION ( 'NONE',  ( 0.000000000000000000, -1.000000000000000000, 0.000000000000000000 ) ) ;
#250 = VERTEX_POINT ( 'NONE', #446 ) ;
#251 = DIRECTION ( 'NONE',  ( -0.9980883581120204573, 0.06180315041525850928, 0.000000000000000000 ) ) ;
#252 = VERTEX_POINT ( 'NONE', #127 ) ;
#253 = FACE_BOUND ( 'NONE', #307, .T. ) ;
#254 = FACE_OUTER_BOUND ( 'NONE', #923, .T. ) ;
#255 = DIRECTION ( 'NONE',  ( 0.000000000000000000, 0.000000000000000000, 1.000000000000000000 ) ) ;
#256 = VERTEX_POINT ( 'NONE', #951 ) ;
#257 = ADVANCED_FACE ( 'NONE', ( #377 ), #775, .F. ) ;
#258 = DIRECTION ( 'NONE',  ( -0.000000000000000000, -0.000000000000000000, -1.000000000000000000 ) ) ;
#259 = AXIS2_PLACEMENT_3D ( 'NONE', #120, #449, #945 ) ;
#260 = ORIENTED_EDGE ( 'NONE', *, *, #410, .F. ) ;
#261 = CARTESIAN_POINT ( 'NONE',  ( 18.37085787354854460, 12.91415712814920269, 0.000000000000000000 ) ) ;
#262 = DIRECTION ( 'NONE',  ( -0.000000000000000000, -0.000000000000000000, -1.000000000000000000 ) ) ;
#263 = DIRECTION ( 'NONE',  ( -1.000000000000000000, 0.000000000000000000, 0.000000000000000000 ) ) ;
#264 = VERTEX_POINT ( 'NONE', #364 ) ;
#265 = VERTEX_POINT ( 'NONE', #940 ) ;
#266 = FACE_OUTER_BOUND ( 'NONE', #376, .T. ) ;
#267 = DIRECTION ( 'NONE',  ( 1.000000000000000000, 5.236116925563268710E-16, 0.000000000000000000 ) ) ;
#268 = DIRECTION ( 'NONE',  ( -0.000000000000000000, 0.000000000000000000, 1.000000000000000000 ) ) ;
#269 = VECTOR ( 'NONE', #942, 1000.000000000000000 ) ;
#270 = CIRCLE ( 'NONE', #870, 0.8000000000000020428 ) ;
#271 = SURFACE_STYLE_USAGE ( .BOTH. , #440 ) ;
#272 = VERTEX_POINT ( 'NONE', #696 ) ;
#273 = ORIENTED_EDGE ( 'NONE', *, *, #971, .F. ) ;
#274 = FACE_BOUND ( 'NONE', #570, .T. ) ;
#275 = DIRECTION ( 'NONE',  ( -1.000000000000000000, 0.000000000000000000, 0.000000000000000000 ) ) ;
#276 = EDGE_CURVE ( 'NONE', #782, #872, #620, .T. ) ;
#277 = DIRECTION ( 'NONE',  ( -1.000000000000000000, 0.000000000000000000, 0.000000000000000000 ) ) ;
#278 = ORIENTED_EDGE ( 'NONE', *, *, #276, .T. ) ;
#279 = CARTESIAN_POINT ( 'NONE',  ( -23.93815787852775756, 9.623684242944477774, 3.749999999999997335 ) ) ;
#280 = AXIS2_PLACEMENT_3D ( 'NONE', #453, #375, #693 ) ;
#281 = CARTESIAN_POINT ( 'NONE',  ( 10.06184212147224422, 9.623684242944484879, 5.000000000000000000 ) ) ;
#282 = EDGE_CURVE ( 'NONE', #1033, #574, #765, .T. ) ;
#283 = DIRECTION ( 'NONE',  ( 0.000000000000000000, 0.000000000000000000, -1.000000000000000000 ) ) ;
#284 = DIRECTION ( 'NONE',  ( -0.000000000000000000, 0.000000000000000000, 1.000000000000000000 ) ) ;
#285 = VECTOR ( 'NONE', #905, 1000.000000000000000 ) ;
#286 = DIRECTION ( 'NONE',  ( -0.000000000000000000, 0.000000000000000000, 1.000000000000000000 ) ) ;
#287 = CARTESIAN_POINT ( 'NONE',  ( 15.26184212147224173, 9.123684242944484879, 5.000000000000000000 ) ) ;
#288 = CIRCLE ( 'NONE', #420, 0.8000000000000020428 ) ;
#289 = PRODUCT_DEFINITION_SHAPE ( 'NONE', 'NONE',  #437 ) ;
#290 = EDGE_CURVE ( 'NONE', #578, #1046, #566, .T. ) ;
#291 = DIRECTION ( 'NONE',  ( 0.000000000000000000, 0.000000000000000000, 1.000000000000000000 ) ) ;
#292 = VERTEX_POINT ( 'NONE', #455 ) ;
#293 = CARTESIAN_POINT ( 'NONE',  ( -22.23815787852775827, 4.623684242944484879, 5.000000000000000000 ) ) ;
#294 = VECTOR ( 'NONE', #428, 1000.000000000000000 ) ;
#295 = CARTESIAN_POINT ( 'NONE',  ( 23.06184212147224244, 0.000000000000000000, 5.000000000000000000 ) ) ;
#296 = ORIENTED_EDGE ( 'NONE', *, *, #276, .F. ) ;
#297 = AXIS2_PLACEMENT_3D ( 'NONE', #750, #22, #356 ) ;
#298 = VECTOR ( 'NONE', #1047, 1000.000000000000000 ) ;
#299 = EDGE_LOOP ( 'NONE', ( #94, #468, #909, #548 ) ) ;
#300 = ORIENTED_EDGE ( 'NONE', *, *, #815, .T. ) ;
#301 = VECTOR ( 'NONE', #820, 1000.000000000000000 ) ;
#302 = EDGE_CURVE ( 'NONE', #292, #264, #953, .T. ) ;
#303 = ORIENTED_EDGE ( 'NONE', *, *, #947, .T. ) ;
#304 = ORIENTED_EDGE ( 'NONE', *, *, #828, .T. ) ;
#305 = ORIENTED_EDGE ( 'NONE', *, *, #302, .T. ) ;
#306 = LINE ( 'NONE', #635, #556 ) ;
#307 = EDGE_LOOP ( 'NONE', ( #296, #384 ) ) ;
#308 = LINE ( 'NONE', #968, #125 ) ;
#309 = EDGE_CURVE ( 'NONE', #138, #390, #941, .T. ) ;
#310 = FACE_OUTER_BOUND ( 'NONE', #665, .T. ) ;
#311 = ORIENTED_EDGE ( 'NONE', *, *, #467, .F. ) ;
#312 = VECTOR ( 'NONE', #416, 1000.000000000000000 ) ;
#313 = CARTESIAN_POINT ( 'NONE',  ( 0.03530641332084596962, -6.387517246548182648, 5.000000000000000000 ) ) ;
#314 = EDGE_CURVE ( 'NONE', #992, #252, #20, .T. ) ;
#315 = AXIS2_PLACEMENT_3D ( 'NONE', #615, #286, #612 ) ;
#316 = CARTESIAN_POINT ( 'NONE',  ( -20.63815787852776040, 4.623684242944484879, 5.000000000000000000 ) ) ;
#317 = CARTESIAN_POINT ( 'NONE',  ( -18.93815787852775756, -5.376315757055517786, 3.749999999999999112 ) ) ;
#318 = PRODUCT_RELATED_PRODUCT_CATEGORY ( 'part', '', ( #385 ) ) ;
#319 = EDGE_CURVE ( 'NONE', #1021, #489, #948, .T. ) ;
#320 = FACE_OUTER_BOUND ( 'NONE', #873, .T. ) ;
#321 = DIRECTION ( 'NONE',  ( -1.000000000000000000, 0.000000000000000000, 0.000000000000000000 ) ) ;
#322 = ORIENTED_EDGE ( 'NONE', *, *, #935, .T. ) ;
#323 = AXIS2_PLACEMENT_3D ( 'NONE', #709, #36, #780 ) ;
#324 = DIRECTION ( 'NONE',  ( -1.000000000000000000, -0.000000000000000000, -0.000000000000000000 ) ) ;
#325 = CARTESIAN_POINT ( 'NONE',  ( -23.93815787852775756, -5.376315757055517786, 1.250000000000000888 ) ) ;
#326 = DIRECTION ( 'NONE',  ( 1.000000000000000000, 4.130293990420965692E-17, 0.000000000000000000 ) ) ;
#327 = FACE_OUTER_BOUND ( 'NONE', #960, .T. ) ;
#328 = ORIENTED_EDGE ( 'NONE', *, *, #616, .F. ) ;
#329 = DIRECTION ( 'NONE',  ( 1.000000000000000000, 0.000000000000000000, 0.000000000000000000 ) ) ;
#330 = ORIENTED_EDGE ( 'NONE', *, *, #391, .T. ) ;
#331 = DIRECTION ( 'NONE',  ( 1.000000000000000000, 0.000000000000000000, 0.000000000000000000 ) ) ;
#332 = EDGE_CURVE ( 'NONE', #252, #358, #618, .T. ) ;
#333 = CARTESIAN_POINT ( 'NONE',  ( -18.93815787852775756, -5.376315757055517786, 3.749999999999999112 ) ) ;
#334 = CARTESIAN_POINT ( 'NONE',  ( -18.93815787852775756, 9.623684242944477774, 2.500000000000000000 ) ) ;
#335 = ORIENTED_EDGE ( 'NONE', *, *, #21, .F. ) ;
#336 = FACE_OUTER_BOUND ( 'NONE', #788, .T. ) ;
#337 = ORIENTED_EDGE ( 'NONE', *, *, #588, .T. ) ;
#338 = DIRECTION ( 'NONE',  ( 0.9980883581120204573, -0.06180315041525850928, 0.000000000000000000 ) ) ;
#339 = PLANE ( 'NONE',  #1010 ) ;
#340 = FACE_OUTER_BOUND ( 'NONE', #411, .T. ) ;
#341 = ORIENTED_EDGE ( 'NONE', *, *, #119, .F. ) ;
#342 = VECTOR ( 'NONE', #680, 1000.000000000000000 ) ;
#343 = CARTESIAN_POINT ( 'NONE',  ( 2.133696228931573291, -6.375918590093950122, 5.000000000000000000 ) ) ;
#344 = ORIENTED_EDGE ( 'NONE', *, *, #783, .F. ) ;
#345 = FACE_BOUND ( 'NONE', #714, .T. ) ;
#346 = AXIS2_PLACEMENT_3D ( 'NONE', #704, #206, #199 ) ;
#347 = DIRECTION ( 'NONE',  ( -0.005527323469429327660, 0.9999847242309576334, 0.000000000000000000 ) ) ;
#348 = LINE ( 'NONE', #847, #342 ) ;
#349 = SURFACE_STYLE_FILL_AREA ( #681 ) ;
#350 = ORIENTED_EDGE ( 'NONE', *, *, #939, .T. ) ;
#351 = EDGE_CURVE ( 'NONE', #957, #835, #850, .T. ) ;
#352 = EDGE_LOOP ( 'NONE', ( #473, #379, #1071, #442 ) ) ;
#353 = DIRECTION ( 'NONE',  ( -1.000000000000000000, 0.000000000000000000, 0.000000000000000000 ) ) ;
#354 = DIRECTION ( 'NONE',  ( -1.000000000000000000, 0.000000000000000000, 0.000000000000000000 ) ) ;
#355 = CARTESIAN_POINT ( 'NONE',  ( 0.8667797149006970514, 13.99803629228021684, 5.000000000000000000 ) ) ;
#356 = DIRECTION ( 'NONE',  ( -1.000000000000000000, 0.000000000000000000, 0.000000000000000000 ) ) ;
#357 = ADVANCED_FACE ( 'NONE', ( #336 ), #674, .F. ) ;
#358 = VERTEX_POINT ( 'NONE', #930 ) ;
#359 = EDGE_CURVE ( 'NONE', #32, #1033, #6, .T. ) ;
#360 = LINE ( 'NONE', #691, #269 ) ;
#362 = ADVANCED_FACE ( 'NONE', ( #849 ), #31, .F. ) ;
#361 = DIRECTION ( 'NONE',  ( -0.000000000000000000, -0.000000000000000000, -1.000000000000000000 ) ) ;
#363 = DIRECTION ( 'NONE',  ( -1.000000000000000000, 0.000000000000000000, 0.000000000000000000 ) ) ;
#364 = CARTESIAN_POINT ( 'NONE',  ( 15.06184212147224422, 6.623684242944484879, 5.000000000000000000 ) ) ;
#365 = VECTOR ( 'NONE', #1030, 1000.000000000000000 ) ;
#366 = CIRCLE ( 'NONE', #723, 1.249999999999997113 ) ;
#367 = DIRECTION ( 'NONE',  ( -0.000000000000000000, -0.000000000000000000, -1.000000000000000000 ) ) ;
#368 = CARTESIAN_POINT ( 'NONE',  ( -4.338157878527758804, 8.123684242944490208, 5.000000000000000000 ) ) ;
#369 = DIRECTION ( 'NONE',  ( 1.000000000000000000, 0.000000000000000000, 0.000000000000000000 ) ) ;
#370 = VECTOR ( 'NONE', #576, 1000.000000000000000 ) ;
#371 = DIRECTION ( 'NONE',  ( -0.000000000000000000, 0.000000000000000000, -1.000000000000000000 ) ) ;
#372 = VERTEX_POINT ( 'NONE', #580 ) ;
#373 = CARTESIAN_POINT ( 'NONE',  ( -17.31216575253948520, 12.62368424294447955, 0.000000000000000000 ) ) ;
#374 = AXIS2_PLACEMENT_3D ( 'NONE', #559, #237, #472 ) ;
#375 = DIRECTION ( 'NONE',  ( -0.000000000000000000, 0.000000000000000000, 1.000000000000000000 ) ) ;
#376 = EDGE_LOOP ( 'NONE', ( #622, #513, #522, #1041 ) ) ;
#377 = FACE_OUTER_BOUND ( 'NONE', #978, .T. ) ;
#378 = AXIS2_PLACEMENT_3D ( 'NONE', #502, #184, #11 ) ;
#379 = ORIENTED_EDGE ( 'NONE', *, *, #986, .T. ) ;
#380 = ORIENTED_EDGE ( 'NONE', *, *, #143, .T. ) ;
#381 = ORIENTED_EDGE ( 'NONE', *, *, #609, .F. ) ;
#382 = ORIENTED_EDGE ( 'NONE', *, *, #95, .T. ) ;
#383 = MANIFOLD_SOLID_BREP ( 'Boss-Extrude2', #458 ) ;
#384 = ORIENTED_EDGE ( 'NONE', *, *, #244, .F. ) ;
#385 = PRODUCT ( 'slider - left', 'slider - left', '', ( #102 ) ) ;
#386 = ORIENTED_EDGE ( 'NONE', *, *, #213, .T. ) ;
#387 = VERTEX_POINT ( 'NONE', #171 ) ;
#388 = CYLINDRICAL_SURFACE ( 'NONE', #374, 6.500000000000000888 ) ;
#389 = CIRCLE ( 'NONE', #912, 1.249999999999998890 ) ;
#390 = VERTEX_POINT ( 'NONE', #430 ) ;
#391 = EDGE_CURVE ( 'NONE', #541, #224, #731, .T. ) ;
#392 = DIRECTION ( 'NONE',  ( 1.000000000000000000, 5.236116925563268710E-16, 0.000000000000000000 ) ) ;
#393 = ADVANCED_FACE ( 'NONE', ( #597 ), #688, .F. ) ;
#394 = DIRECTION ( 'NONE',  ( -0.000000000000000000, 0.000000000000000000, 1.000000000000000000 ) ) ;
#395 = CARTESIAN_POINT ( 'NONE',  ( -23.93815787852775756, 12.62368424294447600, 0.000000000000000000 ) ) ;
#396 = ORIENTED_EDGE ( 'NONE', *, *, #1012, .T. ) ;
#397 = EDGE_CURVE ( 'NONE', #1037, #1054, #512, .T. ) ;
#398 = AXIS2_PLACEMENT_3D ( 'NONE', #91, #1068, #726 ) ;
#399 = VECTOR ( 'NONE', #589, 1000.000000000000000 ) ;
#400 = DIRECTION ( 'NONE',  ( -0.000000000000000000, 0.000000000000000000, 1.000000000000000000 ) ) ;
#401 = LINE ( 'NONE', #640, #856 ) ;
#402 = FACE_BOUND ( 'NONE', #1066, .T. ) ;
#403 = ORIENTED_EDGE ( 'NONE', *, *, #519, .F. ) ;
#404 = DIRECTION ( 'NONE',  ( 0.9999847242309575224, 0.005527323469429326792, 0.000000000000000000 ) ) ;
#405 = LINE ( 'NONE', #734, #482 ) ;
#406 = DIRECTION ( 'NONE',  ( -0.000000000000000000, 0.000000000000000000, 1.000000000000000000 ) ) ;
#407 = AXIS2_PLACEMENT_3D ( 'NONE', #781, #283, #44 ) ;
#408 = ORIENTED_EDGE ( 'NONE', *, *, #670, .T. ) ;
#409 =( NAMED_UNIT ( * ) PLANE_ANGLE_UNIT ( ) SI_UNIT ( $, .RADIAN. ) );
#410 = EDGE_CURVE ( 'NONE', #931, #801, #270, .T. ) ;
#411 = EDGE_LOOP ( 'NONE', ( #330, #457 ) ) ;
#412 = FACE_BOUND ( 'NONE', #84, .T. ) ;
#413 =( NAMED_UNIT ( * ) SI_UNIT ( $, .STERADIAN. ) SOLID_ANGLE_UNIT ( ) );
#414 = FACE_OUTER_BOUND ( 'NONE', #689, .T. ) ;
#415 = ORIENTED_EDGE ( 'NONE', *, *, #162, .T. ) ;
#416 = DIRECTION ( 'NONE',  ( -0.000000000000000000, -0.000000000000000000, -1.000000000000000000 ) ) ;
#417 = ORIENTED_EDGE ( 'NONE', *, *, #785, .T. ) ;
#418 = FACE_OUTER_BOUND ( 'NONE', #565, .T. ) ;
#419 = DIRECTION ( 'NONE',  ( -0.000000000000000000, 0.000000000000000000, 1.000000000000000000 ) ) ;
#420 = AXIS2_PLACEMENT_3D ( 'NONE', #65, #488, #641 ) ;
#421 = DIRECTION ( 'NONE',  ( -0.000000000000000000, -0.000000000000000000, -1.000000000000000000 ) ) ;
#422 = ORIENTED_EDGE ( 'NONE', *, *, #796, .F. ) ;
#423 = CARTESIAN_POINT ( 'NONE',  ( 23.06184212147224244, -3.376315757055515121, 5.000000000000000000 ) ) ;
#424 = EDGE_CURVE ( 'NONE', #469, #256, #13, .T. ) ;
#425 = ORIENTED_EDGE ( 'NONE', *, *, #1043, .F. ) ;
#426 = DIRECTION ( 'NONE',  ( -0.000000000000000000, 0.000000000000000000, 1.000000000000000000 ) ) ;
#427 = CARTESIAN_POINT ( 'NONE',  ( 16.06184212147224244, 9.123684242944484879, 0.000000000000000000 ) ) ;
#428 = DIRECTION ( 'NONE',  ( -0.000000000000000000, -0.000000000000000000, -1.000000000000000000 ) ) ;
#429 = VECTOR ( 'NONE', #117, 1000.000000000000000 ) ;
#430 = CARTESIAN_POINT ( 'NONE',  ( 3.261842121472240397, 9.123684242944484879, 0.000000000000000000 ) ) ;
#431 = ORIENTED_EDGE ( 'NONE', *, *, #858, .T. ) ;
#432 = CARTESIAN_POINT ( 'NONE',  ( 16.86184212147224315, 9.123684242944484879, 0.000000000000000000 ) ) ;
#433 = CARTESIAN_POINT ( 'NONE',  ( 0.8667797149006970514, 13.99803629228021684, 5.000000000000000000 ) ) ;
#434 = STYLED_ITEM ( 'NONE', ( #605 ), #383 ) ;
#435 = LINE ( 'NONE', #38, #921 ) ;
#436 = CARTESIAN_POINT ( 'NONE',  ( -9.438157878527759337, 8.123684242944490208, 1.000000000000000000 ) ) ;
#437 = PRODUCT_DEFINITION ( 'UNKNOWN', '', #623, #852 ) ;
#438 = EDGE_CURVE ( 'NONE', #782, #931, #521, .T. ) ;
#439 = APPLICATION_CONTEXT ( 'automotive_design' ) ;
#440 = SURFACE_SIDE_STYLE ('',( #349 ) ) ;
#441 = EDGE_CURVE ( 'NONE', #578, #826, #491, .T. ) ;
#442 = ORIENTED_EDGE ( 'NONE', *, *, #309, .F. ) ;
#443 = CARTESIAN_POINT ( 'NONE',  ( -23.93815787852775756, -8.376315757055516897, 0.000000000000000000 ) ) ;
#444 = PLANE ( 'NONE',  #846 ) ;
#445 = CYLINDRICAL_SURFACE ( 'NONE', #1024, 6.499999999999992006 ) ;
#446 = CARTESIAN_POINT ( 'NONE',  ( -4.338157878527758804, 8.123684242944490208, 5.000000000000000000 ) ) ;
#447 = CARTESIAN_POINT ( 'NONE',  ( -14.53815787852776076, 8.123684242944490208, 1.000000000000000000 ) ) ;
#448 = CARTESIAN_POINT ( 'NONE',  ( -23.93815787852775756, -8.376315757055516897, 5.000000000000000000 ) ) ;
#449 = DIRECTION ( 'NONE',  ( -4.130293990420965692E-17, 1.000000000000000000, 0.000000000000000000 ) ) ;
#450 = AXIS2_PLACEMENT_3D ( 'NONE', #603, #944, #118 ) ;
#451 = EDGE_CURVE ( 'NONE', #957, #390, #1, .T. ) ;
#452 = AXIS2_PLACEMENT_3D ( 'NONE', #167, #475, #493 ) ;
#453 = CARTESIAN_POINT ( 'NONE',  ( -21.43815787852776111, 4.623684242944484879, 5.000000000000000000 ) ) ;
#454 = EDGE_LOOP ( 'NONE', ( #591, #25, #721, #883 ) ) ;
#455 = CARTESIAN_POINT ( 'NONE',  ( 14.13290189500542304, -6.309594085843541755, 5.000000000000000000 ) ) ;
#456 = DIRECTION ( 'NONE',  ( 0.000000000000000000, 0.000000000000000000, 1.000000000000000000 ) ) ;
#457 = ORIENTED_EDGE ( 'NONE', *, *, #809, .T. ) ;
#458 = CLOSED_SHELL ( 'NONE', ( #56, #257, #516, #58, #207, #98, #474, #357, #1044, #732, #164, #37, #802, #887, #490, #936, #242, #634, #547, #881, #1042, #393, #531, #362, #700, #1039, #156, #14, #864, #708, #711, #624, #719 ) ) ;
#459 = CARTESIAN_POINT ( 'NONE',  ( 10.06184212147224422, 9.623684242944484879, 5.000000000000000000 ) ) ;
#460 = AXIS2_PLACEMENT_3D ( 'NONE', #1065, #321, #652 ) ;
#461 = ORIENTED_EDGE ( 'NONE', *, *, #609, .T. ) ;
#462 = EDGE_CURVE ( 'NONE', #843, #223, #81, .T. ) ;
#463 = AXIS2_PLACEMENT_3D ( 'NONE', #929, #249, #29 ) ;
#464 = VERTEX_POINT ( 'NONE', #447 ) ;
#465 = VERTEX_POINT ( 'NONE', #1028 ) ;
#466 = ORIENTED_EDGE ( 'NONE', *, *, #205, .F. ) ;
#467 = EDGE_CURVE ( 'NONE', #751, #843, #669, .T. ) ;
#468 = ORIENTED_EDGE ( 'NONE', *, *, #213, .F. ) ;
#469 = VERTEX_POINT ( 'NONE', #773 ) ;
#470 = ORIENTED_EDGE ( 'NONE', *, *, #64, .F. ) ;
#471 = AXIS2_PLACEMENT_3D ( 'NONE', #155, #70, #226 ) ;
#472 = DIRECTION ( 'NONE',  ( -1.000000000000000000, 0.000000000000000000, 0.000000000000000000 ) ) ;
#473 = ORIENTED_EDGE ( 'NONE', *, *, #828, .F. ) ;
#474 = ADVANCED_FACE ( 'NONE', ( #526 ), #845, .F. ) ;
#475 = DIRECTION ( 'NONE',  ( -0.000000000000000000, -0.000000000000000000, -1.000000000000000000 ) ) ;
#476 = AXIS2_PLACEMENT_3D ( 'NONE', #281, #918, #517 ) ;
#477 = CARTESIAN_POINT ( 'NONE',  ( -21.43815787852776111, 4.623684242944484879, 5.000000000000000000 ) ) ;
#478 = DIRECTION ( 'NONE',  ( -0.000000000000000000, 0.000000000000000000, 1.000000000000000000 ) ) ;
#479 = VERTEX_POINT ( 'NONE', #686 ) ;
#480 = AXIS2_PLACEMENT_3D ( 'NONE', #532, #611, #369 ) ;
#481 = LINE ( 'NONE', #567, #875 ) ;
#482 = VECTOR ( 'NONE', #232, 1000.000000000000000 ) ;
#483 = LINE ( 'NONE', #333, #370 ) ;
#484 = CARTESIAN_POINT ( 'NONE',  ( -21.43815787852776111, 4.623684242944484879, 5.000000000000000000 ) ) ;
#485 = EDGE_LOOP ( 'NONE', ( #425, #974, #868, #496 ) ) ;
#486 = CARTESIAN_POINT ( 'NONE',  ( -23.93815787852775756, 9.623684242944477774, 2.500000000000000000 ) ) ;
#487 = CARTESIAN_POINT ( 'NONE',  ( -17.31216575253948520, 12.62368424294447955, 5.000000000000000000 ) ) ;
#488 = DIRECTION ( 'NONE',  ( -0.000000000000000000, 0.000000000000000000, 1.000000000000000000 ) ) ;
#489 = VERTEX_POINT ( 'NONE', #110 ) ;
#490 = ADVANCED_FACE ( 'NONE', ( #121 ), #339, .T. ) ;
#491 = LINE ( 'NONE', #922, #30 ) ;
#492 = ORIENTED_EDGE ( 'NONE', *, *, #969, .T. ) ;
#493 = DIRECTION ( 'NONE',  ( -1.000000000000000000, 0.000000000000000000, 0.000000000000000000 ) ) ;
#494 = LINE ( 'NONE', #906, #535 ) ;
#495 = CIRCLE ( 'NONE', #604, 1.249999999999998890 ) ;
#496 = ORIENTED_EDGE ( 'NONE', *, *, #625, .F. ) ;
#497 = VECTOR ( 'NONE', #404, 1000.000000000000114 ) ;
#498 = CARTESIAN_POINT ( 'NONE',  ( -18.93815787852775756, 9.623684242944477774, 2.500000000000000000 ) ) ;
#499 = ORIENTED_EDGE ( 'NONE', *, *, #655, .F. ) ;
#500 = DIRECTION ( 'NONE',  ( -1.000000000000000000, 0.000000000000000000, 0.000000000000000000 ) ) ;
#501 = DIRECTION ( 'NONE',  ( -0.000000000000000000, -0.000000000000000000, -1.000000000000000000 ) ) ;
#502 = CARTESIAN_POINT ( 'NONE',  ( 15.06184212147123702, 0.1236842429444846153, 5.000000000000000000 ) ) ;
#503 = ORIENTED_EDGE ( 'NONE', *, *, #738, .T. ) ;
#504 = AXIS2_PLACEMENT_3D ( 'NONE', #1059, #10, #236 ) ;
#505 = EDGE_CURVE ( 'NONE', #166, #716, #435, .T. ) ;
#506 = CARTESIAN_POINT ( 'NONE',  ( 0.8667797149006970514, 13.99803629228021684, 0.000000000000000000 ) ) ;
#507 = ORIENTED_EDGE ( 'NONE', *, *, #544, .F. ) ;
#508 = DIRECTION ( 'NONE',  ( 1.000000000000000000, 0.000000000000000000, 0.000000000000000000 ) ) ;
#509 = CARTESIAN_POINT ( 'NONE',  ( -18.93815787852775756, 9.623684242944477774, 1.250000000000002665 ) ) ;
#510 = DIRECTION ( 'NONE',  ( 1.000000000000000000, 0.000000000000000000, 0.000000000000000000 ) ) ;
#511 = EDGE_CURVE ( 'NONE', #1005, #1049, #685, .T. ) ;
#512 = LINE ( 'NONE', #423, #312 ) ;
#513 = ORIENTED_EDGE ( 'NONE', *, *, #545, .T. ) ;
#514 = ORIENTED_EDGE ( 'NONE', *, *, #160, .F. ) ;
#515 = CYLINDRICAL_SURFACE ( 'NONE', #180, 0.8000000000000020428 ) ;
#516 = ADVANCED_FACE ( 'NONE', ( #769 ), #697, .F. ) ;
#517 = DIRECTION ( 'NONE',  ( -1.000000000000000000, 0.000000000000000000, 0.000000000000000000 ) ) ;
#518 = CARTESIAN_POINT ( 'NONE',  ( -18.93815787852775756, 9.623684242944477774, 2.500000000000000000 ) ) ;
#519 = EDGE_CURVE ( 'NONE', #716, #560, #150, .T. ) ;
#520 = VECTOR ( 'NONE', #1002, 1000.000000000000000 ) ;
#521 = LINE ( 'NONE', #1020, #73 ) ;
#522 = ORIENTED_EDGE ( 'NONE', *, *, #179, .T. ) ;
#523 = ORIENTED_EDGE ( 'NONE', *, *, #595, .F. ) ;
#524 = PLANE ( 'NONE',  #639 ) ;
#525 = PRESENTATION_LAYER_ASSIGNMENT (  '', '', ( #434 ) ) ;
#526 = FACE_OUTER_BOUND ( 'NONE', #916, .T. ) ;
#527 = FACE_OUTER_BOUND ( 'NONE', #1045, .T. ) ;
#528 = CARTESIAN_POINT ( 'NONE',  ( 18.06184212147224244, 7.923715337589103846, 5.000000000000000000 ) ) ;
#529 = DIRECTION ( 'NONE',  ( -0.000000000000000000, -0.000000000000000000, -1.000000000000000000 ) ) ;
#530 = DIRECTION ( 'NONE',  ( -1.000000000000000000, 0.000000000000000000, 0.000000000000000000 ) ) ;
#531 = ADVANCED_FACE ( 'NONE', ( #601 ), #1023, .F. ) ;
#532 = CARTESIAN_POINT ( 'NONE',  ( -9.438157878527759337, 8.123684242944486655, 0.000000000000000000 ) ) ;
#533 = LINE ( 'NONE', #698, #365 ) ;
#534 = DIRECTION ( 'NONE',  ( 1.000000000000000000, 0.000000000000000000, 0.000000000000000000 ) ) ;
#535 = VECTOR ( 'NONE', #93, 1000.000000000000000 ) ;
#536 = DIRECTION ( 'NONE',  ( -0.000000000000000000, -0.000000000000000000, -1.000000000000000000 ) ) ;
#537 = ORIENTED_EDGE ( 'NONE', *, *, #595, .T. ) ;
#538 = CARTESIAN_POINT ( 'NONE',  ( 4.061842121472241551, 9.123684242944484879, 5.000000000000000000 ) ) ;
#539 = CARTESIAN_POINT ( 'NONE',  ( -9.438157878527759337, 8.123684242944490208, 1.000000000000000000 ) ) ;
#540 = EDGE_CURVE ( 'NONE', #358, #12, #619, .T. ) ;
#541 = VERTEX_POINT ( 'NONE', #934 ) ;
#542 = CIRCLE ( 'NONE', #89, 4.999999999999997335 ) ;
#543 =( GEOMETRIC_REPRESENTATION_CONTEXT ( 3 ) GLOBAL_UNCERTAINTY_ASSIGNED_CONTEXT ( ( #690 ) ) GLOBAL_UNIT_ASSIGNED_CONTEXT ( ( #165, #409, #1011 ) ) REPRESENTATION_CONTEXT ( 'NONE', 'WORKASPACE' ) );
#544 = EDGE_CURVE ( 'NONE', #80, #265, #238, .T. ) ;
#545 = EDGE_CURVE ( 'NONE', #224, #265, #183, .T. ) ;
#546 = EDGE_LOOP ( 'NONE', ( #461, #341, #2, #7, #637, #300, #746, #53, #902 ) ) ;
#547 = ADVANCED_FACE ( 'NONE', ( #18 ), #444, .T. ) ;
#548 = ORIENTED_EDGE ( 'NONE', *, *, #21, .T. ) ;
#549 = AXIS2_PLACEMENT_3D ( 'NONE', #124, #1032, #291 ) ;
#550 = ORIENTED_EDGE ( 'NONE', *, *, #126, .T. ) ;
#551 = ORIENTED_EDGE ( 'NONE', *, *, #1052, .T. ) ;
#552 = EDGE_LOOP ( 'NONE', ( #239, #744, #67, #113, #62, #221, #151, #799, #537 ) ) ;
#553 = FACE_BOUND ( 'NONE', #683, .T. ) ;
#554 = ORIENTED_EDGE ( 'NONE', *, *, #220, .T. ) ;
#555 = EDGE_LOOP ( 'NONE', ( #771, #598 ) ) ;
#556 = VECTOR ( 'NONE', #972, 1000.000000000000000 ) ;
#557 = FACE_OUTER_BOUND ( 'NONE', #552, .T. ) ;
#558 = DIRECTION ( 'NONE',  ( -0.000000000000000000, -0.000000000000000000, -1.000000000000000000 ) ) ;
#559 = CARTESIAN_POINT ( 'NONE',  ( 2.061842121472243328, 0.1236842429444846153, 5.000000000000000000 ) ) ;
#560 = VERTEX_POINT ( 'NONE', #1007 ) ;
#561 = CARTESIAN_POINT ( 'NONE',  ( 16.06184212147224244, 9.123684242944484879, 5.000000000000000000 ) ) ;
#562 = AXIS2_PLACEMENT_3D ( 'NONE', #995, #268, #510 ) ;
#563 = CARTESIAN_POINT ( 'NONE',  ( -9.438157878527759337, 8.123684242944490208, 5.000000000000000000 ) ) ;
#564 = CARTESIAN_POINT ( 'NONE',  ( 18.06184212147224244, 7.923715337589103846, 0.000000000000000000 ) ) ;
#565 = EDGE_LOOP ( 'NONE', ( #628, #328, #1003, #682 ) ) ;
#566 = CIRCLE ( 'NONE', #198, 4.999999999999997335 ) ;
#567 = CARTESIAN_POINT ( 'NONE',  ( -23.93815787852775756, 0.000000000000000000, 5.000000000000000000 ) ) ;
#568 = DIRECTION ( 'NONE',  ( 1.000000000000000000, 0.000000000000000000, 0.000000000000000000 ) ) ;
#569 = CARTESIAN_POINT ( 'NONE',  ( 4.861842121472243150, 9.123684242944484879, 5.000000000000000000 ) ) ;
#570 = EDGE_LOOP ( 'NONE', ( #878, #503 ) ) ;
#571 = DIRECTION ( 'NONE',  ( 0.000000000000000000, 0.000000000000000000, 1.000000000000000000 ) ) ;
#572 = CARTESIAN_POINT ( 'NONE',  ( -18.93815787852775756, -5.376315757055517786, 2.500000000000000000 ) ) ;
#573 = ORIENTED_EDGE ( 'NONE', *, *, #785, .F. ) ;
#574 = VERTEX_POINT ( 'NONE', #594 ) ;
#575 = CARTESIAN_POINT ( 'NONE',  ( 15.06184212147123702, 0.1236842429444846153, 0.000000000000000000 ) ) ;
#576 = DIRECTION ( 'NONE',  ( -1.000000000000000000, -0.000000000000000000, -0.000000000000000000 ) ) ;
#577 = CARTESIAN_POINT ( 'NONE',  ( 2.061842121472243328, 6.623684242944484879, 0.000000000000000000 ) ) ;
#578 = VERTEX_POINT ( 'NONE', #927 ) ;
#579 = CIRCLE ( 'NONE', #41, 6.500000000000000888 ) ;
#580 = CARTESIAN_POINT ( 'NONE',  ( -20.63815787852776040, 4.623684242944484879, 0.000000000000000000 ) ) ;
#581 = ORIENTED_EDGE ( 'NONE', *, *, #314, .T. ) ;
#582 = DIRECTION ( 'NONE',  ( -1.000000000000000000, 0.000000000000000000, 0.000000000000000000 ) ) ;
#583 = DIRECTION ( 'NONE',  ( 1.000000000000000000, 0.000000000000000000, 0.000000000000000000 ) ) ;
#584 = EDGE_CURVE ( 'NONE', #90, #843, #348, .T. ) ;
#585 = DIRECTION ( 'NONE',  ( 0.000000000000000000, 0.000000000000000000, 1.000000000000000000 ) ) ;
#586 = CARTESIAN_POINT ( 'NONE',  ( 23.06184212147224244, 0.000000000000000000, 0.000000000000000000 ) ) ;
#587 = ORIENTED_EDGE ( 'NONE', *, *, #438, .F. ) ;
#588 = EDGE_CURVE ( 'NONE', #1049, #574, #494, .T. ) ;
#589 = DIRECTION ( 'NONE',  ( -0.000000000000000000, -0.000000000000000000, -1.000000000000000000 ) ) ;
#590 = ORIENTED_EDGE ( 'NONE', *, *, #332, .T. ) ;
#591 = ORIENTED_EDGE ( 'NONE', *, *, #95, .F. ) ;
#592 = CYLINDRICAL_SURFACE ( 'NONE', #919, 1.249999999999997113 ) ;
#593 = AXIS2_PLACEMENT_3D ( 'NONE', #108, #582, #1006 ) ;
#595 = EDGE_CURVE ( 'NONE', #193, #1037, #710, .T. ) ;
#594 = CARTESIAN_POINT ( 'NONE',  ( -12.54003976828997580, 13.83580545506569592, 0.000000000000000000 ) ) ;
#596 = PLANE ( 'NONE',  #463 ) ;
#597 = FACE_OUTER_BOUND ( 'NONE', #352, .T. ) ;
#598 = ORIENTED_EDGE ( 'NONE', *, *, #986, .F. ) ;
#599 = ORIENTED_EDGE ( 'NONE', *, *, #23, .T. ) ;
#600 = CARTESIAN_POINT ( 'NONE',  ( -17.31216575253948520, 12.62368424294447955, 5.000000000000000000 ) ) ;
#601 = FACE_OUTER_BOUND ( 'NONE', #229, .T. ) ;
#602 = DIRECTION ( 'NONE',  ( 1.000000000000000000, 0.000000000000000000, 0.000000000000000000 ) ) ;
#603 = CARTESIAN_POINT ( 'NONE',  ( 10.06184212147224422, 9.623684242944484879, 0.000000000000000000 ) ) ;
#604 = AXIS2_PLACEMENT_3D ( 'NONE', #701, #128, #456 ) ;
#605 = PRESENTATION_STYLE_ASSIGNMENT (( #271 ) ) ;
#606 = ORIENTED_EDGE ( 'NONE', *, *, #754, .F. ) ;
#607 = CARTESIAN_POINT ( 'NONE',  ( 10.06184212147224422, 9.623684242944484879, 5.000000000000000000 ) ) ;
#608 = CARTESIAN_POINT ( 'NONE',  ( -6.609908672744797738E-15, 12.62368424294448843, 5.000000000000000000 ) ) ;
#609 = EDGE_CURVE ( 'NONE', #826, #1054, #672, .T. ) ;
#610 = DIRECTION ( 'NONE',  ( -0.000000000000000000, 0.000000000000000000, 1.000000000000000000 ) ) ;
#611 = DIRECTION ( 'NONE',  ( -0.000000000000000000, 0.000000000000000000, 1.000000000000000000 ) ) ;
#612 = DIRECTION ( 'NONE',  ( 1.000000000000000000, 0.000000000000000000, 0.000000000000000000 ) ) ;
#613 = AXIS2_PLACEMENT_3D ( 'NONE', #647, #161, #880 ) ;
#614 = DIRECTION ( 'NONE',  ( -0.000000000000000000, 0.000000000000000000, 1.000000000000000000 ) ) ;
#615 = CARTESIAN_POINT ( 'NONE',  ( -9.438157878527759337, 8.123684242944486655, 5.000000000000000000 ) ) ;
#616 = EDGE_CURVE ( 'NONE', #984, #1033, #748, .T. ) ;
#617 = ORIENTED_EDGE ( 'NONE', *, *, #891, .T. ) ;
#618 = LINE ( 'NONE', #287, #240 ) ;
#619 = CIRCLE ( 'NONE', #109, 0.8000000000000020428 ) ;
#620 = CIRCLE ( 'NONE', #346, 0.8000000000000020428 ) ;
#621 = DIRECTION ( 'NONE',  ( 1.000000000000000000, 0.000000000000000000, -0.000000000000000000 ) ) ;
#622 = ORIENTED_EDGE ( 'NONE', *, *, #809, .F. ) ;
#623 = PRODUCT_DEFINITION_FORMATION_WITH_SPECIFIED_SOURCE ( 'ANY', '', #385, .NOT_KNOWN. ) ;
#624 = ADVANCED_FACE ( 'NONE', ( #340 ), #687, .T. ) ;
#625 = EDGE_CURVE ( 'NONE', #560, #256, #890, .T. ) ;
#626 = EDGE_LOOP ( 'NONE', ( #819, #642 ) ) ;
#627 = AXIS2_PLACEMENT_3D ( 'NONE', #97, #258, #666 ) ;
#628 = ORIENTED_EDGE ( 'NONE', *, *, #359, .T. ) ;
#629 = ORIENTED_EDGE ( 'NONE', *, *, #282, .T. ) ;
#630 = ORIENTED_EDGE ( 'NONE', *, *, #540, .T. ) ;
#631 = ORIENTED_EDGE ( 'NONE', *, *, #1001, .F. ) ;
#632 = AXIS2_PLACEMENT_3D ( 'NONE', #334, #664, #255 ) ;
#633 = CIRCLE ( 'NONE', #824, 0.7999999999999986011 ) ;
#634 = ADVANCED_FACE ( 'NONE', ( #920 ), #191, .F. ) ;
#635 = CARTESIAN_POINT ( 'NONE',  ( -23.93815787852775756, -8.376315757055516897, 5.000000000000000000 ) ) ;
#636 = ORIENTED_EDGE ( 'NONE', *, *, #1001, .T. ) ;
#637 = ORIENTED_EDGE ( 'NONE', *, *, #462, .T. ) ;
#638 = FACE_BOUND ( 'NONE', #707, .T. ) ;
#639 = AXIS2_PLACEMENT_3D ( 'NONE', #433, #854, #338 ) ;
#640 = CARTESIAN_POINT ( 'NONE',  ( 15.06184212147224422, 6.623684242944484879, 5.000000000000000000 ) ) ;
#641 = DIRECTION ( 'NONE',  ( 1.000000000000000000, 0.000000000000000000, 0.000000000000000000 ) ) ;
#642 = ORIENTED_EDGE ( 'NONE', *, *, #309, .T. ) ;
#643 = CIRCLE ( 'NONE', #222, 0.8000000000000020428 ) ;
#644 = CIRCLE ( 'NONE', #787, 4.999999999999997335 ) ;
#645 = DIRECTION ( 'NONE',  ( 0.000000000000000000, 0.000000000000000000, 1.000000000000000000 ) ) ;
#646 = CARTESIAN_POINT ( 'NONE',  ( -9.036437400828607025, 14.61125857067261613, 0.000000000000000000 ) ) ;
#647 = CARTESIAN_POINT ( 'NONE',  ( -17.31216575253955625, 22.62368424294448488, 5.000000000000000000 ) ) ;
#648 = EDGE_LOOP ( 'NONE', ( #350, #61, #344, #617 ) ) ;
#649 = CYLINDRICAL_SURFACE ( 'NONE', #962, 4.999999999999997335 ) ;
#650 = EDGE_CURVE ( 'NONE', #246, #469, #979, .T. ) ;
#651 =( LENGTH_UNIT ( ) NAMED_UNIT ( * ) SI_UNIT ( .MILLI., .METRE. ) );
#652 = DIRECTION ( 'NONE',  ( 0.000000000000000000, 0.000000000000000000, 1.000000000000000000 ) ) ;
#653 = ORIENTED_EDGE ( 'NONE', *, *, #135, .T. ) ;
#654 = DIRECTION ( 'NONE',  ( -0.000000000000000000, 0.000000000000000000, 1.000000000000000000 ) ) ;
#655 = EDGE_CURVE ( 'NONE', #1046, #32, #763, .T. ) ;
#656 = DIRECTION ( 'NONE',  ( -0.000000000000000000, -0.000000000000000000, -1.000000000000000000 ) ) ;
#657 = LINE ( 'NONE', #988, #298 ) ;
#658 = CARTESIAN_POINT ( 'NONE',  ( 18.06184212147224244, -3.376315757055515121, 5.000000000000000000 ) ) ;
#659 = ORIENTED_EDGE ( 'NONE', *, *, #789, .T. ) ;
#660 = CARTESIAN_POINT ( 'NONE',  ( 16.06184212147224244, 9.123684242944484879, 5.000000000000000000 ) ) ;
#661 = ORIENTED_EDGE ( 'NONE', *, *, #1043, .T. ) ;
#662 = DIRECTION ( 'NONE',  ( -0.000000000000000000, 0.000000000000000000, 1.000000000000000000 ) ) ;
#663 = CYLINDRICAL_SURFACE ( 'NONE', #116, 0.7999999999999986011 ) ;
#664 = DIRECTION ( 'NONE',  ( -1.000000000000000000, -0.000000000000000000, -0.000000000000000000 ) ) ;
#665 = EDGE_LOOP ( 'NONE', ( #990, #667, #673, #337 ) ) ;
#666 = DIRECTION ( 'NONE',  ( -1.000000000000000000, 0.000000000000000000, 0.000000000000000000 ) ) ;
#667 = ORIENTED_EDGE ( 'NONE', *, *, #23, .F. ) ;
#668 = LINE ( 'NONE', #600, #227 ) ;
#669 = LINE ( 'NONE', #34, #216 ) ;
#670 = EDGE_CURVE ( 'NONE', #464, #387, #814, .T. ) ;
#671 = AXIS2_PLACEMENT_3D ( 'NONE', #914, #103, #177 ) ;
#672 = LINE ( 'NONE', #586, #520 ) ;
#673 = ORIENTED_EDGE ( 'NONE', *, *, #511, .T. ) ;
#674 = CYLINDRICAL_SURFACE ( 'NONE', #297, 5.100000000000000533 ) ;
#675 = ORIENTED_EDGE ( 'NONE', *, *, #54, .F. ) ;
#676 = FACE_OUTER_BOUND ( 'NONE', #546, .T. ) ;
#677 = DIRECTION ( 'NONE',  ( -0.9999847242309575224, -0.005527323469429326792, 0.000000000000000000 ) ) ;
#678 = CARTESIAN_POINT ( 'NONE',  ( 0.000000000000000000, 0.000000000000000000, 0.000000000000000000 ) ) ;
#679 = CIRCLE ( 'NONE', #225, 0.8000000000000012657 ) ;
#680 = DIRECTION ( 'NONE',  ( 0.000000000000000000, 1.000000000000000000, -0.000000000000000000 ) ) ;
#681 = FILL_AREA_STYLE ('',( #764 ) ) ;
#682 = ORIENTED_EDGE ( 'NONE', *, *, #655, .T. ) ;
#683 = EDGE_LOOP ( 'NONE', ( #335, #60 ) ) ;
#684 = LINE ( 'NONE', #917, #1009 ) ;
#685 = CIRCLE ( 'NONE', #1058, 10.00000000000000533 ) ;
#686 = CARTESIAN_POINT ( 'NONE',  ( -18.93815787852775756, -5.376315757055517786, 1.250000000000000888 ) ) ;
#687 = PLANE ( 'NONE',  #66 ) ;
#688 = CYLINDRICAL_SURFACE ( 'NONE', #627, 0.8000000000000008216 ) ;
#689 = EDGE_LOOP ( 'NONE', ( #853, #129, #964, #181 ) ) ;
#690 = UNCERTAINTY_MEASURE_WITH_UNIT (LENGTH_MEASURE( 1.000000000000000082E-05 ), #165, 'distance_accuracy_value', 'NONE');
#691 = CARTESIAN_POINT ( 'NONE',  ( 0.000000000000000000, 6.623684242944484879, 0.000000000000000000 ) ) ;
#692 = CARTESIAN_POINT ( 'NONE',  ( 16.06184212147224244, 9.123684242944484879, 5.000000000000000000 ) ) ;
#693 = DIRECTION ( 'NONE',  ( 1.000000000000000000, 0.000000000000000000, 0.000000000000000000 ) ) ;
#694 = AXIS2_PLACEMENT_3D ( 'NONE', #539, #706, #530 ) ;
#695 = AXIS2_PLACEMENT_3D ( 'NONE', #808, #980, #331 ) ;
#696 = CARTESIAN_POINT ( 'NONE',  ( 15.06184212147224422, 6.623684242944484879, 0.000000000000000000 ) ) ;
#697 = CYLINDRICAL_SURFACE ( 'NONE', #1036, 0.8000000000000003775 ) ;
#698 = CARTESIAN_POINT ( 'NONE',  ( 14.13290189500542304, -6.309594085843541755, 5.000000000000000000 ) ) ;
#699 = CARTESIAN_POINT ( 'NONE',  ( 4.061842121472241551, 9.123684242944484879, 0.000000000000000000 ) ) ;
#700 = ADVANCED_FACE ( 'NONE', ( #756 ), #596, .T. ) ;
#701 = CARTESIAN_POINT ( 'NONE',  ( -18.93815787852775756, -5.376315757055517786, 2.500000000000000000 ) ) ;
#702 = AXIS2_PLACEMENT_3D ( 'NONE', #861, #610, #122 ) ;
#703 = ORIENTED_EDGE ( 'NONE', *, *, #244, .T. ) ;
#704 = CARTESIAN_POINT ( 'NONE',  ( 10.06184212147224422, 9.623684242944484879, 5.000000000000000000 ) ) ;
#705 = EDGE_CURVE ( 'NONE', #1046, #984, #1070, .T. ) ;
#706 = DIRECTION ( 'NONE',  ( 0.000000000000000000, 0.000000000000000000, -1.000000000000000000 ) ) ;
#707 = EDGE_LOOP ( 'NONE', ( #795, #466, #924, #675, #273 ) ) ;
#708 = ADVANCED_FACE ( 'NONE', ( #327 ), #989, .T. ) ;
#709 = CARTESIAN_POINT ( 'NONE',  ( -18.93815787852775756, -5.376315757055517786, 2.500000000000000000 ) ) ;
#710 = CIRCLE ( 'NONE', #762, 4.999999999999997335 ) ;
#711 = ADVANCED_FACE ( 'NONE', ( #414 ), #4, .F. ) ;
#712 = VECTOR ( 'NONE', #1031, 1000.000000000000000 ) ;
#713 = ORIENTED_EDGE ( 'NONE', *, *, #397, .T. ) ;
#714 = EDGE_LOOP ( 'NONE', ( #107, #382, #759, #766, #99 ) ) ;
#715 = VECTOR ( 'NONE', #656, 1000.000000000000000 ) ;
#716 = VERTEX_POINT ( 'NONE', #577 ) ;
#717 = EDGE_LOOP ( 'NONE', ( #134, #871 ) ) ;
#718 = EDGE_LOOP ( 'NONE', ( #514, #228, #889, #1013 ) ) ;
#719 = ADVANCED_FACE ( 'NONE', ( #1035 ), #202, .F. ) ;
#720 = ORIENTED_EDGE ( 'NONE', *, *, #754, .T. ) ;
#721 = ORIENTED_EDGE ( 'NONE', *, *, #971, .T. ) ;
#722 = FACE_BOUND ( 'NONE', #555, .T. ) ;
#723 = AXIS2_PLACEMENT_3D ( 'NONE', #486, #235, #571 ) ;
#724 = CARTESIAN_POINT ( 'NONE',  ( 10.86184212147224493, 9.623684242944484879, 5.000000000000000000 ) ) ;
#725 = EDGE_LOOP ( 'NONE', ( #965, #422, #305, #551 ) ) ;
#726 = DIRECTION ( 'NONE',  ( -1.000000000000000000, 0.000000000000000000, 0.000000000000000000 ) ) ;
#727 = CARTESIAN_POINT ( 'NONE',  ( 18.06184212147227797, -8.376315757055515121, 5.000000000000000000 ) ) ;
#728 = CARTESIAN_POINT ( 'NONE',  ( -23.93815787852775756, -5.376315757055517786, 2.500000000000000000 ) ) ;
#729 = VECTOR ( 'NONE', #933, 1000.000000000000000 ) ;
#730 = ORIENTED_EDGE ( 'NONE', *, *, #179, .F. ) ;
#731 = CIRCLE ( 'NONE', #132, 1.249999999999997113 ) ;
#732 = ADVANCED_FACE ( 'NONE', ( #938 ), #35, .T. ) ;
#733 = LINE ( 'NONE', #804, #779 ) ;
#734 = CARTESIAN_POINT ( 'NONE',  ( 0.000000000000000000, 6.623684242944484879, 5.000000000000000000 ) ) ;
#735 = FACE_OUTER_BOUND ( 'NONE', #950, .T. ) ;
#736 = EDGE_LOOP ( 'NONE', ( #630, #431 ) ) ;
#737 = EDGE_CURVE ( 'NONE', #479, #851, #495, .T. ) ;
#738 = EDGE_CURVE ( 'NONE', #801, #931, #911, .T. ) ;
#739 = EDGE_CURVE ( 'NONE', #250, #387, #214, .T. ) ;
#740 = FACE_OUTER_BOUND ( 'NONE', #209, .T. ) ;
#741 = CIRCLE ( 'NONE', #694, 5.100000000000000533 ) ;
#742 = CARTESIAN_POINT ( 'NONE',  ( 23.06184212147224244, -3.376315757055515121, 0.000000000000000000 ) ) ;
#743 = LINE ( 'NONE', #1069, #144 ) ;
#744 = ORIENTED_EDGE ( 'NONE', *, *, #290, .T. ) ;
#745 = CARTESIAN_POINT ( 'NONE',  ( -6.609908672744797738E-15, 12.62368424294448843, 0.000000000000000000 ) ) ;
#746 = ORIENTED_EDGE ( 'NONE', *, *, #282, .F. ) ;
#747 = LINE ( 'NONE', #85, #952 ) ;
#748 = LINE ( 'NONE', #825, #294 ) ;
#749 = ORIENTED_EDGE ( 'NONE', *, *, #133, .F. ) ;
#750 = CARTESIAN_POINT ( 'NONE',  ( -9.438157878527759337, 8.123684242944490208, 5.000000000000000000 ) ) ;
#751 = VERTEX_POINT ( 'NONE', #208 ) ;
#752 = FACE_BOUND ( 'NONE', #959, .T. ) ;
#753 = VECTOR ( 'NONE', #806, 1000.000000000000000 ) ;
#754 = EDGE_CURVE ( 'NONE', #372, #489, #1067, .T. ) ;
#755 = CARTESIAN_POINT ( 'NONE',  ( 16.86184212147224315, 9.123684242944484879, 5.000000000000000000 ) ) ;
#756 = FACE_OUTER_BOUND ( 'NONE', #454, .T. ) ;
#757 = EDGE_LOOP ( 'NONE', ( #71, #59, #55, #146 ) ) ;
#758 = DIRECTION ( 'NONE',  ( -0.000000000000000000, 0.000000000000000000, 1.000000000000000000 ) ) ;
#759 = ORIENTED_EDGE ( 'NONE', *, *, #519, .T. ) ;
#760 = DIRECTION ( 'NONE',  ( 1.000000000000000000, 0.000000000000000000, 0.000000000000000000 ) ) ;
#761 = CARTESIAN_POINT ( 'NONE',  ( 2.061842121472243328, 0.1236842429444846153, 0.000000000000000000 ) ) ;
#762 = AXIS2_PLACEMENT_3D ( 'NONE', #658, #1008, #111 ) ;
#763 = LINE ( 'NONE', #833, #803 ) ;
#764 = FILL_AREA_STYLE_COLOUR ( '', #152 ) ;
#765 = CIRCLE ( 'NONE', #480, 6.499999999999991118 ) ;
#766 = ORIENTED_EDGE ( 'NONE', *, *, #625, .T. ) ;
#767 = EDGE_LOOP ( 'NONE', ( #907, #140, #932, #606 ) ) ;
#768 = DIRECTION ( 'NONE',  ( -0.000000000000000000, 0.000000000000000000, 1.000000000000000000 ) ) ;
#769 = FACE_OUTER_BOUND ( 'NONE', #757, .T. ) ;
#770 = DIRECTION ( 'NONE',  ( 0.000000000000000000, 0.000000000000000000, -1.000000000000000000 ) ) ;
#771 = ORIENTED_EDGE ( 'NONE', *, *, #351, .F. ) ;
#772 = CARTESIAN_POINT ( 'NONE',  ( -18.93815787852775756, 9.623684242944477774, 2.500000000000000000 ) ) ;
#773 = CARTESIAN_POINT ( 'NONE',  ( 2.133696228931573291, -6.375918590093950122, 5.000000000000000000 ) ) ;
#774 = DIRECTION ( 'NONE',  ( -0.000000000000000000, -0.000000000000000000, -1.000000000000000000 ) ) ;
#775 = CYLINDRICAL_SURFACE ( 'NONE', #323, 1.249999999999998890 ) ;
#776 = DIRECTION ( 'NONE',  ( -5.236116925563268710E-16, 1.000000000000000000, 0.000000000000000000 ) ) ;
#777 = CARTESIAN_POINT ( 'NONE',  ( 23.06184212147224244, 7.923715337589156249, 0.000000000000000000 ) ) ;
#778 = AXIS2_PLACEMENT_3D ( 'NONE', #295, #621, #371 ) ;
#779 = VECTOR ( 'NONE', #830, 1000.000000000000114 ) ;
#780 = DIRECTION ( 'NONE',  ( 0.000000000000000000, 0.000000000000000000, 1.000000000000000000 ) ) ;
#781 = CARTESIAN_POINT ( 'NONE',  ( -9.438157878527759337, 8.123684242944490208, 1.000000000000000000 ) ) ;
#782 = VERTEX_POINT ( 'NONE', #949 ) ;
#783 = EDGE_CURVE ( 'NONE', #821, #193, #867, .T. ) ;
#784 = CARTESIAN_POINT ( 'NONE',  ( 15.06184212147123702, 0.1236842429444846153, 5.000000000000000000 ) ) ;
#785 = EDGE_CURVE ( 'NONE', #387, #464, #741, .T. ) ;
#786 = CARTESIAN_POINT ( 'NONE',  ( -21.43815787852776111, 4.623684242944484879, 0.000000000000000000 ) ) ;
#787 = AXIS2_PLACEMENT_3D ( 'NONE', #564, #812, #75 ) ;
#788 = EDGE_LOOP ( 'NONE', ( #636, #807, #417, #470 ) ) ;
#789 = EDGE_CURVE ( 'NONE', #1021, #15, #823, .T. ) ;
#790 = CARTESIAN_POINT ( 'NONE',  ( -4.438157878527757561, 0.1236842429444846153, 5.000000000000000000 ) ) ;
#791 = EDGE_LOOP ( 'NONE', ( #381, #877, #958, #713 ) ) ;
#792 = VECTOR ( 'NONE', #251, 1000.000000000000114 ) ;
#793 = ORIENTED_EDGE ( 'NONE', *, *, #351, .T. ) ;
#794 = ORIENTED_EDGE ( 'NONE', *, *, #135, .F. ) ;
#795 = ORIENTED_EDGE ( 'NONE', *, *, #302, .F. ) ;
#796 = EDGE_CURVE ( 'NONE', #292, #884, #533, .T. ) ;
#797 = AXIS2_PLACEMENT_3D ( 'NONE', #563, #394, #568 ) ;
#798 = ORIENTED_EDGE ( 'NONE', *, *, #162, .F. ) ;
#799 = ORIENTED_EDGE ( 'NONE', *, *, #783, .T. ) ;
#800 = DIRECTION ( 'NONE',  ( 0.000000000000000000, -1.000000000000000000, 0.000000000000000000 ) ) ;
#801 = VERTEX_POINT ( 'NONE', #197 ) ;
#802 = ADVANCED_FACE ( 'NONE', ( #527 ), #445, .T. ) ;
#803 = VECTOR ( 'NONE', #421, 1000.000000000000000 ) ;
#804 = CARTESIAN_POINT ( 'NONE',  ( 0.03530641332084596962, -6.387517246548182648, 0.000000000000000000 ) ) ;
#805 = DIRECTION ( 'NONE',  ( -1.000000000000000000, 0.000000000000000000, 0.000000000000000000 ) ) ;
#806 = DIRECTION ( 'NONE',  ( -0.000000000000000000, -0.000000000000000000, -1.000000000000000000 ) ) ;
#807 = ORIENTED_EDGE ( 'NONE', *, *, #739, .T. ) ;
#808 = CARTESIAN_POINT ( 'NONE',  ( 0.000000000000000000, 0.000000000000000000, 5.000000000000000000 ) ) ;
#809 = EDGE_CURVE ( 'NONE', #224, #541, #874, .T. ) ;
#810 = CARTESIAN_POINT ( 'NONE',  ( 23.06184212147224244, -3.376315757055515121, 5.000000000000000000 ) ) ;
#811 = EDGE_CURVE ( 'NONE', #984, #1049, #96, .T. ) ;
#812 = DIRECTION ( 'NONE',  ( -0.000000000000000000, 0.000000000000000000, 1.000000000000000000 ) ) ;
#813 = VERTEX_POINT ( 'NONE', #1025 ) ;
#814 = CIRCLE ( 'NONE', #39, 5.100000000000000533 ) ;
#815 = EDGE_CURVE ( 'NONE', #223, #574, #926, .T. ) ;
#816 = CARTESIAN_POINT ( 'NONE',  ( 18.06184212147227797, -8.376315757055515121, 5.000000000000000000 ) ) ;
#817 = CARTESIAN_POINT ( 'NONE',  ( -12.54003976828997580, 13.83580545506569592, 5.000000000000000000 ) ) ;
#818 = FACE_OUTER_BOUND ( 'NONE', #485, .T. ) ;
#819 = ORIENTED_EDGE ( 'NONE', *, *, #848, .T. ) ;
#820 = DIRECTION ( 'NONE',  ( -0.000000000000000000, -0.000000000000000000, -1.000000000000000000 ) ) ;
#821 = VERTEX_POINT ( 'NONE', #448 ) ;
#822 = DIRECTION ( 'NONE',  ( 1.000000000000000000, 0.000000000000000000, 0.000000000000000000 ) ) ;
#823 = CIRCLE ( 'NONE', #280, 0.7999999999999986011 ) ;
#824 = AXIS2_PLACEMENT_3D ( 'NONE', #899, #662, #1063 ) ;
#825 = CARTESIAN_POINT ( 'NONE',  ( -9.036437400828607025, 14.61125857067261613, 5.000000000000000000 ) ) ;
#826 = VERTEX_POINT ( 'NONE', #777 ) ;
#827 = CARTESIAN_POINT ( 'NONE',  ( 10.06184212147224422, 9.623684242944484879, 0.000000000000000000 ) ) ;
#828 = EDGE_CURVE ( 'NONE', #835, #138, #946, .T. ) ;
#829 = EDGE_LOOP ( 'NONE', ( #631, #794 ) ) ;
#830 = DIRECTION ( 'NONE',  ( 0.9999847242309575224, 0.005527323469429326792, 0.000000000000000000 ) ) ;
#831 = VECTOR ( 'NONE', #1064, 1000.000000000000000 ) ;
#832 = CARTESIAN_POINT ( 'NONE',  ( -4.438157878527757561, 0.1236842429444846153, 5.000000000000000000 ) ) ;
#833 = CARTESIAN_POINT ( 'NONE',  ( 18.37085787354854460, 12.91415712814920269, 5.000000000000000000 ) ) ;
#834 = ORIENTED_EDGE ( 'NONE', *, *, #670, .F. ) ;
#835 = VERTEX_POINT ( 'NONE', #569 ) ;
#836 = PLANE ( 'NONE',  #1055 ) ;
#837 = AXIS2_PLACEMENT_3D ( 'NONE', #728, #245, #1060 ) ;
#838 = DIRECTION ( 'NONE',  ( 1.000000000000000000, 0.000000000000000000, 0.000000000000000000 ) ) ;
#839 = APPLICATION_PROTOCOL_DEFINITION ( 'draft international standard', 'automotive_design', 1998, #219 ) ;
#840 = DIRECTION ( 'NONE',  ( 0.000000000000000000, 0.000000000000000000, 1.000000000000000000 ) ) ;
#841 = DIRECTION ( 'NONE',  ( -0.000000000000000000, -0.000000000000000000, -1.000000000000000000 ) ) ;
#842 = ORIENTED_EDGE ( 'NONE', *, *, #908, .T. ) ;
#843 = VERTEX_POINT ( 'NONE', #395 ) ;
#844 = CARTESIAN_POINT ( 'NONE',  ( -20.63815787852776040, 4.623684242944484879, 5.000000000000000000 ) ) ;
#845 = CYLINDRICAL_SURFACE ( 'NONE', #903, 6.500000000000000888 ) ;
#846 = AXIS2_PLACEMENT_3D ( 'NONE', #860, #347, #677 ) ;
#847 = CARTESIAN_POINT ( 'NONE',  ( -23.93815787852775756, 0.000000000000000000, 0.000000000000000000 ) ) ;
#848 = EDGE_CURVE ( 'NONE', #390, #138, #185, .T. ) ;
#849 = FACE_OUTER_BOUND ( 'NONE', #24, .T. ) ;
#850 = CIRCLE ( 'NONE', #981, 0.8000000000000012657 ) ;
#851 = VERTEX_POINT ( 'NONE', #317 ) ;
#852 = PRODUCT_DEFINITION_CONTEXT ( 'detailed design', #439, 'design' ) ;
#853 = ORIENTED_EDGE ( 'NONE', *, *, #545, .F. ) ;
#854 = DIRECTION ( 'NONE',  ( -0.06180315041525851621, -0.9980883581120205683, 0.000000000000000000 ) ) ;
#855 = DIRECTION ( 'NONE',  ( -0.000000000000000000, 0.000000000000000000, 1.000000000000000000 ) ) ;
#856 = VECTOR ( 'NONE', #970, 1000.000000000000000 ) ;
#857 = CARTESIAN_POINT ( 'NONE',  ( -9.438157878527759337, 8.123684242944486655, 5.000000000000000000 ) ) ;
#858 = EDGE_CURVE ( 'NONE', #12, #358, #288, .T. ) ;
#859 = CARTESIAN_POINT ( 'NONE',  ( -18.93815787852775756, 9.623684242944477774, 1.250000000000002665 ) ) ;
#860 = CARTESIAN_POINT ( 'NONE',  ( 0.03530641332084596962, -6.387517246548182648, 5.000000000000000000 ) ) ;
#861 = CARTESIAN_POINT ( 'NONE',  ( -17.31216575253955625, 22.62368424294448488, 0.000000000000000000 ) ) ;
#862 = DIRECTION ( 'NONE',  ( -0.000000000000000000, 0.000000000000000000, 1.000000000000000000 ) ) ;
#863 = DIRECTION ( 'NONE',  ( 1.000000000000000000, 0.000000000000000000, 0.000000000000000000 ) ) ;
#864 = ADVANCED_FACE ( 'NONE', ( #233 ), #983, .F. ) ;
#865 = CIRCLE ( 'NONE', #1026, 0.8000000000000020428 ) ;
#866 = DIRECTION ( 'NONE',  ( 1.000000000000000000, 0.000000000000000000, 0.000000000000000000 ) ) ;
#867 = LINE ( 'NONE', #40, #136 ) ;
#868 = ORIENTED_EDGE ( 'NONE', *, *, #424, .T. ) ;
#869 = DIRECTION ( 'NONE',  ( -0.000000000000000000, 0.000000000000000000, 1.000000000000000000 ) ) ;
#870 = AXIS2_PLACEMENT_3D ( 'NONE', #827, #758, #192 ) ;
#871 = ORIENTED_EDGE ( 'NONE', *, *, #928, .F. ) ;
#872 = VERTEX_POINT ( 'NONE', #724 ) ;
#873 = EDGE_LOOP ( 'NONE', ( #322, #499, #194, #141 ) ) ;
#874 = CIRCLE ( 'NONE', #549, 1.249999999999997113 ) ;
#875 = VECTOR ( 'NONE', #892, 1000.000000000000000 ) ;
#876 = ORIENTED_EDGE ( 'NONE', *, *, #54, .T. ) ;
#877 = ORIENTED_EDGE ( 'NONE', *, *, #441, .F. ) ;
#878 = ORIENTED_EDGE ( 'NONE', *, *, #410, .T. ) ;
#879 = VECTOR ( 'NONE', #78, 1000.000000000000000 ) ;
#880 = DIRECTION ( 'NONE',  ( -1.000000000000000000, 0.000000000000000000, 0.000000000000000000 ) ) ;
#881 = ADVANCED_FACE ( 'NONE', ( #818 ), #388, .F. ) ;
#882 = CIRCLE ( 'NONE', #837, 1.249999999999998890 ) ;
#883 = ORIENTED_EDGE ( 'NONE', *, *, #505, .T. ) ;
#884 = VERTEX_POINT ( 'NONE', #1053 ) ;
#885 = PLANE ( 'NONE',  #695 ) ;
#886 = CARTESIAN_POINT ( 'NONE',  ( 18.06184212147224244, -3.376315757055515121, 5.000000000000000000 ) ) ;
#887 = ADVANCED_FACE ( 'NONE', ( #310 ), #79, .F. ) ;
#888 = LINE ( 'NONE', #145, #231 ) ;
#889 = ORIENTED_EDGE ( 'NONE', *, *, #205, .T. ) ;
#890 = CIRCLE ( 'NONE', #671, 6.500000000000000888 ) ;
#891 = EDGE_CURVE ( 'NONE', #821, #90, #306, .T. ) ;
#892 = DIRECTION ( 'NONE',  ( 0.000000000000000000, 1.000000000000000000, -0.000000000000000000 ) ) ;
#893 = AXIS2_PLACEMENT_3D ( 'NONE', #660, #991, #277 ) ;
#894 = DIRECTION ( 'NONE',  ( -1.000000000000000000, 0.000000000000000000, 0.000000000000000000 ) ) ;
#895 = EDGE_CURVE ( 'NONE', #578, #1037, #888, .T. ) ;
#896 = CARTESIAN_POINT ( 'NONE',  ( 4.061842121472241551, 9.123684242944484879, 0.000000000000000000 ) ) ;
#897 = ORIENTED_EDGE ( 'NONE', *, *, #891, .F. ) ;
#898 = AXIS2_PLACEMENT_3D ( 'NONE', #678, #585, #602 ) ;
#899 = CARTESIAN_POINT ( 'NONE',  ( -21.43815787852776111, 4.623684242944484879, 0.000000000000000000 ) ) ;
#900 = CYLINDRICAL_SURFACE ( 'NONE', #504, 5.100000000000000533 ) ;
#901 = PLANE ( 'NONE',  #460 ) ;
#902 = ORIENTED_EDGE ( 'NONE', *, *, #935, .F. ) ;
#903 = AXIS2_PLACEMENT_3D ( 'NONE', #27, #529, #354 ) ;
#904 = CYLINDRICAL_SURFACE ( 'NONE', #452, 0.8000000000000008216 ) ;
#905 = DIRECTION ( 'NONE',  ( -0.000000000000000000, -0.000000000000000000, -1.000000000000000000 ) ) ;
#906 = CARTESIAN_POINT ( 'NONE',  ( -12.54003976828997580, 13.83580545506569592, 5.000000000000000000 ) ) ;
#907 = ORIENTED_EDGE ( 'NONE', *, *, #969, .F. ) ;
#908 = EDGE_CURVE ( 'NONE', #1040, #813, #882, .T. ) ;
#909 = ORIENTED_EDGE ( 'NONE', *, *, #1017, .T. ) ;
#910 = DIRECTION ( 'NONE',  ( 1.000000000000000000, 0.000000000000000000, 0.000000000000000000 ) ) ;
#911 = CIRCLE ( 'NONE', #450, 0.8000000000000020428 ) ;
#912 = AXIS2_PLACEMENT_3D ( 'NONE', #175, #500, #645 ) ;
#913 = LINE ( 'NONE', #755, #285 ) ;
#914 = CARTESIAN_POINT ( 'NONE',  ( 2.061842121472243328, 0.1236842429444846153, 0.000000000000000000 ) ) ;
#915 = EDGE_LOOP ( 'NONE', ( #659, #492, #798, #105 ) ) ;
#916 = EDGE_LOOP ( 'NONE', ( #876, #661, #403, #215 ) ) ;
#917 = CARTESIAN_POINT ( 'NONE',  ( -18.93815787852775756, 9.623684242944477774, 3.749999999999997335 ) ) ;
#918 = DIRECTION ( 'NONE',  ( -0.000000000000000000, -0.000000000000000000, -1.000000000000000000 ) ) ;
#919 = AXIS2_PLACEMENT_3D ( 'NONE', #772, #925, #189 ) ;
#920 = FACE_OUTER_BOUND ( 'NONE', #725, .T. ) ;
#921 = VECTOR ( 'NONE', #367, 1000.000000000000000 ) ;
#922 = CARTESIAN_POINT ( 'NONE',  ( 23.06184212147224244, 7.923715337589156249, 5.000000000000000000 ) ) ;
#923 = EDGE_LOOP ( 'NONE', ( #87, #1062, #523, #396 ) ) ;
#924 = ORIENTED_EDGE ( 'NONE', *, *, #650, .F. ) ;
#925 = DIRECTION ( 'NONE',  ( -1.000000000000000000, -0.000000000000000000, -0.000000000000000000 ) ) ;
#926 = CIRCLE ( 'NONE', #702, 10.00000000000000533 ) ;
#927 = CARTESIAN_POINT ( 'NONE',  ( 23.06184212147224244, 7.923715337589156249, 5.000000000000000000 ) ) ;
#928 = EDGE_CURVE ( 'NONE', #15, #1021, #973, .T. ) ;
#929 = CARTESIAN_POINT ( 'NONE',  ( 0.000000000000000000, 6.623684242944484879, 5.000000000000000000 ) ) ;
#930 = CARTESIAN_POINT ( 'NONE',  ( 15.26184212147224173, 9.123684242944484879, 0.000000000000000000 ) ) ;
#931 = VERTEX_POINT ( 'NONE', #149 ) ;
#932 = ORIENTED_EDGE ( 'NONE', *, *, #319, .T. ) ;
#933 = DIRECTION ( 'NONE',  ( -0.000000000000000000, -0.000000000000000000, -1.000000000000000000 ) ) ;
#934 = CARTESIAN_POINT ( 'NONE',  ( -18.93815787852775756, 9.623684242944477774, 3.749999999999997335 ) ) ;
#935 = EDGE_CURVE ( 'NONE', #826, #32, #644, .T. ) ;
#936 = ADVANCED_FACE ( 'NONE', ( #402, #553, #735 ), #901, .T. ) ;
#937 = VECTOR ( 'NONE', #536, 1000.000000000000000 ) ;
#938 = FACE_OUTER_BOUND ( 'NONE', #791, .T. ) ;
#939 = EDGE_CURVE ( 'NONE', #90, #465, #743, .T. ) ;
#940 = CARTESIAN_POINT ( 'NONE',  ( -23.93815787852775756, 9.623684242944477774, 1.250000000000002665 ) ) ;
#941 = CIRCLE ( 'NONE', #57, 0.8000000000000012657 ) ;
#942 = DIRECTION ( 'NONE',  ( -1.000000000000000000, 0.000000000000000000, 0.000000000000000000 ) ) ;
#943 = DIRECTION ( 'NONE',  ( -0.000000000000000000, 0.000000000000000000, 1.000000000000000000 ) ) ;
#944 = DIRECTION ( 'NONE',  ( -0.000000000000000000, 0.000000000000000000, 1.000000000000000000 ) ) ;
#945 = DIRECTION ( 'NONE',  ( -1.000000000000000000, -4.130293990420965692E-17, 0.000000000000000000 ) ) ;
#946 = LINE ( 'NONE', #204, #753 ) ;
#947 = EDGE_CURVE ( 'NONE', #872, #801, #657, .T. ) ;
#948 = LINE ( 'NONE', #293, #712 ) ;
#949 = CARTESIAN_POINT ( 'NONE',  ( 9.261842121472241729, 9.623684242944484879, 5.000000000000000000 ) ) ;
#950 = EDGE_LOOP ( 'NONE', ( #998, #897, #380, #217 ) ) ;
#951 = CARTESIAN_POINT ( 'NONE',  ( 2.133696228931573291, -6.375918590093950122, 0.000000000000000000 ) ) ;
#952 = VECTOR ( 'NONE', #324, 1000.000000000000000 ) ;
#953 = CIRCLE ( 'NONE', #1038, 6.500000000000000888 ) ;
#954 = DIRECTION ( 'NONE',  ( -0.000000000000000000, 0.000000000000000000, 1.000000000000000000 ) ) ;
#955 = ORIENTED_EDGE ( 'NONE', *, *, #811, .F. ) ;
#956 = VECTOR ( 'NONE', #267, 1000.000000000000000 ) ;
#957 = VERTEX_POINT ( 'NONE', #154 ) ;
#958 = ORIENTED_EDGE ( 'NONE', *, *, #895, .T. ) ;
#959 = EDGE_LOOP ( 'NONE', ( #415, #720 ) ) ;
#960 = EDGE_LOOP ( 'NONE', ( #386, #218 ) ) ;
#961 = VECTOR ( 'NONE', #1019, 1000.000000000000114 ) ;
#962 = AXIS2_PLACEMENT_3D ( 'NONE', #975, #158, #247 ) ;
#963 = DIRECTION ( 'NONE',  ( 1.000000000000000000, 0.000000000000000000, 0.000000000000000000 ) ) ;
#964 = ORIENTED_EDGE ( 'NONE', *, *, #50, .T. ) ;
#965 = ORIENTED_EDGE ( 'NONE', *, *, #212, .F. ) ;
#966 = AXIS2_PLACEMENT_3D ( 'NONE', #886, #501, #805 ) ;
#967 = AXIS2_PLACEMENT_3D ( 'NONE', #33, #768, #508 ) ;
#968 = CARTESIAN_POINT ( 'NONE',  ( -6.609908672744797738E-15, 12.62368424294448843, 5.000000000000000000 ) ) ;
#969 = EDGE_CURVE ( 'NONE', #15, #372, #159, .T. ) ;
#970 = DIRECTION ( 'NONE',  ( -0.000000000000000000, -0.000000000000000000, -1.000000000000000000 ) ) ;
#971 = EDGE_CURVE ( 'NONE', #264, #166, #405, .T. ) ;
#972 = DIRECTION ( 'NONE',  ( -0.000000000000000000, -0.000000000000000000, -1.000000000000000000 ) ) ;
#973 = CIRCLE ( 'NONE', #47, 0.7999999999999986011 ) ;
#974 = ORIENTED_EDGE ( 'NONE', *, *, #650, .T. ) ;
#975 = CARTESIAN_POINT ( 'NONE',  ( 18.06184212147224244, 7.923715337589103846, 5.000000000000000000 ) ) ;
#976 = LINE ( 'NONE', #832, #715 ) ;
#977 = DIRECTION ( 'NONE',  ( 1.000000000000000000, 0.000000000000000000, 0.000000000000000000 ) ) ;
#978 = EDGE_LOOP ( 'NONE', ( #170, #550, #842, #234 ) ) ;
#979 = CIRCLE ( 'NONE', #562, 6.500000000000000888 ) ;
#980 = DIRECTION ( 'NONE',  ( -0.000000000000000000, 0.000000000000000000, 1.000000000000000000 ) ) ;
#981 = AXIS2_PLACEMENT_3D ( 'NONE', #538, #869, #329 ) ;
#982 = CARTESIAN_POINT ( 'NONE',  ( -22.23815787852775827, 4.623684242944484879, 5.000000000000000000 ) ) ;
#983 = CYLINDRICAL_SURFACE ( 'NONE', #471, 1.249999999999998890 ) ;
#984 = VERTEX_POINT ( 'NONE', #92 ) ;
#985 = DIRECTION ( 'NONE',  ( -0.000000000000000000, 0.000000000000000000, 1.000000000000000000 ) ) ;
#986 = EDGE_CURVE ( 'NONE', #835, #957, #679, .T. ) ;
#987 = CARTESIAN_POINT ( 'NONE',  ( 18.37085787354854460, 12.91415712814920269, 5.000000000000000000 ) ) ;
#988 = CARTESIAN_POINT ( 'NONE',  ( 10.86184212147224493, 9.623684242944484879, 5.000000000000000000 ) ) ;
#989 = PLANE ( 'NONE',  #172 ) ;
#990 = ORIENTED_EDGE ( 'NONE', *, *, #815, .F. ) ;
#991 = DIRECTION ( 'NONE',  ( -0.000000000000000000, -0.000000000000000000, -1.000000000000000000 ) ) ;
#992 = VERTEX_POINT ( 'NONE', #69 ) ;
#993 = CARTESIAN_POINT ( 'NONE',  ( -9.438157878527759337, 8.123684242944490208, 5.000000000000000000 ) ) ;
#994 = DIRECTION ( 'NONE',  ( 1.000000000000000000, 0.000000000000000000, 0.000000000000000000 ) ) ;
#995 = CARTESIAN_POINT ( 'NONE',  ( 2.061842121472243328, 0.1236842429444846153, 5.000000000000000000 ) ) ;
#996 = EDGE_LOOP ( 'NONE', ( #278, #303, #260, #587 ) ) ;
#997 = DIRECTION ( 'NONE',  ( -1.000000000000000000, 0.000000000000000000, 0.000000000000000000 ) ) ;
#998 = ORIENTED_EDGE ( 'NONE', *, *, #584, .F. ) ;
#999 = CARTESIAN_POINT ( 'NONE',  ( 0.000000000000000000, 0.000000000000000000, 0.000000000000000000 ) ) ;
#1000 = DIRECTION ( 'NONE',  ( 1.000000000000000000, 0.000000000000000000, 0.000000000000000000 ) ) ;
#1001 = EDGE_CURVE ( 'NONE', #114, #250, #88, .T. ) ;
#1002 = DIRECTION ( 'NONE',  ( 0.000000000000000000, -1.000000000000000000, 0.000000000000000000 ) ) ;
#1003 = ORIENTED_EDGE ( 'NONE', *, *, #705, .F. ) ;
#1004 = DIRECTION ( 'NONE',  ( 0.000000000000000000, 0.000000000000000000, 1.000000000000000000 ) ) ;
#1005 = VERTEX_POINT ( 'NONE', #487 ) ;
#1006 = DIRECTION ( 'NONE',  ( 0.000000000000000000, 0.000000000000000000, 1.000000000000000000 ) ) ;
#1007 = CARTESIAN_POINT ( 'NONE',  ( -4.438157878527757561, 0.1236842429444846153, 0.000000000000000000 ) ) ;
#1008 = DIRECTION ( 'NONE',  ( -0.000000000000000000, 0.000000000000000000, 1.000000000000000000 ) ) ;
#1009 = VECTOR ( 'NONE', #182, 1000.000000000000000 ) ;
#1010 = AXIS2_PLACEMENT_3D ( 'NONE', #608, #776, #1016 ) ;
#1011 =( NAMED_UNIT ( * ) SI_UNIT ( $, .STERADIAN. ) SOLID_ANGLE_UNIT ( ) );
#1012 = EDGE_CURVE ( 'NONE', #193, #465, #176, .T. ) ;
#1013 = ORIENTED_EDGE ( 'NONE', *, *, #796, .T. ) ;
#1014 = ORIENTED_EDGE ( 'NONE', *, *, #64, .T. ) ;
#1015 = LINE ( 'NONE', #115, #729 ) ;
#1017 = EDGE_CURVE ( 'NONE', #851, #813, #483, .T. ) ;
#1016 = DIRECTION ( 'NONE',  ( -1.000000000000000000, -5.236116925563268710E-16, 0.000000000000000000 ) ) ;
#1018 = APPLICATION_PROTOCOL_DEFINITION ( 'draft international standard', 'automotive_design', 1998, #439 ) ;
#1019 = DIRECTION ( 'NONE',  ( -0.9980883581120204573, 0.06180315041525850928, 0.000000000000000000 ) ) ;
#1020 = CARTESIAN_POINT ( 'NONE',  ( 9.261842121472241729, 9.623684242944484879, 5.000000000000000000 ) ) ;
#1021 = VERTEX_POINT ( 'NONE', #982 ) ;
#1022 = FACE_BOUND ( 'NONE', #626, .T. ) ;
#1023 = CYLINDRICAL_SURFACE ( 'NONE', #476, 0.8000000000000020428 ) ;
#1024 = AXIS2_PLACEMENT_3D ( 'NONE', #857, #774, #363 ) ;
#1025 = CARTESIAN_POINT ( 'NONE',  ( -23.93815787852775756, -5.376315757055517786, 3.749999999999999112 ) ) ;
#1026 = AXIS2_PLACEMENT_3D ( 'NONE', #459, #51, #866 ) ;
#1027 = DIRECTION ( 'NONE',  ( -0.000000000000000000, 0.000000000000000000, 1.000000000000000000 ) ) ;
#1028 = CARTESIAN_POINT ( 'NONE',  ( 18.06184212147227797, -8.376315757055515121, 0.000000000000000000 ) ) ;
#1029 = EDGE_CURVE ( 'NONE', #992, #12, #913, .T. ) ;
#1030 = DIRECTION ( 'NONE',  ( -0.000000000000000000, -0.000000000000000000, -1.000000000000000000 ) ) ;
#1031 = DIRECTION ( 'NONE',  ( -0.000000000000000000, -0.000000000000000000, -1.000000000000000000 ) ) ;
#1032 = DIRECTION ( 'NONE',  ( -1.000000000000000000, 0.000000000000000000, 0.000000000000000000 ) ) ;
#1033 = VERTEX_POINT ( 'NONE', #646 ) ;
#1034 = DIRECTION ( 'NONE',  ( 1.000000000000000000, 0.000000000000000000, 0.000000000000000000 ) ) ;
#1035 = FACE_OUTER_BOUND ( 'NONE', #139, .T. ) ;
#1036 = AXIS2_PLACEMENT_3D ( 'NONE', #692, #262, #275 ) ;
#1037 = VERTEX_POINT ( 'NONE', #810 ) ;
#1038 = AXIS2_PLACEMENT_3D ( 'NONE', #784, #1027, #46 ) ;
#1039 = ADVANCED_FACE ( 'NONE', ( #254 ), #243, .T. ) ;
#1040 = VERTEX_POINT ( 'NONE', #325 ) ;
#1041 = ORIENTED_EDGE ( 'NONE', *, *, #50, .F. ) ;
#1042 = ADVANCED_FACE ( 'NONE', ( #148 ), #663, .F. ) ;
#1043 = EDGE_CURVE ( 'NONE', #246, #560, #976, .T. ) ;
#1044 = ADVANCED_FACE ( 'NONE', ( #74 ), #900, .F. ) ;
#1045 = EDGE_LOOP ( 'NONE', ( #629, #174, #955, #49 ) ) ;
#1046 = VERTEX_POINT ( 'NONE', #987 ) ;
#1047 = DIRECTION ( 'NONE',  ( -0.000000000000000000, -0.000000000000000000, -1.000000000000000000 ) ) ;
#1048 = EDGE_LOOP ( 'NONE', ( #5, #311, #554, #599 ) ) ;
#1049 = VERTEX_POINT ( 'NONE', #817 ) ;
#1050 = AXIS2_PLACEMENT_3D ( 'NONE', #993, #400, #153 ) ;
#1051 = FACE_BOUND ( 'NONE', #717, .T. ) ;
#1052 = EDGE_CURVE ( 'NONE', #264, #272, #401, .T. ) ;
#1053 = CARTESIAN_POINT ( 'NONE',  ( 14.13290189500542304, -6.309594085843541755, 0.000000000000000000 ) ) ;
#1054 = VERTEX_POINT ( 'NONE', #742 ) ;
#1055 = AXIS2_PLACEMENT_3D ( 'NONE', #999, #426, #760 ) ;
#1056 = CARTESIAN_POINT ( 'NONE',  ( 18.06184212147224244, -3.376315757055515121, 0.000000000000000000 ) ) ;
#1057 = CIRCLE ( 'NONE', #593, 1.249999999999998890 ) ;
#1058 = AXIS2_PLACEMENT_3D ( 'NONE', #190, #9, #1000 ) ;
#1059 = CARTESIAN_POINT ( 'NONE',  ( -9.438157878527759337, 8.123684242944490208, 5.000000000000000000 ) ) ;
#1060 = DIRECTION ( 'NONE',  ( 0.000000000000000000, 0.000000000000000000, 1.000000000000000000 ) ) ;
#1061 = AXIS2_PLACEMENT_3D ( 'NONE', #896, #478, #963 ) ;
#1062 = ORIENTED_EDGE ( 'NONE', *, *, #397, .F. ) ;
#1063 = DIRECTION ( 'NONE',  ( 1.000000000000000000, 0.000000000000000000, 0.000000000000000000 ) ) ;
#1064 = DIRECTION ( 'NONE',  ( -0.000000000000000000, -0.000000000000000000, -1.000000000000000000 ) ) ;
#1065 = CARTESIAN_POINT ( 'NONE',  ( -23.93815787852775756, 0.000000000000000000, 5.000000000000000000 ) ) ;
#1066 = EDGE_LOOP ( 'NONE', ( #507, #730 ) ) ;
#1067 = CIRCLE ( 'NONE', #82, 0.7999999999999986011 ) ;
#1068 = DIRECTION ( 'NONE',  ( -0.000000000000000000, -0.000000000000000000, -1.000000000000000000 ) ) ;
#1069 = CARTESIAN_POINT ( 'NONE',  ( 3.459664663323483758E-16, -8.376315757055515121, 0.000000000000000000 ) ) ;
#1070 = LINE ( 'NONE', #355, #961 ) ;
#1071 = ORIENTED_EDGE ( 'NONE', *, *, #451, .T. ) ;
ENDSEC;
END-ISO-10303-21;
