ISO-10303-21;
HEADER;
FILE_DESCRIPTION (( 'STEP AP214' ),
    '1' );
FILE_NAME ('slider - right.STEP',
    '2026-03-24T22:39:42',
    ( '' ),
    ( '' ),
    'SwSTEP 2.0',
    'SolidWorks 2026',
    '' );
FILE_SCHEMA (( 'AUTOMOTIVE_DESIGN' ));
ENDSEC;

DATA;
#1 = VERTEX_POINT ( 'NONE', #380 ) ;
#2 = DIRECTION ( 'NONE',  ( -1.000000000000000000, 0.000000000000000000, 0.000000000000000000 ) ) ;
#3 = EDGE_CURVE ( 'NONE', #670, #681, #1003, .T. ) ;
#4 = VERTEX_POINT ( 'NONE', #823 ) ;
#5 = CARTESIAN_POINT ( 'NONE',  ( 4.061842121472241551, 9.123684242944484879, 5.000000000000000000 ) ) ;
#6 = FACE_BOUND ( 'NONE', #486, .T. ) ;
#7 = ORIENTED_EDGE ( 'NONE', *, *, #1002, .F. ) ;
#8 = DIRECTION ( 'NONE',  ( -0.000000000000000000, 0.000000000000000000, 1.000000000000000000 ) ) ;
#9 = ORIENTED_EDGE ( 'NONE', *, *, #994, .T. ) ;
#10 = DIRECTION ( 'NONE',  ( -1.000000000000000000, 0.000000000000000000, 0.000000000000000000 ) ) ;
#11 = EDGE_CURVE ( 'NONE', #249, #1, #597, .T. ) ;
#12 = VECTOR ( 'NONE', #446, 1000.000000000000000 ) ;
#13 = DIRECTION ( 'NONE',  ( 0.000000000000000000, 0.000000000000000000, 1.000000000000000000 ) ) ;
#14 = AXIS2_PLACEMENT_3D ( 'NONE', #338, #789, #186 ) ;
#15 = DIRECTION ( 'NONE',  ( 0.000000000000000000, 0.000000000000000000, 1.000000000000000000 ) ) ;
#16 = ORIENTED_EDGE ( 'NONE', *, *, #95, .F. ) ;
#17 = DIRECTION ( 'NONE',  ( 0.000000000000000000, 0.000000000000000000, 1.000000000000000000 ) ) ;
#18 = CARTESIAN_POINT ( 'NONE',  ( -18.93815787852775756, -2.876315757055518230, 2.500000000000000000 ) ) ;
#19 = ORIENTED_EDGE ( 'NONE', *, *, #3, .T. ) ;
#20 = ORIENTED_EDGE ( 'NONE', *, *, #11, .T. ) ;
#21 = EDGE_CURVE ( 'NONE', #772, #374, #1094, .T. ) ;
#22 = DIRECTION ( 'NONE',  ( -0.06180315041525851621, -0.9980883581120205683, 0.000000000000000000 ) ) ;
#23 = LINE ( 'NONE', #1097, #317 ) ;
#24 = EDGE_CURVE ( 'NONE', #709, #124, #268, .T. ) ;
#25 = ORIENTED_EDGE ( 'NONE', *, *, #568, .T. ) ;
#26 = EDGE_LOOP ( 'NONE', ( #1095, #142, #1015, #624 ) ) ;
#27 = FACE_OUTER_BOUND ( 'NONE', #314, .T. ) ;
#28 = CYLINDRICAL_SURFACE ( 'NONE', #194, 1.249999999999997113 ) ;
#29 = CIRCLE ( 'NONE', #678, 5.100000000000001421 ) ;
#30 = AXIS2_PLACEMENT_3D ( 'NONE', #925, #300, #651 ) ;
#31 = ORIENTED_EDGE ( 'NONE', *, *, #907, .T. ) ;
#32 = DIRECTION ( 'NONE',  ( 0.000000000000000000, 0.000000000000000000, 1.000000000000000000 ) ) ;
#33 = AXIS2_PLACEMENT_3D ( 'NONE', #591, #579, #1106 ) ;
#34 = AXIS2_PLACEMENT_3D ( 'NONE', #191, #32, #455 ) ;
#35 = ORIENTED_EDGE ( 'NONE', *, *, #150, .T. ) ;
#36 = DIRECTION ( 'NONE',  ( -0.000000000000000000, 0.000000000000000000, 1.000000000000000000 ) ) ;
#37 = DIRECTION ( 'NONE',  ( -0.000000000000000000, 0.000000000000000000, 1.000000000000000000 ) ) ;
#38 = ORIENTED_EDGE ( 'NONE', *, *, #345, .F. ) ;
#39 = ORIENTED_EDGE ( 'NONE', *, *, #496, .T. ) ;
#40 = DIRECTION ( 'NONE',  ( -0.000000000000000000, -0.000000000000000000, -1.000000000000000000 ) ) ;
#41 = EDGE_CURVE ( 'NONE', #347, #4, #967, .T. ) ;
#42 = DIRECTION ( 'NONE',  ( 0.000000000000000000, 0.000000000000000000, 1.000000000000000000 ) ) ;
#43 = CARTESIAN_POINT ( 'NONE',  ( 14.13290189500542304, -6.309594085843541755, 5.000000000000000000 ) ) ;
#44 = ORIENTED_EDGE ( 'NONE', *, *, #739, .T. ) ;
#45 = CARTESIAN_POINT ( 'NONE',  ( -18.93815787852775756, 9.623684242944477774, 1.250000000000002665 ) ) ;
#46 = CARTESIAN_POINT ( 'NONE',  ( 3.261842121472240397, 9.123684242944484879, 0.000000000000000000 ) ) ;
#47 = AXIS2_PLACEMENT_3D ( 'NONE', #730, #649, #15 ) ;
#48 = AXIS2_PLACEMENT_3D ( 'NONE', #157, #835, #1046 ) ;
#49 = DIRECTION ( 'NONE',  ( 1.000000000000000000, 0.000000000000000000, 0.000000000000000000 ) ) ;
#50 = AXIS2_PLACEMENT_3D ( 'NONE', #587, #677, #596 ) ;
#51 = ORIENTED_EDGE ( 'NONE', *, *, #667, .F. ) ;
#52 = DIRECTION ( 'NONE',  ( -0.000000000000000000, -0.000000000000000000, -1.000000000000000000 ) ) ;
#53 = VECTOR ( 'NONE', #944, 1000.000000000000000 ) ;
#54 = LINE ( 'NONE', #422, #271 ) ;
#55 = ADVANCED_FACE ( 'NONE', ( #373 ), #293, .F. ) ;
#56 = ORIENTED_EDGE ( 'NONE', *, *, #406, .T. ) ;
#57 = CARTESIAN_POINT ( 'NONE',  ( 16.86184212147224315, 9.123684242944484879, 5.000000000000000000 ) ) ;
#58 = EDGE_CURVE ( 'NONE', #1140, #182, #363, .T. ) ;
#59 = EDGE_CURVE ( 'NONE', #1091, #508, #470, .T. ) ;
#60 = EDGE_LOOP ( 'NONE', ( #887, #819, #400, #121 ) ) ;
#61 = DIRECTION ( 'NONE',  ( 1.000000000000000000, 0.000000000000000000, 0.000000000000000000 ) ) ;
#62 = CARTESIAN_POINT ( 'NONE',  ( -22.23815787852775827, 5.623684242944476885, 0.000000000000000000 ) ) ;
#63 = VECTOR ( 'NONE', #963, 1000.000000000000000 ) ;
#64 = ORIENTED_EDGE ( 'NONE', *, *, #786, .F. ) ;
#65 = DIRECTION ( 'NONE',  ( -1.000000000000000000, 0.000000000000000000, 0.000000000000000000 ) ) ;
#66 = VECTOR ( 'NONE', #384, 1000.000000000000000 ) ;
#67 = AXIS2_PLACEMENT_3D ( 'NONE', #515, #625, #631 ) ;
#68 = DIRECTION ( 'NONE',  ( -0.000000000000000000, 0.000000000000000000, 1.000000000000000000 ) ) ;
#69 = CYLINDRICAL_SURFACE ( 'NONE', #1007, 5.100000000000000533 ) ;
#70 = ORIENTED_EDGE ( 'NONE', *, *, #769, .T. ) ;
#71 = CARTESIAN_POINT ( 'NONE',  ( -13.59491238802564972, 1.537022692415103808, 5.000000000000000000 ) ) ;
#72 = ORIENTED_EDGE ( 'NONE', *, *, #207, .T. ) ;
#73 = FACE_BOUND ( 'NONE', #427, .T. ) ;
#74 = ADVANCED_FACE ( 'NONE', ( #215 ), #504, .F. ) ;
#75 = ORIENTED_EDGE ( 'NONE', *, *, #538, .F. ) ;
#76 = CARTESIAN_POINT ( 'NONE',  ( 15.06184212147224422, 6.623684242944484879, 5.000000000000000000 ) ) ;
#77 = CYLINDRICAL_SURFACE ( 'NONE', #506, 0.8000000000000008216 ) ;
#78 = CARTESIAN_POINT ( 'NONE',  ( 23.06184212147224244, 7.923715337589156249, 0.000000000000000000 ) ) ;
#79 = ORIENTED_EDGE ( 'NONE', *, *, #128, .F. ) ;
#80 = CARTESIAN_POINT ( 'NONE',  ( -23.93815787852775756, -8.376315757055516897, 5.000000000000000000 ) ) ;
#81 = DIRECTION ( 'NONE',  ( -4.130293990420965692E-17, 1.000000000000000000, 0.000000000000000000 ) ) ;
#82 = CIRCLE ( 'NONE', #411, 1.249999999999998002 ) ;
#83 = EDGE_CURVE ( 'NONE', #793, #721, #298, .T. ) ;
#84 = AXIS2_PLACEMENT_3D ( 'NONE', #257, #102, #797 ) ;
#85 = DIRECTION ( 'NONE',  ( -0.000000000000000000, -0.000000000000000000, -1.000000000000000000 ) ) ;
#86 = CIRCLE ( 'NONE', #1139, 10.00000000000000533 ) ;
#87 = EDGE_CURVE ( 'NONE', #876, #514, #220, .T. ) ;
#88 = ORIENTED_EDGE ( 'NONE', *, *, #869, .F. ) ;
#89 = FACE_OUTER_BOUND ( 'NONE', #198, .T. ) ;
#90 = VERTEX_POINT ( 'NONE', #127 ) ;
#91 = DIRECTION ( 'NONE',  ( -0.000000000000000000, -0.000000000000000000, -1.000000000000000000 ) ) ;
#92 = LINE ( 'NONE', #362, #599 ) ;
#93 = VERTEX_POINT ( 'NONE', #654 ) ;
#95 = EDGE_CURVE ( 'NONE', #209, #960, #119, .T. ) ;
#94 = LINE ( 'NONE', #171, #1089 ) ;
#96 = EDGE_LOOP ( 'NONE', ( #802, #234, #1134, #311, #646, #518, #185, #115, #796 ) ) ;
#97 = DIRECTION ( 'NONE',  ( -0.000000000000000000, 0.000000000000000000, 1.000000000000000000 ) ) ;
#98 = CARTESIAN_POINT ( 'NONE',  ( 23.06184212147224244, -3.376315757055515121, 5.000000000000000000 ) ) ;
#99 = DIRECTION ( 'NONE',  ( -0.000000000000000000, 0.000000000000000000, 1.000000000000000000 ) ) ;
#100 = CARTESIAN_POINT ( 'NONE',  ( 2.061842121472243328, 0.1236842429444846153, 5.000000000000000000 ) ) ;
#101 = VERTEX_POINT ( 'NONE', #78 ) ;
#102 = DIRECTION ( 'NONE',  ( -0.000000000000000000, 0.000000000000000000, 1.000000000000000000 ) ) ;
#103 = CARTESIAN_POINT ( 'NONE',  ( -4.438157878527757561, 0.1236842429444846153, 5.000000000000000000 ) ) ;
#104 = AXIS2_PLACEMENT_3D ( 'NONE', #5, #97, #803 ) ;
#105 = AXIS2_PLACEMENT_3D ( 'NONE', #1071, #8, #274 ) ;
#106 = ORIENTED_EDGE ( 'NONE', *, *, #627, .T. ) ;
#107 = DIRECTION ( 'NONE',  ( -1.000000000000000000, 0.000000000000000000, 0.000000000000000000 ) ) ;
#108 = ORIENTED_EDGE ( 'NONE', *, *, #606, .F. ) ;
#109 = CARTESIAN_POINT ( 'NONE',  ( 2.061842121472243328, 6.623684242944484879, 5.000000000000000000 ) ) ;
#110 = LINE ( 'NONE', #644, #212 ) ;
#111 = ORIENTED_EDGE ( 'NONE', *, *, #1080, .F. ) ;
#112 = ORIENTED_EDGE ( 'NONE', *, *, #264, .F. ) ;
#113 = DIRECTION ( 'NONE',  ( -0.000000000000000000, 0.000000000000000000, 1.000000000000000000 ) ) ;
#114 = DIRECTION ( 'NONE',  ( 1.000000000000000000, 0.000000000000000000, 0.000000000000000000 ) ) ;
#115 = ORIENTED_EDGE ( 'NONE', *, *, #224, .T. ) ;
#116 = ORIENTED_EDGE ( 'NONE', *, *, #907, .F. ) ;
#117 = DIRECTION ( 'NONE',  ( -0.000000000000000000, -0.000000000000000000, -1.000000000000000000 ) ) ;
#118 = DIRECTION ( 'NONE',  ( -1.000000000000000000, 0.000000000000000000, 0.000000000000000000 ) ) ;
#119 = CIRCLE ( 'NONE', #357, 0.8000000000000020428 ) ;
#120 = EDGE_CURVE ( 'NONE', #341, #90, #1126, .T. ) ;
#121 = ORIENTED_EDGE ( 'NONE', *, *, #59, .F. ) ;
#122 = DIRECTION ( 'NONE',  ( -0.000000000000000000, -0.000000000000000000, -1.000000000000000000 ) ) ;
#123 = AXIS2_PLACEMENT_3D ( 'NONE', #100, #883, #444 ) ;
#124 = VERTEX_POINT ( 'NONE', #927 ) ;
#125 = CARTESIAN_POINT ( 'NONE',  ( -9.036437400828607025, 14.61125857067261613, 5.000000000000000000 ) ) ;
#126 = LINE ( 'NONE', #385, #1136 ) ;
#127 = CARTESIAN_POINT ( 'NONE',  ( -4.338157878527758804, 8.123684242944490208, 0.000000000000000000 ) ) ;
#128 = EDGE_CURVE ( 'NONE', #1004, #230, #866, .T. ) ;
#129 = VERTEX_POINT ( 'NONE', #741 ) ;
#130 = CARTESIAN_POINT ( 'NONE',  ( -17.09491238802561952, 1.537022692415103364, 5.000000000000000000 ) ) ;
#131 = DIRECTION ( 'NONE',  ( 0.000000000000000000, 1.000000000000000000, -0.000000000000000000 ) ) ;
#132 = DIRECTION ( 'NONE',  ( -1.000000000000000000, -5.236116925563268710E-16, 0.000000000000000000 ) ) ;
#133 = ORIENTED_EDGE ( 'NONE', *, *, #840, .F. ) ;
#134 = DIRECTION ( 'NONE',  ( 1.000000000000000000, 0.000000000000000000, 0.000000000000000000 ) ) ;
#135 = EDGE_CURVE ( 'NONE', #163, #239, #784, .T. ) ;
#136 = CARTESIAN_POINT ( 'NONE',  ( -9.438157878527759337, 8.123684242944486655, 5.000000000000000000 ) ) ;
#137 = CIRCLE ( 'NONE', #489, 0.8000000000000012657 ) ;
#138 = ORIENTED_EDGE ( 'NONE', *, *, #854, .F. ) ;
#139 = DIRECTION ( 'NONE',  ( 0.000000000000000000, 0.000000000000000000, 1.000000000000000000 ) ) ;
#140 = VECTOR ( 'NONE', #513, 1000.000000000000000 ) ;
#141 = ADVANCED_FACE ( 'NONE', ( #481 ), #873, .T. ) ;
#142 = ORIENTED_EDGE ( 'NONE', *, *, #120, .T. ) ;
#143 = CARTESIAN_POINT ( 'NONE',  ( -9.438157878527759337, 8.123684242944490208, 0.000000000000000000 ) ) ;
#144 = LINE ( 'NONE', #326, #154 ) ;
#145 = ORIENTED_EDGE ( 'NONE', *, *, #910, .F. ) ;
#146 = DIRECTION ( 'NONE',  ( -1.000000000000000000, 0.000000000000000000, 0.000000000000000000 ) ) ;
#147 = CARTESIAN_POINT ( 'NONE',  ( -18.93815787852775756, -2.876315757055518230, 2.500000000000000000 ) ) ;
#148 = CARTESIAN_POINT ( 'NONE',  ( 10.86184212147224493, 9.623684242944484879, 0.000000000000000000 ) ) ;
#149 = APPLICATION_CONTEXT ( 'automotive_design' ) ;
#150 = EDGE_CURVE ( 'NONE', #836, #1, #390, .T. ) ;
#151 = AXIS2_PLACEMENT_3D ( 'NONE', #1144, #442, #976 ) ;
#152 = EDGE_LOOP ( 'NONE', ( #106, #482, #1142, #842 ) ) ;
#153 = DIRECTION ( 'NONE',  ( 1.000000000000000000, 0.000000000000000000, -0.000000000000000000 ) ) ;
#154 = VECTOR ( 'NONE', #757, 1000.000000000000114 ) ;
#155 = AXIS2_PLACEMENT_3D ( 'NONE', #320, #65, #139 ) ;
#156 = DIRECTION ( 'NONE',  ( -0.000000000000000000, -0.000000000000000000, -1.000000000000000000 ) ) ;
#157 = CARTESIAN_POINT ( 'NONE',  ( -17.09491238802561952, 1.537022692415103364, 5.000000000000000000 ) ) ;
#158 = EDGE_LOOP ( 'NONE', ( #759, #684 ) ) ;
#159 = CARTESIAN_POINT ( 'NONE',  ( 16.86184212147224315, 9.123684242944484879, 0.000000000000000000 ) ) ;
#160 = ORIENTED_EDGE ( 'NONE', *, *, #910, .T. ) ;
#161 = DIRECTION ( 'NONE',  ( 1.000000000000000000, 0.000000000000000000, 0.000000000000000000 ) ) ;
#162 = DIRECTION ( 'NONE',  ( -0.000000000000000000, -0.000000000000000000, -1.000000000000000000 ) ) ;
#163 = VERTEX_POINT ( 'NONE', #1098 ) ;
#164 = CARTESIAN_POINT ( 'NONE',  ( -20.63815787852776040, 5.623684242944476885, 0.000000000000000000 ) ) ;
#165 = ADVANCED_FACE ( 'NONE', ( #746 ), #69, .F. ) ;
#166 = ORIENTED_EDGE ( 'NONE', *, *, #83, .T. ) ;
#167 = DIRECTION ( 'NONE',  ( -0.000000000000000000, -0.000000000000000000, -1.000000000000000000 ) ) ;
#168 = EDGE_CURVE ( 'NONE', #939, #331, #505, .T. ) ;
#169 = LINE ( 'NONE', #804, #713 ) ;
#170 = ORIENTED_EDGE ( 'NONE', *, *, #291, .T. ) ;
#171 = CARTESIAN_POINT ( 'NONE',  ( 18.06184212147227797, -8.376315757055515121, 5.000000000000000000 ) ) ;
#172 = VECTOR ( 'NONE', #273, 1000.000000000000000 ) ;
#173 = ORIENTED_EDGE ( 'NONE', *, *, #59, .T. ) ;
#174 = DIRECTION ( 'NONE',  ( 1.000000000000000000, 0.000000000000000000, 0.000000000000000000 ) ) ;
#175 = CIRCLE ( 'NONE', #805, 3.499999999999968470 ) ;
#176 = LINE ( 'NONE', #1074, #1065 ) ;
#177 = AXIS2_PLACEMENT_3D ( 'NONE', #1116, #315, #1025 ) ;
#178 = ADVANCED_FACE ( 'NONE', ( #754 ), #328, .F. ) ;
#179 = EDGE_CURVE ( 'NONE', #918, #633, #237, .T. ) ;
#180 = EDGE_LOOP ( 'NONE', ( #788, #731, #533, #79 ) ) ;
#181 = CYLINDRICAL_SURFACE ( 'NONE', #1069, 0.8000000000000020428 ) ;
#182 = VERTEX_POINT ( 'NONE', #148 ) ;
#183 = CARTESIAN_POINT ( 'NONE',  ( 3.459664663323483758E-16, -8.376315757055515121, 5.000000000000000000 ) ) ;
#184 = CARTESIAN_POINT ( 'NONE',  ( 23.06184212147224244, -3.376315757055515121, 0.000000000000000000 ) ) ;
#185 = ORIENTED_EDGE ( 'NONE', *, *, #406, .F. ) ;
#186 = DIRECTION ( 'NONE',  ( 1.000000000000000000, 0.000000000000000000, 0.000000000000000000 ) ) ;
#187 = ORIENTED_EDGE ( 'NONE', *, *, #869, .T. ) ;
#188 = DIRECTION ( 'NONE',  ( 0.000000000000000000, 0.000000000000000000, 1.000000000000000000 ) ) ;
#189 = DIRECTION ( 'NONE',  ( 0.000000000000000000, 0.000000000000000000, 1.000000000000000000 ) ) ;
#190 = ORIENTED_EDGE ( 'NONE', *, *, #58, .T. ) ;
#191 = CARTESIAN_POINT ( 'NONE',  ( 0.000000000000000000, 0.000000000000000000, 0.000000000000000000 ) ) ;
#192 = VERTEX_POINT ( 'NONE', #687 ) ;
#193 = LINE ( 'NONE', #469, #339 ) ;
#194 = AXIS2_PLACEMENT_3D ( 'NONE', #1001, #995, #42 ) ;
#195 = CARTESIAN_POINT ( 'NONE',  ( 18.06184212147224244, 7.923715337589103846, 0.000000000000000000 ) ) ;
#196 = AXIS2_PLACEMENT_3D ( 'NONE', #981, #17, #174 ) ;
#197 = DIRECTION ( 'NONE',  ( 0.000000000000000000, 1.000000000000000000, -0.000000000000000000 ) ) ;
#198 = EDGE_LOOP ( 'NONE', ( #556, #262, #456, #1060 ) ) ;
#199 = LINE ( 'NONE', #732, #452 ) ;
#200 = DIRECTION ( 'NONE',  ( -0.000000000000000000, 0.000000000000000000, 1.000000000000000000 ) ) ;
#201 = DIRECTION ( 'NONE',  ( 0.000000000000000000, 0.000000000000000000, 1.000000000000000000 ) ) ;
#202 = APPLICATION_PROTOCOL_DEFINITION ( 'draft international standard', 'automotive_design', 1998, #149 ) ;
#203 = ORIENTED_EDGE ( 'NONE', *, *, #494, .F. ) ;
#204 = ADVANCED_FACE ( 'NONE', ( #73, #1038, #1130, #333, #607, #792, #812, #904 ), #986, .F. ) ;
#205 = DIRECTION ( 'NONE',  ( 0.000000000000000000, 0.000000000000000000, 1.000000000000000000 ) ) ;
#206 = DIRECTION ( 'NONE',  ( -0.000000000000000000, -0.000000000000000000, -1.000000000000000000 ) ) ;
#207 = EDGE_CURVE ( 'NONE', #633, #721, #453, .T. ) ;
#208 = ORIENTED_EDGE ( 'NONE', *, *, #854, .T. ) ;
#209 = VERTEX_POINT ( 'NONE', #1138 ) ;
#210 = CARTESIAN_POINT ( 'NONE',  ( 2.061842121472243328, 0.1236842429444846153, 5.000000000000000000 ) ) ;
#211 = CARTESIAN_POINT ( 'NONE',  ( -12.54003976828997580, 13.83580545506569592, 5.000000000000000000 ) ) ;
#212 = VECTOR ( 'NONE', #472, 1000.000000000000000 ) ;
#213 = EDGE_CURVE ( 'NONE', #124, #709, #82, .T. ) ;
#214 = AXIS2_PLACEMENT_3D ( 'NONE', #940, #675, #146 ) ;
#215 = FACE_OUTER_BOUND ( 'NONE', #610, .T. ) ;
#216 = AXIS2_PLACEMENT_3D ( 'NONE', #1016, #1032, #307 ) ;
#217 = ORIENTED_EDGE ( 'NONE', *, *, #1113, .T. ) ;
#218 = CARTESIAN_POINT ( 'NONE',  ( 3.459664663323483758E-16, -8.376315757055515121, 0.000000000000000000 ) ) ;
#219 = CARTESIAN_POINT ( 'NONE',  ( -4.338157878527758804, 8.123684242944490208, 4.000000000000000000 ) ) ;
#220 = LINE ( 'NONE', #598, #523 ) ;
#221 = VERTEX_POINT ( 'NONE', #619 ) ;
#222 = DIRECTION ( 'NONE',  ( 0.000000000000000000, -1.000000000000000000, 0.000000000000000000 ) ) ;
#223 = DIRECTION ( 'NONE',  ( -0.000000000000000000, -0.000000000000000000, -1.000000000000000000 ) ) ;
#224 = EDGE_CURVE ( 'NONE', #1054, #902, #541, .T. ) ;
#225 = VERTEX_POINT ( 'NONE', #438 ) ;
#226 = CARTESIAN_POINT ( 'NONE',  ( 18.06184212147227797, -8.376315757055515121, 5.000000000000000000 ) ) ;
#227 = EDGE_CURVE ( 'NONE', #520, #239, #968, .T. ) ;
#228 = SURFACE_STYLE_USAGE ( .BOTH. , #1042 ) ;
#229 = AXIS2_PLACEMENT_3D ( 'NONE', #459, #565, #914 ) ;
#230 = VERTEX_POINT ( 'NONE', #723 ) ;
#231 = CARTESIAN_POINT ( 'NONE',  ( -17.31216575253948520, 12.62368424294447955, 0.000000000000000000 ) ) ;
#232 = VECTOR ( 'NONE', #756, 1000.000000000000000 ) ;
#233 = CARTESIAN_POINT ( 'NONE',  ( 15.26184212147224173, 9.123684242944484879, 0.000000000000000000 ) ) ;
#234 = ORIENTED_EDGE ( 'NONE', *, *, #840, .T. ) ;
#235 = CARTESIAN_POINT ( 'NONE',  ( 2.133696228931573291, -6.375918590093950122, 5.000000000000000000 ) ) ;
#236 = CARTESIAN_POINT ( 'NONE',  ( -18.93815787852775756, 9.623684242944477774, 2.500000000000000000 ) ) ;
#237 = LINE ( 'NONE', #593, #432 ) ;
#238 = EDGE_CURVE ( 'NONE', #101, #514, #824, .T. ) ;
#239 = VERTEX_POINT ( 'NONE', #535 ) ;
#240 = FACE_OUTER_BOUND ( 'NONE', #717, .T. ) ;
#241 =( NAMED_UNIT ( * ) PLANE_ANGLE_UNIT ( ) SI_UNIT ( $, .RADIAN. ) );
#242 = DIRECTION ( 'NONE',  ( -1.000000000000000000, -0.000000000000000000, -0.000000000000000000 ) ) ;
#243 = AXIS2_PLACEMENT_3D ( 'NONE', #1070, #99, #551 ) ;
#244 = AXIS2_PLACEMENT_3D ( 'NONE', #776, #398, #860 ) ;
#245 = EDGE_LOOP ( 'NONE', ( #1118, #862, #70, #557 ) ) ;
#246 = FACE_OUTER_BOUND ( 'NONE', #774, .T. ) ;
#247 = VECTOR ( 'NONE', #1000, 1000.000000000000000 ) ;
#248 = AXIS2_PLACEMENT_3D ( 'NONE', #1005, #113, #820 ) ;
#249 = VERTEX_POINT ( 'NONE', #265 ) ;
#250 = FACE_OUTER_BOUND ( 'NONE', #724, .T. ) ;
#251 = DIRECTION ( 'NONE',  ( -0.000000000000000000, -0.000000000000000000, -1.000000000000000000 ) ) ;
#252 = ADVANCED_FACE ( 'NONE', ( #1053 ), #712, .T. ) ;
#253 = ORIENTED_EDGE ( 'NONE', *, *, #291, .F. ) ;
#254 = DIRECTION ( 'NONE',  ( 0.000000000000000000, 0.000000000000000000, 1.000000000000000000 ) ) ;
#255 = EDGE_CURVE ( 'NONE', #230, #874, #1120, .T. ) ;
#256 = EDGE_LOOP ( 'NONE', ( #707, #190, #870, #697 ) ) ;
#257 = CARTESIAN_POINT ( 'NONE',  ( 10.06184212147224422, 9.623684242944484879, 5.000000000000000000 ) ) ;
#258 = CARTESIAN_POINT ( 'NONE',  ( 18.06184212147224244, -3.376315757055515121, 5.000000000000000000 ) ) ;
#259 = ADVANCED_FACE ( 'NONE', ( #349 ), #1079, .T. ) ;
#260 = ORIENTED_EDGE ( 'NONE', *, *, #538, .T. ) ;
#261 = CARTESIAN_POINT ( 'NONE',  ( -21.43815787852776111, 5.623684242944476885, 5.000000000000000000 ) ) ;
#262 = ORIENTED_EDGE ( 'NONE', *, *, #381, .T. ) ;
#263 = CARTESIAN_POINT ( 'NONE',  ( -18.93815787852775756, 9.623684242944477774, 2.500000000000000000 ) ) ;
#264 = EDGE_CURVE ( 'NONE', #355, #93, #549, .T. ) ;
#265 = CARTESIAN_POINT ( 'NONE',  ( -13.59491238802564972, 1.537022692415103808, 0.000000000000000000 ) ) ;
#266 = VERTEX_POINT ( 'NONE', #184 ) ;
#267 = DIRECTION ( 'NONE',  ( -1.000000000000000000, 0.000000000000000000, 0.000000000000000000 ) ) ;
#268 = CIRCLE ( 'NONE', #932, 1.249999999999998002 ) ;
#269 = PLANE ( 'NONE',  #413 ) ;
#270 = VECTOR ( 'NONE', #377, 1000.000000000000000 ) ;
#271 = VECTOR ( 'NONE', #775, 1000.000000000000000 ) ;
#272 = CARTESIAN_POINT ( 'NONE',  ( 0.000000000000000000, 0.000000000000000000, 0.000000000000000000 ) ) ;
#273 = DIRECTION ( 'NONE',  ( -0.000000000000000000, -0.000000000000000000, -1.000000000000000000 ) ) ;
#274 = DIRECTION ( 'NONE',  ( 1.000000000000000000, 0.000000000000000000, 0.000000000000000000 ) ) ;
#275 = ORIENTED_EDGE ( 'NONE', *, *, #24, .F. ) ;
#276 = FACE_BOUND ( 'NONE', #158, .T. ) ;
#277 = PLANE ( 'NONE',  #412 ) ;
#278 = VERTEX_POINT ( 'NONE', #98 ) ;
#279 = EDGE_LOOP ( 'NONE', ( #16, #319 ) ) ;
#280 = CARTESIAN_POINT ( 'NONE',  ( -20.59491238802558755, 1.537022692415103364, 5.000000000000000000 ) ) ;
#281 = DIRECTION ( 'NONE',  ( 1.000000000000000000, 0.000000000000000000, 0.000000000000000000 ) ) ;
#282 = ORIENTED_EDGE ( 'NONE', *, *, #238, .F. ) ;
#283 = ORIENTED_EDGE ( 'NONE', *, *, #726, .T. ) ;
#284 = LINE ( 'NONE', #1092, #66 ) ;
#285 = AXIS2_PLACEMENT_3D ( 'NONE', #923, #1019, #132 ) ;
#286 = DIRECTION ( 'NONE',  ( 1.000000000000000000, 0.000000000000000000, 0.000000000000000000 ) ) ;
#287 = CIRCLE ( 'NONE', #84, 0.8000000000000020428 ) ;
#288 = VERTEX_POINT ( 'NONE', #706 ) ;
#289 = ORIENTED_EDGE ( 'NONE', *, *, #1028, .F. ) ;
#290 = DIRECTION ( 'NONE',  ( -0.000000000000000000, -0.000000000000000000, -1.000000000000000000 ) ) ;
#291 = EDGE_CURVE ( 'NONE', #737, #4, #176, .T. ) ;
#292 = CARTESIAN_POINT ( 'NONE',  ( 10.06184212147224422, 9.623684242944484879, 5.000000000000000000 ) ) ;
#293 = CYLINDRICAL_SURFACE ( 'NONE', #47, 1.249999999999997113 ) ;
#294 = ORIENTED_EDGE ( 'NONE', *, *, #213, .T. ) ;
#295 = LINE ( 'NONE', #728, #1137 ) ;
#296 = CYLINDRICAL_SURFACE ( 'NONE', #1026, 6.500000000000000888 ) ;
#297 = EDGE_CURVE ( 'NONE', #978, #221, #169, .T. ) ;
#298 = LINE ( 'NONE', #43, #335 ) ;
#299 = ORIENTED_EDGE ( 'NONE', *, *, #399, .T. ) ;
#300 = DIRECTION ( 'NONE',  ( -0.000000000000000000, 0.000000000000000000, 1.000000000000000000 ) ) ;
#301 = DIRECTION ( 'NONE',  ( -0.000000000000000000, -0.000000000000000000, -1.000000000000000000 ) ) ;
#302 = AXIS2_PLACEMENT_3D ( 'NONE', #612, #354, #1066 ) ;
#303 = AXIS2_PLACEMENT_3D ( 'NONE', #417, #510, #865 ) ;
#304 = AXIS2_PLACEMENT_3D ( 'NONE', #401, #153, #768 ) ;
#305 = DIRECTION ( 'NONE',  ( -1.000000000000000000, 0.000000000000000000, 0.000000000000000000 ) ) ;
#306 = VERTEX_POINT ( 'NONE', #1059 ) ;
#307 = DIRECTION ( 'NONE',  ( 1.000000000000000000, 0.000000000000000000, 0.000000000000000000 ) ) ;
#308 = FACE_OUTER_BOUND ( 'NONE', #1020, .T. ) ;
#309 = DIRECTION ( 'NONE',  ( 0.000000000000000000, 0.000000000000000000, 1.000000000000000000 ) ) ;
#310 = PRODUCT_DEFINITION_SHAPE ( 'NONE', 'NONE',  #931 ) ;
#311 = ORIENTED_EDGE ( 'NONE', *, *, #1034, .T. ) ;
#312 = CARTESIAN_POINT ( 'NONE',  ( -12.54003976828997580, 13.83580545506569592, 5.000000000000000000 ) ) ;
#313 = EDGE_CURVE ( 'NONE', #1129, #748, #92, .T. ) ;
#314 = EDGE_LOOP ( 'NONE', ( #948, #1127, #884, #424 ) ) ;
#315 = DIRECTION ( 'NONE',  ( -0.000000000000000000, 0.000000000000000000, 1.000000000000000000 ) ) ;
#316 = CARTESIAN_POINT ( 'NONE',  ( 15.06184212147224422, 6.623684242944484879, 0.000000000000000000 ) ) ;
#317 = VECTOR ( 'NONE', #131, 1000.000000000000000 ) ;
#318 = AXIS2_PLACEMENT_3D ( 'NONE', #405, #1029, #761 ) ;
#319 = ORIENTED_EDGE ( 'NONE', *, *, #996, .F. ) ;
#320 = CARTESIAN_POINT ( 'NONE',  ( -18.93815787852775756, 9.623684242944477774, 2.500000000000000000 ) ) ;
#321 = CIRCLE ( 'NONE', #216, 0.8000000000000020428 ) ;
#322 = ADVANCED_FACE ( 'NONE', ( #886, #6, #719 ), #277, .T. ) ;
#323 = FACE_OUTER_BOUND ( 'NONE', #152, .T. ) ;
#324 = EDGE_LOOP ( 'NONE', ( #475, #352, #56, #1048 ) ) ;
#325 = LINE ( 'NONE', #493, #232 ) ;
#326 = CARTESIAN_POINT ( 'NONE',  ( 0.8667797149006970514, 13.99803629228021684, 0.000000000000000000 ) ) ;
#327 = EDGE_CURVE ( 'NONE', #928, #225, #666, .T. ) ;
#328 = CYLINDRICAL_SURFACE ( 'NONE', #765, 1.249999999999998002 ) ;
#329 = EDGE_LOOP ( 'NONE', ( #9, #701 ) ) ;
#330 = DIRECTION ( 'NONE',  ( -0.000000000000000000, -0.000000000000000000, -1.000000000000000000 ) ) ;
#331 = VERTEX_POINT ( 'NONE', #834 ) ;
#332 = PRESENTATION_STYLE_ASSIGNMENT (( #228 ) ) ;
#333 = FACE_BOUND ( 'NONE', #906, .T. ) ;
#334 = EDGE_CURVE ( 'NONE', #331, #1081, #126, .T. ) ;
#335 = VECTOR ( 'NONE', #569, 1000.000000000000000 ) ;
#336 = AXIS2_PLACEMENT_3D ( 'NONE', #272, #522, #281 ) ;
#337 = EDGE_LOOP ( 'NONE', ( #1077, #755 ) ) ;
#338 = CARTESIAN_POINT ( 'NONE',  ( 10.06184212147224422, 9.623684242944484879, 0.000000000000000000 ) ) ;
#339 = VECTOR ( 'NONE', #985, 1000.000000000000000 ) ;
#340 = AXIS2_PLACEMENT_3D ( 'NONE', #143, #498, #420 ) ;
#341 = VERTEX_POINT ( 'NONE', #219 ) ;
#342 = FACE_OUTER_BOUND ( 'NONE', #832, .T. ) ;
#343 = DIRECTION ( 'NONE',  ( -0.000000000000000000, -0.000000000000000000, -1.000000000000000000 ) ) ;
#344 = ORIENTED_EDGE ( 'NONE', *, *, #988, .F. ) ;
#345 = EDGE_CURVE ( 'NONE', #192, #347, #648, .T. ) ;
#346 = CARTESIAN_POINT ( 'NONE',  ( -17.31216575253955625, 22.62368424294448488, 5.000000000000000000 ) ) ;
#347 = VERTEX_POINT ( 'NONE', #46 ) ;
#348 = CARTESIAN_POINT ( 'NONE',  ( 2.061842121472243328, 0.1236842429444846153, 0.000000000000000000 ) ) ;
#349 = FACE_OUTER_BOUND ( 'NONE', #810, .T. ) ;
#350 = ORIENTED_EDGE ( 'NONE', *, *, #313, .T. ) ;
#351 = DIRECTION ( 'NONE',  ( -0.000000000000000000, -0.000000000000000000, -1.000000000000000000 ) ) ;
#352 = ORIENTED_EDGE ( 'NONE', *, *, #568, .F. ) ;
#353 = DIRECTION ( 'NONE',  ( -0.000000000000000000, -0.000000000000000000, -1.000000000000000000 ) ) ;
#354 = DIRECTION ( 'NONE',  ( -0.000000000000000000, -0.000000000000000000, -1.000000000000000000 ) ) ;
#355 = VERTEX_POINT ( 'NONE', #1084 ) ;
#356 = CARTESIAN_POINT ( 'NONE',  ( -23.93815787852775756, -2.876315757055518230, 2.500000000000000000 ) ) ;
#357 = AXIS2_PLACEMENT_3D ( 'NONE', #952, #511, #418 ) ;
#358 = ORIENTED_EDGE ( 'NONE', *, *, #128, .T. ) ;
#359 = CARTESIAN_POINT ( 'NONE',  ( -23.93815787852775756, 12.62368424294447600, 0.000000000000000000 ) ) ;
#360 = VECTOR ( 'NONE', #1011, 1000.000000000000000 ) ;
#361 = ADVANCED_FACE ( 'NONE', ( #1101 ), #28, .F. ) ;
#362 = CARTESIAN_POINT ( 'NONE',  ( -6.609908672744797738E-15, 12.62368424294448843, 5.000000000000000000 ) ) ;
#363 = LINE ( 'NONE', #720, #394 ) ;
#364 = ORIENTED_EDGE ( 'NONE', *, *, #879, .F. ) ;
#365 = DIRECTION ( 'NONE',  ( -0.000000000000000000, 0.000000000000000000, 1.000000000000000000 ) ) ;
#366 = DIRECTION ( 'NONE',  ( -1.000000000000000000, 0.000000000000000000, 0.000000000000000000 ) ) ;
#367 = VERTEX_POINT ( 'NONE', #909 ) ;
#368 = ORIENTED_EDGE ( 'NONE', *, *, #371, .T. ) ;
#369 = CARTESIAN_POINT ( 'NONE',  ( 18.06184212147224244, 7.923715337589103846, 5.000000000000000000 ) ) ;
#370 = CARTESIAN_POINT ( 'NONE',  ( 0.03530641332084596962, -6.387517246548182648, 5.000000000000000000 ) ) ;
#371 = EDGE_CURVE ( 'NONE', #737, #192, #137, .T. ) ;
#372 = ADVANCED_FACE ( 'NONE', ( #1018 ), #296, .F. ) ;
#373 = FACE_OUTER_BOUND ( 'NONE', #180, .T. ) ;
#374 = VERTEX_POINT ( 'NONE', #652 ) ;
#375 = CARTESIAN_POINT ( 'NONE',  ( -17.31216575253948520, 12.62368424294447955, 5.000000000000000000 ) ) ;
#376 = AXIS2_PLACEMENT_3D ( 'NONE', #516, #839, #49 ) ;
#377 = DIRECTION ( 'NONE',  ( -0.000000000000000000, -0.000000000000000000, -1.000000000000000000 ) ) ;
#378 = AXIS2_PLACEMENT_3D ( 'NONE', #780, #91, #698 ) ;
#379 = AXIS2_PLACEMENT_3D ( 'NONE', #261, #351, #1133 ) ;
#380 = CARTESIAN_POINT ( 'NONE',  ( -20.59491238802558755, 1.537022692415103364, 0.000000000000000000 ) ) ;
#381 = EDGE_CURVE ( 'NONE', #341, #306, #29, .T. ) ;
#382 = EDGE_CURVE ( 'NONE', #1, #249, #175, .T. ) ;
#383 = EDGE_LOOP ( 'NONE', ( #1041, #436, #620, #166 ) ) ;
#384 = DIRECTION ( 'NONE',  ( -0.000000000000000000, -0.000000000000000000, -1.000000000000000000 ) ) ;
#385 = CARTESIAN_POINT ( 'NONE',  ( -20.63815787852776040, 5.623684242944476885, 5.000000000000000000 ) ) ;
#386 = ORIENTED_EDGE ( 'NONE', *, *, #238, .T. ) ;
#387 = EDGE_LOOP ( 'NONE', ( #992, #656, #790, #574 ) ) ;
#388 = LINE ( 'NONE', #635, #247 ) ;
#389 = DIRECTION ( 'NONE',  ( 0.9999847242309575224, 0.005527323469429326792, 0.000000000000000000 ) ) ;
#390 = LINE ( 'NONE', #485, #935 ) ;
#391 = EDGE_LOOP ( 'NONE', ( #7, #1131 ) ) ;
#392 = DIRECTION ( 'NONE',  ( -1.000000000000000000, 0.000000000000000000, 0.000000000000000000 ) ) ;
#393 = DIRECTION ( 'NONE',  ( 1.000000000000000000, 0.000000000000000000, 0.000000000000000000 ) ) ;
#394 = VECTOR ( 'NONE', #1008, 1000.000000000000000 ) ;
#395 = AXIS2_PLACEMENT_3D ( 'NONE', #484, #838, #1108 ) ;
#396 = CIRCLE ( 'NONE', #318, 6.500000000000000888 ) ;
#397 = VECTOR ( 'NONE', #222, 1000.000000000000000 ) ;
#398 = DIRECTION ( 'NONE',  ( -0.000000000000000000, 0.000000000000000000, 1.000000000000000000 ) ) ;
#399 = EDGE_CURVE ( 'NONE', #508, #1091, #750, .T. ) ;
#400 = ORIENTED_EDGE ( 'NONE', *, *, #1049, .T. ) ;
#401 = CARTESIAN_POINT ( 'NONE',  ( 23.06184212147224244, 0.000000000000000000, 5.000000000000000000 ) ) ;
#402 = DIRECTION ( 'NONE',  ( -0.000000000000000000, 0.000000000000000000, 1.000000000000000000 ) ) ;
#403 = ORIENTED_EDGE ( 'NONE', *, *, #500, .T. ) ;
#404 = FACE_OUTER_BOUND ( 'NONE', #536, .T. ) ;
#405 = CARTESIAN_POINT ( 'NONE',  ( 2.061842121472243328, 0.1236842429444846153, 5.000000000000000000 ) ) ;
#406 = EDGE_CURVE ( 'NONE', #1054, #1129, #23, .T. ) ;
#407 = EDGE_CURVE ( 'NONE', #918, #793, #752, .T. ) ;
#408 = ORIENTED_EDGE ( 'NONE', *, *, #653, .F. ) ;
#409 = CARTESIAN_POINT ( 'NONE',  ( -18.93815787852775756, 9.623684242944477774, 3.749999999999997335 ) ) ;
#410 = CLOSED_SHELL ( 'NONE', ( #55, #550, #640, #1102, #1145, #669, #457, #1064, #165, #1114, #915, #259, #831, #530, #962, #141, #322, #662, #942, #555, #372, #1121, #822, #416, #580, #517, #74, #252, #588, #204, #178, #1044, #361, #872, #615 ) ) ;
#411 = AXIS2_PLACEMENT_3D ( 'NONE', #18, #366, #13 ) ;
#412 = AXIS2_PLACEMENT_3D ( 'NONE', #632, #982, #189 ) ;
#413 = AXIS2_PLACEMENT_3D ( 'NONE', #877, #188, #1078 ) ;
#414 = ORIENTED_EDGE ( 'NONE', *, *, #168, .F. ) ;
#415 = CARTESIAN_POINT ( 'NONE',  ( -23.93815787852775756, 9.623684242944477774, 1.250000000000002665 ) ) ;
#416 = ADVANCED_FACE ( 'NONE', ( #554 ), #465, .F. ) ;
#417 = CARTESIAN_POINT ( 'NONE',  ( 0.03530641332084596962, -6.387517246548182648, 5.000000000000000000 ) ) ;
#418 = DIRECTION ( 'NONE',  ( 1.000000000000000000, 0.000000000000000000, 0.000000000000000000 ) ) ;
#419 = ORIENTED_EDGE ( 'NONE', *, *, #407, .F. ) ;
#420 = DIRECTION ( 'NONE',  ( 1.000000000000000000, 0.000000000000000000, 0.000000000000000000 ) ) ;
#421 = ORIENTED_EDGE ( 'NONE', *, *, #255, .T. ) ;
#422 = CARTESIAN_POINT ( 'NONE',  ( -23.93815787852775756, -8.376315757055516897, 5.000000000000000000 ) ) ;
#423 = CARTESIAN_POINT ( 'NONE',  ( 16.06184212147224244, 9.123684242944484879, 0.000000000000000000 ) ) ;
#424 = ORIENTED_EDGE ( 'NONE', *, *, #87, .T. ) ;
#425 = DIRECTION ( 'NONE',  ( -0.000000000000000000, -0.000000000000000000, -1.000000000000000000 ) ) ;
#426 = EDGE_CURVE ( 'NONE', #836, #990, #563, .T. ) ;
#427 = EDGE_LOOP ( 'NONE', ( #613, #20 ) ) ;
#428 = DIRECTION ( 'NONE',  ( -0.000000000000000000, 0.000000000000000000, 1.000000000000000000 ) ) ;
#429 = CARTESIAN_POINT ( 'NONE',  ( 3.459664663323483758E-16, -8.376315757055515121, 5.000000000000000000 ) ) ;
#430 = EDGE_CURVE ( 'NONE', #524, #163, #729, .T. ) ;
#431 = AXIS2_PLACEMENT_3D ( 'NONE', #447, #807, #905 ) ;
#432 = VECTOR ( 'NONE', #946, 1000.000000000000000 ) ;
#433 = ORIENTED_EDGE ( 'NONE', *, *, #637, .T. ) ;
#434 = CARTESIAN_POINT ( 'NONE',  ( -9.438157878527759337, 8.123684242944486655, 5.000000000000000000 ) ) ;
#435 = VECTOR ( 'NONE', #290, 1000.000000000000000 ) ;
#436 = ORIENTED_EDGE ( 'NONE', *, *, #179, .F. ) ;
#437 = CARTESIAN_POINT ( 'NONE',  ( -23.93815787852775756, -8.376315757055516897, 0.000000000000000000 ) ) ;
#438 = CARTESIAN_POINT ( 'NONE',  ( -12.54003976828997580, 13.83580545506569592, 0.000000000000000000 ) ) ;
#439 = EDGE_LOOP ( 'NONE', ( #364, #75, #358, #421 ) ) ;
#440 = CARTESIAN_POINT ( 'NONE',  ( -9.438157878527759337, 8.123684242944490208, 5.000000000000000000 ) ) ;
#441 = FACE_BOUND ( 'NONE', #825, .T. ) ;
#442 = DIRECTION ( 'NONE',  ( -1.000000000000000000, 0.000000000000000000, 0.000000000000000000 ) ) ;
#443 = ORIENTED_EDGE ( 'NONE', *, *, #168, .T. ) ;
#444 = DIRECTION ( 'NONE',  ( -1.000000000000000000, 0.000000000000000000, 0.000000000000000000 ) ) ;
#445 = FACE_BOUND ( 'NONE', #391, .T. ) ;
#446 = DIRECTION ( 'NONE',  ( 1.000000000000000000, 4.130293990420965692E-17, 0.000000000000000000 ) ) ;
#447 = CARTESIAN_POINT ( 'NONE',  ( 4.061842121472241551, 9.123684242944484879, 0.000000000000000000 ) ) ;
#448 = VECTOR ( 'NONE', #389, 1000.000000000000114 ) ;
#449 = ORIENTED_EDGE ( 'NONE', *, *, #297, .T. ) ;
#450 = FACE_OUTER_BOUND ( 'NONE', #387, .T. ) ;
#451 = CIRCLE ( 'NONE', #566, 1.249999999999997113 ) ;
#452 = VECTOR ( 'NONE', #553, 1000.000000000000114 ) ;
#453 = LINE ( 'NONE', #891, #1086 ) ;
#454 = ORIENTED_EDGE ( 'NONE', *, *, #1075, .F. ) ;
#455 = DIRECTION ( 'NONE',  ( 1.000000000000000000, 0.000000000000000000, 0.000000000000000000 ) ) ;
#456 = ORIENTED_EDGE ( 'NONE', *, *, #781, .T. ) ;
#457 = ADVANCED_FACE ( 'NONE', ( #308 ), #922, .F. ) ;
#458 = DIRECTION ( 'NONE',  ( -0.000000000000000000, -0.000000000000000000, -1.000000000000000000 ) ) ;
#459 = CARTESIAN_POINT ( 'NONE',  ( 16.06184212147224244, 9.123684242944484879, 0.000000000000000000 ) ) ;
#460 = EDGE_CURVE ( 'NONE', #709, #1035, #110, .T. ) ;
#461 = EDGE_LOOP ( 'NONE', ( #688, #984, #628, #813, #72 ) ) ;
#462 = ORIENTED_EDGE ( 'NONE', *, *, #224, .F. ) ;
#463 = EDGE_CURVE ( 'NONE', #331, #939, #858, .T. ) ;
#464 = CARTESIAN_POINT ( 'NONE',  ( 14.13290189500542304, -6.309594085843541755, 0.000000000000000000 ) ) ;
#465 = CYLINDRICAL_SURFACE ( 'NONE', #471, 0.8000000000000020428 ) ;
#466 = EDGE_CURVE ( 'NONE', #221, #182, #1043, .T. ) ;
#467 = EDGE_LOOP ( 'NONE', ( #414, #867 ) ) ;
#468 = VERTEX_POINT ( 'NONE', #62 ) ;
#469 = CARTESIAN_POINT ( 'NONE',  ( 23.06184212147224244, 0.000000000000000000, 0.000000000000000000 ) ) ;
#470 = CIRCLE ( 'NONE', #841, 0.8000000000000020428 ) ;
#471 = AXIS2_PLACEMENT_3D ( 'NONE', #292, #301, #118 ) ;
#472 = DIRECTION ( 'NONE',  ( -1.000000000000000000, -0.000000000000000000, -0.000000000000000000 ) ) ;
#473 = AXIS2_PLACEMENT_3D ( 'NONE', #348, #365, #897 ) ;
#474 = VECTOR ( 'NONE', #52, 1000.000000000000000 ) ;
#475 = ORIENTED_EDGE ( 'NONE', *, *, #3, .F. ) ;
#476 = SHAPE_DEFINITION_REPRESENTATION ( #310, #798 ) ;
#477 = ORIENTED_EDGE ( 'NONE', *, *, #430, .F. ) ;
#478 = FACE_OUTER_BOUND ( 'NONE', #664, .T. ) ;
#479 = CARTESIAN_POINT ( 'NONE',  ( -17.09491238802561952, 1.537022692415103364, 0.000000000000000000 ) ) ;
#480 = MANIFOLD_SOLID_BREP ( 'Boss-Extrude2', #410 ) ;
#481 = FACE_OUTER_BOUND ( 'NONE', #501, .T. ) ;
#482 = ORIENTED_EDGE ( 'NONE', *, *, #327, .F. ) ;
#483 = DIRECTION ( 'NONE',  ( 1.000000000000000000, 0.000000000000000000, 0.000000000000000000 ) ) ;
#484 = CARTESIAN_POINT ( 'NONE',  ( -17.09491238802561952, 1.537022692415103364, 5.000000000000000000 ) ) ;
#485 = CARTESIAN_POINT ( 'NONE',  ( -20.59491238802558755, 1.537022692415103364, 5.000000000000000000 ) ) ;
#486 = EDGE_LOOP ( 'NONE', ( #51, #111 ) ) ;
#487 = CARTESIAN_POINT ( 'NONE',  ( -18.93815787852775756, 9.623684242944477774, 1.250000000000002665 ) ) ;
#488 = FACE_OUTER_BOUND ( 'NONE', #1024, .T. ) ;
#489 = AXIS2_PLACEMENT_3D ( 'NONE', #660, #200, #393 ) ;
#490 = CIRCLE ( 'NONE', #104, 0.8000000000000012657 ) ;
#491 = CIRCLE ( 'NONE', #507, 1.249999999999998002 ) ;
#492 = ORIENTED_EDGE ( 'NONE', *, *, #371, .F. ) ;
#493 = CARTESIAN_POINT ( 'NONE',  ( -18.93815787852775756, -2.876315757055518230, 3.749999999999998224 ) ) ;
#494 = EDGE_CURVE ( 'NONE', #514, #374, #144, .T. ) ;
#495 =( NAMED_UNIT ( * ) SI_UNIT ( $, .STERADIAN. ) SOLID_ANGLE_UNIT ( ) );
#496 = EDGE_CURVE ( 'NONE', #520, #918, #396, .T. ) ;
#497 = EDGE_LOOP ( 'NONE', ( #294, #924 ) ) ;
#498 = DIRECTION ( 'NONE',  ( -0.000000000000000000, 0.000000000000000000, 1.000000000000000000 ) ) ;
#499 = CARTESIAN_POINT ( 'NONE',  ( 16.86184212147224315, 9.123684242944484879, 5.000000000000000000 ) ) ;
#500 = EDGE_CURVE ( 'NONE', #960, #1091, #683, .T. ) ;
#501 = EDGE_LOOP ( 'NONE', ( #344, #1031, #350, #830 ) ) ;
#502 = DIRECTION ( 'NONE',  ( 1.000000000000000000, 5.236116925563268710E-16, 0.000000000000000000 ) ) ;
#503 = DIRECTION ( 'NONE',  ( -1.000000000000000000, -0.000000000000000000, -0.000000000000000000 ) ) ;
#504 = CYLINDRICAL_SURFACE ( 'NONE', #48, 3.499999999999968470 ) ;
#505 = CIRCLE ( 'NONE', #376, 0.7999999999999986011 ) ;
#506 = AXIS2_PLACEMENT_3D ( 'NONE', #534, #167, #705 ) ;
#507 = AXIS2_PLACEMENT_3D ( 'NONE', #356, #954, #696 ) ;
#508 = VERTEX_POINT ( 'NONE', #233 ) ;
#509 = LINE ( 'NONE', #863, #846 ) ;
#510 = DIRECTION ( 'NONE',  ( -0.005527323469429327660, 0.9999847242309576334, 0.000000000000000000 ) ) ;
#511 = DIRECTION ( 'NONE',  ( -0.000000000000000000, 0.000000000000000000, 1.000000000000000000 ) ) ;
#512 = EDGE_LOOP ( 'NONE', ( #974, #433, #449, #289 ) ) ;
#513 = DIRECTION ( 'NONE',  ( -0.000000000000000000, -0.000000000000000000, -1.000000000000000000 ) ) ;
#514 = VERTEX_POINT ( 'NONE', #770 ) ;
#515 = CARTESIAN_POINT ( 'NONE',  ( 0.000000000000000000, 0.000000000000000000, 5.000000000000000000 ) ) ;
#516 = CARTESIAN_POINT ( 'NONE',  ( -21.43815787852776111, 5.623684242944476885, 5.000000000000000000 ) ) ;
#517 = ADVANCED_FACE ( 'NONE', ( #250 ), #686, .T. ) ;
#518 = ORIENTED_EDGE ( 'NONE', *, *, #313, .F. ) ;
#519 = CARTESIAN_POINT ( 'NONE',  ( -23.93815787852775756, 12.62368424294447600, 5.000000000000000000 ) ) ;
#520 = VERTEX_POINT ( 'NONE', #950 ) ;
#521 = CARTESIAN_POINT ( 'NONE',  ( -21.43815787852776111, 5.623684242944476885, 0.000000000000000000 ) ) ;
#522 = DIRECTION ( 'NONE',  ( -0.000000000000000000, 0.000000000000000000, 1.000000000000000000 ) ) ;
#523 = VECTOR ( 'NONE', #573, 1000.000000000000000 ) ;
#524 = VERTEX_POINT ( 'NONE', #316 ) ;
#525 = DIRECTION ( 'NONE',  ( -0.000000000000000000, 0.000000000000000000, 1.000000000000000000 ) ) ;
#526 = CIRCLE ( 'NONE', #751, 1.249999999999998002 ) ;
#527 = ORIENTED_EDGE ( 'NONE', *, *, #460, .T. ) ;
#528 = FACE_OUTER_BOUND ( 'NONE', #608, .T. ) ;
#529 = DIRECTION ( 'NONE',  ( -0.000000000000000000, -0.000000000000000000, -1.000000000000000000 ) ) ;
#530 = ADVANCED_FACE ( 'NONE', ( #323 ), #930, .T. ) ;
#531 = ORIENTED_EDGE ( 'NONE', *, *, #1085, .T. ) ;
#532 = CARTESIAN_POINT ( 'NONE',  ( 10.06184212147224422, 9.623684242944484879, 5.000000000000000000 ) ) ;
#533 = ORIENTED_EDGE ( 'NONE', *, *, #786, .T. ) ;
#534 = CARTESIAN_POINT ( 'NONE',  ( 4.061842121472241551, 9.123684242944484879, 5.000000000000000000 ) ) ;
#535 = CARTESIAN_POINT ( 'NONE',  ( -4.438157878527757561, 0.1236842429444846153, 0.000000000000000000 ) ) ;
#536 = EDGE_LOOP ( 'NONE', ( #851, #999, #590, #800 ) ) ;
#538 = EDGE_CURVE ( 'NONE', #1004, #714, #785, .T. ) ;
#537 = FACE_OUTER_BOUND ( 'NONE', #964, .T. ) ;
#539 = EDGE_LOOP ( 'NONE', ( #260, #630 ) ) ;
#540 = FACE_BOUND ( 'NONE', #1010, .T. ) ;
#541 = LINE ( 'NONE', #429, #12 ) ;
#542 = CARTESIAN_POINT ( 'NONE',  ( -9.036437400828607025, 14.61125857067261613, 5.000000000000000000 ) ) ;
#543 = VECTOR ( 'NONE', #529, 1000.000000000000000 ) ;
#544 = PRODUCT_DEFINITION_CONTEXT ( 'detailed design', #149, 'design' ) ;
#545 = ORIENTED_EDGE ( 'NONE', *, *, #399, .F. ) ;
#546 = DIRECTION ( 'NONE',  ( -1.000000000000000000, 0.000000000000000000, 0.000000000000000000 ) ) ;
#547 =( GEOMETRIC_REPRESENTATION_CONTEXT ( 3 ) GLOBAL_UNCERTAINTY_ASSIGNED_CONTEXT ( ( #895 ) ) GLOBAL_UNIT_ASSIGNED_CONTEXT ( ( #1033, #241, #495 ) ) REPRESENTATION_CONTEXT ( 'NONE', 'WORKASPACE' ) );
#548 = AXIS2_PLACEMENT_3D ( 'NONE', #562, #117, #546 ) ;
#549 = LINE ( 'NONE', #783, #63 ) ;
#550 = ADVANCED_FACE ( 'NONE', ( #488 ), #945, .F. ) ;
#551 = DIRECTION ( 'NONE',  ( 1.000000000000000000, 0.000000000000000000, 0.000000000000000000 ) ) ;
#552 = ORIENTED_EDGE ( 'NONE', *, *, #41, .F. ) ;
#553 = DIRECTION ( 'NONE',  ( -0.9980883581120204573, 0.06180315041525850928, 0.000000000000000000 ) ) ;
#554 = FACE_OUTER_BOUND ( 'NONE', #512, .T. ) ;
#555 = ADVANCED_FACE ( 'NONE', ( #672 ), #857, .T. ) ;
#556 = ORIENTED_EDGE ( 'NONE', *, *, #120, .F. ) ;
#557 = ORIENTED_EDGE ( 'NONE', *, *, #977, .F. ) ;
#558 = CARTESIAN_POINT ( 'NONE',  ( 18.06184212147224244, -3.376315757055515121, 5.000000000000000000 ) ) ;
#559 = CARTESIAN_POINT ( 'NONE',  ( 2.061842121472243328, 0.1236842429444846153, 5.000000000000000000 ) ) ;
#560 = ORIENTED_EDGE ( 'NONE', *, *, #179, .T. ) ;
#561 = ORIENTED_EDGE ( 'NONE', *, *, #1049, .F. ) ;
#562 = CARTESIAN_POINT ( 'NONE',  ( 4.061842121472241551, 9.123684242944484879, 5.000000000000000000 ) ) ;
#563 = CIRCLE ( 'NONE', #395, 3.499999999999968470 ) ;
#564 = STYLED_ITEM ( 'NONE', ( #332 ), #480 ) ;
#565 = DIRECTION ( 'NONE',  ( -0.000000000000000000, 0.000000000000000000, 1.000000000000000000 ) ) ;
#566 = AXIS2_PLACEMENT_3D ( 'NONE', #263, #890, #1063 ) ;
#567 = AXIS2_PLACEMENT_3D ( 'NONE', #849, #682, #1021 ) ;
#568 = EDGE_CURVE ( 'NONE', #1054, #670, #54, .T. ) ;
#569 = DIRECTION ( 'NONE',  ( -0.000000000000000000, -0.000000000000000000, -1.000000000000000000 ) ) ;
#570 = ORIENTED_EDGE ( 'NONE', *, *, #496, .F. ) ;
#571 = LINE ( 'NONE', #647, #435 ) ;
#572 = DIRECTION ( 'NONE',  ( -0.000000000000000000, 0.000000000000000000, 1.000000000000000000 ) ) ;
#573 = DIRECTION ( 'NONE',  ( -0.000000000000000000, -0.000000000000000000, -1.000000000000000000 ) ) ;
#574 = ORIENTED_EDGE ( 'NONE', *, *, #150, .F. ) ;
#575 = CARTESIAN_POINT ( 'NONE',  ( 23.06184212147224244, 0.000000000000000000, 5.000000000000000000 ) ) ;
#576 = DIRECTION ( 'NONE',  ( -1.000000000000000000, 0.000000000000000000, 0.000000000000000000 ) ) ;
#577 = EDGE_CURVE ( 'NONE', #721, #524, #659, .T. ) ;
#578 = ORIENTED_EDGE ( 'NONE', *, *, #703, .F. ) ;
#579 = DIRECTION ( 'NONE',  ( -0.000000000000000000, 0.000000000000000000, 1.000000000000000000 ) ) ;
#580 = ADVANCED_FACE ( 'NONE', ( #617 ), #871, .F. ) ;
#581 = FILL_AREA_STYLE_COLOUR ( '', #733 ) ;
#582 = VECTOR ( 'NONE', #251, 1000.000000000000000 ) ;
#583 = AXIS2_PLACEMENT_3D ( 'NONE', #743, #392, #205 ) ;
#584 = AXIS2_PLACEMENT_3D ( 'NONE', #210, #929, #134 ) ;
#585 = ORIENTED_EDGE ( 'NONE', *, *, #739, .F. ) ;
#586 = CARTESIAN_POINT ( 'NONE',  ( 9.261842121472241729, 9.623684242944484879, 5.000000000000000000 ) ) ;
#587 = CARTESIAN_POINT ( 'NONE',  ( 0.000000000000000000, 6.623684242944484879, 5.000000000000000000 ) ) ;
#588 = ADVANCED_FACE ( 'NONE', ( #276, #441, #1058, #445, #540, #605, #1135 ), #718, .T. ) ;
#589 = PRODUCT ( 'slider - right', 'slider - right', '', ( #998 ) ) ;
#590 = ORIENTED_EDGE ( 'NONE', *, *, #1090, .T. ) ;
#591 = CARTESIAN_POINT ( 'NONE',  ( 4.061842121472241551, 9.123684242944484879, 0.000000000000000000 ) ) ;
#592 = DIRECTION ( 'NONE',  ( -1.000000000000000000, 0.000000000000000000, 0.000000000000000000 ) ) ;
#593 = CARTESIAN_POINT ( 'NONE',  ( 2.133696228931573291, -6.375918590093950122, 5.000000000000000000 ) ) ;
#594 = ORIENTED_EDGE ( 'NONE', *, *, #255, .F. ) ;
#595 = CYLINDRICAL_SURFACE ( 'NONE', #214, 10.00000000000000533 ) ;
#596 = DIRECTION ( 'NONE',  ( 0.000000000000000000, -0.000000000000000000, -1.000000000000000000 ) ) ;
#597 = CIRCLE ( 'NONE', #243, 3.499999999999968470 ) ;
#598 = CARTESIAN_POINT ( 'NONE',  ( 18.37085787354854460, 12.91415712814920269, 5.000000000000000000 ) ) ;
#599 = VECTOR ( 'NONE', #799, 1000.000000000000000 ) ;
#600 = AXIS2_PLACEMENT_3D ( 'NONE', #941, #68, #764 ) ;
#601 = CIRCLE ( 'NONE', #105, 4.999999999999997335 ) ;
#602 = EDGE_LOOP ( 'NONE', ( #1076, #1039 ) ) ;
#603 = DIRECTION ( 'NONE',  ( -0.000000000000000000, 0.000000000000000000, 1.000000000000000000 ) ) ;
#604 = EDGE_LOOP ( 'NONE', ( #1057, #454, #462, #25 ) ) ;
#605 = FACE_BOUND ( 'NONE', #467, .T. ) ;
#606 = EDGE_CURVE ( 'NONE', #306, #341, #951, .T. ) ;
#607 = FACE_BOUND ( 'NONE', #337, .T. ) ;
#608 = EDGE_LOOP ( 'NONE', ( #742, #170, #552, #38 ) ) ;
#609 = FACE_OUTER_BOUND ( 'NONE', #245, .T. ) ;
#610 = EDGE_LOOP ( 'NONE', ( #1110, #892, #35, #767 ) ) ;
#611 = DIRECTION ( 'NONE',  ( 0.000000000000000000, 0.000000000000000000, 1.000000000000000000 ) ) ;
#612 = CARTESIAN_POINT ( 'NONE',  ( 18.06184212147224244, 7.923715337589103846, 5.000000000000000000 ) ) ;
#613 = ORIENTED_EDGE ( 'NONE', *, *, #382, .T. ) ;
#614 = CARTESIAN_POINT ( 'NONE',  ( 15.06184212147123702, 0.1236842429444846153, 5.000000000000000000 ) ) ;
#615 = ADVANCED_FACE ( 'NONE', ( #342 ), #269, .F. ) ;
#616 = ORIENTED_EDGE ( 'NONE', *, *, #227, .F. ) ;
#617 = FACE_OUTER_BOUND ( 'NONE', #60, .T. ) ;
#618 = EDGE_CURVE ( 'NONE', #239, #633, #1027, .T. ) ;
#619 = CARTESIAN_POINT ( 'NONE',  ( 9.261842121472241729, 9.623684242944484879, 0.000000000000000000 ) ) ;
#620 = ORIENTED_EDGE ( 'NONE', *, *, #407, .T. ) ;
#621 = CARTESIAN_POINT ( 'NONE',  ( 10.86184212147224493, 9.623684242944484879, 5.000000000000000000 ) ) ;
#622 = AXIS2_PLACEMENT_3D ( 'NONE', #966, #353, #10 ) ;
#623 = VECTOR ( 'NONE', #965, 1000.000000000000000 ) ;
#624 = ORIENTED_EDGE ( 'NONE', *, *, #781, .F. ) ;
#625 = DIRECTION ( 'NONE',  ( -0.000000000000000000, 0.000000000000000000, 1.000000000000000000 ) ) ;
#626 = DIRECTION ( 'NONE',  ( -0.000000000000000000, 0.000000000000000000, 1.000000000000000000 ) ) ;
#627 = EDGE_CURVE ( 'NONE', #374, #225, #1104, .T. ) ;
#628 = ORIENTED_EDGE ( 'NONE', *, *, #135, .T. ) ;
#629 = DIRECTION ( 'NONE',  ( 1.000000000000000000, 0.000000000000000000, 0.000000000000000000 ) ) ;
#630 = ORIENTED_EDGE ( 'NONE', *, *, #673, .T. ) ;
#631 = DIRECTION ( 'NONE',  ( 1.000000000000000000, 0.000000000000000000, 0.000000000000000000 ) ) ;
#632 = CARTESIAN_POINT ( 'NONE',  ( -23.93815787852775756, 0.000000000000000000, 5.000000000000000000 ) ) ;
#633 = VERTEX_POINT ( 'NONE', #710 ) ;
#634 = ORIENTED_EDGE ( 'NONE', *, *, #87, .F. ) ;
#635 = CARTESIAN_POINT ( 'NONE',  ( -22.23815787852775827, 5.623684242944476885, 5.000000000000000000 ) ) ;
#636 = DIRECTION ( 'NONE',  ( 0.9999847242309575224, 0.005527323469429326792, 0.000000000000000000 ) ) ;
#637 = EDGE_CURVE ( 'NONE', #1140, #978, #287, .T. ) ;
#638 = CARTESIAN_POINT ( 'NONE',  ( -23.93815787852775756, 0.000000000000000000, 0.000000000000000000 ) ) ;
#639 = APPLICATION_PROTOCOL_DEFINITION ( 'draft international standard', 'automotive_design', 1998, #747 ) ;
#640 = ADVANCED_FACE ( 'NONE', ( #450 ), #811, .F. ) ;
#641 = ORIENTED_EDGE ( 'NONE', *, *, #667, .T. ) ;
#642 = CARTESIAN_POINT ( 'NONE',  ( 14.13290189500542304, -6.309594085843541755, 5.000000000000000000 ) ) ;
#643 = AXIS2_PLACEMENT_3D ( 'NONE', #845, #402, #1073 ) ;
#644 = CARTESIAN_POINT ( 'NONE',  ( -18.93815787852775756, -2.876315757055518230, 1.250000000000001776 ) ) ;
#645 = ORIENTED_EDGE ( 'NONE', *, *, #135, .F. ) ;
#646 = ORIENTED_EDGE ( 'NONE', *, *, #1090, .F. ) ;
#647 = CARTESIAN_POINT ( 'NONE',  ( -17.31216575253948520, 12.62368424294447955, 5.000000000000000000 ) ) ;
#648 = LINE ( 'NONE', #926, #692 ) ;
#649 = DIRECTION ( 'NONE',  ( -1.000000000000000000, -0.000000000000000000, -0.000000000000000000 ) ) ;
#650 = EDGE_LOOP ( 'NONE', ( #616, #39, #560, #1051 ) ) ;
#651 = DIRECTION ( 'NONE',  ( 1.000000000000000000, 0.000000000000000000, 0.000000000000000000 ) ) ;
#652 = CARTESIAN_POINT ( 'NONE',  ( -9.036437400828607025, 14.61125857067261613, 0.000000000000000000 ) ) ;
#653 = EDGE_CURVE ( 'NONE', #468, #1081, #936, .T. ) ;
#654 = CARTESIAN_POINT ( 'NONE',  ( 2.061842121472243328, 6.623684242944484879, 5.000000000000000000 ) ) ;
#655 =( LENGTH_UNIT ( ) NAMED_UNIT ( * ) SI_UNIT ( .MILLI., .METRE. ) );
#656 = ORIENTED_EDGE ( 'NONE', *, *, #1023, .T. ) ;
#657 = DIRECTION ( 'NONE',  ( -0.000000000000000000, 0.000000000000000000, 1.000000000000000000 ) ) ;
#658 = AXIS2_PLACEMENT_3D ( 'NONE', #258, #343, #898 ) ;
#659 = CIRCLE ( 'NONE', #643, 6.500000000000000888 ) ;
#660 = CARTESIAN_POINT ( 'NONE',  ( 4.061842121472241551, 9.123684242944484879, 5.000000000000000000 ) ) ;
#661 = CIRCLE ( 'NONE', #248, 5.100000000000001421 ) ;
#662 = ADVANCED_FACE ( 'NONE', ( #885 ), #961, .F. ) ;
#663 = CARTESIAN_POINT ( 'NONE',  ( -4.338157878527758804, 8.123684242944490208, 5.000000000000000000 ) ) ;
#664 = EDGE_LOOP ( 'NONE', ( #253, #368, #972, #145 ) ) ;
#665 = DIRECTION ( 'NONE',  ( -0.000000000000000000, 0.000000000000000000, 1.000000000000000000 ) ) ;
#666 = LINE ( 'NONE', #211, #270 ) ;
#667 = EDGE_CURVE ( 'NONE', #288, #1035, #526, .T. ) ;
#668 = DIRECTION ( 'NONE',  ( -0.000000000000000000, 0.000000000000000000, 1.000000000000000000 ) ) ;
#669 = ADVANCED_FACE ( 'NONE', ( #528 ), #77, .F. ) ;
#670 = VERTEX_POINT ( 'NONE', #437 ) ;
#671 = CYLINDRICAL_SURFACE ( 'NONE', #567, 6.500000000000000888 ) ;
#672 = FACE_OUTER_BOUND ( 'NONE', #383, .T. ) ;
#673 = EDGE_CURVE ( 'NONE', #714, #1004, #451, .T. ) ;
#674 = ORIENTED_EDGE ( 'NONE', *, *, #1080, .T. ) ;
#675 = DIRECTION ( 'NONE',  ( -0.000000000000000000, -0.000000000000000000, -1.000000000000000000 ) ) ;
#676 = EDGE_CURVE ( 'NONE', #192, #737, #490, .T. ) ;
#677 = DIRECTION ( 'NONE',  ( 0.000000000000000000, -1.000000000000000000, 0.000000000000000000 ) ) ;
#678 = AXIS2_PLACEMENT_3D ( 'NONE', #740, #817, #114 ) ;
#679 = CIRCLE ( 'NONE', #1009, 3.499999999999968470 ) ;
#680 = AXIS2_PLACEMENT_3D ( 'NONE', #826, #22, #738 ) ;
#681 = VERTEX_POINT ( 'NONE', #359 ) ;
#682 = DIRECTION ( 'NONE',  ( -0.000000000000000000, -0.000000000000000000, -1.000000000000000000 ) ) ;
#683 = LINE ( 'NONE', #499, #693 ) ;
#684 = ORIENTED_EDGE ( 'NONE', *, *, #758, .F. ) ;
#685 = FACE_OUTER_BOUND ( 'NONE', #539, .T. ) ;
#686 = PLANE ( 'NONE',  #50 ) ;
#687 = CARTESIAN_POINT ( 'NONE',  ( 3.261842121472240397, 9.123684242944484879, 5.000000000000000000 ) ) ;
#688 = ORIENTED_EDGE ( 'NONE', *, *, #577, .T. ) ;
#689 = FACE_OUTER_BOUND ( 'NONE', #497, .T. ) ;
#690 = ORIENTED_EDGE ( 'NONE', *, *, #1075, .T. ) ;
#691 = DIRECTION ( 'NONE',  ( -0.000000000000000000, -0.000000000000000000, -1.000000000000000000 ) ) ;
#692 = VECTOR ( 'NONE', #206, 1000.000000000000000 ) ;
#693 = VECTOR ( 'NONE', #1117, 1000.000000000000000 ) ;
#694 = CIRCLE ( 'NONE', #177, 0.7999999999999986011 ) ;
#695 = ORIENTED_EDGE ( 'NONE', *, *, #726, .F. ) ;
#696 = DIRECTION ( 'NONE',  ( 0.000000000000000000, 0.000000000000000000, 1.000000000000000000 ) ) ;
#697 = ORIENTED_EDGE ( 'NONE', *, *, #297, .F. ) ;
#698 = DIRECTION ( 'NONE',  ( -1.000000000000000000, 0.000000000000000000, 0.000000000000000000 ) ) ;
#699 = DIRECTION ( 'NONE',  ( -0.000000000000000000, -0.000000000000000000, -1.000000000000000000 ) ) ;
#700 = EDGE_CURVE ( 'NONE', #93, #163, #1083, .T. ) ;
#701 = ORIENTED_EDGE ( 'NONE', *, *, #864, .T. ) ;
#702 = DIRECTION ( 'NONE',  ( 1.000000000000000000, 0.000000000000000000, 0.000000000000000000 ) ) ;
#703 = EDGE_CURVE ( 'NONE', #670, #367, #903, .T. ) ;
#704 = ORIENTED_EDGE ( 'NONE', *, *, #700, .T. ) ;
#705 = DIRECTION ( 'NONE',  ( -1.000000000000000000, 0.000000000000000000, 0.000000000000000000 ) ) ;
#706 = CARTESIAN_POINT ( 'NONE',  ( -23.93815787852775756, -2.876315757055518230, 3.749999999999998224 ) ) ;
#707 = ORIENTED_EDGE ( 'NONE', *, *, #1002, .T. ) ;
#708 = DIRECTION ( 'NONE',  ( -0.000000000000000000, 0.000000000000000000, 1.000000000000000000 ) ) ;
#709 = VERTEX_POINT ( 'NONE', #749 ) ;
#710 = CARTESIAN_POINT ( 'NONE',  ( 2.133696228931573291, -6.375918590093950122, 0.000000000000000000 ) ) ;
#711 = EDGE_CURVE ( 'NONE', #748, #955, #571, .T. ) ;
#712 = CYLINDRICAL_SURFACE ( 'NONE', #658, 4.999999999999999112 ) ;
#713 = VECTOR ( 'NONE', #85, 1000.000000000000000 ) ;
#714 = VERTEX_POINT ( 'NONE', #45 ) ;
#715 = CARTESIAN_POINT ( 'NONE',  ( 15.26184212147224173, 9.123684242944484879, 5.000000000000000000 ) ) ;
#716 =( GEOMETRIC_REPRESENTATION_CONTEXT ( 3 ) GLOBAL_UNCERTAINTY_ASSIGNED_CONTEXT ( ( #1056 ) ) GLOBAL_UNIT_ASSIGNED_CONTEXT ( ( #655, #725, #814 ) ) REPRESENTATION_CONTEXT ( 'NONE', 'WORKASPACE' ) );
#717 = EDGE_LOOP ( 'NONE', ( #727, #933, #1062, #217 ) ) ;
#718 = PLANE ( 'NONE',  #67 ) ;
#719 = FACE_OUTER_BOUND ( 'NONE', #324, .T. ) ;
#720 = CARTESIAN_POINT ( 'NONE',  ( 10.86184212147224493, 9.623684242944484879, 5.000000000000000000 ) ) ;
#721 = VERTEX_POINT ( 'NONE', #464 ) ;
#722 = DIRECTION ( 'NONE',  ( -1.000000000000000000, -4.130293990420965692E-17, 0.000000000000000000 ) ) ;
#723 = CARTESIAN_POINT ( 'NONE',  ( -23.93815787852775756, 9.623684242944477774, 3.749999999999997335 ) ) ;
#724 = EDGE_LOOP ( 'NONE', ( #477, #889, #900, #704 ) ) ;
#725 =( NAMED_UNIT ( * ) PLANE_ANGLE_UNIT ( ) SI_UNIT ( $, .RADIAN. ) );
#726 = EDGE_CURVE ( 'NONE', #101, #266, #193, .T. ) ;
#727 = ORIENTED_EDGE ( 'NONE', *, *, #577, .F. ) ;
#728 = CARTESIAN_POINT ( 'NONE',  ( -14.53815787852776076, 8.123684242944490208, 5.000000000000000000 ) ) ;
#729 = LINE ( 'NONE', #735, #969 ) ;
#730 = CARTESIAN_POINT ( 'NONE',  ( -18.93815787852775756, 9.623684242944477774, 2.500000000000000000 ) ) ;
#731 = ORIENTED_EDGE ( 'NONE', *, *, #879, .T. ) ;
#732 = CARTESIAN_POINT ( 'NONE',  ( 0.8667797149006970514, 13.99803629228021684, 5.000000000000000000 ) ) ;
#733 = COLOUR_RGB ( '',0.7921568627450980005, 0.8196078431372548767, 0.9333333333333333481 ) ;
#734 = CIRCLE ( 'NONE', #1030, 6.500000000000000888 ) ;
#735 = CARTESIAN_POINT ( 'NONE',  ( 0.000000000000000000, 6.623684242944484879, 0.000000000000000000 ) ) ;
#736 = ORIENTED_EDGE ( 'NONE', *, *, #769, .F. ) ;
#737 = VERTEX_POINT ( 'NONE', #919 ) ;
#738 = DIRECTION ( 'NONE',  ( 0.9980883581120204573, -0.06180315041525850928, 0.000000000000000000 ) ) ;
#739 = EDGE_CURVE ( 'NONE', #129, #101, #284, .T. ) ;
#740 = CARTESIAN_POINT ( 'NONE',  ( -9.438157878527759337, 8.123684242944490208, 4.000000000000000000 ) ) ;
#741 = CARTESIAN_POINT ( 'NONE',  ( 23.06184212147224244, 7.923715337589156249, 5.000000000000000000 ) ) ;
#742 = ORIENTED_EDGE ( 'NONE', *, *, #676, .T. ) ;
#743 = CARTESIAN_POINT ( 'NONE',  ( -23.93815787852775756, 9.623684242944477774, 2.500000000000000000 ) ) ;
#744 = DIRECTION ( 'NONE',  ( -0.000000000000000000, -0.000000000000000000, -1.000000000000000000 ) ) ;
#745 = EDGE_CURVE ( 'NONE', #955, #225, #1045, .T. ) ;
#746 = FACE_OUTER_BOUND ( 'NONE', #26, .T. ) ;
#747 = APPLICATION_CONTEXT ( 'automotive_design' ) ;
#748 = VERTEX_POINT ( 'NONE', #375 ) ;
#749 = CARTESIAN_POINT ( 'NONE',  ( -18.93815787852775756, -2.876315757055518230, 1.250000000000001776 ) ) ;
#750 = CIRCLE ( 'NONE', #229, 0.8000000000000020428 ) ;
#751 = AXIS2_PLACEMENT_3D ( 'NONE', #956, #791, #611 ) ;
#752 = LINE ( 'NONE', #370, #448 ) ;
#753 = CIRCLE ( 'NONE', #1047, 4.999999999999997335 ) ;
#754 = FACE_OUTER_BOUND ( 'NONE', #943, .T. ) ;
#755 = ORIENTED_EDGE ( 'NONE', *, *, #1028, .T. ) ;
#756 = DIRECTION ( 'NONE',  ( -1.000000000000000000, -0.000000000000000000, -0.000000000000000000 ) ) ;
#757 = DIRECTION ( 'NONE',  ( -0.9980883581120204573, 0.06180315041525850928, 0.000000000000000000 ) ) ;
#758 = EDGE_CURVE ( 'NONE', #990, #836, #679, .T. ) ;
#759 = ORIENTED_EDGE ( 'NONE', *, *, #426, .F. ) ;
#760 = PLANE ( 'NONE',  #304 ) ;
#761 = DIRECTION ( 'NONE',  ( 1.000000000000000000, 0.000000000000000000, 0.000000000000000000 ) ) ;
#762 = EDGE_LOOP ( 'NONE', ( #283, #1088, #578, #19, #1115, #1099, #916, #203, #282 ) ) ;
#763 = LINE ( 'NONE', #868, #828 ) ;
#764 = DIRECTION ( 'NONE',  ( 1.000000000000000000, 0.000000000000000000, 0.000000000000000000 ) ) ;
#765 = AXIS2_PLACEMENT_3D ( 'NONE', #1109, #242, #309 ) ;
#766 = CIRCLE ( 'NONE', #827, 4.999999999999997335 ) ;
#767 = ORIENTED_EDGE ( 'NONE', *, *, #11, .F. ) ;
#768 = DIRECTION ( 'NONE',  ( -0.000000000000000000, 0.000000000000000000, -1.000000000000000000 ) ) ;
#769 = EDGE_CURVE ( 'NONE', #939, #468, #388, .T. ) ;
#770 = CARTESIAN_POINT ( 'NONE',  ( 18.37085787354854460, 12.91415712814920269, 0.000000000000000000 ) ) ;
#771 = DIRECTION ( 'NONE',  ( -1.000000000000000000, -0.000000000000000000, -0.000000000000000000 ) ) ;
#772 = VERTEX_POINT ( 'NONE', #125 ) ;
#773 = DIRECTION ( 'NONE',  ( -1.000000000000000000, 0.000000000000000000, 0.000000000000000000 ) ) ;
#774 = EDGE_LOOP ( 'NONE', ( #187, #896, #645, #855 ) ) ;
#775 = DIRECTION ( 'NONE',  ( -0.000000000000000000, -0.000000000000000000, -1.000000000000000000 ) ) ;
#776 = CARTESIAN_POINT ( 'NONE',  ( 2.061842121472243328, 0.1236842429444846153, 0.000000000000000000 ) ) ;
#777 = ORIENTED_EDGE ( 'NONE', *, *, #213, .F. ) ;
#778 = CYLINDRICAL_SURFACE ( 'NONE', #379, 0.7999999999999986011 ) ;
#779 = EDGE_LOOP ( 'NONE', ( #531, #138, #848, #690 ) ) ;
#780 = CARTESIAN_POINT ( 'NONE',  ( -17.09491238802561952, 1.537022692415103364, 5.000000000000000000 ) ) ;
#781 = EDGE_CURVE ( 'NONE', #306, #1124, #295, .T. ) ;
#782 = VECTOR ( 'NONE', #197, 1000.000000000000000 ) ;
#783 = CARTESIAN_POINT ( 'NONE',  ( 0.000000000000000000, 6.623684242944484879, 5.000000000000000000 ) ) ;
#784 = CIRCLE ( 'NONE', #244, 6.500000000000000888 ) ;
#785 = CIRCLE ( 'NONE', #880, 1.249999999999997113 ) ;
#786 = EDGE_CURVE ( 'NONE', #874, #230, #1087, .T. ) ;
#787 = AXIS2_PLACEMENT_3D ( 'NONE', #875, #425, #773 ) ;
#788 = ORIENTED_EDGE ( 'NONE', *, *, #673, .F. ) ;
#789 = DIRECTION ( 'NONE',  ( -0.000000000000000000, 0.000000000000000000, 1.000000000000000000 ) ) ;
#790 = ORIENTED_EDGE ( 'NONE', *, *, #382, .F. ) ;
#791 = DIRECTION ( 'NONE',  ( -1.000000000000000000, 0.000000000000000000, 0.000000000000000000 ) ) ;
#792 = FACE_BOUND ( 'NONE', #818, .T. ) ;
#793 = VERTEX_POINT ( 'NONE', #642 ) ;
#794 = EDGE_CURVE ( 'NONE', #902, #278, #766, .T. ) ;
#795 = LINE ( 'NONE', #76, #140 ) ;
#796 = ORIENTED_EDGE ( 'NONE', *, *, #794, .T. ) ;
#797 = DIRECTION ( 'NONE',  ( 1.000000000000000000, 0.000000000000000000, 0.000000000000000000 ) ) ;
#798 = ADVANCED_BREP_SHAPE_REPRESENTATION ( 'slider - right', ( #480, #34 ), #716 ) ;
#799 = DIRECTION ( 'NONE',  ( 1.000000000000000000, 5.236116925563268710E-16, 0.000000000000000000 ) ) ;
#800 = ORIENTED_EDGE ( 'NONE', *, *, #327, .T. ) ;
#801 = PLANE ( 'NONE',  #861 ) ;
#802 = ORIENTED_EDGE ( 'NONE', *, *, #947, .F. ) ;
#803 = DIRECTION ( 'NONE',  ( 1.000000000000000000, 0.000000000000000000, 0.000000000000000000 ) ) ;
#804 = CARTESIAN_POINT ( 'NONE',  ( 9.261842121472241729, 9.623684242944484879, 5.000000000000000000 ) ) ;
#805 = AXIS2_PLACEMENT_3D ( 'NONE', #479, #572, #286 ) ;
#806 = AXIS2_PLACEMENT_3D ( 'NONE', #136, #156, #853 ) ;
#807 = DIRECTION ( 'NONE',  ( -0.000000000000000000, 0.000000000000000000, 1.000000000000000000 ) ) ;
#808 = CIRCLE ( 'NONE', #340, 5.100000000000001421 ) ;
#809 = PRODUCT_DEFINITION_FORMATION_WITH_SPECIFIED_SOURCE ( 'ANY', '', #589, .NOT_KNOWN. ) ;
#810 = EDGE_LOOP ( 'NONE', ( #386, #634, #133, #44 ) ) ;
#811 = CYLINDRICAL_SURFACE ( 'NONE', #378, 3.499999999999968470 ) ;
#812 = FACE_BOUND ( 'NONE', #602, .T. ) ;
#813 = ORIENTED_EDGE ( 'NONE', *, *, #618, .T. ) ;
#814 =( NAMED_UNIT ( * ) SI_UNIT ( $, .STERADIAN. ) SOLID_ANGLE_UNIT ( ) );
#815 = ORIENTED_EDGE ( 'NONE', *, *, #676, .F. ) ;
#816 = DIRECTION ( 'NONE',  ( 1.000000000000000000, 0.000000000000000000, 0.000000000000000000 ) ) ;
#817 = DIRECTION ( 'NONE',  ( 0.000000000000000000, 0.000000000000000000, 1.000000000000000000 ) ) ;
#818 = EDGE_LOOP ( 'NONE', ( #958, #160 ) ) ;
#819 = ORIENTED_EDGE ( 'NONE', *, *, #996, .T. ) ;
#820 = DIRECTION ( 'NONE',  ( 1.000000000000000000, 0.000000000000000000, 0.000000000000000000 ) ) ;
#821 = DIRECTION ( 'NONE',  ( -1.000000000000000000, 0.000000000000000000, 0.000000000000000000 ) ) ;
#822 = ADVANCED_FACE ( 'NONE', ( #478 ), #913, .F. ) ;
#823 = CARTESIAN_POINT ( 'NONE',  ( 4.861842121472243150, 9.123684242944484879, 0.000000000000000000 ) ) ;
#824 = CIRCLE ( 'NONE', #987, 4.999999999999997335 ) ;
#825 = EDGE_LOOP ( 'NONE', ( #953, #419, #570, #88, #112 ) ) ;
#826 = CARTESIAN_POINT ( 'NONE',  ( 0.8667797149006970514, 13.99803629228021684, 5.000000000000000000 ) ) ;
#827 = AXIS2_PLACEMENT_3D ( 'NONE', #558, #36, #483 ) ;
#828 = VECTOR ( 'NONE', #330, 1000.000000000000000 ) ;
#829 = CARTESIAN_POINT ( 'NONE',  ( -21.43815787852776111, 5.623684242944476885, 5.000000000000000000 ) ) ;
#830 = ORIENTED_EDGE ( 'NONE', *, *, #711, .T. ) ;
#831 = ADVANCED_FACE ( 'NONE', ( #27 ), #1100, .F. ) ;
#832 = EDGE_LOOP ( 'NONE', ( #108, #912 ) ) ;
#833 = LINE ( 'NONE', #908, #938 ) ;
#834 = CARTESIAN_POINT ( 'NONE',  ( -20.63815787852776040, 5.623684242944476885, 5.000000000000000000 ) ) ;
#835 = DIRECTION ( 'NONE',  ( -0.000000000000000000, -0.000000000000000000, -1.000000000000000000 ) ) ;
#836 = VERTEX_POINT ( 'NONE', #280 ) ;
#837 = DIRECTION ( 'NONE',  ( -0.000000000000000000, -0.000000000000000000, -1.000000000000000000 ) ) ;
#838 = DIRECTION ( 'NONE',  ( -0.000000000000000000, 0.000000000000000000, 1.000000000000000000 ) ) ;
#839 = DIRECTION ( 'NONE',  ( -0.000000000000000000, 0.000000000000000000, 1.000000000000000000 ) ) ;
#840 = EDGE_CURVE ( 'NONE', #129, #876, #753, .T. ) ;
#841 = AXIS2_PLACEMENT_3D ( 'NONE', #423, #668, #1014 ) ;
#842 = ORIENTED_EDGE ( 'NONE', *, *, #21, .T. ) ;
#843 = LINE ( 'NONE', #1119, #474 ) ;
#844 = AXIS2_PLACEMENT_3D ( 'NONE', #183, #81, #722 ) ;
#845 = CARTESIAN_POINT ( 'NONE',  ( 15.06184212147123702, 0.1236842429444846153, 0.000000000000000000 ) ) ;
#846 = VECTOR ( 'NONE', #502, 1000.000000000000000 ) ;
#847 = EDGE_CURVE ( 'NONE', #876, #772, #199, .T. ) ;
#848 = ORIENTED_EDGE ( 'NONE', *, *, #794, .F. ) ;
#849 = CARTESIAN_POINT ( 'NONE',  ( 15.06184212147123702, 0.1236842429444846153, 5.000000000000000000 ) ) ;
#850 = DIRECTION ( 'NONE',  ( 1.000000000000000000, 0.000000000000000000, 0.000000000000000000 ) ) ;
#851 = ORIENTED_EDGE ( 'NONE', *, *, #745, .F. ) ;
#852 = CARTESIAN_POINT ( 'NONE',  ( 10.06184212147224422, 9.623684242944484879, 5.000000000000000000 ) ) ;
#853 = DIRECTION ( 'NONE',  ( -1.000000000000000000, 0.000000000000000000, 0.000000000000000000 ) ) ;
#854 = EDGE_CURVE ( 'NONE', #278, #266, #833, .T. ) ;
#855 = ORIENTED_EDGE ( 'NONE', *, *, #700, .F. ) ;
#856 = CARTESIAN_POINT ( 'NONE',  ( 18.37085787354854460, 12.91415712814920269, 5.000000000000000000 ) ) ;
#857 = PLANE ( 'NONE',  #303 ) ;
#858 = CIRCLE ( 'NONE', #899, 0.7999999999999986011 ) ;
#859 = VECTOR ( 'NONE', #837, 1000.000000000000000 ) ;
#860 = DIRECTION ( 'NONE',  ( 1.000000000000000000, 0.000000000000000000, 0.000000000000000000 ) ) ;
#861 = AXIS2_PLACEMENT_3D ( 'NONE', #1050, #267, #254 ) ;
#862 = ORIENTED_EDGE ( 'NONE', *, *, #463, .T. ) ;
#863 = CARTESIAN_POINT ( 'NONE',  ( -6.609908672744797738E-15, 12.62368424294448843, 0.000000000000000000 ) ) ;
#864 = EDGE_CURVE ( 'NONE', #90, #1124, #661, .T. ) ;
#865 = DIRECTION ( 'NONE',  ( -0.9999847242309575224, -0.005527323469429326792, 0.000000000000000000 ) ) ;
#866 = LINE ( 'NONE', #957, #1067 ) ;
#867 = ORIENTED_EDGE ( 'NONE', *, *, #463, .F. ) ;
#868 = CARTESIAN_POINT ( 'NONE',  ( -13.59491238802564972, 1.537022692415103808, 5.000000000000000000 ) ) ;
#869 = EDGE_CURVE ( 'NONE', #93, #520, #971, .T. ) ;
#870 = ORIENTED_EDGE ( 'NONE', *, *, #466, .F. ) ;
#871 = CYLINDRICAL_SURFACE ( 'NONE', #622, 0.8000000000000003775 ) ;
#872 = ADVANCED_FACE ( 'NONE', ( #685 ), #1125, .T. ) ;
#873 = PLANE ( 'NONE',  #285 ) ;
#874 = VERTEX_POINT ( 'NONE', #415 ) ;
#875 = CARTESIAN_POINT ( 'NONE',  ( 16.06184212147224244, 9.123684242944484879, 5.000000000000000000 ) ) ;
#876 = VERTEX_POINT ( 'NONE', #856 ) ;
#877 = CARTESIAN_POINT ( 'NONE',  ( -9.438157878527759337, 8.123684242944490208, 4.000000000000000000 ) ) ;
#878 = DIRECTION ( 'NONE',  ( 1.000000000000000000, 0.000000000000000000, 0.000000000000000000 ) ) ;
#879 = EDGE_CURVE ( 'NONE', #714, #874, #949, .T. ) ;
#880 = AXIS2_PLACEMENT_3D ( 'NONE', #236, #592, #1112 ) ;
#881 = CIRCLE ( 'NONE', #1107, 0.8000000000000020428 ) ;
#882 = ORIENTED_EDGE ( 'NONE', *, *, #947, .T. ) ;
#883 = DIRECTION ( 'NONE',  ( -0.000000000000000000, -0.000000000000000000, -1.000000000000000000 ) ) ;
#884 = ORIENTED_EDGE ( 'NONE', *, *, #847, .F. ) ;
#885 = FACE_OUTER_BOUND ( 'NONE', #604, .T. ) ;
#886 = FACE_BOUND ( 'NONE', #1072, .T. ) ;
#887 = ORIENTED_EDGE ( 'NONE', *, *, #500, .F. ) ;
#888 = CYLINDRICAL_SURFACE ( 'NONE', #123, 6.500000000000000888 ) ;
#889 = ORIENTED_EDGE ( 'NONE', *, *, #1113, .F. ) ;
#890 = DIRECTION ( 'NONE',  ( -1.000000000000000000, 0.000000000000000000, 0.000000000000000000 ) ) ;
#891 = CARTESIAN_POINT ( 'NONE',  ( 0.03530641332084596962, -6.387517246548182648, 0.000000000000000000 ) ) ;
#892 = ORIENTED_EDGE ( 'NONE', *, *, #758, .T. ) ;
#893 = CYLINDRICAL_SURFACE ( 'NONE', #787, 0.8000000000000003775 ) ;
#894 = EDGE_CURVE ( 'NONE', #1129, #681, #843, .T. ) ;
#895 = UNCERTAINTY_MEASURE_WITH_UNIT (LENGTH_MEASURE( 1.000000000000000082E-05 ), #1033, 'distance_accuracy_value', 'NONE');
#896 = ORIENTED_EDGE ( 'NONE', *, *, #227, .T. ) ;
#897 = DIRECTION ( 'NONE',  ( 1.000000000000000000, 0.000000000000000000, 0.000000000000000000 ) ) ;
#898 = DIRECTION ( 'NONE',  ( -1.000000000000000000, 0.000000000000000000, 0.000000000000000000 ) ) ;
#899 = AXIS2_PLACEMENT_3D ( 'NONE', #829, #37, #850 ) ;
#900 = ORIENTED_EDGE ( 'NONE', *, *, #264, .T. ) ;
#901 = CIRCLE ( 'NONE', #33, 0.8000000000000012657 ) ;
#902 = VERTEX_POINT ( 'NONE', #226 ) ;
#903 = LINE ( 'NONE', #218, #360 ) ;
#904 = FACE_OUTER_BOUND ( 'NONE', #762, .T. ) ;
#905 = DIRECTION ( 'NONE',  ( 1.000000000000000000, 0.000000000000000000, 0.000000000000000000 ) ) ;
#906 = EDGE_LOOP ( 'NONE', ( #299, #173 ) ) ;
#907 = EDGE_CURVE ( 'NONE', #124, #288, #325, .T. ) ;
#908 = CARTESIAN_POINT ( 'NONE',  ( 23.06184212147224244, -3.376315757055515121, 5.000000000000000000 ) ) ;
#909 = CARTESIAN_POINT ( 'NONE',  ( 18.06184212147227797, -8.376315757055515121, 0.000000000000000000 ) ) ;
#910 = EDGE_CURVE ( 'NONE', #4, #347, #901, .T. ) ;
#911 = EDGE_LOOP ( 'NONE', ( #695, #585, #882, #208 ) ) ;
#912 = ORIENTED_EDGE ( 'NONE', *, *, #381, .F. ) ;
#913 = CYLINDRICAL_SURFACE ( 'NONE', #548, 0.8000000000000008216 ) ;
#914 = DIRECTION ( 'NONE',  ( 1.000000000000000000, 0.000000000000000000, 0.000000000000000000 ) ) ;
#915 = ADVANCED_FACE ( 'NONE', ( #1111 ), #760, .T. ) ;
#916 = ORIENTED_EDGE ( 'NONE', *, *, #627, .F. ) ;
#917 = AXIS2_PLACEMENT_3D ( 'NONE', #1093, #223, #576 ) ;
#918 = VERTEX_POINT ( 'NONE', #235 ) ;
#919 = CARTESIAN_POINT ( 'NONE',  ( 4.861842121472243150, 9.123684242944484879, 5.000000000000000000 ) ) ;
#920 = AXIS2_PLACEMENT_3D ( 'NONE', #147, #503, #1037 ) ;
#921 = AXIS2_PLACEMENT_3D ( 'NONE', #440, #1055, #2 ) ;
#922 = CYLINDRICAL_SURFACE ( 'NONE', #917, 0.7999999999999986011 ) ;
#923 = CARTESIAN_POINT ( 'NONE',  ( -6.609908672744797738E-15, 12.62368424294448843, 5.000000000000000000 ) ) ;
#924 = ORIENTED_EDGE ( 'NONE', *, *, #24, .T. ) ;
#925 = CARTESIAN_POINT ( 'NONE',  ( -17.31216575253955625, 22.62368424294448488, 0.000000000000000000 ) ) ;
#926 = CARTESIAN_POINT ( 'NONE',  ( 3.261842121472240841, 9.123684242944484879, 5.000000000000000000 ) ) ;
#927 = CARTESIAN_POINT ( 'NONE',  ( -18.93815787852775756, -2.876315757055518230, 3.749999999999998224 ) ) ;
#928 = VERTEX_POINT ( 'NONE', #312 ) ;
#929 = DIRECTION ( 'NONE',  ( -0.000000000000000000, 0.000000000000000000, 1.000000000000000000 ) ) ;
#930 = CYLINDRICAL_SURFACE ( 'NONE', #806, 6.499999999999992006 ) ;
#931 = PRODUCT_DEFINITION ( 'UNKNOWN', '', #809, #544 ) ;
#932 = AXIS2_PLACEMENT_3D ( 'NONE', #983, #997, #201 ) ;
#933 = ORIENTED_EDGE ( 'NONE', *, *, #83, .F. ) ;
#934 = LINE ( 'NONE', #575, #397 ) ;
#935 = VECTOR ( 'NONE', #162, 1000.000000000000000 ) ;
#936 = CIRCLE ( 'NONE', #1068, 0.7999999999999986011 ) ;
#937 = SURFACE_STYLE_FILL_AREA ( #1022 ) ;
#938 = VECTOR ( 'NONE', #40, 1000.000000000000000 ) ;
#939 = VERTEX_POINT ( 'NONE', #1036 ) ;
#940 = CARTESIAN_POINT ( 'NONE',  ( -17.31216575253955625, 22.62368424294448488, 5.000000000000000000 ) ) ;
#941 = CARTESIAN_POINT ( 'NONE',  ( 10.06184212147224422, 9.623684242944484879, 0.000000000000000000 ) ) ;
#942 = ADVANCED_FACE ( 'NONE', ( #240 ), #671, .F. ) ;
#943 = EDGE_LOOP ( 'NONE', ( #1082, #777, #31, #641 ) ) ;
#944 = DIRECTION ( 'NONE',  ( -1.000000000000000000, -0.000000000000000000, -0.000000000000000000 ) ) ;
#945 = CYLINDRICAL_SURFACE ( 'NONE', #920, 1.249999999999998002 ) ;
#946 = DIRECTION ( 'NONE',  ( -0.000000000000000000, -0.000000000000000000, -1.000000000000000000 ) ) ;
#947 = EDGE_CURVE ( 'NONE', #129, #278, #934, .T. ) ;
#948 = ORIENTED_EDGE ( 'NONE', *, *, #494, .T. ) ;
#949 = LINE ( 'NONE', #487, #53 ) ;
#950 = CARTESIAN_POINT ( 'NONE',  ( -4.438157878527757561, 0.1236842429444846153, 5.000000000000000000 ) ) ;
#951 = CIRCLE ( 'NONE', #196, 5.100000000000001421 ) ;
#952 = CARTESIAN_POINT ( 'NONE',  ( 16.06184212147224244, 9.123684242944484879, 5.000000000000000000 ) ) ;
#953 = ORIENTED_EDGE ( 'NONE', *, *, #1132, .F. ) ;
#954 = DIRECTION ( 'NONE',  ( -1.000000000000000000, 0.000000000000000000, 0.000000000000000000 ) ) ;
#955 = VERTEX_POINT ( 'NONE', #231 ) ;
#956 = CARTESIAN_POINT ( 'NONE',  ( -23.93815787852775756, -2.876315757055518230, 2.500000000000000000 ) ) ;
#957 = CARTESIAN_POINT ( 'NONE',  ( -18.93815787852775756, 9.623684242944477774, 3.749999999999997335 ) ) ;
#958 = ORIENTED_EDGE ( 'NONE', *, *, #41, .T. ) ;
#959 = CARTESIAN_POINT ( 'NONE',  ( -14.53815787852776076, 8.123684242944490208, 0.000000000000000000 ) ) ;
#960 = VERTEX_POINT ( 'NONE', #57 ) ;
#961 = PLANE ( 'NONE',  #844 ) ;
#962 = ADVANCED_FACE ( 'NONE', ( #404 ), #595, .F. ) ;
#963 = DIRECTION ( 'NONE',  ( -1.000000000000000000, 0.000000000000000000, 0.000000000000000000 ) ) ;
#964 = EDGE_LOOP ( 'NONE', ( #980, #403, #545, #561 ) ) ;
#965 = DIRECTION ( 'NONE',  ( -0.000000000000000000, -0.000000000000000000, -1.000000000000000000 ) ) ;
#966 = CARTESIAN_POINT ( 'NONE',  ( 16.06184212147224244, 9.123684242944484879, 5.000000000000000000 ) ) ;
#967 = CIRCLE ( 'NONE', #431, 0.8000000000000012657 ) ;
#968 = LINE ( 'NONE', #103, #543 ) ;
#969 = VECTOR ( 'NONE', #1006, 1000.000000000000000 ) ;
#970 = MECHANICAL_DESIGN_GEOMETRIC_PRESENTATION_REPRESENTATION (  '', ( #564 ), #547 ) ;
#971 = CIRCLE ( 'NONE', #584, 6.500000000000000888 ) ;
#972 = ORIENTED_EDGE ( 'NONE', *, *, #345, .T. ) ;
#973 = FACE_OUTER_BOUND ( 'NONE', #256, .T. ) ;
#974 = ORIENTED_EDGE ( 'NONE', *, *, #58, .F. ) ;
#975 = CARTESIAN_POINT ( 'NONE',  ( -9.438157878527759337, 8.123684242944486655, 0.000000000000000000 ) ) ;
#976 = DIRECTION ( 'NONE',  ( 0.000000000000000000, 0.000000000000000000, 1.000000000000000000 ) ) ;
#977 = EDGE_CURVE ( 'NONE', #1081, #468, #694, .T. ) ;
#978 = VERTEX_POINT ( 'NONE', #586 ) ;
#979 = CARTESIAN_POINT ( 'NONE',  ( -23.93815787852775756, -2.876315757055518230, 1.250000000000001776 ) ) ;
#980 = ORIENTED_EDGE ( 'NONE', *, *, #95, .T. ) ;
#981 = CARTESIAN_POINT ( 'NONE',  ( -9.438157878527759337, 8.123684242944490208, 4.000000000000000000 ) ) ;
#982 = DIRECTION ( 'NONE',  ( -1.000000000000000000, 0.000000000000000000, 0.000000000000000000 ) ) ;
#983 = CARTESIAN_POINT ( 'NONE',  ( -18.93815787852775756, -2.876315757055518230, 2.500000000000000000 ) ) ;
#984 = ORIENTED_EDGE ( 'NONE', *, *, #430, .T. ) ;
#985 = DIRECTION ( 'NONE',  ( 0.000000000000000000, -1.000000000000000000, 0.000000000000000000 ) ) ;
#986 = PLANE ( 'NONE',  #336 ) ;
#987 = AXIS2_PLACEMENT_3D ( 'NONE', #195, #626, #878 ) ;
#988 = EDGE_CURVE ( 'NONE', #681, #955, #509, .T. ) ;
#989 = PRESENTATION_LAYER_ASSIGNMENT (  '', '', ( #564 ) ) ;
#990 = VERTEX_POINT ( 'NONE', #71 ) ;
#991 = CIRCLE ( 'NONE', #1123, 6.499999999999991118 ) ;
#992 = ORIENTED_EDGE ( 'NONE', *, *, #426, .T. ) ;
#993 = DIRECTION ( 'NONE',  ( -0.000000000000000000, 0.000000000000000000, 1.000000000000000000 ) ) ;
#994 = EDGE_CURVE ( 'NONE', #1124, #90, #808, .T. ) ;
#995 = DIRECTION ( 'NONE',  ( -1.000000000000000000, -0.000000000000000000, -0.000000000000000000 ) ) ;
#996 = EDGE_CURVE ( 'NONE', #960, #209, #321, .T. ) ;
#997 = DIRECTION ( 'NONE',  ( -1.000000000000000000, 0.000000000000000000, 0.000000000000000000 ) ) ;
#998 = PRODUCT_CONTEXT ( 'NONE', #747, 'mechanical' ) ;
#999 = ORIENTED_EDGE ( 'NONE', *, *, #711, .F. ) ;
#1000 = DIRECTION ( 'NONE',  ( -0.000000000000000000, -0.000000000000000000, -1.000000000000000000 ) ) ;
#1001 = CARTESIAN_POINT ( 'NONE',  ( -18.93815787852775756, 9.623684242944477774, 2.500000000000000000 ) ) ;
#1002 = EDGE_CURVE ( 'NONE', #978, #1140, #881, .T. ) ;
#1003 = LINE ( 'NONE', #638, #782 ) ;
#1004 = VERTEX_POINT ( 'NONE', #409 ) ;
#1005 = CARTESIAN_POINT ( 'NONE',  ( -9.438157878527759337, 8.123684242944490208, 0.000000000000000000 ) ) ;
#1006 = DIRECTION ( 'NONE',  ( -1.000000000000000000, 0.000000000000000000, 0.000000000000000000 ) ) ;
#1007 = AXIS2_PLACEMENT_3D ( 'NONE', #1103, #691, #305 ) ;
#1008 = DIRECTION ( 'NONE',  ( -0.000000000000000000, -0.000000000000000000, -1.000000000000000000 ) ) ;
#1009 = AXIS2_PLACEMENT_3D ( 'NONE', #130, #657, #816 ) ;
#1010 = EDGE_LOOP ( 'NONE', ( #815, #492 ) ) ;
#1011 = DIRECTION ( 'NONE',  ( 1.000000000000000000, 4.130293990420965692E-17, 0.000000000000000000 ) ) ;
#1012 = CIRCLE ( 'NONE', #14, 0.8000000000000020428 ) ;
#1013 = DIRECTION ( 'NONE',  ( -0.000000000000000000, -0.000000000000000000, -1.000000000000000000 ) ) ;
#1014 = DIRECTION ( 'NONE',  ( 1.000000000000000000, 0.000000000000000000, 0.000000000000000000 ) ) ;
#1015 = ORIENTED_EDGE ( 'NONE', *, *, #994, .F. ) ;
#1016 = CARTESIAN_POINT ( 'NONE',  ( 16.06184212147224244, 9.123684242944484879, 5.000000000000000000 ) ) ;
#1017 = PRODUCT_RELATED_PRODUCT_CATEGORY ( 'part', '', ( #589 ) ) ;
#1018 = FACE_OUTER_BOUND ( 'NONE', #650, .T. ) ;
#1019 = DIRECTION ( 'NONE',  ( -5.236116925563268710E-16, 1.000000000000000000, 0.000000000000000000 ) ) ;
#1020 = EDGE_LOOP ( 'NONE', ( #443, #1105, #408, #736 ) ) ;
#1021 = DIRECTION ( 'NONE',  ( -1.000000000000000000, 0.000000000000000000, 0.000000000000000000 ) ) ;
#1022 = FILL_AREA_STYLE ('',( #581 ) ) ;
#1023 = EDGE_CURVE ( 'NONE', #990, #249, #763, .T. ) ;
#1024 = EDGE_LOOP ( 'NONE', ( #275, #527, #674, #116 ) ) ;
#1025 = DIRECTION ( 'NONE',  ( 1.000000000000000000, 0.000000000000000000, 0.000000000000000000 ) ) ;
#1026 = AXIS2_PLACEMENT_3D ( 'NONE', #559, #1013, #821 ) ;
#1027 = CIRCLE ( 'NONE', #473, 6.500000000000000888 ) ;
#1028 = EDGE_CURVE ( 'NONE', #182, #221, #1012, .T. ) ;
#1029 = DIRECTION ( 'NONE',  ( -0.000000000000000000, 0.000000000000000000, 1.000000000000000000 ) ) ;
#1030 = AXIS2_PLACEMENT_3D ( 'NONE', #614, #708, #1061 ) ;
#1031 = ORIENTED_EDGE ( 'NONE', *, *, #894, .F. ) ;
#1032 = DIRECTION ( 'NONE',  ( -0.000000000000000000, 0.000000000000000000, 1.000000000000000000 ) ) ;
#1033 =( LENGTH_UNIT ( ) NAMED_UNIT ( * ) SI_UNIT ( .MILLI., .METRE. ) );
#1034 = EDGE_CURVE ( 'NONE', #772, #928, #991, .T. ) ;
#1035 = VERTEX_POINT ( 'NONE', #979 ) ;
#1036 = CARTESIAN_POINT ( 'NONE',  ( -22.23815787852775827, 5.623684242944476885, 5.000000000000000000 ) ) ;
#1037 = DIRECTION ( 'NONE',  ( 0.000000000000000000, 0.000000000000000000, 1.000000000000000000 ) ) ;
#1038 = FACE_BOUND ( 'NONE', #329, .T. ) ;
#1039 = ORIENTED_EDGE ( 'NONE', *, *, #977, .T. ) ;
#1040 = LINE ( 'NONE', #715, #623 ) ;
#1041 = ORIENTED_EDGE ( 'NONE', *, *, #207, .F. ) ;
#1042 = SURFACE_SIDE_STYLE ('',( #937 ) ) ;
#1043 = CIRCLE ( 'NONE', #600, 0.8000000000000020428 ) ;
#1044 = ADVANCED_FACE ( 'NONE', ( #689 ), #801, .T. ) ;
#1045 = CIRCLE ( 'NONE', #30, 10.00000000000000533 ) ;
#1046 = DIRECTION ( 'NONE',  ( -1.000000000000000000, 0.000000000000000000, 0.000000000000000000 ) ) ;
#1047 = AXIS2_PLACEMENT_3D ( 'NONE', #369, #993, #1096 ) ;
#1048 = ORIENTED_EDGE ( 'NONE', *, *, #894, .T. ) ;
#1049 = EDGE_CURVE ( 'NONE', #209, #508, #1040, .T. ) ;
#1050 = CARTESIAN_POINT ( 'NONE',  ( -18.93815787852775756, -2.876315757055518230, 2.500000000000000000 ) ) ;
#1051 = ORIENTED_EDGE ( 'NONE', *, *, #618, .F. ) ;
#1052 = DIRECTION ( 'NONE',  ( 1.000000000000000000, 0.000000000000000000, 0.000000000000000000 ) ) ;
#1053 = FACE_OUTER_BOUND ( 'NONE', #779, .T. ) ;
#1054 = VERTEX_POINT ( 'NONE', #80 ) ;
#1055 = DIRECTION ( 'NONE',  ( -0.000000000000000000, -0.000000000000000000, -1.000000000000000000 ) ) ;
#1056 = UNCERTAINTY_MEASURE_WITH_UNIT (LENGTH_MEASURE( 1.000000000000000082E-05 ), #655, 'distance_accuracy_value', 'NONE');
#1057 = ORIENTED_EDGE ( 'NONE', *, *, #703, .T. ) ;
#1058 = FACE_BOUND ( 'NONE', #279, .T. ) ;
#1059 = CARTESIAN_POINT ( 'NONE',  ( -14.53815787852776076, 8.123684242944490208, 4.000000000000000000 ) ) ;
#1060 = ORIENTED_EDGE ( 'NONE', *, *, #864, .F. ) ;
#1061 = DIRECTION ( 'NONE',  ( 1.000000000000000000, 0.000000000000000000, 0.000000000000000000 ) ) ;
#1062 = ORIENTED_EDGE ( 'NONE', *, *, #1132, .T. ) ;
#1063 = DIRECTION ( 'NONE',  ( 0.000000000000000000, 0.000000000000000000, 1.000000000000000000 ) ) ;
#1064 = ADVANCED_FACE ( 'NONE', ( #246 ), #888, .F. ) ;
#1065 = VECTOR ( 'NONE', #699, 1000.000000000000000 ) ;
#1066 = DIRECTION ( 'NONE',  ( -1.000000000000000000, 0.000000000000000000, 0.000000000000000000 ) ) ;
#1067 = VECTOR ( 'NONE', #771, 1000.000000000000000 ) ;
#1068 = AXIS2_PLACEMENT_3D ( 'NONE', #521, #1143, #1052 ) ;
#1069 = AXIS2_PLACEMENT_3D ( 'NONE', #532, #122, #107 ) ;
#1070 = CARTESIAN_POINT ( 'NONE',  ( -17.09491238802561952, 1.537022692415103364, 0.000000000000000000 ) ) ;
#1071 = CARTESIAN_POINT ( 'NONE',  ( 18.06184212147224244, -3.376315757055515121, 0.000000000000000000 ) ) ;
#1072 = EDGE_LOOP ( 'NONE', ( #594, #64 ) ) ;
#1073 = DIRECTION ( 'NONE',  ( 1.000000000000000000, 0.000000000000000000, 0.000000000000000000 ) ) ;
#1074 = CARTESIAN_POINT ( 'NONE',  ( 4.861842121472243150, 9.123684242944484879, 5.000000000000000000 ) ) ;
#1075 = EDGE_CURVE ( 'NONE', #902, #367, #94, .T. ) ;
#1076 = ORIENTED_EDGE ( 'NONE', *, *, #653, .T. ) ;
#1077 = ORIENTED_EDGE ( 'NONE', *, *, #466, .T. ) ;
#1078 = DIRECTION ( 'NONE',  ( 1.000000000000000000, 0.000000000000000000, -0.000000000000000000 ) ) ;
#1079 = CYLINDRICAL_SURFACE ( 'NONE', #302, 4.999999999999997335 ) ;
#1080 = EDGE_CURVE ( 'NONE', #1035, #288, #491, .T. ) ;
#1081 = VERTEX_POINT ( 'NONE', #164 ) ;
#1082 = ORIENTED_EDGE ( 'NONE', *, *, #460, .F. ) ;
#1083 = LINE ( 'NONE', #109, #859 ) ;
#1084 = CARTESIAN_POINT ( 'NONE',  ( 15.06184212147224422, 6.623684242944484879, 5.000000000000000000 ) ) ;
#1085 = EDGE_CURVE ( 'NONE', #367, #266, #601, .T. ) ;
#1086 = VECTOR ( 'NONE', #636, 1000.000000000000114 ) ;
#1087 = CIRCLE ( 'NONE', #583, 1.249999999999997113 ) ;
#1088 = ORIENTED_EDGE ( 'NONE', *, *, #1085, .F. ) ;
#1089 = VECTOR ( 'NONE', #1141, 1000.000000000000000 ) ;
#1090 = EDGE_CURVE ( 'NONE', #748, #928, #86, .T. ) ;
#1091 = VERTEX_POINT ( 'NONE', #159 ) ;
#1092 = CARTESIAN_POINT ( 'NONE',  ( 23.06184212147224244, 7.923715337589156249, 5.000000000000000000 ) ) ;
#1093 = CARTESIAN_POINT ( 'NONE',  ( -21.43815787852776111, 5.623684242944476885, 5.000000000000000000 ) ) ;
#1094 = LINE ( 'NONE', #542, #172 ) ;
#1095 = ORIENTED_EDGE ( 'NONE', *, *, #606, .T. ) ;
#1096 = DIRECTION ( 'NONE',  ( 1.000000000000000000, 0.000000000000000000, 0.000000000000000000 ) ) ;
#1097 = CARTESIAN_POINT ( 'NONE',  ( -23.93815787852775756, 0.000000000000000000, 5.000000000000000000 ) ) ;
#1098 = CARTESIAN_POINT ( 'NONE',  ( 2.061842121472243328, 6.623684242944484879, 0.000000000000000000 ) ) ;
#1099 = ORIENTED_EDGE ( 'NONE', *, *, #745, .T. ) ;
#1100 = PLANE ( 'NONE',  #680 ) ;
#1101 = FACE_OUTER_BOUND ( 'NONE', #439, .T. ) ;
#1102 = ADVANCED_FACE ( 'NONE', ( #537 ), #893, .F. ) ;
#1103 = CARTESIAN_POINT ( 'NONE',  ( -9.438157878527759337, 8.123684242944490208, 5.000000000000000000 ) ) ;
#1104 = CIRCLE ( 'NONE', #1122, 6.499999999999991118 ) ;
#1105 = ORIENTED_EDGE ( 'NONE', *, *, #334, .T. ) ;
#1106 = DIRECTION ( 'NONE',  ( 1.000000000000000000, 0.000000000000000000, 0.000000000000000000 ) ) ;
#1107 = AXIS2_PLACEMENT_3D ( 'NONE', #852, #665, #61 ) ;
#1108 = DIRECTION ( 'NONE',  ( 1.000000000000000000, 0.000000000000000000, 0.000000000000000000 ) ) ;
#1109 = CARTESIAN_POINT ( 'NONE',  ( -18.93815787852775756, -2.876315757055518230, 2.500000000000000000 ) ) ;
#1110 = ORIENTED_EDGE ( 'NONE', *, *, #1023, .F. ) ;
#1111 = FACE_OUTER_BOUND ( 'NONE', #911, .T. ) ;
#1112 = DIRECTION ( 'NONE',  ( 0.000000000000000000, 0.000000000000000000, 1.000000000000000000 ) ) ;
#1113 = EDGE_CURVE ( 'NONE', #355, #524, #795, .T. ) ;
#1114 = ADVANCED_FACE ( 'NONE', ( #89 ), #1128, .F. ) ;
#1115 = ORIENTED_EDGE ( 'NONE', *, *, #988, .T. ) ;
#1116 = CARTESIAN_POINT ( 'NONE',  ( -21.43815787852776111, 5.623684242944476885, 0.000000000000000000 ) ) ;
#1117 = DIRECTION ( 'NONE',  ( -0.000000000000000000, -0.000000000000000000, -1.000000000000000000 ) ) ;
#1118 = ORIENTED_EDGE ( 'NONE', *, *, #334, .F. ) ;
#1119 = CARTESIAN_POINT ( 'NONE',  ( -23.93815787852775756, 12.62368424294447600, 5.000000000000000000 ) ) ;
#1120 = CIRCLE ( 'NONE', #151, 1.249999999999997113 ) ;
#1121 = ADVANCED_FACE ( 'NONE', ( #609 ), #778, .F. ) ;
#1122 = AXIS2_PLACEMENT_3D ( 'NONE', #975, #428, #161 ) ;
#1123 = AXIS2_PLACEMENT_3D ( 'NONE', #434, #603, #629 ) ;
#1124 = VERTEX_POINT ( 'NONE', #959 ) ;
#1125 = PLANE ( 'NONE',  #155 ) ;
#1126 = LINE ( 'NONE', #663, #582 ) ;
#1127 = ORIENTED_EDGE ( 'NONE', *, *, #21, .F. ) ;
#1128 = CYLINDRICAL_SURFACE ( 'NONE', #921, 5.100000000000000533 ) ;
#1129 = VERTEX_POINT ( 'NONE', #519 ) ;
#1130 = FACE_BOUND ( 'NONE', #461, .T. ) ;
#1131 = ORIENTED_EDGE ( 'NONE', *, *, #637, .F. ) ;
#1132 = EDGE_CURVE ( 'NONE', #793, #355, #734, .T. ) ;
#1133 = DIRECTION ( 'NONE',  ( -1.000000000000000000, 0.000000000000000000, 0.000000000000000000 ) ) ;
#1134 = ORIENTED_EDGE ( 'NONE', *, *, #847, .T. ) ;
#1135 = FACE_OUTER_BOUND ( 'NONE', #96, .T. ) ;
#1136 = VECTOR ( 'NONE', #744, 1000.000000000000000 ) ;
#1137 = VECTOR ( 'NONE', #458, 1000.000000000000000 ) ;
#1138 = CARTESIAN_POINT ( 'NONE',  ( 15.26184212147224173, 9.123684242944484879, 5.000000000000000000 ) ) ;
#1139 = AXIS2_PLACEMENT_3D ( 'NONE', #346, #525, #702 ) ;
#1140 = VERTEX_POINT ( 'NONE', #621 ) ;
#1141 = DIRECTION ( 'NONE',  ( -0.000000000000000000, -0.000000000000000000, -1.000000000000000000 ) ) ;
#1142 = ORIENTED_EDGE ( 'NONE', *, *, #1034, .F. ) ;
#1143 = DIRECTION ( 'NONE',  ( -0.000000000000000000, 0.000000000000000000, 1.000000000000000000 ) ) ;
#1144 = CARTESIAN_POINT ( 'NONE',  ( -23.93815787852775756, 9.623684242944477774, 2.500000000000000000 ) ) ;
#1145 = ADVANCED_FACE ( 'NONE', ( #973 ), #181, .F. ) ;
ENDSEC;
END-ISO-10303-21;
