ISO-10303-21;
HEADER;
FILE_DESCRIPTION (( 'STEP AP214' ),
    '1' );
FILE_NAME ('cm4 spacer.STEP',
    '2026-03-31T17:53:37',
    ( '' ),
    ( '' ),
    'SwSTEP 2.0',
    'SolidWorks 2026',
    '' );
FILE_SCHEMA (( 'AUTOMOTIVE_DESIGN' ));
ENDSEC;

DATA;
#1 = CARTESIAN_POINT ( 'NONE',  ( 3.000000000000000000, 0.000000000000000000, 2.500000000000000000 ) ) ;
#2 = VECTOR ( 'NONE', #192, 1000.000000000000000 ) ;
#3 = DIRECTION ( 'NONE',  ( -1.000000000000000000, -0.000000000000000000, -0.000000000000000000 ) ) ;
#4 = DIRECTION ( 'NONE',  ( 1.000000000000000000, 0.000000000000000000, 0.000000000000000000 ) ) ;
#5 = ORIENTED_EDGE ( 'NONE', *, *, #62, .T. ) ;
#6 = DIRECTION ( 'NONE',  ( 1.000000000000000000, 0.000000000000000000, 0.000000000000000000 ) ) ;
#7 = VECTOR ( 'NONE', #91, 1000.000000000000000 ) ;
#8 = EDGE_LOOP ( 'NONE', ( #183, #74, #167, #166 ) ) ;
#9 = CARTESIAN_POINT ( 'NONE',  ( 3.000000000000000000, 0.000000000000000000, 0.000000000000000000 ) ) ;
#10 = DIRECTION ( 'NONE',  ( -1.000000000000000000, -0.000000000000000000, -0.000000000000000000 ) ) ;
#11 =( NAMED_UNIT ( * ) SI_UNIT ( $, .STERADIAN. ) SOLID_ANGLE_UNIT ( ) );
#12 = UNCERTAINTY_MEASURE_WITH_UNIT (LENGTH_MEASURE( 1.000000000000000082E-05 ), #90, 'distance_accuracy_value', 'NONE');
#13 = VECTOR ( 'NONE', #10, 1000.000000000000000 ) ;
#14 = EDGE_LOOP ( 'NONE', ( #29, #71, #46, #196 ) ) ;
#15 = LINE ( 'NONE', #87, #7 ) ;
#16 = PRODUCT ( 'cm4 spacer', 'cm4 spacer', '', ( #111 ) ) ;
#17 = ORIENTED_EDGE ( 'NONE', *, *, #70, .T. ) ;
#18 = CYLINDRICAL_SURFACE ( 'NONE', #40, 2.500000000000000000 ) ;
#19 = FACE_OUTER_BOUND ( 'NONE', #138, .T. ) ;
#20 = DIRECTION ( 'NONE',  ( -1.000000000000000000, -0.000000000000000000, -0.000000000000000000 ) ) ;
#21 = CARTESIAN_POINT ( 'NONE',  ( 3.000000000000000000, 0.000000000000000000, 0.000000000000000000 ) ) ;
#22 = ORIENTED_EDGE ( 'NONE', *, *, #159, .F. ) ;
#23 = SURFACE_STYLE_FILL_AREA ( #49 ) ;
#24 = ADVANCED_FACE ( 'NONE', ( #121, #96 ), #140, .F. ) ;
#25 = VERTEX_POINT ( 'NONE', #172 ) ;
#26 = EDGE_CURVE ( 'NONE', #132, #185, #15, .T. ) ;
#27 = ORIENTED_EDGE ( 'NONE', *, *, #95, .T. ) ;
#28 =( GEOMETRIC_REPRESENTATION_CONTEXT ( 3 ) GLOBAL_UNCERTAINTY_ASSIGNED_CONTEXT ( ( #57 ) ) GLOBAL_UNIT_ASSIGNED_CONTEXT ( ( #171, #55, #113 ) ) REPRESENTATION_CONTEXT ( 'NONE', 'WORKASPACE' ) );
#29 = ORIENTED_EDGE ( 'NONE', *, *, #161, .F. ) ;
#30 = ORIENTED_EDGE ( 'NONE', *, *, #164, .T. ) ;
#31 = CARTESIAN_POINT ( 'NONE',  ( 0.000000000000000000, 3.061616997868383141E-16, -2.500000000000000000 ) ) ;
#32 = VERTEX_POINT ( 'NONE', #104 ) ;
#33 = LINE ( 'NONE', #119, #135 ) ;
#34 = FACE_OUTER_BOUND ( 'NONE', #14, .T. ) ;
#35 = DIRECTION ( 'NONE',  ( -1.000000000000000000, -0.000000000000000000, -0.000000000000000000 ) ) ;
#36 = AXIS2_PLACEMENT_3D ( 'NONE', #177, #56, #162 ) ;
#37 = MECHANICAL_DESIGN_GEOMETRIC_PRESENTATION_REPRESENTATION (  '', ( #180 ), #155 ) ;
#38 = EDGE_CURVE ( 'NONE', #134, #63, #33, .T. ) ;
#39 = AXIS2_PLACEMENT_3D ( 'NONE', #9, #6, #184 ) ;
#40 = AXIS2_PLACEMENT_3D ( 'NONE', #158, #176, #75 ) ;
#41 = ORIENTED_EDGE ( 'NONE', *, *, #38, .F. ) ;
#42 = PRODUCT_DEFINITION_SHAPE ( 'NONE', 'NONE',  #152 ) ;
#43 = AXIS2_PLACEMENT_3D ( 'NONE', #73, #143, #45 ) ;
#44 = CARTESIAN_POINT ( 'NONE',  ( 3.000000000000000000, 0.000000000000000000, 0.000000000000000000 ) ) ;
#45 = DIRECTION ( 'NONE',  ( 0.000000000000000000, 0.000000000000000000, -1.000000000000000000 ) ) ;
#46 = ORIENTED_EDGE ( 'NONE', *, *, #129, .T. ) ;
#47 = DIRECTION ( 'NONE',  ( 0.000000000000000000, 0.000000000000000000, -1.000000000000000000 ) ) ;
#48 = ORIENTED_EDGE ( 'NONE', *, *, #198, .F. ) ;
#49 = FILL_AREA_STYLE ('',( #105 ) ) ;
#50 = FACE_OUTER_BOUND ( 'NONE', #197, .T. ) ;
#51 = CARTESIAN_POINT ( 'NONE',  ( 3.000000000000000000, 0.000000000000000000, 1.400000000000000133 ) ) ;
#52 = DIRECTION ( 'NONE',  ( 1.000000000000000000, 0.000000000000000000, 0.000000000000000000 ) ) ;
#53 =( NAMED_UNIT ( * ) PLANE_ANGLE_UNIT ( ) SI_UNIT ( $, .RADIAN. ) );
#54 = CIRCLE ( 'NONE', #147, 2.500000000000000000 ) ;
#55 =( NAMED_UNIT ( * ) PLANE_ANGLE_UNIT ( ) SI_UNIT ( $, .RADIAN. ) );
#56 = DIRECTION ( 'NONE',  ( 0.000000000000000000, 0.000000000000000000, 1.000000000000000000 ) ) ;
#57 = UNCERTAINTY_MEASURE_WITH_UNIT (LENGTH_MEASURE( 1.000000000000000082E-05 ), #171, 'distance_accuracy_value', 'NONE');
#58 = CARTESIAN_POINT ( 'NONE',  ( 0.000000000000000000, 1.714505518806294638E-16, -1.400000000000000133 ) ) ;
#59 = DIRECTION ( 'NONE',  ( 0.000000000000000000, 0.000000000000000000, -1.000000000000000000 ) ) ;
#60 = CARTESIAN_POINT ( 'NONE',  ( 3.000000000000000000, 0.000000000000000000, 2.500000000000000000 ) ) ;
#61 = DIRECTION ( 'NONE',  ( 0.000000000000000000, 0.000000000000000000, -1.000000000000000000 ) ) ;
#62 = EDGE_CURVE ( 'NONE', #170, #32, #125, .T. ) ;
#63 = VERTEX_POINT ( 'NONE', #89 ) ;
#64 = ORIENTED_EDGE ( 'NONE', *, *, #198, .T. ) ;
#65 = AXIS2_PLACEMENT_3D ( 'NONE', #141, #122, #47 ) ;
#66 = DIRECTION ( 'NONE',  ( 0.000000000000000000, 0.000000000000000000, -1.000000000000000000 ) ) ;
#67 = CARTESIAN_POINT ( 'NONE',  ( 3.000000000000000000, 0.000000000000000000, 0.000000000000000000 ) ) ;
#68 = CIRCLE ( 'NONE', #69, 1.400000000000000133 ) ;
#69 = AXIS2_PLACEMENT_3D ( 'NONE', #67, #124, #88 ) ;
#70 = EDGE_CURVE ( 'NONE', #101, #63, #110, .T. ) ;
#71 = ORIENTED_EDGE ( 'NONE', *, *, #26, .T. ) ;
#72 = ORIENTED_EDGE ( 'NONE', *, *, #26, .F. ) ;
#73 = CARTESIAN_POINT ( 'NONE',  ( 0.000000000000000000, 0.000000000000000000, 0.000000000000000000 ) ) ;
#74 = ORIENTED_EDGE ( 'NONE', *, *, #159, .T. ) ;
#75 = DIRECTION ( 'NONE',  ( 0.000000000000000000, 0.000000000000000000, 1.000000000000000000 ) ) ;
#76 = ORIENTED_EDGE ( 'NONE', *, *, #148, .F. ) ;
#77 = ORIENTED_EDGE ( 'NONE', *, *, #148, .T. ) ;
#78 = CYLINDRICAL_SURFACE ( 'NONE', #100, 1.400000000000000133 ) ;
#79 = DIRECTION ( 'NONE',  ( 0.000000000000000000, 0.000000000000000000, -1.000000000000000000 ) ) ;
#80 = DIRECTION ( 'NONE',  ( 0.000000000000000000, 0.000000000000000000, 1.000000000000000000 ) ) ;
#81 = CIRCLE ( 'NONE', #165, 1.400000000000000133 ) ;
#82 = APPLICATION_CONTEXT ( 'automotive_design' ) ;
#83 = AXIS2_PLACEMENT_3D ( 'NONE', #94, #126, #59 ) ;
#84 = ORIENTED_EDGE ( 'NONE', *, *, #95, .F. ) ;
#85 = ADVANCED_FACE ( 'NONE', ( #50 ), #173, .F. ) ;
#86 = PRESENTATION_STYLE_ASSIGNMENT (( #92 ) ) ;
#87 = CARTESIAN_POINT ( 'NONE',  ( 3.000000000000000000, 3.061616997868383141E-16, -2.500000000000000000 ) ) ;
#88 = DIRECTION ( 'NONE',  ( 0.000000000000000000, 0.000000000000000000, -1.000000000000000000 ) ) ;
#89 = CARTESIAN_POINT ( 'NONE',  ( 0.000000000000000000, 0.000000000000000000, 1.400000000000000133 ) ) ;
#90 =( LENGTH_UNIT ( ) NAMED_UNIT ( * ) SI_UNIT ( .MILLI., .METRE. ) );
#91 = DIRECTION ( 'NONE',  ( -1.000000000000000000, -0.000000000000000000, -0.000000000000000000 ) ) ;
#92 = SURFACE_STYLE_USAGE ( .BOTH. , #146 ) ;
#93 = DIRECTION ( 'NONE',  ( -1.000000000000000000, -0.000000000000000000, -0.000000000000000000 ) ) ;
#94 = CARTESIAN_POINT ( 'NONE',  ( 3.000000000000000000, 0.000000000000000000, 0.000000000000000000 ) ) ;
#95 = EDGE_CURVE ( 'NONE', #170, #132, #54, .T. ) ;
#96 = FACE_BOUND ( 'NONE', #182, .T. ) ;
#97 = APPLICATION_PROTOCOL_DEFINITION ( 'draft international standard', 'automotive_design', 1998, #82 ) ;
#98 = EDGE_CURVE ( 'NONE', #134, #25, #81, .T. ) ;
#99 = PRODUCT_DEFINITION_CONTEXT ( 'detailed design', #82, 'design' ) ;
#100 = AXIS2_PLACEMENT_3D ( 'NONE', #153, #20, #174 ) ;
#101 = VERTEX_POINT ( 'NONE', #58 ) ;
#102 = PRESENTATION_LAYER_ASSIGNMENT (  '', '', ( #180 ) ) ;
#103 = ORIENTED_EDGE ( 'NONE', *, *, #98, .T. ) ;
#104 = CARTESIAN_POINT ( 'NONE',  ( 0.000000000000000000, 0.000000000000000000, 2.500000000000000000 ) ) ;
#105 = FILL_AREA_STYLE_COLOUR ( '', #194 ) ;
#106 = ORIENTED_EDGE ( 'NONE', *, *, #129, .F. ) ;
#107 = DIRECTION ( 'NONE',  ( 0.000000000000000000, 0.000000000000000000, -1.000000000000000000 ) ) ;
#108 = CYLINDRICAL_SURFACE ( 'NONE', #127, 2.500000000000000000 ) ;
#109 = FACE_OUTER_BOUND ( 'NONE', #8, .T. ) ;
#110 = CIRCLE ( 'NONE', #149, 1.400000000000000133 ) ;
#111 = PRODUCT_CONTEXT ( 'NONE', #144, 'mechanical' ) ;
#112 = CIRCLE ( 'NONE', #65, 2.500000000000000000 ) ;
#113 =( NAMED_UNIT ( * ) SI_UNIT ( $, .STERADIAN. ) SOLID_ANGLE_UNIT ( ) );
#114 = PRODUCT_RELATED_PRODUCT_CATEGORY ( 'part', '', ( #16 ) ) ;
#115 = ADVANCED_FACE ( 'NONE', ( #19 ), #108, .T. ) ;
#116 = EDGE_LOOP ( 'NONE', ( #27, #142 ) ) ;
#117 = DIRECTION ( 'NONE',  ( 0.000000000000000000, 0.000000000000000000, 1.000000000000000000 ) ) ;
#118 = FACE_BOUND ( 'NONE', #123, .T. ) ;
#119 = CARTESIAN_POINT ( 'NONE',  ( 3.000000000000000000, 0.000000000000000000, 1.400000000000000133 ) ) ;
#120 = CIRCLE ( 'NONE', #195, 1.400000000000000133 ) ;
#121 = FACE_OUTER_BOUND ( 'NONE', #145, .T. ) ;
#122 = DIRECTION ( 'NONE',  ( 1.000000000000000000, 0.000000000000000000, 0.000000000000000000 ) ) ;
#123 = EDGE_LOOP ( 'NONE', ( #181, #22 ) ) ;
#124 = DIRECTION ( 'NONE',  ( 1.000000000000000000, 0.000000000000000000, 0.000000000000000000 ) ) ;
#125 = LINE ( 'NONE', #60, #13 ) ;
#126 = DIRECTION ( 'NONE',  ( 1.000000000000000000, 0.000000000000000000, 0.000000000000000000 ) ) ;
#127 = AXIS2_PLACEMENT_3D ( 'NONE', #175, #35, #80 ) ;
#128 = AXIS2_PLACEMENT_3D ( 'NONE', #188, #52, #79 ) ;
#129 = EDGE_CURVE ( 'NONE', #185, #32, #112, .T. ) ;
#130 = SHAPE_DEFINITION_REPRESENTATION ( #42, #151 ) ;
#131 = CIRCLE ( 'NONE', #43, 2.500000000000000000 ) ;
#132 = VERTEX_POINT ( 'NONE', #187 ) ;
#133 = ADVANCED_FACE ( 'NONE', ( #156, #118 ), #169, .T. ) ;
#134 = VERTEX_POINT ( 'NONE', #51 ) ;
#135 = VECTOR ( 'NONE', #3, 1000.000000000000000 ) ;
#136 = CARTESIAN_POINT ( 'NONE',  ( 3.000000000000000000, 1.714505518806294638E-16, -1.400000000000000133 ) ) ;
#137 = MANIFOLD_SOLID_BREP ( 'Boss-Extrude1', #179 ) ;
#138 = EDGE_LOOP ( 'NONE', ( #72, #84, #5, #77 ) ) ;
#139 = CARTESIAN_POINT ( 'NONE',  ( 0.000000000000000000, 0.000000000000000000, 0.000000000000000000 ) ) ;
#140 = PLANE ( 'NONE',  #128 ) ;
#141 = CARTESIAN_POINT ( 'NONE',  ( 0.000000000000000000, 0.000000000000000000, 0.000000000000000000 ) ) ;
#142 = ORIENTED_EDGE ( 'NONE', *, *, #161, .T. ) ;
#143 = DIRECTION ( 'NONE',  ( 1.000000000000000000, 0.000000000000000000, 0.000000000000000000 ) ) ;
#144 = APPLICATION_CONTEXT ( 'automotive_design' ) ;
#145 = EDGE_LOOP ( 'NONE', ( #76, #106 ) ) ;
#146 = SURFACE_SIDE_STYLE ('',( #23 ) ) ;
#147 = AXIS2_PLACEMENT_3D ( 'NONE', #21, #168, #107 ) ;
#148 = EDGE_CURVE ( 'NONE', #32, #185, #131, .T. ) ;
#149 = AXIS2_PLACEMENT_3D ( 'NONE', #186, #199, #66 ) ;
#150 = PRODUCT_DEFINITION_FORMATION_WITH_SPECIFIED_SOURCE ( 'ANY', '', #16, .NOT_KNOWN. ) ;
#151 = ADVANCED_BREP_SHAPE_REPRESENTATION ( 'cm4 spacer', ( #137, #36 ), #28 ) ;
#152 = PRODUCT_DEFINITION ( 'UNKNOWN', '', #150, #99 ) ;
#153 = CARTESIAN_POINT ( 'NONE',  ( 3.000000000000000000, 0.000000000000000000, 0.000000000000000000 ) ) ;
#154 = CARTESIAN_POINT ( 'NONE',  ( 3.000000000000000000, 0.000000000000000000, 0.000000000000000000 ) ) ;
#155 =( GEOMETRIC_REPRESENTATION_CONTEXT ( 3 ) GLOBAL_UNCERTAINTY_ASSIGNED_CONTEXT ( ( #12 ) ) GLOBAL_UNIT_ASSIGNED_CONTEXT ( ( #90, #53, #11 ) ) REPRESENTATION_CONTEXT ( 'NONE', 'WORKASPACE' ) );
#156 = FACE_OUTER_BOUND ( 'NONE', #116, .T. ) ;
#157 = DIRECTION ( 'NONE',  ( 1.000000000000000000, 0.000000000000000000, 0.000000000000000000 ) ) ;
#158 = CARTESIAN_POINT ( 'NONE',  ( 3.000000000000000000, 0.000000000000000000, 0.000000000000000000 ) ) ;
#159 = EDGE_CURVE ( 'NONE', #25, #134, #68, .T. ) ;
#160 = APPLICATION_PROTOCOL_DEFINITION ( 'draft international standard', 'automotive_design', 1998, #144 ) ;
#161 = EDGE_CURVE ( 'NONE', #132, #170, #178, .T. ) ;
#162 = DIRECTION ( 'NONE',  ( 1.000000000000000000, 0.000000000000000000, 0.000000000000000000 ) ) ;
#163 = AXIS2_PLACEMENT_3D ( 'NONE', #44, #93, #117 ) ;
#164 = EDGE_CURVE ( 'NONE', #25, #101, #189, .T. ) ;
#165 = AXIS2_PLACEMENT_3D ( 'NONE', #154, #157, #190 ) ;
#166 = ORIENTED_EDGE ( 'NONE', *, *, #70, .F. ) ;
#167 = ORIENTED_EDGE ( 'NONE', *, *, #38, .T. ) ;
#168 = DIRECTION ( 'NONE',  ( 1.000000000000000000, 0.000000000000000000, 0.000000000000000000 ) ) ;
#169 = PLANE ( 'NONE',  #39 ) ;
#170 = VERTEX_POINT ( 'NONE', #1 ) ;
#171 =( LENGTH_UNIT ( ) NAMED_UNIT ( * ) SI_UNIT ( .MILLI., .METRE. ) );
#172 = CARTESIAN_POINT ( 'NONE',  ( 3.000000000000000000, 1.714505518806294638E-16, -1.400000000000000133 ) ) ;
#173 = CYLINDRICAL_SURFACE ( 'NONE', #163, 1.400000000000000133 ) ;
#174 = DIRECTION ( 'NONE',  ( 0.000000000000000000, 0.000000000000000000, 1.000000000000000000 ) ) ;
#175 = CARTESIAN_POINT ( 'NONE',  ( 3.000000000000000000, 0.000000000000000000, 0.000000000000000000 ) ) ;
#176 = DIRECTION ( 'NONE',  ( -1.000000000000000000, -0.000000000000000000, -0.000000000000000000 ) ) ;
#177 = CARTESIAN_POINT ( 'NONE',  ( 0.000000000000000000, 0.000000000000000000, 0.000000000000000000 ) ) ;
#178 = CIRCLE ( 'NONE', #83, 2.500000000000000000 ) ;
#179 = CLOSED_SHELL ( 'NONE', ( #85, #193, #133, #24, #115, #191 ) ) ;
#180 = STYLED_ITEM ( 'NONE', ( #86 ), #137 ) ;
#181 = ORIENTED_EDGE ( 'NONE', *, *, #98, .F. ) ;
#182 = EDGE_LOOP ( 'NONE', ( #64, #17 ) ) ;
#183 = ORIENTED_EDGE ( 'NONE', *, *, #164, .F. ) ;
#184 = DIRECTION ( 'NONE',  ( 0.000000000000000000, 0.000000000000000000, -1.000000000000000000 ) ) ;
#185 = VERTEX_POINT ( 'NONE', #31 ) ;
#186 = CARTESIAN_POINT ( 'NONE',  ( 0.000000000000000000, 0.000000000000000000, 0.000000000000000000 ) ) ;
#187 = CARTESIAN_POINT ( 'NONE',  ( 3.000000000000000000, 3.061616997868383141E-16, -2.500000000000000000 ) ) ;
#188 = CARTESIAN_POINT ( 'NONE',  ( 0.000000000000000000, 0.000000000000000000, 0.000000000000000000 ) ) ;
#189 = LINE ( 'NONE', #136, #2 ) ;
#190 = DIRECTION ( 'NONE',  ( 0.000000000000000000, 0.000000000000000000, -1.000000000000000000 ) ) ;
#191 = ADVANCED_FACE ( 'NONE', ( #109 ), #78, .F. ) ;
#192 = DIRECTION ( 'NONE',  ( -1.000000000000000000, -0.000000000000000000, -0.000000000000000000 ) ) ;
#193 = ADVANCED_FACE ( 'NONE', ( #34 ), #18, .T. ) ;
#194 = COLOUR_RGB ( '',0.7921568627450980005, 0.8196078431372548767, 0.9333333333333333481 ) ;
#195 = AXIS2_PLACEMENT_3D ( 'NONE', #139, #4, #61 ) ;
#196 = ORIENTED_EDGE ( 'NONE', *, *, #62, .F. ) ;
#197 = EDGE_LOOP ( 'NONE', ( #103, #30, #48, #41 ) ) ;
#198 = EDGE_CURVE ( 'NONE', #63, #101, #120, .T. ) ;
#199 = DIRECTION ( 'NONE',  ( 1.000000000000000000, 0.000000000000000000, 0.000000000000000000 ) ) ;
ENDSEC;
END-ISO-10303-21;
