ISO-10303-21;
HEADER;
FILE_DESCRIPTION (( 'STEP AP214' ),
    '1' );
FILE_NAME ('bottom damper-mirror.STEP',
    '2026-04-08T20:37:55',
    ( '' ),
    ( '' ),
    'SwSTEP 2.0',
    'SolidWorks 2026',
    '' );
FILE_SCHEMA (( 'AUTOMOTIVE_DESIGN' ));
ENDSEC;

DATA;
#1 = LINE ( 'NONE', #57, #791 ) ;
#2 = ORIENTED_EDGE ( 'NONE', *, *, #851, .T. ) ;
#3 = ORIENTED_EDGE ( 'NONE', *, *, #720, .F. ) ;
#4 = ADVANCED_BREP_SHAPE_REPRESENTATION ( 'bottom damper-mirror', ( #386, #62 ), #401 ) ;
#5 = CARTESIAN_POINT ( 'NONE',  ( 9.408734730734510165, -11.53814020236601579, 0.000000000000000000 ) ) ;
#6 = CARTESIAN_POINT ( 'NONE',  ( -0.8960546911187641239, -8.122941602472403488, 1.800000000000000044 ) ) ;
#7 = ORIENTED_EDGE ( 'NONE', *, *, #519, .T. ) ;
#8 = APPLICATION_CONTEXT ( 'automotive_design' ) ;
#9 = ORIENTED_EDGE ( 'NONE', *, *, #131, .T. ) ;
#10 = DIRECTION ( 'NONE',  ( 0.4916273249797263323, -0.8708057035488908637, 0.000000000000000000 ) ) ;
#11 = DIRECTION ( 'NONE',  ( 1.000000000000000000, 0.000000000000000000, 0.000000000000000000 ) ) ;
#12 = DIRECTION ( 'NONE',  ( -0.4916273249797257772, 0.8708057035488910858, 0.000000000000000000 ) ) ;
#13 = ORIENTED_EDGE ( 'NONE', *, *, #737, .T. ) ;
#14 = CARTESIAN_POINT ( 'NONE',  ( 4.386409561530370205, -8.122941602472403488, 1.800000000000000044 ) ) ;
#15 = VECTOR ( 'NONE', #596, 1000.000000000000000 ) ;
#16 = EDGE_CURVE ( 'NONE', #428, #475, #840, .T. ) ;
#17 = DIRECTION ( 'NONE',  ( 1.000000000000000000, 0.000000000000000000, 0.000000000000000000 ) ) ;
#18 = CIRCLE ( 'NONE', #487, 2.999999999999992450 ) ;
#19 = ADVANCED_FACE ( 'NONE', ( #571 ), #231, .F. ) ;
#20 = VERTEX_POINT ( 'NONE', #233 ) ;
#21 = DIRECTION ( 'NONE',  ( -0.4916273249797261102, 0.8708057035488909747, 0.000000000000000000 ) ) ;
#22 = AXIS2_PLACEMENT_3D ( 'NONE', #90, #699, #422 ) ;
#23 = CARTESIAN_POINT ( 'NONE',  ( 11.98392510528478638, -7.252303698855461001, 2.799999999999999822 ) ) ;
#24 = LINE ( 'NONE', #28, #292 ) ;
#25 = AXIS2_PLACEMENT_3D ( 'NONE', #864, #190, #873 ) ;
#26 = ORIENTED_EDGE ( 'NONE', *, *, #293, .T. ) ;
#27 =( GEOMETRIC_REPRESENTATION_CONTEXT ( 3 ) GLOBAL_UNCERTAINTY_ASSIGNED_CONTEXT ( ( #49 ) ) GLOBAL_UNIT_ASSIGNED_CONTEXT ( ( #501, #636, #418 ) ) REPRESENTATION_CONTEXT ( 'NONE', 'WORKASPACE' ) );
#28 = CARTESIAN_POINT ( 'NONE',  ( -14.25493224171899698, -2.122941602472415479, 2.799999999999999822 ) ) ;
#29 = ORIENTED_EDGE ( 'NONE', *, *, #737, .F. ) ;
#30 = VECTOR ( 'NONE', #393, 1000.000000000000000 ) ;
#31 = LINE ( 'NONE', #377, #753 ) ;
#32 = DIRECTION ( 'NONE',  ( -0.8708057035488910858, -0.4916273249797257772, 0.000000000000000000 ) ) ;
#33 = ORIENTED_EDGE ( 'NONE', *, *, #405, .T. ) ;
#34 = CARTESIAN_POINT ( 'NONE',  ( -14.25493224171899698, -2.122941602472415479, 2.799999999999999822 ) ) ;
#35 = DIRECTION ( 'NONE',  ( -1.000000000000000000, -1.258839247467300628E-16, 0.000000000000000000 ) ) ;
#36 = ORIENTED_EDGE ( 'NONE', *, *, #655, .T. ) ;
#37 = DIRECTION ( 'NONE',  ( 0.4916273249797263878, 0.8708057035488907527, 0.000000000000000000 ) ) ;
#38 = CARTESIAN_POINT ( 'NONE',  ( 10.55328552369692829, -5.122941602472417699, 2.799999999999999822 ) ) ;
#39 = CARTESIAN_POINT ( 'NONE',  ( 4.386409561530370205, -8.122941602472403488, 1.800000000000000044 ) ) ;
#40 = EDGE_CURVE ( 'NONE', #614, #475, #829, .T. ) ;
#41 = ORIENTED_EDGE ( 'NONE', *, *, #175, .F. ) ;
#42 = CARTESIAN_POINT ( 'NONE',  ( 13.55328552369691053, -8.122941602472399936, 2.799999999999999822 ) ) ;
#43 = PLANE ( 'NONE',  #859 ) ;
#44 = EDGE_CURVE ( 'NONE', #609, #645, #695, .T. ) ;
#45 = ORIENTED_EDGE ( 'NONE', *, *, #529, .T. ) ;
#46 = DIRECTION ( 'NONE',  ( -1.000000000000000000, 0.000000000000000000, 0.000000000000000000 ) ) ;
#47 = LINE ( 'NONE', #320, #675 ) ;
#48 = VERTEX_POINT ( 'NONE', #226 ) ;
#49 = UNCERTAINTY_MEASURE_WITH_UNIT (LENGTH_MEASURE( 1.000000000000000082E-05 ), #501, 'distance_accuracy_value', 'NONE');
#50 = VECTOR ( 'NONE', #745, 1000.000000000000000 ) ;
#51 = PRODUCT ( 'bottom damper-mirror', 'bottom damper-mirror', '', ( #532 ) ) ;
#52 = CARTESIAN_POINT ( 'NONE',  ( -10.86753602020040077, -8.122941602472414147, 2.799999999999999822 ) ) ;
#53 = CARTESIAN_POINT ( 'NONE',  ( 3.410030965643150225, -2.122941602472415479, 1.800000000000000044 ) ) ;
#54 = VERTEX_POINT ( 'NONE', #557 ) ;
#55 = ADVANCED_FACE ( 'NONE', ( #766 ), #156, .F. ) ;
#56 = DIRECTION ( 'NONE',  ( 1.000000000000000000, 0.000000000000000000, 0.000000000000000000 ) ) ;
#57 = CARTESIAN_POINT ( 'NONE',  ( -6.503761202794595242, -8.122941602472401712, 1.800000000000000044 ) ) ;
#58 = VECTOR ( 'NONE', #541, 1000.000000000000000 ) ;
#59 = VERTEX_POINT ( 'NONE', #237 ) ;
#60 = SHAPE_DEFINITION_REPRESENTATION ( #318, #4 ) ;
#61 = VECTOR ( 'NONE', #729, 1000.000000000000000 ) ;
#62 = AXIS2_PLACEMENT_3D ( 'NONE', #782, #601, #801 ) ;
#63 = CARTESIAN_POINT ( 'NONE',  ( -13.33624280647566884, -2.122941602472415035, 2.799999999999999822 ) ) ;
#64 = DIRECTION ( 'NONE',  ( -0.000000000000000000, 0.000000000000000000, -1.000000000000000000 ) ) ;
#65 = ADVANCED_FACE ( 'NONE', ( #757 ), #703, .F. ) ;
#66 = ORIENTED_EDGE ( 'NONE', *, *, #72, .F. ) ;
#67 = EDGE_LOOP ( 'NONE', ( #33, #590, #152, #500 ) ) ;
#68 = LINE ( 'NONE', #189, #555 ) ;
#69 = MECHANICAL_DESIGN_GEOMETRIC_PRESENTATION_REPRESENTATION (  '', ( #363 ), #27 ) ;
#70 = CARTESIAN_POINT ( 'NONE',  ( 4.386409561530370205, -8.122941602472403488, 2.799999999999999822 ) ) ;
#71 = ORIENTED_EDGE ( 'NONE', *, *, #529, .F. ) ;
#72 = EDGE_CURVE ( 'NONE', #395, #475, #624, .T. ) ;
#73 = CARTESIAN_POINT ( 'NONE',  ( -8.972467989069858874, -2.122941602472415479, 2.799999999999999822 ) ) ;
#74 = DIRECTION ( 'NONE',  ( 0.000000000000000000, 0.000000000000000000, 1.000000000000000000 ) ) ;
#75 = ORIENTED_EDGE ( 'NONE', *, *, #463, .F. ) ;
#76 = DIRECTION ( 'NONE',  ( 1.000000000000000000, 0.000000000000000000, 0.000000000000000000 ) ) ;
#77 = LINE ( 'NONE', #799, #634 ) ;
#78 = EDGE_LOOP ( 'NONE', ( #869, #807, #191, #415, #195, #576, #297, #503, #143, #400, #13, #122, #263, #305, #506, #821, #865, #75, #544, #317, #329, #559 ) ) ;
#79 = CARTESIAN_POINT ( 'NONE',  ( -14.25493224171899698, -2.122941602472415479, 2.799999999999999822 ) ) ;
#80 = CARTESIAN_POINT ( 'NONE',  ( -2.840563229335014483, -8.122941602472403488, 1.800000000000000044 ) ) ;
#81 = DIRECTION ( 'NONE',  ( 0.000000000000000000, 0.000000000000000000, 1.000000000000000000 ) ) ;
#82 = LINE ( 'NONE', #345, #357 ) ;
#83 = EDGE_CURVE ( 'NONE', #486, #731, #219, .T. ) ;
#84 = EDGE_CURVE ( 'NONE', #395, #462, #24, .T. ) ;
#85 = PLANE ( 'NONE',  #825 ) ;
#86 = CARTESIAN_POINT ( 'NONE',  ( -14.25493224171899698, -2.122941602472415479, 0.000000000000000000 ) ) ;
#87 = EDGE_LOOP ( 'NONE', ( #683, #604, #510, #139 ) ) ;
#88 = CARTESIAN_POINT ( 'NONE',  ( 3.467720126287040294, -8.122941602472403488, 2.799999999999999822 ) ) ;
#89 = CARTESIAN_POINT ( 'NONE',  ( 0.02263474412455765417, -8.122941602472403488, 1.800000000000000044 ) ) ;
#90 = CARTESIAN_POINT ( 'NONE',  ( 5.756828581435939896, -8.122941602472399936, 2.799999999999999822 ) ) ;
#91 = EDGE_CURVE ( 'NONE', #633, #486, #151, .T. ) ;
#92 = ORIENTED_EDGE ( 'NONE', *, *, #784, .F. ) ;
#93 = AXIS2_PLACEMENT_3D ( 'NONE', #290, #81, #354 ) ;
#94 = CARTESIAN_POINT ( 'NONE',  ( -9.948846584957077965, -8.122941602472403488, 1.800000000000000044 ) ) ;
#95 = CARTESIAN_POINT ( 'NONE',  ( -6.503761202794595242, -8.122941602472401712, 1.800000000000000044 ) ) ;
#96 = AXIS2_PLACEMENT_3D ( 'NONE', #339, #410, #125 ) ;
#97 = ORIENTED_EDGE ( 'NONE', *, *, #764, .T. ) ;
#98 = DIRECTION ( 'NONE',  ( 1.000000000000000000, 0.000000000000000000, 0.000000000000000000 ) ) ;
#99 = FACE_OUTER_BOUND ( 'NONE', #811, .T. ) ;
#100 = ORIENTED_EDGE ( 'NONE', *, *, #719, .F. ) ;
#101 = AXIS2_PLACEMENT_3D ( 'NONE', #464, #275, #607 ) ;
#102 = LINE ( 'NONE', #774, #597 ) ;
#103 = DIRECTION ( 'NONE',  ( 0.000000000000000000, 0.000000000000000000, 1.000000000000000000 ) ) ;
#104 = ORIENTED_EDGE ( 'NONE', *, *, #784, .T. ) ;
#105 = CARTESIAN_POINT ( 'NONE',  ( 3.467720126287040294, -8.122941602472403488, 2.799999999999999822 ) ) ;
#106 = DIRECTION ( 'NONE',  ( -1.000000000000000000, 4.460570478050241462E-16, 0.000000000000000000 ) ) ;
#107 = EDGE_CURVE ( 'NONE', #344, #741, #419, .T. ) ;
#108 = DIRECTION ( 'NONE',  ( 0.000000000000000000, 0.000000000000000000, 1.000000000000000000 ) ) ;
#109 = VERTEX_POINT ( 'NONE', #686 ) ;
#110 = PLANE ( 'NONE',  #738 ) ;
#111 = EDGE_CURVE ( 'NONE', #232, #742, #304, .T. ) ;
#112 = CARTESIAN_POINT ( 'NONE',  ( -9.948846584957077965, -8.122941602472403488, 2.799999999999999822 ) ) ;
#113 = ORIENTED_EDGE ( 'NONE', *, *, #196, .F. ) ;
#114 = PLANE ( 'NONE',  #666 ) ;
#115 = DIRECTION ( 'NONE',  ( -1.000000000000000000, 0.000000000000000000, 0.000000000000000000 ) ) ;
#116 = ORIENTED_EDGE ( 'NONE', *, *, #454, .F. ) ;
#117 = DIRECTION ( 'NONE',  ( 0.000000000000000000, 0.000000000000000000, 1.000000000000000000 ) ) ;
#118 = CARTESIAN_POINT ( 'NONE',  ( -14.25493224171899698, -2.122941602472415479, 2.799999999999999822 ) ) ;
#119 = ORIENTED_EDGE ( 'NONE', *, *, #872, .F. ) ;
#120 = CARTESIAN_POINT ( 'NONE',  ( -8.972467989069858874, -2.122941602472415479, 1.800000000000000044 ) ) ;
#121 = LINE ( 'NONE', #538, #521 ) ;
#122 = ORIENTED_EDGE ( 'NONE', *, *, #250, .T. ) ;
#123 = CARTESIAN_POINT ( 'NONE',  ( -0.8960546911187651231, -8.122941602472407041, 1.800000000000000044 ) ) ;
#124 = EDGE_CURVE ( 'NONE', #817, #325, #637, .T. ) ;
#125 = DIRECTION ( 'NONE',  ( 0.4916273249797259992, -0.8708057035488908637, 0.000000000000000000 ) ) ;
#126 = ORIENTED_EDGE ( 'NONE', *, *, #493, .F. ) ;
#127 = VECTOR ( 'NONE', #452, 1000.000000000000000 ) ;
#128 = CIRCLE ( 'NONE', #628, 4.999999999999999112 ) ;
#129 = CARTESIAN_POINT ( 'NONE',  ( -6.503761202794595242, -8.122941602472401712, 2.799999999999999822 ) ) ;
#130 = SURFACE_STYLE_USAGE ( .BOTH. , #739 ) ;
#131 = EDGE_CURVE ( 'NONE', #569, #531, #431, .T. ) ;
#132 = EDGE_LOOP ( 'NONE', ( #824, #238, #220, #313, #804, #704, #248, #126, #676, #883, #651, #837, #480, #97, #794, #216, #831, #539, #823, #26, #188, #725 ) ) ;
#133 = EDGE_LOOP ( 'NONE', ( #66, #716, #749, #470 ) ) ;
#134 = DIRECTION ( 'NONE',  ( -0.000000000000000000, 0.000000000000000000, -1.000000000000000000 ) ) ;
#135 = VECTOR ( 'NONE', #179, 1000.000000000000000 ) ;
#136 = DIRECTION ( 'NONE',  ( -0.8708057035488908637, -0.4916273249797262213, 0.000000000000000000 ) ) ;
#137 = ADVANCED_FACE ( 'NONE', ( #99 ), #367, .F. ) ;
#138 = ORIENTED_EDGE ( 'NONE', *, *, #606, .T. ) ;
#139 = ORIENTED_EDGE ( 'NONE', *, *, #84, .F. ) ;
#140 = EDGE_CURVE ( 'NONE', #777, #395, #653, .T. ) ;
#141 = LINE ( 'NONE', #552, #213 ) ;
#142 = CARTESIAN_POINT ( 'NONE',  ( 6.855116347805629395, -2.122941602472415479, 1.800000000000000044 ) ) ;
#143 = ORIENTED_EDGE ( 'NONE', *, *, #575, .F. ) ;
#144 = LINE ( 'NONE', #826, #783 ) ;
#145 = CARTESIAN_POINT ( 'NONE',  ( 13.55328552369691053, -8.122941602472399936, 0.000000000000000000 ) ) ;
#146 = DIRECTION ( 'NONE',  ( 0.000000000000000000, 0.000000000000000000, 1.000000000000000000 ) ) ;
#147 = ADVANCED_FACE ( 'NONE', ( #388 ), #43, .F. ) ;
#148 = ORIENTED_EDGE ( 'NONE', *, *, #425, .T. ) ;
#149 = DIRECTION ( 'NONE',  ( -1.000000000000000000, 0.000000000000000000, 0.000000000000000000 ) ) ;
#150 = FACE_OUTER_BOUND ( 'NONE', #654, .T. ) ;
#151 = LINE ( 'NONE', #769, #631 ) ;
#152 = ORIENTED_EDGE ( 'NONE', *, *, #620, .F. ) ;
#153 = CARTESIAN_POINT ( 'NONE',  ( 7.773805783048957530, -2.122941602472415479, 1.800000000000000044 ) ) ;
#154 = EDGE_CURVE ( 'NONE', #344, #375, #706, .T. ) ;
#155 = CARTESIAN_POINT ( 'NONE',  ( -2.840563229335015372, -2.122941602472415479, 1.800000000000000044 ) ) ;
#156 = PLANE ( 'NONE',  #22 ) ;
#157 = ORIENTED_EDGE ( 'NONE', *, *, #575, .T. ) ;
#158 = DIRECTION ( 'NONE',  ( 0.000000000000000000, 0.000000000000000000, 1.000000000000000000 ) ) ;
#159 = DIRECTION ( 'NONE',  ( 0.000000000000000000, -1.000000000000000000, 0.000000000000000000 ) ) ;
#160 = EDGE_LOOP ( 'NONE', ( #389, #347, #565, #875 ) ) ;
#161 = DIRECTION ( 'NONE',  ( 0.000000000000000000, 0.000000000000000000, -1.000000000000000000 ) ) ;
#162 = CARTESIAN_POINT ( 'NONE',  ( -6.503761202794595242, -8.122941602472401712, 2.799999999999999822 ) ) ;
#163 = AXIS2_PLACEMENT_3D ( 'NONE', #391, #516, #786 ) ;
#164 = ORIENTED_EDGE ( 'NONE', *, *, #286, .F. ) ;
#165 = LINE ( 'NONE', #643, #356 ) ;
#166 = CARTESIAN_POINT ( 'NONE',  ( 3.467720126287040294, -8.122941602472403488, 1.800000000000000044 ) ) ;
#167 = ORIENTED_EDGE ( 'NONE', *, *, #341, .T. ) ;
#168 = LINE ( 'NONE', #488, #870 ) ;
#169 = VECTOR ( 'NONE', #281, 1000.000000000000000 ) ;
#170 = VECTOR ( 'NONE', #537, 1000.000000000000000 ) ;
#171 = DIRECTION ( 'NONE',  ( -0.000000000000000000, 0.000000000000000000, -1.000000000000000000 ) ) ;
#172 = CARTESIAN_POINT ( 'NONE',  ( -14.25493224171899698, -2.122941602472415479, 2.799999999999999822 ) ) ;
#173 = VECTOR ( 'NONE', #478, 1000.000000000000000 ) ;
#174 = EDGE_LOOP ( 'NONE', ( #432, #119, #627, #266 ) ) ;
#175 = EDGE_CURVE ( 'NONE', #194, #777, #593, .T. ) ;
#176 = EDGE_CURVE ( 'NONE', #455, #274, #258, .T. ) ;
#177 = DIRECTION ( 'NONE',  ( -0.4916273249797261657, 0.8708057035488908637, 0.000000000000000000 ) ) ;
#178 = VECTOR ( 'NONE', #632, 1000.000000000000000 ) ;
#179 = DIRECTION ( 'NONE',  ( -0.4916273249797259437, -0.8708057035488909747, 0.000000000000000000 ) ) ;
#180 = ORIENTED_EDGE ( 'NONE', *, *, #669, .F. ) ;
#181 = DIRECTION ( 'NONE',  ( 0.000000000000000000, 0.000000000000000000, 1.000000000000000000 ) ) ;
#182 = ADVANCED_FACE ( 'NONE', ( #721 ), #312, .F. ) ;
#183 = CARTESIAN_POINT ( 'NONE',  ( 3.467720126287040294, -8.122941602472403488, 1.800000000000000044 ) ) ;
#184 = EDGE_LOOP ( 'NONE', ( #41, #321, #860, #406 ) ) ;
#185 = VECTOR ( 'NONE', #171, 1000.000000000000000 ) ;
#186 = DIRECTION ( 'NONE',  ( 0.000000000000000000, 0.000000000000000000, -1.000000000000000000 ) ) ;
#187 = DIRECTION ( 'NONE',  ( -0.4916273249797259992, -0.8708057035488908637, 0.000000000000000000 ) ) ;
#188 = ORIENTED_EDGE ( 'NONE', *, *, #154, .T. ) ;
#189 = CARTESIAN_POINT ( 'NONE',  ( 13.55328552369691053, -2.122941602472415479, 1.800000000000000044 ) ) ;
#190 = DIRECTION ( 'NONE',  ( -1.000000000000000000, 0.000000000000000000, 0.000000000000000000 ) ) ;
#191 = ORIENTED_EDGE ( 'NONE', *, *, #242, .T. ) ;
#192 = FACE_OUTER_BOUND ( 'NONE', #385, .T. ) ;
#193 = CARTESIAN_POINT ( 'NONE',  ( 10.55328552369692829, -5.122941602472417699, 2.799999999999999822 ) ) ;
#194 = VERTEX_POINT ( 'NONE', #379 ) ;
#195 = ORIENTED_EDGE ( 'NONE', *, *, #229, .T. ) ;
#196 = EDGE_CURVE ( 'NONE', #662, #59, #727, .T. ) ;
#197 = CARTESIAN_POINT ( 'NONE',  ( 4.386409561530370205, -8.122941602472403488, 2.799999999999999822 ) ) ;
#198 = CARTESIAN_POINT ( 'NONE',  ( -9.948846584957077965, -8.122941602472403488, 1.800000000000000044 ) ) ;
#199 = ORIENTED_EDGE ( 'NONE', *, *, #271, .F. ) ;
#200 = ORIENTED_EDGE ( 'NONE', *, *, #792, .T. ) ;
#201 = LINE ( 'NONE', #744, #287 ) ;
#202 = ADVANCED_FACE ( 'NONE', ( #246 ), #453, .F. ) ;
#203 = LINE ( 'NONE', #474, #50 ) ;
#204 = ORIENTED_EDGE ( 'NONE', *, *, #441, .F. ) ;
#205 = VECTOR ( 'NONE', #858, 1000.000000000000000 ) ;
#206 = CARTESIAN_POINT ( 'NONE',  ( 2.491341530399824311, -2.122941602472416811, 2.799999999999999822 ) ) ;
#207 = CARTESIAN_POINT ( 'NONE',  ( -9.948846584957077965, -8.122941602472403488, 1.800000000000000044 ) ) ;
#208 = ORIENTED_EDGE ( 'NONE', *, *, #832, .T. ) ;
#209 = VERTEX_POINT ( 'NONE', #509 ) ;
#210 = CARTESIAN_POINT ( 'NONE',  ( -5.585071767551271549, -8.122941602472403488, 1.800000000000000044 ) ) ;
#211 = LINE ( 'NONE', #489, #301 ) ;
#212 = EDGE_CURVE ( 'NONE', #526, #734, #657, .T. ) ;
#213 = VECTOR ( 'NONE', #412, 1000.000000000000000 ) ;
#214 = ORIENTED_EDGE ( 'NONE', *, *, #235, .T. ) ;
#215 = AXIS2_PLACEMENT_3D ( 'NONE', #659, #736, #533 ) ;
#216 = ORIENTED_EDGE ( 'NONE', *, *, #519, .F. ) ;
#217 = DIRECTION ( 'NONE',  ( 0.000000000000000000, -0.000000000000000000, 1.000000000000000000 ) ) ;
#218 = LINE ( 'NONE', #6, #169 ) ;
#219 = LINE ( 'NONE', #490, #671 ) ;
#220 = ORIENTED_EDGE ( 'NONE', *, *, #84, .T. ) ;
#221 = VECTOR ( 'NONE', #496, 1000.000000000000000 ) ;
#222 = EDGE_CURVE ( 'NONE', #548, #797, #584, .T. ) ;
#223 = CARTESIAN_POINT ( 'NONE',  ( -13.33624280647566884, -2.122941602472415035, 1.800000000000000044 ) ) ;
#224 = DIRECTION ( 'NONE',  ( 0.000000000000000000, 0.000000000000000000, 1.000000000000000000 ) ) ;
#225 = COLOUR_RGB ( '',0.7921568627450980005, 0.8196078431372548767, 0.9333333333333333481 ) ;
#226 = CARTESIAN_POINT ( 'NONE',  ( -2.840563229335015372, -2.122941602472415479, 1.800000000000000044 ) ) ;
#227 = VERTEX_POINT ( 'NONE', #53 ) ;
#228 = DIRECTION ( 'NONE',  ( 0.000000000000000000, 0.000000000000000000, 1.000000000000000000 ) ) ;
#229 = EDGE_CURVE ( 'NONE', #531, #411, #644, .T. ) ;
#230 = LINE ( 'NONE', #697, #763 ) ;
#231 = PLANE ( 'NONE',  #93 ) ;
#232 = VERTEX_POINT ( 'NONE', #112 ) ;
#233 = CARTESIAN_POINT ( 'NONE',  ( -5.585071767551271549, -8.122941602472403488, 2.799999999999999822 ) ) ;
#234 = EDGE_LOOP ( 'NONE', ( #45, #622, #481, #728 ) ) ;
#235 = EDGE_CURVE ( 'NONE', #662, #670, #458, .T. ) ;
#236 = DIRECTION ( 'NONE',  ( 1.000000000000000000, 0.000000000000000000, 0.000000000000000000 ) ) ;
#237 = CARTESIAN_POINT ( 'NONE',  ( 3.410030965643150225, -2.122941602472415479, 2.799999999999999822 ) ) ;
#238 = ORIENTED_EDGE ( 'NONE', *, *, #140, .T. ) ;
#239 = CARTESIAN_POINT ( 'NONE',  ( -9.891157424313187008, -2.122941602472415479, 1.800000000000000044 ) ) ;
#240 = DIRECTION ( 'NONE',  ( -4.336808689942027597E-16, -1.000000000000000000, 0.000000000000000000 ) ) ;
#241 = ADVANCED_FACE ( 'NONE', ( #383 ), #253, .T. ) ;
#242 = EDGE_CURVE ( 'NONE', #20, #741, #308, .T. ) ;
#243 = VERTEX_POINT ( 'NONE', #505 ) ;
#244 = DIRECTION ( 'NONE',  ( 0.000000000000000000, -1.000000000000000000, 0.000000000000000000 ) ) ;
#245 = LINE ( 'NONE', #714, #127 ) ;
#246 = FACE_OUTER_BOUND ( 'NONE', #174, .T. ) ;
#247 = VECTOR ( 'NONE', #376, 1000.000000000000227 ) ;
#248 = ORIENTED_EDGE ( 'NONE', *, *, #196, .T. ) ;
#249 = EDGE_CURVE ( 'NONE', #548, #781, #775, .T. ) ;
#250 = EDGE_CURVE ( 'NONE', #455, #283, #47, .T. ) ;
#251 = CARTESIAN_POINT ( 'NONE',  ( -13.33624280647566884, -2.122941602472415035, 1.800000000000000044 ) ) ;
#252 = VECTOR ( 'NONE', #502, 999.9999999999998863 ) ;
#253 = PLANE ( 'NONE',  #588 ) ;
#254 = ORIENTED_EDGE ( 'NONE', *, *, #107, .F. ) ;
#255 = VECTOR ( 'NONE', #579, 1000.000000000000000 ) ;
#256 = VECTOR ( 'NONE', #224, 1000.000000000000000 ) ;
#257 = CARTESIAN_POINT ( 'NONE',  ( 9.408734730734510165, -11.53814020236601579, 2.799999999999999822 ) ) ;
#258 = LINE ( 'NONE', #39, #789 ) ;
#259 = EDGE_LOOP ( 'NONE', ( #36, #3, #355, #581 ) ) ;
#260 = VECTOR ( 'NONE', #426, 1000.000000000000000 ) ;
#261 = LINE ( 'NONE', #52, #707 ) ;
#262 = CARTESIAN_POINT ( 'NONE',  ( 13.55328552369692119, -5.122941602472417699, 2.799999999999999822 ) ) ;
#263 = ORIENTED_EDGE ( 'NONE', *, *, #563, .T. ) ;
#264 = PLANE ( 'NONE',  #595 ) ;
#265 = CARTESIAN_POINT ( 'NONE',  ( 7.773805783048957530, -2.122941602472415479, 1.800000000000000044 ) ) ;
#266 = ORIENTED_EDGE ( 'NONE', *, *, #463, .T. ) ;
#267 = ADVANCED_FACE ( 'NONE', ( #589 ), #849, .F. ) ;
#268 = PLANE ( 'NONE',  #215 ) ;
#269 = CARTESIAN_POINT ( 'NONE',  ( -8.972467989069858874, -2.122941602472415479, 2.799999999999999822 ) ) ;
#270 = ORIENTED_EDGE ( 'NONE', *, *, #249, .F. ) ;
#271 = EDGE_CURVE ( 'NONE', #773, #20, #121, .T. ) ;
#272 = CARTESIAN_POINT ( 'NONE',  ( 5.756828581435940784, -8.122941602472401712, 1.800000000000000044 ) ) ;
#273 = CARTESIAN_POINT ( 'NONE',  ( 7.773805783048957530, -2.122941602472415479, 2.799999999999999822 ) ) ;
#274 = VERTEX_POINT ( 'NONE', #265 ) ;
#275 = DIRECTION ( 'NONE',  ( 0.4851195563056229232, 0.8744478349734966516, 0.000000000000000000 ) ) ;
#276 = LINE ( 'NONE', #469, #605 ) ;
#277 = ORIENTED_EDGE ( 'NONE', *, *, #405, .F. ) ;
#278 = ORIENTED_EDGE ( 'NONE', *, *, #556, .T. ) ;
#279 = CARTESIAN_POINT ( 'NONE',  ( 0.02263474412455765417, -8.122941602472403488, 2.799999999999999822 ) ) ;
#280 = VECTOR ( 'NONE', #115, 1000.000000000000000 ) ;
#281 = DIRECTION ( 'NONE',  ( 0.000000000000000000, 0.000000000000000000, 1.000000000000000000 ) ) ;
#282 = ORIENTED_EDGE ( 'NONE', *, *, #655, .F. ) ;
#283 = VERTEX_POINT ( 'NONE', #70 ) ;
#284 = LINE ( 'NONE', #295, #553 ) ;
#285 = ORIENTED_EDGE ( 'NONE', *, *, #378, .T. ) ;
#286 = EDGE_CURVE ( 'NONE', #54, #670, #334, .T. ) ;
#287 = VECTOR ( 'NONE', #134, 1000.000000000000000 ) ;
#288 = EDGE_LOOP ( 'NONE', ( #466, #850, #568, #700 ) ) ;
#289 =( NAMED_UNIT ( * ) SI_UNIT ( $, .STERADIAN. ) SOLID_ANGLE_UNIT ( ) );
#290 = CARTESIAN_POINT ( 'NONE',  ( 10.55328552369692829, -5.122941602472417699, 0.000000000000000000 ) ) ;
#291 = ORIENTED_EDGE ( 'NONE', *, *, #862, .F. ) ;
#292 = VECTOR ( 'NONE', #296, 1000.000000000000000 ) ;
#293 = EDGE_CURVE ( 'NONE', #569, #344, #77, .T. ) ;
#294 = DIRECTION ( 'NONE',  ( 0.000000000000000000, 0.000000000000000000, 1.000000000000000000 ) ) ;
#295 = CARTESIAN_POINT ( 'NONE',  ( -14.25493224171899698, -2.122941602472415479, 2.799999999999999822 ) ) ;
#296 = DIRECTION ( 'NONE',  ( 1.000000000000000000, 0.000000000000000000, 0.000000000000000000 ) ) ;
#297 = ORIENTED_EDGE ( 'NONE', *, *, #111, .T. ) ;
#298 = ADVANCED_FACE ( 'NONE', ( #668 ), #814, .F. ) ;
#299 = CARTESIAN_POINT ( 'NONE',  ( -9.948846584957077965, -8.122941602472403488, 1.800000000000000044 ) ) ;
#300 = DIRECTION ( 'NONE',  ( -1.000000000000000000, -8.347860589179127138E-16, 0.000000000000000000 ) ) ;
#301 = VECTOR ( 'NONE', #685, 1000.000000000000000 ) ;
#302 = ORIENTED_EDGE ( 'NONE', *, *, #580, .F. ) ;
#303 = CARTESIAN_POINT ( 'NONE',  ( -6.503761202794595242, -8.122941602472410594, 1.800000000000000044 ) ) ;
#304 = LINE ( 'NONE', #435, #518 ) ;
#305 = ORIENTED_EDGE ( 'NONE', *, *, #222, .F. ) ;
#306 = EDGE_CURVE ( 'NONE', #614, #462, #203, .T. ) ;
#307 = CARTESIAN_POINT ( 'NONE',  ( 3.467720126287040738, -8.122941602472401712, 1.799999999999999600 ) ) ;
#308 = LINE ( 'NONE', #724, #746 ) ;
#309 = ORIENTED_EDGE ( 'NONE', *, *, #813, .F. ) ;
#310 = CARTESIAN_POINT ( 'NONE',  ( 0.000000000000000000, -4.245883204944830958, 1.800000000000000044 ) ) ;
#311 = DIRECTION ( 'NONE',  ( -1.000000000000000000, -8.347860589179127138E-16, 0.000000000000000000 ) ) ;
#312 = PLANE ( 'NONE',  #407 ) ;
#313 = ORIENTED_EDGE ( 'NONE', *, *, #425, .F. ) ;
#314 = ADVANCED_FACE ( 'NONE', ( #465 ), #673, .F. ) ;
#315 = FACE_OUTER_BOUND ( 'NONE', #815, .T. ) ;
#316 = DIRECTION ( 'NONE',  ( -0.4916273249797259437, -0.8708057035488909747, 0.000000000000000000 ) ) ;
#317 = ORIENTED_EDGE ( 'NONE', *, *, #540, .T. ) ;
#318 = PRODUCT_DEFINITION_SHAPE ( 'NONE', 'NONE',  #583 ) ;
#319 = CARTESIAN_POINT ( 'NONE',  ( 0.000000000000000000, -4.245883204944830958, 1.800000000000000044 ) ) ;
#320 = CARTESIAN_POINT ( 'NONE',  ( 4.386409561530370205, -8.122941602472403488, 1.800000000000000044 ) ) ;
#321 = ORIENTED_EDGE ( 'NONE', *, *, #647, .F. ) ;
#322 = VECTOR ( 'NONE', #35, 1000.000000000000000 ) ;
#323 = DIRECTION ( 'NONE',  ( -0.000000000000000000, 0.000000000000000000, -1.000000000000000000 ) ) ;
#324 = DIRECTION ( 'NONE',  ( 0.000000000000000000, 0.000000000000000000, 1.000000000000000000 ) ) ;
#325 = VERTEX_POINT ( 'NONE', #882 ) ;
#326 = VECTOR ( 'NONE', #181, 1000.000000000000000 ) ;
#327 = DIRECTION ( 'NONE',  ( -0.4916273249797257217, 0.8708057035488910858, -0.000000000000000000 ) ) ;
#328 = FILL_AREA_STYLE_COLOUR ( '', #225 ) ;
#329 = ORIENTED_EDGE ( 'NONE', *, *, #40, .T. ) ;
#330 = VECTOR ( 'NONE', #294, 1000.000000000000000 ) ;
#331 = CARTESIAN_POINT ( 'NONE',  ( -0.8960546911187641239, -8.122941602472403488, 2.799999999999999822 ) ) ;
#332 = ADVANCED_FACE ( 'NONE', ( #730 ), #803, .F. ) ;
#333 = CLOSED_SHELL ( 'NONE', ( #267, #55, #562, #241, #625, #360, #298, #856, #599, #694, #558, #711, #19, #880, #332, #314, #182, #65, #420, #202, #491, #806, #137, #147, #512, #713, #674 ) ) ;
#334 = LINE ( 'NONE', #343, #476 ) ;
#335 = EDGE_CURVE ( 'NONE', #411, #609, #809, .T. ) ;
#336 = ORIENTED_EDGE ( 'NONE', *, *, #832, .F. ) ;
#337 = VECTOR ( 'NONE', #878, 1000.000000000000000 ) ;
#338 = PLANE ( 'NONE',  #101 ) ;
#339 = CARTESIAN_POINT ( 'NONE',  ( -10.86753602020040077, -8.122941602472414147, 2.799999999999999822 ) ) ;
#340 = EDGE_LOOP ( 'NONE', ( #436, #459, #517, #497 ) ) ;
#341 = EDGE_CURVE ( 'NONE', #531, #741, #1, .T. ) ;
#342 = PLANE ( 'NONE',  #828 ) ;
#343 = CARTESIAN_POINT ( 'NONE',  ( 5.756828581435939896, -8.122941602472399936, 2.799999999999999822 ) ) ;
#344 = VERTEX_POINT ( 'NONE', #603 ) ;
#345 = CARTESIAN_POINT ( 'NONE',  ( 3.467720126287040294, -8.122941602472403488, 1.800000000000000044 ) ) ;
#346 = LINE ( 'NONE', #262, #408 ) ;
#347 = ORIENTED_EDGE ( 'NONE', *, *, #396, .F. ) ;
#348 = DIRECTION ( 'NONE',  ( 0.8708057035488908637, 0.4916273249797263323, 0.000000000000000000 ) ) ;
#349 = LINE ( 'NONE', #23, #748 ) ;
#350 = DIRECTION ( 'NONE',  ( -1.000000000000000000, -8.347860589179127138E-16, 0.000000000000000000 ) ) ;
#351 = EDGE_LOOP ( 'NONE', ( #499, #492, #291, #800 ) ) ;
#352 = LINE ( 'NONE', #623, #326 ) ;
#353 = EDGE_CURVE ( 'NONE', #658, #243, #276, .T. ) ;
#354 = DIRECTION ( 'NONE',  ( 1.000000000000000000, 0.000000000000000000, 0.000000000000000000 ) ) ;
#355 = ORIENTED_EDGE ( 'NONE', *, *, #813, .T. ) ;
#356 = VECTOR ( 'NONE', #177, 1000.000000000000000 ) ;
#357 = VECTOR ( 'NONE', #507, 1000.000000000000227 ) ;
#358 = DIRECTION ( 'NONE',  ( 0.4916273249797263878, 0.8708057035488907527, 0.000000000000000000 ) ) ;
#359 = DIRECTION ( 'NONE',  ( 0.4916273249797263878, 0.8708057035488907527, 0.000000000000000000 ) ) ;
#360 = ADVANCED_FACE ( 'NONE', ( #819 ), #394, .T. ) ;
#361 = ORIENTED_EDGE ( 'NONE', *, *, #250, .F. ) ;
#362 = CARTESIAN_POINT ( 'NONE',  ( 10.55328552369692829, -5.122941602472417699, 0.000000000000000000 ) ) ;
#363 = STYLED_ITEM ( 'NONE', ( #835 ), #386 ) ;
#364 = CARTESIAN_POINT ( 'NONE',  ( -3.640563229335020967, -8.122941602472403488, 1.800000000000000044 ) ) ;
#365 = VERTEX_POINT ( 'NONE', #273 ) ;
#366 = CARTESIAN_POINT ( 'NONE',  ( -2.840563229335015372, -2.122941602472415479, 2.799999999999999822 ) ) ;
#367 = PLANE ( 'NONE',  #586 ) ;
#368 = CIRCLE ( 'NONE', #867, 4.999999999999999112 ) ;
#369 = EDGE_LOOP ( 'NONE', ( #439, #855, #277, #665 ) ) ;
#370 = EDGE_CURVE ( 'NONE', #638, #109, #751, .T. ) ;
#371 = AXIS2_PLACEMENT_3D ( 'NONE', #257, #524, #437 ) ;
#372 = DIRECTION ( 'NONE',  ( -0.000000000000000000, 0.000000000000000000, -1.000000000000000000 ) ) ;
#373 = AXIS2_PLACEMENT_3D ( 'NONE', #684, #348, #10 ) ;
#374 = DIRECTION ( 'NONE',  ( 1.000000000000000000, -4.336808689942027597E-16, 0.000000000000000000 ) ) ;
#375 = VERTEX_POINT ( 'NONE', #269 ) ;
#376 = DIRECTION ( 'NONE',  ( -0.4916273249797259992, -0.8708057035488908637, 0.000000000000000000 ) ) ;
#377 = CARTESIAN_POINT ( 'NONE',  ( 13.55328552369691053, -8.122941602472399936, 1.800000000000000044 ) ) ;
#378 = EDGE_CURVE ( 'NONE', #194, #375, #617, .T. ) ;
#379 = CARTESIAN_POINT ( 'NONE',  ( -8.972467989069858874, -2.122941602472415479, 1.800000000000000044 ) ) ;
#380 = AXIS2_PLACEMENT_3D ( 'NONE', #498, #161, #434 ) ;
#381 = ORIENTED_EDGE ( 'NONE', *, *, #124, .T. ) ;
#382 = LINE ( 'NONE', #42, #626 ) ;
#383 = FACE_OUTER_BOUND ( 'NONE', #722, .T. ) ;
#384 = EDGE_CURVE ( 'NONE', #615, #633, #346, .T. ) ;
#385 = EDGE_LOOP ( 'NONE', ( #71, #104, #392, #451, #29, #759, #278 ) ) ;
#386 = MANIFOLD_SOLID_BREP ( '<bottom damper>-<Cut-Extrude1>', #333 ) ;
#387 = CARTESIAN_POINT ( 'NONE',  ( -10.86753602020040077, -8.122941602472414147, 0.000000000000000000 ) ) ;
#388 = FACE_OUTER_BOUND ( 'NONE', #133, .T. ) ;
#389 = ORIENTED_EDGE ( 'NONE', *, *, #606, .F. ) ;
#390 = FACE_OUTER_BOUND ( 'NONE', #340, .T. ) ;
#391 = CARTESIAN_POINT ( 'NONE',  ( 2.491341530399824311, -2.122941602472416811, 1.800000000000000044 ) ) ;
#392 = ORIENTED_EDGE ( 'NONE', *, *, #735, .F. ) ;
#393 = DIRECTION ( 'NONE',  ( 1.000000000000000000, 0.000000000000000000, 0.000000000000000000 ) ) ;
#394 = PLANE ( 'NONE',  #450 ) ;
#395 = VERTEX_POINT ( 'NONE', #768 ) ;
#396 = EDGE_CURVE ( 'NONE', #411, #232, #664, .T. ) ;
#397 = CARTESIAN_POINT ( 'NONE',  ( 4.386409561530370205, -8.122941602472403488, 1.800000000000000044 ) ) ;
#398 = EDGE_CURVE ( 'NONE', #777, #428, #230, .T. ) ;
#399 = DIRECTION ( 'NONE',  ( 1.000000000000000000, 0.000000000000000000, 0.000000000000000000 ) ) ;
#400 = ORIENTED_EDGE ( 'NONE', *, *, #353, .F. ) ;
#401 =( GEOMETRIC_REPRESENTATION_CONTEXT ( 3 ) GLOBAL_UNCERTAINTY_ASSIGNED_CONTEXT ( ( #610 ) ) GLOBAL_UNIT_ASSIGNED_CONTEXT ( ( #564, #687, #289 ) ) REPRESENTATION_CONTEXT ( 'NONE', 'WORKASPACE' ) );
#402 = CARTESIAN_POINT ( 'NONE',  ( 2.491341530399824311, -2.122941602472416811, 1.800000000000000044 ) ) ;
#403 = VECTOR ( 'NONE', #17, 1000.000000000000000 ) ;
#404 = DIRECTION ( 'NONE',  ( -0.000000000000000000, 0.000000000000000000, -1.000000000000000000 ) ) ;
#405 = EDGE_CURVE ( 'NONE', #477, #731, #349, .T. ) ;
#406 = ORIENTED_EDGE ( 'NONE', *, *, #398, .F. ) ;
#407 = AXIS2_PLACEMENT_3D ( 'NONE', #183, #650, #187 ) ;
#408 = VECTOR ( 'NONE', #530, 1000.000000000000000 ) ;
#409 = DIRECTION ( 'NONE',  ( 0.4916273249797258327, 0.8708057035488909747, 0.000000000000000000 ) ) ;
#410 = DIRECTION ( 'NONE',  ( 0.8708057035488909747, 0.4916273249797260547, 0.000000000000000000 ) ) ;
#411 = VERTEX_POINT ( 'NONE', #94 ) ;
#412 = DIRECTION ( 'NONE',  ( -1.445602896647342368E-16, 1.000000000000000000, 0.000000000000000000 ) ) ;
#413 = VECTOR ( 'NONE', #358, 1000.000000000000000 ) ;
#414 = CARTESIAN_POINT ( 'NONE',  ( -8.972467989069858874, -2.122941602472415479, 1.800000000000000044 ) ) ;
#415 = ORIENTED_EDGE ( 'NONE', *, *, #341, .F. ) ;
#416 = EDGE_LOOP ( 'NONE', ( #309, #679, #770, #708 ) ) ;
#417 = PLANE ( 'NONE',  #373 ) ;
#418 =( NAMED_UNIT ( * ) SI_UNIT ( $, .STERADIAN. ) SOLID_ANGLE_UNIT ( ) );
#419 = LINE ( 'NONE', #162, #446 ) ;
#420 = ADVANCED_FACE ( 'NONE', ( #567 ), #495, .F. ) ;
#421 = DIRECTION ( 'NONE',  ( -1.000000000000000000, -1.445602896647342368E-16, 0.000000000000000000 ) ) ;
#422 = DIRECTION ( 'NONE',  ( 1.000000000000000000, 8.347860589179128124E-16, 0.000000000000000000 ) ) ;
#423 = ORIENTED_EDGE ( 'NONE', *, *, #776, .F. ) ;
#424 = LINE ( 'NONE', #223, #740 ) ;
#425 = EDGE_CURVE ( 'NONE', #48, #462, #550, .T. ) ;
#426 = DIRECTION ( 'NONE',  ( -1.000000000000000000, -2.230285239025120731E-16, 0.000000000000000000 ) ) ;
#427 = CARTESIAN_POINT ( 'NONE',  ( 0.02263474412455765417, -8.122941602472403488, 1.800000000000000044 ) ) ;
#428 = VERTEX_POINT ( 'NONE', #765 ) ;
#429 = PRODUCT_RELATED_PRODUCT_CATEGORY ( 'part', '', ( #51 ) ) ;
#430 = DIRECTION ( 'NONE',  ( -0.000000000000000000, 0.000000000000000000, -1.000000000000000000 ) ) ;
#431 = LINE ( 'NONE', #95, #252 ) ;
#432 = ORIENTED_EDGE ( 'NONE', *, *, #235, .F. ) ;
#433 = VECTOR ( 'NONE', #608, 1000.000000000000000 ) ;
#434 = DIRECTION ( 'NONE',  ( -1.000000000000000000, 0.000000000000000000, 0.000000000000000000 ) ) ;
#435 = CARTESIAN_POINT ( 'NONE',  ( 5.756828581435939896, -8.122941602472399936, 2.799999999999999822 ) ) ;
#436 = ORIENTED_EDGE ( 'NONE', *, *, #669, .T. ) ;
#437 = DIRECTION ( 'NONE',  ( -1.000000000000000000, 0.000000000000000000, 0.000000000000000000 ) ) ;
#438 = CARTESIAN_POINT ( 'NONE',  ( 10.55328552369692829, -5.122941602472417699, 2.799999999999999822 ) ) ;
#439 = ORIENTED_EDGE ( 'NONE', *, *, #353, .T. ) ;
#440 = DIRECTION ( 'NONE',  ( 0.000000000000000000, 0.000000000000000000, 1.000000000000000000 ) ) ;
#441 = EDGE_CURVE ( 'NONE', #325, #633, #494, .T. ) ;
#442 = VECTOR ( 'NONE', #327, 1000.000000000000000 ) ;
#443 = CARTESIAN_POINT ( 'NONE',  ( -10.86753602020040077, -8.122941602472414147, 0.000000000000000000 ) ) ;
#444 = CARTESIAN_POINT ( 'NONE',  ( -3.640563229335020967, -8.122941602472403488, 1.800000000000000044 ) ) ;
#445 = VERTEX_POINT ( 'NONE', #630 ) ;
#446 = VECTOR ( 'NONE', #690, 999.9999999999998863 ) ;
#447 = CARTESIAN_POINT ( 'NONE',  ( -2.840563229335014483, -8.122941602472403488, 2.799999999999999822 ) ) ;
#448 = EDGE_CURVE ( 'NONE', #428, #773, #827, .T. ) ;
#449 = CARTESIAN_POINT ( 'NONE',  ( -9.948846584957077965, -8.122941602472403488, 1.800000000000000044 ) ) ;
#450 = AXIS2_PLACEMENT_3D ( 'NONE', #193, #479, #399 ) ;
#451 = ORIENTED_EDGE ( 'NONE', *, *, #176, .F. ) ;
#452 = DIRECTION ( 'NONE',  ( -1.000000000000000000, -8.347860589179127138E-16, 0.000000000000000000 ) ) ;
#453 = PLANE ( 'NONE',  #163 ) ;
#454 = EDGE_CURVE ( 'NONE', #781, #227, #702, .T. ) ;
#455 = VERTEX_POINT ( 'NONE', #14 ) ;
#456 = EDGE_CURVE ( 'NONE', #445, #645, #284, .T. ) ;
#457 = DIRECTION ( 'NONE',  ( 0.8744478349734965406, -0.4851195563056229232, 0.000000000000000000 ) ) ;
#458 = LINE ( 'NONE', #661, #135 ) ;
#459 = ORIENTED_EDGE ( 'NONE', *, *, #154, .F. ) ;
#460 = LINE ( 'NONE', #197, #61 ) ;
#461 = FILL_AREA_STYLE ('',( #328 ) ) ;
#462 = VERTEX_POINT ( 'NONE', #366 ) ;
#463 = EDGE_CURVE ( 'NONE', #734, #670, #218, .T. ) ;
#464 = CARTESIAN_POINT ( 'NONE',  ( 13.55328552369691053, -8.122941602472399936, 2.799999999999999822 ) ) ;
#465 = FACE_OUTER_BOUND ( 'NONE', #351, .T. ) ;
#466 = ORIENTED_EDGE ( 'NONE', *, *, #851, .F. ) ;
#467 = LINE ( 'NONE', #73, #173 ) ;
#468 = EDGE_CURVE ( 'NONE', #781, #54, #211, .T. ) ;
#469 = CARTESIAN_POINT ( 'NONE',  ( 5.756828581435941672, -8.122941602472403488, 2.799999999999999822 ) ) ;
#470 = ORIENTED_EDGE ( 'NONE', *, *, #16, .T. ) ;
#471 = ORIENTED_EDGE ( 'NONE', *, *, #441, .T. ) ;
#472 = LINE ( 'NONE', #402, #15 ) ;
#473 = VECTOR ( 'NONE', #146, 1000.000000000000000 ) ;
#474 = CARTESIAN_POINT ( 'NONE',  ( -2.840563229335014483, -8.122941602472403488, 2.799999999999999822 ) ) ;
#475 = VERTEX_POINT ( 'NONE', #484 ) ;
#476 = VECTOR ( 'NONE', #534, 1000.000000000000000 ) ;
#477 = VERTEX_POINT ( 'NONE', #755 ) ;
#478 = DIRECTION ( 'NONE',  ( -0.4916273249797257217, 0.8708057035488910858, -0.000000000000000000 ) ) ;
#479 = DIRECTION ( 'NONE',  ( 0.000000000000000000, 0.000000000000000000, 1.000000000000000000 ) ) ;
#480 = ORIENTED_EDGE ( 'NONE', *, *, #735, .T. ) ;
#481 = ORIENTED_EDGE ( 'NONE', *, *, #91, .F. ) ;
#482 = CARTESIAN_POINT ( 'NONE',  ( 0.02263474412455765417, -8.122941602472403488, 1.800000000000000044 ) ) ;
#483 = VECTOR ( 'NONE', #457, 1000.000000000000000 ) ;
#484 = CARTESIAN_POINT ( 'NONE',  ( -3.640563229335020967, -8.122941602472403488, 2.799999999999999822 ) ) ;
#485 = VERTEX_POINT ( 'NONE', #554 ) ;
#486 = VERTEX_POINT ( 'NONE', #145 ) ;
#487 = AXIS2_PLACEMENT_3D ( 'NONE', #681, #619, #149 ) ;
#488 = CARTESIAN_POINT ( 'NONE',  ( 2.491341530399824311, -2.122941602472416811, 1.800000000000000044 ) ) ;
#489 = CARTESIAN_POINT ( 'NONE',  ( 0.02263474412455765417, -8.122941602472403488, 1.800000000000000044 ) ) ;
#490 = CARTESIAN_POINT ( 'NONE',  ( 13.55328552369691053, -8.122941602472399936, 0.000000000000000000 ) ) ;
#491 = ADVANCED_FACE ( 'NONE', ( #150 ), #85, .F. ) ;
#492 = ORIENTED_EDGE ( 'NONE', *, *, #131, .F. ) ;
#493 = EDGE_CURVE ( 'NONE', #227, #59, #352, .T. ) ;
#494 = CIRCLE ( 'NONE', #640, 2.999999999999992450 ) ;
#495 = PLANE ( 'NONE',  #380 ) ;
#496 = DIRECTION ( 'NONE',  ( 0.000000000000000000, 0.000000000000000000, 1.000000000000000000 ) ) ;
#497 = ORIENTED_EDGE ( 'NONE', *, *, #242, .F. ) ;
#498 = CARTESIAN_POINT ( 'NONE',  ( 0.000000000000000000, -4.245883204944830958, 1.799999999999999156 ) ) ;
#499 = ORIENTED_EDGE ( 'NONE', *, *, #229, .F. ) ;
#500 = ORIENTED_EDGE ( 'NONE', *, *, #556, .F. ) ;
#501 =( LENGTH_UNIT ( ) NAMED_UNIT ( * ) SI_UNIT ( .MILLI., .METRE. ) );
#502 = DIRECTION ( 'NONE',  ( 0.4916273249797263323, -0.8708057035488908637, 0.000000000000000000 ) ) ;
#503 = ORIENTED_EDGE ( 'NONE', *, *, #719, .T. ) ;
#504 = CARTESIAN_POINT ( 'NONE',  ( 5.756828581435939896, -8.122941602472399936, 2.799999999999999822 ) ) ;
#505 = CARTESIAN_POINT ( 'NONE',  ( 5.756828581435941672, -8.122941602472403488, 0.000000000000000000 ) ) ;
#506 = ORIENTED_EDGE ( 'NONE', *, *, #249, .T. ) ;
#507 = DIRECTION ( 'NONE',  ( -0.4916273249797259992, -0.8708057035488908637, 0.000000000000000000 ) ) ;
#508 = CYLINDRICAL_SURFACE ( 'NONE', #710, 2.999999999999992450 ) ;
#509 = CARTESIAN_POINT ( 'NONE',  ( 13.55328552369691053, -8.122941602472399936, 1.800000000000000044 ) ) ;
#510 = ORIENTED_EDGE ( 'NONE', *, *, #306, .T. ) ;
#511 = DIRECTION ( 'NONE',  ( 1.000000000000000000, 0.000000000000000000, 0.000000000000000000 ) ) ;
#512 = ADVANCED_FACE ( 'NONE', ( #639 ), #114, .F. ) ;
#513 = AXIS2_PLACEMENT_3D ( 'NONE', #866, #871, #409 ) ;
#514 = CARTESIAN_POINT ( 'NONE',  ( -2.840563229335014483, -8.122941602472403488, 1.800000000000000044 ) ) ;
#515 = AXIS2_PLACEMENT_3D ( 'NONE', #310, #228, #511 ) ;
#516 = DIRECTION ( 'NONE',  ( 0.8708057035488909747, -0.4916273249797259992, 0.000000000000000000 ) ) ;
#517 = ORIENTED_EDGE ( 'NONE', *, *, #107, .T. ) ;
#518 = VECTOR ( 'NONE', #300, 1000.000000000000000 ) ;
#519 = EDGE_CURVE ( 'NONE', #445, #817, #779, .T. ) ;
#520 = CARTESIAN_POINT ( 'NONE',  ( 10.55328552369692829, -5.122941602472417699, 2.799999999999999822 ) ) ;
#521 = VECTOR ( 'NONE', #613, 1000.000000000000000 ) ;
#522 = DIRECTION ( 'NONE',  ( 1.000000000000000000, 0.000000000000000000, 0.000000000000000000 ) ) ;
#523 = ORIENTED_EDGE ( 'NONE', *, *, #764, .F. ) ;
#524 = DIRECTION ( 'NONE',  ( -0.000000000000000000, 0.000000000000000000, -1.000000000000000000 ) ) ;
#525 = CARTESIAN_POINT ( 'NONE',  ( -8.972467989069858874, -2.122941602472415479, 1.800000000000000044 ) ) ;
#526 = VERTEX_POINT ( 'NONE', #844 ) ;
#527 = VECTOR ( 'NONE', #656, 1000.000000000000000 ) ;
#528 = CARTESIAN_POINT ( 'NONE',  ( -14.25493224171899698, -2.122941602472415479, 2.799999999999999822 ) ) ;
#529 = EDGE_CURVE ( 'NONE', #615, #209, #31, .T. ) ;
#530 = DIRECTION ( 'NONE',  ( -0.000000000000000000, 0.000000000000000000, -1.000000000000000000 ) ) ;
#531 = VERTEX_POINT ( 'NONE', #303 ) ;
#532 = PRODUCT_CONTEXT ( 'NONE', #846, 'mechanical' ) ;
#533 = DIRECTION ( 'NONE',  ( -1.000000000000000000, -0.000000000000000000, 0.000000000000000000 ) ) ;
#534 = DIRECTION ( 'NONE',  ( -1.000000000000000000, -8.347860589179127138E-16, 0.000000000000000000 ) ) ;
#535 = EDGE_LOOP ( 'NONE', ( #842, #810, #423, #302 ) ) ;
#536 = EDGE_CURVE ( 'NONE', #561, #817, #726, .T. ) ;
#537 = DIRECTION ( 'NONE',  ( -1.000000000000000000, -2.838573604251346187E-16, 0.000000000000000000 ) ) ;
#538 = CARTESIAN_POINT ( 'NONE',  ( -5.585071767551271549, -8.122941602472403488, 1.800000000000000044 ) ) ;
#539 = ORIENTED_EDGE ( 'NONE', *, *, #44, .F. ) ;
#540 = EDGE_CURVE ( 'NONE', #594, #614, #570, .T. ) ;
#541 = DIRECTION ( 'NONE',  ( 1.000000000000000000, 0.000000000000000000, 0.000000000000000000 ) ) ;
#542 = SURFACE_STYLE_FILL_AREA ( #461 ) ;
#543 = ORIENTED_EDGE ( 'NONE', *, *, #839, .F. ) ;
#544 = ORIENTED_EDGE ( 'NONE', *, *, #580, .T. ) ;
#545 = DIRECTION ( 'NONE',  ( 0.000000000000000000, 0.000000000000000000, 1.000000000000000000 ) ) ;
#546 = EDGE_CURVE ( 'NONE', #658, #477, #368, .T. ) ;
#547 = DIRECTION ( 'NONE',  ( -1.000000000000000000, -0.000000000000000000, 0.000000000000000000 ) ) ;
#548 = VERTEX_POINT ( 'NONE', #307 ) ;
#549 = LINE ( 'NONE', #279, #712 ) ;
#550 = LINE ( 'NONE', #155, #877 ) ;
#551 = ORIENTED_EDGE ( 'NONE', *, *, #91, .T. ) ;
#552 = CARTESIAN_POINT ( 'NONE',  ( -2.840563229335014483, -8.122941602472403488, 1.800000000000000044 ) ) ;
#553 = VECTOR ( 'NONE', #98, 1000.000000000000000 ) ;
#554 = CARTESIAN_POINT ( 'NONE',  ( 10.55328552369692829, -2.122941602472415479, 1.800000000000000044 ) ) ;
#555 = VECTOR ( 'NONE', #876, 1000.000000000000000 ) ;
#556 = EDGE_CURVE ( 'NONE', #477, #209, #648, .T. ) ;
#557 = CARTESIAN_POINT ( 'NONE',  ( 0.02263474412455765417, -8.122941602472403488, 2.799999999999999822 ) ) ;
#558 = ADVANCED_FACE ( 'NONE', ( #578 ), #785, .F. ) ;
#559 = ORIENTED_EDGE ( 'NONE', *, *, #16, .F. ) ;
#560 = ORIENTED_EDGE ( 'NONE', *, *, #384, .T. ) ;
#561 = VERTEX_POINT ( 'NONE', #443 ) ;
#562 = ADVANCED_FACE ( 'NONE', ( #652 ), #110, .T. ) ;
#563 = EDGE_CURVE ( 'NONE', #283, #797, #853, .T. ) ;
#564 =( LENGTH_UNIT ( ) NAMED_UNIT ( * ) SI_UNIT ( .MILLI., .METRE. ) );
#565 = ORIENTED_EDGE ( 'NONE', *, *, #335, .T. ) ;
#566 = ORIENTED_EDGE ( 'NONE', *, *, #536, .F. ) ;
#567 = FACE_OUTER_BOUND ( 'NONE', #691, .T. ) ;
#568 = ORIENTED_EDGE ( 'NONE', *, *, #454, .T. ) ;
#569 = VERTEX_POINT ( 'NONE', #239 ) ;
#570 = LINE ( 'NONE', #848, #527 ) ;
#571 = FACE_OUTER_BOUND ( 'NONE', #847, .T. ) ;
#572 = ORIENTED_EDGE ( 'NONE', *, *, #647, .T. ) ;
#573 = DIRECTION ( 'NONE',  ( 0.000000000000000000, -1.000000000000000000, 0.000000000000000000 ) ) ;
#574 = DIRECTION ( 'NONE',  ( 0.000000000000000000, 0.000000000000000000, 1.000000000000000000 ) ) ;
#575 = EDGE_CURVE ( 'NONE', #243, #561, #245, .T. ) ;
#576 = ORIENTED_EDGE ( 'NONE', *, *, #396, .T. ) ;
#577 = PLANE ( 'NONE',  #758 ) ;
#578 = FACE_OUTER_BOUND ( 'NONE', #369, .T. ) ;
#579 = DIRECTION ( 'NONE',  ( 1.000000000000000000, 0.000000000000000000, 0.000000000000000000 ) ) ;
#580 = EDGE_CURVE ( 'NONE', #734, #594, #102, .T. ) ;
#581 = ORIENTED_EDGE ( 'NONE', *, *, #563, .F. ) ;
#582 = DIRECTION ( 'NONE',  ( -1.000000000000000000, 0.000000000000000000, 0.000000000000000000 ) ) ;
#583 = PRODUCT_DEFINITION ( 'UNKNOWN', '', #830, #816 ) ;
#584 = LINE ( 'NONE', #166, #660 ) ;
#585 = ORIENTED_EDGE ( 'NONE', *, *, #456, .F. ) ;
#586 = AXIS2_PLACEMENT_3D ( 'NONE', #641, #32, #12 ) ;
#587 = CARTESIAN_POINT ( 'NONE',  ( 9.408734730734510165, -11.53814020236601579, 1.800000000000000044 ) ) ;
#588 = AXIS2_PLACEMENT_3D ( 'NONE', #438, #324, #522 ) ;
#589 = FACE_OUTER_BOUND ( 'NONE', #234, .T. ) ;
#590 = ORIENTED_EDGE ( 'NONE', *, *, #83, .F. ) ;
#591 = APPLICATION_PROTOCOL_DEFINITION ( 'draft international standard', 'automotive_design', 1998, #846 ) ;
#592 = DIRECTION ( 'NONE',  ( 0.000000000000000000, 0.000000000000000000, 1.000000000000000000 ) ) ;
#593 = LINE ( 'NONE', #525, #698 ) ;
#594 = VERTEX_POINT ( 'NONE', #514 ) ;
#595 = AXIS2_PLACEMENT_3D ( 'NONE', #663, #545, #802 ) ;
#596 = DIRECTION ( 'NONE',  ( 1.000000000000000000, -2.440108489573447821E-16, 0.000000000000000000 ) ) ;
#597 = VECTOR ( 'NONE', #106, 1000.000000000000000 ) ;
#598 = DIRECTION ( 'NONE',  ( 0.000000000000000000, 0.000000000000000000, 1.000000000000000000 ) ) ;
#599 = ADVANCED_FACE ( 'NONE', ( #315 ), #508, .T. ) ;
#600 = ORIENTED_EDGE ( 'NONE', *, *, #83, .T. ) ;
#601 = DIRECTION ( 'NONE',  ( 0.000000000000000000, 0.000000000000000000, 1.000000000000000000 ) ) ;
#602 = CARTESIAN_POINT ( 'NONE',  ( 6.855116347805629395, -2.122941602472415479, 1.800000000000000044 ) ) ;
#603 = CARTESIAN_POINT ( 'NONE',  ( -9.891157424313187008, -2.122941602472415479, 2.799999999999999822 ) ) ;
#604 = ORIENTED_EDGE ( 'NONE', *, *, #40, .F. ) ;
#605 = VECTOR ( 'NONE', #404, 1000.000000000000000 ) ;
#606 = EDGE_CURVE ( 'NONE', #232, #645, #165, .T. ) ;
#607 = DIRECTION ( 'NONE',  ( 0.8744478349734966516, -0.4851195563056229232, 0.000000000000000000 ) ) ;
#608 = DIRECTION ( 'NONE',  ( -0.4916273249797261657, 0.8708057035488908637, 0.000000000000000000 ) ) ;
#609 = VERTEX_POINT ( 'NONE', #251 ) ;
#610 = UNCERTAINTY_MEASURE_WITH_UNIT (LENGTH_MEASURE( 1.000000000000000082E-05 ), #564, 'distance_accuracy_value', 'NONE');
#611 = EDGE_LOOP ( 'NONE', ( #254, #752, #9, #167 ) ) ;
#612 = PLANE ( 'NONE',  #513 ) ;
#613 = DIRECTION ( 'NONE',  ( 0.000000000000000000, 0.000000000000000000, 1.000000000000000000 ) ) ;
#614 = VERTEX_POINT ( 'NONE', #447 ) ;
#615 = VERTEX_POINT ( 'NONE', #718 ) ;
#616 = LINE ( 'NONE', #105, #247 ) ;
#617 = LINE ( 'NONE', #414, #635 ) ;
#618 = ORIENTED_EDGE ( 'NONE', *, *, #776, .T. ) ;
#619 = DIRECTION ( 'NONE',  ( -0.000000000000000000, -0.000000000000000000, 1.000000000000000000 ) ) ;
#620 = EDGE_CURVE ( 'NONE', #209, #486, #382, .T. ) ;
#621 = DIRECTION ( 'NONE',  ( -0.8708057035488907527, 0.4916273249797263878, 0.000000000000000000 ) ) ;
#622 = ORIENTED_EDGE ( 'NONE', *, *, #620, .T. ) ;
#623 = CARTESIAN_POINT ( 'NONE',  ( 3.410030965643150225, -2.122941602472415479, 1.800000000000000044 ) ) ;
#624 = LINE ( 'NONE', #772, #178 ) ;
#625 = ADVANCED_FACE ( 'NONE', ( #790 ), #342, .T. ) ;
#626 = VECTOR ( 'NONE', #857, 1000.000000000000000 ) ;
#627 = ORIENTED_EDGE ( 'NONE', *, *, #212, .T. ) ;
#628 = AXIS2_PLACEMENT_3D ( 'NONE', #5, #217, #76 ) ;
#629 = DIRECTION ( 'NONE',  ( 1.000000000000000000, -1.258839247467300628E-16, 0.000000000000000000 ) ) ;
#630 = CARTESIAN_POINT ( 'NONE',  ( -14.25493224171899698, -2.122941602472415479, 2.799999999999999822 ) ) ;
#631 = VECTOR ( 'NONE', #159, 1000.000000000000000 ) ;
#632 = DIRECTION ( 'NONE',  ( -4.336808689942027104E-16, -1.000000000000000000, 0.000000000000000000 ) ) ;
#633 = VERTEX_POINT ( 'NONE', #818 ) ;
#634 = VECTOR ( 'NONE', #74, 1000.000000000000000 ) ;
#635 = VECTOR ( 'NONE', #682, 1000.000000000000000 ) ;
#636 =( NAMED_UNIT ( * ) PLANE_ANGLE_UNIT ( ) SI_UNIT ( $, .RADIAN. ) );
#637 = LINE ( 'NONE', #86, #403 ) ;
#638 = VERTEX_POINT ( 'NONE', #667 ) ;
#639 = FACE_OUTER_BOUND ( 'NONE', #184, .T. ) ;
#640 = AXIS2_PLACEMENT_3D ( 'NONE', #362, #760, #11 ) ;
#641 = CARTESIAN_POINT ( 'NONE',  ( -8.972467989069858874, -2.122941602472415479, 1.800000000000000044 ) ) ;
#642 = ORIENTED_EDGE ( 'NONE', *, *, #805, .T. ) ;
#643 = CARTESIAN_POINT ( 'NONE',  ( -9.948846584957077965, -8.122941602472403488, 2.799999999999999822 ) ) ;
#644 = LINE ( 'NONE', #449, #322 ) ;
#645 = VERTEX_POINT ( 'NONE', #63 ) ;
#646 = CARTESIAN_POINT ( 'NONE',  ( -3.640563229335018303, -2.122941602472415479, 1.800000000000000044 ) ) ;
#647 = EDGE_CURVE ( 'NONE', #773, #194, #881, .T. ) ;
#648 = LINE ( 'NONE', #705, #483 ) ;
#649 = EDGE_CURVE ( 'NONE', #48, #526, #472, .T. ) ;
#650 = DIRECTION ( 'NONE',  ( 0.8708057035488909747, -0.4916273249797260547, 0.000000000000000000 ) ) ;
#651 = ORIENTED_EDGE ( 'NONE', *, *, #720, .T. ) ;
#652 = FACE_OUTER_BOUND ( 'NONE', #87, .T. ) ;
#653 = LINE ( 'NONE', #854, #743 ) ;
#654 = EDGE_LOOP ( 'NONE', ( #767, #747, #618, #148 ) ) ;
#655 = EDGE_CURVE ( 'NONE', #283, #365, #460, .T. ) ;
#656 = DIRECTION ( 'NONE',  ( 0.000000000000000000, 0.000000000000000000, 1.000000000000000000 ) ) ;
#657 = LINE ( 'NONE', #780, #861 ) ;
#658 = VERTEX_POINT ( 'NONE', #272 ) ;
#659 = CARTESIAN_POINT ( 'NONE',  ( 0.000000000000000000, -4.245883204944830958, 1.800000000000000044 ) ) ;
#660 = VECTOR ( 'NONE', #108, 1000.000000000000000 ) ;
#661 = CARTESIAN_POINT ( 'NONE',  ( 2.491341530399824311, -2.122941602472416811, 2.799999999999999822 ) ) ;
#662 = VERTEX_POINT ( 'NONE', #206 ) ;
#663 = CARTESIAN_POINT ( 'NONE',  ( 10.55328552369692829, -5.122941602472417699, 2.799999999999999822 ) ) ;
#664 = LINE ( 'NONE', #299, #256 ) ;
#665 = ORIENTED_EDGE ( 'NONE', *, *, #546, .F. ) ;
#666 = AXIS2_PLACEMENT_3D ( 'NONE', #319, #795, #723 ) ;
#667 = CARTESIAN_POINT ( 'NONE',  ( 6.855116347805629395, -2.122941602472415479, 1.800000000000000044 ) ) ;
#668 = FACE_OUTER_BOUND ( 'NONE', #788, .T. ) ;
#669 = EDGE_CURVE ( 'NONE', #20, #375, #467, .T. ) ;
#670 = VERTEX_POINT ( 'NONE', #331 ) ;
#671 = VECTOR ( 'NONE', #761, 1000.000000000000114 ) ;
#672 = CARTESIAN_POINT ( 'NONE',  ( -10.86753602020040077, -8.122941602472414147, 2.799999999999999822 ) ) ;
#673 = PLANE ( 'NONE',  #701 ) ;
#674 = ADVANCED_FACE ( 'NONE', ( #808 ), #612, .F. ) ;
#675 = VECTOR ( 'NONE', #574, 1000.000000000000000 ) ;
#676 = ORIENTED_EDGE ( 'NONE', *, *, #688, .T. ) ;
#677 = CARTESIAN_POINT ( 'NONE',  ( 10.55328552369692829, -5.122941602472417699, 2.799999999999999822 ) ) ;
#678 = DIRECTION ( 'NONE',  ( -0.4916273249797261657, 0.8708057035488907527, 0.000000000000000000 ) ) ;
#679 = ORIENTED_EDGE ( 'NONE', *, *, #370, .F. ) ;
#680 = VECTOR ( 'NONE', #863, 999.9999999999998863 ) ;
#681 = CARTESIAN_POINT ( 'NONE',  ( 10.55328552369692829, -5.122941602472417699, 1.800000000000000044 ) ) ;
#682 = DIRECTION ( 'NONE',  ( 0.000000000000000000, 0.000000000000000000, 1.000000000000000000 ) ) ;
#683 = ORIENTED_EDGE ( 'NONE', *, *, #72, .T. ) ;
#684 = CARTESIAN_POINT ( 'NONE',  ( -6.503761202794595242, -8.122941602472401712, 1.800000000000000044 ) ) ;
#685 = DIRECTION ( 'NONE',  ( 0.000000000000000000, 0.000000000000000000, 1.000000000000000000 ) ) ;
#686 = CARTESIAN_POINT ( 'NONE',  ( 6.855116347805629395, -2.122941602472415479, 2.799999999999999822 ) ) ;
#687 =( NAMED_UNIT ( * ) PLANE_ANGLE_UNIT ( ) SI_UNIT ( $, .RADIAN. ) );
#688 = EDGE_CURVE ( 'NONE', #227, #638, #884, .T. ) ;
#689 = DIRECTION ( 'NONE',  ( -1.445602896647342368E-16, 1.000000000000000000, 0.000000000000000000 ) ) ;
#690 = DIRECTION ( 'NONE',  ( 0.4916273249797263323, -0.8708057035488908637, 0.000000000000000000 ) ) ;
#691 = EDGE_LOOP ( 'NONE', ( #543, #879, #116, #270 ) ) ;
#692 = LINE ( 'NONE', #153, #330 ) ;
#693 = CARTESIAN_POINT ( 'NONE',  ( -5.585071767551271549, -8.122941602472403488, 1.800000000000000044 ) ) ;
#694 = ADVANCED_FACE ( 'NONE', ( #750 ), #338, .F. ) ;
#695 = LINE ( 'NONE', #845, #221 ) ;
#696 = EDGE_LOOP ( 'NONE', ( #138, #585, #336, #843 ) ) ;
#697 = CARTESIAN_POINT ( 'NONE',  ( -3.640563229335020967, -8.122941602472403488, 1.800000000000000044 ) ) ;
#698 = VECTOR ( 'NONE', #715, 1000.000000000000000 ) ;
#699 = DIRECTION ( 'NONE',  ( -8.347860589179128124E-16, 1.000000000000000000, 0.000000000000000000 ) ) ;
#700 = ORIENTED_EDGE ( 'NONE', *, *, #493, .T. ) ;
#701 = AXIS2_PLACEMENT_3D ( 'NONE', #733, #64, #547 ) ;
#702 = LINE ( 'NONE', #89, #413 ) ;
#703 = PLANE ( 'NONE',  #834 ) ;
#704 = ORIENTED_EDGE ( 'NONE', *, *, #872, .T. ) ;
#705 = CARTESIAN_POINT ( 'NONE',  ( 13.55328552369691053, -8.122941602472399936, 1.800000000000000044 ) ) ;
#706 = LINE ( 'NONE', #172, #205 ) ;
#707 = VECTOR ( 'NONE', #323, 1000.000000000000000 ) ;
#708 = ORIENTED_EDGE ( 'NONE', *, *, #222, .T. ) ;
#709 = PLANE ( 'NONE',  #515 ) ;
#710 = AXIS2_PLACEMENT_3D ( 'NONE', #520, #372, #582 ) ;
#711 = ADVANCED_FACE ( 'NONE', ( #390 ), #264, .T. ) ;
#712 = VECTOR ( 'NONE', #37, 1000.000000000000000 ) ;
#713 = ADVANCED_FACE ( 'NONE', ( #192 ), #268, .F. ) ;
#714 = CARTESIAN_POINT ( 'NONE',  ( 5.756828581435939896, -8.122941602472399936, 0.000000000000000000 ) ) ;
#715 = DIRECTION ( 'NONE',  ( 1.000000000000000000, 0.000000000000000000, 0.000000000000000000 ) ) ;
#716 = ORIENTED_EDGE ( 'NONE', *, *, #140, .F. ) ;
#717 = APPLICATION_PROTOCOL_DEFINITION ( 'draft international standard', 'automotive_design', 1998, #8 ) ;
#718 = CARTESIAN_POINT ( 'NONE',  ( 13.55328552369691053, -5.122941602472417699, 1.800000000000000044 ) ) ;
#719 = EDGE_CURVE ( 'NONE', #742, #561, #261, .T. ) ;
#720 = EDGE_CURVE ( 'NONE', #109, #365, #732, .T. ) ;
#721 = FACE_OUTER_BOUND ( 'NONE', #416, .T. ) ;
#722 = EDGE_LOOP ( 'NONE', ( #214, #164, #2, #113 ) ) ;
#723 = DIRECTION ( 'NONE',  ( -1.000000000000000000, -0.000000000000000000, 0.000000000000000000 ) ) ;
#724 = CARTESIAN_POINT ( 'NONE',  ( 5.756828581435939896, -8.122941602472399936, 2.799999999999999822 ) ) ;
#725 = ORIENTED_EDGE ( 'NONE', *, *, #378, .F. ) ;
#726 = LINE ( 'NONE', #387, #680 ) ;
#727 = LINE ( 'NONE', #118, #255 ) ;
#728 = ORIENTED_EDGE ( 'NONE', *, *, #384, .F. ) ;
#729 = DIRECTION ( 'NONE',  ( 0.4916273249797258327, 0.8708057035488910858, 0.000000000000000000 ) ) ;
#730 = FACE_OUTER_BOUND ( 'NONE', #160, .T. ) ;
#731 = VERTEX_POINT ( 'NONE', #798 ) ;
#732 = LINE ( 'NONE', #528, #58 ) ;
#733 = CARTESIAN_POINT ( 'NONE',  ( 0.000000000000000000, -4.245883204944830958, 1.800000000000000044 ) ) ;
#734 = VERTEX_POINT ( 'NONE', #123 ) ;
#735 = EDGE_CURVE ( 'NONE', #274, #485, #68, .T. ) ;
#736 = DIRECTION ( 'NONE',  ( -0.000000000000000000, 0.000000000000000000, -1.000000000000000000 ) ) ;
#737 = EDGE_CURVE ( 'NONE', #658, #455, #812, .T. ) ;
#738 = AXIS2_PLACEMENT_3D ( 'NONE', #38, #117, #236 ) ;
#739 = SURFACE_SIDE_STYLE ('',( #542 ) ) ;
#740 = VECTOR ( 'NONE', #629, 1000.000000000000000 ) ;
#741 = VERTEX_POINT ( 'NONE', #129 ) ;
#742 = VERTEX_POINT ( 'NONE', #672 ) ;
#743 = VECTOR ( 'NONE', #103, 1000.000000000000000 ) ;
#744 = CARTESIAN_POINT ( 'NONE',  ( 10.55328552369692829, -2.122941602472415479, 2.799999999999999822 ) ) ;
#745 = DIRECTION ( 'NONE',  ( -1.445602896647342368E-16, 1.000000000000000000, 0.000000000000000000 ) ) ;
#746 = VECTOR ( 'NONE', #868, 1000.000000000000000 ) ;
#747 = ORIENTED_EDGE ( 'NONE', *, *, #540, .F. ) ;
#748 = VECTOR ( 'NONE', #430, 1000.000000000000000 ) ;
#749 = ORIENTED_EDGE ( 'NONE', *, *, #398, .T. ) ;
#750 = FACE_OUTER_BOUND ( 'NONE', #67, .T. ) ;
#751 = LINE ( 'NONE', #142, #337 ) ;
#752 = ORIENTED_EDGE ( 'NONE', *, *, #293, .F. ) ;
#753 = VECTOR ( 'NONE', #573, 1000.000000000000000 ) ;
#754 = CARTESIAN_POINT ( 'NONE',  ( -14.25493224171899698, -2.122941602472415479, 0.000000000000000000 ) ) ;
#755 = CARTESIAN_POINT ( 'NONE',  ( 11.98392510528478638, -7.252303698855461001, 1.800000000000000044 ) ) ;
#756 = VECTOR ( 'NONE', #311, 1000.000000000000000 ) ;
#757 = FACE_OUTER_BOUND ( 'NONE', #288, .T. ) ;
#758 = AXIS2_PLACEMENT_3D ( 'NONE', #79, #244, #852 ) ;
#759 = ORIENTED_EDGE ( 'NONE', *, *, #546, .T. ) ;
#760 = DIRECTION ( 'NONE',  ( -0.000000000000000000, -0.000000000000000000, -1.000000000000000000 ) ) ;
#761 = DIRECTION ( 'NONE',  ( -0.8744478349734966516, 0.4851195563056228677, 0.000000000000000000 ) ) ;
#762 = ORIENTED_EDGE ( 'NONE', *, *, #176, .T. ) ;
#763 = VECTOR ( 'NONE', #771, 1000.000000000000000 ) ;
#764 = EDGE_CURVE ( 'NONE', #485, #325, #201, .T. ) ;
#765 = CARTESIAN_POINT ( 'NONE',  ( -3.640563229335017414, -8.122941602472407041, 1.800000000000000044 ) ) ;
#766 = FACE_OUTER_BOUND ( 'NONE', #78, .T. ) ;
#767 = ORIENTED_EDGE ( 'NONE', *, *, #306, .F. ) ;
#768 = CARTESIAN_POINT ( 'NONE',  ( -3.640563229335018303, -2.122941602472415479, 2.799999999999999822 ) ) ;
#769 = CARTESIAN_POINT ( 'NONE',  ( 13.55328552369691053, -5.122941602472417699, 0.000000000000000000 ) ) ;
#770 = ORIENTED_EDGE ( 'NONE', *, *, #839, .T. ) ;
#771 = DIRECTION ( 'NONE',  ( -4.336808689942027104E-16, -1.000000000000000000, 0.000000000000000000 ) ) ;
#772 = CARTESIAN_POINT ( 'NONE',  ( -3.640563229335020967, -8.122941602472403488, 2.799999999999999822 ) ) ;
#773 = VERTEX_POINT ( 'NONE', #210 ) ;
#774 = CARTESIAN_POINT ( 'NONE',  ( -0.8960546911187641239, -8.122941602472403488, 1.800000000000000044 ) ) ;
#775 = LINE ( 'NONE', #793, #280 ) ;
#776 = EDGE_CURVE ( 'NONE', #594, #48, #141, .T. ) ;
#777 = VERTEX_POINT ( 'NONE', #646 ) ;
#778 = FACE_OUTER_BOUND ( 'NONE', #535, .T. ) ;
#779 = LINE ( 'NONE', #34, #185 ) ;
#780 = CARTESIAN_POINT ( 'NONE',  ( 2.491341530399824311, -2.122941602472416811, 1.800000000000000044 ) ) ;
#781 = VERTEX_POINT ( 'NONE', #482 ) ;
#782 = CARTESIAN_POINT ( 'NONE',  ( 0.000000000000000000, 0.000000000000000000, 0.000000000000000000 ) ) ;
#783 = VECTOR ( 'NONE', #21, 999.9999999999998863 ) ;
#784 = EDGE_CURVE ( 'NONE', #615, #485, #18, .T. ) ;
#785 = CYLINDRICAL_SURFACE ( 'NONE', #371, 4.999999999999999112 ) ;
#786 = DIRECTION ( 'NONE',  ( -0.4916273249797259437, -0.8708057035488908637, 0.000000000000000000 ) ) ;
#787 = VECTOR ( 'NONE', #350, 1000.000000000000000 ) ;
#788 = EDGE_LOOP ( 'NONE', ( #566, #100, #208, #7 ) ) ;
#789 = VECTOR ( 'NONE', #796, 1000.000000000000000 ) ;
#790 = FACE_OUTER_BOUND ( 'NONE', #259, .T. ) ;
#791 = VECTOR ( 'NONE', #598, 1000.000000000000000 ) ;
#792 = EDGE_CURVE ( 'NONE', #731, #243, #128, .T. ) ;
#793 = CARTESIAN_POINT ( 'NONE',  ( 3.467720126287040294, -8.122941602472403488, 1.800000000000000044 ) ) ;
#794 = ORIENTED_EDGE ( 'NONE', *, *, #124, .F. ) ;
#795 = DIRECTION ( 'NONE',  ( -0.000000000000000000, 0.000000000000000000, -1.000000000000000000 ) ) ;
#796 = DIRECTION ( 'NONE',  ( 0.4916273249797258327, 0.8708057035488910858, 0.000000000000000000 ) ) ;
#797 = VERTEX_POINT ( 'NONE', #88 ) ;
#798 = CARTESIAN_POINT ( 'NONE',  ( 11.98392510528478638, -7.252303698855461001, 0.000000000000000000 ) ) ;
#799 = CARTESIAN_POINT ( 'NONE',  ( -9.891157424313187008, -2.122941602472415479, 1.800000000000000044 ) ) ;
#800 = ORIENTED_EDGE ( 'NONE', *, *, #335, .F. ) ;
#801 = DIRECTION ( 'NONE',  ( 1.000000000000000000, 0.000000000000000000, 0.000000000000000000 ) ) ;
#802 = DIRECTION ( 'NONE',  ( 1.000000000000000000, 0.000000000000000000, 0.000000000000000000 ) ) ;
#803 = PLANE ( 'NONE',  #820 ) ;
#804 = ORIENTED_EDGE ( 'NONE', *, *, #649, .T. ) ;
#805 = EDGE_CURVE ( 'NONE', #274, #365, #692, .T. ) ;
#806 = ADVANCED_FACE ( 'NONE', ( #778 ), #709, .T. ) ;
#807 = ORIENTED_EDGE ( 'NONE', *, *, #271, .T. ) ;
#808 = FACE_OUTER_BOUND ( 'NONE', #874, .T. ) ;
#809 = LINE ( 'NONE', #207, #433 ) ;
#810 = ORIENTED_EDGE ( 'NONE', *, *, #649, .F. ) ;
#811 = EDGE_LOOP ( 'NONE', ( #180, #199, #572, #285 ) ) ;
#812 = LINE ( 'NONE', #397, #170 ) ;
#813 = EDGE_CURVE ( 'NONE', #109, #797, #616, .T. ) ;
#814 = PLANE ( 'NONE',  #96 ) ;
#815 = EDGE_LOOP ( 'NONE', ( #560, #204, #523, #92 ) ) ;
#816 = PRODUCT_DEFINITION_CONTEXT ( 'detailed design', #8, 'design' ) ;
#817 = VERTEX_POINT ( 'NONE', #754 ) ;
#818 = CARTESIAN_POINT ( 'NONE',  ( 13.55328552369692119, -5.122941602472417699, 0.000000000000000000 ) ) ;
#819 = FACE_OUTER_BOUND ( 'NONE', #696, .T. ) ;
#820 = AXIS2_PLACEMENT_3D ( 'NONE', #198, #136, #678 ) ;
#821 = ORIENTED_EDGE ( 'NONE', *, *, #468, .T. ) ;
#822 = FACE_OUTER_BOUND ( 'NONE', #611, .T. ) ;
#823 = ORIENTED_EDGE ( 'NONE', *, *, #862, .T. ) ;
#824 = ORIENTED_EDGE ( 'NONE', *, *, #175, .T. ) ;
#825 = AXIS2_PLACEMENT_3D ( 'NONE', #80, #421, #689 ) ;
#826 = CARTESIAN_POINT ( 'NONE',  ( -10.86753602020040077, -8.122941602472414147, 2.799999999999999822 ) ) ;
#827 = LINE ( 'NONE', #693, #260 ) ;
#828 = AXIS2_PLACEMENT_3D ( 'NONE', #677, #592, #56 ) ;
#829 = LINE ( 'NONE', #836, #787 ) ;
#830 = PRODUCT_DEFINITION_FORMATION_WITH_SPECIFIED_SOURCE ( 'ANY', '', #51, .NOT_KNOWN. ) ;
#831 = ORIENTED_EDGE ( 'NONE', *, *, #456, .T. ) ;
#832 = EDGE_CURVE ( 'NONE', #742, #445, #144, .T. ) ;
#833 = FACE_OUTER_BOUND ( 'NONE', #132, .T. ) ;
#834 = AXIS2_PLACEMENT_3D ( 'NONE', #427, #621, #359 ) ;
#835 = PRESENTATION_STYLE_ASSIGNMENT (( #130 ) ) ;
#836 = CARTESIAN_POINT ( 'NONE',  ( 5.756828581435939896, -8.122941602472399936, 2.799999999999999822 ) ) ;
#837 = ORIENTED_EDGE ( 'NONE', *, *, #805, .F. ) ;
#838 = PRESENTATION_LAYER_ASSIGNMENT (  '', '', ( #363 ) ) ;
#839 = EDGE_CURVE ( 'NONE', #638, #548, #82, .T. ) ;
#840 = LINE ( 'NONE', #364, #473 ) ;
#841 = ORIENTED_EDGE ( 'NONE', *, *, #536, .T. ) ;
#842 = ORIENTED_EDGE ( 'NONE', *, *, #212, .F. ) ;
#843 = ORIENTED_EDGE ( 'NONE', *, *, #111, .F. ) ;
#844 = CARTESIAN_POINT ( 'NONE',  ( 2.491341530399824311, -2.122941602472416811, 1.800000000000000044 ) ) ;
#845 = CARTESIAN_POINT ( 'NONE',  ( -13.33624280647566884, -2.122941602472415035, 1.800000000000000044 ) ) ;
#846 = APPLICATION_CONTEXT ( 'automotive_design' ) ;
#847 = EDGE_LOOP ( 'NONE', ( #841, #381, #471, #551, #600, #200, #157 ) ) ;
#848 = CARTESIAN_POINT ( 'NONE',  ( -2.840563229335014483, -8.122941602472403488, 1.800000000000000044 ) ) ;
#849 = PLANE ( 'NONE',  #25 ) ;
#850 = ORIENTED_EDGE ( 'NONE', *, *, #468, .F. ) ;
#851 = EDGE_CURVE ( 'NONE', #54, #59, #549, .T. ) ;
#852 = DIRECTION ( 'NONE',  ( 0.000000000000000000, 0.000000000000000000, 1.000000000000000000 ) ) ;
#853 = LINE ( 'NONE', #504, #756 ) ;
#854 = CARTESIAN_POINT ( 'NONE',  ( -3.640563229335018303, -2.122941602472415479, 1.800000000000000044 ) ) ;
#855 = ORIENTED_EDGE ( 'NONE', *, *, #792, .F. ) ;
#856 = ADVANCED_FACE ( 'NONE', ( #833 ), #577, .F. ) ;
#857 = DIRECTION ( 'NONE',  ( -0.000000000000000000, 0.000000000000000000, -1.000000000000000000 ) ) ;
#858 = DIRECTION ( 'NONE',  ( 1.000000000000000000, 0.000000000000000000, 0.000000000000000000 ) ) ;
#859 = AXIS2_PLACEMENT_3D ( 'NONE', #444, #374, #240 ) ;
#860 = ORIENTED_EDGE ( 'NONE', *, *, #448, .F. ) ;
#861 = VECTOR ( 'NONE', #316, 1000.000000000000000 ) ;
#862 = EDGE_CURVE ( 'NONE', #609, #569, #424, .T. ) ;
#863 = DIRECTION ( 'NONE',  ( -0.4916273249797261102, 0.8708057035488909747, 0.000000000000000000 ) ) ;
#864 = CARTESIAN_POINT ( 'NONE',  ( 13.55328552369691053, -5.122941602472417699, 2.799999999999999822 ) ) ;
#865 = ORIENTED_EDGE ( 'NONE', *, *, #286, .T. ) ;
#866 = CARTESIAN_POINT ( 'NONE',  ( 4.386409561530370205, -8.122941602472403488, 1.800000000000000044 ) ) ;
#867 = AXIS2_PLACEMENT_3D ( 'NONE', #587, #186, #46 ) ;
#868 = DIRECTION ( 'NONE',  ( -1.000000000000000000, -8.347860589179127138E-16, 0.000000000000000000 ) ) ;
#869 = ORIENTED_EDGE ( 'NONE', *, *, #448, .T. ) ;
#870 = VECTOR ( 'NONE', #440, 1000.000000000000000 ) ;
#871 = DIRECTION ( 'NONE',  ( -0.8708057035488909747, 0.4916273249797258327, 0.000000000000000000 ) ) ;
#872 = EDGE_CURVE ( 'NONE', #526, #662, #168, .T. ) ;
#873 = DIRECTION ( 'NONE',  ( 0.000000000000000000, 0.000000000000000000, 1.000000000000000000 ) ) ;
#874 = EDGE_LOOP ( 'NONE', ( #282, #361, #762, #642 ) ) ;
#875 = ORIENTED_EDGE ( 'NONE', *, *, #44, .T. ) ;
#876 = DIRECTION ( 'NONE',  ( 1.000000000000000000, 0.000000000000000000, 0.000000000000000000 ) ) ;
#877 = VECTOR ( 'NONE', #158, 1000.000000000000000 ) ;
#878 = DIRECTION ( 'NONE',  ( 0.000000000000000000, 0.000000000000000000, 1.000000000000000000 ) ) ;
#879 = ORIENTED_EDGE ( 'NONE', *, *, #688, .F. ) ;
#880 = ADVANCED_FACE ( 'NONE', ( #822 ), #417, .F. ) ;
#881 = LINE ( 'NONE', #120, #442 ) ;
#882 = CARTESIAN_POINT ( 'NONE',  ( 10.55328552369692829, -2.122941602472415479, 0.000000000000000000 ) ) ;
#883 = ORIENTED_EDGE ( 'NONE', *, *, #370, .T. ) ;
#884 = LINE ( 'NONE', #602, #30 ) ;
ENDSEC;
END-ISO-10303-21;
