ISO-10303-21;
HEADER;
FILE_DESCRIPTION (( 'STEP AP214' ),
    '1' );
FILE_NAME ('bottom damper.STEP',
    '2026-04-07T21:32:52',
    ( '' ),
    ( '' ),
    'SwSTEP 2.0',
    'SolidWorks 2026',
    '' );
FILE_SCHEMA (( 'AUTOMOTIVE_DESIGN' ));
ENDSEC;

DATA;
#1 = CARTESIAN_POINT ( 'NONE',  ( -10.86753602020040077, 3.877058397527583189, 0.000000000000000000 ) ) ;
#2 = ORIENTED_EDGE ( 'NONE', *, *, #137, .F. ) ;
#3 = AXIS2_PLACEMENT_3D ( 'NONE', #169, #78, #213 ) ;
#4 = PRODUCT_CONTEXT ( 'NONE', #117, 'mechanical' ) ;
#5 = EDGE_CURVE ( 'NONE', #246, #9, #241, .T. ) ;
#6 = ORIENTED_EDGE ( 'NONE', *, *, #204, .T. ) ;
#7 = ORIENTED_EDGE ( 'NONE', *, *, #281, .F. ) ;
#8 = VECTOR ( 'NONE', #182, 1000.000000000000000 ) ;
#9 = VERTEX_POINT ( 'NONE', #12 ) ;
#10 = ORIENTED_EDGE ( 'NONE', *, *, #271, .T. ) ;
#11 = VECTOR ( 'NONE', #172, 1000.000000000000000 ) ;
#12 = CARTESIAN_POINT ( 'NONE',  ( 5.756828581435941672, 3.877058397527571643, 3.000000000000000000 ) ) ;
#13 = ADVANCED_FACE ( 'NONE', ( #16 ), #155, .F. ) ;
#14 = FACE_OUTER_BOUND ( 'NONE', #147, .T. ) ;
#15 =( NAMED_UNIT ( * ) SI_UNIT ( $, .STERADIAN. ) SOLID_ANGLE_UNIT ( ) );
#16 = FACE_OUTER_BOUND ( 'NONE', #112, .T. ) ;
#17 = LINE ( 'NONE', #242, #70 ) ;
#18 = PRESENTATION_LAYER_ASSIGNMENT (  '', '', ( #32 ) ) ;
#19 = ADVANCED_FACE ( 'NONE', ( #81 ), #196, .F. ) ;
#20 = CARTESIAN_POINT ( 'NONE',  ( 9.408734730734510165, 7.292256997421183939, 3.000000000000000000 ) ) ;
#21 = LINE ( 'NONE', #37, #11 ) ;
#22 = CARTESIAN_POINT ( 'NONE',  ( 13.55328552369691053, 3.877058397527568978, 3.000000000000000000 ) ) ;
#23 = DIRECTION ( 'NONE',  ( 0.4851195563056228677, -0.8744478349734966516, 0.000000000000000000 ) ) ;
#24 = ORIENTED_EDGE ( 'NONE', *, *, #30, .F. ) ;
#25 = VECTOR ( 'NONE', #285, 1000.000000000000000 ) ;
#26 = CARTESIAN_POINT ( 'NONE',  ( 9.408734730734510165, 7.292256997421183939, 0.000000000000000000 ) ) ;
#27 = EDGE_CURVE ( 'NONE', #195, #168, #40, .T. ) ;
#28 = ORIENTED_EDGE ( 'NONE', *, *, #146, .T. ) ;
#29 = CARTESIAN_POINT ( 'NONE',  ( 10.55328552369692829, 0.8770583975275871857, 3.000000000000000000 ) ) ;
#30 = EDGE_CURVE ( 'NONE', #275, #251, #258, .T. ) ;
#31 = VERTEX_POINT ( 'NONE', #149 ) ;
#32 = STYLED_ITEM ( 'NONE', ( #276 ), #236 ) ;
#33 = AXIS2_PLACEMENT_3D ( 'NONE', #66, #206, #288 ) ;
#34 = ADVANCED_FACE ( 'NONE', ( #14 ), #38, .T. ) ;
#35 = AXIS2_PLACEMENT_3D ( 'NONE', #129, #174, #240 ) ;
#36 = FACE_OUTER_BOUND ( 'NONE', #228, .T. ) ;
#37 = CARTESIAN_POINT ( 'NONE',  ( -14.25493224171899698, -2.122941602472415479, 0.000000000000000000 ) ) ;
#38 = CYLINDRICAL_SURFACE ( 'NONE', #122, 2.999999999999992450 ) ;
#39 = PRODUCT ( 'bottom damper', 'bottom damper', '', ( #4 ) ) ;
#40 = LINE ( 'NONE', #192, #256 ) ;
#41 = DIRECTION ( 'NONE',  ( 1.000000000000000000, 0.000000000000000000, 0.000000000000000000 ) ) ;
#42 = PRODUCT_DEFINITION_FORMATION_WITH_SPECIFIED_SOURCE ( 'ANY', '', #39, .NOT_KNOWN. ) ;
#43 = CARTESIAN_POINT ( 'NONE',  ( 11.98392510528478638, 3.006420493910630487, 3.000000000000000000 ) ) ;
#44 = CARTESIAN_POINT ( 'NONE',  ( -14.25493224171899698, -2.122941602472415479, 3.000000000000000000 ) ) ;
#45 = CARTESIAN_POINT ( 'NONE',  ( 13.55328552369691053, 0.8770583975275871857, 3.000000000000000000 ) ) ;
#46 = EDGE_CURVE ( 'NONE', #168, #140, #279, .T. ) ;
#47 = FACE_OUTER_BOUND ( 'NONE', #237, .T. ) ;
#48 = ORIENTED_EDGE ( 'NONE', *, *, #146, .F. ) ;
#49 = VECTOR ( 'NONE', #89, 1000.000000000000000 ) ;
#50 = DIRECTION ( 'NONE',  ( -0.4916273249797261102, -0.8708057035488909747, 0.000000000000000000 ) ) ;
#51 = ORIENTED_EDGE ( 'NONE', *, *, #98, .T. ) ;
#52 = CARTESIAN_POINT ( 'NONE',  ( 5.756828581435939896, 3.877058397527568978, 3.000000000000000000 ) ) ;
#53 = VECTOR ( 'NONE', #136, 1000.000000000000000 ) ;
#54 = CARTESIAN_POINT ( 'NONE',  ( 13.55328552369691053, 0.8770583975275871857, 0.000000000000000000 ) ) ;
#55 = UNCERTAINTY_MEASURE_WITH_UNIT (LENGTH_MEASURE( 1.000000000000000082E-05 ), #72, 'distance_accuracy_value', 'NONE');
#56 =( NAMED_UNIT ( * ) PLANE_ANGLE_UNIT ( ) SI_UNIT ( $, .RADIAN. ) );
#57 = VECTOR ( 'NONE', #199, 1000.000000000000114 ) ;
#58 = ORIENTED_EDGE ( 'NONE', *, *, #200, .F. ) ;
#59 = LINE ( 'NONE', #44, #53 ) ;
#60 = LINE ( 'NONE', #22, #49 ) ;
#61 = VERTEX_POINT ( 'NONE', #233 ) ;
#62 = CARTESIAN_POINT ( 'NONE',  ( -10.86753602020040077, 3.877058397527583189, 3.000000000000000000 ) ) ;
#63 = DIRECTION ( 'NONE',  ( -0.000000000000000000, -0.000000000000000000, -1.000000000000000000 ) ) ;
#64 = ORIENTED_EDGE ( 'NONE', *, *, #200, .T. ) ;
#65 = CYLINDRICAL_SURFACE ( 'NONE', #186, 4.999999999999999112 ) ;
#66 = CARTESIAN_POINT ( 'NONE',  ( 0.000000000000000000, 0.000000000000000000, 0.000000000000000000 ) ) ;
#67 = SURFACE_SIDE_STYLE ('',( #183 ) ) ;
#68 = ORIENTED_EDGE ( 'NONE', *, *, #86, .T. ) ;
#69 = CIRCLE ( 'NONE', #119, 2.999999999999992450 ) ;
#70 = VECTOR ( 'NONE', #63, 1000.000000000000000 ) ;
#71 = ORIENTED_EDGE ( 'NONE', *, *, #46, .F. ) ;
#72 =( LENGTH_UNIT ( ) NAMED_UNIT ( * ) SI_UNIT ( .MILLI., .METRE. ) );
#73 = ADVANCED_FACE ( 'NONE', ( #36 ), #171, .F. ) ;
#74 = ORIENTED_EDGE ( 'NONE', *, *, #5, .F. ) ;
#75 = ORIENTED_EDGE ( 'NONE', *, *, #243, .T. ) ;
#76 = ORIENTED_EDGE ( 'NONE', *, *, #27, .T. ) ;
#77 = LINE ( 'NONE', #154, #145 ) ;
#78 = DIRECTION ( 'NONE',  ( -0.000000000000000000, -0.000000000000000000, -1.000000000000000000 ) ) ;
#79 = DIRECTION ( 'NONE',  ( -1.000000000000000000, 8.347860589179127138E-16, 0.000000000000000000 ) ) ;
#80 = ORIENTED_EDGE ( 'NONE', *, *, #160, .F. ) ;
#81 = FACE_OUTER_BOUND ( 'NONE', #99, .T. ) ;
#82 = CARTESIAN_POINT ( 'NONE',  ( 10.55328552369692829, 0.8770583975275871857, 0.000000000000000000 ) ) ;
#83 = CARTESIAN_POINT ( 'NONE',  ( 11.98392510528478638, 3.006420493910630487, 3.000000000000000000 ) ) ;
#84 = CARTESIAN_POINT ( 'NONE',  ( 10.55328552369692829, -2.122941602472415479, 3.000000000000000000 ) ) ;
#85 = CARTESIAN_POINT ( 'NONE',  ( 11.98392510528478638, 3.006420493910630487, 0.000000000000000000 ) ) ;
#86 = EDGE_CURVE ( 'NONE', #9, #195, #17, .T. ) ;
#87 = VECTOR ( 'NONE', #50, 999.9999999999998863 ) ;
#88 = PLANE ( 'NONE',  #222 ) ;
#89 = DIRECTION ( 'NONE',  ( -0.000000000000000000, -0.000000000000000000, -1.000000000000000000 ) ) ;
#90 = ORIENTED_EDGE ( 'NONE', *, *, #243, .F. ) ;
#91 = LINE ( 'NONE', #248, #57 ) ;
#92 = AXIS2_PLACEMENT_3D ( 'NONE', #157, #161, #197 ) ;
#93 = EDGE_LOOP ( 'NONE', ( #71, #97, #229, #48, #24, #123, #7 ) ) ;
#94 = ADVANCED_FACE ( 'NONE', ( #175 ), #178, .F. ) ;
#95 = COLOUR_RGB ( '',0.7921568627450980005, 0.8196078431372548767, 0.9333333333333333481 ) ;
#96 = ORIENTED_EDGE ( 'NONE', *, *, #104, .F. ) ;
#97 = ORIENTED_EDGE ( 'NONE', *, *, #27, .F. ) ;
#98 = EDGE_CURVE ( 'NONE', #227, #195, #252, .T. ) ;
#99 = EDGE_LOOP ( 'NONE', ( #185, #80, #127, #75 ) ) ;
#100 = VECTOR ( 'NONE', #212, 1000.000000000000000 ) ;
#101 = DIRECTION ( 'NONE',  ( -0.000000000000000000, -0.000000000000000000, -1.000000000000000000 ) ) ;
#102 = ORIENTED_EDGE ( 'NONE', *, *, #184, .T. ) ;
#103 = ORIENTED_EDGE ( 'NONE', *, *, #179, .F. ) ;
#104 = EDGE_CURVE ( 'NONE', #61, #289, #59, .T. ) ;
#105 = AXIS2_PLACEMENT_3D ( 'NONE', #106, #194, #153 ) ;
#106 = CARTESIAN_POINT ( 'NONE',  ( 13.55328552369691053, 0.8770583975275871857, 3.000000000000000000 ) ) ;
#107 = CARTESIAN_POINT ( 'NONE',  ( 10.55328552369692829, 0.8770583975275871857, 3.000000000000000000 ) ) ;
#108 = LINE ( 'NONE', #162, #205 ) ;
#109 = CARTESIAN_POINT ( 'NONE',  ( 13.55328552369692119, 0.8770583975275871857, 3.000000000000000000 ) ) ;
#110 = EDGE_CURVE ( 'NONE', #283, #166, #266, .T. ) ;
#111 = CARTESIAN_POINT ( 'NONE',  ( 5.756828581435941672, 3.877058397527571643, 0.000000000000000000 ) ) ;
#112 = EDGE_LOOP ( 'NONE', ( #144, #272, #165, #10 ) ) ;
#113 = VECTOR ( 'NONE', #159, 1000.000000000000000 ) ;
#114 = DIRECTION ( 'NONE',  ( -0.8744478349734966516, -0.4851195563056228677, 0.000000000000000000 ) ) ;
#115 = PLANE ( 'NONE',  #235 ) ;
#116 = DIRECTION ( 'NONE',  ( 0.000000000000000000, 0.000000000000000000, 1.000000000000000000 ) ) ;
#117 = APPLICATION_CONTEXT ( 'automotive_design' ) ;
#118 = APPLICATION_PROTOCOL_DEFINITION ( 'draft international standard', 'automotive_design', 1998, #117 ) ;
#119 = AXIS2_PLACEMENT_3D ( 'NONE', #29, #116, #198 ) ;
#120 = ORIENTED_EDGE ( 'NONE', *, *, #156, .T. ) ;
#121 =( NAMED_UNIT ( * ) SI_UNIT ( $, .STERADIAN. ) SOLID_ANGLE_UNIT ( ) );
#122 = AXIS2_PLACEMENT_3D ( 'NONE', #217, #101, #190 ) ;
#123 = ORIENTED_EDGE ( 'NONE', *, *, #284, .F. ) ;
#124 = ADVANCED_FACE ( 'NONE', ( #134 ), #88, .F. ) ;
#125 = CARTESIAN_POINT ( 'NONE',  ( 13.55328552369692119, 0.8770583975275871857, 3.000000000000000000 ) ) ;
#126 = AXIS2_PLACEMENT_3D ( 'NONE', #26, #245, #263 ) ;
#127 = ORIENTED_EDGE ( 'NONE', *, *, #110, .F. ) ;
#128 = ADVANCED_FACE ( 'NONE', ( #47 ), #115, .F. ) ;
#129 = CARTESIAN_POINT ( 'NONE',  ( -10.86753602020040077, 3.877058397527583189, 3.000000000000000000 ) ) ;
#130 = DIRECTION ( 'NONE',  ( 1.000000000000000000, 0.000000000000000000, -0.000000000000000000 ) ) ;
#131 = DIRECTION ( 'NONE',  ( -8.347860589179127138E-16, -1.000000000000000000, 0.000000000000000000 ) ) ;
#132 = VECTOR ( 'NONE', #158, 1000.000000000000000 ) ;
#133 = DIRECTION ( 'NONE',  ( 0.000000000000000000, 1.000000000000000000, 0.000000000000000000 ) ) ;
#134 = FACE_OUTER_BOUND ( 'NONE', #280, .T. ) ;
#135 = APPLICATION_PROTOCOL_DEFINITION ( 'draft international standard', 'automotive_design', 1998, #148 ) ;
#136 = DIRECTION ( 'NONE',  ( 1.000000000000000000, 0.000000000000000000, 0.000000000000000000 ) ) ;
#137 = EDGE_CURVE ( 'NONE', #289, #250, #287, .T. ) ;
#138 = DIRECTION ( 'NONE',  ( 0.000000000000000000, 1.000000000000000000, 0.000000000000000000 ) ) ;
#139 =( GEOMETRIC_REPRESENTATION_CONTEXT ( 3 ) GLOBAL_UNCERTAINTY_ASSIGNED_CONTEXT ( ( #214 ) ) GLOBAL_UNIT_ASSIGNED_CONTEXT ( ( #231, #56, #15 ) ) REPRESENTATION_CONTEXT ( 'NONE', 'WORKASPACE' ) );
#140 = VERTEX_POINT ( 'NONE', #224 ) ;
#141 = LINE ( 'NONE', #83, #132 ) ;
#142 = ORIENTED_EDGE ( 'NONE', *, *, #86, .F. ) ;
#143 = LINE ( 'NONE', #52, #113 ) ;
#144 = ORIENTED_EDGE ( 'NONE', *, *, #46, .T. ) ;
#145 = VECTOR ( 'NONE', #170, 1000.000000000000000 ) ;
#146 = EDGE_CURVE ( 'NONE', #251, #227, #108, .T. ) ;
#147 = EDGE_LOOP ( 'NONE', ( #265, #90, #208, #277 ) ) ;
#148 = APPLICATION_CONTEXT ( 'automotive_design' ) ;
#149 = CARTESIAN_POINT ( 'NONE',  ( -10.86753602020040077, 3.877058397527583189, 3.000000000000000000 ) ) ;
#150 = DIRECTION ( 'NONE',  ( -0.4916273249797261102, -0.8708057035488909747, 0.000000000000000000 ) ) ;
#151 = VECTOR ( 'NONE', #290, 1000.000000000000000 ) ;
#152 = DIRECTION ( 'NONE',  ( 0.000000000000000000, 0.000000000000000000, 1.000000000000000000 ) ) ;
#153 = DIRECTION ( 'NONE',  ( 0.000000000000000000, 0.000000000000000000, 1.000000000000000000 ) ) ;
#154 = CARTESIAN_POINT ( 'NONE',  ( -10.86753602020040077, 3.877058397527583189, 3.000000000000000000 ) ) ;
#155 = PLANE ( 'NONE',  #35 ) ;
#156 = EDGE_CURVE ( 'NONE', #166, #246, #91, .T. ) ;
#157 = CARTESIAN_POINT ( 'NONE',  ( 10.55328552369692829, 0.8770583975275871857, 0.000000000000000000 ) ) ;
#158 = DIRECTION ( 'NONE',  ( -0.000000000000000000, -0.000000000000000000, -1.000000000000000000 ) ) ;
#159 = DIRECTION ( 'NONE',  ( -1.000000000000000000, 8.347860589179127138E-16, 0.000000000000000000 ) ) ;
#160 = EDGE_CURVE ( 'NONE', #166, #251, #60, .T. ) ;
#161 = DIRECTION ( 'NONE',  ( 0.000000000000000000, 0.000000000000000000, 1.000000000000000000 ) ) ;
#162 = CARTESIAN_POINT ( 'NONE',  ( 13.55328552369691053, 3.877058397527568978, 0.000000000000000000 ) ) ;
#163 = EDGE_LOOP ( 'NONE', ( #188, #203, #6, #253, #120, #211, #187 ) ) ;
#164 = EDGE_CURVE ( 'NONE', #31, #61, #264, .T. ) ;
#165 = ORIENTED_EDGE ( 'NONE', *, *, #164, .F. ) ;
#166 = VERTEX_POINT ( 'NONE', #221 ) ;
#167 = AXIS2_PLACEMENT_3D ( 'NONE', #215, #131, #216 ) ;
#168 = VERTEX_POINT ( 'NONE', #1 ) ;
#169 = CARTESIAN_POINT ( 'NONE',  ( 9.408734730734510165, 7.292256997421183939, 3.000000000000000000 ) ) ;
#170 = DIRECTION ( 'NONE',  ( -0.000000000000000000, -0.000000000000000000, -1.000000000000000000 ) ) ;
#171 = PLANE ( 'NONE',  #167 ) ;
#172 = DIRECTION ( 'NONE',  ( 1.000000000000000000, 0.000000000000000000, 0.000000000000000000 ) ) ;
#173 = VECTOR ( 'NONE', #133, 1000.000000000000000 ) ;
#174 = DIRECTION ( 'NONE',  ( 0.8708057035488908637, -0.4916273249797260547, 0.000000000000000000 ) ) ;
#175 = FACE_OUTER_BOUND ( 'NONE', #93, .T. ) ;
#176 = CIRCLE ( 'NONE', #249, 2.999999999999992450 ) ;
#177 = FACE_OUTER_BOUND ( 'NONE', #163, .T. ) ;
#178 = PLANE ( 'NONE',  #92 ) ;
#179 = EDGE_CURVE ( 'NONE', #9, #31, #143, .T. ) ;
#180 = CARTESIAN_POINT ( 'NONE',  ( -14.25493224171899698, -2.122941602472415479, 3.000000000000000000 ) ) ;
#181 = MECHANICAL_DESIGN_GEOMETRIC_PRESENTATION_REPRESENTATION (  '', ( #32 ), #226 ) ;
#182 = DIRECTION ( 'NONE',  ( -0.000000000000000000, -0.000000000000000000, -1.000000000000000000 ) ) ;
#183 = SURFACE_STYLE_FILL_AREA ( #262 ) ;
#184 = EDGE_CURVE ( 'NONE', #61, #140, #223, .T. ) ;
#185 = ORIENTED_EDGE ( 'NONE', *, *, #30, .T. ) ;
#186 = AXIS2_PLACEMENT_3D ( 'NONE', #20, #286, #260 ) ;
#187 = ORIENTED_EDGE ( 'NONE', *, *, #179, .T. ) ;
#188 = ORIENTED_EDGE ( 'NONE', *, *, #164, .T. ) ;
#189 = PRODUCT_DEFINITION_SHAPE ( 'NONE', 'NONE',  #257 ) ;
#190 = DIRECTION ( 'NONE',  ( -1.000000000000000000, 0.000000000000000000, 0.000000000000000000 ) ) ;
#191 = CARTESIAN_POINT ( 'NONE',  ( 10.55328552369692829, -2.122941602472415479, 0.000000000000000000 ) ) ;
#192 = CARTESIAN_POINT ( 'NONE',  ( 5.756828581435939896, 3.877058397527568978, 0.000000000000000000 ) ) ;
#193 = DIRECTION ( 'NONE',  ( 0.000000000000000000, 0.000000000000000000, 1.000000000000000000 ) ) ;
#194 = DIRECTION ( 'NONE',  ( -1.000000000000000000, 0.000000000000000000, 0.000000000000000000 ) ) ;
#195 = VERTEX_POINT ( 'NONE', #111 ) ;
#196 = PLANE ( 'NONE',  #105 ) ;
#197 = DIRECTION ( 'NONE',  ( 1.000000000000000000, 0.000000000000000000, -0.000000000000000000 ) ) ;
#198 = DIRECTION ( 'NONE',  ( 1.000000000000000000, 0.000000000000000000, 0.000000000000000000 ) ) ;
#199 = DIRECTION ( 'NONE',  ( -0.8744478349734966516, -0.4851195563056228677, 0.000000000000000000 ) ) ;
#200 = EDGE_CURVE ( 'NONE', #246, #227, #141, .T. ) ;
#201 = DIRECTION ( 'NONE',  ( 0.8744478349734966516, 0.4851195563056228677, 0.000000000000000000 ) ) ;
#202 = CARTESIAN_POINT ( 'NONE',  ( 13.55328552369691053, 3.877058397527568978, 3.000000000000000000 ) ) ;
#203 = ORIENTED_EDGE ( 'NONE', *, *, #104, .T. ) ;
#204 = EDGE_CURVE ( 'NONE', #289, #283, #69, .T. ) ;
#205 = VECTOR ( 'NONE', #114, 1000.000000000000114 ) ;
#206 = DIRECTION ( 'NONE',  ( 0.000000000000000000, 0.000000000000000000, 1.000000000000000000 ) ) ;
#207 = ORIENTED_EDGE ( 'NONE', *, *, #281, .T. ) ;
#208 = ORIENTED_EDGE ( 'NONE', *, *, #204, .F. ) ;
#209 = AXIS2_PLACEMENT_3D ( 'NONE', #107, #193, #130 ) ;
#210 = ADVANCED_FACE ( 'NONE', ( #268 ), #65, .F. ) ;
#211 = ORIENTED_EDGE ( 'NONE', *, *, #5, .T. ) ;
#212 = DIRECTION ( 'NONE',  ( -0.000000000000000000, -0.000000000000000000, -1.000000000000000000 ) ) ;
#213 = DIRECTION ( 'NONE',  ( 1.000000000000000000, 0.000000000000000000, 0.000000000000000000 ) ) ;
#214 = UNCERTAINTY_MEASURE_WITH_UNIT (LENGTH_MEASURE( 1.000000000000000082E-05 ), #231, 'distance_accuracy_value', 'NONE');
#215 = CARTESIAN_POINT ( 'NONE',  ( 5.756828581435939896, 3.877058397527568978, 3.000000000000000000 ) ) ;
#216 = DIRECTION ( 'NONE',  ( 1.000000000000000000, -8.347860589179127138E-16, 0.000000000000000000 ) ) ;
#217 = CARTESIAN_POINT ( 'NONE',  ( 10.55328552369692829, 0.8770583975275871857, 3.000000000000000000 ) ) ;
#218 = FILL_AREA_STYLE_COLOUR ( '', #95 ) ;
#219 = CARTESIAN_POINT ( 'NONE',  ( -14.25493224171899698, -2.122941602472415479, 3.000000000000000000 ) ) ;
#220 = SHAPE_DEFINITION_REPRESENTATION ( #189, #270 ) ;
#221 = CARTESIAN_POINT ( 'NONE',  ( 13.55328552369691053, 3.877058397527568978, 3.000000000000000000 ) ) ;
#222 = AXIS2_PLACEMENT_3D ( 'NONE', #202, #23, #201 ) ;
#223 = LINE ( 'NONE', #180, #8 ) ;
#224 = CARTESIAN_POINT ( 'NONE',  ( -14.25493224171899698, -2.122941602472415479, 0.000000000000000000 ) ) ;
#225 = ORIENTED_EDGE ( 'NONE', *, *, #271, .F. ) ;
#226 =( GEOMETRIC_REPRESENTATION_CONTEXT ( 3 ) GLOBAL_UNCERTAINTY_ASSIGNED_CONTEXT ( ( #55 ) ) GLOBAL_UNIT_ASSIGNED_CONTEXT ( ( #72, #273, #121 ) ) REPRESENTATION_CONTEXT ( 'NONE', 'WORKASPACE' ) );
#227 = VERTEX_POINT ( 'NONE', #85 ) ;
#228 = EDGE_LOOP ( 'NONE', ( #76, #225, #103, #68 ) ) ;
#229 = ORIENTED_EDGE ( 'NONE', *, *, #98, .F. ) ;
#230 = ADVANCED_FACE ( 'NONE', ( #177 ), #255, .T. ) ;
#231 =( LENGTH_UNIT ( ) NAMED_UNIT ( * ) SI_UNIT ( .MILLI., .METRE. ) );
#232 = PRODUCT_DEFINITION_CONTEXT ( 'detailed design', #148, 'design' ) ;
#233 = CARTESIAN_POINT ( 'NONE',  ( -14.25493224171899698, -2.122941602472415479, 3.000000000000000000 ) ) ;
#234 = CLOSED_SHELL ( 'NONE', ( #13, #128, #34, #19, #124, #210, #73, #230, #94 ) ) ;
#235 = AXIS2_PLACEMENT_3D ( 'NONE', #219, #138, #244 ) ;
#236 = MANIFOLD_SOLID_BREP ( 'Boss-Extrude1', #234 ) ;
#237 = EDGE_LOOP ( 'NONE', ( #207, #2, #96, #102 ) ) ;
#238 = LINE ( 'NONE', #125, #100 ) ;
#239 = CARTESIAN_POINT ( 'NONE',  ( 13.55328552369692119, 0.8770583975275871857, 0.000000000000000000 ) ) ;
#240 = DIRECTION ( 'NONE',  ( 0.4916273249797260547, 0.8708057035488908637, 0.000000000000000000 ) ) ;
#241 = CIRCLE ( 'NONE', #3, 4.999999999999999112 ) ;
#242 = CARTESIAN_POINT ( 'NONE',  ( 5.756828581435941672, 3.877058397527571643, 3.000000000000000000 ) ) ;
#243 = EDGE_CURVE ( 'NONE', #283, #275, #238, .T. ) ;
#244 = DIRECTION ( 'NONE',  ( 0.000000000000000000, -0.000000000000000000, 1.000000000000000000 ) ) ;
#245 = DIRECTION ( 'NONE',  ( -0.000000000000000000, -0.000000000000000000, -1.000000000000000000 ) ) ;
#246 = VERTEX_POINT ( 'NONE', #43 ) ;
#247 = CARTESIAN_POINT ( 'NONE',  ( 10.55328552369692829, -2.122941602472415479, 3.000000000000000000 ) ) ;
#248 = CARTESIAN_POINT ( 'NONE',  ( 13.55328552369691053, 3.877058397527568978, 3.000000000000000000 ) ) ;
#249 = AXIS2_PLACEMENT_3D ( 'NONE', #82, #152, #41 ) ;
#250 = VERTEX_POINT ( 'NONE', #191 ) ;
#251 = VERTEX_POINT ( 'NONE', #278 ) ;
#252 = CIRCLE ( 'NONE', #126, 4.999999999999999112 ) ;
#253 = ORIENTED_EDGE ( 'NONE', *, *, #110, .T. ) ;
#254 = CARTESIAN_POINT ( 'NONE',  ( -10.86753602020040077, 3.877058397527583189, 0.000000000000000000 ) ) ;
#255 = PLANE ( 'NONE',  #209 ) ;
#256 = VECTOR ( 'NONE', #79, 1000.000000000000000 ) ;
#257 = PRODUCT_DEFINITION ( 'UNKNOWN', '', #42, #232 ) ;
#258 = LINE ( 'NONE', #54, #173 ) ;
#259 = ORIENTED_EDGE ( 'NONE', *, *, #156, .F. ) ;
#260 = DIRECTION ( 'NONE',  ( -1.000000000000000000, 0.000000000000000000, 0.000000000000000000 ) ) ;
#261 = PRODUCT_RELATED_PRODUCT_CATEGORY ( 'part', '', ( #39 ) ) ;
#262 = FILL_AREA_STYLE ('',( #218 ) ) ;
#263 = DIRECTION ( 'NONE',  ( 1.000000000000000000, 0.000000000000000000, 0.000000000000000000 ) ) ;
#264 = LINE ( 'NONE', #62, #87 ) ;
#265 = ORIENTED_EDGE ( 'NONE', *, *, #284, .T. ) ;
#266 = LINE ( 'NONE', #45, #151 ) ;
#267 = VECTOR ( 'NONE', #150, 999.9999999999998863 ) ;
#268 = FACE_OUTER_BOUND ( 'NONE', #282, .T. ) ;
#269 = ORIENTED_EDGE ( 'NONE', *, *, #160, .T. ) ;
#270 = ADVANCED_BREP_SHAPE_REPRESENTATION ( 'bottom damper', ( #236, #33 ), #139 ) ;
#271 = EDGE_CURVE ( 'NONE', #31, #168, #77, .T. ) ;
#272 = ORIENTED_EDGE ( 'NONE', *, *, #184, .F. ) ;
#273 =( NAMED_UNIT ( * ) PLANE_ANGLE_UNIT ( ) SI_UNIT ( $, .RADIAN. ) );
#274 = SURFACE_STYLE_USAGE ( .BOTH. , #67 ) ;
#275 = VERTEX_POINT ( 'NONE', #239 ) ;
#276 = PRESENTATION_STYLE_ASSIGNMENT (( #274 ) ) ;
#277 = ORIENTED_EDGE ( 'NONE', *, *, #137, .T. ) ;
#278 = CARTESIAN_POINT ( 'NONE',  ( 13.55328552369691053, 3.877058397527568978, 0.000000000000000000 ) ) ;
#279 = LINE ( 'NONE', #254, #267 ) ;
#280 = EDGE_LOOP ( 'NONE', ( #28, #58, #259, #269 ) ) ;
#281 = EDGE_CURVE ( 'NONE', #140, #250, #21, .T. ) ;
#282 = EDGE_LOOP ( 'NONE', ( #51, #142, #74, #64 ) ) ;
#283 = VERTEX_POINT ( 'NONE', #109 ) ;
#284 = EDGE_CURVE ( 'NONE', #250, #275, #176, .T. ) ;
#285 = DIRECTION ( 'NONE',  ( -0.000000000000000000, -0.000000000000000000, -1.000000000000000000 ) ) ;
#286 = DIRECTION ( 'NONE',  ( -0.000000000000000000, -0.000000000000000000, -1.000000000000000000 ) ) ;
#287 = LINE ( 'NONE', #247, #25 ) ;
#288 = DIRECTION ( 'NONE',  ( 1.000000000000000000, 0.000000000000000000, 0.000000000000000000 ) ) ;
#289 = VERTEX_POINT ( 'NONE', #84 ) ;
#290 = DIRECTION ( 'NONE',  ( 0.000000000000000000, 1.000000000000000000, 0.000000000000000000 ) ) ;
ENDSEC;
END-ISO-10303-21;
