ISO-10303-21;
HEADER;
FILE_DESCRIPTION (( 'STEP AP214' ),
    '1' );
FILE_NAME ('cover-ir-tx.STEP',
    '2026-04-06T16:28:18',
    ( '' ),
    ( '' ),
    'SwSTEP 2.0',
    'SolidWorks 2026',
    '' );
FILE_SCHEMA (( 'AUTOMOTIVE_DESIGN' ));
ENDSEC;

DATA;
#1 = EDGE_LOOP ( 'NONE', ( #119, #746, #50, #202 ) ) ;
#2 = DIRECTION ( 'NONE',  ( -0.9879353681056138869, -0.1548667441577606385, 0.000000000000000000 ) ) ;
#3 = CARTESIAN_POINT ( 'NONE',  ( 8.505149150781276646, 8.240101836395481882, 1.800000000000000044 ) ) ;
#4 = DIRECTION ( 'NONE',  ( -0.1412253071329679643, 0.9899774808677209714, 0.000000000000000000 ) ) ;
#5 = CARTESIAN_POINT ( 'NONE',  ( 8.104275536926804691, -6.867932223259215263, 4.800000000000000711 ) ) ;
#6 = CARTESIAN_POINT ( 'NONE',  ( 8.505149150781276646, 8.240101836395481882, 1.800000000000000044 ) ) ;
#7 = VECTOR ( 'NONE', #564, 1000.000000000000000 ) ;
#8 = SURFACE_STYLE_FILL_AREA ( #550 ) ;
#9 = VECTOR ( 'NONE', #511, 999.9999999999998863 ) ;
#10 = AXIS2_PLACEMENT_3D ( 'NONE', #788, #123, #794 ) ;
#11 = SHAPE_DEFINITION_REPRESENTATION ( #333, #46 ) ;
#12 = DIRECTION ( 'NONE',  ( -0.000000000000000000, -0.000000000000000000, -1.000000000000000000 ) ) ;
#13 = VERTEX_POINT ( 'NONE', #74 ) ;
#14 = ORIENTED_EDGE ( 'NONE', *, *, #537, .T. ) ;
#15 = DIRECTION ( 'NONE',  ( 0.000000000000000000, 0.000000000000000000, -1.000000000000000000 ) ) ;
#16 = EDGE_CURVE ( 'NONE', #178, #263, #448, .T. ) ;
#17 = ORIENTED_EDGE ( 'NONE', *, *, #270, .T. ) ;
#18 = CARTESIAN_POINT ( 'NONE',  ( 7.256921829237093391, 7.212684422918350435, 1.800000000000000044 ) ) ;
#19 = LINE ( 'NONE', #251, #474 ) ;
#20 = VERTEX_POINT ( 'NONE', #245 ) ;
#21 = AXIS2_PLACEMENT_3D ( 'NONE', #648, #85, #324 ) ;
#22 = ORIENTED_EDGE ( 'NONE', *, *, #40, .T. ) ;
#23 = DIRECTION ( 'NONE',  ( 0.9879353681056137759, 0.1548667441577606663, 0.000000000000000000 ) ) ;
#24 = AXIS2_PLACEMENT_3D ( 'NONE', #338, #89, #29 ) ;
#25 = DIRECTION ( 'NONE',  ( 0.9879353681056137759, 0.1548667441577617210, 0.000000000000000000 ) ) ;
#26 = FACE_OUTER_BOUND ( 'NONE', #168, .T. ) ;
#27 = ORIENTED_EDGE ( 'NONE', *, *, #330, .T. ) ;
#28 = CARTESIAN_POINT ( 'NONE',  ( 10.08014627313803047, -6.558198734943694319, 2.800000000000000266 ) ) ;
#29 = DIRECTION ( 'NONE',  ( -0.9879353681056137759, -0.1548667441577606663, 0.000000000000000000 ) ) ;
#30 = ORIENTED_EDGE ( 'NONE', *, *, #702, .T. ) ;
#31 = CIRCLE ( 'NONE', #21, 1.100000000000000977 ) ;
#32 = CARTESIAN_POINT ( 'NONE',  ( 6.409571851331286929, 5.011797547153411081, 4.800000000000000711 ) ) ;
#33 = AXIS2_PLACEMENT_3D ( 'NONE', #456, #708, #155 ) ;
#34 = ORIENTED_EDGE ( 'NONE', *, *, #761, .T. ) ;
#35 = DIRECTION ( 'NONE',  ( -0.000000000000000000, -0.000000000000000000, -1.000000000000000000 ) ) ;
#36 = CARTESIAN_POINT ( 'NONE',  ( 8.104275536926804691, -6.867932223259215263, 2.800000000000000266 ) ) ;
#37 = EDGE_LOOP ( 'NONE', ( #619, #99 ) ) ;
#38 = DIRECTION ( 'NONE',  ( -0.9905979446491360862, -0.1368053802191527557, 0.000000000000000000 ) ) ;
#39 = LINE ( 'NONE', #543, #95 ) ;
#40 = EDGE_CURVE ( 'NONE', #733, #710, #623, .T. ) ;
#41 = ORIENTED_EDGE ( 'NONE', *, *, #434, .F. ) ;
#42 = DIRECTION ( 'NONE',  ( 0.9879353681056138869, 0.1548667441577607495, 0.000000000000000000 ) ) ;
#43 = EDGE_LOOP ( 'NONE', ( #535, #249, #311, #339 ) ) ;
#44 = DIRECTION ( 'NONE',  ( -0.9899774808677209714, -0.1412253071329678811, 0.000000000000000000 ) ) ;
#45 = EDGE_CURVE ( 'NONE', #407, #579, #189, .T. ) ;
#46 = ADVANCED_BREP_SHAPE_REPRESENTATION ( 'cover-ir-tx', ( #77, #557 ), #306 ) ;
#47 = VERTEX_POINT ( 'NONE', #547 ) ;
#48 = DIRECTION ( 'NONE',  ( -0.9879353681056138869, -0.1548667441577606385, 0.000000000000000000 ) ) ;
#49 = EDGE_CURVE ( 'NONE', #518, #47, #427, .T. ) ;
#50 = ORIENTED_EDGE ( 'NONE', *, *, #253, .T. ) ;
#51 = DIRECTION ( 'NONE',  ( 0.9879353681056137759, 0.1548667441577605552, 0.000000000000000000 ) ) ;
#52 = DIRECTION ( 'NONE',  ( 0.000000000000000000, 0.000000000000000000, 1.000000000000000000 ) ) ;
#53 = EDGE_CURVE ( 'NONE', #452, #407, #753, .T. ) ;
#54 = ORIENTED_EDGE ( 'NONE', *, *, #588, .F. ) ;
#55 = CIRCLE ( 'NONE', #489, 1.100000000000000977 ) ;
#56 = CARTESIAN_POINT ( 'NONE',  ( 3.631823148235541865, -9.690684049156404356, 1.800000000000000044 ) ) ;
#57 = CARTESIAN_POINT ( 'NONE',  ( 9.442292047262299093, -4.234234130712469124, 3.799999999999999822 ) ) ;
#58 = ADVANCED_FACE ( 'NONE', ( #694 ), #484, .F. ) ;
#59 = DIRECTION ( 'NONE',  ( -0.9899774808677210824, -0.1412253071329679921, 0.000000000000000000 ) ) ;
#60 = CARTESIAN_POINT ( 'NONE',  ( 7.496300756247463504, 5.182150965726948222, 4.800000000000000711 ) ) ;
#61 = CARTESIAN_POINT ( 'NONE',  ( 7.256921829237093391, 7.212684422918350435, 0.000000000000000000 ) ) ;
#62 = LINE ( 'NONE', #515, #80 ) ;
#63 = DIRECTION ( 'NONE',  ( 0.000000000000000000, 0.000000000000000000, 1.000000000000000000 ) ) ;
#64 = CARTESIAN_POINT ( 'NONE',  ( 8.332371258114248391, 9.491174163248356166, 4.800000000000000711 ) ) ;
#65 = ORIENTED_EDGE ( 'NONE', *, *, #554, .F. ) ;
#66 = VECTOR ( 'NONE', #549, 1000.000000000000114 ) ;
#67 = VECTOR ( 'NONE', #91, 999.9999999999998863 ) ;
#68 = ORIENTED_EDGE ( 'NONE', *, *, #493, .F. ) ;
#69 = DIRECTION ( 'NONE',  ( 0.9969792796506891097, 0.07766798534269504783, 0.000000000000000000 ) ) ;
#70 = EDGE_CURVE ( 'NONE', #579, #722, #236, .T. ) ;
#71 = PLANE ( 'NONE',  #530 ) ;
#72 = CARTESIAN_POINT ( 'NONE',  ( 2.557776325395889394, 8.693680427621902851, 1.800000000000000044 ) ) ;
#73 = DIRECTION ( 'NONE',  ( -0.9879353681056137759, -0.1548667441577607218, 0.000000000000000000 ) ) ;
#74 = CARTESIAN_POINT ( 'NONE',  ( 8.385442587542515369, 5.321531035468932913, 4.800000000000000711 ) ) ;
#75 = CARTESIAN_POINT ( 'NONE',  ( 3.631823148235541865, -9.690684049156404356, 4.800000000000000711 ) ) ;
#76 = CARTESIAN_POINT ( 'NONE',  ( 9.442292047262299093, -4.234234130712469124, 3.799999999999999822 ) ) ;
#77 = MANIFOLD_SOLID_BREP ( '<cover-ir-tx>-<Cut-Extrude2>', #765 ) ;
#78 = DIRECTION ( 'NONE',  ( 0.000000000000000000, 0.000000000000000000, -1.000000000000000000 ) ) ;
#79 = EDGE_CURVE ( 'NONE', #211, #214, #444, .T. ) ;
#80 = VECTOR ( 'NONE', #524, 999.9999999999998863 ) ;
#81 = EDGE_LOOP ( 'NONE', ( #529, #421, #129, #600 ) ) ;
#82 = CARTESIAN_POINT ( 'NONE',  ( 0.000000000000000000, 0.000000000000000000, 0.000000000000000000 ) ) ;
#83 = AXIS2_PLACEMENT_3D ( 'NONE', #501, #247, #560 ) ;
#84 = CARTESIAN_POINT ( 'NONE',  ( 2.557776325395899164, 8.693680427621899298, 4.800000000000000711 ) ) ;
#85 = DIRECTION ( 'NONE',  ( -0.000000000000000000, -0.000000000000000000, -1.000000000000000000 ) ) ;
#86 = EDGE_CURVE ( 'NONE', #438, #310, #62, .T. ) ;
#87 = ORIENTED_EDGE ( 'NONE', *, *, #45, .T. ) ;
#88 = DIRECTION ( 'NONE',  ( 0.000000000000000000, 0.000000000000000000, -1.000000000000000000 ) ) ;
#89 = DIRECTION ( 'NONE',  ( -0.000000000000000000, -0.000000000000000000, -1.000000000000000000 ) ) ;
#90 = ORIENTED_EDGE ( 'NONE', *, *, #718, .F. ) ;
#91 = DIRECTION ( 'NONE',  ( -0.1548667441577607773, 0.9879353681056138869, 0.000000000000000000 ) ) ;
#92 = CARTESIAN_POINT ( 'NONE',  ( 2.344806068534511567, 6.830014348734375851, 1.800000000000000044 ) ) ;
#93 = VERTEX_POINT ( 'NONE', #777 ) ;
#94 = DIRECTION ( 'NONE',  ( -0.1368053802191527557, 0.9905979446491361973, 0.000000000000000000 ) ) ;
#95 = VECTOR ( 'NONE', #121, 1000.000000000000000 ) ;
#96 = ADVANCED_FACE ( 'NONE', ( #630, #769, #319 ), #454, .T. ) ;
#97 = AXIS2_PLACEMENT_3D ( 'NONE', #523, #340, #776 ) ;
#98 = LINE ( 'NONE', #392, #487 ) ;
#99 = ORIENTED_EDGE ( 'NONE', *, *, #276, .T. ) ;
#100 = LINE ( 'NONE', #785, #556 ) ;
#101 = DIRECTION ( 'NONE',  ( 0.1368053802191527279, -0.9905979446491360862, 0.000000000000000000 ) ) ;
#102 = VERTEX_POINT ( 'NONE', #569 ) ;
#103 = DIRECTION ( 'NONE',  ( -0.000000000000000000, -0.000000000000000000, -1.000000000000000000 ) ) ;
#104 = CARTESIAN_POINT ( 'NONE',  ( 11.15442703025327376, -8.511455925123827981, 1.800000000000000044 ) ) ;
#105 = ORIENTED_EDGE ( 'NONE', *, *, #70, .T. ) ;
#106 = CARTESIAN_POINT ( 'NONE',  ( 10.08014627313803047, -6.558198734943694319, 2.800000000000000266 ) ) ;
#107 = AXIS2_PLACEMENT_3D ( 'NONE', #289, #602, #677 ) ;
#108 = ORIENTED_EDGE ( 'NONE', *, *, #337, .F. ) ;
#109 = LINE ( 'NONE', #350, #161 ) ;
#110 = EDGE_LOOP ( 'NONE', ( #655, #614 ) ) ;
#111 = CYLINDRICAL_SURFACE ( 'NONE', #517, 1.100000000000000089 ) ;
#112 = ADVANCED_FACE ( 'NONE', ( #258 ), #460, .F. ) ;
#113 = ORIENTED_EDGE ( 'NONE', *, *, #440, .F. ) ;
#114 = DIRECTION ( 'NONE',  ( -0.1548667441577607773, 0.9879353681056138869, 0.000000000000000000 ) ) ;
#115 = LINE ( 'NONE', #678, #117 ) ;
#116 = AXIS2_PLACEMENT_3D ( 'NONE', #745, #182, #371 ) ;
#117 = VECTOR ( 'NONE', #673, 999.9999999999998863 ) ;
#118 = AXIS2_PLACEMENT_3D ( 'NONE', #704, #35, #336 ) ;
#119 = ORIENTED_EDGE ( 'NONE', *, *, #534, .F. ) ;
#120 = LINE ( 'NONE', #362, #541 ) ;
#121 = DIRECTION ( 'NONE',  ( 0.000000000000000000, 0.000000000000000000, 1.000000000000000000 ) ) ;
#122 = EDGE_LOOP ( 'NONE', ( #358, #87, #105, #190, #787, #586, #334 ) ) ;
#123 = DIRECTION ( 'NONE',  ( -0.000000000000000000, -0.000000000000000000, -1.000000000000000000 ) ) ;
#124 = LINE ( 'NONE', #3, #239 ) ;
#125 = ORIENTED_EDGE ( 'NONE', *, *, #653, .F. ) ;
#126 = ORIENTED_EDGE ( 'NONE', *, *, #375, .F. ) ;
#127 = FACE_OUTER_BOUND ( 'NONE', #397, .T. ) ;
#128 = CARTESIAN_POINT ( 'NONE',  ( 9.442292047262299093, -4.234234130712469124, 1.800000000000000044 ) ) ;
#129 = ORIENTED_EDGE ( 'NONE', *, *, #405, .F. ) ;
#130 = VECTOR ( 'NONE', #533, 999.9999999999998863 ) ;
#131 = ORIENTED_EDGE ( 'NONE', *, *, #576, .T. ) ;
#132 = CARTESIAN_POINT ( 'NONE',  ( 5.041020910850374293, -9.469781066617137810, 1.800000000000000044 ) ) ;
#133 = LINE ( 'NONE', #391, #687 ) ;
#134 = ORIENTED_EDGE ( 'NONE', *, *, #205, .F. ) ;
#135 = DIRECTION ( 'NONE',  ( 0.000000000000000000, 0.000000000000000000, -1.000000000000000000 ) ) ;
#136 = CARTESIAN_POINT ( 'NONE',  ( 6.810905879200868540, -4.646724888332433245, 3.799999999999999822 ) ) ;
#137 = EDGE_CURVE ( 'NONE', #329, #214, #645, .T. ) ;
#138 = DIRECTION ( 'NONE',  ( 0.000000000000000000, 0.000000000000000000, -1.000000000000000000 ) ) ;
#139 = ORIENTED_EDGE ( 'NONE', *, *, #685, .F. ) ;
#140 = LINE ( 'NONE', #495, #9 ) ;
#141 = FACE_OUTER_BOUND ( 'NONE', #661, .T. ) ;
#142 = VECTOR ( 'NONE', #442, 1000.000000000000000 ) ;
#143 = ORIENTED_EDGE ( 'NONE', *, *, #79, .F. ) ;
#144 = VECTOR ( 'NONE', #231, 1000.000000000000000 ) ;
#145 = VECTOR ( 'NONE', #599, 1000.000000000000000 ) ;
#146 = LINE ( 'NONE', #625, #226 ) ;
#147 = ADVANCED_FACE ( 'NONE', ( #585 ), #382, .F. ) ;
#148 = DIRECTION ( 'NONE',  ( -0.000000000000000000, -0.000000000000000000, -1.000000000000000000 ) ) ;
#149 = ORIENTED_EDGE ( 'NONE', *, *, #419, .F. ) ;
#150 = CARTESIAN_POINT ( 'NONE',  ( 8.104275536926804691, -6.867932223259215263, 2.800000000000000266 ) ) ;
#151 = DIRECTION ( 'NONE',  ( 0.000000000000000000, 0.000000000000000000, 1.000000000000000000 ) ) ;
#152 = ORIENTED_EDGE ( 'NONE', *, *, #16, .F. ) ;
#153 = EDGE_CURVE ( 'NONE', #373, #722, #262, .T. ) ;
#154 = ADVANCED_FACE ( 'NONE', ( #450, #141 ), #387, .T. ) ;
#155 = DIRECTION ( 'NONE',  ( -0.9879353681056137759, -0.1548667441577617210, 0.000000000000000000 ) ) ;
#156 = DIRECTION ( 'NONE',  ( 0.000000000000000000, 0.000000000000000000, 1.000000000000000000 ) ) ;
#157 = EDGE_LOOP ( 'NONE', ( #730, #222, #30, #280 ) ) ;
#158 = VECTOR ( 'NONE', #25, 999.9999999999998863 ) ;
#159 = CARTESIAN_POINT ( 'NONE',  ( 5.719064999727712539, 0.4455340904661549417, 3.799999999999999822 ) ) ;
#160 = VECTOR ( 'NONE', #479, 1000.000000000000000 ) ;
#161 = VECTOR ( 'NONE', #294, 1000.000000000000000 ) ;
#162 = DIRECTION ( 'NONE',  ( 0.000000000000000000, 0.000000000000000000, -1.000000000000000000 ) ) ;
#163 = ORIENTED_EDGE ( 'NONE', *, *, #365, .F. ) ;
#164 = FACE_OUTER_BOUND ( 'NONE', #81, .T. ) ;
#165 = LINE ( 'NONE', #177, #369 ) ;
#166 = ORIENTED_EDGE ( 'NONE', *, *, #49, .F. ) ;
#167 = DIRECTION ( 'NONE',  ( -0.1412253071329679088, 0.9899774808677210824, 0.000000000000000000 ) ) ;
#168 = EDGE_LOOP ( 'NONE', ( #424, #697, #458, #494 ) ) ;
#169 = LINE ( 'NONE', #56, #622 ) ;
#170 = STYLED_ITEM ( 'NONE', ( #275 ), #77 ) ;
#171 = AXIS2_PLACEMENT_3D ( 'NONE', #723, #663, #540 ) ;
#172 = EDGE_CURVE ( 'NONE', #741, #650, #31, .T. ) ;
#173 = ORIENTED_EDGE ( 'NONE', *, *, #405, .T. ) ;
#174 = CARTESIAN_POINT ( 'NONE',  ( 8.505149150781276646, 8.240101836395481882, 0.000000000000000000 ) ) ;
#175 = ORIENTED_EDGE ( 'NONE', *, *, #668, .F. ) ;
#176 = DIRECTION ( 'NONE',  ( -0.000000000000000000, -0.000000000000000000, -1.000000000000000000 ) ) ;
#177 = CARTESIAN_POINT ( 'NONE',  ( 3.631823148235541865, -9.690684049156404356, 0.000000000000000000 ) ) ;
#178 = VERTEX_POINT ( 'NONE', #763 ) ;
#179 = DIRECTION ( 'NONE',  ( -0.000000000000000000, -0.000000000000000000, -1.000000000000000000 ) ) ;
#180 = EDGE_CURVE ( 'NONE', #430, #618, #582, .T. ) ;
#181 = DIRECTION ( 'NONE',  ( -0.9879353681056137759, -0.1548667441577607218, 0.000000000000000000 ) ) ;
#182 = DIRECTION ( 'NONE',  ( -0.000000000000000000, -0.000000000000000000, -1.000000000000000000 ) ) ;
#183 = DIRECTION ( 'NONE',  ( 0.9879353681056137759, 0.1548667441577606663, 0.000000000000000000 ) ) ;
#184 = DIRECTION ( 'NONE',  ( -0.9879353681056137759, -0.1548667441577605552, 0.000000000000000000 ) ) ;
#185 = ORIENTED_EDGE ( 'NONE', *, *, #393, .F. ) ;
#186 = FACE_BOUND ( 'NONE', #43, .T. ) ;
#187 = UNCERTAINTY_MEASURE_WITH_UNIT (LENGTH_MEASURE( 1.000000000000000082E-05 ), #750, 'distance_accuracy_value', 'NONE');
#188 = LINE ( 'NONE', #312, #449 ) ;
#189 = LINE ( 'NONE', #252, #500 ) ;
#190 = ORIENTED_EDGE ( 'NONE', *, *, #493, .T. ) ;
#191 = CARTESIAN_POINT ( 'NONE',  ( 9.442292047262299093, -4.234234130712469124, 3.799999999999999822 ) ) ;
#192 = EDGE_LOOP ( 'NONE', ( #216, #558, #490, #646, #321, #603 ) ) ;
#193 = AXIS2_PLACEMENT_3D ( 'NONE', #783, #483, #492 ) ;
#194 = VECTOR ( 'NONE', #478, 1000.000000000000000 ) ;
#195 = EDGE_LOOP ( 'NONE', ( #778, #377 ) ) ;
#196 = FACE_BOUND ( 'NONE', #433, .T. ) ;
#197 = LINE ( 'NONE', #443, #386 ) ;
#198 = VERTEX_POINT ( 'NONE', #578 ) ;
#199 = EDGE_LOOP ( 'NONE', ( #775, #288, #232, #166 ) ) ;
#200 = DIRECTION ( 'NONE',  ( 0.000000000000000000, 0.000000000000000000, -1.000000000000000000 ) ) ;
#201 = CARTESIAN_POINT ( 'NONE',  ( 8.332371258114248391, 9.491174163248356166, 4.800000000000000711 ) ) ;
#202 = ORIENTED_EDGE ( 'NONE', *, *, #244, .T. ) ;
#203 = DIRECTION ( 'NONE',  ( -0.07766798534269503396, 0.9969792796506889987, 0.000000000000000000 ) ) ;
#204 = CARTESIAN_POINT ( 'NONE',  ( 7.256921829237093391, 7.212684422918350435, 1.800000000000000044 ) ) ;
#205 = EDGE_CURVE ( 'NONE', #272, #579, #98, .T. ) ;
#206 =( LENGTH_UNIT ( ) NAMED_UNIT ( * ) SI_UNIT ( .MILLI., .METRE. ) );
#207 = EDGE_LOOP ( 'NONE', ( #185, #643, #631, #307 ) ) ;
#208 = DIRECTION ( 'NONE',  ( -0.9899774808677209714, -0.1412253071329678811, 0.000000000000000000 ) ) ;
#209 = EDGE_CURVE ( 'NONE', #518, #364, #767, .T. ) ;
#210 = EDGE_CURVE ( 'NONE', #414, #211, #165, .T. ) ;
#211 = VERTEX_POINT ( 'NONE', #219 ) ;
#212 = PLANE ( 'NONE',  #33 ) ;
#213 = DIRECTION ( 'NONE',  ( -0.07766798534269503396, 0.9969792796506889987, 0.000000000000000000 ) ) ;
#214 = VERTEX_POINT ( 'NONE', #429 ) ;
#215 = FACE_OUTER_BOUND ( 'NONE', #675, .T. ) ;
#216 = ORIENTED_EDGE ( 'NONE', *, *, #210, .F. ) ;
#217 = CARTESIAN_POINT ( 'NONE',  ( 6.409571851331286929, 5.011797547153411081, 1.800000000000000044 ) ) ;
#218 = AXIS2_PLACEMENT_3D ( 'NONE', #667, #114, #354 ) ;
#219 = CARTESIAN_POINT ( 'NONE',  ( 3.631823148235541865, -9.690684049156404356, 0.000000000000000000 ) ) ;
#220 = EDGE_LOOP ( 'NONE', ( #242, #455, #22, #559 ) ) ;
#221 = CARTESIAN_POINT ( 'NONE',  ( 11.15442703025327376, -8.511455925123827981, 4.800000000000000711 ) ) ;
#222 = ORIENTED_EDGE ( 'NONE', *, *, #244, .F. ) ;
#223 = CARTESIAN_POINT ( 'NONE',  ( 8.332371258114248391, 9.491174163248356166, 4.800000000000000711 ) ) ;
#224 = ORIENTED_EDGE ( 'NONE', *, *, #592, .F. ) ;
#225 = CYLINDRICAL_SURFACE ( 'NONE', #649, 1.100000000000000977 ) ;
#226 = VECTOR ( 'NONE', #563, 999.9999999999998863 ) ;
#227 = AXIS2_PLACEMENT_3D ( 'NONE', #734, #420, #234 ) ;
#228 = VECTOR ( 'NONE', #135, 1000.000000000000000 ) ;
#229 = ORIENTED_EDGE ( 'NONE', *, *, #706, .T. ) ;
#230 = DIRECTION ( 'NONE',  ( -0.000000000000000000, -0.000000000000000000, -1.000000000000000000 ) ) ;
#231 = DIRECTION ( 'NONE',  ( 0.000000000000000000, 0.000000000000000000, -1.000000000000000000 ) ) ;
#232 = ORIENTED_EDGE ( 'NONE', *, *, #668, .T. ) ;
#233 = EDGE_CURVE ( 'NONE', #272, #373, #124, .T. ) ;
#234 = DIRECTION ( 'NONE',  ( -0.9879353681056138869, -0.1548667441577606385, 0.000000000000000000 ) ) ;
#235 = PLANE ( 'NONE',  #193 ) ;
#236 = LINE ( 'NONE', #361, #539 ) ;
#237 = DIRECTION ( 'NONE',  ( 0.000000000000000000, 0.000000000000000000, -1.000000000000000000 ) ) ;
#238 = CARTESIAN_POINT ( 'NONE',  ( 6.409571851331286929, 5.011797547153411081, 1.800000000000000044 ) ) ;
#239 = VECTOR ( 'NONE', #101, 1000.000000000000114 ) ;
#240 = CIRCLE ( 'NONE', #348, 1.999999999999999778 ) ;
#241 = SURFACE_SIDE_STYLE ('',( #8 ) ) ;
#242 = ORIENTED_EDGE ( 'NONE', *, *, #301, .F. ) ;
#243 = CARTESIAN_POINT ( 'NONE',  ( 2.634095025698325987, 7.402566197420775040, 1.800000000000000044 ) ) ;
#244 = EDGE_CURVE ( 'NONE', #198, #394, #363, .T. ) ;
#245 = CARTESIAN_POINT ( 'NONE',  ( 3.631823148235541865, -9.690684049156404356, 4.800000000000000711 ) ) ;
#246 = ORIENTED_EDGE ( 'NONE', *, *, #180, .T. ) ;
#247 = DIRECTION ( 'NONE',  ( 0.000000000000000000, 0.000000000000000000, 1.000000000000000000 ) ) ;
#248 = EDGE_LOOP ( 'NONE', ( #68, #259, #255, #27 ) ) ;
#249 = ORIENTED_EDGE ( 'NONE', *, *, #440, .T. ) ;
#250 = DIRECTION ( 'NONE',  ( 0.9879353681056142200, 0.1548667441577587789, 0.000000000000000000 ) ) ;
#251 = CARTESIAN_POINT ( 'NONE',  ( 8.332371258114248391, 9.491174163248356166, 4.800000000000000711 ) ) ;
#252 = CARTESIAN_POINT ( 'NONE',  ( 8.332371258114248391, 9.491174163248356166, 0.000000000000000000 ) ) ;
#253 = EDGE_CURVE ( 'NONE', #466, #198, #555, .T. ) ;
#254 = VECTOR ( 'NONE', #739, 1000.000000000000000 ) ;
#255 = ORIENTED_EDGE ( 'NONE', *, *, #598, .T. ) ;
#256 = FACE_BOUND ( 'NONE', #402, .T. ) ;
#257 = CARTESIAN_POINT ( 'NONE',  ( 5.041020910850374293, -9.469781066617137810, 0.000000000000000000 ) ) ;
#258 = FACE_OUTER_BOUND ( 'NONE', #207, .T. ) ;
#259 = ORIENTED_EDGE ( 'NONE', *, *, #153, .F. ) ;
#260 = EDGE_CURVE ( 'NONE', #47, #102, #671, .T. ) ;
#261 = CYLINDRICAL_SURFACE ( 'NONE', #737, 1.999999999999999778 ) ;
#262 = LINE ( 'NONE', #696, #714 ) ;
#263 = VERTEX_POINT ( 'NONE', #669 ) ;
#264 = DIRECTION ( 'NONE',  ( 0.000000000000000000, 0.000000000000000000, 1.000000000000000000 ) ) ;
#265 = SURFACE_STYLE_USAGE ( .BOTH. , #241 ) ;
#266 = PRESENTATION_LAYER_ASSIGNMENT (  '', '', ( #170 ) ) ;
#267 = VERTEX_POINT ( 'NONE', #64 ) ;
#268 = CIRCLE ( 'NONE', #107, 1.100000000000000977 ) ;
#269 = DIRECTION ( 'NONE',  ( -0.000000000000000000, -0.000000000000000000, -1.000000000000000000 ) ) ;
#270 = EDGE_CURVE ( 'NONE', #618, #263, #295, .T. ) ;
#271 = CARTESIAN_POINT ( 'NONE',  ( 6.409571851331286929, 5.011797547153411081, 2.800000000000000266 ) ) ;
#272 = VERTEX_POINT ( 'NONE', #719 ) ;
#273 = DIRECTION ( 'NONE',  ( 0.9899774808677209714, 0.1412253071329678811, 0.000000000000000000 ) ) ;
#274 = EDGE_CURVE ( 'NONE', #93, #353, #528, .T. ) ;
#275 = PRESENTATION_STYLE_ASSIGNMENT (( #265 ) ) ;
#276 = EDGE_CURVE ( 'NONE', #13, #710, #700, .T. ) ;
#277 = ORIENTED_EDGE ( 'NONE', *, *, #365, .T. ) ;
#278 = CARTESIAN_POINT ( 'NONE',  ( 9.442292047262299093, -4.234234130712469124, 3.799999999999999822 ) ) ;
#279 = DIRECTION ( 'NONE',  ( -0.9879353681056137759, -0.1548667441577606663, 0.000000000000000000 ) ) ;
#280 = ORIENTED_EDGE ( 'NONE', *, *, #434, .T. ) ;
#281 = VECTOR ( 'NONE', #181, 1000.000000000000227 ) ;
#282 = DIRECTION ( 'NONE',  ( -0.000000000000000000, -0.000000000000000000, -1.000000000000000000 ) ) ;
#283 = ORIENTED_EDGE ( 'NONE', *, *, #233, .F. ) ;
#284 = DIRECTION ( 'NONE',  ( 0.000000000000000000, 0.000000000000000000, -1.000000000000000000 ) ) ;
#285 = VERTEX_POINT ( 'NONE', #302 ) ;
#286 = LINE ( 'NONE', #223, #130 ) ;
#287 = ADVANCED_FACE ( 'NONE', ( #341 ), #235, .F. ) ;
#288 = ORIENTED_EDGE ( 'NONE', *, *, #337, .T. ) ;
#289 = CARTESIAN_POINT ( 'NONE',  ( 6.409571851331286929, 5.011797547153411081, 2.800000000000000266 ) ) ;
#290 = MECHANICAL_DESIGN_GEOMETRIC_PRESENTATION_REPRESENTATION (  '', ( #170 ), #724 ) ;
#291 = DIRECTION ( 'NONE',  ( -0.9879353681056138869, -0.1548667441577607495, 0.000000000000000000 ) ) ;
#292 = VECTOR ( 'NONE', #44, 1000.000000000000114 ) ;
#293 = ORIENTED_EDGE ( 'NONE', *, *, #330, .F. ) ;
#294 = DIRECTION ( 'NONE',  ( 0.000000000000000000, 0.000000000000000000, -1.000000000000000000 ) ) ;
#295 = LINE ( 'NONE', #658, #502 ) ;
#296 = EDGE_LOOP ( 'NONE', ( #349, #538 ) ) ;
#297 = CARTESIAN_POINT ( 'NONE',  ( 7.496300756247463504, 5.182150965726948222, 2.800000000000000266 ) ) ;
#298 = PLANE ( 'NONE',  #415 ) ;
#299 = FILL_AREA_STYLE_COLOUR ( '', #553 ) ;
#300 = PRODUCT_CONTEXT ( 'NONE', #657, 'mechanical' ) ;
#301 = EDGE_CURVE ( 'NONE', #285, #13, #39, .T. ) ;
#302 = CARTESIAN_POINT ( 'NONE',  ( 8.385442587542515369, 5.321531035468932913, 2.800000000000000266 ) ) ;
#303 = VECTOR ( 'NONE', #617, 999.9999999999998863 ) ;
#304 = CIRCLE ( 'NONE', #10, 1.100000000000000089 ) ;
#305 = VERTEX_POINT ( 'NONE', #426 ) ;
#306 =( GEOMETRIC_REPRESENTATION_CONTEXT ( 3 ) GLOBAL_UNCERTAINTY_ASSIGNED_CONTEXT ( ( #187 ) ) GLOBAL_UNIT_ASSIGNED_CONTEXT ( ( #750, #632, #499 ) ) REPRESENTATION_CONTEXT ( 'NONE', 'WORKASPACE' ) );
#307 = ORIENTED_EDGE ( 'NONE', *, *, #713, .T. ) ;
#308 = ADVANCED_FACE ( 'NONE', ( #595 ), #298, .F. ) ;
#309 = CARTESIAN_POINT ( 'NONE',  ( 2.634095025698325987, 7.402566197420775040, 1.800000000000000044 ) ) ;
#310 = VERTEX_POINT ( 'NONE', #735 ) ;
#311 = ORIENTED_EDGE ( 'NONE', *, *, #534, .T. ) ;
#312 = CARTESIAN_POINT ( 'NONE',  ( 5.041020910850374293, -9.469781066617137810, 0.000000000000000000 ) ) ;
#313 = EDGE_CURVE ( 'NONE', #532, #551, #115, .T. ) ;
#314 = CARTESIAN_POINT ( 'NONE',  ( 4.433701115120059377, 4.702064058837890137, 2.800000000000000266 ) ) ;
#315 = PLANE ( 'NONE',  #728 ) ;
#316 = FACE_OUTER_BOUND ( 'NONE', #195, .T. ) ;
#317 = VECTOR ( 'NONE', #213, 1000.000000000000227 ) ;
#318 = AXIS2_PLACEMENT_3D ( 'NONE', #238, #488, #184 ) ;
#319 = FACE_OUTER_BOUND ( 'NONE', #435, .T. ) ;
#320 = AXIS2_PLACEMENT_3D ( 'NONE', #683, #264, #693 ) ;
#321 = ORIENTED_EDGE ( 'NONE', *, *, #419, .T. ) ;
#322 = DIRECTION ( 'NONE',  ( -0.1548667441577587789, 0.9879353681056142200, 0.000000000000000000 ) ) ;
#323 = DIRECTION ( 'NONE',  ( 0.000000000000000000, 0.000000000000000000, 1.000000000000000000 ) ) ;
#324 = DIRECTION ( 'NONE',  ( -0.9879353681056137759, -0.1548667441577605552, 0.000000000000000000 ) ) ;
#325 = PRODUCT_RELATED_PRODUCT_CATEGORY ( 'part', '', ( #583 ) ) ;
#326 = ORIENTED_EDGE ( 'NONE', *, *, #772, .F. ) ;
#327 = FACE_OUTER_BOUND ( 'NONE', #345, .T. ) ;
#328 = DIRECTION ( 'NONE',  ( -0.9879353681056138869, -0.1548667441577607495, 0.000000000000000000 ) ) ;
#329 = VERTEX_POINT ( 'NONE', #795 ) ;
#330 = EDGE_CURVE ( 'NONE', #305, #764, #360, .T. ) ;
#331 = LINE ( 'NONE', #343, #67 ) ;
#332 = DIRECTION ( 'NONE',  ( 0.000000000000000000, 0.000000000000000000, -1.000000000000000000 ) ) ;
#333 = PRODUCT_DEFINITION_SHAPE ( 'NONE', 'NONE',  #691 ) ;
#334 = ORIENTED_EDGE ( 'NONE', *, *, #79, .T. ) ;
#335 = AXIS2_PLACEMENT_3D ( 'NONE', #159, #656, #42 ) ;
#336 = DIRECTION ( 'NONE',  ( -0.9879353681056138869, -0.1548667441577606385, 0.000000000000000000 ) ) ;
#337 = EDGE_CURVE ( 'NONE', #364, #102, #732, .T. ) ;
#338 = CARTESIAN_POINT ( 'NONE',  ( 8.104275536926804691, -6.867932223259215263, 2.800000000000000266 ) ) ;
#339 = ORIENTED_EDGE ( 'NONE', *, *, #381, .T. ) ;
#340 = DIRECTION ( 'NONE',  ( -0.000000000000000000, -0.000000000000000000, -1.000000000000000000 ) ) ;
#341 = FACE_OUTER_BOUND ( 'NONE', #445, .T. ) ;
#342 = ORIENTED_EDGE ( 'NONE', *, *, #137, .T. ) ;
#343 = CARTESIAN_POINT ( 'NONE',  ( 9.442292047262299093, -4.234234130712469124, 1.800000000000000044 ) ) ;
#344 = DIRECTION ( 'NONE',  ( -0.9879353681056138869, -0.1548667441577606385, 0.000000000000000000 ) ) ;
#345 = EDGE_LOOP ( 'NONE', ( #224, #246, #17, #152 ) ) ;
#346 = CIRCLE ( 'NONE', #318, 1.100000000000000977 ) ;
#347 = PLANE ( 'NONE',  #738 ) ;
#348 = AXIS2_PLACEMENT_3D ( 'NONE', #611, #176, #672 ) ;
#349 = ORIENTED_EDGE ( 'NONE', *, *, #521, .T. ) ;
#350 = CARTESIAN_POINT ( 'NONE',  ( 6.810905879200868540, -4.646724888332433245, 3.799999999999999822 ) ) ;
#351 = ORIENTED_EDGE ( 'NONE', *, *, #205, .T. ) ;
#352 = CARTESIAN_POINT ( 'NONE',  ( 6.409571851331286929, 5.011797547153411081, 2.800000000000000266 ) ) ;
#353 = VERTEX_POINT ( 'NONE', #591 ) ;
#354 = DIRECTION ( 'NONE',  ( 0.000000000000000000, 0.000000000000000000, 1.000000000000000000 ) ) ;
#355 = CARTESIAN_POINT ( 'NONE',  ( 7.017546632010629004, -7.038285641832751516, 2.800000000000000266 ) ) ;
#356 = PRODUCT_DEFINITION_FORMATION_WITH_SPECIFIED_SOURCE ( 'ANY', '', #583, .NOT_KNOWN. ) ;
#357 = VECTOR ( 'NONE', #203, 1000.000000000000227 ) ;
#358 = ORIENTED_EDGE ( 'NONE', *, *, #679, .T. ) ;
#359 = LINE ( 'NONE', #60, #194 ) ;
#360 = LINE ( 'NONE', #243, #568 ) ;
#361 = CARTESIAN_POINT ( 'NONE',  ( 8.505149150781276646, 8.240101836395481882, 0.000000000000000000 ) ) ;
#362 = CARTESIAN_POINT ( 'NONE',  ( 5.700618256607134171, 2.436089547366280694, 3.799999999999999822 ) ) ;
#363 = LINE ( 'NONE', #423, #144 ) ;
#364 = VERTEX_POINT ( 'NONE', #355 ) ;
#365 = EDGE_CURVE ( 'NONE', #452, #267, #609, .T. ) ;
#366 = CYLINDRICAL_SURFACE ( 'NONE', #505, 1.100000000000000089 ) ;
#367 = FACE_OUTER_BOUND ( 'NONE', #248, .T. ) ;
#368 = AXIS2_PLACEMENT_3D ( 'NONE', #201, #520, #396 ) ;
#369 = VECTOR ( 'NONE', #410, 1000.000000000000227 ) ;
#370 = CIRCLE ( 'NONE', #689, 4.926998846378876529 ) ;
#371 = DIRECTION ( 'NONE',  ( -0.9879353681056138869, -0.1548667441577606385, 0.000000000000000000 ) ) ;
#372 = AXIS2_PLACEMENT_3D ( 'NONE', #686, #322, #250 ) ;
#373 = VERTEX_POINT ( 'NONE', #6 ) ;
#374 = FACE_OUTER_BOUND ( 'NONE', #199, .T. ) ;
#375 = EDGE_CURVE ( 'NONE', #790, #726, #346, .T. ) ;
#376 = FACE_OUTER_BOUND ( 'NONE', #703, .T. ) ;
#377 = ORIENTED_EDGE ( 'NONE', *, *, #496, .F. ) ;
#378 = ORIENTED_EDGE ( 'NONE', *, *, #652, .F. ) ;
#379 = DIRECTION ( 'NONE',  ( 0.000000000000000000, 0.000000000000000000, 1.000000000000000000 ) ) ;
#380 = CARTESIAN_POINT ( 'NONE',  ( 2.557776325395889394, 8.693680427621902851, 0.000000000000000000 ) ) ;
#381 = EDGE_CURVE ( 'NONE', #394, #532, #640, .T. ) ;
#382 = CYLINDRICAL_SURFACE ( 'NONE', #792, 1.999999999999999778 ) ;
#383 = FACE_OUTER_BOUND ( 'NONE', #470, .T. ) ;
#384 = FACE_OUTER_BOUND ( 'NONE', #1, .T. ) ;
#385 = AXIS2_PLACEMENT_3D ( 'NONE', #610, #59, #4 ) ;
#386 = VECTOR ( 'NONE', #15, 1000.000000000000000 ) ;
#387 = PLANE ( 'NONE',  #486 ) ;
#388 = EDGE_CURVE ( 'NONE', #267, #272, #19, .T. ) ;
#389 = CIRCLE ( 'NONE', #701, 1.999999999999999778 ) ;
#390 = EDGE_LOOP ( 'NONE', ( #125, #497, #571, #90 ) ) ;
#391 = CARTESIAN_POINT ( 'NONE',  ( 5.322842946415110355, 4.841444128579874828, 4.800000000000000711 ) ) ;
#392 = CARTESIAN_POINT ( 'NONE',  ( 8.332371258114248391, 9.491174163248356166, 1.800000000000000044 ) ) ;
#393 = EDGE_CURVE ( 'NONE', #272, #93, #146, .T. ) ;
#394 = VERTEX_POINT ( 'NONE', #621 ) ;
#395 = DIRECTION ( 'NONE',  ( -0.9879353681056138869, -0.1548667441577606385, 0.000000000000000000 ) ) ;
#396 = DIRECTION ( 'NONE',  ( 0.000000000000000000, 0.000000000000000000, -1.000000000000000000 ) ) ;
#397 = EDGE_LOOP ( 'NONE', ( #143, #626, #596, #342 ) ) ;
#398 = EDGE_CURVE ( 'NONE', #650, #790, #133, .T. ) ;
#399 = PLANE ( 'NONE',  #503 ) ;
#400 = CARTESIAN_POINT ( 'NONE',  ( 2.344806068534511567, 6.830014348734375851, 0.000000000000000000 ) ) ;
#401 = AXIS2_PLACEMENT_3D ( 'NONE', #756, #151, #715 ) ;
#402 = EDGE_LOOP ( 'NONE', ( #770, #175 ) ) ;
#403 = AXIS2_PLACEMENT_3D ( 'NONE', #191, #436, #573 ) ;
#404 = PLANE ( 'NONE',  #335 ) ;
#405 = EDGE_CURVE ( 'NONE', #310, #466, #744, .T. ) ;
#406 = CARTESIAN_POINT ( 'NONE',  ( 8.104275536926804691, -6.867932223259215263, 1.800000000000000044 ) ) ;
#407 = VERTEX_POINT ( 'NONE', #380 ) ;
#408 = CARTESIAN_POINT ( 'NONE',  ( 8.505149150781276646, 8.240101836395481882, 1.800000000000000044 ) ) ;
#409 = ADVANCED_FACE ( 'NONE', ( #327 ), #634, .F. ) ;
#410 = DIRECTION ( 'NONE',  ( -0.9879353681056137759, -0.1548667441577607218, 0.000000000000000000 ) ) ;
#411 = ORIENTED_EDGE ( 'NONE', *, *, #398, .F. ) ;
#412 = CARTESIAN_POINT ( 'NONE',  ( 7.256921829237093391, 7.212684422918350435, 4.800000000000000711 ) ) ;
#413 = ADVANCED_FACE ( 'NONE', ( #376 ), #261, .F. ) ;
#414 = VERTEX_POINT ( 'NONE', #257 ) ;
#415 = AXIS2_PLACEMENT_3D ( 'NONE', #61, #52, #291 ) ;
#416 = FACE_OUTER_BOUND ( 'NONE', #390, .T. ) ;
#417 = CIRCLE ( 'NONE', #476, 4.926998846378876529 ) ;
#418 = EDGE_LOOP ( 'NONE', ( #525, #561 ) ) ;
#419 = EDGE_CURVE ( 'NONE', #589, #20, #577, .T. ) ;
#420 = DIRECTION ( 'NONE',  ( 0.000000000000000000, 0.000000000000000000, 1.000000000000000000 ) ) ;
#421 = ORIENTED_EDGE ( 'NONE', *, *, #253, .F. ) ;
#422 = FACE_OUTER_BOUND ( 'NONE', #491, .T. ) ;
#423 = CARTESIAN_POINT ( 'NONE',  ( 8.332004424668568277, 2.848580304986236822, 3.799999999999999822 ) ) ;
#424 = ORIENTED_EDGE ( 'NONE', *, *, #679, .F. ) ;
#425 = DIRECTION ( 'NONE',  ( 0.000000000000000000, 0.000000000000000000, -1.000000000000000000 ) ) ;
#426 = CARTESIAN_POINT ( 'NONE',  ( 2.634095025698325987, 7.402566197420775040, 1.800000000000000044 ) ) ;
#427 = LINE ( 'NONE', #504, #781 ) ;
#428 = FACE_OUTER_BOUND ( 'NONE', #192, .T. ) ;
#429 = CARTESIAN_POINT ( 'NONE',  ( 2.344806068534511567, 6.830014348734375851, 0.000000000000000000 ) ) ;
#430 = VERTEX_POINT ( 'NONE', #28 ) ;
#431 = CARTESIAN_POINT ( 'NONE',  ( 2.634095025698325987, 7.402566197420775040, 0.000000000000000000 ) ) ;
#432 = FACE_BOUND ( 'NONE', #418, .T. ) ;
#433 = EDGE_LOOP ( 'NONE', ( #473, #126 ) ) ;
#434 = EDGE_CURVE ( 'NONE', #438, #532, #197, .T. ) ;
#435 = EDGE_LOOP ( 'NONE', ( #163, #54, #326, #149, #139 ) ) ;
#436 = DIRECTION ( 'NONE',  ( 0.9879353681056138869, 0.1548667441577607495, -0.000000000000000000 ) ) ;
#437 = ORIENTED_EDGE ( 'NONE', *, *, #652, .T. ) ;
#438 = VERTEX_POINT ( 'NONE', #508 ) ;
#439 = FACE_OUTER_BOUND ( 'NONE', #157, .T. ) ;
#440 = EDGE_CURVE ( 'NONE', #551, #477, #140, .T. ) ;
#441 = DIRECTION ( 'NONE',  ( -0.9879353681056138869, -0.1548667441577606385, 0.000000000000000000 ) ) ;
#442 = DIRECTION ( 'NONE',  ( 0.000000000000000000, 0.000000000000000000, -1.000000000000000000 ) ) ;
#443 = CARTESIAN_POINT ( 'NONE',  ( 5.700618256607134171, 2.436089547366280694, 3.799999999999999822 ) ) ;
#444 = LINE ( 'NONE', #400, #317 ) ;
#445 = EDGE_LOOP ( 'NONE', ( #716, #41, #748, #480 ) ) ;
#446 = PLANE ( 'NONE',  #372 ) ;
#447 = DIRECTION ( 'NONE',  ( 0.000000000000000000, 0.000000000000000000, -1.000000000000000000 ) ) ;
#448 = CIRCLE ( 'NONE', #116, 1.999999999999999778 ) ;
#449 = VECTOR ( 'NONE', #695, 1000.000000000000227 ) ;
#450 = FACE_BOUND ( 'NONE', #110, .T. ) ;
#451 = VECTOR ( 'NONE', #208, 1000.000000000000114 ) ;
#452 = VERTEX_POINT ( 'NONE', #84 ) ;
#453 = CARTESIAN_POINT ( 'NONE',  ( 9.191004441842979489, -6.697578804685678122, 2.800000000000000266 ) ) ;
#454 = PLANE ( 'NONE',  #401 ) ;
#455 = ORIENTED_EDGE ( 'NONE', *, *, #496, .T. ) ;
#456 = CARTESIAN_POINT ( 'NONE',  ( 6.810905879200868540, -4.646724888332433245, 3.799999999999999822 ) ) ;
#457 = DIRECTION ( 'NONE',  ( 0.000000000000000000, 0.000000000000000000, 1.000000000000000000 ) ) ;
#458 = ORIENTED_EDGE ( 'NONE', *, *, #588, .T. ) ;
#459 = LINE ( 'NONE', #278, #516 ) ;
#460 = PLANE ( 'NONE',  #368 ) ;
#461 = AXIS2_PLACEMENT_3D ( 'NONE', #406, #654, #279 ) ;
#462 = EDGE_LOOP ( 'NONE', ( #512, #293, #742, #34 ) ) ;
#463 = EDGE_CURVE ( 'NONE', #764, #414, #188, .T. ) ;
#464 = CARTESIAN_POINT ( 'NONE',  ( 8.332371258114248391, 9.491174163248356166, 1.800000000000000044 ) ) ;
#465 = DIRECTION ( 'NONE',  ( 0.000000000000000000, 0.000000000000000000, 1.000000000000000000 ) ) ;
#466 = VERTEX_POINT ( 'NONE', #76 ) ;
#467 = LINE ( 'NONE', #106, #145 ) ;
#468 = ADVANCED_FACE ( 'NONE', ( #432, #316 ), #567, .T. ) ;
#469 = ADVANCED_FACE ( 'NONE', ( #384 ), #747, .F. ) ;
#470 = EDGE_LOOP ( 'NONE', ( #565, #593, #65, #639, #283 ) ) ;
#471 = CYLINDRICAL_SURFACE ( 'NONE', #227, 1.999999999999999778 ) ;
#472 = ADVANCED_FACE ( 'NONE', ( #26 ), #760, .T. ) ;
#473 = ORIENTED_EDGE ( 'NONE', *, *, #576, .F. ) ;
#474 = VECTOR ( 'NONE', #88, 1000.000000000000000 ) ;
#475 = CARTESIAN_POINT ( 'NONE',  ( 4.433701115120059377, 4.702064058837890137, 2.800000000000000266 ) ) ;
#476 = AXIS2_PLACEMENT_3D ( 'NONE', #545, #230, #48 ) ;
#477 = VERTEX_POINT ( 'NONE', #128 ) ;
#478 = DIRECTION ( 'NONE',  ( 0.000000000000000000, 0.000000000000000000, -1.000000000000000000 ) ) ;
#479 = DIRECTION ( 'NONE',  ( 0.000000000000000000, 0.000000000000000000, -1.000000000000000000 ) ) ;
#480 = ORIENTED_EDGE ( 'NONE', *, *, #642, .T. ) ;
#481 = CARTESIAN_POINT ( 'NONE',  ( 4.433701115120059377, 4.702064058837890137, 4.800000000000000711 ) ) ;
#482 = ADVANCED_FACE ( 'NONE', ( #367 ), #71, .F. ) ;
#483 = DIRECTION ( 'NONE',  ( -0.9879353681056138869, -0.1548667441577607495, 0.000000000000000000 ) ) ;
#484 = PLANE ( 'NONE',  #385 ) ;
#485 = CARTESIAN_POINT ( 'NONE',  ( 5.322842946415110355, 4.841444128579874828, 2.800000000000000266 ) ) ;
#486 = AXIS2_PLACEMENT_3D ( 'NONE', #638, #156, #328 ) ;
#487 = VECTOR ( 'NONE', #641, 1000.000000000000000 ) ;
#488 = DIRECTION ( 'NONE',  ( -0.000000000000000000, -0.000000000000000000, -1.000000000000000000 ) ) ;
#489 = AXIS2_PLACEMENT_3D ( 'NONE', #217, #594, #580 ) ;
#490 = ORIENTED_EDGE ( 'NONE', *, *, #274, .F. ) ;
#491 = EDGE_LOOP ( 'NONE', ( #229, #498, #670, #793 ) ) ;
#492 = DIRECTION ( 'NONE',  ( -0.000000000000000000, 0.000000000000000000, -1.000000000000000000 ) ) ;
#493 = EDGE_CURVE ( 'NONE', #722, #764, #651, .T. ) ;
#494 = ORIENTED_EDGE ( 'NONE', *, *, #53, .T. ) ;
#495 = CARTESIAN_POINT ( 'NONE',  ( 6.810905879200868540, -4.646724888332433245, 1.800000000000000044 ) ) ;
#496 = EDGE_CURVE ( 'NONE', #285, #733, #636, .T. ) ;
#497 = ORIENTED_EDGE ( 'NONE', *, *, #398, .T. ) ;
#498 = ORIENTED_EDGE ( 'NONE', *, *, #301, .T. ) ;
#499 =( NAMED_UNIT ( * ) SI_UNIT ( $, .STERADIAN. ) SOLID_ANGLE_UNIT ( ) );
#500 = VECTOR ( 'NONE', #684, 1000.000000000000114 ) ;
#501 = CARTESIAN_POINT ( 'NONE',  ( 8.104275536926804691, -6.867932223259215263, 2.800000000000000266 ) ) ;
#502 = VECTOR ( 'NONE', #465, 1000.000000000000000 ) ;
#503 = AXIS2_PLACEMENT_3D ( 'NONE', #464, #721, #38 ) ;
#504 = CARTESIAN_POINT ( 'NONE',  ( 9.191004441842979489, -6.697578804685678122, 4.800000000000000711 ) ) ;
#505 = AXIS2_PLACEMENT_3D ( 'NONE', #682, #620, #23 ) ;
#506 = ORIENTED_EDGE ( 'NONE', *, *, #153, .T. ) ;
#507 = ADVANCED_FACE ( 'NONE', ( #215 ), #347, .F. ) ;
#508 = CARTESIAN_POINT ( 'NONE',  ( 5.700618256607134171, 2.436089547366280694, 3.799999999999999822 ) ) ;
#509 = EDGE_LOOP ( 'NONE', ( #108, #659, #666, #664 ) ) ;
#510 = CARTESIAN_POINT ( 'NONE',  ( 2.344806068534511567, 6.830014348734375851, 1.800000000000000044 ) ) ;
#511 = DIRECTION ( 'NONE',  ( 0.9879353681056137759, 0.1548667441577617210, 0.000000000000000000 ) ) ;
#512 = ORIENTED_EDGE ( 'NONE', *, *, #463, .F. ) ;
#513 = LINE ( 'NONE', #766, #451 ) ;
#514 = ADVANCED_FACE ( 'NONE', ( #660 ), #399, .F. ) ;
#515 = CARTESIAN_POINT ( 'NONE',  ( 6.810905879200868540, -4.646724888332433245, 3.799999999999999822 ) ) ;
#516 = VECTOR ( 'NONE', #526, 1000.000000000000000 ) ;
#517 = AXIS2_PLACEMENT_3D ( 'NONE', #5, #237, #183 ) ;
#518 = VERTEX_POINT ( 'NONE', #453 ) ;
#519 = CARTESIAN_POINT ( 'NONE',  ( 6.128404800715577139, -7.177665711574736207, 2.800000000000000266 ) ) ;
#520 = DIRECTION ( 'NONE',  ( -0.9879353681056138869, -0.1548667441577607495, -0.000000000000000000 ) ) ;
#521 = EDGE_CURVE ( 'NONE', #263, #178, #752, .T. ) ;
#522 = ORIENTED_EDGE ( 'NONE', *, *, #70, .F. ) ;
#523 = CARTESIAN_POINT ( 'NONE',  ( 6.409571851331286929, 5.011797547153411081, 2.800000000000000266 ) ) ;
#524 = DIRECTION ( 'NONE',  ( 0.1548667441577607773, -0.9879353681056138869, -0.000000000000000000 ) ) ;
#525 = ORIENTED_EDGE ( 'NONE', *, *, #172, .T. ) ;
#526 = DIRECTION ( 'NONE',  ( 0.000000000000000000, 0.000000000000000000, -1.000000000000000000 ) ) ;
#527 = AXIS2_PLACEMENT_3D ( 'NONE', #36, #148, #574 ) ;
#528 = LINE ( 'NONE', #104, #281 ) ;
#529 = ORIENTED_EDGE ( 'NONE', *, *, #702, .F. ) ;
#530 = AXIS2_PLACEMENT_3D ( 'NONE', #309, #167, #273 ) ;
#531 = DIRECTION ( 'NONE',  ( -0.9879353681056138869, -0.1548667441577606385, 0.000000000000000000 ) ) ;
#532 = VERTEX_POINT ( 'NONE', #587 ) ;
#533 = DIRECTION ( 'NONE',  ( 0.1548667441577607773, -0.9879353681056138869, 0.000000000000000000 ) ) ;
#534 = EDGE_CURVE ( 'NONE', #477, #394, #331, .T. ) ;
#535 = ORIENTED_EDGE ( 'NONE', *, *, #313, .T. ) ;
#536 = DIRECTION ( 'NONE',  ( -0.9879353681056142200, -0.1548667441577587789, 0.000000000000000000 ) ) ;
#537 = EDGE_CURVE ( 'NONE', #466, #477, #459, .T. ) ;
#538 = ORIENTED_EDGE ( 'NONE', *, *, #16, .T. ) ;
#539 = VECTOR ( 'NONE', #613, 1000.000000000000114 ) ;
#540 = DIRECTION ( 'NONE',  ( 0.9879353681056137759, 0.1548667441577605552, 0.000000000000000000 ) ) ;
#541 = VECTOR ( 'NONE', #536, 999.9999999999998863 ) ;
#542 = PRODUCT_DEFINITION_CONTEXT ( 'detailed design', #786, 'design' ) ;
#543 = CARTESIAN_POINT ( 'NONE',  ( 8.385442587542515369, 5.321531035468932913, 2.800000000000000266 ) ) ;
#544 = ORIENTED_EDGE ( 'NONE', *, *, #718, .T. ) ;
#545 = CARTESIAN_POINT ( 'NONE',  ( 7.256921829237093391, 7.212684422918350435, 0.000000000000000000 ) ) ;
#546 = CARTESIAN_POINT ( 'NONE',  ( 6.409571851331286929, 5.011797547153411081, 4.800000000000000711 ) ) ;
#547 = CARTESIAN_POINT ( 'NONE',  ( 9.191004441842979489, -6.697578804685678122, 1.800000000000000044 ) ) ;
#548 = FACE_OUTER_BOUND ( 'NONE', #509, .T. ) ;
#549 = DIRECTION ( 'NONE',  ( 0.9905979446491360862, 0.1368053802191527557, -0.000000000000000000 ) ) ;
#550 = FILL_AREA_STYLE ('',( #299 ) ) ;
#551 = VERTEX_POINT ( 'NONE', #712 ) ;
#552 = APPLICATION_PROTOCOL_DEFINITION ( 'draft international standard', 'automotive_design', 1998, #786 ) ;
#553 = COLOUR_RGB ( '',0.7921568627450980005, 0.8196078431372548767, 0.9333333333333333481 ) ;
#554 = EDGE_CURVE ( 'NONE', #305, #353, #100, .T. ) ;
#555 = LINE ( 'NONE', #57, #303 ) ;
#556 = VECTOR ( 'NONE', #780, 1000.000000000000114 ) ;
#557 = AXIS2_PLACEMENT_3D ( 'NONE', #82, #63, #572 ) ;
#558 = ORIENTED_EDGE ( 'NONE', *, *, #761, .F. ) ;
#559 = ORIENTED_EDGE ( 'NONE', *, *, #276, .F. ) ;
#560 = DIRECTION ( 'NONE',  ( -0.9879353681056138869, -0.1548667441577606385, 0.000000000000000000 ) ) ;
#561 = ORIENTED_EDGE ( 'NONE', *, *, #653, .T. ) ;
#562 = CARTESIAN_POINT ( 'NONE',  ( 5.322842946415110355, 4.841444128579874828, 1.800000000000000044 ) ) ;
#563 = DIRECTION ( 'NONE',  ( 0.1548667441577607773, -0.9879353681056138869, 0.000000000000000000 ) ) ;
#564 = DIRECTION ( 'NONE',  ( 0.000000000000000000, 0.000000000000000000, 1.000000000000000000 ) ) ;
#565 = ORIENTED_EDGE ( 'NONE', *, *, #393, .T. ) ;
#566 = LINE ( 'NONE', #75, #357 ) ;
#567 = PLANE ( 'NONE',  #320 ) ;
#568 = VECTOR ( 'NONE', #162, 1000.000000000000000 ) ;
#569 = CARTESIAN_POINT ( 'NONE',  ( 7.017546632010629004, -7.038285641832751516, 1.800000000000000044 ) ) ;
#570 = EDGE_CURVE ( 'NONE', #710, #13, #389, .T. ) ;
#571 = ORIENTED_EDGE ( 'NONE', *, *, #375, .T. ) ;
#572 = DIRECTION ( 'NONE',  ( 1.000000000000000000, 0.000000000000000000, 0.000000000000000000 ) ) ;
#573 = DIRECTION ( 'NONE',  ( 0.000000000000000000, 0.000000000000000000, 1.000000000000000000 ) ) ;
#574 = DIRECTION ( 'NONE',  ( -0.9879353681056138869, -0.1548667441577606385, 0.000000000000000000 ) ) ;
#575 = ORIENTED_EDGE ( 'NONE', *, *, #180, .F. ) ;
#576 = EDGE_CURVE ( 'NONE', #726, #790, #55, .T. ) ;
#577 = LINE ( 'NONE', #751, #635 ) ;
#578 = CARTESIAN_POINT ( 'NONE',  ( 8.332004424668568277, 2.848580304986236822, 3.799999999999999822 ) ) ;
#579 = VERTEX_POINT ( 'NONE', #717 ) ;
#580 = DIRECTION ( 'NONE',  ( -0.9879353681056137759, -0.1548667441577605552, 0.000000000000000000 ) ) ;
#581 = ADVANCED_FACE ( 'NONE', ( #164 ), #404, .T. ) ;
#582 = CIRCLE ( 'NONE', #527, 1.999999999999999778 ) ;
#583 = PRODUCT ( 'cover-ir-tx', 'cover-ir-tx', '', ( #300 ) ) ;
#584 = AXIS2_PLACEMENT_3D ( 'NONE', #546, #12, #344 ) ;
#585 = FACE_OUTER_BOUND ( 'NONE', #220, .T. ) ;
#586 = ORIENTED_EDGE ( 'NONE', *, *, #210, .T. ) ;
#587 = CARTESIAN_POINT ( 'NONE',  ( 5.700618256607134171, 2.436089547366280694, 1.800000000000000044 ) ) ;
#588 = EDGE_CURVE ( 'NONE', #329, #452, #370, .T. ) ;
#589 = VERTEX_POINT ( 'NONE', #221 ) ;
#590 = CARTESIAN_POINT ( 'NONE',  ( 2.634095025698325987, 7.402566197420775040, 0.000000000000000000 ) ) ;
#591 = CARTESIAN_POINT ( 'NONE',  ( 5.041020910862158644, -9.469781066615292175, 1.800000000000000044 ) ) ;
#592 = EDGE_CURVE ( 'NONE', #430, #178, #467, .T. ) ;
#593 = ORIENTED_EDGE ( 'NONE', *, *, #274, .T. ) ;
#594 = DIRECTION ( 'NONE',  ( -0.000000000000000000, -0.000000000000000000, -1.000000000000000000 ) ) ;
#595 = FACE_OUTER_BOUND ( 'NONE', #122, .T. ) ;
#596 = ORIENTED_EDGE ( 'NONE', *, *, #772, .T. ) ;
#597 = AXIS2_PLACEMENT_3D ( 'NONE', #150, #269, #644 ) ;
#598 = EDGE_CURVE ( 'NONE', #373, #305, #513, .T. ) ;
#599 = DIRECTION ( 'NONE',  ( 0.000000000000000000, 0.000000000000000000, 1.000000000000000000 ) ) ;
#600 = ORIENTED_EDGE ( 'NONE', *, *, #86, .F. ) ;
#601 = EDGE_CURVE ( 'NONE', #364, #518, #662, .T. ) ;
#602 = DIRECTION ( 'NONE',  ( -0.000000000000000000, -0.000000000000000000, -1.000000000000000000 ) ) ;
#603 = ORIENTED_EDGE ( 'NONE', *, *, #692, .T. ) ;
#604 = LINE ( 'NONE', #791, #254 ) ;
#605 = EDGE_LOOP ( 'NONE', ( #690, #676, #277, #720, #351 ) ) ;
#606 = VECTOR ( 'NONE', #688, 999.9999999999998863 ) ;
#607 = CIRCLE ( 'NONE', #727, 1.999999999999999778 ) ;
#608 = FACE_OUTER_BOUND ( 'NONE', #680, .T. ) ;
#609 = LINE ( 'NONE', #740, #66 ) ;
#610 = CARTESIAN_POINT ( 'NONE',  ( 5.041020910850374293, -9.469781066617137810, 1.800000000000000044 ) ) ;
#611 = CARTESIAN_POINT ( 'NONE',  ( 8.104275536926804691, -6.867932223259215263, 2.800000000000000266 ) ) ;
#612 = CARTESIAN_POINT ( 'NONE',  ( 7.017546632010629004, -7.038285641832751516, 4.800000000000000711 ) ) ;
#613 = DIRECTION ( 'NONE',  ( 0.1368053802191527279, -0.9905979446491360862, 0.000000000000000000 ) ) ;
#614 = ORIENTED_EDGE ( 'NONE', *, *, #601, .T. ) ;
#615 = PLANE ( 'NONE',  #218 ) ;
#616 = UNCERTAINTY_MEASURE_WITH_UNIT (LENGTH_MEASURE( 1.000000000000000082E-05 ), #206, 'distance_accuracy_value', 'NONE');
#617 = DIRECTION ( 'NONE',  ( -0.1548667441577607773, 0.9879353681056138869, 0.000000000000000000 ) ) ;
#618 = VERTEX_POINT ( 'NONE', #519 ) ;
#619 = ORIENTED_EDGE ( 'NONE', *, *, #570, .T. ) ;
#620 = DIRECTION ( 'NONE',  ( 0.000000000000000000, 0.000000000000000000, -1.000000000000000000 ) ) ;
#621 = CARTESIAN_POINT ( 'NONE',  ( 8.332004424668568277, 2.848580304986236822, 1.800000000000000044 ) ) ;
#622 = VECTOR ( 'NONE', #425, 1000.000000000000000 ) ;
#623 = LINE ( 'NONE', #314, #7 ) ;
#624 = DIRECTION ( 'NONE',  ( 0.07766798534269503396, -0.9969792796506889987, 0.000000000000000000 ) ) ;
#625 = CARTESIAN_POINT ( 'NONE',  ( 8.332371258114248391, 9.491174163248356166, 1.800000000000000044 ) ) ;
#626 = ORIENTED_EDGE ( 'NONE', *, *, #692, .F. ) ;
#627 = ORIENTED_EDGE ( 'NONE', *, *, #270, .F. ) ;
#628 = DIRECTION ( 'NONE',  ( -0.9879353681056138869, -0.1548667441577607495, 0.000000000000000000 ) ) ;
#629 = CARTESIAN_POINT ( 'NONE',  ( 8.104275536926804691, -6.867932223259215263, 2.800000000000000266 ) ) ;
#630 = FACE_BOUND ( 'NONE', #37, .T. ) ;
#631 = ORIENTED_EDGE ( 'NONE', *, *, #685, .T. ) ;
#632 =( NAMED_UNIT ( * ) PLANE_ANGLE_UNIT ( ) SI_UNIT ( $, .RADIAN. ) );
#633 = VECTOR ( 'NONE', #332, 1000.000000000000000 ) ;
#634 = CYLINDRICAL_SURFACE ( 'NONE', #83, 1.999999999999999778 ) ;
#635 = VECTOR ( 'NONE', #73, 1000.000000000000227 ) ;
#636 = CIRCLE ( 'NONE', #97, 1.999999999999999778 ) ;
#637 = ADVANCED_FACE ( 'NONE', ( #771 ), #212, .F. ) ;
#638 = CARTESIAN_POINT ( 'NONE',  ( 8.104275536926804691, -6.867932223259215263, 2.800000000000000266 ) ) ;
#639 = ORIENTED_EDGE ( 'NONE', *, *, #598, .F. ) ;
#640 = LINE ( 'NONE', #755, #606 ) ;
#641 = DIRECTION ( 'NONE',  ( 0.000000000000000000, 0.000000000000000000, -1.000000000000000000 ) ) ;
#642 = EDGE_CURVE ( 'NONE', #310, #551, #109, .T. ) ;
#643 = ORIENTED_EDGE ( 'NONE', *, *, #388, .F. ) ;
#644 = DIRECTION ( 'NONE',  ( -0.9879353681056137759, -0.1548667441577606663, 0.000000000000000000 ) ) ;
#645 = LINE ( 'NONE', #92, #633 ) ;
#646 = ORIENTED_EDGE ( 'NONE', *, *, #713, .F. ) ;
#647 = DIRECTION ( 'NONE',  ( -0.9905979446491361973, -0.1368053802191527557, 0.000000000000000000 ) ) ;
#648 = CARTESIAN_POINT ( 'NONE',  ( 6.409571851331286929, 5.011797547153411081, 2.800000000000000266 ) ) ;
#649 = AXIS2_PLACEMENT_3D ( 'NONE', #665, #284, #51 ) ;
#650 = VERTEX_POINT ( 'NONE', #485 ) ;
#651 = LINE ( 'NONE', #590, #292 ) ;
#652 = EDGE_CURVE ( 'NONE', #618, #430, #240, .T. ) ;
#653 = EDGE_CURVE ( 'NONE', #650, #741, #268, .T. ) ;
#654 = DIRECTION ( 'NONE',  ( -0.000000000000000000, -0.000000000000000000, -1.000000000000000000 ) ) ;
#655 = ORIENTED_EDGE ( 'NONE', *, *, #209, .T. ) ;
#656 = DIRECTION ( 'NONE',  ( 0.000000000000000000, 0.000000000000000000, -1.000000000000000000 ) ) ;
#657 = APPLICATION_CONTEXT ( 'automotive_design' ) ;
#658 = CARTESIAN_POINT ( 'NONE',  ( 6.128404800715577139, -7.177665711574736207, 2.800000000000000266 ) ) ;
#659 = ORIENTED_EDGE ( 'NONE', *, *, #209, .F. ) ;
#660 = FACE_OUTER_BOUND ( 'NONE', #605, .T. ) ;
#661 = EDGE_LOOP ( 'NONE', ( #378, #575 ) ) ;
#662 = CIRCLE ( 'NONE', #597, 1.100000000000000089 ) ;
#663 = DIRECTION ( 'NONE',  ( 0.000000000000000000, 0.000000000000000000, -1.000000000000000000 ) ) ;
#664 = ORIENTED_EDGE ( 'NONE', *, *, #260, .T. ) ;
#665 = CARTESIAN_POINT ( 'NONE',  ( 6.409571851331286929, 5.011797547153411081, 4.800000000000000711 ) ) ;
#666 = ORIENTED_EDGE ( 'NONE', *, *, #49, .T. ) ;
#667 = CARTESIAN_POINT ( 'NONE',  ( 3.631823148235541865, -9.690684049156404356, 1.800000000000000044 ) ) ;
#668 = EDGE_CURVE ( 'NONE', #102, #47, #304, .T. ) ;
#669 = CARTESIAN_POINT ( 'NONE',  ( 6.128404800715577139, -7.177665711574736207, 4.800000000000000711 ) ) ;
#670 = ORIENTED_EDGE ( 'NONE', *, *, #570, .F. ) ;
#671 = CIRCLE ( 'NONE', #461, 1.100000000000000089 ) ;
#672 = DIRECTION ( 'NONE',  ( -0.9879353681056138869, -0.1548667441577606385, 0.000000000000000000 ) ) ;
#673 = DIRECTION ( 'NONE',  ( 0.1548667441577607773, -0.9879353681056138869, -0.000000000000000000 ) ) ;
#674 = ADVANCED_FACE ( 'NONE', ( #608 ), #729, .F. ) ;
#675 = EDGE_LOOP ( 'NONE', ( #522, #134, #757, #506 ) ) ;
#676 = ORIENTED_EDGE ( 'NONE', *, *, #53, .F. ) ;
#677 = DIRECTION ( 'NONE',  ( -0.9879353681056137759, -0.1548667441577605552, 0.000000000000000000 ) ) ;
#678 = CARTESIAN_POINT ( 'NONE',  ( 6.810905879200868540, -4.646724888332433245, 1.800000000000000044 ) ) ;
#679 = EDGE_CURVE ( 'NONE', #214, #407, #417, .T. ) ;
#680 = EDGE_LOOP ( 'NONE', ( #411, #681, #544, #131 ) ) ;
#681 = ORIENTED_EDGE ( 'NONE', *, *, #172, .F. ) ;
#682 = CARTESIAN_POINT ( 'NONE',  ( 8.104275536926804691, -6.867932223259215263, 4.800000000000000711 ) ) ;
#683 = CARTESIAN_POINT ( 'NONE',  ( 6.409571851331286929, 5.011797547153411081, 2.800000000000000266 ) ) ;
#684 = DIRECTION ( 'NONE',  ( 0.9905979446491360862, 0.1368053802191527557, -0.000000000000000000 ) ) ;
#685 = EDGE_CURVE ( 'NONE', #267, #589, #286, .T. ) ;
#686 = CARTESIAN_POINT ( 'NONE',  ( 5.700618256607134171, 2.436089547366280694, 3.799999999999999822 ) ) ;
#687 = VECTOR ( 'NONE', #200, 1000.000000000000000 ) ;
#688 = DIRECTION ( 'NONE',  ( -0.9879353681056142200, -0.1548667441577587789, 0.000000000000000000 ) ) ;
#689 = AXIS2_PLACEMENT_3D ( 'NONE', #412, #282, #531 ) ;
#690 = ORIENTED_EDGE ( 'NONE', *, *, #45, .F. ) ;
#691 = PRODUCT_DEFINITION ( 'UNKNOWN', '', #356, #542 ) ;
#692 = EDGE_CURVE ( 'NONE', #20, #211, #169, .T. ) ;
#693 = DIRECTION ( 'NONE',  ( -0.9879353681056138869, -0.1548667441577607495, 0.000000000000000000 ) ) ;
#694 = FACE_OUTER_BOUND ( 'NONE', #462, .T. ) ;
#695 = DIRECTION ( 'NONE',  ( 0.1412253071329679643, -0.9899774808677209714, 0.000000000000000000 ) ) ;
#696 = CARTESIAN_POINT ( 'NONE',  ( 8.505149150781276646, 8.240101836395481882, 1.800000000000000044 ) ) ;
#697 = ORIENTED_EDGE ( 'NONE', *, *, #137, .F. ) ;
#698 = PLANE ( 'NONE',  #768 ) ;
#699 = DIRECTION ( 'NONE',  ( 0.9879353681056136649, 0.1548667441577605830, 0.000000000000000000 ) ) ;
#700 = CIRCLE ( 'NONE', #584, 1.999999999999999778 ) ;
#701 = AXIS2_PLACEMENT_3D ( 'NONE', #32, #103, #395 ) ;
#702 = EDGE_CURVE ( 'NONE', #198, #438, #120, .T. ) ;
#703 = EDGE_LOOP ( 'NONE', ( #437, #784, #707, #627 ) ) ;
#704 = CARTESIAN_POINT ( 'NONE',  ( 8.104275536926804691, -6.867932223259215263, 4.800000000000000711 ) ) ;
#705 =( NAMED_UNIT ( * ) PLANE_ANGLE_UNIT ( ) SI_UNIT ( $, .RADIAN. ) );
#706 = EDGE_CURVE ( 'NONE', #733, #285, #607, .T. ) ;
#707 = ORIENTED_EDGE ( 'NONE', *, *, #521, .F. ) ;
#708 = DIRECTION ( 'NONE',  ( 0.1548667441577617210, -0.9879353681056137759, 0.000000000000000000 ) ) ;
#709 = DIRECTION ( 'NONE',  ( -0.9879353681056138869, -0.1548667441577606385, 0.000000000000000000 ) ) ;
#710 = VERTEX_POINT ( 'NONE', #481 ) ;
#711 = ADVANCED_FACE ( 'NONE', ( #422 ), #471, .F. ) ;
#712 = CARTESIAN_POINT ( 'NONE',  ( 6.810905879200868540, -4.646724888332433245, 1.800000000000000044 ) ) ;
#713 = EDGE_CURVE ( 'NONE', #589, #93, #604, .T. ) ;
#714 = VECTOR ( 'NONE', #78, 1000.000000000000000 ) ;
#715 = DIRECTION ( 'NONE',  ( -0.9879353681056138869, -0.1548667441577607495, 0.000000000000000000 ) ) ;
#716 = ORIENTED_EDGE ( 'NONE', *, *, #313, .F. ) ;
#717 = CARTESIAN_POINT ( 'NONE',  ( 8.332371258114248391, 9.491174163248356166, 0.000000000000000000 ) ) ;
#718 = EDGE_CURVE ( 'NONE', #741, #726, #359, .T. ) ;
#719 = CARTESIAN_POINT ( 'NONE',  ( 8.332371258114248391, 9.491174163248356166, 1.800000000000000044 ) ) ;
#720 = ORIENTED_EDGE ( 'NONE', *, *, #388, .T. ) ;
#721 = DIRECTION ( 'NONE',  ( 0.1368053802191527835, -0.9905979446491361973, 0.000000000000000000 ) ) ;
#722 = VERTEX_POINT ( 'NONE', #174 ) ;
#723 = CARTESIAN_POINT ( 'NONE',  ( 6.409571851331286929, 5.011797547153411081, 4.800000000000000711 ) ) ;
#724 =( GEOMETRIC_REPRESENTATION_CONTEXT ( 3 ) GLOBAL_UNCERTAINTY_ASSIGNED_CONTEXT ( ( #616 ) ) GLOBAL_UNIT_ASSIGNED_CONTEXT ( ( #206, #705, #773 ) ) REPRESENTATION_CONTEXT ( 'NONE', 'WORKASPACE' ) );
#725 = ADVANCED_FACE ( 'NONE', ( #416 ), #225, .F. ) ;
#726 = VERTEX_POINT ( 'NONE', #731 ) ;
#727 = AXIS2_PLACEMENT_3D ( 'NONE', #352, #179, #2 ) ;
#728 = AXIS2_PLACEMENT_3D ( 'NONE', #18, #379, #628 ) ;
#729 = CYLINDRICAL_SURFACE ( 'NONE', #171, 1.100000000000000977 ) ;
#730 = ORIENTED_EDGE ( 'NONE', *, *, #381, .F. ) ;
#731 = CARTESIAN_POINT ( 'NONE',  ( 7.496300756247463504, 5.182150965726948222, 1.800000000000000044 ) ) ;
#732 = LINE ( 'NONE', #612, #160 ) ;
#733 = VERTEX_POINT ( 'NONE', #475 ) ;
#734 = CARTESIAN_POINT ( 'NONE',  ( 6.409571851331286929, 5.011797547153411081, 2.800000000000000266 ) ) ;
#735 = CARTESIAN_POINT ( 'NONE',  ( 6.810905879200868540, -4.646724888332433245, 3.799999999999999822 ) ) ;
#736 = ORIENTED_EDGE ( 'NONE', *, *, #642, .F. ) ;
#737 = AXIS2_PLACEMENT_3D ( 'NONE', #629, #323, #441 ) ;
#738 = AXIS2_PLACEMENT_3D ( 'NONE', #408, #647, #94 ) ;
#739 = DIRECTION ( 'NONE',  ( 0.000000000000000000, 0.000000000000000000, -1.000000000000000000 ) ) ;
#740 = CARTESIAN_POINT ( 'NONE',  ( 8.332371258114248391, 9.491174163248356166, 4.800000000000000711 ) ) ;
#741 = VERTEX_POINT ( 'NONE', #297 ) ;
#742 = ORIENTED_EDGE ( 'NONE', *, *, #554, .T. ) ;
#743 = LINE ( 'NONE', #132, #228 ) ;
#744 = LINE ( 'NONE', #136, #158 ) ;
#745 = CARTESIAN_POINT ( 'NONE',  ( 8.104275536926804691, -6.867932223259215263, 4.800000000000000711 ) ) ;
#746 = ORIENTED_EDGE ( 'NONE', *, *, #537, .F. ) ;
#747 = PLANE ( 'NONE',  #403 ) ;
#748 = ORIENTED_EDGE ( 'NONE', *, *, #86, .T. ) ;
#749 = ADVANCED_FACE ( 'NONE', ( #548 ), #111, .F. ) ;
#750 =( LENGTH_UNIT ( ) NAMED_UNIT ( * ) SI_UNIT ( .MILLI., .METRE. ) );
#751 = CARTESIAN_POINT ( 'NONE',  ( 11.15442703025327376, -8.511455925123827981, 4.800000000000000711 ) ) ;
#752 = CIRCLE ( 'NONE', #118, 1.999999999999999778 ) ;
#753 = LINE ( 'NONE', #72, #142 ) ;
#754 = EDGE_LOOP ( 'NONE', ( #113, #736, #173, #14 ) ) ;
#755 = CARTESIAN_POINT ( 'NONE',  ( 5.700618256607134171, 2.436089547366280694, 1.800000000000000044 ) ) ;
#756 = CARTESIAN_POINT ( 'NONE',  ( 7.256921829237093391, 7.212684422918350435, 4.800000000000000711 ) ) ;
#757 = ORIENTED_EDGE ( 'NONE', *, *, #233, .T. ) ;
#758 = APPLICATION_PROTOCOL_DEFINITION ( 'draft international standard', 'automotive_design', 1998, #657 ) ;
#759 = ADVANCED_FACE ( 'NONE', ( #428 ), #615, .F. ) ;
#760 = CYLINDRICAL_SURFACE ( 'NONE', #782, 4.926998846378878305 ) ;
#761 = EDGE_CURVE ( 'NONE', #353, #414, #743, .T. ) ;
#762 = ADVANCED_FACE ( 'NONE', ( #186, #256, #196, #383 ), #315, .F. ) ;
#763 = CARTESIAN_POINT ( 'NONE',  ( 10.08014627313803047, -6.558198734943694319, 4.800000000000000711 ) ) ;
#764 = VERTEX_POINT ( 'NONE', #431 ) ;
#765 = CLOSED_SHELL ( 'NONE', ( #413, #711, #725, #779, #749, #674, #472, #514, #507, #482, #58, #759, #789, #308, #762, #96, #112, #774, #469, #637, #287, #581, #147, #468, #409, #154 ) ) ;
#766 = CARTESIAN_POINT ( 'NONE',  ( 2.634095025698325987, 7.402566197420775040, 1.800000000000000044 ) ) ;
#767 = CIRCLE ( 'NONE', #24, 1.100000000000000089 ) ;
#768 = AXIS2_PLACEMENT_3D ( 'NONE', #510, #69, #624 ) ;
#769 = FACE_BOUND ( 'NONE', #296, .T. ) ;
#770 = ORIENTED_EDGE ( 'NONE', *, *, #260, .F. ) ;
#771 = FACE_OUTER_BOUND ( 'NONE', #754, .T. ) ;
#772 = EDGE_CURVE ( 'NONE', #20, #329, #566, .T. ) ;
#773 =( NAMED_UNIT ( * ) SI_UNIT ( $, .STERADIAN. ) SOLID_ANGLE_UNIT ( ) );
#774 = ADVANCED_FACE ( 'NONE', ( #439 ), #446, .F. ) ;
#775 = ORIENTED_EDGE ( 'NONE', *, *, #601, .F. ) ;
#776 = DIRECTION ( 'NONE',  ( -0.9879353681056138869, -0.1548667441577606385, 0.000000000000000000 ) ) ;
#777 = CARTESIAN_POINT ( 'NONE',  ( 11.15442703025327376, -8.511455925123827981, 1.800000000000000044 ) ) ;
#778 = ORIENTED_EDGE ( 'NONE', *, *, #706, .F. ) ;
#779 = ADVANCED_FACE ( 'NONE', ( #374 ), #366, .F. ) ;
#780 = DIRECTION ( 'NONE',  ( 0.1412253071336775356, -0.9899774808676197191, 0.000000000000000000 ) ) ;
#781 = VECTOR ( 'NONE', #138, 1000.000000000000000 ) ;
#782 = AXIS2_PLACEMENT_3D ( 'NONE', #204, #447, #699 ) ;
#783 = CARTESIAN_POINT ( 'NONE',  ( 6.810905879200868540, -4.646724888332433245, 3.799999999999999822 ) ) ;
#784 = ORIENTED_EDGE ( 'NONE', *, *, #592, .T. ) ;
#785 = CARTESIAN_POINT ( 'NONE',  ( 2.691062703649568455, 7.003227584153208340, 1.800000000000000044 ) ) ;
#786 = APPLICATION_CONTEXT ( 'automotive_design' ) ;
#787 = ORIENTED_EDGE ( 'NONE', *, *, #463, .T. ) ;
#788 = CARTESIAN_POINT ( 'NONE',  ( 8.104275536926804691, -6.867932223259215263, 1.800000000000000044 ) ) ;
#789 = ADVANCED_FACE ( 'NONE', ( #127 ), #698, .F. ) ;
#790 = VERTEX_POINT ( 'NONE', #562 ) ;
#791 = CARTESIAN_POINT ( 'NONE',  ( 11.15442703025327376, -8.511455925123827981, 4.800000000000000711 ) ) ;
#792 = AXIS2_PLACEMENT_3D ( 'NONE', #271, #457, #709 ) ;
#793 = ORIENTED_EDGE ( 'NONE', *, *, #40, .F. ) ;
#794 = DIRECTION ( 'NONE',  ( -0.9879353681056137759, -0.1548667441577606663, 0.000000000000000000 ) ) ;
#795 = CARTESIAN_POINT ( 'NONE',  ( 2.344806068534511567, 6.830014348734375851, 4.800000000000000711 ) ) ;
ENDSEC;
END-ISO-10303-21;
