ISO-10303-21;
HEADER;
FILE_DESCRIPTION (( 'STEP AP214' ),
    '1' );
FILE_NAME ('cover-ir-rx.STEP',
    '2026-04-06T16:28:35',
    ( '' ),
    ( '' ),
    'SwSTEP 2.0',
    'SolidWorks 2026',
    '' );
FILE_SCHEMA (( 'AUTOMOTIVE_DESIGN' ));
ENDSEC;

DATA;
#1 = FACE_OUTER_BOUND ( 'NONE', #537, .T. ) ;
#2 = PLANE ( 'NONE',  #426 ) ;
#3 = EDGE_LOOP ( 'NONE', ( #634, #516 ) ) ;
#4 = CIRCLE ( 'NONE', #153, 1.100000000000000089 ) ;
#5 = CARTESIAN_POINT ( 'NONE',  ( -0.2900466527204085265, -5.199912590850854777, 3.799999999999999822 ) ) ;
#6 = DIRECTION ( 'NONE',  ( 0.000000000000000000, 0.000000000000000000, 1.000000000000000000 ) ) ;
#7 = ORIENTED_EDGE ( 'NONE', *, *, #55, .F. ) ;
#8 = VECTOR ( 'NONE', #200, 1000.000000000000000 ) ;
#9 = CARTESIAN_POINT ( 'NONE',  ( 1.970338035482419370, 7.350857331209169843, 1.800000000000000044 ) ) ;
#10 = EDGE_CURVE ( 'NONE', #284, #375, #190, .T. ) ;
#11 = DIRECTION ( 'NONE',  ( 0.000000000000000000, 0.000000000000000000, 1.000000000000000000 ) ) ;
#12 = ORIENTED_EDGE ( 'NONE', *, *, #613, .F. ) ;
#13 = FACE_OUTER_BOUND ( 'NONE', #86, .T. ) ;
#14 = VECTOR ( 'NONE', #589, 1000.000000000000000 ) ;
#15 = CARTESIAN_POINT ( 'NONE',  ( -1.389338495122143247, 4.404236621023066789, 2.800000000000000266 ) ) ;
#16 = VERTEX_POINT ( 'NONE', #702 ) ;
#17 = CARTESIAN_POINT ( 'NONE',  ( -2.953567215919971733, -5.199912590850852112, 3.799999999999999822 ) ) ;
#18 = DIRECTION ( 'NONE',  ( -1.000000000000000000, 0.000000000000000000, 0.000000000000000000 ) ) ;
#19 = ORIENTED_EDGE ( 'NONE', *, *, #769, .F. ) ;
#20 = CARTESIAN_POINT ( 'NONE',  ( 3.631823148235540977, -9.690684049156406132, 1.800000000000000044 ) ) ;
#21 = CYLINDRICAL_SURFACE ( 'NONE', #496, 2.000000000000000000 ) ;
#22 = ORIENTED_EDGE ( 'NONE', *, *, #149, .T. ) ;
#23 = CARTESIAN_POINT ( 'NONE',  ( -3.982646507246556666, 8.531793523331554496, 4.800000000000000711 ) ) ;
#24 = ORIENTED_EDGE ( 'NONE', *, *, #30, .T. ) ;
#25 = LINE ( 'NONE', #387, #289 ) ;
#26 = CARTESIAN_POINT ( 'NONE',  ( 1.975901922448759729, 6.947514192505354735, 1.800000000000000044 ) ) ;
#27 = DIRECTION ( 'NONE',  ( -1.000000000000000000, 0.000000000000000000, 0.000000000000000000 ) ) ;
#28 = CARTESIAN_POINT ( 'NONE',  ( -2.953567215919971733, -5.199912590850852112, 3.799999999999999822 ) ) ;
#29 = ORIENTED_EDGE ( 'NONE', *, *, #383, .F. ) ;
#30 = EDGE_CURVE ( 'NONE', #107, #206, #642, .T. ) ;
#31 = ADVANCED_FACE ( 'NONE', ( #328 ), #401, .F. ) ;
#32 = CARTESIAN_POINT ( 'NONE',  ( -2.953567215919971733, -5.199912590850852112, 3.799999999999999822 ) ) ;
#33 = CARTESIAN_POINT ( 'NONE',  ( 1.970338035482419370, 7.350857331209169843, 1.800000000000000044 ) ) ;
#34 = ORIENTED_EDGE ( 'NONE', *, *, #417, .T. ) ;
#35 = EDGE_CURVE ( 'NONE', #470, #669, #576, .T. ) ;
#36 = PRODUCT_DEFINITION_FORMATION_WITH_SPECIFIED_SOURCE ( 'ANY', '', #90, .NOT_KNOWN. ) ;
#37 = CARTESIAN_POINT ( 'NONE',  ( -2.953567215919971733, -5.199912590850852112, 1.800000000000000044 ) ) ;
#38 = PLANE ( 'NONE',  #405 ) ;
#39 = ORIENTED_EDGE ( 'NONE', *, *, #285, .F. ) ;
#40 = EDGE_CURVE ( 'NONE', #220, #308, #764, .T. ) ;
#41 = DIRECTION ( 'NONE',  ( 0.000000000000000000, -1.000000000000000000, 0.000000000000000000 ) ) ;
#42 = FACE_OUTER_BOUND ( 'NONE', #192, .T. ) ;
#43 = VECTOR ( 'NONE', #585, 1000.000000000000000 ) ;
#44 = ORIENTED_EDGE ( 'NONE', *, *, #526, .F. ) ;
#45 = DIRECTION ( 'NONE',  ( 1.000000000000000000, 0.000000000000000000, 0.000000000000000000 ) ) ;
#46 = FACE_OUTER_BOUND ( 'NONE', #673, .T. ) ;
#47 = ORIENTED_EDGE ( 'NONE', *, *, #632, .T. ) ;
#48 = VECTOR ( 'NONE', #604, 1000.000000000000000 ) ;
#49 = CIRCLE ( 'NONE', #379, 1.100000000000000089 ) ;
#50 = LINE ( 'NONE', #415, #743 ) ;
#51 = AXIS2_PLACEMENT_3D ( 'NONE', #15, #6, #130 ) ;
#52 = CARTESIAN_POINT ( 'NONE',  ( 0.6106615048778567534, 4.404236621023066789, 2.800000000000000266 ) ) ;
#53 = ORIENTED_EDGE ( 'NONE', *, *, #373, .T. ) ;
#54 = DIRECTION ( 'NONE',  ( 0.000000000000000000, 1.000000000000000000, 0.000000000000000000 ) ) ;
#55 = EDGE_CURVE ( 'NONE', #590, #502, #344, .T. ) ;
#56 = CARTESIAN_POINT ( 'NONE',  ( 3.631823148235540977, -9.690684049156406132, 4.800000000000000711 ) ) ;
#57 = ORIENTED_EDGE ( 'NONE', *, *, #225, .T. ) ;
#58 = ADVANCED_FACE ( 'NONE', ( #754 ), #692, .F. ) ;
#59 = CARTESIAN_POINT ( 'NONE',  ( -0.2900466527204085265, 1.969396925094662354, 3.799999999999999822 ) ) ;
#60 = DIRECTION ( 'NONE',  ( 1.000000000000000000, 0.000000000000000000, 0.000000000000000000 ) ) ;
#61 = ORIENTED_EDGE ( 'NONE', *, *, #577, .T. ) ;
#62 = DIRECTION ( 'NONE',  ( -0.000000000000000000, -0.000000000000000000, -1.000000000000000000 ) ) ;
#63 = CARTESIAN_POINT ( 'NONE',  ( -3.959590400273491184, 7.269057373875631001, 1.800000000000000044 ) ) ;
#64 = ORIENTED_EDGE ( 'NONE', *, *, #81, .F. ) ;
#65 = ADVANCED_FACE ( 'NONE', ( #103 ), #38, .F. ) ;
#66 = EDGE_CURVE ( 'NONE', #494, #465, #99, .T. ) ;
#67 = CARTESIAN_POINT ( 'NONE',  ( 2.205416312212453711, -9.690684049156406132, 0.000000000000000000 ) ) ;
#68 = CARTESIAN_POINT ( 'NONE',  ( -1.223821133563065100, -7.594621824805086518, 2.800000000000000266 ) ) ;
#69 = ORIENTED_EDGE ( 'NONE', *, *, #473, .F. ) ;
#70 = CARTESIAN_POINT ( 'NONE',  ( -1.223821133563065100, -7.594621824805086518, 4.800000000000000711 ) ) ;
#71 = CARTESIAN_POINT ( 'NONE',  ( -3.982646507246556666, 8.531793523331554496, 1.800000000000000044 ) ) ;
#72 = CIRCLE ( 'NONE', #530, 4.926998846378876529 ) ;
#73 = VERTEX_POINT ( 'NONE', #222 ) ;
#74 = CARTESIAN_POINT ( 'NONE',  ( -3.389338495122143247, 4.404236621023066789, 4.800000000000000711 ) ) ;
#75 = VECTOR ( 'NONE', #154, 1000.000000000000000 ) ;
#76 = LINE ( 'NONE', #573, #48 ) ;
#77 = VERTEX_POINT ( 'NONE', #170 ) ;
#78 = FACE_BOUND ( 'NONE', #564, .T. ) ;
#79 = LINE ( 'NONE', #28, #427 ) ;
#80 = PRODUCT_DEFINITION ( 'UNKNOWN', '', #36, #463 ) ;
#81 = EDGE_CURVE ( 'NONE', #465, #733, #746, .T. ) ;
#82 = ORIENTED_EDGE ( 'NONE', *, *, #613, .T. ) ;
#83 = ORIENTED_EDGE ( 'NONE', *, *, #655, .T. ) ;
#84 = AXIS2_PLACEMENT_3D ( 'NONE', #306, #372, #252 ) ;
#85 = CARTESIAN_POINT ( 'NONE',  ( 3.631823148235540977, -9.690684049156406132, 1.800000000000000044 ) ) ;
#86 = EDGE_LOOP ( 'NONE', ( #335, #716, #231, #185, #19 ) ) ;
#87 = LINE ( 'NONE', #633, #534 ) ;
#88 = AXIS2_PLACEMENT_3D ( 'NONE', #776, #356, #545 ) ;
#89 = DIRECTION ( 'NONE',  ( 0.000000000000000000, 0.000000000000000000, 1.000000000000000000 ) ) ;
#90 = PRODUCT ( 'cover-ir-rx', 'cover-ir-rx', '', ( #720 ) ) ;
#91 = CIRCLE ( 'NONE', #721, 2.000000000000000000 ) ;
#92 = VERTEX_POINT ( 'NONE', #789 ) ;
#93 = UNCERTAINTY_MEASURE_WITH_UNIT (LENGTH_MEASURE( 1.000000000000000082E-05 ), #315, 'distance_accuracy_value', 'NONE');
#94 = LINE ( 'NONE', #455, #14 ) ;
#95 = DIRECTION ( 'NONE',  ( -0.000000000000000000, -0.000000000000000000, -1.000000000000000000 ) ) ;
#96 = VERTEX_POINT ( 'NONE', #654 ) ;
#97 = VECTOR ( 'NONE', #594, 1000.000000000000000 ) ;
#98 = DIRECTION ( 'NONE',  ( 0.01825580479154432015, -0.9998333489094134441, -0.000000000000000000 ) ) ;
#99 = LINE ( 'NONE', #52, #368 ) ;
#100 = ADVANCED_FACE ( 'NONE', ( #552 ), #486, .F. ) ;
#101 = AXIS2_PLACEMENT_3D ( 'NONE', #85, #337, #327 ) ;
#102 = FACE_OUTER_BOUND ( 'NONE', #740, .T. ) ;
#103 = FACE_OUTER_BOUND ( 'NONE', #599, .T. ) ;
#104 = ORIENTED_EDGE ( 'NONE', *, *, #40, .T. ) ;
#105 = CARTESIAN_POINT ( 'NONE',  ( -2.567309692168062707, 6.447344274550292909, 0.000000000000000000 ) ) ;
#106 = EDGE_CURVE ( 'NONE', #467, #470, #91, .T. ) ;
#107 = VERTEX_POINT ( 'NONE', #113 ) ;
#108 = CARTESIAN_POINT ( 'NONE',  ( 2.344806068534511123, 6.830014348734375851, 1.800000000000000044 ) ) ;
#109 = DIRECTION ( 'NONE',  ( -1.000000000000000000, 0.000000000000000000, 0.000000000000000000 ) ) ;
#110 = VECTOR ( 'NONE', #730, 1000.000000000000000 ) ;
#111 = ORIENTED_EDGE ( 'NONE', *, *, #334, .T. ) ;
#112 = DIRECTION ( 'NONE',  ( -0.000000000000000000, -0.000000000000000000, 1.000000000000000000 ) ) ;
#113 = CARTESIAN_POINT ( 'NONE',  ( -3.982646507246556666, -9.690684049156406132, 4.800000000000000711 ) ) ;
#114 = ORIENTED_EDGE ( 'NONE', *, *, #561, .F. ) ;
#115 = VECTOR ( 'NONE', #705, 1000.000000000000114 ) ;
#116 = LINE ( 'NONE', #301, #333 ) ;
#117 = CARTESIAN_POINT ( 'NONE',  ( -0.1238211335630649973, -7.594621824805086518, 1.800000000000000044 ) ) ;
#118 = EDGE_LOOP ( 'NONE', ( #775, #163, #770, #104 ) ) ;
#119 = EDGE_CURVE ( 'NONE', #275, #591, #282, .T. ) ;
#120 = CARTESIAN_POINT ( 'NONE',  ( 2.205416312212453711, -9.690684049156406132, 1.800000000000000044 ) ) ;
#121 = DIRECTION ( 'NONE',  ( 0.000000000000000000, 0.000000000000000000, 1.000000000000000000 ) ) ;
#122 = VERTEX_POINT ( 'NONE', #162 ) ;
#123 = LINE ( 'NONE', #59, #212 ) ;
#124 = SURFACE_SIDE_STYLE ('',( #127 ) ) ;
#125 = EDGE_CURVE ( 'NONE', #431, #92, #49, .T. ) ;
#126 = ORIENTED_EDGE ( 'NONE', *, *, #772, .T. ) ;
#127 = SURFACE_STYLE_FILL_AREA ( #678 ) ;
#128 = ORIENTED_EDGE ( 'NONE', *, *, #119, .F. ) ;
#129 = CARTESIAN_POINT ( 'NONE',  ( -2.567309692168062707, 6.447344274550292909, 1.800000000000000044 ) ) ;
#130 = DIRECTION ( 'NONE',  ( 1.000000000000000000, 0.000000000000000000, 0.000000000000000000 ) ) ;
#131 = ORIENTED_EDGE ( 'NONE', *, *, #432, .T. ) ;
#132 = DIRECTION ( 'NONE',  ( 1.000000000000000000, 0.000000000000000000, -0.000000000000000000 ) ) ;
#133 = CARTESIAN_POINT ( 'NONE',  ( -2.489338495122144668, 4.404236621023066789, 1.800000000000000044 ) ) ;
#134 = ORIENTED_EDGE ( 'NONE', *, *, #106, .F. ) ;
#135 = AXIS2_PLACEMENT_3D ( 'NONE', #640, #343, #451 ) ;
#136 = CARTESIAN_POINT ( 'NONE',  ( -3.223821133563065100, -7.594621824805086518, 4.800000000000000711 ) ) ;
#137 = ADVANCED_FACE ( 'NONE', ( #416 ), #656, .F. ) ;
#138 = ORIENTED_EDGE ( 'NONE', *, *, #175, .T. ) ;
#139 = EDGE_CURVE ( 'NONE', #122, #444, #724, .T. ) ;
#140 = EDGE_LOOP ( 'NONE', ( #436, #196 ) ) ;
#141 = CARTESIAN_POINT ( 'NONE',  ( 2.205416312200526363, -9.690684049156407909, 1.800000000000000044 ) ) ;
#142 = DIRECTION ( 'NONE',  ( 0.000000000000000000, 0.000000000000000000, -1.000000000000000000 ) ) ;
#143 = ORIENTED_EDGE ( 'NONE', *, *, #418, .F. ) ;
#144 = VECTOR ( 'NONE', #555, 1000.000000000000000 ) ;
#145 = DIRECTION ( 'NONE',  ( 0.000000000000000000, 1.000000000000000000, 0.000000000000000000 ) ) ;
#146 = DIRECTION ( 'NONE',  ( 1.000000000000000000, 0.000000000000000000, 0.000000000000000000 ) ) ;
#147 = ORIENTED_EDGE ( 'NONE', *, *, #351, .F. ) ;
#148 = ADVANCED_FACE ( 'NONE', ( #362 ), #777, .F. ) ;
#149 = EDGE_CURVE ( 'NONE', #494, #96, #236, .T. ) ;
#150 = CARTESIAN_POINT ( 'NONE',  ( -1.223821133563065100, -7.594621824805086518, 2.800000000000000266 ) ) ;
#151 = VECTOR ( 'NONE', #218, 1000.000000000000000 ) ;
#152 = ORIENTED_EDGE ( 'NONE', *, *, #351, .T. ) ;
#153 = AXIS2_PLACEMENT_3D ( 'NONE', #739, #505, #183 ) ;
#154 = DIRECTION ( 'NONE',  ( -0.000000000000000000, -0.000000000000000000, -1.000000000000000000 ) ) ;
#155 = VERTEX_POINT ( 'NONE', #786 ) ;
#156 = FACE_BOUND ( 'NONE', #512, .T. ) ;
#157 = CARTESIAN_POINT ( 'NONE',  ( -0.2900466527204085265, -5.199912590850854777, 1.800000000000000044 ) ) ;
#158 = ORIENTED_EDGE ( 'NONE', *, *, #498, .F. ) ;
#159 = SHAPE_DEFINITION_REPRESENTATION ( #332, #452 ) ;
#160 = EDGE_CURVE ( 'NONE', #371, #122, #421, .T. ) ;
#161 = CARTESIAN_POINT ( 'NONE',  ( 1.845785321592037675, 8.638213972123502060, 4.800000000000000711 ) ) ;
#162 = CARTESIAN_POINT ( 'NONE',  ( -0.2900466527204085265, -5.199912590850854777, 1.800000000000000044 ) ) ;
#163 = ORIENTED_EDGE ( 'NONE', *, *, #611, .F. ) ;
#164 = DIRECTION ( 'NONE',  ( 1.000000000000000000, 0.000000000000000000, 0.000000000000000000 ) ) ;
#165 = CARTESIAN_POINT ( 'NONE',  ( 2.205416312212453711, -9.690684049156406132, 0.000000000000000000 ) ) ;
#166 = DIRECTION ( 'NONE',  ( -0.9999048704856826619, -0.01379311346324883780, 0.000000000000000000 ) ) ;
#167 = VERTEX_POINT ( 'NONE', #287 ) ;
#168 = VECTOR ( 'NONE', #365, 1000.000000000000000 ) ;
#169 = DIRECTION ( 'NONE',  ( -0.9969792796506891097, -0.07766798534269503396, 0.000000000000000000 ) ) ;
#170 = CARTESIAN_POINT ( 'NONE',  ( 3.631823148235540977, -9.690684049156406132, 0.000000000000000000 ) ) ;
#171 = ORIENTED_EDGE ( 'NONE', *, *, #711, .T. ) ;
#172 = ADVANCED_FACE ( 'NONE', ( #46 ), #662, .F. ) ;
#173 = VECTOR ( 'NONE', #429, 1000.000000000000000 ) ;
#174 = ADVANCED_FACE ( 'NONE', ( #42 ), #291, .F. ) ;
#175 = EDGE_CURVE ( 'NONE', #470, #467, #727, .T. ) ;
#176 = DIRECTION ( 'NONE',  ( 1.000000000000000000, 0.000000000000000000, 0.000000000000000000 ) ) ;
#177 = VERTEX_POINT ( 'NONE', #312 ) ;
#178 = LINE ( 'NONE', #791, #571 ) ;
#179 = FILL_AREA_STYLE_COLOUR ( '', #533 ) ;
#180 = ORIENTED_EDGE ( 'NONE', *, *, #575, .T. ) ;
#181 = FACE_OUTER_BOUND ( 'NONE', #393, .T. ) ;
#182 = EDGE_CURVE ( 'NONE', #92, #431, #349, .T. ) ;
#183 = DIRECTION ( 'NONE',  ( 1.000000000000000000, 0.000000000000000000, 0.000000000000000000 ) ) ;
#184 = AXIS2_PLACEMENT_3D ( 'NONE', #5, #239, #248 ) ;
#185 = ORIENTED_EDGE ( 'NONE', *, *, #410, .T. ) ;
#186 = CARTESIAN_POINT ( 'NONE',  ( 2.344806068534511123, 6.830014348734375851, 0.000000000000000000 ) ) ;
#187 = ORIENTED_EDGE ( 'NONE', *, *, #359, .F. ) ;
#188 = AXIS2_PLACEMENT_3D ( 'NONE', #773, #709, #713 ) ;
#189 = CARTESIAN_POINT ( 'NONE',  ( -2.489338495122144668, 4.404236621023066789, 2.800000000000000266 ) ) ;
#190 = CIRCLE ( 'NONE', #784, 1.100000000000000089 ) ;
#191 = FACE_OUTER_BOUND ( 'NONE', #623, .T. ) ;
#192 = EDGE_LOOP ( 'NONE', ( #487, #210, #254, #292 ) ) ;
#193 = LINE ( 'NONE', #17, #250 ) ;
#194 = AXIS2_PLACEMENT_3D ( 'NONE', #294, #547, #569 ) ;
#195 = LINE ( 'NONE', #23, #350 ) ;
#196 = ORIENTED_EDGE ( 'NONE', *, *, #285, .T. ) ;
#197 = ADVANCED_FACE ( 'NONE', ( #447 ), #2, .F. ) ;
#198 = EDGE_CURVE ( 'NONE', #271, #476, #72, .T. ) ;
#199 = EDGE_CURVE ( 'NONE', #220, #651, #439, .T. ) ;
#200 = DIRECTION ( 'NONE',  ( 1.000000000000000000, 0.000000000000000000, 0.000000000000000000 ) ) ;
#201 = CARTESIAN_POINT ( 'NONE',  ( -0.2900466527204085265, -5.199912590850854777, 3.799999999999999822 ) ) ;
#202 = CIRCLE ( 'NONE', #630, 1.100000000000000977 ) ;
#203 = EDGE_LOOP ( 'NONE', ( #620, #114, #354, #147, #639 ) ) ;
#204 = CARTESIAN_POINT ( 'NONE',  ( -2.567309692168062707, 6.447344274550292909, 1.800000000000000044 ) ) ;
#205 = DIRECTION ( 'NONE',  ( 0.01825580479154425423, -0.9998333489094135551, 0.000000000000000000 ) ) ;
#206 = VERTEX_POINT ( 'NONE', #622 ) ;
#207 = CARTESIAN_POINT ( 'NONE',  ( -0.2900466527204085265, -5.199912590850854777, 3.799999999999999822 ) ) ;
#208 = CARTESIAN_POINT ( 'NONE',  ( -0.2900466527204085265, 1.969396925094662354, 1.800000000000000044 ) ) ;
#209 = EDGE_CURVE ( 'NONE', #73, #206, #741, .T. ) ;
#210 = ORIENTED_EDGE ( 'NONE', *, *, #481, .T. ) ;
#211 = ORIENTED_EDGE ( 'NONE', *, *, #481, .F. ) ;
#212 = VECTOR ( 'NONE', #62, 1000.000000000000000 ) ;
#213 = PLANE ( 'NONE',  #392 ) ;
#214 = CARTESIAN_POINT ( 'NONE',  ( -3.982646507246556666, 8.531793523331554496, 1.800000000000000044 ) ) ;
#215 = CARTESIAN_POINT ( 'NONE',  ( -2.953567215919971733, 1.969396925094657025, 3.799999999999999822 ) ) ;
#216 = ORIENTED_EDGE ( 'NONE', *, *, #635, .F. ) ;
#217 = MECHANICAL_DESIGN_GEOMETRIC_PRESENTATION_REPRESENTATION (  '', ( #732 ), #595 ) ;
#218 = DIRECTION ( 'NONE',  ( -0.000000000000000000, -0.000000000000000000, -1.000000000000000000 ) ) ;
#219 = AXIS2_PLACEMENT_3D ( 'NONE', #750, #404, #146 ) ;
#220 = VERTEX_POINT ( 'NONE', #258 ) ;
#221 = CARTESIAN_POINT ( 'NONE',  ( -0.1238211335630649973, -7.594621824805086518, 2.800000000000000266 ) ) ;
#222 = CARTESIAN_POINT ( 'NONE',  ( -3.982646507246556666, 8.531793523331554496, 1.800000000000000044 ) ) ;
#223 = ORIENTED_EDGE ( 'NONE', *, *, #711, .F. ) ;
#224 = EDGE_CURVE ( 'NONE', #733, #465, #696, .T. ) ;
#225 = EDGE_CURVE ( 'NONE', #375, #284, #4, .T. ) ;
#226 = CYLINDRICAL_SURFACE ( 'NONE', #472, 2.000000000000000000 ) ;
#227 = DIRECTION ( 'NONE',  ( 0.000000000000000000, 0.000000000000000000, 1.000000000000000000 ) ) ;
#228 = ORIENTED_EDGE ( 'NONE', *, *, #619, .F. ) ;
#229 = CARTESIAN_POINT ( 'NONE',  ( -3.389338495122143247, 4.404236621023066789, 2.800000000000000266 ) ) ;
#230 = DIRECTION ( 'NONE',  ( 0.000000000000000000, 0.000000000000000000, 1.000000000000000000 ) ) ;
#231 = ORIENTED_EDGE ( 'NONE', *, *, #119, .T. ) ;
#232 = APPLICATION_PROTOCOL_DEFINITION ( 'draft international standard', 'automotive_design', 1998, #558 ) ;
#233 = CARTESIAN_POINT ( 'NONE',  ( -3.982646507246556666, 8.531793523331554496, 0.000000000000000000 ) ) ;
#234 = DIRECTION ( 'NONE',  ( 1.000000000000000000, 0.000000000000000000, 0.000000000000000000 ) ) ;
#235 = ORIENTED_EDGE ( 'NONE', *, *, #35, .T. ) ;
#236 = CIRCLE ( 'NONE', #449, 2.000000000000000000 ) ;
#237 = CARTESIAN_POINT ( 'NONE',  ( -1.389338495122143247, 4.404236621023066789, 4.800000000000000711 ) ) ;
#238 = ORIENTED_EDGE ( 'NONE', *, *, #526, .T. ) ;
#239 = DIRECTION ( 'NONE',  ( 1.000000000000000000, 0.000000000000000000, 0.000000000000000000 ) ) ;
#240 = CIRCLE ( 'NONE', #766, 1.100000000000000977 ) ;
#241 = DIRECTION ( 'NONE',  ( 0.000000000000000000, 0.000000000000000000, 1.000000000000000000 ) ) ;
#242 = ORIENTED_EDGE ( 'NONE', *, *, #30, .F. ) ;
#243 = DIRECTION ( 'NONE',  ( -0.000000000000000000, -0.000000000000000000, -1.000000000000000000 ) ) ;
#244 = DIRECTION ( 'NONE',  ( 1.000000000000000000, 0.000000000000000000, 0.000000000000000000 ) ) ;
#245 = VECTOR ( 'NONE', #744, 1000.000000000000000 ) ;
#246 = ORIENTED_EDGE ( 'NONE', *, *, #749, .T. ) ;
#247 = ADVANCED_FACE ( 'NONE', ( #191 ), #320, .F. ) ;
#248 = DIRECTION ( 'NONE',  ( 0.000000000000000000, 0.000000000000000000, -1.000000000000000000 ) ) ;
#249 = PRESENTATION_STYLE_ASSIGNMENT (( #377 ) ) ;
#250 = VECTOR ( 'NONE', #145, 1000.000000000000000 ) ;
#251 = ORIENTED_EDGE ( 'NONE', *, *, #259, .T. ) ;
#252 = DIRECTION ( 'NONE',  ( 1.000000000000000000, 0.000000000000000000, 0.000000000000000000 ) ) ;
#253 = DIRECTION ( 'NONE',  ( 1.000000000000000000, 0.000000000000000000, 0.000000000000000000 ) ) ;
#254 = ORIENTED_EDGE ( 'NONE', *, *, #224, .T. ) ;
#255 = VECTOR ( 'NONE', #98, 1000.000000000000227 ) ;
#256 =( LENGTH_UNIT ( ) NAMED_UNIT ( * ) SI_UNIT ( .MILLI., .METRE. ) );
#257 = AXIS2_PLACEMENT_3D ( 'NONE', #105, #227, #728 ) ;
#258 = CARTESIAN_POINT ( 'NONE',  ( -2.953567215919971733, 1.969396925094657025, 3.799999999999999822 ) ) ;
#259 = EDGE_CURVE ( 'NONE', #358, #582, #406, .T. ) ;
#260 = ORIENTED_EDGE ( 'NONE', *, *, #755, .T. ) ;
#261 = DIRECTION ( 'NONE',  ( -0.000000000000000000, -0.000000000000000000, -1.000000000000000000 ) ) ;
#262 = EDGE_CURVE ( 'NONE', #500, #271, #511, .T. ) ;
#263 = APPLICATION_CONTEXT ( 'automotive_design' ) ;
#264 = FACE_OUTER_BOUND ( 'NONE', #448, .T. ) ;
#265 = DIRECTION ( 'NONE',  ( -0.000000000000000000, -0.000000000000000000, -1.000000000000000000 ) ) ;
#266 = CARTESIAN_POINT ( 'NONE',  ( -1.223821133563065100, -7.594621824805086518, 2.800000000000000266 ) ) ;
#267 = ORIENTED_EDGE ( 'NONE', *, *, #160, .F. ) ;
#268 = EDGE_CURVE ( 'NONE', #367, #16, #240, .T. ) ;
#269 =( NAMED_UNIT ( * ) SI_UNIT ( $, .STERADIAN. ) SOLID_ANGLE_UNIT ( ) );
#270 = ORIENTED_EDGE ( 'NONE', *, *, #198, .T. ) ;
#271 = VERTEX_POINT ( 'NONE', #618 ) ;
#272 = CYLINDRICAL_SURFACE ( 'NONE', #603, 2.000000000000000000 ) ;
#273 = AXIS2_PLACEMENT_3D ( 'NONE', #489, #412, #109 ) ;
#274 = CARTESIAN_POINT ( 'NONE',  ( -3.223821133563065100, -7.594621824805086518, 2.800000000000000266 ) ) ;
#275 = VERTEX_POINT ( 'NONE', #681 ) ;
#276 = LINE ( 'NONE', #760, #793 ) ;
#277 = ORIENTED_EDGE ( 'NONE', *, *, #418, .T. ) ;
#278 = ORIENTED_EDGE ( 'NONE', *, *, #687, .T. ) ;
#279 = AXIS2_PLACEMENT_3D ( 'NONE', #214, #205, #469 ) ;
#280 = APPLICATION_PROTOCOL_DEFINITION ( 'draft international standard', 'automotive_design', 1998, #263 ) ;
#281 = LINE ( 'NONE', #666, #707 ) ;
#282 = LINE ( 'NONE', #493, #708 ) ;
#283 = EDGE_CURVE ( 'NONE', #650, #491, #385, .T. ) ;
#284 = VERTEX_POINT ( 'NONE', #117 ) ;
#285 = EDGE_CURVE ( 'NONE', #16, #367, #202, .T. ) ;
#286 = CARTESIAN_POINT ( 'NONE',  ( 1.970338035482419370, 7.350857331209169843, 1.800000000000000044 ) ) ;
#287 = CARTESIAN_POINT ( 'NONE',  ( -3.982646507246556666, 8.531793523331554496, 4.800000000000000711 ) ) ;
#288 = ORIENTED_EDGE ( 'NONE', *, *, #772, .F. ) ;
#289 = VECTOR ( 'NONE', #513, 1000.000000000000000 ) ;
#290 = CARTESIAN_POINT ( 'NONE',  ( 3.631823148235540977, -9.690684049156406132, 4.800000000000000711 ) ) ;
#291 = CYLINDRICAL_SURFACE ( 'NONE', #194, 2.000000000000000000 ) ;
#292 = ORIENTED_EDGE ( 'NONE', *, *, #66, .F. ) ;
#293 = CARTESIAN_POINT ( 'NONE',  ( -3.223821133563065100, -7.594621824805086518, 2.800000000000000266 ) ) ;
#294 = CARTESIAN_POINT ( 'NONE',  ( -1.389338495122143247, 4.404236621023066789, 2.800000000000000266 ) ) ;
#295 = VECTOR ( 'NONE', #243, 1000.000000000000000 ) ;
#296 = ORIENTED_EDGE ( 'NONE', *, *, #433, .F. ) ;
#297 = AXIS2_PLACEMENT_3D ( 'NONE', #645, #95, #27 ) ;
#298 = DIRECTION ( 'NONE',  ( 1.000000000000000000, -0.000000000000000000, -0.000000000000000000 ) ) ;
#299 = DIRECTION ( 'NONE',  ( 0.000000000000000000, 0.000000000000000000, 1.000000000000000000 ) ) ;
#300 = ORIENTED_EDGE ( 'NONE', *, *, #655, .F. ) ;
#301 = CARTESIAN_POINT ( 'NONE',  ( -0.2900466527204085265, 1.969396925094662354, 1.800000000000000044 ) ) ;
#302 = CARTESIAN_POINT ( 'NONE',  ( -1.389338495122143247, 4.404236621023066789, 1.800000000000000044 ) ) ;
#303 = ORIENTED_EDGE ( 'NONE', *, *, #473, .T. ) ;
#304 = MANIFOLD_SOLID_BREP ( 'Cut-Extrude2', #548 ) ;
#305 = AXIS2_PLACEMENT_3D ( 'NONE', #442, #559, #253 ) ;
#306 = CARTESIAN_POINT ( 'NONE',  ( -2.567309692168062707, 6.447344274550292909, 0.000000000000000000 ) ) ;
#307 = DIRECTION ( 'NONE',  ( 1.000000000000000000, 0.000000000000000000, 0.000000000000000000 ) ) ;
#308 = VERTEX_POINT ( 'NONE', #460 ) ;
#309 = ADVANCED_FACE ( 'NONE', ( #264 ), #735, .F. ) ;
#310 = EDGE_CURVE ( 'NONE', #502, #444, #79, .T. ) ;
#311 = DIRECTION ( 'NONE',  ( 1.000000000000000000, 1.953869063311789647E-15, -0.000000000000000000 ) ) ;
#312 = CARTESIAN_POINT ( 'NONE',  ( 0.7761788664369350110, -7.594621824805086518, 4.800000000000000711 ) ) ;
#313 = ORIENTED_EDGE ( 'NONE', *, *, #66, .T. ) ;
#314 = PLANE ( 'NONE',  #647 ) ;
#315 =( LENGTH_UNIT ( ) NAMED_UNIT ( * ) SI_UNIT ( .MILLI., .METRE. ) );
#316 = VECTOR ( 'NONE', #428, 1000.000000000000000 ) ;
#317 = EDGE_LOOP ( 'NONE', ( #402, #138 ) ) ;
#318 = CARTESIAN_POINT ( 'NONE',  ( -3.959590400273491184, 7.269057373875631001, 1.800000000000000044 ) ) ;
#319 = ADVANCED_FACE ( 'NONE', ( #578 ), #464, .T. ) ;
#320 = PLANE ( 'NONE',  #747 ) ;
#321 = AXIS2_PLACEMENT_3D ( 'NONE', #695, #753, #388 ) ;
#322 = ORIENTED_EDGE ( 'NONE', *, *, #55, .T. ) ;
#323 = ADVANCED_FACE ( 'NONE', ( #763 ), #21, .F. ) ;
#324 = ADVANCED_FACE ( 'NONE', ( #757 ), #400, .F. ) ;
#325 = VECTOR ( 'NONE', #474, 1000.000000000000000 ) ;
#326 = DIRECTION ( 'NONE',  ( -0.000000000000000000, -0.000000000000000000, -1.000000000000000000 ) ) ;
#327 = DIRECTION ( 'NONE',  ( 0.000000000000000000, 0.000000000000000000, 1.000000000000000000 ) ) ;
#328 = FACE_OUTER_BOUND ( 'NONE', #612, .T. ) ;
#329 = FACE_BOUND ( 'NONE', #140, .T. ) ;
#330 =( NAMED_UNIT ( * ) PLANE_ANGLE_UNIT ( ) SI_UNIT ( $, .RADIAN. ) );
#331 = ORIENTED_EDGE ( 'NONE', *, *, #310, .T. ) ;
#332 = PRODUCT_DEFINITION_SHAPE ( 'NONE', 'NONE',  #80 ) ;
#333 = VECTOR ( 'NONE', #311, 1000.000000000000000 ) ;
#334 = EDGE_CURVE ( 'NONE', #582, #358, #689, .T. ) ;
#335 = ORIENTED_EDGE ( 'NONE', *, *, #209, .F. ) ;
#336 = LINE ( 'NONE', #207, #624 ) ;
#337 = DIRECTION ( 'NONE',  ( 0.000000000000000000, 1.000000000000000000, -0.000000000000000000 ) ) ;
#338 = CARTESIAN_POINT ( 'NONE',  ( -3.982646507246556666, -9.690684049156406132, 4.800000000000000711 ) ) ;
#339 = CARTESIAN_POINT ( 'NONE',  ( -1.389338495122143247, 4.404236621023066789, 4.800000000000000711 ) ) ;
#340 = DIRECTION ( 'NONE',  ( -0.000000000000000000, -0.000000000000000000, -1.000000000000000000 ) ) ;
#341 = AXIS2_PLACEMENT_3D ( 'NONE', #237, #299, #659 ) ;
#342 = EDGE_LOOP ( 'NONE', ( #570, #583 ) ) ;
#343 = DIRECTION ( 'NONE',  ( 0.000000000000000000, 0.000000000000000000, 1.000000000000000000 ) ) ;
#344 = LINE ( 'NONE', #201, #610 ) ;
#345 = EDGE_LOOP ( 'NONE', ( #394, #693 ) ) ;
#346 = DIRECTION ( 'NONE',  ( 1.000000000000000000, 0.000000000000000000, -0.000000000000000000 ) ) ;
#347 = ADVANCED_FACE ( 'NONE', ( #691 ), #581, .F. ) ;
#348 = CARTESIAN_POINT ( 'NONE',  ( -1.223821133563065100, -7.594621824805086518, 2.800000000000000266 ) ) ;
#349 = CIRCLE ( 'NONE', #305, 1.100000000000000089 ) ;
#350 = VECTOR ( 'NONE', #522, 1000.000000000000227 ) ;
#351 = EDGE_CURVE ( 'NONE', #476, #167, #195, .T. ) ;
#352 = CARTESIAN_POINT ( 'NONE',  ( -1.389338495122143247, 4.404236621023066789, 2.800000000000000266 ) ) ;
#353 = CARTESIAN_POINT ( 'NONE',  ( -2.953567215919971733, -5.199912590850852112, 3.799999999999999822 ) ) ;
#354 = ORIENTED_EDGE ( 'NONE', *, *, #417, .F. ) ;
#355 = AXIS2_PLACEMENT_3D ( 'NONE', #501, #563, #615 ) ;
#356 = DIRECTION ( 'NONE',  ( 0.000000000000000000, 0.000000000000000000, 1.000000000000000000 ) ) ;
#357 = CARTESIAN_POINT ( 'NONE',  ( -0.2900466527204085265, -5.199912590850854777, 3.799999999999999822 ) ) ;
#358 = VERTEX_POINT ( 'NONE', #637 ) ;
#359 = EDGE_CURVE ( 'NONE', #476, #650, #276, .T. ) ;
#360 = AXIS2_PLACEMENT_3D ( 'NONE', #129, #788, #550 ) ;
#361 = PLANE ( 'NONE',  #510 ) ;
#362 = FACE_OUTER_BOUND ( 'NONE', #457, .T. ) ;
#363 = ORIENTED_EDGE ( 'NONE', *, *, #268, .F. ) ;
#364 = DIRECTION ( 'NONE',  ( -0.000000000000000000, -0.000000000000000000, -1.000000000000000000 ) ) ;
#365 = DIRECTION ( 'NONE',  ( -0.000000000000000000, -1.000000000000000000, -0.000000000000000000 ) ) ;
#366 = VECTOR ( 'NONE', #614, 1000.000000000000227 ) ;
#367 = VERTEX_POINT ( 'NONE', #133 ) ;
#368 = VECTOR ( 'NONE', #543, 1000.000000000000000 ) ;
#369 = CARTESIAN_POINT ( 'NONE',  ( -0.2900466527204085265, -5.199912590850854777, 3.799999999999999822 ) ) ;
#370 = CARTESIAN_POINT ( 'NONE',  ( -0.2900466527204085265, 1.969396925094662354, 3.799999999999999822 ) ) ;
#371 = VERTEX_POINT ( 'NONE', #208 ) ;
#372 = DIRECTION ( 'NONE',  ( 0.000000000000000000, 0.000000000000000000, 1.000000000000000000 ) ) ;
#373 = EDGE_CURVE ( 'NONE', #177, #669, #671, .T. ) ;
#374 = DIRECTION ( 'NONE',  ( -0.9998333489094134441, -0.01825580479154425076, -0.000000000000000000 ) ) ;
#375 = VERTEX_POINT ( 'NONE', #644 ) ;
#376 = LINE ( 'NONE', #492, #665 ) ;
#377 = SURFACE_STYLE_USAGE ( .BOTH. , #124 ) ;
#378 = ORIENTED_EDGE ( 'NONE', *, *, #780, .F. ) ;
#379 = AXIS2_PLACEMENT_3D ( 'NONE', #348, #230, #782 ) ;
#380 = DIRECTION ( 'NONE',  ( 0.9999048704856826619, 0.01379311346324883954, -0.000000000000000000 ) ) ;
#381 = CARTESIAN_POINT ( 'NONE',  ( -0.2900466527204085265, 1.969396925094662354, 3.799999999999999822 ) ) ;
#382 = EDGE_LOOP ( 'NONE', ( #267, #216, #12, #729 ) ) ;
#383 = EDGE_CURVE ( 'NONE', #431, #284, #87, .T. ) ;
#384 = DIRECTION ( 'NONE',  ( 1.000000000000000000, 0.000000000000000000, -0.000000000000000000 ) ) ;
#385 = LINE ( 'NONE', #672, #567 ) ;
#386 = ORIENTED_EDGE ( 'NONE', *, *, #160, .T. ) ;
#387 = CARTESIAN_POINT ( 'NONE',  ( -0.2893384951221423806, 4.404236621023066789, 4.800000000000000711 ) ) ;
#388 = DIRECTION ( 'NONE',  ( -0.000000000000000000, 0.000000000000000000, -1.000000000000000000 ) ) ;
#389 = AXIS2_PLACEMENT_3D ( 'NONE', #527, #142, #18 ) ;
#390 = ORIENTED_EDGE ( 'NONE', *, *, #198, .F. ) ;
#391 = DIRECTION ( 'NONE',  ( -0.000000000000000000, -1.000000000000000000, -0.000000000000000000 ) ) ;
#392 = AXIS2_PLACEMENT_3D ( 'NONE', #204, #686, #132 ) ;
#393 = EDGE_LOOP ( 'NONE', ( #758, #187, #390, #606 ) ) ;
#394 = ORIENTED_EDGE ( 'NONE', *, *, #182, .F. ) ;
#395 = CYLINDRICAL_SURFACE ( 'NONE', #778, 1.100000000000001199 ) ;
#396 = DIRECTION ( 'NONE',  ( -0.000000000000000000, -0.000000000000000000, -1.000000000000000000 ) ) ;
#397 = DIRECTION ( 'NONE',  ( 1.000000000000000000, 0.000000000000000000, 0.000000000000000000 ) ) ;
#398 = AXIS2_PLACEMENT_3D ( 'NONE', #403, #326, #399 ) ;
#399 = DIRECTION ( 'NONE',  ( -1.000000000000000000, 0.000000000000000000, 0.000000000000000000 ) ) ;
#400 = PLANE ( 'NONE',  #279 ) ;
#401 = CYLINDRICAL_SURFACE ( 'NONE', #297, 1.100000000000000311 ) ;
#402 = ORIENTED_EDGE ( 'NONE', *, *, #106, .T. ) ;
#403 = CARTESIAN_POINT ( 'NONE',  ( -1.223821133563065100, -7.594621824805086518, 4.800000000000000711 ) ) ;
#404 = DIRECTION ( 'NONE',  ( 0.000000000000000000, 0.000000000000000000, 1.000000000000000000 ) ) ;
#405 = AXIS2_PLACEMENT_3D ( 'NONE', #357, #536, #409 ) ;
#406 = CIRCLE ( 'NONE', #51, 1.100000000000000977 ) ;
#407 = ORIENTED_EDGE ( 'NONE', *, *, #755, .F. ) ;
#408 = CARTESIAN_POINT ( 'NONE',  ( 0.7761788664369350110, -7.594621824805086518, 2.800000000000000266 ) ) ;
#409 = DIRECTION ( 'NONE',  ( 1.000000000000000000, -9.769345316558948235E-16, 0.000000000000000000 ) ) ;
#410 = EDGE_CURVE ( 'NONE', #591, #794, #587, .T. ) ;
#411 = FACE_BOUND ( 'NONE', #342, .T. ) ;
#412 = DIRECTION ( 'NONE',  ( -0.000000000000000000, -0.000000000000000000, -1.000000000000000000 ) ) ;
#413 = VERTEX_POINT ( 'NONE', #649 ) ;
#414 = CARTESIAN_POINT ( 'NONE',  ( 0.000000000000000000, 0.000000000000000000, 0.000000000000000000 ) ) ;
#415 = CARTESIAN_POINT ( 'NONE',  ( -3.982646507246556666, 8.531793523331554496, 4.800000000000000711 ) ) ;
#416 = FACE_OUTER_BOUND ( 'NONE', #479, .T. ) ;
#417 = EDGE_CURVE ( 'NONE', #167, #73, #94, .T. ) ;
#418 = EDGE_CURVE ( 'NONE', #467, #177, #76, .T. ) ;
#419 = ORIENTED_EDGE ( 'NONE', *, *, #495, .F. ) ;
#420 = DIRECTION ( 'NONE',  ( 0.01379311346324878056, -0.9999048704856826619, -0.000000000000000000 ) ) ;
#421 = LINE ( 'NONE', #478, #168 ) ;
#422 = ORIENTED_EDGE ( 'NONE', *, *, #433, .T. ) ;
#423 = LINE ( 'NONE', #165, #771 ) ;
#424 = CARTESIAN_POINT ( 'NONE',  ( 2.205416312212453711, -9.690684049156406132, 1.800000000000000044 ) ) ;
#425 = ORIENTED_EDGE ( 'NONE', *, *, #611, .T. ) ;
#426 = AXIS2_PLACEMENT_3D ( 'NONE', #381, #556, #435 ) ;
#427 = VECTOR ( 'NONE', #396, 1000.000000000000000 ) ;
#428 = DIRECTION ( 'NONE',  ( -0.000000000000000000, -0.000000000000000000, -1.000000000000000000 ) ) ;
#429 = DIRECTION ( 'NONE',  ( 1.000000000000000000, 1.953869063311789647E-15, -0.000000000000000000 ) ) ;
#430 = CIRCLE ( 'NONE', #88, 2.000000000000000000 ) ;
#431 = VERTEX_POINT ( 'NONE', #221 ) ;
#432 = EDGE_CURVE ( 'NONE', #96, #494, #430, .T. ) ;
#433 = EDGE_CURVE ( 'NONE', #590, #122, #482, .T. ) ;
#434 = LINE ( 'NONE', #565, #110 ) ;
#435 = DIRECTION ( 'NONE',  ( -1.000000000000000000, -1.953869063311789647E-15, 0.000000000000000000 ) ) ;
#436 = ORIENTED_EDGE ( 'NONE', *, *, #268, .T. ) ;
#437 = ADVANCED_FACE ( 'NONE', ( #485 ), #226, .F. ) ;
#438 = CYLINDRICAL_SURFACE ( 'NONE', #360, 4.926998846378876529 ) ;
#439 = LINE ( 'NONE', #370, #173 ) ;
#440 = ORIENTED_EDGE ( 'NONE', *, *, #561, .T. ) ;
#441 = LINE ( 'NONE', #680, #541 ) ;
#442 = CARTESIAN_POINT ( 'NONE',  ( -1.223821133563065100, -7.594621824805086518, 2.800000000000000266 ) ) ;
#443 = ADVANCED_FACE ( 'NONE', ( #538, #102 ), #361, .T. ) ;
#444 = VERTEX_POINT ( 'NONE', #37 ) ;
#445 = AXIS2_PLACEMENT_3D ( 'NONE', #424, #667, #483 ) ;
#446 = LINE ( 'NONE', #621, #316 ) ;
#447 = FACE_OUTER_BOUND ( 'NONE', #118, .T. ) ;
#448 = EDGE_LOOP ( 'NONE', ( #529, #242, #419, #34 ) ) ;
#449 = AXIS2_PLACEMENT_3D ( 'NONE', #605, #774, #609 ) ;
#450 =( NAMED_UNIT ( * ) SI_UNIT ( $, .STERADIAN. ) SOLID_ANGLE_UNIT ( ) );
#451 = DIRECTION ( 'NONE',  ( 1.000000000000000000, 0.000000000000000000, 0.000000000000000000 ) ) ;
#452 = ADVANCED_BREP_SHAPE_REPRESENTATION ( 'cover-ir-rx', ( #304, #723 ), #475 ) ;
#453 = ORIENTED_EDGE ( 'NONE', *, *, #458, .F. ) ;
#454 = DIRECTION ( 'NONE',  ( -0.000000000000000000, -0.000000000000000000, 1.000000000000000000 ) ) ;
#455 = CARTESIAN_POINT ( 'NONE',  ( -3.982646507246556666, 8.531793523331554496, 4.800000000000000711 ) ) ;
#456 = PRESENTATION_LAYER_ASSIGNMENT (  '', '', ( #732 ) ) ;
#457 = EDGE_LOOP ( 'NONE', ( #83, #453, #128, #303 ) ) ;
#458 = EDGE_CURVE ( 'NONE', #591, #413, #593, .T. ) ;
#459 = VECTOR ( 'NONE', #762, 1000.000000000000227 ) ;
#460 = CARTESIAN_POINT ( 'NONE',  ( -2.953567215919971733, 1.969396925094657025, 1.800000000000000044 ) ) ;
#461 = CARTESIAN_POINT ( 'NONE',  ( -1.223821133563065100, -7.594621824805086518, 1.800000000000000044 ) ) ;
#462 = FACE_OUTER_BOUND ( 'NONE', #698, .T. ) ;
#463 = PRODUCT_DEFINITION_CONTEXT ( 'detailed design', #558, 'design' ) ;
#464 = PLANE ( 'NONE',  #389 ) ;
#465 = VERTEX_POINT ( 'NONE', #781 ) ;
#466 = CIRCLE ( 'NONE', #641, 2.000000000000000000 ) ;
#467 = VERTEX_POINT ( 'NONE', #408 ) ;
#468 = DIRECTION ( 'NONE',  ( 1.000000000000000000, 0.000000000000000000, 0.000000000000000000 ) ) ;
#469 = DIRECTION ( 'NONE',  ( 0.9998333489094134441, 0.01825580479154425076, 0.000000000000000000 ) ) ;
#470 = VERTEX_POINT ( 'NONE', #293 ) ;
#471 = ORIENTED_EDGE ( 'NONE', *, *, #574, .F. ) ;
#472 = AXIS2_PLACEMENT_3D ( 'NONE', #477, #596, #45 ) ;
#473 = EDGE_CURVE ( 'NONE', #275, #155, #722, .T. ) ;
#474 = DIRECTION ( 'NONE',  ( -0.000000000000000000, -0.000000000000000000, -1.000000000000000000 ) ) ;
#475 =( GEOMETRIC_REPRESENTATION_CONTEXT ( 3 ) GLOBAL_UNCERTAINTY_ASSIGNED_CONTEXT ( ( #704 ) ) GLOBAL_UNIT_ASSIGNED_CONTEXT ( ( #256, #525, #450 ) ) REPRESENTATION_CONTEXT ( 'NONE', 'WORKASPACE' ) );
#476 = VERTEX_POINT ( 'NONE', #161 ) ;
#477 = CARTESIAN_POINT ( 'NONE',  ( -1.389338495122143247, 4.404236621023066789, 2.800000000000000266 ) ) ;
#478 = CARTESIAN_POINT ( 'NONE',  ( -0.2900466527204085265, -5.199912590850854777, 1.800000000000000044 ) ) ;
#479 = EDGE_LOOP ( 'NONE', ( #111, #682, #363, #407 ) ) ;
#480 = DIRECTION ( 'NONE',  ( 0.000000000000000000, 0.000000000000000000, 1.000000000000000000 ) ) ;
#481 = EDGE_CURVE ( 'NONE', #96, #733, #785, .T. ) ;
#482 = LINE ( 'NONE', #542, #75 ) ;
#483 = DIRECTION ( 'NONE',  ( -0.01379311346324878056, 0.9999048704856826619, 0.000000000000000000 ) ) ;
#484 = ORIENTED_EDGE ( 'NONE', *, *, #498, .T. ) ;
#485 = FACE_OUTER_BOUND ( 'NONE', #506, .T. ) ;
#486 = PLANE ( 'NONE',  #445 ) ;
#487 = ORIENTED_EDGE ( 'NONE', *, *, #432, .F. ) ;
#488 = CARTESIAN_POINT ( 'NONE',  ( -3.959590400273491184, 7.269057373875631001, 0.000000000000000000 ) ) ;
#489 = CARTESIAN_POINT ( 'NONE',  ( -1.389338495122143247, 4.404236621023066789, 4.800000000000000711 ) ) ;
#490 = AXIS2_PLACEMENT_3D ( 'NONE', #33, #539, #166 ) ;
#491 = VERTEX_POINT ( 'NONE', #233 ) ;
#492 = CARTESIAN_POINT ( 'NONE',  ( -2.953567215919971733, -5.199912590850852112, 1.800000000000000044 ) ) ;
#493 = CARTESIAN_POINT ( 'NONE',  ( 1.970338035482419370, 7.350857331209169843, 1.800000000000000044 ) ) ;
#494 = VERTEX_POINT ( 'NONE', #600 ) ;
#495 = EDGE_CURVE ( 'NONE', #167, #107, #50, .T. ) ;
#496 = AXIS2_PLACEMENT_3D ( 'NONE', #150, #519, #700 ) ;
#497 = CARTESIAN_POINT ( 'NONE',  ( -0.2900466527204085265, 1.969396925094662354, 3.799999999999999822 ) ) ;
#498 = EDGE_CURVE ( 'NONE', #491, #155, #658, .T. ) ;
#499 = CARTESIAN_POINT ( 'NONE',  ( -2.567309692168062707, 6.447344274550292909, 4.800000000000000711 ) ) ;
#500 = VERTEX_POINT ( 'NONE', #290 ) ;
#501 = CARTESIAN_POINT ( 'NONE',  ( -1.389338495122143247, 4.404236621023066789, 4.800000000000000711 ) ) ;
#502 = VERTEX_POINT ( 'NONE', #32 ) ;
#503 = CARTESIAN_POINT ( 'NONE',  ( 1.845785321592047001, 8.638213972123507389, 0.000000000000000000 ) ) ;
#504 = EDGE_CURVE ( 'NONE', #413, #660, #423, .T. ) ;
#505 = DIRECTION ( 'NONE',  ( 0.000000000000000000, 0.000000000000000000, 1.000000000000000000 ) ) ;
#506 = EDGE_LOOP ( 'NONE', ( #211, #736, #313, #532 ) ) ;
#507 = LINE ( 'NONE', #734, #295 ) ;
#508 = DIRECTION ( 'NONE',  ( 0.000000000000000000, 0.000000000000000000, 1.000000000000000000 ) ) ;
#509 = ORIENTED_EDGE ( 'NONE', *, *, #495, .T. ) ;
#510 = AXIS2_PLACEMENT_3D ( 'NONE', #352, #767, #346 ) ;
#511 = LINE ( 'NONE', #56, #668 ) ;
#512 = EDGE_LOOP ( 'NONE', ( #64, #638 ) ) ;
#513 = DIRECTION ( 'NONE',  ( -0.000000000000000000, -0.000000000000000000, -1.000000000000000000 ) ) ;
#514 = DIRECTION ( 'NONE',  ( -0.000000000000000000, -0.000000000000000000, -1.000000000000000000 ) ) ;
#515 = DIRECTION ( 'NONE',  ( -1.000000000000000000, 9.769345316558948235E-16, 0.000000000000000000 ) ) ;
#516 = ORIENTED_EDGE ( 'NONE', *, *, #259, .F. ) ;
#517 = ADVANCED_FACE ( 'NONE', ( #726 ), #661, .F. ) ;
#518 = LINE ( 'NONE', #699, #8 ) ;
#519 = DIRECTION ( 'NONE',  ( -0.000000000000000000, -0.000000000000000000, 1.000000000000000000 ) ) ;
#520 = EDGE_LOOP ( 'NONE', ( #549, #471, #679, #524, #300, #158, #706 ) ) ;
#521 = LINE ( 'NONE', #20, #43 ) ;
#522 = DIRECTION ( 'NONE',  ( -0.9998333489094134441, -0.01825580479154425076, -0.000000000000000000 ) ) ;
#523 = DIRECTION ( 'NONE',  ( -0.000000000000000000, -0.000000000000000000, -1.000000000000000000 ) ) ;
#524 = ORIENTED_EDGE ( 'NONE', *, *, #504, .F. ) ;
#525 =( NAMED_UNIT ( * ) PLANE_ANGLE_UNIT ( ) SI_UNIT ( $, .RADIAN. ) );
#526 = EDGE_CURVE ( 'NONE', #92, #375, #281, .T. ) ;
#527 = CARTESIAN_POINT ( 'NONE',  ( 0.000000000000000000, 0.000000000000000000, 3.799999999999999822 ) ) ;
#528 = DIRECTION ( 'NONE',  ( -0.000000000000000000, -0.000000000000000000, 1.000000000000000000 ) ) ;
#529 = ORIENTED_EDGE ( 'NONE', *, *, #209, .T. ) ;
#530 = AXIS2_PLACEMENT_3D ( 'NONE', #499, #508, #244 ) ;
#531 = PLANE ( 'NONE',  #188 ) ;
#532 = ORIENTED_EDGE ( 'NONE', *, *, #81, .T. ) ;
#533 = COLOUR_RGB ( '',0.7921568627450980005, 0.8196078431372548767, 0.9333333333333333481 ) ;
#534 = VECTOR ( 'NONE', #340, 1000.000000000000000 ) ;
#535 = FACE_BOUND ( 'NONE', #345, .T. ) ;
#536 = DIRECTION ( 'NONE',  ( -9.769345316558948235E-16, -1.000000000000000000, 0.000000000000000000 ) ) ;
#537 = EDGE_LOOP ( 'NONE', ( #152, #509, #61, #765, #270 ) ) ;
#538 = FACE_BOUND ( 'NONE', #3, .T. ) ;
#539 = DIRECTION ( 'NONE',  ( -0.01379311346324883954, 0.9999048704856827730, 0.000000000000000000 ) ) ;
#540 = ORIENTED_EDGE ( 'NONE', *, *, #749, .F. ) ;
#541 = VECTOR ( 'NONE', #380, 1000.000000000000227 ) ;
#542 = CARTESIAN_POINT ( 'NONE',  ( -0.2900466527204085265, -5.199912590850854777, 3.799999999999999822 ) ) ;
#543 = DIRECTION ( 'NONE',  ( -0.000000000000000000, -0.000000000000000000, 1.000000000000000000 ) ) ;
#544 = ORIENTED_EDGE ( 'NONE', *, *, #125, .T. ) ;
#545 = DIRECTION ( 'NONE',  ( 1.000000000000000000, 0.000000000000000000, 0.000000000000000000 ) ) ;
#546 = AXIS2_PLACEMENT_3D ( 'NONE', #108, #169, #653 ) ;
#547 = DIRECTION ( 'NONE',  ( -0.000000000000000000, -0.000000000000000000, 1.000000000000000000 ) ) ;
#548 = CLOSED_SHELL ( 'NONE', ( #323, #174, #137, #712, #31, #697, #584, #324, #247, #148, #100, #347, #517, #58, #795, #554, #309, #197, #172, #65, #643, #319, #437, #443, #737, #551 ) ) ;
#549 = ORIENTED_EDGE ( 'NONE', *, *, #598, .F. ) ;
#550 = DIRECTION ( 'NONE',  ( -1.000000000000000000, 0.000000000000000000, 0.000000000000000000 ) ) ;
#551 = ADVANCED_FACE ( 'NONE', ( #535, #607 ), #531, .T. ) ;
#552 = FACE_OUTER_BOUND ( 'NONE', #602, .T. ) ;
#553 = EDGE_LOOP ( 'NONE', ( #180, #223, #761, #24, #557, #47 ) ) ;
#554 = ADVANCED_FACE ( 'NONE', ( #156, #411, #1 ), #314, .T. ) ;
#555 = DIRECTION ( 'NONE',  ( -0.000000000000000000, -0.000000000000000000, -1.000000000000000000 ) ) ;
#556 = DIRECTION ( 'NONE',  ( -1.953869063311789647E-15, 1.000000000000000000, 0.000000000000000000 ) ) ;
#557 = ORIENTED_EDGE ( 'NONE', *, *, #769, .T. ) ;
#558 = APPLICATION_CONTEXT ( 'automotive_design' ) ;
#559 = DIRECTION ( 'NONE',  ( 0.000000000000000000, 0.000000000000000000, 1.000000000000000000 ) ) ;
#560 = ORIENTED_EDGE ( 'NONE', *, *, #504, .T. ) ;
#561 = EDGE_CURVE ( 'NONE', #73, #491, #507, .T. ) ;
#562 = PLANE ( 'NONE',  #184 ) ;
#563 = DIRECTION ( 'NONE',  ( 0.000000000000000000, 0.000000000000000000, 1.000000000000000000 ) ) ;
#564 = EDGE_LOOP ( 'NONE', ( #57, #787 ) ) ;
#565 = CARTESIAN_POINT ( 'NONE',  ( -3.982646507246556666, -9.690684049156406132, 4.800000000000000711 ) ) ;
#566 = ORIENTED_EDGE ( 'NONE', *, *, #182, .T. ) ;
#567 = VECTOR ( 'NONE', #374, 1000.000000000000227 ) ;
#568 = LINE ( 'NONE', #690, #701 ) ;
#569 = DIRECTION ( 'NONE',  ( 1.000000000000000000, 0.000000000000000000, 0.000000000000000000 ) ) ;
#570 = ORIENTED_EDGE ( 'NONE', *, *, #373, .F. ) ;
#571 = VECTOR ( 'NONE', #298, 1000.000000000000000 ) ;
#572 = FACE_OUTER_BOUND ( 'NONE', #742, .T. ) ;
#573 = CARTESIAN_POINT ( 'NONE',  ( 0.7761788664369350110, -7.594621824805086518, 2.800000000000000266 ) ) ;
#574 = EDGE_CURVE ( 'NONE', #77, #657, #627, .T. ) ;
#575 = EDGE_CURVE ( 'NONE', #660, #77, #178, .T. ) ;
#576 = LINE ( 'NONE', #274, #586 ) ;
#577 = EDGE_CURVE ( 'NONE', #107, #500, #434, .T. ) ;
#578 = FACE_OUTER_BOUND ( 'NONE', #588, .T. ) ;
#579 = ORIENTED_EDGE ( 'NONE', *, *, #310, .F. ) ;
#580 = ORIENTED_EDGE ( 'NONE', *, *, #225, .F. ) ;
#581 = PLANE ( 'NONE',  #101 ) ;
#582 = VERTEX_POINT ( 'NONE', #189 ) ;
#583 = ORIENTED_EDGE ( 'NONE', *, *, #687, .F. ) ;
#584 = ADVANCED_FACE ( 'NONE', ( #181 ), #438, .T. ) ;
#585 = DIRECTION ( 'NONE',  ( -0.000000000000000000, -0.000000000000000000, -1.000000000000000000 ) ) ;
#586 = VECTOR ( 'NONE', #528, 1000.000000000000000 ) ;
#587 = LINE ( 'NONE', #26, #115 ) ;
#588 = EDGE_LOOP ( 'NONE', ( #626, #126, #322, #246 ) ) ;
#589 = DIRECTION ( 'NONE',  ( -0.000000000000000000, -0.000000000000000000, -1.000000000000000000 ) ) ;
#590 = VERTEX_POINT ( 'NONE', #369 ) ;
#591 = VERTEX_POINT ( 'NONE', #9 ) ;
#592 = AXIS2_PLACEMENT_3D ( 'NONE', #68, #11, #307 ) ;
#593 = LINE ( 'NONE', #286, #325 ) ;
#594 = DIRECTION ( 'NONE',  ( -1.000000000000000000, 9.769345316558948235E-16, 0.000000000000000000 ) ) ;
#595 =( GEOMETRIC_REPRESENTATION_CONTEXT ( 3 ) GLOBAL_UNCERTAINTY_ASSIGNED_CONTEXT ( ( #93 ) ) GLOBAL_UNIT_ASSIGNED_CONTEXT ( ( #315, #330, #269 ) ) REPRESENTATION_CONTEXT ( 'NONE', 'WORKASPACE' ) );
#596 = DIRECTION ( 'NONE',  ( -0.000000000000000000, -0.000000000000000000, 1.000000000000000000 ) ) ;
#597 = DIRECTION ( 'NONE',  ( -1.000000000000000000, 0.000000000000000000, 0.000000000000000000 ) ) ;
#598 = EDGE_CURVE ( 'NONE', #657, #650, #677, .T. ) ;
#599 = EDGE_LOOP ( 'NONE', ( #629, #579, #7, #422 ) ) ;
#600 = CARTESIAN_POINT ( 'NONE',  ( 0.6106615048778567534, 4.404236621023066789, 2.800000000000000266 ) ) ;
#601 = CARTESIAN_POINT ( 'NONE',  ( -1.223821133563065100, -7.594621824805086518, 2.800000000000000266 ) ) ;
#602 = EDGE_LOOP ( 'NONE', ( #560, #719, #685, #751 ) ) ;
#603 = AXIS2_PLACEMENT_3D ( 'NONE', #266, #454, #631 ) ;
#604 = DIRECTION ( 'NONE',  ( -0.000000000000000000, -0.000000000000000000, 1.000000000000000000 ) ) ;
#605 = CARTESIAN_POINT ( 'NONE',  ( -1.389338495122143247, 4.404236621023066789, 2.800000000000000266 ) ) ;
#606 = ORIENTED_EDGE ( 'NONE', *, *, #619, .T. ) ;
#607 = FACE_OUTER_BOUND ( 'NONE', #317, .T. ) ;
#608 = VECTOR ( 'NONE', #112, 1000.000000000000000 ) ;
#609 = DIRECTION ( 'NONE',  ( 1.000000000000000000, 0.000000000000000000, 0.000000000000000000 ) ) ;
#610 = VECTOR ( 'NONE', #515, 1000.000000000000000 ) ;
#611 = EDGE_CURVE ( 'NONE', #651, #371, #123, .T. ) ;
#612 = EDGE_LOOP ( 'NONE', ( #29, #544, #238, #646 ) ) ;
#613 = EDGE_CURVE ( 'NONE', #444, #308, #376, .T. ) ;
#614 = DIRECTION ( 'NONE',  ( -0.07766798534269502008, 0.9969792796506889987, -0.000000000000000000 ) ) ;
#615 = DIRECTION ( 'NONE',  ( 1.000000000000000000, 0.000000000000000000, 0.000000000000000000 ) ) ;
#616 = EDGE_LOOP ( 'NONE', ( #710, #228, #790, #171 ) ) ;
#617 = DIRECTION ( 'NONE',  ( 0.000000000000000000, 0.000000000000000000, 1.000000000000000000 ) ) ;
#618 = CARTESIAN_POINT ( 'NONE',  ( 2.344806068534511123, 6.830014348734375851, 4.800000000000000711 ) ) ;
#619 = EDGE_CURVE ( 'NONE', #271, #657, #446, .T. ) ;
#620 = ORIENTED_EDGE ( 'NONE', *, *, #283, .T. ) ;
#621 = CARTESIAN_POINT ( 'NONE',  ( 2.344806068534511123, 6.830014348734375851, 1.800000000000000044 ) ) ;
#622 = CARTESIAN_POINT ( 'NONE',  ( -3.982646507246556666, -9.690684049156406132, 1.800000000000000044 ) ) ;
#623 = EDGE_LOOP ( 'NONE', ( #484, #69, #378, #440 ) ) ;
#624 = VECTOR ( 'NONE', #391, 1000.000000000000000 ) ;
#625 = CARTESIAN_POINT ( 'NONE',  ( 2.344806068534511123, 6.830014348734375851, 0.000000000000000000 ) ) ;
#626 = ORIENTED_EDGE ( 'NONE', *, *, #199, .T. ) ;
#627 = LINE ( 'NONE', #186, #366 ) ;
#628 = DIRECTION ( 'NONE',  ( -0.01825580479154432362, 0.9998333489094134441, 0.000000000000000000 ) ) ;
#629 = ORIENTED_EDGE ( 'NONE', *, *, #139, .T. ) ;
#630 = AXIS2_PLACEMENT_3D ( 'NONE', #302, #241, #60 ) ;
#631 = DIRECTION ( 'NONE',  ( 1.000000000000000000, 0.000000000000000000, 0.000000000000000000 ) ) ;
#632 = EDGE_CURVE ( 'NONE', #794, #660, #670, .T. ) ;
#633 = CARTESIAN_POINT ( 'NONE',  ( -0.1238211335630649973, -7.594621824805086518, 4.800000000000000711 ) ) ;
#634 = ORIENTED_EDGE ( 'NONE', *, *, #334, .F. ) ;
#635 = EDGE_CURVE ( 'NONE', #308, #371, #116, .T. ) ;
#636 = LINE ( 'NONE', #318, #459 ) ;
#637 = CARTESIAN_POINT ( 'NONE',  ( -0.2893384951221423806, 4.404236621023066789, 2.800000000000000266 ) ) ;
#638 = ORIENTED_EDGE ( 'NONE', *, *, #224, .F. ) ;
#639 = ORIENTED_EDGE ( 'NONE', *, *, #359, .T. ) ;
#640 = CARTESIAN_POINT ( 'NONE',  ( -1.389338495122143247, 4.404236621023066789, 2.800000000000000266 ) ) ;
#641 = AXIS2_PLACEMENT_3D ( 'NONE', #70, #703, #468 ) ;
#642 = LINE ( 'NONE', #338, #648 ) ;
#643 = ADVANCED_FACE ( 'NONE', ( #674 ), #562, .F. ) ;
#644 = CARTESIAN_POINT ( 'NONE',  ( -2.323821133563065189, -7.594621824805086518, 1.800000000000000044 ) ) ;
#645 = CARTESIAN_POINT ( 'NONE',  ( -1.223821133563065100, -7.594621824805086518, 4.800000000000000711 ) ) ;
#646 = ORIENTED_EDGE ( 'NONE', *, *, #10, .F. ) ;
#647 = AXIS2_PLACEMENT_3D ( 'NONE', #738, #617, #384 ) ;
#648 = VECTOR ( 'NONE', #523, 1000.000000000000000 ) ;
#649 = CARTESIAN_POINT ( 'NONE',  ( 1.970338035482419370, 7.350857331209169843, 0.000000000000000000 ) ) ;
#650 = VERTEX_POINT ( 'NONE', #503 ) ;
#651 = VERTEX_POINT ( 'NONE', #497 ) ;
#652 = AXIS2_PLACEMENT_3D ( 'NONE', #353, #597, #718 ) ;
#653 = DIRECTION ( 'NONE',  ( 0.07766798534269502008, -0.9969792796506889987, 0.000000000000000000 ) ) ;
#654 = CARTESIAN_POINT ( 'NONE',  ( -3.389338495122143247, 4.404236621023066789, 2.800000000000000266 ) ) ;
#655 = EDGE_CURVE ( 'NONE', #155, #413, #441, .T. ) ;
#656 = CYLINDRICAL_SURFACE ( 'NONE', #273, 1.100000000000001199 ) ;
#657 = VERTEX_POINT ( 'NONE', #625 ) ;
#658 = LINE ( 'NONE', #488, #255 ) ;
#659 = DIRECTION ( 'NONE',  ( 1.000000000000000000, 0.000000000000000000, 0.000000000000000000 ) ) ;
#660 = VERTEX_POINT ( 'NONE', #67 ) ;
#661 = PLANE ( 'NONE',  #546 ) ;
#662 = PLANE ( 'NONE',  #652 ) ;
#663 = ORIENTED_EDGE ( 'NONE', *, *, #35, .F. ) ;
#664 = PRODUCT_RELATED_PRODUCT_CATEGORY ( 'part', '', ( #90 ) ) ;
#665 = VECTOR ( 'NONE', #54, 1000.000000000000000 ) ;
#666 = CARTESIAN_POINT ( 'NONE',  ( -2.323821133563065189, -7.594621824805086518, 4.800000000000000711 ) ) ;
#667 = DIRECTION ( 'NONE',  ( 0.9999048704856827730, 0.01379311346324878229, -0.000000000000000000 ) ) ;
#668 = VECTOR ( 'NONE', #675, 1000.000000000000227 ) ;
#669 = VERTEX_POINT ( 'NONE', #136 ) ;
#670 = LINE ( 'NONE', #120, #144 ) ;
#671 = CIRCLE ( 'NONE', #219, 2.000000000000000000 ) ;
#672 = CARTESIAN_POINT ( 'NONE',  ( -3.982646507246556666, 8.531793523331554496, 0.000000000000000000 ) ) ;
#673 = EDGE_LOOP ( 'NONE', ( #82, #725, #540, #331 ) ) ;
#674 = FACE_OUTER_BOUND ( 'NONE', #688, .T. ) ;
#675 = DIRECTION ( 'NONE',  ( -0.07766798534269502008, 0.9969792796506889987, 0.000000000000000000 ) ) ;
#676 = ORIENTED_EDGE ( 'NONE', *, *, #175, .F. ) ;
#677 = CIRCLE ( 'NONE', #84, 4.926998846378876529 ) ;
#678 = FILL_AREA_STYLE ('',( #179 ) ) ;
#679 = ORIENTED_EDGE ( 'NONE', *, *, #575, .F. ) ;
#680 = CARTESIAN_POINT ( 'NONE',  ( 1.970338035482419370, 7.350857331209169843, 0.000000000000000000 ) ) ;
#681 = CARTESIAN_POINT ( 'NONE',  ( -3.959590400273491184, 7.269057373875631001, 1.800000000000000044 ) ) ;
#682 = ORIENTED_EDGE ( 'NONE', *, *, #715, .T. ) ;
#683 = VECTOR ( 'NONE', #265, 1000.000000000000000 ) ;
#684 = DIRECTION ( 'NONE',  ( 0.9998333489094135551, 0.01825580479154432709, -0.000000000000000000 ) ) ;
#685 = ORIENTED_EDGE ( 'NONE', *, *, #410, .F. ) ;
#686 = DIRECTION ( 'NONE',  ( 0.000000000000000000, 0.000000000000000000, 1.000000000000000000 ) ) ;
#687 = EDGE_CURVE ( 'NONE', #669, #177, #466, .T. ) ;
#688 = EDGE_LOOP ( 'NONE', ( #386, #296, #288, #425 ) ) ;
#689 = CIRCLE ( 'NONE', #135, 1.100000000000000977 ) ;
#690 = CARTESIAN_POINT ( 'NONE',  ( -2.489338495122144668, 4.404236621023066789, 4.800000000000000711 ) ) ;
#691 = FACE_OUTER_BOUND ( 'NONE', #553, .T. ) ;
#692 = PLANE ( 'NONE',  #257 ) ;
#693 = ORIENTED_EDGE ( 'NONE', *, *, #125, .F. ) ;
#694 = FACE_BOUND ( 'NONE', #382, .T. ) ;
#695 = CARTESIAN_POINT ( 'NONE',  ( -3.982646507246556666, 8.531793523331554496, 4.800000000000000711 ) ) ;
#696 = CIRCLE ( 'NONE', #355, 2.000000000000000000 ) ;
#697 = ADVANCED_FACE ( 'NONE', ( #462 ), #395, .F. ) ;
#698 = EDGE_LOOP ( 'NONE', ( #783, #251, #260, #39 ) ) ;
#699 = CARTESIAN_POINT ( 'NONE',  ( -3.982646507246556666, -9.690684049156406132, 1.800000000000000044 ) ) ;
#700 = DIRECTION ( 'NONE',  ( 1.000000000000000000, 0.000000000000000000, 0.000000000000000000 ) ) ;
#701 = VECTOR ( 'NONE', #261, 1000.000000000000000 ) ;
#702 = CARTESIAN_POINT ( 'NONE',  ( -0.2893384951221423806, 4.404236621023066789, 1.800000000000000044 ) ) ;
#703 = DIRECTION ( 'NONE',  ( 0.000000000000000000, 0.000000000000000000, 1.000000000000000000 ) ) ;
#704 = UNCERTAINTY_MEASURE_WITH_UNIT (LENGTH_MEASURE( 1.000000000000000082E-05 ), #256, 'distance_accuracy_value', 'NONE');
#705 = DIRECTION ( 'NONE',  ( 0.01379311346253208996, -0.9999048704856925429, -0.000000000000000000 ) ) ;
#706 = ORIENTED_EDGE ( 'NONE', *, *, #283, .F. ) ;
#707 = VECTOR ( 'NONE', #364, 1000.000000000000000 ) ;
#708 = VECTOR ( 'NONE', #731, 1000.000000000000227 ) ;
#709 = DIRECTION ( 'NONE',  ( 0.000000000000000000, 0.000000000000000000, 1.000000000000000000 ) ) ;
#710 = ORIENTED_EDGE ( 'NONE', *, *, #574, .T. ) ;
#711 = EDGE_CURVE ( 'NONE', #500, #77, #521, .T. ) ;
#712 = ADVANCED_FACE ( 'NONE', ( #572 ), #748, .F. ) ;
#713 = DIRECTION ( 'NONE',  ( 1.000000000000000000, 0.000000000000000000, -0.000000000000000000 ) ) ;
#714 = DIRECTION ( 'NONE',  ( 0.000000000000000000, 0.000000000000000000, 1.000000000000000000 ) ) ;
#715 = EDGE_CURVE ( 'NONE', #358, #16, #25, .T. ) ;
#716 = ORIENTED_EDGE ( 'NONE', *, *, #780, .T. ) ;
#717 = CARTESIAN_POINT ( 'NONE',  ( -3.959590400273491184, 7.269057373875631001, 1.800000000000000044 ) ) ;
#718 = DIRECTION ( 'NONE',  ( 0.000000000000000000, 0.000000000000000000, 1.000000000000000000 ) ) ;
#719 = ORIENTED_EDGE ( 'NONE', *, *, #632, .F. ) ;
#720 = PRODUCT_CONTEXT ( 'NONE', #263, 'mechanical' ) ;
#721 = AXIS2_PLACEMENT_3D ( 'NONE', #601, #714, #234 ) ;
#722 = LINE ( 'NONE', #717, #151 ) ;
#723 = AXIS2_PLACEMENT_3D ( 'NONE', #414, #480, #164 ) ;
#724 = LINE ( 'NONE', #157, #97 ) ;
#725 = ORIENTED_EDGE ( 'NONE', *, *, #40, .F. ) ;
#726 = FACE_OUTER_BOUND ( 'NONE', #616, .T. ) ;
#727 = CIRCLE ( 'NONE', #592, 2.000000000000000000 ) ;
#728 = DIRECTION ( 'NONE',  ( 1.000000000000000000, 0.000000000000000000, -0.000000000000000000 ) ) ;
#729 = ORIENTED_EDGE ( 'NONE', *, *, #139, .F. ) ;
#730 = DIRECTION ( 'NONE',  ( 1.000000000000000000, 0.000000000000000000, 0.000000000000000000 ) ) ;
#731 = DIRECTION ( 'NONE',  ( 0.9999048704856826619, 0.01379311346324883954, -0.000000000000000000 ) ) ;
#732 = STYLED_ITEM ( 'NONE', ( #249 ), #304 ) ;
#733 = VERTEX_POINT ( 'NONE', #74 ) ;
#734 = CARTESIAN_POINT ( 'NONE',  ( -3.982646507246556666, 8.531793523331554496, 1.800000000000000044 ) ) ;
#735 = PLANE ( 'NONE',  #321 ) ;
#736 = ORIENTED_EDGE ( 'NONE', *, *, #149, .F. ) ;
#737 = ADVANCED_FACE ( 'NONE', ( #752 ), #272, .F. ) ;
#738 = CARTESIAN_POINT ( 'NONE',  ( -2.567309692168062707, 6.447344274550292909, 4.800000000000000711 ) ) ;
#739 = CARTESIAN_POINT ( 'NONE',  ( -1.223821133563065100, -7.594621824805086518, 1.800000000000000044 ) ) ;
#740 = EDGE_LOOP ( 'NONE', ( #22, #131 ) ) ;
#741 = LINE ( 'NONE', #71, #245 ) ;
#742 = EDGE_LOOP ( 'NONE', ( #566, #745, #580, #44 ) ) ;
#743 = VECTOR ( 'NONE', #41, 1000.000000000000000 ) ;
#744 = DIRECTION ( 'NONE',  ( 0.000000000000000000, -1.000000000000000000, 0.000000000000000000 ) ) ;
#745 = ORIENTED_EDGE ( 'NONE', *, *, #383, .T. ) ;
#746 = CIRCLE ( 'NONE', #341, 2.000000000000000000 ) ;
#747 = AXIS2_PLACEMENT_3D ( 'NONE', #63, #684, #628 ) ;
#748 = CYLINDRICAL_SURFACE ( 'NONE', #398, 1.100000000000000311 ) ;
#749 = EDGE_CURVE ( 'NONE', #502, #220, #193, .T. ) ;
#750 = CARTESIAN_POINT ( 'NONE',  ( -1.223821133563065100, -7.594621824805086518, 4.800000000000000711 ) ) ;
#751 = ORIENTED_EDGE ( 'NONE', *, *, #458, .T. ) ;
#752 = FACE_OUTER_BOUND ( 'NONE', #779, .T. ) ;
#753 = DIRECTION ( 'NONE',  ( 1.000000000000000000, 0.000000000000000000, -0.000000000000000000 ) ) ;
#754 = FACE_OUTER_BOUND ( 'NONE', #520, .T. ) ;
#755 = EDGE_CURVE ( 'NONE', #582, #367, #568, .T. ) ;
#756 = DIRECTION ( 'NONE',  ( -1.000000000000000000, 0.000000000000000000, 0.000000000000000000 ) ) ;
#757 = FACE_OUTER_BOUND ( 'NONE', #203, .T. ) ;
#758 = ORIENTED_EDGE ( 'NONE', *, *, #598, .T. ) ;
#759 = DIRECTION ( 'NONE',  ( -0.000000000000000000, -0.000000000000000000, -1.000000000000000000 ) ) ;
#760 = CARTESIAN_POINT ( 'NONE',  ( 1.845785321592047001, 8.638213972123507389, 1.800000000000000044 ) ) ;
#761 = ORIENTED_EDGE ( 'NONE', *, *, #577, .F. ) ;
#762 = DIRECTION ( 'NONE',  ( 0.01825580479154432015, -0.9998333489094134441, -0.000000000000000000 ) ) ;
#763 = FACE_OUTER_BOUND ( 'NONE', #768, .T. ) ;
#764 = LINE ( 'NONE', #215, #683 ) ;
#765 = ORIENTED_EDGE ( 'NONE', *, *, #262, .T. ) ;
#766 = AXIS2_PLACEMENT_3D ( 'NONE', #792, #121, #176 ) ;
#767 = DIRECTION ( 'NONE',  ( 0.000000000000000000, 0.000000000000000000, 1.000000000000000000 ) ) ;
#768 = EDGE_LOOP ( 'NONE', ( #676, #235, #278, #143 ) ) ;
#769 = EDGE_CURVE ( 'NONE', #206, #794, #518, .T. ) ;
#770 = ORIENTED_EDGE ( 'NONE', *, *, #199, .F. ) ;
#771 = VECTOR ( 'NONE', #420, 1000.000000000000114 ) ;
#772 = EDGE_CURVE ( 'NONE', #651, #590, #336, .T. ) ;
#773 = CARTESIAN_POINT ( 'NONE',  ( -1.223821133563065100, -7.594621824805086518, 2.800000000000000266 ) ) ;
#774 = DIRECTION ( 'NONE',  ( 0.000000000000000000, 0.000000000000000000, 1.000000000000000000 ) ) ;
#775 = ORIENTED_EDGE ( 'NONE', *, *, #635, .T. ) ;
#776 = CARTESIAN_POINT ( 'NONE',  ( -1.389338495122143247, 4.404236621023066789, 2.800000000000000266 ) ) ;
#777 = PLANE ( 'NONE',  #490 ) ;
#778 = AXIS2_PLACEMENT_3D ( 'NONE', #339, #759, #756 ) ;
#779 = EDGE_LOOP ( 'NONE', ( #663, #134, #277, #53 ) ) ;
#780 = EDGE_CURVE ( 'NONE', #73, #275, #636, .T. ) ;
#781 = CARTESIAN_POINT ( 'NONE',  ( 0.6106615048778567534, 4.404236621023066789, 4.800000000000000711 ) ) ;
#782 = DIRECTION ( 'NONE',  ( 1.000000000000000000, 0.000000000000000000, 0.000000000000000000 ) ) ;
#783 = ORIENTED_EDGE ( 'NONE', *, *, #715, .F. ) ;
#784 = AXIS2_PLACEMENT_3D ( 'NONE', #461, #89, #397 ) ;
#785 = LINE ( 'NONE', #229, #608 ) ;
#786 = CARTESIAN_POINT ( 'NONE',  ( -3.959590400273491184, 7.269057373875631001, 0.000000000000000000 ) ) ;
#787 = ORIENTED_EDGE ( 'NONE', *, *, #10, .T. ) ;
#788 = DIRECTION ( 'NONE',  ( -0.000000000000000000, -0.000000000000000000, -1.000000000000000000 ) ) ;
#789 = CARTESIAN_POINT ( 'NONE',  ( -2.323821133563065189, -7.594621824805086518, 2.800000000000000266 ) ) ;
#790 = ORIENTED_EDGE ( 'NONE', *, *, #262, .F. ) ;
#791 = CARTESIAN_POINT ( 'NONE',  ( 3.631823148235540977, -9.690684049156406132, 0.000000000000000000 ) ) ;
#792 = CARTESIAN_POINT ( 'NONE',  ( -1.389338495122143247, 4.404236621023066789, 1.800000000000000044 ) ) ;
#793 = VECTOR ( 'NONE', #514, 1000.000000000000000 ) ;
#794 = VERTEX_POINT ( 'NONE', #141 ) ;
#795 = ADVANCED_FACE ( 'NONE', ( #694, #78, #329, #13 ), #213, .F. ) ;
ENDSEC;
END-ISO-10303-21;
