ISO-10303-21;
HEADER;
FILE_DESCRIPTION (( 'STEP AP214' ),
    '1' );
FILE_NAME ('damper-1-kick-holder.STEP',
    '2026-04-07T20:03:01',
    ( '' ),
    ( '' ),
    'SwSTEP 2.0',
    'SolidWorks 2026',
    '' );
FILE_SCHEMA (( 'AUTOMOTIVE_DESIGN' ));
ENDSEC;

DATA;
#1 = LINE ( 'NONE', #247, #555 ) ;
#2 = DIRECTION ( 'NONE',  ( 0.000000000000000000, -0.000000000000000000, -1.000000000000000000 ) ) ;
#3 = ORIENTED_EDGE ( 'NONE', *, *, #625, .T. ) ;
#4 = AXIS2_PLACEMENT_3D ( 'NONE', #776, #768, #764 ) ;
#5 = CARTESIAN_POINT ( 'NONE',  ( -15.60000000000000142, -15.69726312259965972, 0.000000000000000000 ) ) ;
#6 = CARTESIAN_POINT ( 'NONE',  ( 0.1999999999999994282, -9.000000000000007105, 8.000000000000000000 ) ) ;
#7 = EDGE_LOOP ( 'NONE', ( #562, #161, #231, #195 ) ) ;
#8 = PLANE ( 'NONE',  #615 ) ;
#9 = DIRECTION ( 'NONE',  ( -0.000000000000000000, -0.000000000000000000, -1.000000000000000000 ) ) ;
#10 = EDGE_LOOP ( 'NONE', ( #277, #144, #356, #62 ) ) ;
#11 = VECTOR ( 'NONE', #466, 1000.000000000000227 ) ;
#12 = CARTESIAN_POINT ( 'NONE',  ( 2.168404344971008868E-16, -1.690598923241495077, 0.000000000000000000 ) ) ;
#13 = ADVANCED_FACE ( 'NONE', ( #702 ), #158, .F. ) ;
#14 = CARTESIAN_POINT ( 'NONE',  ( -1.259707399156595464E-14, 7.534664819048483508, 8.000000000000000000 ) ) ;
#15 = ORIENTED_EDGE ( 'NONE', *, *, #33, .F. ) ;
#16 = EDGE_CURVE ( 'NONE', #596, #520, #473, .T. ) ;
#17 = DIRECTION ( 'NONE',  ( -0.000000000000000000, -0.000000000000000000, -1.000000000000000000 ) ) ;
#18 = CARTESIAN_POINT ( 'NONE',  ( -14.00000000000001066, 10.61756858770321443, 0.000000000000000000 ) ) ;
#19 = EDGE_CURVE ( 'NONE', #603, #535, #638, .T. ) ;
#20 = VERTEX_POINT ( 'NONE', #523 ) ;
#21 = CARTESIAN_POINT ( 'NONE',  ( 2.168404344971008868E-16, -6.690598923241499740, 0.000000000000000000 ) ) ;
#22 = LINE ( 'NONE', #35, #741 ) ;
#23 = EDGE_LOOP ( 'NONE', ( #583, #688, #696, #693 ) ) ;
#24 = CARTESIAN_POINT ( 'NONE',  ( -15.60000000000000142, -15.69726312259965972, 8.000000000000000000 ) ) ;
#25 = CARTESIAN_POINT ( 'NONE',  ( 0.1999999999999823586, 9.844065895806991762, 8.000000000000000000 ) ) ;
#26 = ORIENTED_EDGE ( 'NONE', *, *, #69, .T. ) ;
#27 = EDGE_CURVE ( 'NONE', #530, #284, #642, .T. ) ;
#28 = LINE ( 'NONE', #434, #733 ) ;
#29 = VECTOR ( 'NONE', #627, 1000.000000000000114 ) ;
#30 = CARTESIAN_POINT ( 'NONE',  ( 2.168404344971008868E-16, -6.690598923241499740, 8.000000000000000000 ) ) ;
#31 = EDGE_CURVE ( 'NONE', #359, #317, #460, .T. ) ;
#32 = ORIENTED_EDGE ( 'NONE', *, *, #56, .T. ) ;
#33 = EDGE_CURVE ( 'NONE', #535, #596, #109, .T. ) ;
#34 = CARTESIAN_POINT ( 'NONE',  ( 0.000000000000000000, 0.000000000000000000, 0.000000000000000000 ) ) ;
#35 = CARTESIAN_POINT ( 'NONE',  ( 0.1999999999999890476, 17.44406589580698252, 8.000000000000000000 ) ) ;
#36 = ORIENTED_EDGE ( 'NONE', *, *, #666, .F. ) ;
#37 = VECTOR ( 'NONE', #716, 1000.000000000000000 ) ;
#38 = CARTESIAN_POINT ( 'NONE',  ( 0.1999999999999823586, 9.844065895806991762, 8.000000000000000000 ) ) ;
#39 = ORIENTED_EDGE ( 'NONE', *, *, #156, .T. ) ;
#40 = VERTEX_POINT ( 'NONE', #369 ) ;
#41 = ADVANCED_FACE ( 'NONE', ( #486 ), #125, .F. ) ;
#42 = DIRECTION ( 'NONE',  ( 1.000000000000000000, 2.168404344971008868E-15, -0.000000000000000000 ) ) ;
#43 = CARTESIAN_POINT ( 'NONE',  ( 0.1999999999999953204, -16.60000000000000142, 8.000000000000000000 ) ) ;
#44 = ORIENTED_EDGE ( 'NONE', *, *, #27, .F. ) ;
#45 = EDGE_LOOP ( 'NONE', ( #211, #70, #588, #651 ) ) ;
#46 = DIRECTION ( 'NONE',  ( -0.000000000000000000, -0.000000000000000000, -1.000000000000000000 ) ) ;
#47 = DIRECTION ( 'NONE',  ( 1.000000000000000000, -0.000000000000000000, -0.000000000000000000 ) ) ;
#48 = MANIFOLD_SOLID_BREP ( 'Boss-Extrude1', #376 ) ;
#49 = ORIENTED_EDGE ( 'NONE', *, *, #705, .F. ) ;
#50 = VERTEX_POINT ( 'NONE', #723 ) ;
#51 = CARTESIAN_POINT ( 'NONE',  ( -0.8000000000000161426, 9.844065895806991762, 0.000000000000000000 ) ) ;
#52 = DIRECTION ( 'NONE',  ( 0.8660254037844393737, -0.4999999999999986677, 0.000000000000000000 ) ) ;
#53 = AXIS2_PLACEMENT_3D ( 'NONE', #698, #637, #529 ) ;
#54 = VERTEX_POINT ( 'NONE', #605 ) ;
#55 = VERTEX_POINT ( 'NONE', #68 ) ;
#56 = EDGE_CURVE ( 'NONE', #504, #359, #612, .T. ) ;
#57 = DIRECTION ( 'NONE',  ( 0.000000000000000000, -1.000000000000000000, 0.000000000000000000 ) ) ;
#58 = ORIENTED_EDGE ( 'NONE', *, *, #404, .F. ) ;
#59 = VECTOR ( 'NONE', #363, 1000.000000000000114 ) ;
#60 = FACE_OUTER_BOUND ( 'NONE', #7, .T. ) ;
#61 =( NAMED_UNIT ( * ) PLANE_ANGLE_UNIT ( ) SI_UNIT ( $, .RADIAN. ) );
#62 = ORIENTED_EDGE ( 'NONE', *, *, #33, .T. ) ;
#63 = DIRECTION ( 'NONE',  ( 1.000000000000000000, 1.803841364472756424E-15, -0.000000000000000000 ) ) ;
#64 = PLANE ( 'NONE',  #516 ) ;
#65 = EDGE_CURVE ( 'NONE', #721, #584, #726, .T. ) ;
#66 = ORIENTED_EDGE ( 'NONE', *, *, #204, .T. ) ;
#67 = CARTESIAN_POINT ( 'NONE',  ( -1.259707399156595464E-14, 7.534664819048483508, 8.000000000000000000 ) ) ;
#68 = CARTESIAN_POINT ( 'NONE',  ( -1.259707399156595464E-14, 7.534664819048483508, 8.000000000000000000 ) ) ;
#69 = EDGE_CURVE ( 'NONE', #50, #104, #252, .T. ) ;
#70 = ORIENTED_EDGE ( 'NONE', *, *, #260, .F. ) ;
#71 = AXIS2_PLACEMENT_3D ( 'NONE', #746, #507, #619 ) ;
#72 = DIRECTION ( 'NONE',  ( -0.8660254037844393737, 0.4999999999999986122, 0.000000000000000000 ) ) ;
#73 = CARTESIAN_POINT ( 'NONE',  ( 0.1999999999999953204, -16.60000000000000142, 8.000000000000000000 ) ) ;
#74 = ORIENTED_EDGE ( 'NONE', *, *, #448, .F. ) ;
#75 = EDGE_CURVE ( 'NONE', #504, #501, #316, .T. ) ;
#76 = DIRECTION ( 'NONE',  ( 0.8660254037844387076, 0.4999999999999999445, -0.000000000000000000 ) ) ;
#77 = VECTOR ( 'NONE', #9, 1000.000000000000000 ) ;
#78 = SURFACE_STYLE_USAGE ( .BOTH. , #599 ) ;
#79 = EDGE_CURVE ( 'NONE', #445, #413, #491, .T. ) ;
#80 = ORIENTED_EDGE ( 'NONE', *, *, #204, .F. ) ;
#81 = UNCERTAINTY_MEASURE_WITH_UNIT (LENGTH_MEASURE( 1.000000000000000082E-05 ), #602, 'distance_accuracy_value', 'NONE');
#82 = AXIS2_PLACEMENT_3D ( 'NONE', #710, #411, #361 ) ;
#83 = ADVANCED_FACE ( 'NONE', ( #419 ), #190, .F. ) ;
#84 = FACE_OUTER_BOUND ( 'NONE', #554, .T. ) ;
#85 = CARTESIAN_POINT ( 'NONE',  ( 0.1999999999999890476, 17.44406589580698252, 0.000000000000000000 ) ) ;
#86 = EDGE_LOOP ( 'NONE', ( #420, #671, #547, #590 ) ) ;
#87 = DIRECTION ( 'NONE',  ( -0.8660254037844388186, -0.4999999999999997224, 0.000000000000000000 ) ) ;
#88 = FACE_OUTER_BOUND ( 'NONE', #249, .T. ) ;
#89 = ORIENTED_EDGE ( 'NONE', *, *, #395, .T. ) ;
#90 = FACE_OUTER_BOUND ( 'NONE', #191, .T. ) ;
#91 = CARTESIAN_POINT ( 'NONE',  ( -1.259707399156595464E-14, 7.534664819048483508, 0.000000000000000000 ) ) ;
#92 = EDGE_CURVE ( 'NONE', #483, #55, #780, .T. ) ;
#93 = EDGE_LOOP ( 'NONE', ( #613, #15, #744, #309 ) ) ;
#94 = DIRECTION ( 'NONE',  ( -0.000000000000000000, -0.000000000000000000, -1.000000000000000000 ) ) ;
#95 = EDGE_CURVE ( 'NONE', #20, #667, #248, .T. ) ;
#96 = LINE ( 'NONE', #571, #542 ) ;
#97 = VERTEX_POINT ( 'NONE', #244 ) ;
#98 = VECTOR ( 'NONE', #512, 1000.000000000000000 ) ;
#99 = LINE ( 'NONE', #495, #454 ) ;
#100 = ORIENTED_EDGE ( 'NONE', *, *, #75, .F. ) ;
#101 = APPLICATION_PROTOCOL_DEFINITION ( 'draft international standard', 'automotive_design', 1998, #332 ) ;
#102 = EDGE_CURVE ( 'NONE', #55, #399, #558, .T. ) ;
#103 = DIRECTION ( 'NONE',  ( -0.000000000000000000, -0.000000000000000000, -1.000000000000000000 ) ) ;
#104 = VERTEX_POINT ( 'NONE', #180 ) ;
#105 = PRODUCT_RELATED_PRODUCT_CATEGORY ( 'part', '', ( #581 ) ) ;
#106 = VECTOR ( 'NONE', #564, 1000.000000000000000 ) ;
#107 = DIRECTION ( 'NONE',  ( 1.803841364472756424E-15, -1.000000000000000000, 0.000000000000000000 ) ) ;
#108 = DIRECTION ( 'NONE',  ( 0.5000000000000000000, -0.8660254037844385966, -0.000000000000000000 ) ) ;
#109 = LINE ( 'NONE', #463, #250 ) ;
#110 = AXIS2_PLACEMENT_3D ( 'NONE', #295, #357, #532 ) ;
#111 = PLANE ( 'NONE',  #593 ) ;
#112 = ORIENTED_EDGE ( 'NONE', *, *, #751, .F. ) ;
#113 =( NAMED_UNIT ( * ) PLANE_ANGLE_UNIT ( ) SI_UNIT ( $, .RADIAN. ) );
#114 = CARTESIAN_POINT ( 'NONE',  ( 0.1999999999999823586, 9.844065895806991762, 8.000000000000000000 ) ) ;
#115 = ORIENTED_EDGE ( 'NONE', *, *, #692, .F. ) ;
#116 = ADVANCED_FACE ( 'NONE', ( #478 ), #64, .F. ) ;
#117 = PLANE ( 'NONE',  #82 ) ;
#118 = VECTOR ( 'NONE', #452, 1000.000000000000000 ) ;
#119 = ORIENTED_EDGE ( 'NONE', *, *, #511, .T. ) ;
#120 = EDGE_CURVE ( 'NONE', #399, #413, #567, .T. ) ;
#121 = CARTESIAN_POINT ( 'NONE',  ( -3.577867169202164632E-15, 2.534664819048479067, 0.000000000000000000 ) ) ;
#122 = FILL_AREA_STYLE_COLOUR ( '', #446 ) ;
#123 = EDGE_CURVE ( 'NONE', #468, #406, #673, .T. ) ;
#124 = DIRECTION ( 'NONE',  ( -0.8660254037844393737, 0.4999999999999986122, 0.000000000000000000 ) ) ;
#125 = PLANE ( 'NONE',  #684 ) ;
#126 = ORIENTED_EDGE ( 'NONE', *, *, #92, .T. ) ;
#127 = LINE ( 'NONE', #5, #628 ) ;
#128 = ORIENTED_EDGE ( 'NONE', *, *, #676, .T. ) ;
#129 = PRODUCT_DEFINITION_FORMATION_WITH_SPECIFIED_SOURCE ( 'ANY', '', #581, .NOT_KNOWN. ) ;
#130 = DIRECTION ( 'NONE',  ( -0.000000000000000000, -0.000000000000000000, -1.000000000000000000 ) ) ;
#131 = ORIENTED_EDGE ( 'NONE', *, *, #700, .T. ) ;
#132 = VECTOR ( 'NONE', #365, 1000.000000000000000 ) ;
#133 = VECTOR ( 'NONE', #402, 1000.000000000000000 ) ;
#134 = DIRECTION ( 'NONE',  ( -0.4999999999999991118, -0.8660254037844391517, 0.000000000000000000 ) ) ;
#135 = CARTESIAN_POINT ( 'NONE',  ( -15.60000000000001563, 16.54132901840661418, 8.000000000000000000 ) ) ;
#136 = ORIENTED_EDGE ( 'NONE', *, *, #65, .F. ) ;
#137 = EDGE_CURVE ( 'NONE', #667, #468, #574, .T. ) ;
#138 = FACE_OUTER_BOUND ( 'NONE', #711, .T. ) ;
#139 = VECTOR ( 'NONE', #444, 1000.000000000000000 ) ;
#140 = LINE ( 'NONE', #25, #139 ) ;
#141 = VERTEX_POINT ( 'NONE', #629 ) ;
#142 = DIRECTION ( 'NONE',  ( -0.4999999999999997224, 0.8660254037844388186, 0.000000000000000000 ) ) ;
#143 = CARTESIAN_POINT ( 'NONE',  ( -14.80000000000002558, 17.92696966446171558, 0.000000000000000000 ) ) ;
#144 = ORIENTED_EDGE ( 'NONE', *, *, #395, .F. ) ;
#145 = CARTESIAN_POINT ( 'NONE',  ( -14.01686847130357627, 8.779786742744343897, 0.000000000000000000 ) ) ;
#146 = DIRECTION ( 'NONE',  ( 0.000000000000000000, 1.000000000000000000, 0.000000000000000000 ) ) ;
#147 = ORIENTED_EDGE ( 'NONE', *, *, #75, .T. ) ;
#148 = LINE ( 'NONE', #392, #373 ) ;
#149 = LINE ( 'NONE', #85, #319 ) ;
#150 = EDGE_CURVE ( 'NONE', #535, #50, #198, .T. ) ;
#151 = VERTEX_POINT ( 'NONE', #678 ) ;
#152 = AXIS2_PLACEMENT_3D ( 'NONE', #30, #213, #561 ) ;
#153 = CARTESIAN_POINT ( 'NONE',  ( -0.7999999999999997113, -9.000000000000007105, 8.000000000000000000 ) ) ;
#154 = CARTESIAN_POINT ( 'NONE',  ( -14.80000000000002558, 17.92696966446171558, 8.000000000000000000 ) ) ;
#155 = EDGE_LOOP ( 'NONE', ( #540, #237, #781, #184 ) ) ;
#156 = EDGE_CURVE ( 'NONE', #501, #317, #301, .T. ) ;
#157 = CARTESIAN_POINT ( 'NONE',  ( 1.799999999999995381, 17.44406589580698252, 8.000000000000000000 ) ) ;
#158 = PLANE ( 'NONE',  #4 ) ;
#159 = DIRECTION ( 'NONE',  ( 0.8660254037844388186, 0.4999999999999997780, -0.000000000000000000 ) ) ;
#160 = DIRECTION ( 'NONE',  ( -1.829591166069288732E-16, 1.000000000000000000, 0.000000000000000000 ) ) ;
#161 = ORIENTED_EDGE ( 'NONE', *, *, #79, .F. ) ;
#162 = ORIENTED_EDGE ( 'NONE', *, *, #258, .T. ) ;
#163 = FACE_OUTER_BOUND ( 'NONE', #727, .T. ) ;
#164 = VERTEX_POINT ( 'NONE', #18 ) ;
#165 = ORIENTED_EDGE ( 'NONE', *, *, #233, .F. ) ;
#166 = CARTESIAN_POINT ( 'NONE',  ( 2.168404344971008868E-16, -6.690598923241499740, 8.000000000000000000 ) ) ;
#167 = CARTESIAN_POINT ( 'NONE',  ( 1.799999999999995381, -16.59999999999999787, 8.000000000000000000 ) ) ;
#168 = EDGE_CURVE ( 'NONE', #284, #721, #140, .T. ) ;
#169 = VECTOR ( 'NONE', #623, 1000.000000000000000 ) ;
#170 = ORIENTED_EDGE ( 'NONE', *, *, #339, .T. ) ;
#171 = MECHANICAL_DESIGN_GEOMETRIC_PRESENTATION_REPRESENTATION (  '', ( #748 ), #715 ) ;
#172 = ORIENTED_EDGE ( 'NONE', *, *, #298, .T. ) ;
#173 = EDGE_CURVE ( 'NONE', #151, #765, #337, .T. ) ;
#174 = LINE ( 'NONE', #221, #756 ) ;
#175 = ORIENTED_EDGE ( 'NONE', *, *, #228, .T. ) ;
#176 = ORIENTED_EDGE ( 'NONE', *, *, #69, .F. ) ;
#177 = VECTOR ( 'NONE', #304, 1000.000000000000000 ) ;
#178 = LINE ( 'NONE', #121, #635 ) ;
#179 = VECTOR ( 'NONE', #344, 1000.000000000000000 ) ;
#180 = CARTESIAN_POINT ( 'NONE',  ( -14.80000000000000071, -8.387862045841151470, 8.000000000000000000 ) ) ;
#181 = CARTESIAN_POINT ( 'NONE',  ( 0.1999999999999994282, -9.000000000000007105, 0.000000000000000000 ) ) ;
#182 = EDGE_CURVE ( 'NONE', #141, #530, #22, .T. ) ;
#183 = CARTESIAN_POINT ( 'NONE',  ( -3.577867169202164632E-15, 2.534664819048479067, 8.000000000000000000 ) ) ;
#184 = ORIENTED_EDGE ( 'NONE', *, *, #137, .T. ) ;
#185 = EDGE_CURVE ( 'NONE', #663, #141, #96, .T. ) ;
#186 = FACE_OUTER_BOUND ( 'NONE', #450, .T. ) ;
#187 = CARTESIAN_POINT ( 'NONE',  ( -14.00000000000001066, 10.61756858770321443, 8.000000000000000000 ) ) ;
#188 = ORIENTED_EDGE ( 'NONE', *, *, #150, .T. ) ;
#189 = CARTESIAN_POINT ( 'NONE',  ( -15.60000000000001563, 16.54132901840661418, 0.000000000000000000 ) ) ;
#190 = PLANE ( 'NONE',  #280 ) ;
#191 = EDGE_LOOP ( 'NONE', ( #346, #777, #429, #241 ) ) ;
#192 = CARTESIAN_POINT ( 'NONE',  ( -3.577867169202164632E-15, 2.534664819048479067, 8.000000000000000000 ) ) ;
#193 = DIRECTION ( 'NONE',  ( -0.000000000000000000, -0.000000000000000000, -1.000000000000000000 ) ) ;
#194 = ADVANCED_FACE ( 'NONE', ( #390 ), #267, .F. ) ;
#195 = ORIENTED_EDGE ( 'NONE', *, *, #102, .T. ) ;
#196 = AXIS2_PLACEMENT_3D ( 'NONE', #67, #63, #307 ) ;
#197 = CARTESIAN_POINT ( 'NONE',  ( 0.02617303662020763894, 0.6720329479034919951, 0.000000000000000000 ) ) ;
#198 = LINE ( 'NONE', #271, #779 ) ;
#199 = VERTEX_POINT ( 'NONE', #383 ) ;
#200 = DIRECTION ( 'NONE',  ( -0.000000000000000000, -1.000000000000000000, -0.000000000000000000 ) ) ;
#201 = VECTOR ( 'NONE', #325, 1000.000000000000000 ) ;
#202 = DIRECTION ( 'NONE',  ( 1.829591166069288732E-16, -1.000000000000000000, -0.000000000000000000 ) ) ;
#203 = EDGE_LOOP ( 'NONE', ( #634, #458, #176, #89 ) ) ;
#204 = EDGE_CURVE ( 'NONE', #281, #724, #624, .T. ) ;
#205 = FACE_OUTER_BOUND ( 'NONE', #93, .T. ) ;
#206 = VECTOR ( 'NONE', #107, 1000.000000000000000 ) ;
#207 = DIRECTION ( 'NONE',  ( -0.4999999999999951705, -0.8660254037844414832, 0.000000000000000000 ) ) ;
#208 = ORIENTED_EDGE ( 'NONE', *, *, #168, .F. ) ;
#209 = LINE ( 'NONE', #557, #400 ) ;
#210 = DIRECTION ( 'NONE',  ( -0.4999999999999951705, -0.8660254037844414832, 0.000000000000000000 ) ) ;
#211 = ORIENTED_EDGE ( 'NONE', *, *, #705, .T. ) ;
#212 = LINE ( 'NONE', #153, #235 ) ;
#213 = DIRECTION ( 'NONE',  ( 1.000000000000000000, 0.000000000000000000, 0.000000000000000000 ) ) ;
#214 = ORIENTED_EDGE ( 'NONE', *, *, #437, .F. ) ;
#215 = VECTOR ( 'NONE', #134, 1000.000000000000000 ) ;
#216 = APPLICATION_PROTOCOL_DEFINITION ( 'draft international standard', 'automotive_design', 1998, #648 ) ;
#217 = LINE ( 'NONE', #224, #179 ) ;
#218 = EDGE_CURVE ( 'NONE', #724, #262, #149, .T. ) ;
#219 = EDGE_LOOP ( 'NONE', ( #172, #100, #469, #609 ) ) ;
#220 = LINE ( 'NONE', #166, #745 ) ;
#221 = CARTESIAN_POINT ( 'NONE',  ( -14.80000000000000071, -17.08290376865476290, 8.000000000000000000 ) ) ;
#222 = ORIENTED_EDGE ( 'NONE', *, *, #632, .F. ) ;
#223 = PLANE ( 'NONE',  #546 ) ;
#224 = CARTESIAN_POINT ( 'NONE',  ( 0.02617303662020772914, 0.1720329479034919395, 8.000000000000000000 ) ) ;
#225 = DIRECTION ( 'NONE',  ( 0.8660254037844411501, -0.4999999999999956146, 0.000000000000000000 ) ) ;
#226 = ORIENTED_EDGE ( 'NONE', *, *, #173, .T. ) ;
#227 = DIRECTION ( 'NONE',  ( -0.000000000000000000, -0.000000000000000000, -1.000000000000000000 ) ) ;
#228 = EDGE_CURVE ( 'NONE', #54, #483, #440, .T. ) ;
#229 = CARTESIAN_POINT ( 'NONE',  ( -14.00000000000000000, -9.773502691896252870, 8.000000000000000000 ) ) ;
#230 = CARTESIAN_POINT ( 'NONE',  ( 0.1999999999999890476, 17.44406589580698252, 8.000000000000000000 ) ) ;
#231 = ORIENTED_EDGE ( 'NONE', *, *, #717, .F. ) ;
#232 = FACE_OUTER_BOUND ( 'NONE', #362, .T. ) ;
#233 = EDGE_CURVE ( 'NONE', #749, #20, #503, .T. ) ;
#234 = DIRECTION ( 'NONE',  ( -0.000000000000000000, -0.000000000000000000, -1.000000000000000000 ) ) ;
#235 = VECTOR ( 'NONE', #17, 1000.000000000000000 ) ;
#236 = ORIENTED_EDGE ( 'NONE', *, *, #773, .F. ) ;
#237 = ORIENTED_EDGE ( 'NONE', *, *, #240, .F. ) ;
#238 = LINE ( 'NONE', #372, #282 ) ;
#239 = CARTESIAN_POINT ( 'NONE',  ( 0.02617303662020772914, 0.1720329479034919395, 0.000000000000000000 ) ) ;
#240 = EDGE_CURVE ( 'NONE', #718, #406, #99, .T. ) ;
#241 = ORIENTED_EDGE ( 'NONE', *, *, #240, .T. ) ;
#242 = VECTOR ( 'NONE', #743, 1000.000000000000000 ) ;
#243 = DIRECTION ( 'NONE',  ( -1.000000000000000000, 0.000000000000000000, 0.000000000000000000 ) ) ;
#244 = CARTESIAN_POINT ( 'NONE',  ( -14.00000000000000000, -9.773502691896252870, 0.000000000000000000 ) ) ;
#245 = ADVANCED_FACE ( 'NONE', ( #687 ), #513, .F. ) ;
#246 = ORIENTED_EDGE ( 'NONE', *, *, #314, .F. ) ;
#247 = CARTESIAN_POINT ( 'NONE',  ( 0.1999999999999823586, 9.844065895806991762, 0.000000000000000000 ) ) ;
#248 = LINE ( 'NONE', #261, #306 ) ;
#249 = EDGE_LOOP ( 'NONE', ( #112, #410, #647, #441, #758, #674, #74, #265, #367, #375, #214, #297, #36, #426, #305, #732, #771, #285, #49, #292, #575, #80 ) ) ;
#250 = VECTOR ( 'NONE', #720, 1000.000000000000000 ) ;
#251 = FACE_OUTER_BOUND ( 'NONE', #45, .T. ) ;
#252 = LINE ( 'NONE', #312, #614 ) ;
#253 = EDGE_LOOP ( 'NONE', ( #3, #246, #58, #685 ) ) ;
#254 = LINE ( 'NONE', #315, #488 ) ;
#255 = AXIS2_PLACEMENT_3D ( 'NONE', #457, #770, #414 ) ;
#256 = CARTESIAN_POINT ( 'NONE',  ( -0.8000000000000161426, 9.844065895806991762, 8.000000000000000000 ) ) ;
#257 = ORIENTED_EDGE ( 'NONE', *, *, #56, .F. ) ;
#258 = EDGE_CURVE ( 'NONE', #479, #164, #264, .T. ) ;
#259 = CARTESIAN_POINT ( 'NONE',  ( 1.799999999999995381, -16.59999999999999787, 8.000000000000000000 ) ) ;
#260 = EDGE_CURVE ( 'NONE', #54, #151, #691, .T. ) ;
#261 = CARTESIAN_POINT ( 'NONE',  ( -15.60000000000000142, -15.69726312259965972, 8.000000000000000000 ) ) ;
#262 = VERTEX_POINT ( 'NONE', #500 ) ;
#263 = LINE ( 'NONE', #566, #98 ) ;
#264 = LINE ( 'NONE', #276, #118 ) ;
#265 = ORIENTED_EDGE ( 'NONE', *, *, #655, .F. ) ;
#266 = CARTESIAN_POINT ( 'NONE',  ( 1.799999999999995381, -16.59999999999999787, 8.000000000000000000 ) ) ;
#267 = PLANE ( 'NONE',  #754 ) ;
#268 = ORIENTED_EDGE ( 'NONE', *, *, #538, .F. ) ;
#269 = ADVANCED_FACE ( 'NONE', ( #88 ), #328, .T. ) ;
#270 = CARTESIAN_POINT ( 'NONE',  ( -0.8000000000000161426, 9.844065895806991762, 8.000000000000000000 ) ) ;
#271 = CARTESIAN_POINT ( 'NONE',  ( 0.02617303662020772914, 0.1720329479034919395, 8.000000000000000000 ) ) ;
#272 = VERTEX_POINT ( 'NONE', #695 ) ;
#273 = AXIS2_PLACEMENT_3D ( 'NONE', #725, #719, #474 ) ;
#274 = LINE ( 'NONE', #270, #29 ) ;
#275 = VECTOR ( 'NONE', #225, 1000.000000000000114 ) ;
#276 = CARTESIAN_POINT ( 'NONE',  ( -14.00000000000001066, 10.61756858770321443, 8.000000000000000000 ) ) ;
#277 = ORIENTED_EDGE ( 'NONE', *, *, #16, .T. ) ;
#278 = DIRECTION ( 'NONE',  ( 0.000000000000000000, 0.000000000000000000, 1.000000000000000000 ) ) ;
#279 = CARTESIAN_POINT ( 'NONE',  ( 0.02617303662020772914, 0.1720329479034919395, 8.000000000000000000 ) ) ;
#280 = AXIS2_PLACEMENT_3D ( 'NONE', #665, #366, #670 ) ;
#281 = VERTEX_POINT ( 'NONE', #652 ) ;
#282 = VECTOR ( 'NONE', #130, 1000.000000000000000 ) ;
#283 = LINE ( 'NONE', #157, #321 ) ;
#284 = VERTEX_POINT ( 'NONE', #114 ) ;
#285 = ORIENTED_EDGE ( 'NONE', *, *, #173, .F. ) ;
#286 = CARTESIAN_POINT ( 'NONE',  ( 2.168404344971008868E-16, -1.690598923241495077, 8.000000000000000000 ) ) ;
#287 = FACE_OUTER_BOUND ( 'NONE', #155, .T. ) ;
#288 = EDGE_LOOP ( 'NONE', ( #388, #753, #44, #350 ) ) ;
#289 = CARTESIAN_POINT ( 'NONE',  ( -0.8000000000000161426, 9.844065895806991762, 8.000000000000000000 ) ) ;
#290 = DIRECTION ( 'NONE',  ( -0.4999999999999991118, -0.8660254037844391517, 0.000000000000000000 ) ) ;
#291 = ORIENTED_EDGE ( 'NONE', *, *, #620, .T. ) ;
#292 = ORIENTED_EDGE ( 'NONE', *, *, #480, .F. ) ;
#293 = EDGE_CURVE ( 'NONE', #663, #40, #578, .T. ) ;
#294 = VECTOR ( 'NONE', #47, 1000.000000000000000 ) ;
#295 = CARTESIAN_POINT ( 'NONE',  ( 0.1999999999999953204, -16.60000000000000142, 8.000000000000000000 ) ) ;
#296 = LINE ( 'NONE', #706, #690 ) ;
#297 = ORIENTED_EDGE ( 'NONE', *, *, #16, .F. ) ;
#298 = EDGE_CURVE ( 'NONE', #351, #501, #582, .T. ) ;
#299 = PLANE ( 'NONE',  #273 ) ;
#300 = AXIS2_PLACEMENT_3D ( 'NONE', #672, #563, #324 ) ;
#301 = LINE ( 'NONE', #387, #242 ) ;
#302 = EDGE_CURVE ( 'NONE', #479, #603, #358, .T. ) ;
#303 = PLANE ( 'NONE',  #196 ) ;
#304 = DIRECTION ( 'NONE',  ( -0.000000000000000000, -0.000000000000000000, -1.000000000000000000 ) ) ;
#305 = ORIENTED_EDGE ( 'NONE', *, *, #511, .F. ) ;
#306 = VECTOR ( 'NONE', #658, 1000.000000000000114 ) ;
#307 = DIRECTION ( 'NONE',  ( -1.803841364472756424E-15, 1.000000000000000000, 0.000000000000000000 ) ) ;
#308 = CARTESIAN_POINT ( 'NONE',  ( 0.1999999999999823586, 9.844065895806991762, 8.000000000000000000 ) ) ;
#309 = ORIENTED_EDGE ( 'NONE', *, *, #538, .T. ) ;
#310 = VECTOR ( 'NONE', #528, 1000.000000000000114 ) ;
#311 = DIRECTION ( 'NONE',  ( -0.8660254037844384856, -0.5000000000000001110, -0.000000000000000000 ) ) ;
#312 = CARTESIAN_POINT ( 'NONE',  ( -14.01686847130356917, -7.935720846937383222, 8.000000000000000000 ) ) ;
#313 = ORIENTED_EDGE ( 'NONE', *, *, #717, .T. ) ;
#314 = EDGE_CURVE ( 'NONE', #334, #97, #296, .T. ) ;
#315 = CARTESIAN_POINT ( 'NONE',  ( -14.80000000000000071, -8.387862045841151470, 0.000000000000000000 ) ) ;
#316 = LINE ( 'NONE', #6, #77 ) ;
#317 = VERTEX_POINT ( 'NONE', #591 ) ;
#318 = EDGE_CURVE ( 'NONE', #141, #281, #283, .T. ) ;
#319 = VECTOR ( 'NONE', #633, 1000.000000000000000 ) ;
#320 = DIRECTION ( 'NONE',  ( 0.5000000000000000000, -0.8660254037844385966, -0.000000000000000000 ) ) ;
#321 = VECTOR ( 'NONE', #234, 1000.000000000000000 ) ;
#322 = DIRECTION ( 'NONE',  ( -5.421010862427526114E-16, -1.000000000000000000, -0.000000000000000000 ) ) ;
#323 = EDGE_LOOP ( 'NONE', ( #338, #379, #165, #128 ) ) ;
#324 = DIRECTION ( 'NONE',  ( -0.8660254037844387076, -0.4999999999999998890, 0.000000000000000000 ) ) ;
#325 = DIRECTION ( 'NONE',  ( -1.000000000000000000, -0.000000000000000000, -0.000000000000000000 ) ) ;
#326 = ORIENTED_EDGE ( 'NONE', *, *, #293, .F. ) ;
#327 = CARTESIAN_POINT ( 'NONE',  ( -14.01686847130357627, 8.779786742744343897, 8.000000000000000000 ) ) ;
#328 = PLANE ( 'NONE',  #255 ) ;
#329 = ADVANCED_FACE ( 'NONE', ( #757 ), #111, .F. ) ;
#330 = ORIENTED_EDGE ( 'NONE', *, *, #185, .T. ) ;
#331 = DIRECTION ( 'NONE',  ( 0.8660254037844393737, -0.4999999999999985012, 0.000000000000000000 ) ) ;
#332 = APPLICATION_CONTEXT ( 'automotive_design' ) ;
#333 = CARTESIAN_POINT ( 'NONE',  ( 0.1999999999999890476, 17.44406589580698252, 0.000000000000000000 ) ) ;
#334 = VERTEX_POINT ( 'NONE', #229 ) ;
#335 = CARTESIAN_POINT ( 'NONE',  ( -14.80000000000001137, 9.231927941648109481, 8.000000000000000000 ) ) ;
#336 = VECTOR ( 'NONE', #227, 1000.000000000000000 ) ;
#337 = LINE ( 'NONE', #143, #438 ) ;
#338 = ORIENTED_EDGE ( 'NONE', *, *, #655, .T. ) ;
#339 = EDGE_CURVE ( 'NONE', #667, #718, #174, .T. ) ;
#340 = AXIS2_PLACEMENT_3D ( 'NONE', #327, #451, #447 ) ;
#341 = CARTESIAN_POINT ( 'NONE',  ( -15.60000000000000142, -15.69726312259965972, 8.000000000000000000 ) ) ;
#342 = EDGE_LOOP ( 'NONE', ( #330, #707, #559, #565, #592, #175, #126, #313, #660, #396, #622, #188, #26, #415, #291, #370, #736, #170, #646, #391, #32, #487 ) ) ;
#343 = LINE ( 'NONE', #697, #470 ) ;
#344 = DIRECTION ( 'NONE',  ( -0.000000000000000000, -0.000000000000000000, -1.000000000000000000 ) ) ;
#345 = VECTOR ( 'NONE', #322, 1000.000000000000000 ) ;
#346 = ORIENTED_EDGE ( 'NONE', *, *, #681, .T. ) ;
#347 = CARTESIAN_POINT ( 'NONE',  ( -14.80000000000000071, -17.08290376865476290, 8.000000000000000000 ) ) ;
#348 = CARTESIAN_POINT ( 'NONE',  ( -14.00000000000000000, -9.773502691896252870, 8.000000000000000000 ) ) ;
#349 = EDGE_CURVE ( 'NONE', #284, #262, #701, .T. ) ;
#350 = ORIENTED_EDGE ( 'NONE', *, *, #692, .T. ) ;
#351 = VERTEX_POINT ( 'NONE', #522 ) ;
#352 = ADVANCED_FACE ( 'NONE', ( #163 ), #587, .F. ) ;
#353 = LINE ( 'NONE', #51, #442 ) ;
#354 = CARTESIAN_POINT ( 'NONE',  ( 0.1999999999999994282, -9.000000000000007105, 0.000000000000000000 ) ) ;
#355 = ADVANCED_FACE ( 'NONE', ( #534 ), #117, .F. ) ;
#356 = ORIENTED_EDGE ( 'NONE', *, *, #150, .F. ) ;
#357 = DIRECTION ( 'NONE',  ( 1.000000000000000000, -5.421010862427526114E-16, 0.000000000000000000 ) ) ;
#358 = LINE ( 'NONE', #526, #394 ) ;
#359 = VERTEX_POINT ( 'NONE', #43 ) ;
#360 = AXIS2_PLACEMENT_3D ( 'NONE', #401, #409, #52 ) ;
#361 = DIRECTION ( 'NONE',  ( 0.8660254037844385966, 0.5000000000000002220, 0.000000000000000000 ) ) ;
#362 = EDGE_LOOP ( 'NONE', ( #39, #536, #257, #147 ) ) ;
#363 = DIRECTION ( 'NONE',  ( 0.8660254037844388186, 0.4999999999999997780, -0.000000000000000000 ) ) ;
#364 = DIRECTION ( 'NONE',  ( 0.8660254037844391517, -0.4999999999999991673, 0.000000000000000000 ) ) ;
#365 = DIRECTION ( 'NONE',  ( -0.000000000000000000, -0.000000000000000000, -1.000000000000000000 ) ) ;
#366 = DIRECTION ( 'NONE',  ( 0.000000000000000000, 0.000000000000000000, -1.000000000000000000 ) ) ;
#367 = ORIENTED_EDGE ( 'NONE', *, *, #597, .F. ) ;
#368 = CARTESIAN_POINT ( 'NONE',  ( -14.80000000000001137, 9.231927941648109481, 8.000000000000000000 ) ) ;
#369 = CARTESIAN_POINT ( 'NONE',  ( 1.799999999999995381, -16.59999999999999787, 0.000000000000000000 ) ) ;
#370 = ORIENTED_EDGE ( 'NONE', *, *, #233, .T. ) ;
#371 = UNCERTAINTY_MEASURE_WITH_UNIT (LENGTH_MEASURE( 1.000000000000000082E-05 ), #525, 'distance_accuracy_value', 'NONE');
#372 = CARTESIAN_POINT ( 'NONE',  ( -15.60000000000001563, 16.54132901840661418, 8.000000000000000000 ) ) ;
#373 = VECTOR ( 'NONE', #94, 1000.000000000000000 ) ;
#374 = ADVANCED_FACE ( 'NONE', ( #287 ), #644, .F. ) ;
#375 = ORIENTED_EDGE ( 'NONE', *, *, #625, .F. ) ;
#376 = CLOSED_SHELL ( 'NONE', ( #496, #493, #329, #116, #505, #645, #408, #533, #352, #41, #556, #380, #355, #730, #553, #245, #594, #374, #657, #13, #712, #194, #83, #269 ) ) ;
#377 = CARTESIAN_POINT ( 'NONE',  ( -0.7999999999999997113, -9.000000000000007105, 8.000000000000000000 ) ) ;
#378 = FILL_AREA_STYLE ('',( #122 ) ) ;
#379 = ORIENTED_EDGE ( 'NONE', *, *, #775, .F. ) ;
#380 = ADVANCED_FACE ( 'NONE', ( #595 ), #767, .F. ) ;
#381 = VECTOR ( 'NONE', #422, 999.9999999999998863 ) ;
#382 = PLANE ( 'NONE',  #510 ) ;
#383 = CARTESIAN_POINT ( 'NONE',  ( -0.7999999999999997113, -9.000000000000007105, 8.000000000000000000 ) ) ;
#384 = PRODUCT_DEFINITION ( 'UNKNOWN', '', #129, #737 ) ;
#385 = ORIENTED_EDGE ( 'NONE', *, *, #137, .F. ) ;
#386 = CARTESIAN_POINT ( 'NONE',  ( 2.168404344971008868E-16, -6.690598923241499740, 0.000000000000000000 ) ) ;
#387 = CARTESIAN_POINT ( 'NONE',  ( 0.1999999999999953204, -16.60000000000000142, 0.000000000000000000 ) ) ;
#388 = ORIENTED_EDGE ( 'NONE', *, *, #218, .T. ) ;
#389 = DIRECTION ( 'NONE',  ( 0.4999999999999951150, 0.8660254037844414832, 0.000000000000000000 ) ) ;
#390 = FACE_OUTER_BOUND ( 'NONE', #498, .T. ) ;
#391 = ORIENTED_EDGE ( 'NONE', *, *, #610, .T. ) ;
#392 = CARTESIAN_POINT ( 'NONE',  ( 2.168404344971008868E-16, -1.690598923241495077, 8.000000000000000000 ) ) ;
#393 = DIRECTION ( 'NONE',  ( 1.803841364472756424E-15, -1.000000000000000000, 0.000000000000000000 ) ) ;
#394 = VECTOR ( 'NONE', #290, 1000.000000000000000 ) ;
#395 = EDGE_CURVE ( 'NONE', #50, #520, #217, .T. ) ;
#396 = ORIENTED_EDGE ( 'NONE', *, *, #302, .T. ) ;
#397 = LINE ( 'NONE', #465, #310 ) ;
#398 = DIRECTION ( 'NONE',  ( -0.000000000000000000, -0.000000000000000000, -1.000000000000000000 ) ) ;
#399 = VERTEX_POINT ( 'NONE', #405 ) ;
#400 = VECTOR ( 'NONE', #320, 1000.000000000000227 ) ;
#401 = CARTESIAN_POINT ( 'NONE',  ( -3.577867169202164632E-15, 2.534664819048479067, 8.000000000000000000 ) ) ;
#402 = DIRECTION ( 'NONE',  ( 1.829591166069288732E-16, -1.000000000000000000, -0.000000000000000000 ) ) ;
#403 = CARTESIAN_POINT ( 'NONE',  ( 0.1999999999999890476, 17.44406589580698252, 8.000000000000000000 ) ) ;
#404 = EDGE_CURVE ( 'NONE', #104, #334, #641, .T. ) ;
#405 = CARTESIAN_POINT ( 'NONE',  ( -1.259707399156595464E-14, 7.534664819048483508, 0.000000000000000000 ) ) ;
#406 = VERTEX_POINT ( 'NONE', #650 ) ;
#407 = CARTESIAN_POINT ( 'NONE',  ( -1.259707399156595464E-14, 7.534664819048483508, 8.000000000000000000 ) ) ;
#408 = ADVANCED_FACE ( 'NONE', ( #485 ), #8, .F. ) ;
#409 = DIRECTION ( 'NONE',  ( -0.4999999999999987232, -0.8660254037844394848, 0.000000000000000000 ) ) ;
#410 = ORIENTED_EDGE ( 'NONE', *, *, #700, .F. ) ;
#411 = DIRECTION ( 'NONE',  ( 0.5000000000000002220, -0.8660254037844385966, 0.000000000000000000 ) ) ;
#412 = DIRECTION ( 'NONE',  ( -0.000000000000000000, -0.000000000000000000, -1.000000000000000000 ) ) ;
#413 = VERTEX_POINT ( 'NONE', #656 ) ;
#414 = DIRECTION ( 'NONE',  ( -1.000000000000000000, 0.000000000000000000, -0.000000000000000000 ) ) ;
#415 = ORIENTED_EDGE ( 'NONE', *, *, #404, .T. ) ;
#416 = VECTOR ( 'NONE', #210, 1000.000000000000000 ) ;
#417 = VECTOR ( 'NONE', #103, 1000.000000000000000 ) ;
#418 = DIRECTION ( 'NONE',  ( 0.4999999999999986677, 0.8660254037844394848, -0.000000000000000000 ) ) ;
#419 = FACE_OUTER_BOUND ( 'NONE', #342, .T. ) ;
#420 = ORIENTED_EDGE ( 'NONE', *, *, #751, .T. ) ;
#421 = CARTESIAN_POINT ( 'NONE',  ( 0.02617303662020772914, 0.1720329479034919395, 0.000000000000000000 ) ) ;
#422 = DIRECTION ( 'NONE',  ( 0.8660254037844394848, -0.4999999999999986122, 0.000000000000000000 ) ) ;
#423 = ORIENTED_EDGE ( 'NONE', *, *, #302, .F. ) ;
#424 = DIRECTION ( 'NONE',  ( -1.000000000000000000, 0.000000000000000000, 0.000000000000000000 ) ) ;
#425 = DIRECTION ( 'NONE',  ( 0.4999999999999991118, 0.8660254037844390407, 0.000000000000000000 ) ) ;
#426 = ORIENTED_EDGE ( 'NONE', *, *, #482, .F. ) ;
#427 = CARTESIAN_POINT ( 'NONE',  ( -14.80000000000000071, -8.387862045841151470, 8.000000000000000000 ) ) ;
#428 = EDGE_CURVE ( 'NONE', #483, #765, #238, .T. ) ;
#429 = ORIENTED_EDGE ( 'NONE', *, *, #484, .F. ) ;
#430 = CARTESIAN_POINT ( 'NONE',  ( -14.00000000000001066, 10.61756858770321443, 8.000000000000000000 ) ) ;
#431 = SURFACE_STYLE_FILL_AREA ( #378 ) ;
#432 = AXIS2_PLACEMENT_3D ( 'NONE', #608, #243, #477 ) ;
#433 = ORIENTED_EDGE ( 'NONE', *, *, #428, .F. ) ;
#434 = CARTESIAN_POINT ( 'NONE',  ( 2.168404344971008868E-16, -1.690598923241495077, 8.000000000000000000 ) ) ;
#435 = DIRECTION ( 'NONE',  ( -1.000000000000000000, -0.000000000000000000, -0.000000000000000000 ) ) ;
#436 = ORIENTED_EDGE ( 'NONE', *, *, #480, .T. ) ;
#437 = EDGE_CURVE ( 'NONE', #520, #572, #254, .T. ) ;
#438 = VECTOR ( 'NONE', #207, 1000.000000000000000 ) ;
#439 = PLANE ( 'NONE',  #708 ) ;
#440 = LINE ( 'NONE', #617, #416 ) ;
#441 = ORIENTED_EDGE ( 'NONE', *, *, #298, .F. ) ;
#442 = VECTOR ( 'NONE', #521, 1000.000000000000114 ) ;
#443 = LINE ( 'NONE', #738, #537 ) ;
#444 = DIRECTION ( 'NONE',  ( -1.000000000000000000, 0.000000000000000000, 0.000000000000000000 ) ) ;
#445 = VERTEX_POINT ( 'NONE', #192 ) ;
#446 = COLOUR_RGB ( '',0.7921568627450980005, 0.8196078431372548767, 0.9333333333333333481 ) ;
#447 = DIRECTION ( 'NONE',  ( -0.8660254037844393737, 0.4999999999999985567, 0.000000000000000000 ) ) ;
#448 = EDGE_CURVE ( 'NONE', #568, #468, #127, .T. ) ;
#449 = DIRECTION ( 'NONE',  ( -0.000000000000000000, -0.000000000000000000, -1.000000000000000000 ) ) ;
#450 = EDGE_LOOP ( 'NONE', ( #66, #115, #531, #464 ) ) ;
#451 = DIRECTION ( 'NONE',  ( 0.4999999999999986122, 0.8660254037844394848, -0.000000000000000000 ) ) ;
#452 = DIRECTION ( 'NONE',  ( -0.000000000000000000, -0.000000000000000000, -1.000000000000000000 ) ) ;
#453 = ADVANCED_BREP_SHAPE_REPRESENTATION ( 'damper-1-kick-holder', ( #48, #704 ), #467 ) ;
#454 = VECTOR ( 'NONE', #449, 1000.000000000000000 ) ;
#455 = ORIENTED_EDGE ( 'NONE', *, *, #31, .T. ) ;
#456 = DIRECTION ( 'NONE',  ( 1.000000000000000000, 0.000000000000000000, 0.000000000000000000 ) ) ;
#457 = CARTESIAN_POINT ( 'NONE',  ( 0.000000000000000000, 0.000000000000000000, 0.000000000000000000 ) ) ;
#458 = ORIENTED_EDGE ( 'NONE', *, *, #490, .F. ) ;
#459 = DIRECTION ( 'NONE',  ( 1.000000000000000000, -8.809142651444735359E-16, 0.000000000000000000 ) ) ;
#460 = LINE ( 'NONE', #699, #585 ) ;
#461 = CARTESIAN_POINT ( 'NONE',  ( -15.60000000000001563, 16.54132901840661418, 0.000000000000000000 ) ) ;
#462 = CARTESIAN_POINT ( 'NONE',  ( 0.1999999999999890476, 17.44406589580698252, 8.000000000000000000 ) ) ;
#463 = CARTESIAN_POINT ( 'NONE',  ( 0.02617303662020763894, 0.6720329479034919951, 8.000000000000000000 ) ) ;
#464 = ORIENTED_EDGE ( 'NONE', *, *, #318, .T. ) ;
#465 = CARTESIAN_POINT ( 'NONE',  ( -3.577867169202164632E-15, 2.534664819048479067, 8.000000000000000000 ) ) ;
#466 = DIRECTION ( 'NONE',  ( 0.5000000000000000000, -0.8660254037844385966, -0.000000000000000000 ) ) ;
#467 =( GEOMETRIC_REPRESENTATION_CONTEXT ( 3 ) GLOBAL_UNCERTAINTY_ASSIGNED_CONTEXT ( ( #371 ) ) GLOBAL_UNIT_ASSIGNED_CONTEXT ( ( #525, #113, #631 ) ) REPRESENTATION_CONTEXT ( 'NONE', 'WORKASPACE' ) );
#468 = VERTEX_POINT ( 'NONE', #669 ) ;
#469 = ORIENTED_EDGE ( 'NONE', *, *, #610, .F. ) ;
#470 = VECTOR ( 'NONE', #159, 1000.000000000000114 ) ;
#471 = VECTOR ( 'NONE', #761, 1000.000000000000000 ) ;
#472 = DIRECTION ( 'NONE',  ( -0.000000000000000000, -0.000000000000000000, -1.000000000000000000 ) ) ;
#473 = LINE ( 'NONE', #239, #133 ) ;
#474 = DIRECTION ( 'NONE',  ( 0.8660254037844397068, -0.4999999999999979461, 0.000000000000000000 ) ) ;
#475 = ORIENTED_EDGE ( 'NONE', *, *, #482, .T. ) ;
#476 = VECTOR ( 'NONE', #683, 1000.000000000000227 ) ;
#477 = DIRECTION ( 'NONE',  ( 0.000000000000000000, 0.000000000000000000, 1.000000000000000000 ) ) ;
#478 = FACE_OUTER_BOUND ( 'NONE', #492, .T. ) ;
#479 = VERTEX_POINT ( 'NONE', #430 ) ;
#480 = EDGE_CURVE ( 'NONE', #262, #584, #1, .T. ) ;
#481 = CARTESIAN_POINT ( 'NONE',  ( 0.02617303662020763894, 0.6720329479034919951, 8.000000000000000000 ) ) ;
#482 = EDGE_CURVE ( 'NONE', #164, #272, #729, .T. ) ;
#483 = VERTEX_POINT ( 'NONE', #548 ) ;
#484 = EDGE_CURVE ( 'NONE', #718, #199, #714, .T. ) ;
#485 = FACE_OUTER_BOUND ( 'NONE', #23, .T. ) ;
#486 = FACE_OUTER_BOUND ( 'NONE', #527, .T. ) ;
#487 = ORIENTED_EDGE ( 'NONE', *, *, #632, .T. ) ;
#488 = VECTOR ( 'NONE', #311, 1000.000000000000227 ) ;
#489 = CARTESIAN_POINT ( 'NONE',  ( -15.60000000000001563, 16.54132901840661418, 8.000000000000000000 ) ) ;
#490 = EDGE_CURVE ( 'NONE', #104, #572, #659, .T. ) ;
#491 = LINE ( 'NONE', #183, #640 ) ;
#492 = EDGE_LOOP ( 'NONE', ( #436, #136, #208, #543 ) ) ;
#493 = ADVANCED_FACE ( 'NONE', ( #186 ), #541, .F. ) ;
#494 = DIRECTION ( 'NONE',  ( 1.000000000000000000, 2.168404344971008868E-15, -0.000000000000000000 ) ) ;
#495 = CARTESIAN_POINT ( 'NONE',  ( -14.80000000000000071, -17.08290376865476290, 8.000000000000000000 ) ) ;
#496 = ADVANCED_FACE ( 'NONE', ( #552 ), #774, .F. ) ;
#497 = VECTOR ( 'NONE', #494, 1000.000000000000000 ) ;
#498 = EDGE_LOOP ( 'NONE', ( #131, #326, #222, #455 ) ) ;
#499 = DIRECTION ( 'NONE',  ( 0.8660254037844414832, -0.4999999999999951150, 0.000000000000000000 ) ) ;
#500 = CARTESIAN_POINT ( 'NONE',  ( 0.1999999999999823586, 9.844065895806991762, 0.000000000000000000 ) ) ;
#501 = VERTEX_POINT ( 'NONE', #181 ) ;
#502 = LINE ( 'NONE', #145, #573 ) ;
#503 = LINE ( 'NONE', #752, #577 ) ;
#504 = VERTEX_POINT ( 'NONE', #604 ) ;
#505 = ADVANCED_FACE ( 'NONE', ( #251 ), #299, .F. ) ;
#506 = VECTOR ( 'NONE', #42, 1000.000000000000000 ) ;
#507 = DIRECTION ( 'NONE',  ( 0.4999999999999998335, -0.8660254037844387076, 0.000000000000000000 ) ) ;
#508 = CARTESIAN_POINT ( 'NONE',  ( 1.799999999999995381, -16.59999999999999787, 8.000000000000000000 ) ) ;
#509 = ORIENTED_EDGE ( 'NONE', *, *, #95, .F. ) ;
#510 = AXIS2_PLACEMENT_3D ( 'NONE', #686, #499, #389 ) ;
#511 = EDGE_CURVE ( 'NONE', #413, #164, #178, .T. ) ;
#512 = DIRECTION ( 'NONE',  ( 0.8660254037844387076, 0.4999999999999999445, -0.000000000000000000 ) ) ;
#513 = PLANE ( 'NONE',  #152 ) ;
#514 = ORIENTED_EDGE ( 'NONE', *, *, #258, .F. ) ;
#515 = PLANE ( 'NONE',  #110 ) ;
#516 = AXIS2_PLACEMENT_3D ( 'NONE', #308, #545, #2 ) ;
#517 = DIRECTION ( 'NONE',  ( 1.000000000000000000, 1.829591166069288732E-16, -0.000000000000000000 ) ) ;
#518 = EDGE_CURVE ( 'NONE', #765, #399, #598, .T. ) ;
#519 = AXIS2_PLACEMENT_3D ( 'NONE', #279, #517, #160 ) ;
#520 = VERTEX_POINT ( 'NONE', #421 ) ;
#521 = DIRECTION ( 'NONE',  ( -0.8660254037844397068, 0.4999999999999980016, 0.000000000000000000 ) ) ;
#522 = CARTESIAN_POINT ( 'NONE',  ( -0.7999999999999997113, -9.000000000000007105, 0.000000000000000000 ) ) ;
#523 = CARTESIAN_POINT ( 'NONE',  ( 2.168404344971008868E-16, -6.690598923241499740, 8.000000000000000000 ) ) ;
#524 = ORIENTED_EDGE ( 'NONE', *, *, #79, .T. ) ;
#525 =( LENGTH_UNIT ( ) NAMED_UNIT ( * ) SI_UNIT ( .MILLI., .METRE. ) );
#526 = CARTESIAN_POINT ( 'NONE',  ( -14.00000000000001066, 10.61756858770321443, 8.000000000000000000 ) ) ;
#527 = EDGE_LOOP ( 'NONE', ( #475, #268, #423, #162 ) ) ;
#528 = DIRECTION ( 'NONE',  ( -0.8660254037844393737, 0.4999999999999986122, 0.000000000000000000 ) ) ;
#529 = DIRECTION ( 'NONE',  ( -0.5000000000000000000, 0.8660254037844385966, 0.000000000000000000 ) ) ;
#530 = VERTEX_POINT ( 'NONE', #601 ) ;
#531 = ORIENTED_EDGE ( 'NONE', *, *, #182, .F. ) ;
#532 = DIRECTION ( 'NONE',  ( 5.421010862427526114E-16, 1.000000000000000000, 0.000000000000000000 ) ) ;
#533 = ADVANCED_FACE ( 'NONE', ( #60 ), #303, .F. ) ;
#534 = FACE_OUTER_BOUND ( 'NONE', #203, .T. ) ;
#535 = VERTEX_POINT ( 'NONE', #481 ) ;
#536 = ORIENTED_EDGE ( 'NONE', *, *, #31, .F. ) ;
#537 = VECTOR ( 'NONE', #682, 1000.000000000000000 ) ;
#538 = EDGE_CURVE ( 'NONE', #603, #272, #722, .T. ) ;
#539 = CARTESIAN_POINT ( 'NONE',  ( -14.00000000000001066, 10.61756858770321443, 0.000000000000000000 ) ) ;
#540 = ORIENTED_EDGE ( 'NONE', *, *, #123, .T. ) ;
#541 = PLANE ( 'NONE',  #668 ) ;
#542 = VECTOR ( 'NONE', #146, 1000.000000000000000 ) ;
#543 = ORIENTED_EDGE ( 'NONE', *, *, #349, .T. ) ;
#544 = CARTESIAN_POINT ( 'NONE',  ( 0.1999999999999890476, 17.44406589580698252, 8.000000000000000000 ) ) ;
#545 = DIRECTION ( 'NONE',  ( 0.000000000000000000, -1.000000000000000000, 0.000000000000000000 ) ) ;
#546 = AXIS2_PLACEMENT_3D ( 'NONE', #649, #694, #703 ) ;
#547 = ORIENTED_EDGE ( 'NONE', *, *, #185, .F. ) ;
#548 = CARTESIAN_POINT ( 'NONE',  ( -15.60000000000001563, 16.54132901840661418, 8.000000000000000000 ) ) ;
#549 = PRESENTATION_LAYER_ASSIGNMENT (  '', '', ( #748 ) ) ;
#550 = DIRECTION ( 'NONE',  ( -0.8660254037844387076, -0.4999999999999997224, -0.000000000000000000 ) ) ;
#551 = ORIENTED_EDGE ( 'NONE', *, *, #228, .F. ) ;
#552 = FACE_OUTER_BOUND ( 'NONE', #86, .T. ) ;
#553 = ADVANCED_FACE ( 'NONE', ( #742 ), #734, .F. ) ;
#554 = EDGE_LOOP ( 'NONE', ( #618, #385, #509, #680 ) ) ;
#555 = VECTOR ( 'NONE', #424, 1000.000000000000000 ) ;
#556 = ADVANCED_FACE ( 'NONE', ( #205 ), #560, .F. ) ;
#557 = CARTESIAN_POINT ( 'NONE',  ( -14.00000000000000000, -9.773502691896252870, 0.000000000000000000 ) ) ;
#558 = LINE ( 'NONE', #14, #37 ) ;
#559 = ORIENTED_EDGE ( 'NONE', *, *, #27, .T. ) ;
#560 = PLANE ( 'NONE',  #340 ) ;
#561 = DIRECTION ( 'NONE',  ( 0.000000000000000000, 0.000000000000000000, -1.000000000000000000 ) ) ;
#562 = ORIENTED_EDGE ( 'NONE', *, *, #120, .T. ) ;
#563 = DIRECTION ( 'NONE',  ( -0.4999999999999998890, 0.8660254037844387076, 0.000000000000000000 ) ) ;
#564 = DIRECTION ( 'NONE',  ( -0.000000000000000000, -0.000000000000000000, -1.000000000000000000 ) ) ;
#565 = ORIENTED_EDGE ( 'NONE', *, *, #168, .T. ) ;
#566 = CARTESIAN_POINT ( 'NONE',  ( 2.168404344971008868E-16, -1.690598923241495077, 0.000000000000000000 ) ) ;
#567 = LINE ( 'NONE', #91, #675 ) ;
#568 = VERTEX_POINT ( 'NONE', #386 ) ;
#569 = EDGE_CURVE ( 'NONE', #721, #54, #274, .T. ) ;
#570 = CARTESIAN_POINT ( 'NONE',  ( -0.8000000000000161426, 9.844065895806991762, 0.000000000000000000 ) ) ;
#571 = CARTESIAN_POINT ( 'NONE',  ( 1.799999999999995381, -16.59999999999999787, 8.000000000000000000 ) ) ;
#572 = VERTEX_POINT ( 'NONE', #689 ) ;
#573 = VECTOR ( 'NONE', #331, 1000.000000000000114 ) ;
#574 = LINE ( 'NONE', #341, #106 ) ;
#575 = ORIENTED_EDGE ( 'NONE', *, *, #218, .F. ) ;
#576 = SHAPE_DEFINITION_REPRESENTATION ( #679, #453 ) ;
#577 = VECTOR ( 'NONE', #735, 1000.000000000000000 ) ;
#578 = LINE ( 'NONE', #167, #654 ) ;
#579 = CARTESIAN_POINT ( 'NONE',  ( -14.80000000000001137, 9.231927941648109481, 8.000000000000000000 ) ) ;
#580 = CARTESIAN_POINT ( 'NONE',  ( 0.1999999999999890476, 17.44406589580698252, 0.000000000000000000 ) ) ;
#581 = PRODUCT ( 'damper-1-kick-holder', 'damper-1-kick-holder', '', ( #636 ) ) ;
#582 = LINE ( 'NONE', #354, #294 ) ;
#583 = ORIENTED_EDGE ( 'NONE', *, *, #518, .T. ) ;
#584 = VERTEX_POINT ( 'NONE', #570 ) ;
#585 = VECTOR ( 'NONE', #412, 1000.000000000000000 ) ;
#586 = LINE ( 'NONE', #769, #643 ) ;
#587 = PLANE ( 'NONE',  #360 ) ;
#588 = ORIENTED_EDGE ( 'NONE', *, *, #569, .F. ) ;
#589 = EDGE_CURVE ( 'NONE', #199, #351, #212, .T. ) ;
#590 = ORIENTED_EDGE ( 'NONE', *, *, #293, .T. ) ;
#591 = CARTESIAN_POINT ( 'NONE',  ( 0.1999999999999953204, -16.60000000000000142, 0.000000000000000000 ) ) ;
#592 = ORIENTED_EDGE ( 'NONE', *, *, #569, .T. ) ;
#593 = AXIS2_PLACEMENT_3D ( 'NONE', #462, #459, #763 ) ;
#594 = ADVANCED_FACE ( 'NONE', ( #84 ), #611, .F. ) ;
#595 = FACE_OUTER_BOUND ( 'NONE', #10, .T. ) ;
#596 = VERTEX_POINT ( 'NONE', #197 ) ;
#597 = EDGE_CURVE ( 'NONE', #97, #626, #263, .T. ) ;
#598 = LINE ( 'NONE', #189, #772 ) ;
#599 = SURFACE_SIDE_STYLE ('',( #431 ) ) ;
#600 = ORIENTED_EDGE ( 'NONE', *, *, #676, .F. ) ;
#601 = CARTESIAN_POINT ( 'NONE',  ( 0.1999999999999890476, 17.44406589580698252, 8.000000000000000000 ) ) ;
#602 =( LENGTH_UNIT ( ) NAMED_UNIT ( * ) SI_UNIT ( .MILLI., .METRE. ) );
#603 = VERTEX_POINT ( 'NONE', #335 ) ;
#604 = CARTESIAN_POINT ( 'NONE',  ( 0.1999999999999994282, -9.000000000000007105, 8.000000000000000000 ) ) ;
#605 = CARTESIAN_POINT ( 'NONE',  ( -14.80000000000002558, 17.92696966446171558, 8.000000000000000000 ) ) ;
#606 = ORIENTED_EDGE ( 'NONE', *, *, #314, .T. ) ;
#607 = VECTOR ( 'NONE', #200, 1000.000000000000000 ) ;
#608 = CARTESIAN_POINT ( 'NONE',  ( 1.799999999999995381, 17.44406589580698252, 8.000000000000000000 ) ) ;
#609 = ORIENTED_EDGE ( 'NONE', *, *, #589, .T. ) ;
#610 = EDGE_CURVE ( 'NONE', #199, #504, #443, .T. ) ;
#611 = PLANE ( 'NONE',  #71 ) ;
#612 = LINE ( 'NONE', #73, #345 ) ;
#613 = ORIENTED_EDGE ( 'NONE', *, *, #666, .T. ) ;
#614 = VECTOR ( 'NONE', #550, 1000.000000000000114 ) ;
#615 = AXIS2_PLACEMENT_3D ( 'NONE', #489, #418, #72 ) ;
#616 = LINE ( 'NONE', #21, #607 ) ;
#617 = CARTESIAN_POINT ( 'NONE',  ( -14.80000000000002558, 17.92696966446171558, 8.000000000000000000 ) ) ;
#618 = ORIENTED_EDGE ( 'NONE', *, *, #448, .T. ) ;
#619 = DIRECTION ( 'NONE',  ( 0.8660254037844387076, 0.4999999999999998335, 0.000000000000000000 ) ) ;
#620 = EDGE_CURVE ( 'NONE', #334, #749, #28, .T. ) ;
#621 = DIRECTION ( 'NONE',  ( -1.000000000000000000, -2.168404344971008868E-15, 0.000000000000000000 ) ) ;
#622 = ORIENTED_EDGE ( 'NONE', *, *, #19, .T. ) ;
#623 = DIRECTION ( 'NONE',  ( -0.000000000000000000, -0.000000000000000000, -1.000000000000000000 ) ) ;
#624 = LINE ( 'NONE', #333, #201 ) ;
#625 = EDGE_CURVE ( 'NONE', #572, #97, #209, .T. ) ;
#626 = VERTEX_POINT ( 'NONE', #12 ) ;
#627 = DIRECTION ( 'NONE',  ( -0.8660254037844397068, 0.4999999999999980016, 0.000000000000000000 ) ) ;
#628 = VECTOR ( 'NONE', #778, 1000.000000000000114 ) ;
#629 = CARTESIAN_POINT ( 'NONE',  ( 1.799999999999995381, 17.44406589580698252, 8.000000000000000000 ) ) ;
#630 = ORIENTED_EDGE ( 'NONE', *, *, #620, .F. ) ;
#631 =( NAMED_UNIT ( * ) SI_UNIT ( $, .STERADIAN. ) SOLID_ANGLE_UNIT ( ) );
#632 = EDGE_CURVE ( 'NONE', #359, #663, #750, .T. ) ;
#633 = DIRECTION ( 'NONE',  ( -8.809142651444734373E-16, -1.000000000000000000, 0.000000000000000000 ) ) ;
#634 = ORIENTED_EDGE ( 'NONE', *, *, #437, .T. ) ;
#635 = VECTOR ( 'NONE', #124, 1000.000000000000114 ) ;
#636 = PRODUCT_CONTEXT ( 'NONE', #648, 'mechanical' ) ;
#637 = DIRECTION ( 'NONE',  ( 0.8660254037844387076, 0.5000000000000001110, -0.000000000000000000 ) ) ;
#638 = LINE ( 'NONE', #579, #275 ) ;
#639 = CARTESIAN_POINT ( 'NONE',  ( 1.799999999999995381, -16.59999999999999787, 0.000000000000000000 ) ) ;
#640 = VECTOR ( 'NONE', #193, 1000.000000000000000 ) ;
#641 = LINE ( 'NONE', #348, #11 ) ;
#642 = LINE ( 'NONE', #230, #471 ) ;
#643 = VECTOR ( 'NONE', #759, 1000.000000000000000 ) ;
#644 = PLANE ( 'NONE',  #53 ) ;
#645 = ADVANCED_FACE ( 'NONE', ( #138 ), #382, .F. ) ;
#646 = ORIENTED_EDGE ( 'NONE', *, *, #484, .T. ) ;
#647 = ORIENTED_EDGE ( 'NONE', *, *, #156, .F. ) ;
#648 = APPLICATION_CONTEXT ( 'automotive_design' ) ;
#649 = CARTESIAN_POINT ( 'NONE',  ( -14.00000000000000000, -9.773502691896252870, 8.000000000000000000 ) ) ;
#650 = CARTESIAN_POINT ( 'NONE',  ( -14.80000000000000071, -17.08290376865476290, 0.000000000000000000 ) ) ;
#651 = ORIENTED_EDGE ( 'NONE', *, *, #65, .T. ) ;
#652 = CARTESIAN_POINT ( 'NONE',  ( 1.799999999999995381, 17.44406589580698252, 0.000000000000000000 ) ) ;
#653 = ORIENTED_EDGE ( 'NONE', *, *, #597, .T. ) ;
#654 = VECTOR ( 'NONE', #760, 1000.000000000000000 ) ;
#655 = EDGE_CURVE ( 'NONE', #626, #568, #616, .T. ) ;
#656 = CARTESIAN_POINT ( 'NONE',  ( -3.577867169202164632E-15, 2.534664819048479067, 0.000000000000000000 ) ) ;
#657 = ADVANCED_FACE ( 'NONE', ( #90 ), #439, .F. ) ;
#658 = DIRECTION ( 'NONE',  ( -0.8660254037844387076, -0.4999999999999998890, -0.000000000000000000 ) ) ;
#659 = LINE ( 'NONE', #427, #132 ) ;
#660 = ORIENTED_EDGE ( 'NONE', *, *, #773, .T. ) ;
#661 = DIRECTION ( 'NONE',  ( 0.8660254037844394848, -0.4999999999999986122, 0.000000000000000000 ) ) ;
#662 = PRESENTATION_STYLE_ASSIGNMENT (( #78 ) ) ;
#663 = VERTEX_POINT ( 'NONE', #266 ) ;
#664 = DIRECTION ( 'NONE',  ( 0.000000000000000000, -0.000000000000000000, -1.000000000000000000 ) ) ;
#665 = CARTESIAN_POINT ( 'NONE',  ( 0.000000000000000000, 0.000000000000000000, 8.000000000000000000 ) ) ;
#666 = EDGE_CURVE ( 'NONE', #272, #596, #502, .T. ) ;
#667 = VERTEX_POINT ( 'NONE', #24 ) ;
#668 = AXIS2_PLACEMENT_3D ( 'NONE', #544, #57, #664 ) ;
#669 = CARTESIAN_POINT ( 'NONE',  ( -15.60000000000000142, -15.69726312259965972, 0.000000000000000000 ) ) ;
#670 = DIRECTION ( 'NONE',  ( -1.000000000000000000, 0.000000000000000000, -0.000000000000000000 ) ) ;
#671 = ORIENTED_EDGE ( 'NONE', *, *, #318, .F. ) ;
#672 = CARTESIAN_POINT ( 'NONE',  ( 2.168404344971008868E-16, -1.690598923241495077, 8.000000000000000000 ) ) ;
#673 = LINE ( 'NONE', #747, #476 ) ;
#674 = ORIENTED_EDGE ( 'NONE', *, *, #123, .F. ) ;
#675 = VECTOR ( 'NONE', #393, 1000.000000000000000 ) ;
#676 = EDGE_CURVE ( 'NONE', #749, #626, #148, .T. ) ;
#677 = CARTESIAN_POINT ( 'NONE',  ( -0.7999999999999997113, -9.000000000000007105, 8.000000000000000000 ) ) ;
#678 = CARTESIAN_POINT ( 'NONE',  ( -14.80000000000002558, 17.92696966446171558, 0.000000000000000000 ) ) ;
#679 = PRODUCT_DEFINITION_SHAPE ( 'NONE', 'NONE',  #384 ) ;
#680 = ORIENTED_EDGE ( 'NONE', *, *, #775, .T. ) ;
#681 = EDGE_CURVE ( 'NONE', #406, #351, #343, .T. ) ;
#682 = DIRECTION ( 'NONE',  ( 1.000000000000000000, -0.000000000000000000, -0.000000000000000000 ) ) ;
#683 = DIRECTION ( 'NONE',  ( 0.5000000000000000000, -0.8660254037844385966, -0.000000000000000000 ) ) ;
#684 = AXIS2_PLACEMENT_3D ( 'NONE', #187, #364, #425 ) ;
#685 = ORIENTED_EDGE ( 'NONE', *, *, #490, .T. ) ;
#686 = CARTESIAN_POINT ( 'NONE',  ( -14.80000000000002558, 17.92696966446171558, 8.000000000000000000 ) ) ;
#687 = FACE_OUTER_BOUND ( 'NONE', #323, .T. ) ;
#688 = ORIENTED_EDGE ( 'NONE', *, *, #102, .F. ) ;
#689 = CARTESIAN_POINT ( 'NONE',  ( -14.80000000000000071, -8.387862045841151470, 0.000000000000000000 ) ) ;
#690 = VECTOR ( 'NONE', #472, 1000.000000000000000 ) ;
#691 = LINE ( 'NONE', #154, #728 ) ;
#692 = EDGE_CURVE ( 'NONE', #530, #724, #709, .T. ) ;
#693 = ORIENTED_EDGE ( 'NONE', *, *, #428, .T. ) ;
#694 = DIRECTION ( 'NONE',  ( 0.8660254037844387076, 0.5000000000000001110, -0.000000000000000000 ) ) ;
#695 = CARTESIAN_POINT ( 'NONE',  ( -14.80000000000001137, 9.231927941648109481, 0.000000000000000000 ) ) ;
#696 = ORIENTED_EDGE ( 'NONE', *, *, #92, .F. ) ;
#697 = CARTESIAN_POINT ( 'NONE',  ( -0.7999999999999997113, -9.000000000000007105, 0.000000000000000000 ) ) ;
#698 = CARTESIAN_POINT ( 'NONE',  ( -14.80000000000000071, -17.08290376865476290, 8.000000000000000000 ) ) ;
#699 = CARTESIAN_POINT ( 'NONE',  ( 0.1999999999999953204, -16.60000000000000142, 8.000000000000000000 ) ) ;
#700 = EDGE_CURVE ( 'NONE', #317, #40, #762, .T. ) ;
#701 = LINE ( 'NONE', #38, #417 ) ;
#702 = FACE_OUTER_BOUND ( 'NONE', #219, .T. ) ;
#703 = DIRECTION ( 'NONE',  ( -0.5000000000000000000, 0.8660254037844385966, 0.000000000000000000 ) ) ;
#704 = AXIS2_PLACEMENT_3D ( 'NONE', #34, #278, #456 ) ;
#705 = EDGE_CURVE ( 'NONE', #584, #151, #353, .T. ) ;
#706 = CARTESIAN_POINT ( 'NONE',  ( -14.00000000000000000, -9.773502691896252870, 8.000000000000000000 ) ) ;
#707 = ORIENTED_EDGE ( 'NONE', *, *, #182, .T. ) ;
#708 = AXIS2_PLACEMENT_3D ( 'NONE', #677, #142, #87 ) ;
#709 = LINE ( 'NONE', #403, #336 ) ;
#710 = CARTESIAN_POINT ( 'NONE',  ( -14.80000000000000071, -8.387862045841151470, 8.000000000000000000 ) ) ;
#711 = EDGE_LOOP ( 'NONE', ( #226, #433, #551, #740 ) ) ;
#712 = ADVANCED_FACE ( 'NONE', ( #232 ), #515, .F. ) ;
#713 = EDGE_LOOP ( 'NONE', ( #653, #600, #630, #606 ) ) ;
#714 = LINE ( 'NONE', #377, #59 ) ;
#715 =( GEOMETRIC_REPRESENTATION_CONTEXT ( 3 ) GLOBAL_UNCERTAINTY_ASSIGNED_CONTEXT ( ( #81 ) ) GLOBAL_UNIT_ASSIGNED_CONTEXT ( ( #602, #61, #731 ) ) REPRESENTATION_CONTEXT ( 'NONE', 'WORKASPACE' ) );
#716 = DIRECTION ( 'NONE',  ( -0.000000000000000000, -0.000000000000000000, -1.000000000000000000 ) ) ;
#717 = EDGE_CURVE ( 'NONE', #55, #445, #755, .T. ) ;
#718 = VERTEX_POINT ( 'NONE', #347 ) ;
#719 = DIRECTION ( 'NONE',  ( -0.4999999999999980016, -0.8660254037844398178, 0.000000000000000000 ) ) ;
#720 = DIRECTION ( 'NONE',  ( -0.000000000000000000, -0.000000000000000000, -1.000000000000000000 ) ) ;
#721 = VERTEX_POINT ( 'NONE', #289 ) ;
#722 = LINE ( 'NONE', #368, #169 ) ;
#723 = CARTESIAN_POINT ( 'NONE',  ( 0.02617303662020772914, 0.1720329479034919395, 8.000000000000000000 ) ) ;
#724 = VERTEX_POINT ( 'NONE', #580 ) ;
#725 = CARTESIAN_POINT ( 'NONE',  ( -0.8000000000000161426, 9.844065895806991762, 8.000000000000000000 ) ) ;
#726 = LINE ( 'NONE', #256, #177 ) ;
#727 = EDGE_LOOP ( 'NONE', ( #119, #514, #236, #524 ) ) ;
#728 = VECTOR ( 'NONE', #398, 1000.000000000000000 ) ;
#729 = LINE ( 'NONE', #539, #215 ) ;
#730 = ADVANCED_FACE ( 'NONE', ( #766 ), #223, .F. ) ;
#731 =( NAMED_UNIT ( * ) SI_UNIT ( $, .STERADIAN. ) SOLID_ANGLE_UNIT ( ) );
#732 = ORIENTED_EDGE ( 'NONE', *, *, #120, .F. ) ;
#733 = VECTOR ( 'NONE', #76, 1000.000000000000000 ) ;
#734 = PLANE ( 'NONE',  #300 ) ;
#735 = DIRECTION ( 'NONE',  ( -0.000000000000000000, -1.000000000000000000, -0.000000000000000000 ) ) ;
#736 = ORIENTED_EDGE ( 'NONE', *, *, #95, .T. ) ;
#737 = PRODUCT_DEFINITION_CONTEXT ( 'detailed design', #332, 'design' ) ;
#738 = CARTESIAN_POINT ( 'NONE',  ( 0.1999999999999994282, -9.000000000000007105, 8.000000000000000000 ) ) ;
#739 = DIRECTION ( 'NONE',  ( -2.168404344971008868E-15, 1.000000000000000000, 0.000000000000000000 ) ) ;
#740 = ORIENTED_EDGE ( 'NONE', *, *, #260, .T. ) ;
#741 = VECTOR ( 'NONE', #435, 1000.000000000000000 ) ;
#742 = FACE_OUTER_BOUND ( 'NONE', #713, .T. ) ;
#743 = DIRECTION ( 'NONE',  ( -5.421010862427526114E-16, -1.000000000000000000, -0.000000000000000000 ) ) ;
#744 = ORIENTED_EDGE ( 'NONE', *, *, #19, .F. ) ;
#745 = VECTOR ( 'NONE', #46, 1000.000000000000000 ) ;
#746 = CARTESIAN_POINT ( 'NONE',  ( -15.60000000000000142, -15.69726312259965972, 8.000000000000000000 ) ) ;
#747 = CARTESIAN_POINT ( 'NONE',  ( -14.80000000000000071, -17.08290376865476290, 0.000000000000000000 ) ) ;
#748 = STYLED_ITEM ( 'NONE', ( #662 ), #48 ) ;
#749 = VERTEX_POINT ( 'NONE', #286 ) ;
#750 = LINE ( 'NONE', #259, #497 ) ;
#751 = EDGE_CURVE ( 'NONE', #40, #281, #586, .T. ) ;
#752 = CARTESIAN_POINT ( 'NONE',  ( 2.168404344971008868E-16, -6.690598923241499740, 8.000000000000000000 ) ) ;
#753 = ORIENTED_EDGE ( 'NONE', *, *, #349, .F. ) ;
#754 = AXIS2_PLACEMENT_3D ( 'NONE', #508, #739, #621 ) ;
#755 = LINE ( 'NONE', #407, #206 ) ;
#756 = VECTOR ( 'NONE', #108, 1000.000000000000227 ) ;
#757 = FACE_OUTER_BOUND ( 'NONE', #288, .T. ) ;
#758 = ORIENTED_EDGE ( 'NONE', *, *, #681, .F. ) ;
#759 = DIRECTION ( 'NONE',  ( -0.000000000000000000, 1.000000000000000000, -0.000000000000000000 ) ) ;
#760 = DIRECTION ( 'NONE',  ( -0.000000000000000000, -0.000000000000000000, -1.000000000000000000 ) ) ;
#761 = DIRECTION ( 'NONE',  ( -8.809142651444734373E-16, -1.000000000000000000, 0.000000000000000000 ) ) ;
#762 = LINE ( 'NONE', #639, #506 ) ;
#763 = DIRECTION ( 'NONE',  ( 8.809142651444735359E-16, 1.000000000000000000, 0.000000000000000000 ) ) ;
#764 = DIRECTION ( 'NONE',  ( 0.000000000000000000, 0.000000000000000000, 1.000000000000000000 ) ) ;
#765 = VERTEX_POINT ( 'NONE', #461 ) ;
#766 = FACE_OUTER_BOUND ( 'NONE', #253, .T. ) ;
#767 = PLANE ( 'NONE',  #519 ) ;
#768 = DIRECTION ( 'NONE',  ( 0.000000000000000000, 1.000000000000000000, -0.000000000000000000 ) ) ;
#769 = CARTESIAN_POINT ( 'NONE',  ( 1.799999999999995381, 17.44406589580698252, 0.000000000000000000 ) ) ;
#770 = DIRECTION ( 'NONE',  ( 0.000000000000000000, 0.000000000000000000, -1.000000000000000000 ) ) ;
#771 = ORIENTED_EDGE ( 'NONE', *, *, #518, .F. ) ;
#772 = VECTOR ( 'NONE', #661, 999.9999999999998863 ) ;
#773 = EDGE_CURVE ( 'NONE', #445, #479, #397, .T. ) ;
#774 = PLANE ( 'NONE',  #432 ) ;
#775 = EDGE_CURVE ( 'NONE', #20, #568, #220, .T. ) ;
#776 = CARTESIAN_POINT ( 'NONE',  ( 0.1999999999999994282, -9.000000000000007105, 8.000000000000000000 ) ) ;
#777 = ORIENTED_EDGE ( 'NONE', *, *, #589, .F. ) ;
#778 = DIRECTION ( 'NONE',  ( -0.8660254037844387076, -0.4999999999999998890, -0.000000000000000000 ) ) ;
#779 = VECTOR ( 'NONE', #202, 1000.000000000000000 ) ;
#780 = LINE ( 'NONE', #135, #381 ) ;
#781 = ORIENTED_EDGE ( 'NONE', *, *, #339, .F. ) ;
ENDSEC;
END-ISO-10303-21;
