ISO-10303-21;
HEADER;
FILE_DESCRIPTION (( 'STEP AP214' ),
    '1' );
FILE_NAME ('battery holder.STEP',
    '2026-03-22T10:26:04',
    ( '' ),
    ( '' ),
    'SwSTEP 2.0',
    'SolidWorks 2026',
    '' );
FILE_SCHEMA (( 'AUTOMOTIVE_DESIGN' ));
ENDSEC;

DATA;
#1 = ORIENTED_EDGE ( 'NONE', *, *, #977, .T. ) ;
#2 = CARTESIAN_POINT ( 'NONE',  ( 0.000000000000000000, 0.000000000000000000, 5.000000000000000000 ) ) ;
#3 = EDGE_CURVE ( 'NONE', #434, #250, #822, .T. ) ;
#4 = DIRECTION ( 'NONE',  ( -0.000000000000000000, -0.000000000000000000, -1.000000000000000000 ) ) ;
#5 = ORIENTED_EDGE ( 'NONE', *, *, #236, .T. ) ;
#6 = DIRECTION ( 'NONE',  ( 1.000000000000000000, 0.000000000000000000, 0.000000000000000000 ) ) ;
#7 = CARTESIAN_POINT ( 'NONE',  ( 63.91467591287926098, -39.24197431759574783, 5.021896208859719657 ) ) ;
#8 = EDGE_CURVE ( 'NONE', #459, #792, #311, .T. ) ;
#9 = DIRECTION ( 'NONE',  ( 1.000000000000000000, 0.000000000000000000, 0.000000000000000000 ) ) ;
#10 = EDGE_CURVE ( 'NONE', #726, #801, #279, .T. ) ;
#11 = VERTEX_POINT ( 'NONE', #766 ) ;
#12 = DIRECTION ( 'NONE',  ( 0.000000000000000000, 0.000000000000000000, -1.000000000000000000 ) ) ;
#13 = DIRECTION ( 'NONE',  ( 0.000000000000000000, 0.000000000000000000, 1.000000000000000000 ) ) ;
#14 = FACE_OUTER_BOUND ( 'NONE', #877, .T. ) ;
#15 = EDGE_CURVE ( 'NONE', #106, #629, #912, .T. ) ;
#16 = EDGE_LOOP ( 'NONE', ( #861, #735, #802, #991 ) ) ;
#17 = CARTESIAN_POINT ( 'NONE',  ( 54.77521879087281320, 51.23292741118268623, 5.731905520077830829 ) ) ;
#18 = VECTOR ( 'NONE', #980, 1000.000000000000000 ) ;
#19 = CARTESIAN_POINT ( 'NONE',  ( 75.00000000000000000, -19.99999999999998579, 5.000000000000000000 ) ) ;
#20 = ORIENTED_EDGE ( 'NONE', *, *, #593, .F. ) ;
#21 = CIRCLE ( 'NONE', #756, 1.600000000000004086 ) ;
#22 = CONICAL_SURFACE ( 'NONE', #649, 1.600000000000004086, 0.7853981633974510546 ) ;
#23 = DIRECTION ( 'NONE',  ( -0.000000000000000000, -0.000000000000000000, -1.000000000000000000 ) ) ;
#24 = EDGE_LOOP ( 'NONE', ( #884, #178, #835, #128 ) ) ;
#25 = CYLINDRICAL_SURFACE ( 'NONE', #785, 1.600000000000004086 ) ;
#26 = DIRECTION ( 'NONE',  ( 1.000000000000000000, 0.000000000000000000, 0.000000000000000000 ) ) ;
#27 = EDGE_LOOP ( 'NONE', ( #477, #690, #302, #633 ) ) ;
#28 = VERTEX_POINT ( 'NONE', #675 ) ;
#29 = EDGE_CURVE ( 'NONE', #801, #726, #436, .T. ) ;
#30 = CIRCLE ( 'NONE', #529, 1.600000000000004086 ) ;
#31 = CARTESIAN_POINT ( 'NONE',  ( 75.00000000000000000, -19.99999999999998579, 0.000000000000000000 ) ) ;
#32 = CARTESIAN_POINT ( 'NONE',  ( 58.47359291087011712, 46.96718062726621667, 9.033960936800756514 ) ) ;
#33 = ORIENTED_EDGE ( 'NONE', *, *, #969, .F. ) ;
#34 = ORIENTED_EDGE ( 'NONE', *, *, #190, .F. ) ;
#35 = FACE_OUTER_BOUND ( 'NONE', #402, .T. ) ;
#36 = EDGE_CURVE ( 'NONE', #41, #251, #916, .T. ) ;
#37 = CARTESIAN_POINT ( 'NONE',  ( 63.44288770224761009, -39.00000000000000711, 6.000000000000000000 ) ) ;
#38 = CARTESIAN_POINT ( 'NONE',  ( 59.66052123178665312, 45.44966019461781315, 11.93809124555049195 ) ) ;
#39 = ORIENTED_EDGE ( 'NONE', *, *, #502, .T. ) ;
#40 = DIRECTION ( 'NONE',  ( -0.000000000000000000, -0.000000000000000000, -1.000000000000000000 ) ) ;
#41 = VERTEX_POINT ( 'NONE', #664 ) ;
#42 = CARTESIAN_POINT ( 'NONE',  ( 58.94635150703679471, -46.37228332093322081, 9.931233150626059825 ) ) ;
#43 = FILL_AREA_STYLE_COLOUR ( '', #708 ) ;
#44 = DIRECTION ( 'NONE',  ( 0.000000000000000000, 0.000000000000000000, 1.000000000000000000 ) ) ;
#45 = CARTESIAN_POINT ( 'NONE',  ( 28.19999999999999929, -69.50000000000000000, 5.000000000000000000 ) ) ;
#46 = ADVANCED_FACE ( 'NONE', ( #753 ), #53, .F. ) ;
#47 = DIRECTION ( 'NONE',  ( 1.000000000000000000, 0.000000000000000000, 0.000000000000000000 ) ) ;
#48 = ORIENTED_EDGE ( 'NONE', *, *, #892, .T. ) ;
#49 = DIRECTION ( 'NONE',  ( -0.000000000000000000, -0.000000000000000000, -1.000000000000000000 ) ) ;
#50 = CARTESIAN_POINT ( 'NONE',  ( 23.99999999999999289, 45.00000000000000711, 15.00000000000000000 ) ) ;
#51 = AXIS2_PLACEMENT_3D ( 'NONE', #656, #650, #745 ) ;
#52 = FACE_BOUND ( 'NONE', #711, .T. ) ;
#53 = CYLINDRICAL_SURFACE ( 'NONE', #340, 1.600000000000004086 ) ;
#54 = EDGE_CURVE ( 'NONE', #640, #625, #966, .T. ) ;
#55 = ORIENTED_EDGE ( 'NONE', *, *, #557, .F. ) ;
#56 = CARTESIAN_POINT ( 'NONE',  ( 54.78536756999945823, -51.22207445850121132, 5.736318559511764725 ) ) ;
#57 = DIRECTION ( 'NONE',  ( -0.000000000000000000, -1.000000000000000000, -0.000000000000000000 ) ) ;
#58 = CARTESIAN_POINT ( 'NONE',  ( 63.44288770224761009, -40.00000000000000711, 15.00000000000000000 ) ) ;
#59 = ORIENTED_EDGE ( 'NONE', *, *, #624, .T. ) ;
#60 = ORIENTED_EDGE ( 'NONE', *, *, #730, .T. ) ;
#61 = CYLINDRICAL_SURFACE ( 'NONE', #628, 1.000000000000000000 ) ;
#62 = ADVANCED_FACE ( 'NONE', ( #362 ), #89, .F. ) ;
#63 = ORIENTED_EDGE ( 'NONE', *, *, #103, .T. ) ;
#64 = FACE_OUTER_BOUND ( 'NONE', #391, .T. ) ;
#65 = ADVANCED_FACE ( 'NONE', ( #674 ), #286, .F. ) ;
#66 = DIRECTION ( 'NONE',  ( -0.000000000000000000, -0.000000000000000000, -1.000000000000000000 ) ) ;
#67 = CARTESIAN_POINT ( 'NONE',  ( 28.19999999999998508, 69.50000000000000000, 5.000000000000000000 ) ) ;
#68 = VECTOR ( 'NONE', #204, 1000.000000000000000 ) ;
#69 = VERTEX_POINT ( 'NONE', #975 ) ;
#70 = DIRECTION ( 'NONE',  ( 1.000000000000000000, 0.000000000000000000, 0.000000000000000000 ) ) ;
#71 = FACE_OUTER_BOUND ( 'NONE', #531, .T. ) ;
#72 = AXIS2_PLACEMENT_3D ( 'NONE', #407, #803, #97 ) ;
#73 = ORIENTED_EDGE ( 'NONE', *, *, #905, .F. ) ;
#74 = DIRECTION ( 'NONE',  ( -0.000000000000000000, -0.000000000000000000, -1.000000000000000000 ) ) ;
#75 = AXIS2_PLACEMENT_3D ( 'NONE', #401, #253, #554 ) ;
#76 = DIRECTION ( 'NONE',  ( 0.000000000000000000, 0.000000000000000000, 1.000000000000000000 ) ) ;
#77 = MECHANICAL_DESIGN_GEOMETRIC_PRESENTATION_REPRESENTATION (  '', ( #677 ), #724 ) ;
#78 = DIRECTION ( 'NONE',  ( 1.000000000000000000, 0.000000000000000000, 0.000000000000000000 ) ) ;
#79 = EDGE_CURVE ( 'NONE', #28, #277, #268, .T. ) ;
#80 = ORIENTED_EDGE ( 'NONE', *, *, #704, .T. ) ;
#81 = DIRECTION ( 'NONE',  ( 0.000000000000000000, 0.000000000000000000, -1.000000000000000000 ) ) ;
#82 = FACE_OUTER_BOUND ( 'NONE', #651, .T. ) ;
#83 = ORIENTED_EDGE ( 'NONE', *, *, #382, .T. ) ;
#84 = DIRECTION ( 'NONE',  ( -0.000000000000000000, -0.000000000000000000, -1.000000000000000000 ) ) ;
#85 = CARTESIAN_POINT ( 'NONE',  ( 28.19999999999999929, -69.50000000000000000, 0.000000000000000000 ) ) ;
#86 = ORIENTED_EDGE ( 'NONE', *, *, #997, .T. ) ;
#87 = LINE ( 'NONE', #935, #639 ) ;
#88 = CARTESIAN_POINT ( 'NONE',  ( 76.59999999999999432, -19.99999999999998579, 0.000000000000000000 ) ) ;
#89 = CONICAL_SURFACE ( 'NONE', #390, 1.600000000000004086, 0.7853981633974522758 ) ;
#90 = ADVANCED_FACE ( 'NONE', ( #823, #588, #205, #52, #438 ), #120, .F. ) ;
#91 = DIRECTION ( 'NONE',  ( -1.387778780781446464E-15, -1.000000000000000000, -0.000000000000000000 ) ) ;
#92 = VERTEX_POINT ( 'NONE', #655 ) ;
#93 = EDGE_CURVE ( 'NONE', #771, #372, #116, .T. ) ;
#94 = CARTESIAN_POINT ( 'NONE',  ( 23.99999999999999289, -45.00000000000000711, 15.00000000000000000 ) ) ;
#95 = ORIENTED_EDGE ( 'NONE', *, *, #190, .T. ) ;
#96 = VECTOR ( 'NONE', #84, 1000.000000000000000 ) ;
#97 = DIRECTION ( 'NONE',  ( 1.000000000000000000, 0.000000000000000000, 0.000000000000000000 ) ) ;
#98 = ORIENTED_EDGE ( 'NONE', *, *, #931, .T. ) ;
#99 = VECTOR ( 'NONE', #496, 1000.000000000000114 ) ;
#100 = DIRECTION ( 'NONE',  ( -1.000000000000000000, 0.000000000000000000, 0.000000000000000000 ) ) ;
#101 = EDGE_LOOP ( 'NONE', ( #33, #952, #232, #901 ) ) ;
#102 = APPLICATION_PROTOCOL_DEFINITION ( 'draft international standard', 'automotive_design', 1998, #754 ) ;
#103 = EDGE_CURVE ( 'NONE', #571, #328, #355, .T. ) ;
#104 = CARTESIAN_POINT ( 'NONE',  ( 74.99999999999994316, 19.99999999999998579, 5.000000000000000000 ) ) ;
#105 = ORIENTED_EDGE ( 'NONE', *, *, #820, .F. ) ;
#106 = VERTEX_POINT ( 'NONE', #131 ) ;
#107 = ADVANCED_FACE ( 'NONE', ( #432 ), #752, .F. ) ;
#108 = CIRCLE ( 'NONE', #814, 1.000000000000000000 ) ;
#109 = UNCERTAINTY_MEASURE_WITH_UNIT (LENGTH_MEASURE( 1.000000000000000082E-05 ), #209, 'distance_accuracy_value', 'NONE');
#110 = CARTESIAN_POINT ( 'NONE',  ( 24.00000000000000000, -82.06247619953958861, 5.000000000000000000 ) ) ;
#111 = AXIS2_PLACEMENT_3D ( 'NONE', #263, #269, #895 ) ;
#112 = DIRECTION ( 'NONE',  ( -1.000000000000000000, 0.000000000000000000, 0.000000000000000000 ) ) ;
#113 = VERTEX_POINT ( 'NONE', #374 ) ;
#114 = CARTESIAN_POINT ( 'NONE',  ( 0.000000000000000000, 0.000000000000000000, 15.00000000000000000 ) ) ;
#115 = CARTESIAN_POINT ( 'NONE',  ( 28.19999999999998508, 69.50000000000000000, 0.000000000000000000 ) ) ;
#116 = CIRCLE ( 'NONE', #989, 1.600000000000004086 ) ;
#117 = CARTESIAN_POINT ( 'NONE',  ( 76.59999999999999432, -19.99999999999998579, 3.499999999999978240 ) ) ;
#118 = EDGE_CURVE ( 'NONE', #629, #113, #647, .T. ) ;
#119 = AXIS2_PLACEMENT_3D ( 'NONE', #485, #885, #169 ) ;
#120 = PLANE ( 'NONE',  #968 ) ;
#121 = CARTESIAN_POINT ( 'NONE',  ( 28.19999999999998508, 69.50000000000000000, 5.000000000000000000 ) ) ;
#122 = LINE ( 'NONE', #501, #18 ) ;
#123 = CARTESIAN_POINT ( 'NONE',  ( 28.19999999999999929, -69.50000000000000000, 5.000000000000000000 ) ) ;
#124 = DIRECTION ( 'NONE',  ( -0.000000000000000000, 0.000000000000000000, 1.000000000000000000 ) ) ;
#125 = CARTESIAN_POINT ( 'NONE',  ( 59.86177843965471368, 45.18384482760806264, 13.05342183916665277 ) ) ;
#126 = DIRECTION ( 'NONE',  ( 1.000000000000000000, -0.000000000000000000, 0.000000000000000000 ) ) ;
#127 = CARTESIAN_POINT ( 'NONE',  ( 25.09999999999996589, -69.50000000000000000, 5.000000000000000000 ) ) ;
#128 = ORIENTED_EDGE ( 'NONE', *, *, #757, .F. ) ;
#129 = CARTESIAN_POINT ( 'NONE',  ( 56.25148190433451845, -49.61130913341323634, 6.554172877521253326 ) ) ;
#130 = CARTESIAN_POINT ( 'NONE',  ( 63.53401267773696759, 39.85515897001883445, 5.463659133712481797 ) ) ;
#131 = CARTESIAN_POINT ( 'NONE',  ( 60.00000000000001421, 45.00000000000000711, 15.00000000000000000 ) ) ;
#132 = DIRECTION ( 'NONE',  ( 0.000000000000000000, 0.000000000000000000, 1.000000000000000000 ) ) ;
#133 = ORIENTED_EDGE ( 'NONE', *, *, #146, .T. ) ;
#134 = CARTESIAN_POINT ( 'NONE',  ( 29.80000000000000426, -69.50000000000000000, 3.499999999999980016 ) ) ;
#135 = DIRECTION ( 'NONE',  ( 0.000000000000000000, 0.000000000000000000, 1.000000000000000000 ) ) ;
#136 = CLOSED_SHELL ( 'NONE', ( #673, #528, #139, #388, #315, #292, #369, #167, #800, #90, #553, #853, #265, #1011, #46, #252, #406, #107, #985, #722, #721, #154, #872, #776, #412, #62, #764, #812, #65, #717 ) ) ;
#137 = AXIS2_PLACEMENT_3D ( 'NONE', #603, #518, #141 ) ;
#138 = ORIENTED_EDGE ( 'NONE', *, *, #599, .T. ) ;
#139 = ADVANCED_FACE ( 'NONE', ( #449 ), #790, .F. ) ;
#140 = DIRECTION ( 'NONE',  ( 0.000000000000000000, 0.000000000000000000, -1.000000000000000000 ) ) ;
#141 = DIRECTION ( 'NONE',  ( -1.000000000000000000, 0.000000000000000000, 0.000000000000000000 ) ) ;
#142 = DIRECTION ( 'NONE',  ( -0.000000000000000000, -0.000000000000000000, -1.000000000000000000 ) ) ;
#143 = ORIENTED_EDGE ( 'NONE', *, *, #969, .T. ) ;
#144 = CARTESIAN_POINT ( 'NONE',  ( 63.46271207802715963, -39.96859748489472963, 5.714922069843867192 ) ) ;
#145 = PRODUCT_DEFINITION ( 'UNKNOWN', '', #727, #742 ) ;
#146 = EDGE_CURVE ( 'NONE', #334, #293, #1004, .T. ) ;
#147 = DIRECTION ( 'NONE',  ( 0.000000000000000000, 0.000000000000000000, 1.000000000000000000 ) ) ;
#148 = CIRCLE ( 'NONE', #710, 1.600000000000004086 ) ;
#149 = AXIS2_PLACEMENT_3D ( 'NONE', #410, #188, #47 ) ;
#150 = EDGE_LOOP ( 'NONE', ( #218, #60, #105, #177 ) ) ;
#151 = CARTESIAN_POINT ( 'NONE',  ( 24.00000000000000000, -40.00000000000000711, 15.00000000000000000 ) ) ;
#152 = B_SPLINE_CURVE_WITH_KNOTS ( 'NONE', 3,
 ( #834, #570, #893, #130, #859, #703, #606, #233, #526, #930 ),
 .UNSPECIFIED., .F., .F.,
 ( 4, 2, 2, 2, 4 ),
 ( 0.000000000000000000, 0.0004257321173146997391, 0.0008514642346293994782, 0.001277196351944099272, 0.001702928469258798956 ),
 .UNSPECIFIED. ) ;
#153 = DIRECTION ( 'NONE',  ( 1.000000000000000000, 0.000000000000000000, 0.000000000000000000 ) ) ;
#154 = ADVANCED_FACE ( 'NONE', ( #155 ), #765, .T. ) ;
#155 = FACE_OUTER_BOUND ( 'NONE', #260, .T. ) ;
#156 = CIRCLE ( 'NONE', #417, 1.600000000000004086 ) ;
#157 = ORIENTED_EDGE ( 'NONE', *, *, #382, .F. ) ;
#158 = LINE ( 'NONE', #309, #96 ) ;
#159 = CIRCLE ( 'NONE', #217, 3.100000000000029843 ) ;
#160 = CARTESIAN_POINT ( 'NONE',  ( 75.00000000000000000, -19.99999999999998579, 0.000000000000000000 ) ) ;
#161 = ORIENTED_EDGE ( 'NONE', *, *, #146, .F. ) ;
#162 = DIRECTION ( 'NONE',  ( 0.000000000000000000, 0.000000000000000000, -1.000000000000000000 ) ) ;
#163 = DIRECTION ( 'NONE',  ( -1.000000000000000000, 0.000000000000000000, 0.000000000000000000 ) ) ;
#164 = EDGE_LOOP ( 'NONE', ( #552, #497 ) ) ;
#165 = CARTESIAN_POINT ( 'NONE',  ( 28.19999999999998508, 69.50000000000000000, 3.499999999999952482 ) ) ;
#166 = CONICAL_SURFACE ( 'NONE', #430, 1.600000000000004086, 0.7853981633974510546 ) ;
#167 = ADVANCED_FACE ( 'NONE', ( #71 ), #775, .F. ) ;
#168 = CARTESIAN_POINT ( 'NONE',  ( 64.06246951218787444, -39.00000000000000711, 5.000000000000000000 ) ) ;
#169 = DIRECTION ( 'NONE',  ( 1.000000000000000000, 0.000000000000000000, 0.000000000000000000 ) ) ;
#170 = ORIENTED_EDGE ( 'NONE', *, *, #182, .F. ) ;
#171 = LINE ( 'NONE', #862, #491 ) ;
#172 = CARTESIAN_POINT ( 'NONE',  ( 55.27903253262358163, 50.68891404404565293, 5.972101625596602403 ) ) ;
#173 = AXIS2_PLACEMENT_3D ( 'NONE', #235, #462, #541 ) ;
#174 = LINE ( 'NONE', #94, #468 ) ;
#175 = ORIENTED_EDGE ( 'NONE', *, *, #326, .F. ) ;
#176 = LINE ( 'NONE', #807, #955 ) ;
#177 = ORIENTED_EDGE ( 'NONE', *, *, #789, .F. ) ;
#178 = ORIENTED_EDGE ( 'NONE', *, *, #36, .T. ) ;
#179 = CIRCLE ( 'NONE', #210, 1.600000000000004086 ) ;
#180 = VECTOR ( 'NONE', #568, 1000.000000000000114 ) ;
#181 = DIRECTION ( 'NONE',  ( 0.000000000000000000, 0.000000000000000000, 1.000000000000000000 ) ) ;
#182 = EDGE_CURVE ( 'NONE', #334, #11, #848, .T. ) ;
#183 = ORIENTED_EDGE ( 'NONE', *, *, #557, .T. ) ;
#184 = FACE_OUTER_BOUND ( 'NONE', #559, .T. ) ;
#185 = VECTOR ( 'NONE', #988, 1000.000000000000000 ) ;
#186 = DIRECTION ( 'NONE',  ( 0.000000000000000000, 0.000000000000000000, 1.000000000000000000 ) ) ;
#187 = ORIENTED_EDGE ( 'NONE', *, *, #564, .T. ) ;
#188 = DIRECTION ( 'NONE',  ( 0.000000000000000000, 0.000000000000000000, 1.000000000000000000 ) ) ;
#189 = ORIENTED_EDGE ( 'NONE', *, *, #782, .T. ) ;
#190 = EDGE_CURVE ( 'NONE', #282, #908, #156, .T. ) ;
#191 = FACE_OUTER_BOUND ( 'NONE', #24, .T. ) ;
#192 = VECTOR ( 'NONE', #696, 1000.000000000000114 ) ;
#193 = DIRECTION ( 'NONE',  ( -0.000000000000000000, -0.000000000000000000, -1.000000000000000000 ) ) ;
#194 = ORIENTED_EDGE ( 'NONE', *, *, #866, .F. ) ;
#195 = ORIENTED_EDGE ( 'NONE', *, *, #979, .F. ) ;
#196 = PLANE ( 'NONE',  #784 ) ;
#197 = FILL_AREA_STYLE ('',( #43 ) ) ;
#198 = AXIS2_PLACEMENT_3D ( 'NONE', #31, #186, #556 ) ;
#199 = CARTESIAN_POINT ( 'NONE',  ( 57.93847817557404056, 47.62591384670690076, 8.237047530432286990 ) ) ;
#200 = ORIENTED_EDGE ( 'NONE', *, *, #977, .F. ) ;
#201 = CARTESIAN_POINT ( 'NONE',  ( 24.00000000000000000, -82.06247619953958861, 5.000000000000000000 ) ) ;
#202 = ORIENTED_EDGE ( 'NONE', *, *, #911, .F. ) ;
#203 = CARTESIAN_POINT ( 'NONE',  ( 59.33927379964835325, -45.86821166305363562, 10.90791224255593761 ) ) ;
#204 = DIRECTION ( 'NONE',  ( -1.000000000000000000, 0.000000000000000000, 0.000000000000000000 ) ) ;
#205 = FACE_BOUND ( 'NONE', #164, .T. ) ;
#206 = ORIENTED_EDGE ( 'NONE', *, *, #10, .T. ) ;
#207 = ORIENTED_EDGE ( 'NONE', *, *, #685, .F. ) ;
#208 = CARTESIAN_POINT ( 'NONE',  ( 59.08694903148346356, -46.19279933482275169, 10.24942562538857871 ) ) ;
#209 =( LENGTH_UNIT ( ) NAMED_UNIT ( * ) SI_UNIT ( .MILLI., .METRE. ) );
#210 = AXIS2_PLACEMENT_3D ( 'NONE', #115, #423, #741 ) ;
#211 = VECTOR ( 'NONE', #266, 1000.000000000000000 ) ;
#212 = EDGE_CURVE ( 'NONE', #293, #928, #444, .T. ) ;
#213 = ORIENTED_EDGE ( 'NONE', *, *, #297, .T. ) ;
#214 = CARTESIAN_POINT ( 'NONE',  ( 73.39999999999999147, -19.99999999999998579, 0.000000000000000000 ) ) ;
#215 = DIRECTION ( 'NONE',  ( 0.000000000000000000, 0.000000000000000000, 1.000000000000000000 ) ) ;
#216 = VECTOR ( 'NONE', #316, 1000.000000000000000 ) ;
#217 = AXIS2_PLACEMENT_3D ( 'NONE', #906, #413, #974 ) ;
#218 = ORIENTED_EDGE ( 'NONE', *, *, #915, .F. ) ;
#219 = DIRECTION ( 'NONE',  ( 1.000000000000000000, 0.000000000000000000, -0.000000000000000000 ) ) ;
#220 = PRODUCT_DEFINITION_SHAPE ( 'NONE', 'NONE',  #145 ) ;
#221 = CYLINDRICAL_SURFACE ( 'NONE', #602, 1.600000000000004086 ) ;
#222 = DIRECTION ( 'NONE',  ( -1.000000000000000000, 0.000000000000000000, 0.000000000000000000 ) ) ;
#223 = EDGE_LOOP ( 'NONE', ( #464, #653, #600, #288 ) ) ;
#224 = DIRECTION ( 'NONE',  ( -0.000000000000000000, -0.000000000000000000, -1.000000000000000000 ) ) ;
#225 = CARTESIAN_POINT ( 'NONE',  ( 74.99999999999994316, 19.99999999999998579, 3.499999999999978240 ) ) ;
#226 = EDGE_CURVE ( 'NONE', #28, #944, #21, .T. ) ;
#227 = CARTESIAN_POINT ( 'NONE',  ( 26.59999999999998010, 69.50000000000000000, 5.000000000000000000 ) ) ;
#228 = ORIENTED_EDGE ( 'NONE', *, *, #536, .F. ) ;
#229 = CARTESIAN_POINT ( 'NONE',  ( 63.44288770224761009, -40.00000000000000711, 15.00000000000000000 ) ) ;
#230 = CARTESIAN_POINT ( 'NONE',  ( 28.19999999999999929, -69.50000000000000000, 3.499999999999980016 ) ) ;
#231 = DIRECTION ( 'NONE',  ( 1.000000000000000000, 0.000000000000000000, 0.000000000000000000 ) ) ;
#232 = ORIENTED_EDGE ( 'NONE', *, *, #712, .T. ) ;
#233 = CARTESIAN_POINT ( 'NONE',  ( 63.91461538532383457, 39.24207636145418832, 5.021800099342075718 ) ) ;
#234 = CARTESIAN_POINT ( 'NONE',  ( 24.00000000000000000, -39.00000000000000711, 6.000000000000000000 ) ) ;
#235 = CARTESIAN_POINT ( 'NONE',  ( 75.00000000000000000, -19.99999999999998579, 5.000000000000000000 ) ) ;
#236 = EDGE_CURVE ( 'NONE', #805, #41, #715, .T. ) ;
#237 = ORIENTED_EDGE ( 'NONE', *, *, #182, .T. ) ;
#238 = LINE ( 'NONE', #470, #678 ) ;
#239 = FACE_BOUND ( 'NONE', #506, .T. ) ;
#240 = DIRECTION ( 'NONE',  ( 0.000000000000000000, 0.000000000000000000, 1.000000000000000000 ) ) ;
#241 = EDGE_CURVE ( 'NONE', #740, #816, #360, .T. ) ;
#242 = VERTEX_POINT ( 'NONE', #457 ) ;
#243 = VECTOR ( 'NONE', #359, 1000.000000000000000 ) ;
#244 = CARTESIAN_POINT ( 'NONE',  ( 24.00000000000000000, -55.00000000000000711, 5.000000000000000000 ) ) ;
#245 = ORIENTED_EDGE ( 'NONE', *, *, #212, .T. ) ;
#246 = AXIS2_PLACEMENT_3D ( 'NONE', #1013, #231, #537 ) ;
#247 = CONICAL_SURFACE ( 'NONE', #119, 1.600000000000004086, 0.7853981633974510546 ) ;
#248 = CARTESIAN_POINT ( 'NONE',  ( 29.79999999999999005, 69.50000000000000000, 3.499999999999952482 ) ) ;
#249 = VECTOR ( 'NONE', #513, 1000.000000000000000 ) ;
#250 = VERTEX_POINT ( 'NONE', #779 ) ;
#251 = VERTEX_POINT ( 'NONE', #370 ) ;
#252 = ADVANCED_FACE ( 'NONE', ( #82 ), #221, .F. ) ;
#253 = DIRECTION ( 'NONE',  ( -0.000000000000000000, -0.000000000000000000, -1.000000000000000000 ) ) ;
#254 = EDGE_LOOP ( 'NONE', ( #161, #187, #643, #469 ) ) ;
#255 = DIRECTION ( 'NONE',  ( 0.000000000000000000, 0.000000000000000000, 1.000000000000000000 ) ) ;
#256 = AXIS2_PLACEMENT_3D ( 'NONE', #435, #49, #919 ) ;
#257 = DIRECTION ( 'NONE',  ( 0.000000000000000000, 0.000000000000000000, 1.000000000000000000 ) ) ;
#258 = DIRECTION ( 'NONE',  ( -0.000000000000000000, 0.000000000000000000, 1.000000000000000000 ) ) ;
#259 = ORIENTED_EDGE ( 'NONE', *, *, #226, .F. ) ;
#260 = EDGE_LOOP ( 'NONE', ( #39, #671, #686, #762 ) ) ;
#261 = AXIS2_PLACEMENT_3D ( 'NONE', #67, #371, #739 ) ;
#262 = CIRCLE ( 'NONE', #825, 3.100000000000033396 ) ;
#263 = CARTESIAN_POINT ( 'NONE',  ( 0.000000000000000000, 0.000000000000000000, 15.00000000000000000 ) ) ;
#264 = ORIENTED_EDGE ( 'NONE', *, *, #3, .F. ) ;
#265 = ADVANCED_FACE ( 'NONE', ( #310 ), #619, .F. ) ;
#266 = DIRECTION ( 'NONE',  ( -0.000000000000000000, -1.000000000000000000, -0.000000000000000000 ) ) ;
#267 = LINE ( 'NONE', #284, #249 ) ;
#268 = LINE ( 'NONE', #899, #99 ) ;
#269 = DIRECTION ( 'NONE',  ( 0.000000000000000000, 0.000000000000000000, 1.000000000000000000 ) ) ;
#270 = ORIENTED_EDGE ( 'NONE', *, *, #953, .F. ) ;
#271 = EDGE_LOOP ( 'NONE', ( #313, #605, #934, #844, #175, #48, #189, #200, #5, #281, #701, #489, #719, #964 ) ) ;
#272 = DIRECTION ( 'NONE',  ( 0.000000000000000000, 0.000000000000000000, 1.000000000000000000 ) ) ;
#273 = VECTOR ( 'NONE', #1001, 1000.000000000000114 ) ;
#274 = CARTESIAN_POINT ( 'NONE',  ( 73.39999999999993463, 19.99999999999998579, 3.499999999999977796 ) ) ;
#275 = CARTESIAN_POINT ( 'NONE',  ( 73.39999999999993463, 19.99999999999998579, 3.499999999999978240 ) ) ;
#276 = FACE_OUTER_BOUND ( 'NONE', #16, .T. ) ;
#277 = VERTEX_POINT ( 'NONE', #524 ) ;
#278 = CARTESIAN_POINT ( 'NONE',  ( 73.39999999999999147, -19.99999999999998579, 3.499999999999977796 ) ) ;
#279 = CIRCLE ( 'NONE', #863, 3.100000000000064482 ) ;
#280 = LINE ( 'NONE', #813, #440 ) ;
#281 = ORIENTED_EDGE ( 'NONE', *, *, #578, .F. ) ;
#282 = VERTEX_POINT ( 'NONE', #389 ) ;
#283 = CARTESIAN_POINT ( 'NONE',  ( 60.00000000000001421, -45.00000000000000711, 15.00000000000000000 ) ) ;
#284 = CARTESIAN_POINT ( 'NONE',  ( 29.80000000000000426, -69.50000000000000000, 5.000000000000000000 ) ) ;
#285 = EDGE_CURVE ( 'NONE', #625, #640, #680, .T. ) ;
#286 = CYLINDRICAL_SURFACE ( 'NONE', #341, 1.000000000000000000 ) ;
#287 = EDGE_LOOP ( 'NONE', ( #474, #83 ) ) ;
#288 = ORIENTED_EDGE ( 'NONE', *, *, #548, .F. ) ;
#289 = DIRECTION ( 'NONE',  ( 0.000000000000000000, 1.000000000000000000, -0.000000000000000000 ) ) ;
#290 = AXIS2_PLACEMENT_3D ( 'NONE', #165, #465, #949 ) ;
#291 = B_SPLINE_CURVE_WITH_KNOTS ( 'NONE', 3,
 ( #283, #763, #914, #367, #909, #591, #203, #208, #42, #601, #839, #846, #597, #507, #833, #758, #129, #364, #904, #56, #347, #992, #996, #827 ),
 .UNSPECIFIED., .F., .F.,
 ( 4, 2, 2, 2, 2, 2, 2, 2, 2, 2, 2, 4 ),
 ( 0.000000000000000000, 0.002321983152907958550, 0.003482974729361937825, 0.004643966305815917101, 0.005804957882269896376, 0.006965949458723875651, 0.008126941035177854059, 0.009287932611631832466, 0.01160991576453979969, 0.01277090734099377810, 0.01393189891744775477, 0.01857586522326365105 ),
 .UNSPECIFIED. ) ;
#292 = ADVANCED_FACE ( 'NONE', ( #1002 ), #921, .F. ) ;
#293 = VERTEX_POINT ( 'NONE', #927 ) ;
#294 = CYLINDRICAL_SURFACE ( 'NONE', #256, 75.00000000000001421 ) ;
#295 = CARTESIAN_POINT ( 'NONE',  ( 28.19999999999998508, 69.50000000000000000, 3.499999999999952482 ) ) ;
#296 = AXIS2_PLACEMENT_3D ( 'NONE', #638, #563, #100 ) ;
#297 = EDGE_CURVE ( 'NONE', #277, #331, #774, .T. ) ;
#298 = ORIENTED_EDGE ( 'NONE', *, *, #637, .F. ) ;
#299 = VECTOR ( 'NONE', #883, 1000.000000000000114 ) ;
#300 = CARTESIAN_POINT ( 'NONE',  ( 75.00000000000000000, -19.99999999999998579, 3.499999999999977796 ) ) ;
#301 = DIRECTION ( 'NONE',  ( 1.000000000000000000, 0.000000000000000000, 0.000000000000000000 ) ) ;
#302 = ORIENTED_EDGE ( 'NONE', *, *, #769, .F. ) ;
#303 = EDGE_CURVE ( 'NONE', #331, #277, #567, .T. ) ;
#304 = CARTESIAN_POINT ( 'NONE',  ( 28.19999999999999929, -69.50000000000000000, 3.499999999999980016 ) ) ;
#305 = CARTESIAN_POINT ( 'NONE',  ( 74.99999999999994316, 19.99999999999998579, 3.499999999999978240 ) ) ;
#306 = CIRCLE ( 'NONE', #51, 1.600000000000004086 ) ;
#307 = CIRCLE ( 'NONE', #111, 75.00000000000001421 ) ;
#308 = ORIENTED_EDGE ( 'NONE', *, *, #8, .F. ) ;
#309 = CARTESIAN_POINT ( 'NONE',  ( 24.00000000000000000, -40.00000000000000711, 15.00000000000000000 ) ) ;
#310 = FACE_OUTER_BOUND ( 'NONE', #321, .T. ) ;
#311 = CIRCLE ( 'NONE', #713, 85.50000000000000000 ) ;
#312 = AXIS2_PLACEMENT_3D ( 'NONE', #786, #694, #871 ) ;
#313 = ORIENTED_EDGE ( 'NONE', *, *, #285, .T. ) ;
#314 = CARTESIAN_POINT ( 'NONE',  ( 63.58624869985479933, -39.77186856613715094, 5.351232755178237710 ) ) ;
#315 = ADVANCED_FACE ( 'NONE', ( #791 ), #714, .F. ) ;
#316 = DIRECTION ( 'NONE',  ( -0.000000000000000000, -1.000000000000000000, -0.000000000000000000 ) ) ;
#317 = EDGE_LOOP ( 'NONE', ( #1, #346, #646, #850, #887, #665, #454, #446, #194, #595 ) ) ;
#318 = FACE_OUTER_BOUND ( 'NONE', #254, .T. ) ;
#319 = CARTESIAN_POINT ( 'NONE',  ( 50.99019513592785557, 55.00000000000000711, 5.000000000000000000 ) ) ;
#320 = CYLINDRICAL_SURFACE ( 'NONE', #75, 1.600000000000004086 ) ;
#321 = EDGE_LOOP ( 'NONE', ( #499, #924, #482, #157 ) ) ;
#322 = CIRCLE ( 'NONE', #558, 3.100000000000029843 ) ;
#323 = CARTESIAN_POINT ( 'NONE',  ( 56.70225853588004838, 49.09463923474300628, 6.903739959263213599 ) ) ;
#324 = CARTESIAN_POINT ( 'NONE',  ( 74.99999999999994316, 19.99999999999998579, 3.499999999999977796 ) ) ;
#325 = ORIENTED_EDGE ( 'NONE', *, *, #472, .T. ) ;
#326 = EDGE_CURVE ( 'NONE', #589, #339, #174, .T. ) ;
#327 = CARTESIAN_POINT ( 'NONE',  ( 0.000000000000000000, -39.00000000000000711, 5.000000000000000000 ) ) ;
#328 = VERTEX_POINT ( 'NONE', #481 ) ;
#329 = CARTESIAN_POINT ( 'NONE',  ( 26.59999999999999432, -69.50000000000000000, 3.499999999999980016 ) ) ;
#330 = CARTESIAN_POINT ( 'NONE',  ( 0.000000000000000000, 0.000000000000000000, 15.00000000000000000 ) ) ;
#331 = VERTEX_POINT ( 'NONE', #876 ) ;
#332 = CARTESIAN_POINT ( 'NONE',  ( 0.000000000000000000, 39.00000000000000711, 5.000000000000000000 ) ) ;
#333 = AXIS2_PLACEMENT_3D ( 'NONE', #442, #672, #586 ) ;
#334 = VERTEX_POINT ( 'NONE', #880 ) ;
#335 =( GEOMETRIC_REPRESENTATION_CONTEXT ( 3 ) GLOBAL_UNCERTAINTY_ASSIGNED_CONTEXT ( ( #534 ) ) GLOBAL_UNIT_ASSIGNED_CONTEXT ( ( #636, #826, #810 ) ) REPRESENTATION_CONTEXT ( 'NONE', 'WORKASPACE' ) );
#336 = CYLINDRICAL_SURFACE ( 'NONE', #886, 85.50000000000000000 ) ;
#337 = EDGE_CURVE ( 'NONE', #681, #480, #962, .T. ) ;
#338 = CARTESIAN_POINT ( 'NONE',  ( 55.52746830010951840, 50.41656042619698042, 6.106993172055722674 ) ) ;
#339 = VERTEX_POINT ( 'NONE', #634 ) ;
#340 = AXIS2_PLACEMENT_3D ( 'NONE', #45, #990, #509 ) ;
#341 = AXIS2_PLACEMENT_3D ( 'NONE', #37, #425, #343 ) ;
#342 = SURFACE_STYLE_USAGE ( .BOTH. , #495 ) ;
#343 = DIRECTION ( 'NONE',  ( 0.000000000000000000, 0.000000000000000000, 1.000000000000000000 ) ) ;
#344 = CARTESIAN_POINT ( 'NONE',  ( 59.98263031419568136, 45.02318683006967603, 14.21512955865408045 ) ) ;
#345 = VERTEX_POINT ( 'NONE', #888 ) ;
#346 = ORIENTED_EDGE ( 'NONE', *, *, #337, .T. ) ;
#347 = CARTESIAN_POINT ( 'NONE',  ( 54.52761339717851286, -51.49642090020198282, 5.629411124069424233 ) ) ;
#348 = CARTESIAN_POINT ( 'NONE',  ( 24.00000000000000000, 82.06247619953958861, 5.000000000000000000 ) ) ;
#349 = DIRECTION ( 'NONE',  ( 1.000000000000000000, 0.000000000000000000, -0.000000000000000000 ) ) ;
#350 = CARTESIAN_POINT ( 'NONE',  ( 60.00000000000000711, 45.00000000000000000, 14.60614315680120257 ) ) ;
#351 = EDGE_CURVE ( 'NONE', #978, #409, #176, .T. ) ;
#352 = LINE ( 'NONE', #278, #936 ) ;
#353 = CIRCLE ( 'NONE', #478, 1.600000000000004086 ) ;
#354 = AXIS2_PLACEMENT_3D ( 'NONE', #572, #255, #734 ) ;
#355 = LINE ( 'NONE', #663, #185 ) ;
#356 = DIRECTION ( 'NONE',  ( 0.000000000000000000, 0.000000000000000000, 1.000000000000000000 ) ) ;
#357 = ORIENTED_EDGE ( 'NONE', *, *, #398, .T. ) ;
#358 = EDGE_CURVE ( 'NONE', #293, #334, #699, .T. ) ;
#359 = DIRECTION ( 'NONE',  ( -0.000000000000000000, -0.000000000000000000, -1.000000000000000000 ) ) ;
#360 = CIRCLE ( 'NONE', #889, 1.600000000000004086 ) ;
#361 = DIRECTION ( 'NONE',  ( 0.000000000000000000, -1.000000000000000000, 0.000000000000000000 ) ) ;
#362 = FACE_OUTER_BOUND ( 'NONE', #520, .T. ) ;
#363 = ORIENTED_EDGE ( 'NONE', *, *, #564, .F. ) ;
#364 = CARTESIAN_POINT ( 'NONE',  ( 55.53444714662240500, -50.40885817701283855, 6.111022948571281255 ) ) ;
#365 = DIRECTION ( 'NONE',  ( 1.000000000000000000, 0.000000000000000000, 0.000000000000000000 ) ) ;
#366 = ORIENTED_EDGE ( 'NONE', *, *, #79, .T. ) ;
#367 = CARTESIAN_POINT ( 'NONE',  ( 59.73143532533471500, -45.35601248816927011, 12.32779503831634038 ) ) ;
#368 = VECTOR ( 'NONE', #697, 1000.000000000000114 ) ;
#369 = ADVANCED_FACE ( 'NONE', ( #959 ), #320, .F. ) ;
#370 = CARTESIAN_POINT ( 'NONE',  ( 63.44288770224761009, 40.00000000000000711, 6.000000000000000000 ) ) ;
#371 = DIRECTION ( 'NONE',  ( -0.000000000000000000, -0.000000000000000000, -1.000000000000000000 ) ) ;
#372 = VERTEX_POINT ( 'NONE', #723 ) ;
#373 = DIRECTION ( 'NONE',  ( 0.000000000000000000, 0.000000000000000000, 1.000000000000000000 ) ) ;
#374 = CARTESIAN_POINT ( 'NONE',  ( 24.00000000000000000, 55.00000000000000711, 5.000000000000000000 ) ) ;
#375 = AXIS2_PLACEMENT_3D ( 'NONE', #467, #181, #26 ) ;
#376 = EDGE_CURVE ( 'NONE', #922, #748, #262, .T. ) ;
#377 = VERTEX_POINT ( 'NONE', #473 ) ;
#378 = CARTESIAN_POINT ( 'NONE',  ( 24.00000000000000000, -82.06247619953958861, 0.000000000000000000 ) ) ;
#379 = LINE ( 'NONE', #941, #368 ) ;
#380 = CARTESIAN_POINT ( 'NONE',  ( 29.79999999999999005, 69.50000000000000000, 5.000000000000000000 ) ) ;
#381 = VERTEX_POINT ( 'NONE', #394 ) ;
#382 = EDGE_CURVE ( 'NONE', #816, #740, #956, .T. ) ;
#383 = DIRECTION ( 'NONE',  ( -0.000000000000000000, -0.000000000000000000, -1.000000000000000000 ) ) ;
#384 = CARTESIAN_POINT ( 'NONE',  ( 28.19999999999998508, 69.50000000000000000, 5.000000000000000000 ) ) ;
#385 = ORIENTED_EDGE ( 'NONE', *, *, #303, .F. ) ;
#386 = CARTESIAN_POINT ( 'NONE',  ( 23.99999999999999289, 45.00000000000000711, 15.00000000000000000 ) ) ;
#387 = CARTESIAN_POINT ( 'NONE',  ( 63.44288770224761009, -40.00000000000000711, 6.000000000000000000 ) ) ;
#388 = ADVANCED_FACE ( 'NONE', ( #718 ), #247, .F. ) ;
#389 = CARTESIAN_POINT ( 'NONE',  ( 26.59999999999999432, -69.50000000000000000, 0.000000000000000000 ) ) ;
#390 = AXIS2_PLACEMENT_3D ( 'NONE', #760, #815, #731 ) ;
#391 = EDGE_LOOP ( 'NONE', ( #620, #1005, #195, #542, #183 ) ) ;
#392 = CARTESIAN_POINT ( 'NONE',  ( 24.00000000000000000, 39.00000000000000711, 5.000000000000000000 ) ) ;
#393 = EDGE_CURVE ( 'NONE', #908, #282, #500, .T. ) ;
#394 = CARTESIAN_POINT ( 'NONE',  ( 24.00000000000000000, -40.00000000000000711, 6.000000000000000000 ) ) ;
#395 = ORIENTED_EDGE ( 'NONE', *, *, #820, .T. ) ;
#396 = CARTESIAN_POINT ( 'NONE',  ( 53.22521166491402056, 52.86139777767081682, 5.164300034488744195 ) ) ;
#397 = DIRECTION ( 'NONE',  ( -0.000000000000000000, -0.000000000000000000, -1.000000000000000000 ) ) ;
#398 = EDGE_CURVE ( 'NONE', #720, #242, #632, .T. ) ;
#399 = EDGE_LOOP ( 'NONE', ( #510, #896 ) ) ;
#400 = AXIS2_PLACEMENT_3D ( 'NONE', #2, #76, #688 ) ;
#401 = CARTESIAN_POINT ( 'NONE',  ( 74.99999999999994316, 19.99999999999998579, 5.000000000000000000 ) ) ;
#402 = EDGE_LOOP ( 'NONE', ( #881, #538, #594, #913 ) ) ;
#403 = DIRECTION ( 'NONE',  ( 1.000000000000000000, -0.000000000000000000, -0.000000000000000000 ) ) ;
#404 = EDGE_LOOP ( 'NONE', ( #439, #143, #635, #811 ) ) ;
#405 = PLANE ( 'NONE',  #938 ) ;
#406 = ADVANCED_FACE ( 'NONE', ( #14 ), #705, .T. ) ;
#407 = CARTESIAN_POINT ( 'NONE',  ( 28.19999999999998508, 69.50000000000000000, 3.499999999999952482 ) ) ;
#408 = CARTESIAN_POINT ( 'NONE',  ( 56.24878310477019738, 49.61442938646642631, 6.551947902568744375 ) ) ;
#409 = VERTEX_POINT ( 'NONE', #244 ) ;
#410 = CARTESIAN_POINT ( 'NONE',  ( 0.000000000000000000, 0.000000000000000000, 0.000000000000000000 ) ) ;
#411 = CIRCLE ( 'NONE', #692, 10.00000000000000000 ) ;
#412 = ADVANCED_FACE ( 'NONE', ( #796 ), #22, .F. ) ;
#413 = DIRECTION ( 'NONE',  ( -0.000000000000000000, -0.000000000000000000, -1.000000000000000000 ) ) ;
#414 = CARTESIAN_POINT ( 'NONE',  ( 58.94201858801207550, 46.37778175581530604, 9.922089846750248299 ) ) ;
#415 = ORIENTED_EDGE ( 'NONE', *, *, #326, .T. ) ;
#416 = DIRECTION ( 'NONE',  ( 0.000000000000000000, 0.000000000000000000, 1.000000000000000000 ) ) ;
#417 = AXIS2_PLACEMENT_3D ( 'NONE', #85, #530, #865 ) ;
#418 = CARTESIAN_POINT ( 'NONE',  ( 78.10000000000003695, -19.99999999999998579, 5.000000000000000000 ) ) ;
#419 = SURFACE_STYLE_FILL_AREA ( #197 ) ;
#420 = CARTESIAN_POINT ( 'NONE',  ( 0.000000000000000000, 0.000000000000000000, 0.000000000000000000 ) ) ;
#421 = SHAPE_DEFINITION_REPRESENTATION ( #220, #795 ) ;
#422 = ORIENTED_EDGE ( 'NONE', *, *, #652, .T. ) ;
#423 = DIRECTION ( 'NONE',  ( -0.000000000000000000, 0.000000000000000000, 1.000000000000000000 ) ) ;
#424 = DIRECTION ( 'NONE',  ( 1.000000000000000000, 0.000000000000000000, 0.000000000000000000 ) ) ;
#425 = DIRECTION ( 'NONE',  ( -1.000000000000000000, 0.000000000000000000, 0.000000000000000000 ) ) ;
#426 = ORIENTED_EDGE ( 'NONE', *, *, #931, .F. ) ;
#427 = EDGE_CURVE ( 'NONE', #293, #801, #957, .T. ) ;
#428 = ORIENTED_EDGE ( 'NONE', *, *, #599, .F. ) ;
#429 = CARTESIAN_POINT ( 'NONE',  ( 76.59999999999995168, 19.99999999999998579, 0.000000000000000000 ) ) ;
#430 = AXIS2_PLACEMENT_3D ( 'NONE', #304, #13, #937 ) ;
#431 = LINE ( 'NONE', #348, #522 ) ;
#432 = FACE_OUTER_BOUND ( 'NONE', #1000, .T. ) ;
#433 = DIRECTION ( 'NONE',  ( 1.000000000000000000, 0.000000000000000000, 0.000000000000000000 ) ) ;
#434 = VERTEX_POINT ( 'NONE', #117 ) ;
#435 = CARTESIAN_POINT ( 'NONE',  ( 0.000000000000000000, 0.000000000000000000, 15.00000000000000000 ) ) ;
#436 = CIRCLE ( 'NONE', #261, 3.100000000000064482 ) ;
#437 = LINE ( 'NONE', #759, #68 ) ;
#438 = FACE_BOUND ( 'NONE', #546, .T. ) ;
#439 = ORIENTED_EDGE ( 'NONE', *, *, #882, .F. ) ;
#440 = VECTOR ( 'NONE', #57, 1000.000000000000000 ) ;
#441 = ORIENTED_EDGE ( 'NONE', *, *, #730, .F. ) ;
#442 = CARTESIAN_POINT ( 'NONE',  ( 60.00000000000001421, 55.00000000000000711, 15.00000000000000000 ) ) ;
#443 = EDGE_CURVE ( 'NONE', #944, #331, #581, .T. ) ;
#444 = LINE ( 'NONE', #380, #618 ) ;
#445 = DIRECTION ( 'NONE',  ( 0.000000000000000000, 0.000000000000000000, 1.000000000000000000 ) ) ;
#446 = ORIENTED_EDGE ( 'NONE', *, *, #645, .T. ) ;
#447 = DIRECTION ( 'NONE',  ( 1.000000000000000000, 0.000000000000000000, 0.000000000000000000 ) ) ;
#448 = VECTOR ( 'NONE', #910, 1000.000000000000000 ) ;
#449 = FACE_OUTER_BOUND ( 'NONE', #150, .T. ) ;
#450 = ORIENTED_EDGE ( 'NONE', *, *, #29, .T. ) ;
#451 = LINE ( 'NONE', #772, #596 ) ;
#452 = CYLINDRICAL_SURFACE ( 'NONE', #576, 10.00000000000000000 ) ;
#453 = DIRECTION ( 'NONE',  ( 0.000000000000000000, 0.000000000000000000, 1.000000000000000000 ) ) ;
#454 = ORIENTED_EDGE ( 'NONE', *, *, #923, .T. ) ;
#455 = DIRECTION ( 'NONE',  ( -0.000000000000000000, -0.000000000000000000, -1.000000000000000000 ) ) ;
#456 = CARTESIAN_POINT ( 'NONE',  ( 63.70479237111076287, -39.58171272084552328, 5.176416165924348611 ) ) ;
#457 = CARTESIAN_POINT ( 'NONE',  ( 26.59999999999999432, -69.50000000000000000, 3.499999999999980016 ) ) ;
#458 = EDGE_CURVE ( 'NONE', #409, #459, #280, .T. ) ;
#459 = VERTEX_POINT ( 'NONE', #110 ) ;
#460 = DIRECTION ( 'NONE',  ( -1.000000000000000000, 0.000000000000000000, 0.000000000000000000 ) ) ;
#461 = DIRECTION ( 'NONE',  ( 1.000000000000000000, 0.000000000000000000, 0.000000000000000000 ) ) ;
#462 = DIRECTION ( 'NONE',  ( -0.000000000000000000, -0.000000000000000000, -1.000000000000000000 ) ) ;
#463 = AXIS2_PLACEMENT_3D ( 'NONE', #607, #153, #162 ) ;
#464 = ORIENTED_EDGE ( 'NONE', *, *, #836, .F. ) ;
#465 = DIRECTION ( 'NONE',  ( 0.000000000000000000, 0.000000000000000000, 1.000000000000000000 ) ) ;
#466 = DIRECTION ( 'NONE',  ( 0.000000000000000000, 0.000000000000000000, -1.000000000000000000 ) ) ;
#467 = CARTESIAN_POINT ( 'NONE',  ( 28.19999999999999929, -69.50000000000000000, 0.000000000000000000 ) ) ;
#468 = VECTOR ( 'NONE', #91, 1000.000000000000000 ) ;
#469 = ORIENTED_EDGE ( 'NONE', *, *, #427, .F. ) ;
#470 = CARTESIAN_POINT ( 'NONE',  ( 60.00000000000001421, -45.00000000000000711, 15.00000000000000000 ) ) ;
#471 = CARTESIAN_POINT ( 'NONE',  ( 54.51976593173041152, 51.50471610431252856, 5.626358561457842633 ) ) ;
#472 = EDGE_CURVE ( 'NONE', #720, #908, #267, .T. ) ;
#473 = CARTESIAN_POINT ( 'NONE',  ( 63.44288770224761009, 40.00000000000000711, 15.00000000000000000 ) ) ;
#474 = ORIENTED_EDGE ( 'NONE', *, *, #241, .T. ) ;
#475 = PRODUCT_RELATED_PRODUCT_CATEGORY ( 'part', '', ( #851 ) ) ;
#476 = DIRECTION ( 'NONE',  ( 1.000000000000000000, 0.000000000000000000, 0.000000000000000000 ) ) ;
#477 = ORIENTED_EDGE ( 'NONE', *, *, #612, .F. ) ;
#478 = AXIS2_PLACEMENT_3D ( 'NONE', #738, #258, #112 ) ;
#479 = AXIS2_PLACEMENT_3D ( 'NONE', #114, #831, #965 ) ;
#480 = VERTEX_POINT ( 'NONE', #821 ) ;
#481 = CARTESIAN_POINT ( 'NONE',  ( 63.44288770224761009, -40.00000000000000711, 6.000000000000000000 ) ) ;
#482 = ORIENTED_EDGE ( 'NONE', *, *, #536, .T. ) ;
#483 = EDGE_CURVE ( 'NONE', #345, #998, #159, .T. ) ;
#484 = AXIS2_PLACEMENT_3D ( 'NONE', #598, #132, #433 ) ;
#485 = CARTESIAN_POINT ( 'NONE',  ( 28.19999999999999929, -69.50000000000000000, 3.499999999999980016 ) ) ;
#486 = CARTESIAN_POINT ( 'NONE',  ( 29.80000000000000426, -69.50000000000000000, 0.000000000000000000 ) ) ;
#487 = EDGE_LOOP ( 'NONE', ( #441, #264, #994, #960 ) ) ;
#488 = EDGE_CURVE ( 'NONE', #377, #251, #729, .T. ) ;
#489 = ORIENTED_EDGE ( 'NONE', *, *, #118, .T. ) ;
#490 = CARTESIAN_POINT ( 'NONE',  ( 0.000000000000000000, 0.000000000000000000, 15.00000000000000000 ) ) ;
#491 = VECTOR ( 'NONE', #460, 1000.000000000000000 ) ;
#492 = FACE_OUTER_BOUND ( 'NONE', #577, .T. ) ;
#493 = EDGE_CURVE ( 'NONE', #792, #625, #431, .T. ) ;
#494 = AXIS2_PLACEMENT_3D ( 'NONE', #330, #627, #951 ) ;
#495 = SURFACE_SIDE_STYLE ('',( #419 ) ) ;
#496 = DIRECTION ( 'NONE',  ( 0.7071067811865493491, 0.000000000000000000, 0.7071067811865455743 ) ) ;
#497 = ORIENTED_EDGE ( 'NONE', *, *, #93, .T. ) ;
#498 = LINE ( 'NONE', #642, #211 ) ;
#499 = ORIENTED_EDGE ( 'NONE', *, *, #624, .F. ) ;
#500 = CIRCLE ( 'NONE', #375, 1.600000000000004086 ) ;
#501 = CARTESIAN_POINT ( 'NONE',  ( 63.44288770224761009, 40.00000000000000711, 15.00000000000000000 ) ) ;
#502 = EDGE_CURVE ( 'NONE', #629, #69, #828, .T. ) ;
#503 = LINE ( 'NONE', #808, #560 ) ;
#504 = ORIENTED_EDGE ( 'NONE', *, *, #236, .F. ) ;
#505 = LINE ( 'NONE', #201, #579 ) ;
#506 = EDGE_LOOP ( 'NONE', ( #395, #590 ) ) ;
#507 = CARTESIAN_POINT ( 'NONE',  ( 57.54857509844375585, -48.09631523984868551, 7.757566529648532772 ) ) ;
#508 = DIRECTION ( 'NONE',  ( -1.000000000000000000, 0.000000000000000000, 0.000000000000000000 ) ) ;
#509 = DIRECTION ( 'NONE',  ( -1.000000000000000000, 0.000000000000000000, 0.000000000000000000 ) ) ;
#510 = ORIENTED_EDGE ( 'NONE', *, *, #483, .T. ) ;
#511 = CONICAL_SURFACE ( 'NONE', #659, 1.600000000000004086, 0.7853981633974510546 ) ;
#512 = CARTESIAN_POINT ( 'NONE',  ( 25.09999999999991971, 69.50000000000000000, 5.000000000000000000 ) ) ;
#513 = DIRECTION ( 'NONE',  ( -0.000000000000000000, -0.000000000000000000, -1.000000000000000000 ) ) ;
#514 = ORIENTED_EDGE ( 'NONE', *, *, #103, .F. ) ;
#515 = MANIFOLD_SOLID_BREP ( 'Fillet2', #136 ) ;
#516 = CYLINDRICAL_SURFACE ( 'NONE', #333, 10.00000000000000178 ) ;
#517 = AXIS2_PLACEMENT_3D ( 'NONE', #943, #933, #860 ) ;
#518 = DIRECTION ( 'NONE',  ( -0.000000000000000000, -0.000000000000000000, -1.000000000000000000 ) ) ;
#519 = ORIENTED_EDGE ( 'NONE', *, *, #942, .F. ) ;
#520 = EDGE_LOOP ( 'NONE', ( #363, #940, #903, #838 ) ) ;
#521 = EDGE_CURVE ( 'NONE', #998, #345, #322, .T. ) ;
#522 = VECTOR ( 'NONE', #737, 1000.000000000000000 ) ;
#523 = DIRECTION ( 'NONE',  ( 0.000000000000000000, 0.000000000000000000, 1.000000000000000000 ) ) ;
#524 = CARTESIAN_POINT ( 'NONE',  ( 78.09999999999998010, 19.99999999999998579, 5.000000000000000000 ) ) ;
#525 = ORIENTED_EDGE ( 'NONE', *, *, #548, .T. ) ;
#526 = CARTESIAN_POINT ( 'NONE',  ( 63.98781151919516219, 39.12263526666504276, 5.000000000000000000 ) ) ;
#527 = FACE_OUTER_BOUND ( 'NONE', #317, .T. ) ;
#528 = ADVANCED_FACE ( 'NONE', ( #35 ), #511, .F. ) ;
#529 = AXIS2_PLACEMENT_3D ( 'NONE', #230, #617, #533 ) ;
#530 = DIRECTION ( 'NONE',  ( 0.000000000000000000, 0.000000000000000000, 1.000000000000000000 ) ) ;
#531 = EDGE_LOOP ( 'NONE', ( #873, #59, #868, #228 ) ) ;
#532 = LINE ( 'NONE', #1006, #747 ) ;
#533 = DIRECTION ( 'NONE',  ( 1.000000000000000000, 0.000000000000000000, 0.000000000000000000 ) ) ;
#534 = UNCERTAINTY_MEASURE_WITH_UNIT (LENGTH_MEASURE( 1.000000000000000082E-05 ), #636, 'distance_accuracy_value', 'NONE');
#535 = AXIS2_PLACEMENT_3D ( 'NONE', #608, #684, #1009 ) ;
#536 = EDGE_CURVE ( 'NONE', #250, #740, #668, .T. ) ;
#537 = DIRECTION ( 'NONE',  ( 0.000000000000000000, 0.000000000000000000, -1.000000000000000000 ) ) ;
#538 = ORIENTED_EDGE ( 'NONE', *, *, #443, .T. ) ;
#539 = DIRECTION ( 'NONE',  ( -0.000000000000000000, -0.000000000000000000, -1.000000000000000000 ) ) ;
#540 = CARTESIAN_POINT ( 'NONE',  ( 60.00000000000001421, -55.00000000000000711, 15.00000000000000000 ) ) ;
#541 = DIRECTION ( 'NONE',  ( -1.000000000000000000, 0.000000000000000000, 0.000000000000000000 ) ) ;
#542 = ORIENTED_EDGE ( 'NONE', *, *, #488, .T. ) ;
#543 = DIRECTION ( 'NONE',  ( 1.000000000000000000, -0.000000000000000000, -0.000000000000000000 ) ) ;
#544 = CARTESIAN_POINT ( 'NONE',  ( 0.000000000000000000, 0.000000000000000000, 5.000000000000000000 ) ) ;
#545 = DIRECTION ( 'NONE',  ( 1.000000000000000000, 0.000000000000000000, 0.000000000000000000 ) ) ;
#546 = EDGE_LOOP ( 'NONE', ( #995, #1010 ) ) ;
#547 = LINE ( 'NONE', #626, #961 ) ;
#548 = EDGE_CURVE ( 'NONE', #328, #381, #437, .T. ) ;
#549 = CARTESIAN_POINT ( 'NONE',  ( 50.99019513592785557, 55.00000000000000711, 5.000000000000000000 ) ) ;
#550 = DIRECTION ( 'NONE',  ( -0.000000000000000000, -0.000000000000000000, -1.000000000000000000 ) ) ;
#551 = AXIS2_PLACEMENT_3D ( 'NONE', #295, #453, #78 ) ;
#552 = ORIENTED_EDGE ( 'NONE', *, *, #942, .T. ) ;
#553 = ADVANCED_FACE ( 'NONE', ( #573 ), #336, .T. ) ;
#554 = DIRECTION ( 'NONE',  ( -1.000000000000000000, 0.000000000000000000, 0.000000000000000000 ) ) ;
#555 = ORIENTED_EDGE ( 'NONE', *, *, #845, .T. ) ;
#556 = DIRECTION ( 'NONE',  ( 1.000000000000000000, 0.000000000000000000, 0.000000000000000000 ) ) ;
#557 = EDGE_CURVE ( 'NONE', #251, #787, #152, .T. ) ;
#558 = AXIS2_PLACEMENT_3D ( 'NONE', #123, #662, #981 ) ;
#559 = EDGE_LOOP ( 'NONE', ( #98, #732, #415, #422 ) ) ;
#560 = VECTOR ( 'NONE', #971, 1000.000000000000000 ) ;
#561 = DIRECTION ( 'NONE',  ( -0.000000000000000000, -0.000000000000000000, -1.000000000000000000 ) ) ;
#562 = CIRCLE ( 'NONE', #693, 1.600000000000004086 ) ;
#563 = DIRECTION ( 'NONE',  ( -0.000000000000000000, -0.000000000000000000, -1.000000000000000000 ) ) ;
#564 = EDGE_CURVE ( 'NONE', #334, #726, #869, .T. ) ;
#565 = CARTESIAN_POINT ( 'NONE',  ( 58.12417153191461239, 47.39892200998853156, 8.492817616790672375 ) ) ;
#566 = ORIENTED_EDGE ( 'NONE', *, *, #493, .F. ) ;
#567 = CIRCLE ( 'NONE', #733, 3.100000000000033396 ) ;
#568 = DIRECTION ( 'NONE',  ( -0.7071067811865493491, 8.659560562354956277E-17, 0.7071067811865455743 ) ) ;
#569 = ORIENTED_EDGE ( 'NONE', *, *, #54, .F. ) ;
#570 = CARTESIAN_POINT ( 'NONE',  ( 63.44288770224761009, 40.00000000000000000, 5.855869341875739487 ) ) ;
#571 = VERTEX_POINT ( 'NONE', #229 ) ;
#572 = CARTESIAN_POINT ( 'NONE',  ( 0.000000000000000000, 0.000000000000000000, 5.000000000000000000 ) ) ;
#573 = FACE_OUTER_BOUND ( 'NONE', #818, .T. ) ;
#574 = CARTESIAN_POINT ( 'NONE',  ( 74.99999999999994316, 19.99999999999998579, 0.000000000000000000 ) ) ;
#575 = ORIENTED_EDGE ( 'NONE', *, *, #118, .F. ) ;
#576 = AXIS2_PLACEMENT_3D ( 'NONE', #540, #682, #81 ) ;
#577 = EDGE_LOOP ( 'NONE', ( #202, #761, #575, #616 ) ) ;
#578 = EDGE_CURVE ( 'NONE', #69, #41, #87, .T. ) ;
#579 = VECTOR ( 'NONE', #561, 1000.000000000000000 ) ;
#580 = LINE ( 'NONE', #819, #243 ) ;
#581 = LINE ( 'NONE', #274, #867 ) ;
#582 = CARTESIAN_POINT ( 'NONE',  ( 59.46552209255448673, 45.70583669401613491, 11.23634663309928072 ) ) ;
#583 = AXIS2_PLACEMENT_3D ( 'NONE', #604, #356, #849 ) ;
#584 = ORIENTED_EDGE ( 'NONE', *, *, #358, .T. ) ;
#585 = AXIS2_PLACEMENT_3D ( 'NONE', #58, #361, #669 ) ;
#586 = DIRECTION ( 'NONE',  ( 0.000000000000000000, 0.000000000000000000, 1.000000000000000000 ) ) ;
#587 = PRESENTATION_STYLE_ASSIGNMENT (( #342 ) ) ;
#588 = FACE_BOUND ( 'NONE', #287, .T. ) ;
#589 = VERTEX_POINT ( 'NONE', #151 ) ;
#590 = ORIENTED_EDGE ( 'NONE', *, *, #376, .T. ) ;
#591 = CARTESIAN_POINT ( 'NONE',  ( 59.45156584438922920, -45.72239364659655081, 11.24927979776649067 ) ) ;
#592 = CARTESIAN_POINT ( 'NONE',  ( 63.44288770224761009, 40.00000000000000711, 15.00000000000000000 ) ) ;
#593 = EDGE_CURVE ( 'NONE', #571, #589, #171, .T. ) ;
#594 = ORIENTED_EDGE ( 'NONE', *, *, #297, .F. ) ;
#595 = ORIENTED_EDGE ( 'NONE', *, *, #953, .T. ) ;
#596 = VECTOR ( 'NONE', #74, 1000.000000000000000 ) ;
#597 = CARTESIAN_POINT ( 'NONE',  ( 57.93994672654500988, -47.62411793238004520, 8.239077757836923865 ) ) ;
#598 = CARTESIAN_POINT ( 'NONE',  ( 0.000000000000000000, 0.000000000000000000, 0.000000000000000000 ) ) ;
#599 = EDGE_CURVE ( 'NONE', #242, #282, #532, .T. ) ;
#600 = ORIENTED_EDGE ( 'NONE', *, *, #782, .F. ) ;
#601 = CARTESIAN_POINT ( 'NONE',  ( 58.63961874376312977, -46.75955656306144448, 9.323294579584411323 ) ) ;
#602 = AXIS2_PLACEMENT_3D ( 'NONE', #384, #4, #163 ) ;
#603 = CARTESIAN_POINT ( 'NONE',  ( 28.19999999999999929, -69.50000000000000000, 5.000000000000000000 ) ) ;
#604 = CARTESIAN_POINT ( 'NONE',  ( 75.00000000000000000, -19.99999999999998579, 3.499999999999978240 ) ) ;
#605 = ORIENTED_EDGE ( 'NONE', *, *, #963, .F. ) ;
#606 = CARTESIAN_POINT ( 'NONE',  ( 63.77141004759641163, 39.47436988165095784, 5.110927884924659992 ) ) ;
#607 = CARTESIAN_POINT ( 'NONE',  ( 24.00000000000000000, -82.06247619953958861, 5.000000000000000000 ) ) ;
#608 = CARTESIAN_POINT ( 'NONE',  ( 0.000000000000000000, 0.000000000000000000, 15.00000000000000000 ) ) ;
#609 = EDGE_LOOP ( 'NONE', ( #133, #245, #207, #170 ) ) ;
#610 = CARTESIAN_POINT ( 'NONE',  ( 26.59999999999998010, 69.50000000000000000, 3.499999999999952482 ) ) ;
#611 = DIRECTION ( 'NONE',  ( 1.000000000000000000, 0.000000000000000000, 0.000000000000000000 ) ) ;
#612 = EDGE_CURVE ( 'NONE', #409, #339, #411, .T. ) ;
#613 = AXIS2_PLACEMENT_3D ( 'NONE', #544, #373, #219 ) ;
#614 = VECTOR ( 'NONE', #973, 1000.000000000000000 ) ;
#615 = DIRECTION ( 'NONE',  ( 1.000000000000000000, 0.000000000000000000, 0.000000000000000000 ) ) ;
#616 = ORIENTED_EDGE ( 'NONE', *, *, #15, .F. ) ;
#617 = DIRECTION ( 'NONE',  ( 0.000000000000000000, 0.000000000000000000, 1.000000000000000000 ) ) ;
#618 = VECTOR ( 'NONE', #689, 1000.000000000000000 ) ;
#619 = CYLINDRICAL_SURFACE ( 'NONE', #173, 1.600000000000004086 ) ;
#620 = ORIENTED_EDGE ( 'NONE', *, *, #866, .T. ) ;
#621 = LINE ( 'NONE', #945, #999 ) ;
#622 = CARTESIAN_POINT ( 'NONE',  ( 31.30000000000005045, 69.50000000000000000, 5.000000000000000000 ) ) ;
#623 = DIRECTION ( 'NONE',  ( 1.000000000000000000, 0.000000000000000000, 0.000000000000000000 ) ) ;
#624 = EDGE_CURVE ( 'NONE', #434, #816, #621, .T. ) ;
#625 = VERTEX_POINT ( 'NONE', #856 ) ;
#626 = CARTESIAN_POINT ( 'NONE',  ( 0.000000000000000000, 55.00000000000000711, 5.000000000000000000 ) ) ;
#627 = DIRECTION ( 'NONE',  ( -0.000000000000000000, -0.000000000000000000, -1.000000000000000000 ) ) ;
#628 = AXIS2_PLACEMENT_3D ( 'NONE', #667, #679, #140 ) ;
#629 = VERTEX_POINT ( 'NONE', #386 ) ;
#630 = CARTESIAN_POINT ( 'NONE',  ( 57.33937614784725412, 48.34566551554050307, 7.528352880876919784 ) ) ;
#631 = DIRECTION ( 'NONE',  ( 1.000000000000000000, 0.000000000000000000, 0.000000000000000000 ) ) ;
#632 = CIRCLE ( 'NONE', #683, 1.600000000000004086 ) ;
#633 = ORIENTED_EDGE ( 'NONE', *, *, #652, .F. ) ;
#634 = CARTESIAN_POINT ( 'NONE',  ( 23.99999999999999289, -45.00000000000000711, 15.00000000000000000 ) ) ;
#635 = ORIENTED_EDGE ( 'NONE', *, *, #483, .F. ) ;
#636 =( LENGTH_UNIT ( ) NAMED_UNIT ( * ) SI_UNIT ( .MILLI., .METRE. ) );
#637 = EDGE_CURVE ( 'NONE', #944, #372, #451, .T. ) ;
#638 = CARTESIAN_POINT ( 'NONE',  ( 28.19999999999998508, 69.50000000000000000, 5.000000000000000000 ) ) ;
#639 = VECTOR ( 'NONE', #539, 1000.000000000000000 ) ;
#640 = VERTEX_POINT ( 'NONE', #378 ) ;
#641 = CIRCLE ( 'NONE', #354, 75.00000000000001421 ) ;
#642 = CARTESIAN_POINT ( 'NONE',  ( 24.00000000000000000, -82.06247619953958861, 5.000000000000000000 ) ) ;
#643 = ORIENTED_EDGE ( 'NONE', *, *, #29, .F. ) ;
#644 = DIRECTION ( 'NONE',  ( -0.7071067811865493491, 8.659560562354956277E-17, 0.7071067811865455743 ) ) ;
#645 = EDGE_CURVE ( 'NONE', #113, #780, #547, .T. ) ;
#646 = ORIENTED_EDGE ( 'NONE', *, *, #997, .F. ) ;
#647 = CIRCLE ( 'NONE', #666, 10.00000000000000000 ) ;
#648 = DIRECTION ( 'NONE',  ( 1.000000000000000000, 0.000000000000000000, -0.000000000000000000 ) ) ;
#649 = AXIS2_PLACEMENT_3D ( 'NONE', #324, #257, #631 ) ;
#650 = DIRECTION ( 'NONE',  ( 0.000000000000000000, 0.000000000000000000, 1.000000000000000000 ) ) ;
#651 = EDGE_LOOP ( 'NONE', ( #972, #584, #237, #73 ) ) ;
#652 = EDGE_CURVE ( 'NONE', #339, #92, #238, .T. ) ;
#653 = ORIENTED_EDGE ( 'NONE', *, *, #337, .F. ) ;
#654 = DIRECTION ( 'NONE',  ( -0.7071067811865493491, 8.659560562354956277E-17, 0.7071067811865455743 ) ) ;
#655 = CARTESIAN_POINT ( 'NONE',  ( 60.00000000000001421, -45.00000000000000711, 15.00000000000000000 ) ) ;
#656 = CARTESIAN_POINT ( 'NONE',  ( 75.00000000000000000, -19.99999999999998579, 3.499999999999978240 ) ) ;
#657 = CARTESIAN_POINT ( 'NONE',  ( 60.00000000000001421, 45.00000000000000711, 15.00000000000000000 ) ) ;
#658 = CARTESIAN_POINT ( 'NONE',  ( 74.99999999999994316, 19.99999999999998579, 5.000000000000000000 ) ) ;
#659 = AXIS2_PLACEMENT_3D ( 'NONE', #987, #135, #424 ) ;
#660 = EDGE_LOOP ( 'NONE', ( #569, #809 ) ) ;
#661 = LINE ( 'NONE', #736, #273 ) ;
#662 = DIRECTION ( 'NONE',  ( -0.000000000000000000, -0.000000000000000000, -1.000000000000000000 ) ) ;
#663 = CARTESIAN_POINT ( 'NONE',  ( 63.44288770224761009, -40.00000000000000711, 15.00000000000000000 ) ) ;
#664 = CARTESIAN_POINT ( 'NONE',  ( 24.00000000000000000, 40.00000000000000711, 6.000000000000000000 ) ) ;
#665 = ORIENTED_EDGE ( 'NONE', *, *, #8, .T. ) ;
#666 = AXIS2_PLACEMENT_3D ( 'NONE', #770, #301, #939 ) ;
#667 = CARTESIAN_POINT ( 'NONE',  ( 63.44288770224761009, 39.00000000000000711, 6.000000000000000000 ) ) ;
#668 = LINE ( 'NONE', #993, #448 ) ;
#669 = DIRECTION ( 'NONE',  ( 0.000000000000000000, -0.000000000000000000, -1.000000000000000000 ) ) ;
#670 = ORIENTED_EDGE ( 'NONE', *, *, #393, .F. ) ;
#671 = ORIENTED_EDGE ( 'NONE', *, *, #757, .T. ) ;
#672 = DIRECTION ( 'NONE',  ( -1.000000000000000000, 0.000000000000000000, 0.000000000000000000 ) ) ;
#673 = ADVANCED_FACE ( 'NONE', ( #318 ), #875, .F. ) ;
#674 = FACE_OUTER_BOUND ( 'NONE', #223, .T. ) ;
#675 = CARTESIAN_POINT ( 'NONE',  ( 76.59999999999995168, 19.99999999999998579, 3.499999999999978240 ) ) ;
#676 = EDGE_LOOP ( 'NONE', ( #213, #984 ) ) ;
#677 = STYLED_ITEM ( 'NONE', ( #587 ), #515 ) ;
#678 = VECTOR ( 'NONE', #543, 1000.000000000000000 ) ;
#679 = DIRECTION ( 'NONE',  ( 1.000000000000000000, -0.000000000000000000, 0.000000000000000000 ) ) ;
#680 = LINE ( 'NONE', #700, #216 ) ;
#681 = VERTEX_POINT ( 'NONE', #878 ) ;
#682 = DIRECTION ( 'NONE',  ( 1.000000000000000000, -0.000000000000000000, 0.000000000000000000 ) ) ;
#683 = AXIS2_PLACEMENT_3D ( 'NONE', #947, #240, #545 ) ;
#684 = DIRECTION ( 'NONE',  ( 0.000000000000000000, 0.000000000000000000, 1.000000000000000000 ) ) ;
#685 = EDGE_CURVE ( 'NONE', #11, #928, #179, .T. ) ;
#686 = ORIENTED_EDGE ( 'NONE', *, *, #979, .T. ) ;
#687 = DIRECTION ( 'NONE',  ( 1.000000000000000000, -0.000000000000000000, -0.000000000000000000 ) ) ;
#688 = DIRECTION ( 'NONE',  ( 1.000000000000000000, 0.000000000000000000, 0.000000000000000000 ) ) ;
#689 = DIRECTION ( 'NONE',  ( -0.000000000000000000, -0.000000000000000000, -1.000000000000000000 ) ) ;
#690 = ORIENTED_EDGE ( 'NONE', *, *, #351, .F. ) ;
#691 = DIRECTION ( 'NONE',  ( 0.000000000000000000, 0.000000000000000000, 1.000000000000000000 ) ) ;
#692 = AXIS2_PLACEMENT_3D ( 'NONE', #781, #6, #12 ) ;
#693 = AXIS2_PLACEMENT_3D ( 'NONE', #574, #983, #900 ) ;
#694 = DIRECTION ( 'NONE',  ( 0.000000000000000000, 0.000000000000000000, 1.000000000000000000 ) ) ;
#695 = ORIENTED_EDGE ( 'NONE', *, *, #769, .T. ) ;
#696 = DIRECTION ( 'NONE',  ( -0.7071067811865503483, 8.659560562354966138E-17, 0.7071067811865446862 ) ) ;
#697 = DIRECTION ( 'NONE',  ( 0.7071067811865493491, 0.000000000000000000, 0.7071067811865455743 ) ) ;
#698 = VECTOR ( 'NONE', #222, 1000.000000000000000 ) ;
#699 = CIRCLE ( 'NONE', #72, 1.600000000000004086 ) ;
#700 = CARTESIAN_POINT ( 'NONE',  ( 24.00000000000000000, -82.06247619953958861, 0.000000000000000000 ) ) ;
#701 = ORIENTED_EDGE ( 'NONE', *, *, #502, .F. ) ;
#702 = CARTESIAN_POINT ( 'NONE',  ( 63.98766303596759286, -39.12287916928657694, 4.999999999999999112 ) ) ;
#703 = CARTESIAN_POINT ( 'NONE',  ( 63.70397608264481448, 39.58302765627852438, 5.177227939069534379 ) ) ;
#704 = EDGE_CURVE ( 'NONE', #28, #771, #580, .T. ) ;
#705 = CYLINDRICAL_SURFACE ( 'NONE', #494, 75.00000000000001421 ) ;
#706 = EDGE_LOOP ( 'NONE', ( #450, #206 ) ) ;
#707 = CARTESIAN_POINT ( 'NONE',  ( 60.00000000000001421, 45.00000000000000711, 15.00000000000000000 ) ) ;
#708 = COLOUR_RGB ( '',0.7921568627450980005, 0.8196078431372548767, 0.9333333333333333481 ) ;
#709 = DIRECTION ( 'NONE',  ( 1.000000000000000000, 0.000000000000000000, 0.000000000000000000 ) ) ;
#710 = AXIS2_PLACEMENT_3D ( 'NONE', #225, #691, #447 ) ;
#711 = EDGE_LOOP ( 'NONE', ( #95, #929 ) ) ;
#712 = EDGE_CURVE ( 'NONE', #720, #345, #661, .T. ) ;
#713 = AXIS2_PLACEMENT_3D ( 'NONE', #746, #445, #830 ) ;
#714 = CYLINDRICAL_SURFACE ( 'NONE', #296, 1.600000000000004086 ) ;
#715 = CIRCLE ( 'NONE', #246, 1.000000000000000000 ) ;
#716 = EDGE_LOOP ( 'NONE', ( #555, #80, #519, #298 ) ) ;
#717 = ADVANCED_FACE ( 'NONE', ( #986 ), #61, .F. ) ;
#718 = FACE_OUTER_BOUND ( 'NONE', #404, .T. ) ;
#719 = ORIENTED_EDGE ( 'NONE', *, *, #923, .F. ) ;
#720 = VERTEX_POINT ( 'NONE', #134 ) ;
#721 = ADVANCED_FACE ( 'NONE', ( #64 ), #294, .T. ) ;
#722 = ADVANCED_FACE ( 'NONE', ( #191 ), #196, .F. ) ;
#723 = CARTESIAN_POINT ( 'NONE',  ( 73.39999999999993463, 19.99999999999998579, 0.000000000000000000 ) ) ;
#724 =( GEOMETRIC_REPRESENTATION_CONTEXT ( 3 ) GLOBAL_UNCERTAINTY_ASSIGNED_CONTEXT ( ( #109 ) ) GLOBAL_UNIT_ASSIGNED_CONTEXT ( ( #209, #840, #751 ) ) REPRESENTATION_CONTEXT ( 'NONE', 'WORKASPACE' ) );
#725 = CARTESIAN_POINT ( 'NONE',  ( 57.54524016223554383, 48.10031452814064323, 7.753689691212944268 ) ) ;
#726 = VERTEX_POINT ( 'NONE', #512 ) ;
#727 = PRODUCT_DEFINITION_FORMATION_WITH_SPECIFIED_SOURCE ( 'ANY', '', #851, .NOT_KNOWN. ) ;
#728 = LINE ( 'NONE', #329, #180 ) ;
#729 = LINE ( 'NONE', #592, #970 ) ;
#730 = EDGE_CURVE ( 'NONE', #250, #922, #352, .T. ) ;
#731 = DIRECTION ( 'NONE',  ( 1.000000000000000000, 0.000000000000000000, 0.000000000000000000 ) ) ;
#732 = ORIENTED_EDGE ( 'NONE', *, *, #593, .T. ) ;
#733 = AXIS2_PLACEMENT_3D ( 'NONE', #104, #550, #623 ) ;
#734 = DIRECTION ( 'NONE',  ( 1.000000000000000000, 0.000000000000000000, 0.000000000000000000 ) ) ;
#735 = ORIENTED_EDGE ( 'NONE', *, *, #226, .T. ) ;
#736 = CARTESIAN_POINT ( 'NONE',  ( 29.80000000000000426, -69.50000000000000000, 3.499999999999980016 ) ) ;
#737 = DIRECTION ( 'NONE',  ( -0.000000000000000000, -0.000000000000000000, -1.000000000000000000 ) ) ;
#738 = CARTESIAN_POINT ( 'NONE',  ( 28.19999999999998508, 69.50000000000000000, 0.000000000000000000 ) ) ;
#739 = DIRECTION ( 'NONE',  ( 1.000000000000000000, 0.000000000000000000, 0.000000000000000000 ) ) ;
#740 = VERTEX_POINT ( 'NONE', #214 ) ;
#741 = DIRECTION ( 'NONE',  ( -1.000000000000000000, 0.000000000000000000, 0.000000000000000000 ) ) ;
#742 = PRODUCT_DEFINITION_CONTEXT ( 'detailed design', #754, 'design' ) ;
#743 = DIRECTION ( 'NONE',  ( 1.387778780781446464E-15, -1.000000000000000000, 0.000000000000000000 ) ) ;
#744 = DIRECTION ( 'NONE',  ( -1.000000000000000000, 0.000000000000000000, 0.000000000000000000 ) ) ;
#745 = DIRECTION ( 'NONE',  ( 1.000000000000000000, 0.000000000000000000, 0.000000000000000000 ) ) ;
#746 = CARTESIAN_POINT ( 'NONE',  ( 0.000000000000000000, 0.000000000000000000, 5.000000000000000000 ) ) ;
#747 = VECTOR ( 'NONE', #224, 1000.000000000000000 ) ;
#748 = VERTEX_POINT ( 'NONE', #418 ) ;
#749 = CIRCLE ( 'NONE', #479, 75.00000000000001421 ) ;
#750 = CARTESIAN_POINT ( 'NONE',  ( 63.44288770224761009, 40.00000000000000711, 15.00000000000000000 ) ) ;
#751 =( NAMED_UNIT ( * ) SI_UNIT ( $, .STERADIAN. ) SOLID_ANGLE_UNIT ( ) );
#752 = PLANE ( 'NONE',  #585 ) ;
#753 = FACE_OUTER_BOUND ( 'NONE', #777, .T. ) ;
#754 = APPLICATION_CONTEXT ( 'automotive_design' ) ;
#755 = ORIENTED_EDGE ( 'NONE', *, *, #882, .T. ) ;
#756 = AXIS2_PLACEMENT_3D ( 'NONE', #305, #147, #615 ) ;
#757 = EDGE_CURVE ( 'NONE', #69, #377, #122, .T. ) ;
#758 = CARTESIAN_POINT ( 'NONE',  ( 56.70396056508993610, -49.09268506251422792, 6.905078990893436242 ) ) ;
#759 = CARTESIAN_POINT ( 'NONE',  ( 63.44288770224761009, -40.00000000000000711, 6.000000000000000000 ) ) ;
#760 = CARTESIAN_POINT ( 'NONE',  ( 28.19999999999998508, 69.50000000000000000, 3.499999999999952482 ) ) ;
#761 = ORIENTED_EDGE ( 'NONE', *, *, #645, .F. ) ;
#762 = ORIENTED_EDGE ( 'NONE', *, *, #15, .T. ) ;
#763 = CARTESIAN_POINT ( 'NONE',  ( 60.00000000000002132, -45.00000000000000711, 14.21373559069956372 ) ) ;
#764 = ADVANCED_FACE ( 'NONE', ( #492 ), #516, .F. ) ;
#765 = PLANE ( 'NONE',  #535 ) ;
#766 = CARTESIAN_POINT ( 'NONE',  ( 26.59999999999998010, 69.50000000000000000, 0.000000000000000000 ) ) ;
#767 = ORIENTED_EDGE ( 'NONE', *, *, #443, .F. ) ;
#768 = FACE_OUTER_BOUND ( 'NONE', #487, .T. ) ;
#769 = EDGE_CURVE ( 'NONE', #92, #978, #291, .T. ) ;
#770 = CARTESIAN_POINT ( 'NONE',  ( 24.00000000000000000, 55.00000000000000711, 15.00000000000000000 ) ) ;
#771 = VERTEX_POINT ( 'NONE', #429 ) ;
#772 = CARTESIAN_POINT ( 'NONE',  ( 73.39999999999993463, 19.99999999999998579, 5.000000000000000000 ) ) ;
#773 = CARTESIAN_POINT ( 'NONE',  ( 75.00000000000000000, -19.99999999999998579, 5.000000000000000000 ) ) ;
#774 = CIRCLE ( 'NONE', #925, 3.100000000000033396 ) ;
#775 = CYLINDRICAL_SURFACE ( 'NONE', #517, 1.600000000000004086 ) ;
#776 = ADVANCED_FACE ( 'NONE', ( #768 ), #917, .F. ) ;
#777 = EDGE_LOOP ( 'NONE', ( #948, #357, #138, #670 ) ) ;
#778 = CARTESIAN_POINT ( 'NONE',  ( 64.06246951218787444, 39.00000000000000711, 5.000000000000000000 ) ) ;
#779 = CARTESIAN_POINT ( 'NONE',  ( 73.39999999999999147, -19.99999999999998579, 3.499999999999978240 ) ) ;
#780 = VERTEX_POINT ( 'NONE', #319 ) ;
#781 = CARTESIAN_POINT ( 'NONE',  ( 24.00000000000000000, -55.00000000000000711, 15.00000000000000000 ) ) ;
#782 = EDGE_CURVE ( 'NONE', #381, #681, #108, .T. ) ;
#783 = CARTESIAN_POINT ( 'NONE',  ( 63.44288770224762430, -40.00000000000001421, 5.855345536299211062 ) ) ;
#784 = AXIS2_PLACEMENT_3D ( 'NONE', #750, #289, #272 ) ;
#785 = AXIS2_PLACEMENT_3D ( 'NONE', #658, #40, #897 ) ;
#786 = CARTESIAN_POINT ( 'NONE',  ( 75.00000000000000000, -19.99999999999998579, 3.499999999999977796 ) ) ;
#787 = VERTEX_POINT ( 'NONE', #778 ) ;
#788 = FACE_BOUND ( 'NONE', #399, .T. ) ;
#789 = EDGE_CURVE ( 'NONE', #434, #748, #379, .T. ) ;
#790 = CONICAL_SURFACE ( 'NONE', #312, 1.600000000000004086, 0.7853981633974510546 ) ;
#791 = FACE_OUTER_BOUND ( 'NONE', #609, .T. ) ;
#792 = VERTEX_POINT ( 'NONE', #946 ) ;
#793 = CARTESIAN_POINT ( 'NONE',  ( 58.63732797195815039, 46.76242042632747342, 9.319322070189024032 ) ) ;
#794 = VECTOR ( 'NONE', #743, 1000.000000000000000 ) ;
#795 = ADVANCED_BREP_SHAPE_REPRESENTATION ( 'battery holder', ( #515, #149 ), #335 ) ;
#796 = FACE_OUTER_BOUND ( 'NONE', #832, .T. ) ;
#797 = ORIENTED_EDGE ( 'NONE', *, *, #892, .F. ) ;
#798 = DIRECTION ( 'NONE',  ( -1.000000000000000000, -0.000000000000000000, -0.000000000000000000 ) ) ;
#799 = AXIS2_PLACEMENT_3D ( 'NONE', #773, #383, #461 ) ;
#800 = ADVANCED_FACE ( 'NONE', ( #788, #239, #852, #870, #527 ), #858, .T. ) ;
#801 = VERTEX_POINT ( 'NONE', #622 ) ;
#802 = ORIENTED_EDGE ( 'NONE', *, *, #637, .T. ) ;
#803 = DIRECTION ( 'NONE',  ( 0.000000000000000000, 0.000000000000000000, 1.000000000000000000 ) ) ;
#804 = VECTOR ( 'NONE', #66, 1000.000000000000000 ) ;
#805 = VERTEX_POINT ( 'NONE', #392 ) ;
#806 = PRODUCT_CONTEXT ( 'NONE', #847, 'mechanical' ) ;
#807 = CARTESIAN_POINT ( 'NONE',  ( 0.000000000000000000, -55.00000000000000711, 5.000000000000000000 ) ) ;
#808 = CARTESIAN_POINT ( 'NONE',  ( 24.00000000000000000, -82.06247619953958861, 5.000000000000000000 ) ) ;
#809 = ORIENTED_EDGE ( 'NONE', *, *, #285, .F. ) ;
#810 =( NAMED_UNIT ( * ) SI_UNIT ( $, .STERADIAN. ) SOLID_ANGLE_UNIT ( ) );
#811 = ORIENTED_EDGE ( 'NONE', *, *, #712, .F. ) ;
#812 = ADVANCED_FACE ( 'NONE', ( #874 ), #452, .F. ) ;
#813 = CARTESIAN_POINT ( 'NONE',  ( 24.00000000000000000, -82.06247619953958861, 5.000000000000000000 ) ) ;
#814 = AXIS2_PLACEMENT_3D ( 'NONE', #234, #70, #466 ) ;
#815 = DIRECTION ( 'NONE',  ( 0.000000000000000000, 0.000000000000000000, 1.000000000000000000 ) ) ;
#816 = VERTEX_POINT ( 'NONE', #88 ) ;
#817 = CARTESIAN_POINT ( 'NONE',  ( 50.99019513592785557, -55.00000000000000711, 5.000000000000000000 ) ) ;
#818 = EDGE_LOOP ( 'NONE', ( #841, #566, #308, #918 ) ) ;
#819 = CARTESIAN_POINT ( 'NONE',  ( 76.59999999999995168, 19.99999999999998579, 5.000000000000000000 ) ) ;
#820 = EDGE_CURVE ( 'NONE', #748, #922, #950, .T. ) ;
#821 = CARTESIAN_POINT ( 'NONE',  ( 64.06246951218787444, -39.00000000000000711, 5.000000000000000000 ) ) ;
#822 = CIRCLE ( 'NONE', #583, 1.600000000000004086 ) ;
#823 = FACE_OUTER_BOUND ( 'NONE', #660, .T. ) ;
#824 = EDGE_LOOP ( 'NONE', ( #755, #325, #34, #428 ) ) ;
#825 = AXIS2_PLACEMENT_3D ( 'NONE', #19, #397, #709 ) ;
#826 =( NAMED_UNIT ( * ) PLANE_ANGLE_UNIT ( ) SI_UNIT ( $, .RADIAN. ) );
#827 = CARTESIAN_POINT ( 'NONE',  ( 50.99019513592785557, -55.00000000000000711, 5.000000000000000000 ) ) ;
#828 = LINE ( 'NONE', #50, #794 ) ;
#829 = CARTESIAN_POINT ( 'NONE',  ( 59.08389067365519765, 46.19671870678264014, 10.24196700005041905 ) ) ;
#830 = DIRECTION ( 'NONE',  ( 1.000000000000000000, 0.000000000000000000, 0.000000000000000000 ) ) ;
#831 = DIRECTION ( 'NONE',  ( 0.000000000000000000, 0.000000000000000000, 1.000000000000000000 ) ) ;
#832 = EDGE_LOOP ( 'NONE', ( #767, #259, #366, #385 ) ) ;
#833 = CARTESIAN_POINT ( 'NONE',  ( 57.34189232484991550, -48.34268406086842873, 7.530985776880338989 ) ) ;
#834 = CARTESIAN_POINT ( 'NONE',  ( 63.44288770224761009, 40.00000000000000711, 6.000000000000000000 ) ) ;
#835 = ORIENTED_EDGE ( 'NONE', *, *, #488, .F. ) ;
#836 = EDGE_CURVE ( 'NONE', #480, #328, #894, .T. ) ;
#837 = AXIS2_PLACEMENT_3D ( 'NONE', #300, #523, #611 ) ;
#838 = ORIENTED_EDGE ( 'NONE', *, *, #10, .F. ) ;
#839 = CARTESIAN_POINT ( 'NONE',  ( 58.47518571861954939, -46.96519951972067730, 9.036597520631620029 ) ) ;
#840 =( NAMED_UNIT ( * ) PLANE_ANGLE_UNIT ( ) SI_UNIT ( $, .RADIAN. ) );
#841 = ORIENTED_EDGE ( 'NONE', *, *, #54, .T. ) ;
#842 = VECTOR ( 'NONE', #126, 1000.000000000000000 ) ;
#843 = PRESENTATION_LAYER_ASSIGNMENT (  '', '', ( #677 ) ) ;
#844 = ORIENTED_EDGE ( 'NONE', *, *, #612, .T. ) ;
#845 = EDGE_CURVE ( 'NONE', #944, #28, #148, .T. ) ;
#846 = CARTESIAN_POINT ( 'NONE',  ( 58.12535420666586106, -47.39747365739916773, 8.494480720273401175 ) ) ;
#847 = APPLICATION_CONTEXT ( 'automotive_design' ) ;
#848 = LINE ( 'NONE', #227, #804 ) ;
#849 = DIRECTION ( 'NONE',  ( 1.000000000000000000, 0.000000000000000000, 0.000000000000000000 ) ) ;
#850 = ORIENTED_EDGE ( 'NONE', *, *, #351, .T. ) ;
#851 = PRODUCT ( 'battery holder', 'battery holder', '', ( #806 ) ) ;
#852 = FACE_BOUND ( 'NONE', #676, .T. ) ;
#853 = ADVANCED_FACE ( 'NONE', ( #926 ), #864, .F. ) ;
#854 = CARTESIAN_POINT ( 'NONE',  ( 74.99999999999994316, 19.99999999999998579, 5.000000000000000000 ) ) ;
#855 = EDGE_LOOP ( 'NONE', ( #504, #270, #55, #958 ) ) ;
#856 = CARTESIAN_POINT ( 'NONE',  ( 24.00000000000000000, 82.06247619953958861, 0.000000000000000000 ) ) ;
#857 = CIRCLE ( 'NONE', #400, 75.00000000000001421 ) ;
#858 = PLANE ( 'NONE',  #613 ) ;
#859 = CARTESIAN_POINT ( 'NONE',  ( 63.58498338203597200, 39.77389263678005449, 5.353497641944727548 ) ) ;
#860 = DIRECTION ( 'NONE',  ( -1.000000000000000000, 0.000000000000000000, 0.000000000000000000 ) ) ;
#861 = ORIENTED_EDGE ( 'NONE', *, *, #704, .F. ) ;
#862 = CARTESIAN_POINT ( 'NONE',  ( 63.44288770224761009, -40.00000000000000711, 15.00000000000000000 ) ) ;
#863 = AXIS2_PLACEMENT_3D ( 'NONE', #121, #142, #365 ) ;
#864 = PLANE ( 'NONE',  #463 ) ;
#865 = DIRECTION ( 'NONE',  ( 1.000000000000000000, 0.000000000000000000, 0.000000000000000000 ) ) ;
#866 = EDGE_CURVE ( 'NONE', #787, #780, #857, .T. ) ;
#867 = VECTOR ( 'NONE', #644, 1000.000000000000114 ) ;
#868 = ORIENTED_EDGE ( 'NONE', *, *, #241, .F. ) ;
#869 = LINE ( 'NONE', #610, #192 ) ;
#870 = FACE_BOUND ( 'NONE', #706, .T. ) ;
#871 = DIRECTION ( 'NONE',  ( 1.000000000000000000, 0.000000000000000000, 0.000000000000000000 ) ) ;
#872 = ADVANCED_FACE ( 'NONE', ( #1012 ), #166, .F. ) ;
#873 = ORIENTED_EDGE ( 'NONE', *, *, #915, .T. ) ;
#874 = FACE_OUTER_BOUND ( 'NONE', #27, .T. ) ;
#875 = CONICAL_SURFACE ( 'NONE', #290, 1.600000000000004086, 0.7853981633974522758 ) ;
#876 = CARTESIAN_POINT ( 'NONE',  ( 71.89999999999990621, 19.99999999999998579, 5.000000000000000000 ) ) ;
#877 = EDGE_LOOP ( 'NONE', ( #86, #891, #514, #426, #695 ) ) ;
#878 = CARTESIAN_POINT ( 'NONE',  ( 24.00000000000000000, -39.00000000000000711, 5.000000000000000000 ) ) ;
#879 = CARTESIAN_POINT ( 'NONE',  ( 52.13473568282184090, 53.93890280314354868, 4.999999999999998224 ) ) ;
#880 = CARTESIAN_POINT ( 'NONE',  ( 26.59999999999998010, 69.50000000000000000, 3.499999999999952482 ) ) ;
#881 = ORIENTED_EDGE ( 'NONE', *, *, #845, .F. ) ;
#882 = EDGE_CURVE ( 'NONE', #242, #720, #30, .T. ) ;
#883 = DIRECTION ( 'NONE',  ( 0.7071067811865503483, 0.000000000000000000, 0.7071067811865446862 ) ) ;
#884 = ORIENTED_EDGE ( 'NONE', *, *, #578, .T. ) ;
#885 = DIRECTION ( 'NONE',  ( 0.000000000000000000, 0.000000000000000000, 1.000000000000000000 ) ) ;
#886 = AXIS2_PLACEMENT_3D ( 'NONE', #898, #193, #508 ) ;
#887 = ORIENTED_EDGE ( 'NONE', *, *, #458, .T. ) ;
#888 = CARTESIAN_POINT ( 'NONE',  ( 31.30000000000002913, -69.50000000000000000, 5.000000000000000000 ) ) ;
#889 = AXIS2_PLACEMENT_3D ( 'NONE', #160, #215, #9 ) ;
#890 = CARTESIAN_POINT ( 'NONE',  ( 59.91367620069848954, 45.11490547327655065, 13.43867721622465083 ) ) ;
#891 = ORIENTED_EDGE ( 'NONE', *, *, #836, .T. ) ;
#892 = EDGE_CURVE ( 'NONE', #589, #381, #158, .T. ) ;
#893 = CARTESIAN_POINT ( 'NONE',  ( 63.46290687492893312, 39.96828635861702850, 5.714728346010446991 ) ) ;
#894 = B_SPLINE_CURVE_WITH_KNOTS ( 'NONE', 3,
 ( #168, #702, #7, #932, #456, #314, #1008, #144, #783, #387 ),
 .UNSPECIFIED., .F., .F.,
 ( 4, 2, 2, 2, 4 ),
 ( 0.000000000000000000, 0.0004239293621548421119, 0.0008478587243096842238, 0.001271788086464526336, 0.001695717448619368448 ),
 .UNSPECIFIED. ) ;
#895 = DIRECTION ( 'NONE',  ( 1.000000000000000000, 0.000000000000000000, 0.000000000000000000 ) ) ;
#896 = ORIENTED_EDGE ( 'NONE', *, *, #521, .T. ) ;
#897 = DIRECTION ( 'NONE',  ( -1.000000000000000000, 0.000000000000000000, 0.000000000000000000 ) ) ;
#898 = CARTESIAN_POINT ( 'NONE',  ( 0.000000000000000000, 0.000000000000000000, 5.000000000000000000 ) ) ;
#899 = CARTESIAN_POINT ( 'NONE',  ( 76.59999999999995168, 19.99999999999998579, 3.499999999999977796 ) ) ;
#900 = DIRECTION ( 'NONE',  ( -1.000000000000000000, 0.000000000000000000, 0.000000000000000000 ) ) ;
#901 = ORIENTED_EDGE ( 'NONE', *, *, #521, .F. ) ;
#902 = APPLICATION_PROTOCOL_DEFINITION ( 'draft international standard', 'automotive_design', 1998, #847 ) ;
#903 = ORIENTED_EDGE ( 'NONE', *, *, #427, .T. ) ;
#904 = CARTESIAN_POINT ( 'NONE',  ( 55.28901320107123496, -50.67802710114081322, 5.977302759735210635 ) ) ;
#905 = EDGE_CURVE ( 'NONE', #928, #11, #353, .T. ) ;
#906 = CARTESIAN_POINT ( 'NONE',  ( 28.19999999999999929, -69.50000000000000000, 5.000000000000000000 ) ) ;
#907 = LINE ( 'NONE', #332, #614 ) ;
#908 = VERTEX_POINT ( 'NONE', #486 ) ;
#909 = CARTESIAN_POINT ( 'NONE',  ( 59.64747327684327871, -45.46652498060907988, 11.95784028381091701 ) ) ;
#910 = DIRECTION ( 'NONE',  ( -0.000000000000000000, -0.000000000000000000, -1.000000000000000000 ) ) ;
#911 = EDGE_CURVE ( 'NONE', #780, #106, #920, .T. ) ;
#912 = LINE ( 'NONE', #657, #698 ) ;
#913 = ORIENTED_EDGE ( 'NONE', *, *, #79, .F. ) ;
#914 = CARTESIAN_POINT ( 'NONE',  ( 59.93172056082863008, -45.09143832287011122, 13.44787132205850710 ) ) ;
#915 = EDGE_CURVE ( 'NONE', #250, #434, #306, .T. ) ;
#916 = LINE ( 'NONE', #1003, #842 ) ;
#917 = CONICAL_SURFACE ( 'NONE', #837, 1.600000000000004086, 0.7853981633974510546 ) ;
#918 = ORIENTED_EDGE ( 'NONE', *, *, #963, .T. ) ;
#919 = DIRECTION ( 'NONE',  ( -1.000000000000000000, 0.000000000000000000, 0.000000000000000000 ) ) ;
#920 = B_SPLINE_CURVE_WITH_KNOTS ( 'NONE', 3,
 ( #549, #879, #396, #471, #17, #172, #338, #408, #323, #630, #725, #199, #565, #32, #793, #414, #829, #582, #38, #125, #890, #344, #350, #707 ),
 .UNSPECIFIED., .F., .F.,
 ( 4, 2, 2, 2, 2, 2, 2, 2, 2, 2, 2, 4 ),
 ( 0.000000000000000000, 0.004618715458107349597, 0.005773394322634197405, 0.006928073187161044345, 0.009237430916214728685, 0.01039210978074158083, 0.01154678864526843818, 0.01270146750979529379, 0.01385614637432214941, 0.01616550410337584676, 0.01732018296790269890, 0.01847486183242955105 ),
 .UNSPECIFIED. ) ;
#921 = CYLINDRICAL_SURFACE ( 'NONE', #137, 1.600000000000004086 ) ;
#922 = VERTEX_POINT ( 'NONE', #954 ) ;
#923 = EDGE_CURVE ( 'NONE', #792, #113, #503, .T. ) ;
#924 = ORIENTED_EDGE ( 'NONE', *, *, #3, .T. ) ;
#925 = AXIS2_PLACEMENT_3D ( 'NONE', #854, #23, #476 ) ;
#926 = FACE_OUTER_BOUND ( 'NONE', #271, .T. ) ;
#927 = CARTESIAN_POINT ( 'NONE',  ( 29.79999999999999005, 69.50000000000000000, 3.499999999999952482 ) ) ;
#928 = VERTEX_POINT ( 'NONE', #976 ) ;
#929 = ORIENTED_EDGE ( 'NONE', *, *, #393, .T. ) ;
#930 = CARTESIAN_POINT ( 'NONE',  ( 64.06246951218787444, 39.00000000000000711, 5.000000000000000000 ) ) ;
#931 = EDGE_CURVE ( 'NONE', #92, #571, #307, .T. ) ;
#932 = CARTESIAN_POINT ( 'NONE',  ( 63.77252252761118712, -39.47256915703049174, 5.110102821421262931 ) ) ;
#933 = DIRECTION ( 'NONE',  ( -0.000000000000000000, -0.000000000000000000, -1.000000000000000000 ) ) ;
#934 = ORIENTED_EDGE ( 'NONE', *, *, #458, .F. ) ;
#935 = CARTESIAN_POINT ( 'NONE',  ( 24.00000000000000000, 40.00000000000000711, 15.00000000000000000 ) ) ;
#936 = VECTOR ( 'NONE', #654, 1000.000000000000114 ) ;
#937 = DIRECTION ( 'NONE',  ( 1.000000000000000000, 0.000000000000000000, 0.000000000000000000 ) ) ;
#938 = AXIS2_PLACEMENT_3D ( 'NONE', #490, #416, #648 ) ;
#939 = DIRECTION ( 'NONE',  ( 0.000000000000000000, 0.000000000000000000, -1.000000000000000000 ) ) ;
#940 = ORIENTED_EDGE ( 'NONE', *, *, #358, .F. ) ;
#941 = CARTESIAN_POINT ( 'NONE',  ( 76.59999999999999432, -19.99999999999998579, 3.499999999999977796 ) ) ;
#942 = EDGE_CURVE ( 'NONE', #372, #771, #562, .T. ) ;
#943 = CARTESIAN_POINT ( 'NONE',  ( 75.00000000000000000, -19.99999999999998579, 5.000000000000000000 ) ) ;
#944 = VERTEX_POINT ( 'NONE', #275 ) ;
#945 = CARTESIAN_POINT ( 'NONE',  ( 76.59999999999999432, -19.99999999999998579, 5.000000000000000000 ) ) ;
#946 = CARTESIAN_POINT ( 'NONE',  ( 24.00000000000000000, 82.06247619953958861, 5.000000000000000000 ) ) ;
#947 = CARTESIAN_POINT ( 'NONE',  ( 28.19999999999999929, -69.50000000000000000, 3.499999999999980016 ) ) ;
#948 = ORIENTED_EDGE ( 'NONE', *, *, #472, .F. ) ;
#949 = DIRECTION ( 'NONE',  ( 1.000000000000000000, 0.000000000000000000, 0.000000000000000000 ) ) ;
#950 = CIRCLE ( 'NONE', #799, 3.100000000000033396 ) ;
#951 = DIRECTION ( 'NONE',  ( -1.000000000000000000, 0.000000000000000000, 0.000000000000000000 ) ) ;
#952 = ORIENTED_EDGE ( 'NONE', *, *, #398, .F. ) ;
#953 = EDGE_CURVE ( 'NONE', #787, #805, #907, .T. ) ;
#954 = CARTESIAN_POINT ( 'NONE',  ( 71.89999999999996305, -19.99999999999998579, 5.000000000000000000 ) ) ;
#955 = VECTOR ( 'NONE', #798, 1000.000000000000000 ) ;
#956 = CIRCLE ( 'NONE', #198, 1.600000000000004086 ) ;
#957 = LINE ( 'NONE', #248, #299 ) ;
#958 = ORIENTED_EDGE ( 'NONE', *, *, #36, .F. ) ;
#959 = FACE_OUTER_BOUND ( 'NONE', #716, .T. ) ;
#960 = ORIENTED_EDGE ( 'NONE', *, *, #376, .F. ) ;
#961 = VECTOR ( 'NONE', #687, 1000.000000000000000 ) ;
#962 = LINE ( 'NONE', #327, #1007 ) ;
#963 = EDGE_CURVE ( 'NONE', #459, #640, #505, .T. ) ;
#964 = ORIENTED_EDGE ( 'NONE', *, *, #493, .T. ) ;
#965 = DIRECTION ( 'NONE',  ( 1.000000000000000000, 0.000000000000000000, 0.000000000000000000 ) ) ;
#966 = CIRCLE ( 'NONE', #484, 85.50000000000000000 ) ;
#967 = DIRECTION ( 'NONE',  ( -0.000000000000000000, -0.000000000000000000, -1.000000000000000000 ) ) ;
#968 = AXIS2_PLACEMENT_3D ( 'NONE', #420, #44, #349 ) ;
#969 = EDGE_CURVE ( 'NONE', #242, #998, #728, .T. ) ;
#970 = VECTOR ( 'NONE', #967, 1000.000000000000000 ) ;
#971 = DIRECTION ( 'NONE',  ( -0.000000000000000000, -1.000000000000000000, -0.000000000000000000 ) ) ;
#972 = ORIENTED_EDGE ( 'NONE', *, *, #212, .F. ) ;
#973 = DIRECTION ( 'NONE',  ( -1.000000000000000000, -0.000000000000000000, -0.000000000000000000 ) ) ;
#974 = DIRECTION ( 'NONE',  ( 1.000000000000000000, 0.000000000000000000, 0.000000000000000000 ) ) ;
#975 = CARTESIAN_POINT ( 'NONE',  ( 24.00000000000000000, 40.00000000000000711, 15.00000000000000000 ) ) ;
#976 = CARTESIAN_POINT ( 'NONE',  ( 29.79999999999999005, 69.50000000000000000, 0.000000000000000000 ) ) ;
#977 = EDGE_CURVE ( 'NONE', #805, #681, #498, .T. ) ;
#978 = VERTEX_POINT ( 'NONE', #817 ) ;
#979 = EDGE_CURVE ( 'NONE', #377, #106, #749, .T. ) ;
#980 = DIRECTION ( 'NONE',  ( 1.000000000000000000, -0.000000000000000000, -0.000000000000000000 ) ) ;
#981 = DIRECTION ( 'NONE',  ( 1.000000000000000000, 0.000000000000000000, 0.000000000000000000 ) ) ;
#982 = CARTESIAN_POINT ( 'NONE',  ( 74.99999999999994316, 19.99999999999998579, 0.000000000000000000 ) ) ;
#983 = DIRECTION ( 'NONE',  ( -0.000000000000000000, 0.000000000000000000, 1.000000000000000000 ) ) ;
#984 = ORIENTED_EDGE ( 'NONE', *, *, #303, .T. ) ;
#985 = ADVANCED_FACE ( 'NONE', ( #184 ), #405, .T. ) ;
#986 = FACE_OUTER_BOUND ( 'NONE', #855, .T. ) ;
#987 = CARTESIAN_POINT ( 'NONE',  ( 74.99999999999994316, 19.99999999999998579, 3.499999999999977796 ) ) ;
#988 = DIRECTION ( 'NONE',  ( -0.000000000000000000, -0.000000000000000000, -1.000000000000000000 ) ) ;
#989 = AXIS2_PLACEMENT_3D ( 'NONE', #982, #124, #744 ) ;
#990 = DIRECTION ( 'NONE',  ( -0.000000000000000000, -0.000000000000000000, -1.000000000000000000 ) ) ;
#991 = ORIENTED_EDGE ( 'NONE', *, *, #93, .F. ) ;
#992 = CARTESIAN_POINT ( 'NONE',  ( 53.22712816806904357, -52.85966931552524528, 5.163993554029087996 ) ) ;
#993 = CARTESIAN_POINT ( 'NONE',  ( 73.39999999999999147, -19.99999999999998579, 5.000000000000000000 ) ) ;
#994 = ORIENTED_EDGE ( 'NONE', *, *, #789, .T. ) ;
#995 = ORIENTED_EDGE ( 'NONE', *, *, #685, .T. ) ;
#996 = CARTESIAN_POINT ( 'NONE',  ( 52.13435301906726238, -53.93925756858932630, 5.000000000000000000 ) ) ;
#997 = EDGE_CURVE ( 'NONE', #978, #480, #641, .T. ) ;
#998 = VERTEX_POINT ( 'NONE', #127 ) ;
#999 = VECTOR ( 'NONE', #455, 1000.000000000000000 ) ;
#1000 = EDGE_LOOP ( 'NONE', ( #63, #525, #797, #20 ) ) ;
#1001 = DIRECTION ( 'NONE',  ( 0.7071067811865493491, 0.000000000000000000, 0.7071067811865455743 ) ) ;
#1002 = FACE_OUTER_BOUND ( 'NONE', #824, .T. ) ;
#1003 = CARTESIAN_POINT ( 'NONE',  ( 63.44288770224761009, 40.00000000000000711, 6.000000000000000000 ) ) ;
#1004 = CIRCLE ( 'NONE', #551, 1.600000000000004086 ) ;
#1005 = ORIENTED_EDGE ( 'NONE', *, *, #911, .T. ) ;
#1006 = CARTESIAN_POINT ( 'NONE',  ( 26.59999999999999432, -69.50000000000000000, 5.000000000000000000 ) ) ;
#1007 = VECTOR ( 'NONE', #403, 1000.000000000000000 ) ;
#1008 = CARTESIAN_POINT ( 'NONE',  ( 63.53496838771602029, -39.85363723902788990, 5.460783922577091332 ) ) ;
#1009 = DIRECTION ( 'NONE',  ( 1.000000000000000000, 0.000000000000000000, -0.000000000000000000 ) ) ;
#1010 = ORIENTED_EDGE ( 'NONE', *, *, #905, .T. ) ;
#1011 = ADVANCED_FACE ( 'NONE', ( #276 ), #25, .F. ) ;
#1012 = FACE_OUTER_BOUND ( 'NONE', #101, .T. ) ;
#1013 = CARTESIAN_POINT ( 'NONE',  ( 24.00000000000000000, 39.00000000000000711, 6.000000000000000000 ) ) ;
ENDSEC;
END-ISO-10303-21;
