ISO-10303-21;
HEADER;
FILE_DESCRIPTION (( 'STEP AP214' ),
    '1' );
FILE_NAME ('chipper.STEP',
    '2026-03-24T22:39:12',
    ( '' ),
    ( '' ),
    'SwSTEP 2.0',
    'SolidWorks 2026',
    '' );
FILE_SCHEMA (( 'AUTOMOTIVE_DESIGN' ));
ENDSEC;

DATA;
#1 = CIRCLE ( 'NONE', #581, 5.000000000000009770 ) ;
#2 = FACE_OUTER_BOUND ( 'NONE', #238, .T. ) ;
#3 = AXIS2_PLACEMENT_3D ( 'NONE', #472, #7, #318 ) ;
#4 = DIRECTION ( 'NONE',  ( 0.000000000000000000, -1.445602896647339656E-16, -1.000000000000000000 ) ) ;
#5 = VERTEX_POINT ( 'NONE', #800 ) ;
#6 = UNCERTAINTY_MEASURE_WITH_UNIT (LENGTH_MEASURE( 1.000000000000000082E-05 ), #983, 'distance_accuracy_value', 'NONE');
#7 = DIRECTION ( 'NONE',  ( 1.000000000000000000, -0.000000000000000000, -0.000000000000000000 ) ) ;
#8 = EDGE_LOOP ( 'NONE', ( #728, #717 ) ) ;
#9 = ORIENTED_EDGE ( 'NONE', *, *, #798, .T. ) ;
#10 = DIRECTION ( 'NONE',  ( 1.000000000000000000, 0.000000000000000000, 0.000000000000000000 ) ) ;
#11 = PRESENTATION_LAYER_ASSIGNMENT (  '', '', ( #468 ) ) ;
#12 = DIRECTION ( 'NONE',  ( 0.000000000000000000, 0.000000000000000000, 1.000000000000000000 ) ) ;
#13 = AXIS2_PLACEMENT_3D ( 'NONE', #305, #392, #298 ) ;
#14 = ORIENTED_EDGE ( 'NONE', *, *, #865, .F. ) ;
#15 = ORIENTED_EDGE ( 'NONE', *, *, #1020, .F. ) ;
#16 = ORIENTED_EDGE ( 'NONE', *, *, #873, .F. ) ;
#17 = EDGE_CURVE ( 'NONE', #740, #987, #335, .T. ) ;
#18 = AXIS2_PLACEMENT_3D ( 'NONE', #559, #702, #232 ) ;
#19 = LINE ( 'NONE', #172, #867 ) ;
#20 = CARTESIAN_POINT ( 'NONE',  ( -62.50000000000000000, 7.000000000000000888, 8.000000000000000000 ) ) ;
#21 = VERTEX_POINT ( 'NONE', #340 ) ;
#22 = DIRECTION ( 'NONE',  ( -1.000000000000000000, -0.000000000000000000, -0.000000000000000000 ) ) ;
#23 = ORIENTED_EDGE ( 'NONE', *, *, #935, .T. ) ;
#24 = ORIENTED_EDGE ( 'NONE', *, *, #943, .F. ) ;
#25 = CARTESIAN_POINT ( 'NONE',  ( 4.000000000000000000, -1.000000000000000000, -11.00000000000000000 ) ) ;
#26 = FACE_OUTER_BOUND ( 'NONE', #687, .T. ) ;
#27 = ORIENTED_EDGE ( 'NONE', *, *, #668, .F. ) ;
#28 = ORIENTED_EDGE ( 'NONE', *, *, #129, .F. ) ;
#29 = DIRECTION ( 'NONE',  ( 0.000000000000000000, -0.7071067811865475727, 0.7071067811865474617 ) ) ;
#30 = CARTESIAN_POINT ( 'NONE',  ( 4.000000000000000000, 2.000000000000000444, 5.975000000000001421 ) ) ;
#31 = EDGE_CURVE ( 'NONE', #98, #375, #320, .T. ) ;
#32 = VECTOR ( 'NONE', #562, 1000.000000000000000 ) ;
#33 = ORIENTED_EDGE ( 'NONE', *, *, #485, .T. ) ;
#34 = VECTOR ( 'NONE', #500, 1000.000000000000000 ) ;
#35 = ORIENTED_EDGE ( 'NONE', *, *, #1015, .T. ) ;
#36 = DIRECTION ( 'NONE',  ( 0.000000000000000000, 0.000000000000000000, -1.000000000000000000 ) ) ;
#37 = CARTESIAN_POINT ( 'NONE',  ( 4.000000000000000000, 2.000000000000000000, 8.000000000000000000 ) ) ;
#38 = VECTOR ( 'NONE', #787, 1000.000000000000000 ) ;
#39 = AXIS2_PLACEMENT_3D ( 'NONE', #120, #840, #1012 ) ;
#40 = DIRECTION ( 'NONE',  ( 1.000000000000000000, -0.000000000000000000, -0.000000000000000000 ) ) ;
#41 = EDGE_LOOP ( 'NONE', ( #615, #63, #804, #886 ) ) ;
#42 = ORIENTED_EDGE ( 'NONE', *, *, #806, .F. ) ;
#43 = LINE ( 'NONE', #914, #483 ) ;
#44 = ORIENTED_EDGE ( 'NONE', *, *, #780, .F. ) ;
#45 = DIRECTION ( 'NONE',  ( -1.000000000000000000, -0.000000000000000000, -0.000000000000000000 ) ) ;
#46 = DIRECTION ( 'NONE',  ( 0.000000000000000000, 0.000000000000000000, 1.000000000000000000 ) ) ;
#47 = DIRECTION ( 'NONE',  ( -1.000000000000000000, 0.000000000000000000, 0.000000000000000000 ) ) ;
#48 = ORIENTED_EDGE ( 'NONE', *, *, #524, .F. ) ;
#49 = ORIENTED_EDGE ( 'NONE', *, *, #999, .F. ) ;
#50 = FACE_OUTER_BOUND ( 'NONE', #748, .T. ) ;
#51 = MANIFOLD_SOLID_BREP ( 'Mirror9', #321 ) ;
#52 = DIRECTION ( 'NONE',  ( 1.000000000000000000, -0.000000000000000000, -0.000000000000000000 ) ) ;
#53 = CARTESIAN_POINT ( 'NONE',  ( -62.50000000000000000, -11.38544155877285036, -10.38544155877285569 ) ) ;
#54 = ORIENTED_EDGE ( 'NONE', *, *, #341, .T. ) ;
#55 = AXIS2_PLACEMENT_3D ( 'NONE', #534, #926, #205 ) ;
#56 = ORIENTED_EDGE ( 'NONE', *, *, #743, .T. ) ;
#57 = CARTESIAN_POINT ( 'NONE',  ( 4.000000000000000000, -12.65685424949239923, 2.000000000000000000 ) ) ;
#58 = CARTESIAN_POINT ( 'NONE',  ( -62.50000000000000000, 1.505703239551670331E-16, 1.229499999999999593 ) ) ;
#59 = DIRECTION ( 'NONE',  ( 1.000000000000000000, -0.000000000000000000, -0.000000000000000000 ) ) ;
#60 = CIRCLE ( 'NONE', #710, 2.024999999999999023 ) ;
#61 = EDGE_LOOP ( 'NONE', ( #584, #994, #571, #181 ) ) ;
#62 = EDGE_CURVE ( 'NONE', #367, #156, #794, .T. ) ;
#63 = ORIENTED_EDGE ( 'NONE', *, *, #154, .F. ) ;
#64 = DIRECTION ( 'NONE',  ( -0.000000000000000000, -0.7071067811865474617, -0.7071067811865476838 ) ) ;
#65 = DIRECTION ( 'NONE',  ( 1.000000000000000000, -0.000000000000000000, -0.000000000000000000 ) ) ;
#66 = CARTESIAN_POINT ( 'NONE',  ( -62.50000000000000000, 2.000000000000000000, 4.071067811865501263 ) ) ;
#67 = PLANE ( 'NONE',  #538 ) ;
#68 = LINE ( 'NONE', #602, #386 ) ;
#69 = EDGE_CURVE ( 'NONE', #982, #899, #230, .T. ) ;
#70 = CYLINDRICAL_SURFACE ( 'NONE', #469, 1.229499999999999593 ) ;
#71 = CIRCLE ( 'NONE', #13, 5.000000000000009770 ) ;
#72 = CYLINDRICAL_SURFACE ( 'NONE', #348, 0.3599999999999922706 ) ;
#73 = VECTOR ( 'NONE', #853, 1000.000000000000000 ) ;
#74 = ORIENTED_EDGE ( 'NONE', *, *, #226, .F. ) ;
#75 = DIRECTION ( 'NONE',  ( 1.000000000000000000, -0.000000000000000000, -0.000000000000000000 ) ) ;
#76 = DIRECTION ( 'NONE',  ( 0.000000000000000000, 0.7071067811865474617, 0.7071067811865475727 ) ) ;
#77 = EDGE_CURVE ( 'NONE', #656, #176, #809, .T. ) ;
#78 = LINE ( 'NONE', #379, #742 ) ;
#79 = DIRECTION ( 'NONE',  ( 1.000000000000000000, -0.000000000000000000, -0.000000000000000000 ) ) ;
#80 = AXIS2_PLACEMENT_3D ( 'NONE', #106, #975, #417 ) ;
#81 = AXIS2_PLACEMENT_3D ( 'NONE', #345, #122, #332 ) ;
#82 = LINE ( 'NONE', #951, #622 ) ;
#83 = AXIS2_PLACEMENT_3D ( 'NONE', #192, #519, #443 ) ;
#84 = ORIENTED_EDGE ( 'NONE', *, *, #621, .T. ) ;
#85 = EDGE_CURVE ( 'NONE', #740, #128, #878, .T. ) ;
#86 = ORIENTED_EDGE ( 'NONE', *, *, #1013, .T. ) ;
#87 = DIRECTION ( 'NONE',  ( 1.000000000000000000, -0.000000000000000000, -0.000000000000000000 ) ) ;
#88 = ORIENTED_EDGE ( 'NONE', *, *, #959, .T. ) ;
#89 = SURFACE_SIDE_STYLE ('',( #160 ) ) ;
#90 = PLANE ( 'NONE',  #438 ) ;
#91 = DIRECTION ( 'NONE',  ( 0.000000000000000000, 0.000000000000000000, 1.000000000000000000 ) ) ;
#92 = EDGE_LOOP ( 'NONE', ( #522, #193, #437, #175, #195, #663, #56, #513, #35 ) ) ;
#93 = ADVANCED_FACE ( 'NONE', ( #718 ), #94, .F. ) ;
#94 = CYLINDRICAL_SURFACE ( 'NONE', #931, 1.229499999999999593 ) ;
#95 = DIRECTION ( 'NONE',  ( 0.000000000000000000, 0.000000000000000000, -1.000000000000000000 ) ) ;
#96 = DIRECTION ( 'NONE',  ( 0.000000000000000000, 0.000000000000000000, 1.000000000000000000 ) ) ;
#97 = EDGE_LOOP ( 'NONE', ( #105, #793, #33, #883 ) ) ;
#98 = VERTEX_POINT ( 'NONE', #509 ) ;
#99 = VERTEX_POINT ( 'NONE', #752 ) ;
#100 = CIRCLE ( 'NONE', #39, 2.024999999999999023 ) ;
#101 = FACE_OUTER_BOUND ( 'NONE', #409, .T. ) ;
#102 = CARTESIAN_POINT ( 'NONE',  ( -58.50000000000000000, 7.000000000000000888, 8.000000000000000000 ) ) ;
#103 = ORIENTED_EDGE ( 'NONE', *, *, #668, .T. ) ;
#104 = DIRECTION ( 'NONE',  ( 0.000000000000000000, 0.000000000000000000, 1.000000000000000000 ) ) ;
#105 = ORIENTED_EDGE ( 'NONE', *, *, #628, .F. ) ;
#106 = CARTESIAN_POINT ( 'NONE',  ( -62.50000000000000000, 0.000000000000000000, 0.000000000000000000 ) ) ;
#107 = ADVANCED_FACE ( 'NONE', ( #50 ), #1002, .F. ) ;
#108 = FACE_BOUND ( 'NONE', #258, .T. ) ;
#109 = CARTESIAN_POINT ( 'NONE',  ( 0.000000000000000000, 2.000000000000000000, 4.071067811865501263 ) ) ;
#110 = EDGE_LOOP ( 'NONE', ( #23, #276, #338, #275 ) ) ;
#111 = VERTEX_POINT ( 'NONE', #196 ) ;
#112 = CARTESIAN_POINT ( 'NONE',  ( 0.000000000000000000, 2.000000000000000000, 8.000000000000000000 ) ) ;
#113 = LINE ( 'NONE', #350, #247 ) ;
#114 = CARTESIAN_POINT ( 'NONE',  ( 4.000000000000000000, 5.535533905932749299, 0.5355339059327515194 ) ) ;
#115 = ORIENTED_EDGE ( 'NONE', *, *, #311, .T. ) ;
#116 = VECTOR ( 'NONE', #570, 1000.000000000000000 ) ;
#117 = ORIENTED_EDGE ( 'NONE', *, *, #166, .F. ) ;
#118 = EDGE_LOOP ( 'NONE', ( #399, #346, #241, #508 ) ) ;
#119 = CYLINDRICAL_SURFACE ( 'NONE', #833, 9.656854249492397457 ) ;
#120 = CARTESIAN_POINT ( 'NONE',  ( 0.000000000000000000, 2.000000000000000000, 8.000000000000000000 ) ) ;
#121 = VECTOR ( 'NONE', #76, 1000.000000000000000 ) ;
#122 = DIRECTION ( 'NONE',  ( 1.000000000000000000, 0.000000000000000000, 0.000000000000000000 ) ) ;
#123 = VERTEX_POINT ( 'NONE', #369 ) ;
#124 = ORIENTED_EDGE ( 'NONE', *, *, #311, .F. ) ;
#125 = FACE_OUTER_BOUND ( 'NONE', #118, .T. ) ;
#126 = LINE ( 'NONE', #517, #178 ) ;
#127 = DIRECTION ( 'NONE',  ( -1.000000000000000000, -0.000000000000000000, -0.000000000000000000 ) ) ;
#128 = VERTEX_POINT ( 'NONE', #902 ) ;
#129 = EDGE_CURVE ( 'NONE', #496, #767, #211, .T. ) ;
#130 = EDGE_LOOP ( 'NONE', ( #354, #368, #42, #735, #790, #839, #117, #913 ) ) ;
#131 = DIRECTION ( 'NONE',  ( 0.000000000000000000, 0.000000000000000000, -1.000000000000000000 ) ) ;
#132 = PLANE ( 'NONE',  #219 ) ;
#133 = ADVANCED_FACE ( 'NONE', ( #916, #850, #523 ), #529, .F. ) ;
#134 = ADVANCED_FACE ( 'NONE', ( #452 ), #611, .F. ) ;
#135 = ORIENTED_EDGE ( 'NONE', *, *, #383, .T. ) ;
#136 = AXIS2_PLACEMENT_3D ( 'NONE', #828, #173, #262 ) ;
#137 = ORIENTED_EDGE ( 'NONE', *, *, #608, .T. ) ;
#138 = CARTESIAN_POINT ( 'NONE',  ( 0.000000000000000000, 2.000000000000000000, 8.000000000000000000 ) ) ;
#139 = LINE ( 'NONE', #612, #301 ) ;
#140 = CARTESIAN_POINT ( 'NONE',  ( -58.50000000000000000, 2.000000000000000000, 5.975000000000001421 ) ) ;
#141 = AXIS2_PLACEMENT_3D ( 'NONE', #489, #641, #737 ) ;
#142 = DIRECTION ( 'NONE',  ( 1.000000000000000000, -0.000000000000000000, -0.000000000000000000 ) ) ;
#143 = EDGE_CURVE ( 'NONE', #767, #156, #194, .T. ) ;
#144 = DIRECTION ( 'NONE',  ( 1.000000000000000000, 0.000000000000000000, 0.000000000000000000 ) ) ;
#145 = PLANE ( 'NONE',  #384 ) ;
#146 = DIRECTION ( 'NONE',  ( -1.000000000000000000, -0.000000000000000000, -0.000000000000000000 ) ) ;
#147 = CARTESIAN_POINT ( 'NONE',  ( -58.50000000000000000, 1.505703239551670331E-16, 1.229499999999999593 ) ) ;
#148 = EDGE_CURVE ( 'NONE', #849, #174, #792, .T. ) ;
#149 = CYLINDRICAL_SURFACE ( 'NONE', #747, 1.229499999999999593 ) ;
#150 = CARTESIAN_POINT ( 'NONE',  ( -62.50000000000000000, 2.000000000000000000, 5.975000000000001421 ) ) ;
#151 = DIRECTION ( 'NONE',  ( -1.000000000000000000, -0.000000000000000000, -0.000000000000000000 ) ) ;
#152 = DIRECTION ( 'NONE',  ( 0.000000000000000000, -1.000000000000000000, 1.445602896647339656E-16 ) ) ;
#153 = CARTESIAN_POINT ( 'NONE',  ( -58.50000000000000000, -5.999999999999994671, -4.999999999999999112 ) ) ;
#154 = EDGE_CURVE ( 'NONE', #427, #882, #770, .T. ) ;
#155 = EDGE_CURVE ( 'NONE', #427, #5, #394, .T. ) ;
#156 = VERTEX_POINT ( 'NONE', #183 ) ;
#157 = AXIS2_PLACEMENT_3D ( 'NONE', #303, #942, #930 ) ;
#158 = DIRECTION ( 'NONE',  ( 0.000000000000000000, 0.000000000000000000, -1.000000000000000000 ) ) ;
#159 = ORIENTED_EDGE ( 'NONE', *, *, #208, .F. ) ;
#160 = SURFACE_STYLE_FILL_AREA ( #488 ) ;
#161 = CARTESIAN_POINT ( 'NONE',  ( 0.000000000000000000, -1.000000000000000000, -4.999999999999999112 ) ) ;
#162 = EDGE_CURVE ( 'NONE', #367, #496, #659, .T. ) ;
#163 = VERTEX_POINT ( 'NONE', #349 ) ;
#164 = CARTESIAN_POINT ( 'NONE',  ( 4.000000000000000000, 2.000000000000000444, 5.975000000000001421 ) ) ;
#165 = FACE_OUTER_BOUND ( 'NONE', #110, .T. ) ;
#166 = EDGE_CURVE ( 'NONE', #5, #363, #666, .T. ) ;
#167 = DIRECTION ( 'NONE',  ( 1.000000000000000000, 0.000000000000000000, 0.000000000000000000 ) ) ;
#168 = EDGE_LOOP ( 'NONE', ( #672, #961 ) ) ;
#169 = ORIENTED_EDGE ( 'NONE', *, *, #640, .T. ) ;
#170 = CYLINDRICAL_SURFACE ( 'NONE', #964, 2.024999999999999023 ) ;
#171 = CARTESIAN_POINT ( 'NONE',  ( 4.000000000000000000, -11.13088311754569837, -11.00000000000000000 ) ) ;
#172 = CARTESIAN_POINT ( 'NONE',  ( 4.000000000000000000, 1.505703239551670331E-16, -1.229499999999999593 ) ) ;
#173 = DIRECTION ( 'NONE',  ( -0.000000000000000000, 0.000000000000000000, -1.000000000000000000 ) ) ;
#174 = VERTEX_POINT ( 'NONE', #990 ) ;
#175 = ORIENTED_EDGE ( 'NONE', *, *, #708, .T. ) ;
#176 = VERTEX_POINT ( 'NONE', #595 ) ;
#177 = VECTOR ( 'NONE', #919, 1000.000000000000000 ) ;
#178 = VECTOR ( 'NONE', #675, 1000.000000000000000 ) ;
#179 = FACE_BOUND ( 'NONE', #673, .T. ) ;
#180 = CARTESIAN_POINT ( 'NONE',  ( -58.50000000000000000, -1.000000000000000000, -5.999999999999999112 ) ) ;
#181 = ORIENTED_EDGE ( 'NONE', *, *, #647, .T. ) ;
#182 = ORIENTED_EDGE ( 'NONE', *, *, #778, .T. ) ;
#183 = CARTESIAN_POINT ( 'NONE',  ( 0.000000000000000000, 2.000000000000000444, 5.975000000000001421 ) ) ;
#184 = DIRECTION ( 'NONE',  ( 1.000000000000000000, -0.000000000000000000, -0.000000000000000000 ) ) ;
#185 = DIRECTION ( 'NONE',  ( 1.000000000000000000, -0.000000000000000000, -0.000000000000000000 ) ) ;
#186 = ORIENTED_EDGE ( 'NONE', *, *, #148, .T. ) ;
#187 = VERTEX_POINT ( 'NONE', #908 ) ;
#188 = DIRECTION ( 'NONE',  ( 0.000000000000000000, 0.000000000000000000, -1.000000000000000000 ) ) ;
#189 = ADVANCED_FACE ( 'NONE', ( #190 ), #119, .F. ) ;
#190 = FACE_OUTER_BOUND ( 'NONE', #587, .T. ) ;
#191 = CYLINDRICAL_SURFACE ( 'NONE', #797, 5.000000000000000888 ) ;
#192 = CARTESIAN_POINT ( 'NONE',  ( -62.50000000000000000, 0.000000000000000000, 0.000000000000000000 ) ) ;
#193 = ORIENTED_EDGE ( 'NONE', *, *, #492, .T. ) ;
#194 = CIRCLE ( 'NONE', #781, 2.024999999999999023 ) ;
#195 = ORIENTED_EDGE ( 'NONE', *, *, #628, .T. ) ;
#196 = CARTESIAN_POINT ( 'NONE',  ( -58.50000000000000000, 5.535533905932743970, 0.5355339059327567375 ) ) ;
#197 = DIRECTION ( 'NONE',  ( 0.000000000000000000, -1.000000000000000000, -4.415254305522827842E-16 ) ) ;
#198 = VECTOR ( 'NONE', #237, 1000.000000000000000 ) ;
#199 = CIRCLE ( 'NONE', #287, 9.656854249492397457 ) ;
#200 = FACE_OUTER_BOUND ( 'NONE', #829, .T. ) ;
#201 = ADVANCED_FACE ( 'NONE', ( #125 ), #145, .F. ) ;
#202 = ADVANCED_BREP_SHAPE_REPRESENTATION ( 'chipper', ( #51, #235 ), #398 ) ;
#203 = EDGE_LOOP ( 'NONE', ( #1021, #88, #981, #283, #692, #408, #306, #15 ) ) ;
#204 = EDGE_LOOP ( 'NONE', ( #670, #319, #844, #402 ) ) ;
#205 = DIRECTION ( 'NONE',  ( 0.000000000000000000, 0.000000000000000000, -1.000000000000000000 ) ) ;
#206 = CARTESIAN_POINT ( 'NONE',  ( -58.50000000000000000, 0.000000000000000000, 0.000000000000000000 ) ) ;
#207 = CARTESIAN_POINT ( 'NONE',  ( 4.000000000000000000, 0.000000000000000000, 1.229499999999999593 ) ) ;
#208 = EDGE_CURVE ( 'NONE', #176, #598, #866, .T. ) ;
#209 = ORIENTED_EDGE ( 'NONE', *, *, #686, .F. ) ;
#210 = ORIENTED_EDGE ( 'NONE', *, *, #689, .F. ) ;
#211 = LINE ( 'NONE', #826, #214 ) ;
#212 = DIRECTION ( 'NONE',  ( 1.000000000000000000, -0.000000000000000000, -0.000000000000000000 ) ) ;
#213 = CARTESIAN_POINT ( 'NONE',  ( -58.50000000000000000, -5.828427124746193400, -4.828427124746196064 ) ) ;
#214 = VECTOR ( 'NONE', #45, 1000.000000000000000 ) ;
#215 = ORIENTED_EDGE ( 'NONE', *, *, #526, .F. ) ;
#216 = DIRECTION ( 'NONE',  ( 1.000000000000000000, 0.000000000000000000, 0.000000000000000000 ) ) ;
#217 = EDGE_CURVE ( 'NONE', #750, #955, #682, .T. ) ;
#218 = CARTESIAN_POINT ( 'NONE',  ( -58.50000000000000000, 2.000000000000000444, 10.02499999999999858 ) ) ;
#219 = AXIS2_PLACEMENT_3D ( 'NONE', #223, #448, #841 ) ;
#220 = CYLINDRICAL_SURFACE ( 'NONE', #299, 5.000000000000000888 ) ;
#221 = AXIS2_PLACEMENT_3D ( 'NONE', #847, #144, #1005 ) ;
#222 = CARTESIAN_POINT ( 'NONE',  ( 4.000000000000000000, -11.13088311754569837, -11.00000000000000000 ) ) ;
#223 = CARTESIAN_POINT ( 'NONE',  ( -62.50000000000000000, 5.535533905932749299, 0.5355339059327515194 ) ) ;
#224 = ADVANCED_FACE ( 'NONE', ( #945 ), #407, .F. ) ;
#225 = CARTESIAN_POINT ( 'NONE',  ( 4.000000000000000000, 0.000000000000000000, 0.000000000000000000 ) ) ;
#226 = EDGE_CURVE ( 'NONE', #174, #721, #958, .T. ) ;
#227 = ORIENTED_EDGE ( 'NONE', *, *, #406, .T. ) ;
#228 = FACE_OUTER_BOUND ( 'NONE', #290, .T. ) ;
#229 = DIRECTION ( 'NONE',  ( 1.000000000000000000, -0.000000000000000000, -0.000000000000000000 ) ) ;
#230 = CIRCLE ( 'NONE', #80, 1.229499999999999593 ) ;
#231 = CIRCLE ( 'NONE', #281, 9.656854249492397457 ) ;
#232 = DIRECTION ( 'NONE',  ( 0.000000000000000000, 1.445602896647339656E-16, 1.000000000000000000 ) ) ;
#233 = ADVANCED_FACE ( 'NONE', ( #777 ), #70, .F. ) ;
#234 = VECTOR ( 'NONE', #366, 1000.000000000000000 ) ;
#235 = AXIS2_PLACEMENT_3D ( 'NONE', #572, #104, #887 ) ;
#236 = PLANE ( 'NONE',  #1003 ) ;
#237 = DIRECTION ( 'NONE',  ( 1.000000000000000000, -0.000000000000000000, -0.000000000000000000 ) ) ;
#238 = EDGE_LOOP ( 'NONE', ( #374, #135, #501, #755 ) ) ;
#239 = DIRECTION ( 'NONE',  ( 0.000000000000000000, 0.000000000000000000, -1.000000000000000000 ) ) ;
#240 = ORIENTED_EDGE ( 'NONE', *, *, #473, .F. ) ;
#241 = ORIENTED_EDGE ( 'NONE', *, *, #859, .F. ) ;
#242 = EDGE_CURVE ( 'NONE', #428, #941, #385, .T. ) ;
#243 = AXIS2_PLACEMENT_3D ( 'NONE', #679, #845, #688 ) ;
#244 = DIRECTION ( 'NONE',  ( 0.000000000000000000, 0.000000000000000000, 1.000000000000000000 ) ) ;
#245 = ORIENTED_EDGE ( 'NONE', *, *, #434, .F. ) ;
#246 = AXIS2_PLACEMENT_3D ( 'NONE', #965, #910, #801 ) ;
#247 = VECTOR ( 'NONE', #606, 1000.000000000000000 ) ;
#248 = ORIENTED_EDGE ( 'NONE', *, *, #166, .T. ) ;
#249 = LINE ( 'NONE', #984, #371 ) ;
#250 = LINE ( 'NONE', #180, #116 ) ;
#251 = VERTEX_POINT ( 'NONE', #616 ) ;
#252 = ORIENTED_EDGE ( 'NONE', *, *, #162, .T. ) ;
#253 = EDGE_LOOP ( 'NONE', ( #580, #993, #769, #28 ) ) ;
#254 = ADVANCED_FACE ( 'NONE', ( #948 ), #1019, .T. ) ;
#255 = DIRECTION ( 'NONE',  ( -1.000000000000000000, -0.000000000000000000, -0.000000000000000000 ) ) ;
#256 = LINE ( 'NONE', #20, #551 ) ;
#257 = ORIENTED_EDGE ( 'NONE', *, *, #1015, .F. ) ;
#258 = EDGE_LOOP ( 'NONE', ( #44, #812 ) ) ;
#259 = CARTESIAN_POINT ( 'NONE',  ( -62.50000000000000000, 7.000000000000000888, 8.000000000000000000 ) ) ;
#260 = DIRECTION ( 'NONE',  ( -1.000000000000000000, -0.000000000000000000, -0.000000000000000000 ) ) ;
#261 = VECTOR ( 'NONE', #738, 1000.000000000000000 ) ;
#262 = DIRECTION ( 'NONE',  ( -1.000000000000000000, 0.000000000000000000, 0.000000000000000000 ) ) ;
#263 = ORIENTED_EDGE ( 'NONE', *, *, #621, .F. ) ;
#264 = ORIENTED_EDGE ( 'NONE', *, *, #462, .F. ) ;
#265 = CIRCLE ( 'NONE', #632, 5.000000000000009770 ) ;
#266 = VECTOR ( 'NONE', #997, 1000.000000000000000 ) ;
#267 = DIRECTION ( 'NONE',  ( 0.000000000000000000, 0.000000000000000000, -1.000000000000000000 ) ) ;
#268 = EDGE_CURVE ( 'NONE', #363, #553, #548, .T. ) ;
#269 = CARTESIAN_POINT ( 'NONE',  ( 0.000000000000000000, -3.000000000000000000, 8.000000000000000000 ) ) ;
#270 = VERTEX_POINT ( 'NONE', #147 ) ;
#271 = ORIENTED_EDGE ( 'NONE', *, *, #396, .F. ) ;
#272 = PLANE ( 'NONE',  #503 ) ;
#273 = DIRECTION ( 'NONE',  ( -1.000000000000000000, -0.000000000000000000, -0.000000000000000000 ) ) ;
#274 = ORIENTED_EDGE ( 'NONE', *, *, #978, .T. ) ;
#275 = ORIENTED_EDGE ( 'NONE', *, *, #960, .T. ) ;
#276 = ORIENTED_EDGE ( 'NONE', *, *, #647, .F. ) ;
#277 = DIRECTION ( 'NONE',  ( 0.000000000000000000, 0.000000000000000000, -1.000000000000000000 ) ) ;
#278 = EDGE_CURVE ( 'NONE', #289, #603, #552, .T. ) ;
#279 = DIRECTION ( 'NONE',  ( 1.000000000000000000, -0.000000000000000000, -0.000000000000000000 ) ) ;
#280 = LINE ( 'NONE', #288, #855 ) ;
#281 = AXIS2_PLACEMENT_3D ( 'NONE', #972, #904, #337 ) ;
#282 = EDGE_LOOP ( 'NONE', ( #729, #739, #653, #137 ) ) ;
#283 = ORIENTED_EDGE ( 'NONE', *, *, #356, .F. ) ;
#284 = ADVANCED_FACE ( 'NONE', ( #856 ), #720, .F. ) ;
#285 = CARTESIAN_POINT ( 'NONE',  ( 0.000000000000000000, -5.999999999999997335, -4.999999999999999112 ) ) ;
#286 = CIRCLE ( 'NONE', #246, 5.000000000000000888 ) ;
#287 = AXIS2_PLACEMENT_3D ( 'NONE', #594, #355, #188 ) ;
#288 = CARTESIAN_POINT ( 'NONE',  ( 4.000000000000000000, -3.000000000000000000, 8.000000000000000000 ) ) ;
#289 = VERTEX_POINT ( 'NONE', #775 ) ;
#290 = EDGE_LOOP ( 'NONE', ( #24, #484, #1007, #274 ) ) ;
#291 = CARTESIAN_POINT ( 'NONE',  ( 4.000000000000000000, -11.38544155877285036, -10.38544155877285569 ) ) ;
#292 = LINE ( 'NONE', #927, #857 ) ;
#293 = CARTESIAN_POINT ( 'NONE',  ( -62.50000000000000000, 5.535533905932743970, 0.5355339059327567375 ) ) ;
#294 = ADVANCED_FACE ( 'NONE', ( #703 ), #67, .F. ) ;
#295 = CARTESIAN_POINT ( 'NONE',  ( -62.50000000000000000, -3.000000000000002665, 2.000000000000001776 ) ) ;
#296 = PLANE ( 'NONE',  #726 ) ;
#297 = VECTOR ( 'NONE', #490, 1000.000000000000000 ) ;
#298 = DIRECTION ( 'NONE',  ( 0.000000000000000000, 0.000000000000000000, -1.000000000000000000 ) ) ;
#299 = AXIS2_PLACEMENT_3D ( 'NONE', #382, #544, #378 ) ;
#300 = DIRECTION ( 'NONE',  ( 0.000000000000000000, 0.000000000000000000, -1.000000000000000000 ) ) ;
#301 = VECTOR ( 'NONE', #46, 1000.000000000000000 ) ;
#302 = EDGE_CURVE ( 'NONE', #831, #915, #78, .T. ) ;
#303 = CARTESIAN_POINT ( 'NONE',  ( 4.000000000000000000, 2.000000000000000000, 8.000000000000000000 ) ) ;
#304 = DIRECTION ( 'NONE',  ( 0.000000000000000000, 0.000000000000000000, -1.000000000000000000 ) ) ;
#305 = CARTESIAN_POINT ( 'NONE',  ( 4.000000000000000000, 2.000000000000000000, 4.071067811865501263 ) ) ;
#306 = ORIENTED_EDGE ( 'NONE', *, *, #960, .F. ) ;
#307 = EDGE_CURVE ( 'NONE', #520, #831, #71, .T. ) ;
#308 = DIRECTION ( 'NONE',  ( -1.000000000000000000, -0.000000000000000000, -0.000000000000000000 ) ) ;
#309 = DIRECTION ( 'NONE',  ( 0.000000000000000000, 0.000000000000000000, -1.000000000000000000 ) ) ;
#310 = CIRCLE ( 'NONE', #946, 0.3599999999999922706 ) ;
#311 = EDGE_CURVE ( 'NONE', #882, #428, #722, .T. ) ;
#312 = CARTESIAN_POINT ( 'NONE',  ( 0.000000000000000000, 5.535533905932743970, 0.5355339059327567375 ) ) ;
#313 = AXIS2_PLACEMENT_3D ( 'NONE', #563, #549, #635 ) ;
#314 = LINE ( 'NONE', #393, #198 ) ;
#315 = ADVANCED_FACE ( 'NONE', ( #631 ), #236, .T. ) ;
#316 = ORIENTED_EDGE ( 'NONE', *, *, #485, .F. ) ;
#317 = ORIENTED_EDGE ( 'NONE', *, *, #756, .T. ) ;
#318 = DIRECTION ( 'NONE',  ( 0.000000000000000000, 0.000000000000000000, -1.000000000000000000 ) ) ;
#319 = ORIENTED_EDGE ( 'NONE', *, *, #390, .T. ) ;
#320 = LINE ( 'NONE', #259, #980 ) ;
#321 = CLOSED_SHELL ( 'NONE', ( #107, #789, #1025, #93, #499, #510, #773, #634, #201, #294, #786, #671, #976, #254, #613, #449, #134, #233, #224, #404, #133, #189, #315, #989, #381, #716, #546, #569, #696, #284 ) ) ;
#322 = AXIS2_PLACEMENT_3D ( 'NONE', #697, #216, #627 ) ;
#323 = CYLINDRICAL_SURFACE ( 'NONE', #141, 1.229499999999999593 ) ;
#324 = CARTESIAN_POINT ( 'NONE',  ( 4.000000000000000000, -11.38544155877285036, -10.38544155877285569 ) ) ;
#325 = ORIENTED_EDGE ( 'NONE', *, *, #361, .T. ) ;
#326 = CIRCLE ( 'NONE', #920, 5.000000000000000888 ) ;
#327 = EDGE_CURVE ( 'NONE', #974, #289, #231, .T. ) ;
#328 = VERTEX_POINT ( 'NONE', #966 ) ;
#329 = DIRECTION ( 'NONE',  ( 1.000000000000000000, -0.000000000000000000, -0.000000000000000000 ) ) ;
#330 = EDGE_LOOP ( 'NONE', ( #892, #347, #86, #209 ) ) ;
#331 = CARTESIAN_POINT ( 'NONE',  ( 4.000000000000000000, 2.000000000000000000, 8.000000000000000000 ) ) ;
#332 = DIRECTION ( 'NONE',  ( 0.000000000000000000, 0.000000000000000000, -1.000000000000000000 ) ) ;
#333 = EDGE_LOOP ( 'NONE', ( #593, #415, #848, #317 ) ) ;
#334 = EDGE_LOOP ( 'NONE', ( #733, #723, #362, #516, #49, #823, #316, #639, #357, #456 ) ) ;
#335 = LINE ( 'NONE', #171, #32 ) ;
#336 = CARTESIAN_POINT ( 'NONE',  ( 4.000000000000000000, -3.000000000000000000, 8.000000000000000000 ) ) ;
#337 = DIRECTION ( 'NONE',  ( 0.000000000000000000, 0.000000000000000000, -1.000000000000000000 ) ) ;
#338 = ORIENTED_EDGE ( 'NONE', *, *, #418, .F. ) ;
#339 = EDGE_LOOP ( 'NONE', ( #906, #491 ) ) ;
#340 = CARTESIAN_POINT ( 'NONE',  ( -58.50000000000000000, 7.000000000000002665, 4.071067811865501263 ) ) ;
#341 = EDGE_CURVE ( 'NONE', #656, #995, #420, .T. ) ;
#342 = DIRECTION ( 'NONE',  ( 1.000000000000000000, 0.000000000000000000, 0.000000000000000000 ) ) ;
#343 = EDGE_CURVE ( 'NONE', #658, #907, #650, .T. ) ;
#344 = AXIS2_PLACEMENT_3D ( 'NONE', #1008, #376, #36 ) ;
#345 = CARTESIAN_POINT ( 'NONE',  ( 4.000000000000000000, 0.000000000000000000, 0.000000000000000000 ) ) ;
#346 = ORIENTED_EDGE ( 'NONE', *, *, #868, .T. ) ;
#347 = ORIENTED_EDGE ( 'NONE', *, *, #943, .T. ) ;
#348 = AXIS2_PLACEMENT_3D ( 'NONE', #1026, #308, #387 ) ;
#349 = CARTESIAN_POINT ( 'NONE',  ( 4.000000000000000000, 1.505703239551670331E-16, -1.229499999999999593 ) ) ;
#350 = CARTESIAN_POINT ( 'NONE',  ( -29.25000000000000000, -1.000000000000000000, -4.999999999999999112 ) ) ;
#351 = CARTESIAN_POINT ( 'NONE',  ( 4.000000000000000000, -12.65685424949239923, 2.000000000000000000 ) ) ;
#352 = VERTEX_POINT ( 'NONE', #754 ) ;
#353 = DIRECTION ( 'NONE',  ( 0.000000000000000000, 0.000000000000000000, 1.000000000000000000 ) ) ;
#354 = ORIENTED_EDGE ( 'NONE', *, *, #242, .T. ) ;
#355 = DIRECTION ( 'NONE',  ( -1.000000000000000000, 0.000000000000000000, 0.000000000000000000 ) ) ;
#356 = EDGE_CURVE ( 'NONE', #504, #352, #250, .T. ) ;
#357 = ORIENTED_EDGE ( 'NONE', *, *, #959, .F. ) ;
#358 = DIRECTION ( 'NONE',  ( 0.000000000000000000, 0.000000000000000000, -1.000000000000000000 ) ) ;
#359 = FACE_OUTER_BOUND ( 'NONE', #810, .T. ) ;
#360 = DIRECTION ( 'NONE',  ( 0.000000000000000000, 1.000000000000000000, 0.000000000000000000 ) ) ;
#361 = EDGE_CURVE ( 'NONE', #375, #652, #256, .T. ) ;
#362 = ORIENTED_EDGE ( 'NONE', *, *, #327, .F. ) ;
#363 = VERTEX_POINT ( 'NONE', #324 ) ;
#364 = DIRECTION ( 'NONE',  ( 0.000000000000000000, 0.7071067811865476838, -0.7071067811865474617 ) ) ;
#365 = DIRECTION ( 'NONE',  ( 0.000000000000000000, 0.000000000000000000, -1.000000000000000000 ) ) ;
#366 = DIRECTION ( 'NONE',  ( -0.000000000000000000, -1.445602896647339656E-16, -1.000000000000000000 ) ) ;
#367 = VERTEX_POINT ( 'NONE', #30 ) ;
#368 = ORIENTED_EDGE ( 'NONE', *, *, #971, .F. ) ;
#369 = CARTESIAN_POINT ( 'NONE',  ( 4.000000000000000000, 7.000000000000000888, 8.000000000000000000 ) ) ;
#370 = CARTESIAN_POINT ( 'NONE',  ( 0.000000000000000000, 5.535533905932749299, 0.5355339059327515194 ) ) ;
#371 = VECTOR ( 'NONE', #568, 1000.000000000000000 ) ;
#372 = VECTOR ( 'NONE', #923, 1000.000000000000000 ) ;
#373 = CARTESIAN_POINT ( 'NONE',  ( 4.000000000000000000, 7.000000000000000888, 8.000000000000000000 ) ) ;
#374 = ORIENTED_EDGE ( 'NONE', *, *, #268, .T. ) ;
#375 = VERTEX_POINT ( 'NONE', #512 ) ;
#376 = DIRECTION ( 'NONE',  ( 1.000000000000000000, 0.000000000000000000, 0.000000000000000000 ) ) ;
#377 = CARTESIAN_POINT ( 'NONE',  ( 4.000000000000000000, -1.000000000000000000, -11.00000000000000000 ) ) ;
#378 = DIRECTION ( 'NONE',  ( 0.000000000000000000, 0.000000000000000000, 1.000000000000000000 ) ) ;
#379 = CARTESIAN_POINT ( 'NONE',  ( 4.000000000000000000, 7.000000000000002665, 4.071067811865501263 ) ) ;
#380 = ORIENTED_EDGE ( 'NONE', *, *, #17, .T. ) ;
#381 = ADVANCED_FACE ( 'NONE', ( #26 ), #979, .T. ) ;
#382 = CARTESIAN_POINT ( 'NONE',  ( 4.000000000000000000, 2.000000000000000000, 8.000000000000000000 ) ) ;
#383 = EDGE_CURVE ( 'NONE', #553, #128, #310, .T. ) ;
#384 = AXIS2_PLACEMENT_3D ( 'NONE', #222, #91, #620 ) ;
#385 = LINE ( 'NONE', #700, #933 ) ;
#386 = VECTOR ( 'NONE', #127, 1000.000000000000000 ) ;
#387 = DIRECTION ( 'NONE',  ( 0.000000000000000000, 0.000000000000000000, 1.000000000000000000 ) ) ;
#388 = VECTOR ( 'NONE', #431, 1000.000000000000000 ) ;
#389 = CARTESIAN_POINT ( 'NONE',  ( -62.50000000000000000, 2.000000000000000000, 8.000000000000000000 ) ) ;
#390 = EDGE_CURVE ( 'NONE', #163, #589, #893, .T. ) ;
#391 = PLANE ( 'NONE',  #18 ) ;
#392 = DIRECTION ( 'NONE',  ( 1.000000000000000000, 0.000000000000000000, 0.000000000000000000 ) ) ;
#393 = CARTESIAN_POINT ( 'NONE',  ( -62.50000000000000000, 7.000000000000002665, 4.071067811865501263 ) ) ;
#394 = CIRCLE ( 'NONE', #707, 9.656854249492397457 ) ;
#395 = CARTESIAN_POINT ( 'NONE',  ( -58.50000000000000000, 5.535533905932749299, 0.5355339059327515194 ) ) ;
#396 = EDGE_CURVE ( 'NONE', #684, #915, #1, .T. ) ;
#397 = VECTOR ( 'NONE', #928, 1000.000000000000000 ) ;
#398 =( GEOMETRIC_REPRESENTATION_CONTEXT ( 3 ) GLOBAL_UNCERTAINTY_ASSIGNED_CONTEXT ( ( #625 ) ) GLOBAL_UNIT_ASSIGNED_CONTEXT ( ( #645, #578, #900 ) ) REPRESENTATION_CONTEXT ( 'NONE', 'WORKASPACE' ) );
#399 = ORIENTED_EDGE ( 'NONE', *, *, #85, .T. ) ;
#400 = DIRECTION ( 'NONE',  ( 0.000000000000000000, -4.415254305522827842E-16, 1.000000000000000000 ) ) ;
#401 = FACE_OUTER_BOUND ( 'NONE', #97, .T. ) ;
#402 = ORIENTED_EDGE ( 'NONE', *, *, #896, .F. ) ;
#403 = CARTESIAN_POINT ( 'NONE',  ( 4.000000000000000000, -11.13088311754569837, -11.00000000000000000 ) ) ;
#404 = ADVANCED_FACE ( 'NONE', ( #426 ), #597, .F. ) ;
#405 = CARTESIAN_POINT ( 'NONE',  ( 0.000000000000000000, 7.000000000000000888, 8.000000000000000000 ) ) ;
#406 = EDGE_CURVE ( 'NONE', #831, #123, #583, .T. ) ;
#407 = CYLINDRICAL_SURFACE ( 'NONE', #852, 2.024999999999999023 ) ;
#408 = ORIENTED_EDGE ( 'NONE', *, *, #343, .T. ) ;
#409 = EDGE_LOOP ( 'NONE', ( #169, #380, #678, #1001, #592, #227, #9, #636, #905, #565, #248 ) ) ;
#410 = CARTESIAN_POINT ( 'NONE',  ( 4.000000000000000000, 0.000000000000000000, 0.000000000000000000 ) ) ;
#411 =( GEOMETRIC_REPRESENTATION_CONTEXT ( 3 ) GLOBAL_UNCERTAINTY_ASSIGNED_CONTEXT ( ( #6 ) ) GLOBAL_UNIT_ASSIGNED_CONTEXT ( ( #983, #962, #480 ) ) REPRESENTATION_CONTEXT ( 'NONE', 'WORKASPACE' ) );
#412 = AXIS2_PLACEMENT_3D ( 'NONE', #785, #470, #1016 ) ;
#413 = CARTESIAN_POINT ( 'NONE',  ( 4.000000000000000000, 5.535533905932749299, 0.5355339059327515194 ) ) ;
#414 = LINE ( 'NONE', #911, #560 ) ;
#415 = ORIENTED_EDGE ( 'NONE', *, *, #608, .F. ) ;
#416 = CIRCLE ( 'NONE', #521, 2.024999999999999023 ) ;
#417 = DIRECTION ( 'NONE',  ( 0.000000000000000000, 0.000000000000000000, -1.000000000000000000 ) ) ;
#418 = EDGE_CURVE ( 'NONE', #99, #520, #591, .T. ) ;
#419 = DIRECTION ( 'NONE',  ( 0.000000000000000000, 0.000000000000000000, -1.000000000000000000 ) ) ;
#420 = LINE ( 'NONE', #655, #432 ) ;
#421 = ORIENTED_EDGE ( 'NONE', *, *, #423, .F. ) ;
#422 = EDGE_LOOP ( 'NONE', ( #577, #16, #651, #901 ) ) ;
#423 = EDGE_CURVE ( 'NONE', #21, #652, #816, .T. ) ;
#424 = DIRECTION ( 'NONE',  ( 1.000000000000000000, -0.000000000000000000, -0.000000000000000000 ) ) ;
#425 = LINE ( 'NONE', #590, #388 ) ;
#426 = FACE_OUTER_BOUND ( 'NONE', #422, .T. ) ;
#427 = VERTEX_POINT ( 'NONE', #642 ) ;
#428 = VERTEX_POINT ( 'NONE', #808 ) ;
#429 = DIRECTION ( 'NONE',  ( 0.000000000000000000, 0.000000000000000000, -1.000000000000000000 ) ) ;
#430 = DIRECTION ( 'NONE',  ( -1.000000000000000000, -0.000000000000000000, -0.000000000000000000 ) ) ;
#431 = DIRECTION ( 'NONE',  ( 0.000000000000000000, 1.000000000000000000, 0.000000000000000000 ) ) ;
#432 = VECTOR ( 'NONE', #185, 1000.000000000000000 ) ;
#433 = FACE_OUTER_BOUND ( 'NONE', #818, .T. ) ;
#434 = EDGE_CURVE ( 'NONE', #721, #882, #986, .T. ) ;
#435 = ORIENTED_EDGE ( 'NONE', *, *, #406, .F. ) ;
#436 = PRODUCT_CONTEXT ( 'NONE', #875, 'mechanical' ) ;
#437 = ORIENTED_EDGE ( 'NONE', *, *, #356, .T. ) ;
#438 = AXIS2_PLACEMENT_3D ( 'NONE', #895, #596, #419 ) ;
#439 = EDGE_LOOP ( 'NONE', ( #561, #973, #925, #215 ) ) ;
#440 = CARTESIAN_POINT ( 'NONE',  ( -62.50000000000000000, -12.65685424949239923, 2.000000000000000000 ) ) ;
#441 = APPLICATION_CONTEXT ( 'automotive_design' ) ;
#442 = CARTESIAN_POINT ( 'NONE',  ( -62.50000000000000000, 1.505703239551670331E-16, 1.229499999999999593 ) ) ;
#443 = DIRECTION ( 'NONE',  ( 0.000000000000000000, 0.000000000000000000, -1.000000000000000000 ) ) ;
#444 = ORIENTED_EDGE ( 'NONE', *, *, #327, .T. ) ;
#445 = ORIENTED_EDGE ( 'NONE', *, *, #148, .F. ) ;
#446 = DIRECTION ( 'NONE',  ( 0.000000000000000000, 0.7071067811865474617, 0.7071067811865476838 ) ) ;
#447 = CARTESIAN_POINT ( 'NONE',  ( 4.000000000000000000, 7.000000000000000888, 8.000000000000000000 ) ) ;
#448 = DIRECTION ( 'NONE',  ( 0.000000000000000000, 0.7071067811865475727, -0.7071067811865474617 ) ) ;
#449 = ADVANCED_FACE ( 'NONE', ( #433 ), #746, .F. ) ;
#450 = ORIENTED_EDGE ( 'NONE', *, *, #588, .T. ) ;
#451 = ORIENTED_EDGE ( 'NONE', *, *, #502, .T. ) ;
#452 = FACE_OUTER_BOUND ( 'NONE', #130, .T. ) ;
#453 = DIRECTION ( 'NONE',  ( 0.000000000000000000, 0.000000000000000000, -1.000000000000000000 ) ) ;
#454 = FACE_BOUND ( 'NONE', #813, .T. ) ;
#455 = AXIS2_PLACEMENT_3D ( 'NONE', #757, #364, #446 ) ;
#456 = ORIENTED_EDGE ( 'NONE', *, *, #868, .F. ) ;
#457 = ORIENTED_EDGE ( 'NONE', *, *, #842, .T. ) ;
#458 = DIRECTION ( 'NONE',  ( 1.000000000000000000, 0.000000000000000000, 0.000000000000000000 ) ) ;
#459 = CARTESIAN_POINT ( 'NONE',  ( 0.000000000000000000, 0.000000000000000000, 0.000000000000000000 ) ) ;
#460 = VECTOR ( 'NONE', #4, 1000.000000000000000 ) ;
#461 = LINE ( 'NONE', #1010, #397 ) ;
#462 = EDGE_CURVE ( 'NONE', #251, #352, #414, .T. ) ;
#463 = DIRECTION ( 'NONE',  ( 0.000000000000000000, 0.000000000000000000, -1.000000000000000000 ) ) ;
#464 = FACE_OUTER_BOUND ( 'NONE', #929, .T. ) ;
#465 = DIRECTION ( 'NONE',  ( -1.000000000000000000, -0.000000000000000000, -0.000000000000000000 ) ) ;
#466 = FACE_BOUND ( 'NONE', #8, .T. ) ;
#467 = EDGE_CURVE ( 'NONE', #899, #982, #543, .T. ) ;
#468 = STYLED_ITEM ( 'NONE', ( #956 ), #51 ) ;
#469 = AXIS2_PLACEMENT_3D ( 'NONE', #225, #541, #12 ) ;
#470 = DIRECTION ( 'NONE',  ( 1.000000000000000000, 0.000000000000000000, 0.000000000000000000 ) ) ;
#471 = AXIS2_PLACEMENT_3D ( 'NONE', #704, #477, #158 ) ;
#472 = CARTESIAN_POINT ( 'NONE',  ( -62.50000000000000000, 2.000000000000000000, 4.071067811865501263 ) ) ;
#473 = EDGE_CURVE ( 'NONE', #598, #995, #416, .T. ) ;
#474 = DIRECTION ( 'NONE',  ( 0.000000000000000000, -1.000000000000000000, 0.000000000000000000 ) ) ;
#475 = LINE ( 'NONE', #864, #38 ) ;
#476 = DIRECTION ( 'NONE',  ( 0.000000000000000000, -1.445602896647339656E-16, -1.000000000000000000 ) ) ;
#477 = DIRECTION ( 'NONE',  ( 1.000000000000000000, -0.000000000000000000, -0.000000000000000000 ) ) ;
#478 = VECTOR ( 'NONE', #669, 1000.000000000000000 ) ;
#479 = ORIENTED_EDGE ( 'NONE', *, *, #539, .T. ) ;
#480 =( NAMED_UNIT ( * ) SI_UNIT ( $, .STERADIAN. ) SOLID_ANGLE_UNIT ( ) );
#481 = CARTESIAN_POINT ( 'NONE',  ( -62.50000000000000000, 2.000000000000000444, 10.02499999999999858 ) ) ;
#482 = AXIS2_PLACEMENT_3D ( 'NONE', #1022, #706, #304 ) ;
#483 = VECTOR ( 'NONE', #646, 1000.000000000000000 ) ;
#484 = ORIENTED_EDGE ( 'NONE', *, *, #69, .F. ) ;
#485 = EDGE_CURVE ( 'NONE', #187, #98, #265, .T. ) ;
#486 = DIRECTION ( 'NONE',  ( -0.000000000000000000, -4.415254305522827842E-16, 1.000000000000000000 ) ) ;
#487 = ORIENTED_EDGE ( 'NONE', *, *, #154, .T. ) ;
#488 = FILL_AREA_STYLE ('',( #566 ) ) ;
#489 = CARTESIAN_POINT ( 'NONE',  ( -62.50000000000000000, 0.000000000000000000, 0.000000000000000000 ) ) ;
#490 = DIRECTION ( 'NONE',  ( 0.000000000000000000, -4.415254305522827842E-16, 1.000000000000000000 ) ) ;
#491 = ORIENTED_EDGE ( 'NONE', *, *, #467, .T. ) ;
#492 = EDGE_CURVE ( 'NONE', #610, #504, #934, .T. ) ;
#493 = ORIENTED_EDGE ( 'NONE', *, *, #935, .F. ) ;
#494 = CARTESIAN_POINT ( 'NONE',  ( 4.000000000000000000, 2.000000000000000000, 8.000000000000000000 ) ) ;
#495 = COLOUR_RGB ( '',0.7921568627450980005, 0.8196078431372548767, 0.9333333333333333481 ) ;
#496 = VERTEX_POINT ( 'NONE', #531 ) ;
#497 = VECTOR ( 'NONE', #762, 1000.000000000000000 ) ;
#498 = DIRECTION ( 'NONE',  ( 0.000000000000000000, -0.7071067811865474617, -0.7071067811865475727 ) ) ;
#499 = ADVANCED_FACE ( 'NONE', ( #676 ), #220, .T. ) ;
#500 = DIRECTION ( 'NONE',  ( -0.000000000000000000, 0.7071067811865474617, 0.7071067811865475727 ) ) ;
#501 = ORIENTED_EDGE ( 'NONE', *, *, #85, .F. ) ;
#502 = EDGE_CURVE ( 'NONE', #251, #187, #461, .T. ) ;
#503 = AXIS2_PLACEMENT_3D ( 'NONE', #413, #29, #498 ) ;
#504 = VERTEX_POINT ( 'NONE', #861 ) ;
#505 = EDGE_LOOP ( 'NONE', ( #48, #528, #479, #186 ) ) ;
#506 = DIRECTION ( 'NONE',  ( -1.000000000000000000, -0.000000000000000000, -0.000000000000000000 ) ) ;
#507 = CARTESIAN_POINT ( 'NONE',  ( -62.50000000000000000, 7.000000000000000888, 8.000000000000000000 ) ) ;
#508 = ORIENTED_EDGE ( 'NONE', *, *, #17, .F. ) ;
#509 = CARTESIAN_POINT ( 'NONE',  ( -62.50000000000000000, 7.000000000000002665, 4.071067811865501263 ) ) ;
#510 = ADVANCED_FACE ( 'NONE', ( #466, #527, #464 ), #759, .F. ) ;
#511 = LINE ( 'NONE', #25, #949 ) ;
#512 = CARTESIAN_POINT ( 'NONE',  ( -62.50000000000000000, 7.000000000000000888, 8.000000000000000000 ) ) ;
#513 = ORIENTED_EDGE ( 'NONE', *, *, #567, .T. ) ;
#514 = SHAPE_DEFINITION_REPRESENTATION ( #863, #202 ) ;
#515 = ORIENTED_EDGE ( 'NONE', *, *, #208, .T. ) ;
#516 = ORIENTED_EDGE ( 'NONE', *, *, #788, .F. ) ;
#517 = CARTESIAN_POINT ( 'NONE',  ( 4.000000000000000000, -1.000000000000000000, -5.999999999999999112 ) ) ;
#518 = VECTOR ( 'NONE', #75, 1000.000000000000000 ) ;
#519 = DIRECTION ( 'NONE',  ( 1.000000000000000000, -0.000000000000000000, -0.000000000000000000 ) ) ;
#520 = VERTEX_POINT ( 'NONE', #695 ) ;
#521 = AXIS2_PLACEMENT_3D ( 'NONE', #1017, #618, #776 ) ;
#522 = ORIENTED_EDGE ( 'NONE', *, *, #806, .T. ) ;
#523 = FACE_OUTER_BOUND ( 'NONE', #92, .T. ) ;
#524 = EDGE_CURVE ( 'NONE', #328, #174, #68, .T. ) ;
#525 = PLANE ( 'NONE',  #880 ) ;
#526 = EDGE_CURVE ( 'NONE', #751, #721, #280, .T. ) ;
#527 = FACE_BOUND ( 'NONE', #760, .T. ) ;
#528 = ORIENTED_EDGE ( 'NONE', *, *, #798, .F. ) ;
#529 = PLANE ( 'NONE',  #243 ) ;
#530 = DIRECTION ( 'NONE',  ( 1.000000000000000000, 0.000000000000000000, 0.000000000000000000 ) ) ;
#531 = CARTESIAN_POINT ( 'NONE',  ( 4.000000000000000000, 2.000000000000000000, 10.02499999999999858 ) ) ;
#532 = ORIENTED_EDGE ( 'NONE', *, *, #778, .F. ) ;
#533 = ORIENTED_EDGE ( 'NONE', *, *, #302, .T. ) ;
#534 = CARTESIAN_POINT ( 'NONE',  ( -62.50000000000000000, 2.000000000000000000, 8.000000000000000000 ) ) ;
#535 = CARTESIAN_POINT ( 'NONE',  ( -62.50000000000000000, -11.38544155877285036, -10.38544155877285569 ) ) ;
#536 = MECHANICAL_DESIGN_GEOMETRIC_PRESENTATION_REPRESENTATION (  '', ( #468 ), #411 ) ;
#537 = LINE ( 'NONE', #774, #768 ) ;
#538 = AXIS2_PLACEMENT_3D ( 'NONE', #556, #474, #1024 ) ;
#539 = EDGE_CURVE ( 'NONE', #123, #849, #607, .T. ) ;
#540 = EDGE_CURVE ( 'NONE', #589, #750, #998, .T. ) ;
#541 = DIRECTION ( 'NONE',  ( -1.000000000000000000, -0.000000000000000000, -0.000000000000000000 ) ) ;
#542 = CARTESIAN_POINT ( 'NONE',  ( -62.50000000000000000, 2.000000000000000000, 8.000000000000000000 ) ) ;
#543 = CIRCLE ( 'NONE', #83, 1.229499999999999593 ) ;
#544 = DIRECTION ( 'NONE',  ( -1.000000000000000000, -0.000000000000000000, -0.000000000000000000 ) ) ;
#545 = DIRECTION ( 'NONE',  ( 0.000000000000000000, 0.000000000000000000, 1.000000000000000000 ) ) ;
#546 = ADVANCED_FACE ( 'NONE', ( #200 ), #132, .T. ) ;
#547 = DIRECTION ( 'NONE',  ( -1.000000000000000000, -0.000000000000000000, -0.000000000000000000 ) ) ;
#548 = LINE ( 'NONE', #862, #630 ) ;
#549 = DIRECTION ( 'NONE',  ( 1.000000000000000000, 0.000000000000000000, 0.000000000000000000 ) ) ;
#550 = VECTOR ( 'NONE', #805, 1000.000000000000000 ) ;
#551 = VECTOR ( 'NONE', #885, 1000.000000000000000 ) ;
#552 = LINE ( 'NONE', #782, #518 ) ;
#553 = VERTEX_POINT ( 'NONE', #53 ) ;
#554 = CIRCLE ( 'NONE', #482, 2.024999999999999023 ) ;
#555 = CARTESIAN_POINT ( 'NONE',  ( -58.50000000000000000, 7.000000000000000888, 8.000000000000000000 ) ) ;
#556 = CARTESIAN_POINT ( 'NONE',  ( 4.000000000000000000, -1.000000000000000000, -11.00000000000000000 ) ) ;
#557 = LINE ( 'NONE', #395, #121 ) ;
#558 = EDGE_LOOP ( 'NONE', ( #240, #14 ) ) ;
#559 = CARTESIAN_POINT ( 'NONE',  ( 4.000000000000000000, -3.000000000000000000, 8.000000000000000000 ) ) ;
#560 = VECTOR ( 'NONE', #727, 1000.000000000000000 ) ;
#561 = ORIENTED_EDGE ( 'NONE', *, *, #836, .F. ) ;
#562 = DIRECTION ( 'NONE',  ( 0.000000000000000000, 1.000000000000000000, 0.000000000000000000 ) ) ;
#563 = CARTESIAN_POINT ( 'NONE',  ( 4.000000000000000000, -11.13088311754569837, -10.64000000000000767 ) ) ;
#564 = VECTOR ( 'NONE', #827, 1000.000000000000000 ) ;
#565 = ORIENTED_EDGE ( 'NONE', *, *, #155, .T. ) ;
#566 = FILL_AREA_STYLE_COLOUR ( '', #495 ) ;
#567 = EDGE_CURVE ( 'NONE', #825, #819, #1014, .T. ) ;
#568 = DIRECTION ( 'NONE',  ( 0.000000000000000000, -0.7071067811865474617, -0.7071067811865476838 ) ) ;
#569 = ADVANCED_FACE ( 'NONE', ( #454, #698, #940 ), #296, .T. ) ;
#570 = DIRECTION ( 'NONE',  ( 0.000000000000000000, 0.000000000000000000, -1.000000000000000000 ) ) ;
#571 = ORIENTED_EDGE ( 'NONE', *, *, #307, .F. ) ;
#572 = CARTESIAN_POINT ( 'NONE',  ( 0.000000000000000000, 0.000000000000000000, 0.000000000000000000 ) ) ;
#573 = ORIENTED_EDGE ( 'NONE', *, *, #708, .F. ) ;
#574 = FACE_OUTER_BOUND ( 'NONE', #253, .T. ) ;
#575 = DIRECTION ( 'NONE',  ( 0.000000000000000000, 0.000000000000000000, -1.000000000000000000 ) ) ;
#576 = DIRECTION ( 'NONE',  ( 0.000000000000000000, 0.000000000000000000, -1.000000000000000000 ) ) ;
#577 = ORIENTED_EDGE ( 'NONE', *, *, #680, .T. ) ;
#578 =( NAMED_UNIT ( * ) PLANE_ANGLE_UNIT ( ) SI_UNIT ( $, .RADIAN. ) );
#579 = ORIENTED_EDGE ( 'NONE', *, *, #242, .F. ) ;
#580 = ORIENTED_EDGE ( 'NONE', *, *, #780, .T. ) ;
#581 = AXIS2_PLACEMENT_3D ( 'NONE', #109, #167, #891 ) ;
#582 = DIRECTION ( 'NONE',  ( 1.000000000000000000, -0.000000000000000000, -0.000000000000000000 ) ) ;
#583 = LINE ( 'NONE', #661, #478 ) ;
#584 = ORIENTED_EDGE ( 'NONE', *, *, #396, .T. ) ;
#585 = AXIS2_PLACEMENT_3D ( 'NONE', #331, #10, #575 ) ;
#586 = VECTOR ( 'NONE', #753, 1000.000000000000000 ) ;
#587 = EDGE_LOOP ( 'NONE', ( #257, #761, #444, #854 ) ) ;
#588 = EDGE_CURVE ( 'NONE', #187, #111, #766, .T. ) ;
#589 = VERTEX_POINT ( 'NONE', #614 ) ;
#590 = CARTESIAN_POINT ( 'NONE',  ( -62.50000000000000000, -11.13088311754569837, -11.00000000000000000 ) ) ;
#591 = LINE ( 'NONE', #114, #34 ) ;
#592 = ORIENTED_EDGE ( 'NONE', *, *, #307, .T. ) ;
#593 = ORIENTED_EDGE ( 'NONE', *, *, #567, .F. ) ;
#594 = CARTESIAN_POINT ( 'NONE',  ( -58.50000000000000000, -12.65685424949239923, 2.000000000000000000 ) ) ;
#595 = CARTESIAN_POINT ( 'NONE',  ( -62.50000000000000000, 2.000000000000000000, 5.975000000000001421 ) ) ;
#596 = DIRECTION ( 'NONE',  ( 1.000000000000000000, 0.000000000000000000, 0.000000000000000000 ) ) ;
#597 = PLANE ( 'NONE',  #136 ) ;
#598 = VERTEX_POINT ( 'NONE', #140 ) ;
#599 = EDGE_LOOP ( 'NONE', ( #665, #27, #515, #644 ) ) ;
#600 = FACE_OUTER_BOUND ( 'NONE', #282, .T. ) ;
#601 = VECTOR ( 'NONE', #229, 1000.000000000000000 ) ;
#602 = CARTESIAN_POINT ( 'NONE',  ( 4.000000000000000000, 2.000000000000000000, 13.00000000000000178 ) ) ;
#603 = VERTEX_POINT ( 'NONE', #213 ) ;
#604 = CIRCLE ( 'NONE', #313, 0.3599999999999922706 ) ;
#605 = EDGE_LOOP ( 'NONE', ( #843, #252, #803, #609 ) ) ;
#606 = DIRECTION ( 'NONE',  ( 1.000000000000000000, -0.000000000000000000, -0.000000000000000000 ) ) ;
#607 = LINE ( 'NONE', #373, #985 ) ;
#608 = EDGE_CURVE ( 'NONE', #1011, #825, #537, .T. ) ;
#609 = ORIENTED_EDGE ( 'NONE', *, *, #909, .F. ) ;
#610 = VERTEX_POINT ( 'NONE', #153 ) ;
#611 = PLANE ( 'NONE',  #455 ) ;
#612 = CARTESIAN_POINT ( 'NONE',  ( -62.50000000000000000, -1.000000000000000000, -11.00000000000000000 ) ) ;
#613 = ADVANCED_FACE ( 'NONE', ( #871 ), #391, .F. ) ;
#614 = CARTESIAN_POINT ( 'NONE',  ( 4.000000000000000000, 0.000000000000000000, 1.229499999999999593 ) ) ;
#615 = ORIENTED_EDGE ( 'NONE', *, *, #434, .T. ) ;
#616 = CARTESIAN_POINT ( 'NONE',  ( -62.50000000000000000, -1.000000000000000000, -5.999999999999999112 ) ) ;
#617 = CARTESIAN_POINT ( 'NONE',  ( 0.000000000000000000, 7.000000000000002665, 4.071067811865501263 ) ) ;
#618 = DIRECTION ( 'NONE',  ( 1.000000000000000000, -0.000000000000000000, -0.000000000000000000 ) ) ;
#619 = AXIS2_PLACEMENT_3D ( 'NONE', #112, #458, #693 ) ;
#620 = DIRECTION ( 'NONE',  ( 1.000000000000000000, 0.000000000000000000, -0.000000000000000000 ) ) ;
#621 = EDGE_CURVE ( 'NONE', #589, #163, #662, .T. ) ;
#622 = VECTOR ( 'NONE', #79, 1000.000000000000000 ) ;
#623 = CARTESIAN_POINT ( 'NONE',  ( -58.50000000000000000, -3.000000000000000000, 8.000000000000000000 ) ) ;
#624 = DIRECTION ( 'NONE',  ( -0.000000000000000000, -0.7071067811865474617, -0.7071067811865476838 ) ) ;
#625 = UNCERTAINTY_MEASURE_WITH_UNIT (LENGTH_MEASURE( 1.000000000000000082E-05 ), #645, 'distance_accuracy_value', 'NONE');
#626 = FACE_OUTER_BOUND ( 'NONE', #61, .T. ) ;
#627 = DIRECTION ( 'NONE',  ( 0.000000000000000000, 0.000000000000000000, -1.000000000000000000 ) ) ;
#628 = EDGE_CURVE ( 'NONE', #111, #21, #837, .T. ) ;
#629 = DIRECTION ( 'NONE',  ( 1.000000000000000000, 0.000000000000000000, 0.000000000000000000 ) ) ;
#630 = VECTOR ( 'NONE', #802, 1000.000000000000000 ) ;
#631 = FACE_OUTER_BOUND ( 'NONE', #333, .T. ) ;
#632 = AXIS2_PLACEMENT_3D ( 'NONE', #66, #59, #300 ) ;
#633 = LINE ( 'NONE', #881, #936 ) ;
#634 = ADVANCED_FACE ( 'NONE', ( #2 ), #72, .T. ) ;
#635 = DIRECTION ( 'NONE',  ( 0.000000000000000000, 0.000000000000000000, -1.000000000000000000 ) ) ;
#636 = ORIENTED_EDGE ( 'NONE', *, *, #836, .T. ) ;
#637 = CARTESIAN_POINT ( 'NONE',  ( 0.000000000000000000, -3.000000000000000000, 8.000000000000000000 ) ) ;
#638 = AXIS2_PLACEMENT_3D ( 'NONE', #705, #1027, #309 ) ;
#639 = ORIENTED_EDGE ( 'NONE', *, *, #502, .F. ) ;
#640 = EDGE_CURVE ( 'NONE', #363, #740, #604, .T. ) ;
#641 = DIRECTION ( 'NONE',  ( 1.000000000000000000, -0.000000000000000000, -0.000000000000000000 ) ) ;
#642 = CARTESIAN_POINT ( 'NONE',  ( 4.000000000000000000, -3.000000000000002665, 2.000000000000001776 ) ) ;
#643 = AXIS2_PLACEMENT_3D ( 'NONE', #542, #52, #365 ) ;
#644 = ORIENTED_EDGE ( 'NONE', *, *, #473, .T. ) ;
#645 =( LENGTH_UNIT ( ) NAMED_UNIT ( * ) SI_UNIT ( .MILLI., .METRE. ) );
#646 = DIRECTION ( 'NONE',  ( 0.000000000000000000, 0.000000000000000000, 1.000000000000000000 ) ) ;
#647 = EDGE_CURVE ( 'NONE', #520, #684, #633, .T. ) ;
#648 = DIRECTION ( 'NONE',  ( -1.000000000000000000, -0.000000000000000000, -0.000000000000000000 ) ) ;
#649 = DIRECTION ( 'NONE',  ( 0.000000000000000000, 0.000000000000000000, -1.000000000000000000 ) ) ;
#650 = LINE ( 'NONE', #835, #261 ) ;
#651 = ORIENTED_EDGE ( 'NONE', *, *, #492, .F. ) ;
#652 = VERTEX_POINT ( 'NONE', #555 ) ;
#653 = ORIENTED_EDGE ( 'NONE', *, *, #999, .T. ) ;
#654 = CARTESIAN_POINT ( 'NONE',  ( 0.000000000000000000, 2.000000000000000000, 10.02499999999999858 ) ) ;
#655 = CARTESIAN_POINT ( 'NONE',  ( -62.50000000000000000, 2.000000000000000444, 10.02499999999999858 ) ) ;
#656 = VERTEX_POINT ( 'NONE', #481 ) ;
#657 = AXIS2_PLACEMENT_3D ( 'NONE', #969, #424, #736 ) ;
#658 = VERTEX_POINT ( 'NONE', #161 ) ;
#659 = CIRCLE ( 'NONE', #344, 2.024999999999999023 ) ;
#660 = LINE ( 'NONE', #405, #815 ) ;
#661 = CARTESIAN_POINT ( 'NONE',  ( 4.000000000000000000, 7.000000000000000888, 8.000000000000000000 ) ) ;
#662 = CIRCLE ( 'NONE', #664, 1.229499999999999593 ) ;
#663 = ORIENTED_EDGE ( 'NONE', *, *, #423, .T. ) ;
#664 = AXIS2_PLACEMENT_3D ( 'NONE', #779, #629, #791 ) ;
#665 = ORIENTED_EDGE ( 'NONE', *, *, #341, .F. ) ;
#666 = LINE ( 'NONE', #291, #765 ) ;
#667 = CARTESIAN_POINT ( 'NONE',  ( 4.000000000000000000, 7.000000000000002665, 4.071067811865501263 ) ) ;
#668 = EDGE_CURVE ( 'NONE', #176, #656, #554, .T. ) ;
#669 = DIRECTION ( 'NONE',  ( -0.000000000000000000, -4.415254305522827842E-16, 1.000000000000000000 ) ) ;
#670 = ORIENTED_EDGE ( 'NONE', *, *, #842, .F. ) ;
#671 = ADVANCED_FACE ( 'NONE', ( #626 ), #944, .T. ) ;
#672 = ORIENTED_EDGE ( 'NONE', *, *, #978, .F. ) ;
#673 = EDGE_LOOP ( 'NONE', ( #263, #830 ) ) ;
#674 = DIRECTION ( 'NONE',  ( 0.000000000000000000, 0.000000000000000000, -1.000000000000000000 ) ) ;
#675 = DIRECTION ( 'NONE',  ( -1.000000000000000000, -0.000000000000000000, -0.000000000000000000 ) ) ;
#676 = FACE_OUTER_BOUND ( 'NONE', #439, .T. ) ;
#677 = ORIENTED_EDGE ( 'NONE', *, *, #824, .F. ) ;
#678 = ORIENTED_EDGE ( 'NONE', *, *, #1020, .T. ) ;
#679 = CARTESIAN_POINT ( 'NONE',  ( -58.50000000000000000, -11.13088311754569837, -10.64000000000000767 ) ) ;
#680 = EDGE_CURVE ( 'NONE', #941, #658, #475, .T. ) ;
#681 = CARTESIAN_POINT ( 'NONE',  ( 0.000000000000000000, -1.000000000000000000, -5.999999999999999112 ) ) ;
#682 = CIRCLE ( 'NONE', #322, 1.229499999999999593 ) ;
#683 = DIRECTION ( 'NONE',  ( 0.000000000000000000, 0.000000000000000000, -1.000000000000000000 ) ) ;
#684 = VERTEX_POINT ( 'NONE', #312 ) ;
#685 = AXIS2_PLACEMENT_3D ( 'NONE', #957, #719, #95 ) ;
#686 = EDGE_CURVE ( 'NONE', #982, #713, #82, .T. ) ;
#687 = EDGE_LOOP ( 'NONE', ( #421, #210, #714, #325 ) ) ;
#688 = DIRECTION ( 'NONE',  ( 0.000000000000000000, 0.000000000000000000, -1.000000000000000000 ) ) ;
#689 = EDGE_CURVE ( 'NONE', #98, #21, #314, .T. ) ;
#690 = CARTESIAN_POINT ( 'NONE',  ( 0.000000000000000000, -3.000000000000002665, 2.000000000000001776 ) ) ;
#691 = CARTESIAN_POINT ( 'NONE',  ( -62.50000000000000000, -11.13088311754569837, -10.64000000000000767 ) ) ;
#692 = ORIENTED_EDGE ( 'NONE', *, *, #873, .T. ) ;
#693 = DIRECTION ( 'NONE',  ( 0.000000000000000000, 0.000000000000000000, -1.000000000000000000 ) ) ;
#694 = DIRECTION ( 'NONE',  ( 0.000000000000000000, 0.000000000000000000, -1.000000000000000000 ) ) ;
#695 = CARTESIAN_POINT ( 'NONE',  ( 4.000000000000000000, 5.535533905932743970, 0.5355339059327567375 ) ) ;
#696 = ADVANCED_FACE ( 'NONE', ( #228 ), #149, .F. ) ;
#697 = CARTESIAN_POINT ( 'NONE',  ( 0.000000000000000000, 0.000000000000000000, 0.000000000000000000 ) ) ;
#698 = FACE_BOUND ( 'NONE', #339, .T. ) ;
#699 = AXIS2_PLACEMENT_3D ( 'NONE', #351, #273, #96 ) ;
#700 = CARTESIAN_POINT ( 'NONE',  ( 0.000000000000000000, -11.38544155877285036, -10.38544155877285569 ) ) ;
#701 = VECTOR ( 'NONE', #582, 1000.000000000000000 ) ;
#702 = DIRECTION ( 'NONE',  ( 0.000000000000000000, 1.000000000000000000, -1.445602896647339656E-16 ) ) ;
#703 = FACE_OUTER_BOUND ( 'NONE', #203, .T. ) ;
#704 = CARTESIAN_POINT ( 'NONE',  ( -58.50000000000000000, 2.000000000000000000, 4.071067811865501263 ) ) ;
#705 = CARTESIAN_POINT ( 'NONE',  ( 0.000000000000000000, -12.65685424949239923, 2.000000000000000000 ) ) ;
#706 = DIRECTION ( 'NONE',  ( 1.000000000000000000, -0.000000000000000000, -0.000000000000000000 ) ) ;
#707 = AXIS2_PLACEMENT_3D ( 'NONE', #57, #430, #674 ) ;
#708 = EDGE_CURVE ( 'NONE', #352, #111, #557, .T. ) ;
#709 = EDGE_CURVE ( 'NONE', #751, #427, #711, .T. ) ;
#710 = AXIS2_PLACEMENT_3D ( 'NONE', #821, #184, #267 ) ;
#711 = LINE ( 'NONE', #874, #460 ) ;
#712 = PRODUCT_DEFINITION_FORMATION_WITH_SPECIFIED_SOURCE ( 'ANY', '', #1023, .NOT_KNOWN. ) ;
#713 = VERTEX_POINT ( 'NONE', #796 ) ;
#714 = ORIENTED_EDGE ( 'NONE', *, *, #31, .T. ) ;
#715 = CYLINDRICAL_SURFACE ( 'NONE', #3, 5.000000000000009770 ) ;
#716 = ADVANCED_FACE ( 'NONE', ( #401 ), #715, .T. ) ;
#717 = ORIENTED_EDGE ( 'NONE', *, *, #909, .T. ) ;
#718 = FACE_OUTER_BOUND ( 'NONE', #968, .T. ) ;
#719 = DIRECTION ( 'NONE',  ( 1.000000000000000000, -0.000000000000000000, -0.000000000000000000 ) ) ;
#720 = CYLINDRICAL_SURFACE ( 'NONE', #917, 2.024999999999999023 ) ;
#721 = VERTEX_POINT ( 'NONE', #637 ) ;
#722 = CIRCLE ( 'NONE', #638, 9.656854249492397457 ) ;
#723 = ORIENTED_EDGE ( 'NONE', *, *, #952, .F. ) ;
#724 = DIRECTION ( 'NONE',  ( -1.000000000000000000, -0.000000000000000000, -0.000000000000000000 ) ) ;
#725 = CARTESIAN_POINT ( 'NONE',  ( -58.50000000000000000, -3.000000000000002665, 2.000000000000001776 ) ) ;
#726 = AXIS2_PLACEMENT_3D ( 'NONE', #691, #47, #683 ) ;
#727 = DIRECTION ( 'NONE',  ( 1.000000000000000000, -0.000000000000000000, -0.000000000000000000 ) ) ;
#728 = ORIENTED_EDGE ( 'NONE', *, *, #143, .T. ) ;
#729 = ORIENTED_EDGE ( 'NONE', *, *, #743, .F. ) ;
#730 = ORIENTED_EDGE ( 'NONE', *, *, #77, .F. ) ;
#731 = LINE ( 'NONE', #890, #564 ) ;
#732 = CARTESIAN_POINT ( 'NONE',  ( -62.50000000000000000, -11.13088311754569837, -10.64000000000000767 ) ) ;
#733 = ORIENTED_EDGE ( 'NONE', *, *, #383, .F. ) ;
#734 = APPLICATION_PROTOCOL_DEFINITION ( 'draft international standard', 'automotive_design', 1998, #875 ) ;
#735 = ORIENTED_EDGE ( 'NONE', *, *, #278, .F. ) ;
#736 = DIRECTION ( 'NONE',  ( 0.000000000000000000, 0.000000000000000000, -1.000000000000000000 ) ) ;
#737 = DIRECTION ( 'NONE',  ( 0.000000000000000000, 0.000000000000000000, -1.000000000000000000 ) ) ;
#738 = DIRECTION ( 'NONE',  ( 0.000000000000000000, 0.000000000000000000, -1.000000000000000000 ) ) ;
#739 = ORIENTED_EDGE ( 'NONE', *, *, #361, .F. ) ;
#740 = VERTEX_POINT ( 'NONE', #784 ) ;
#741 = DIRECTION ( 'NONE',  ( 1.000000000000000000, 0.000000000000000000, 0.000000000000000000 ) ) ;
#742 = VECTOR ( 'NONE', #939, 1000.000000000000000 ) ;
#743 = EDGE_CURVE ( 'NONE', #652, #825, #879, .T. ) ;
#744 = LINE ( 'NONE', #884, #783 ) ;
#745 = PRODUCT_RELATED_PRODUCT_CATEGORY ( 'part', '', ( #1023 ) ) ;
#746 = CYLINDRICAL_SURFACE ( 'NONE', #699, 9.656854249492397457 ) ;
#747 = AXIS2_PLACEMENT_3D ( 'NONE', #954, #87, #239 ) ;
#748 = EDGE_LOOP ( 'NONE', ( #730, #54, #921, #159 ) ) ;
#749 = APPLICATION_PROTOCOL_DEFINITION ( 'draft international standard', 'automotive_design', 1998, #441 ) ;
#750 = VERTEX_POINT ( 'NONE', #814 ) ;
#751 = VERTEX_POINT ( 'NONE', #336 ) ;
#752 = CARTESIAN_POINT ( 'NONE',  ( 4.000000000000000000, -1.000000000000000000, -5.999999999999999112 ) ) ;
#753 = DIRECTION ( 'NONE',  ( 0.000000000000000000, -0.7071067811865474617, -0.7071067811865476838 ) ) ;
#754 = CARTESIAN_POINT ( 'NONE',  ( -58.50000000000000000, -1.000000000000000000, -5.999999999999998224 ) ) ;
#755 = ORIENTED_EDGE ( 'NONE', *, *, #640, .F. ) ;
#756 = EDGE_CURVE ( 'NONE', #974, #819, #807, .T. ) ;
#757 = CARTESIAN_POINT ( 'NONE',  ( 4.000000000000000000, -11.38544155877285036, -10.38544155877285569 ) ) ;
#758 = CARTESIAN_POINT ( 'NONE',  ( -62.50000000000000000, 0.000000000000000000, -1.229499999999999593 ) ) ;
#759 = PLANE ( 'NONE',  #221 ) ;
#760 = EDGE_LOOP ( 'NONE', ( #877, #1000 ) ) ;
#761 = ORIENTED_EDGE ( 'NONE', *, *, #756, .F. ) ;
#762 = DIRECTION ( 'NONE',  ( -1.000000000000000000, -0.000000000000000000, -0.000000000000000000 ) ) ;
#763 = VECTOR ( 'NONE', #648, 1000.000000000000000 ) ;
#764 = LINE ( 'NONE', #370, #372 ) ;
#765 = VECTOR ( 'NONE', #64, 1000.000000000000000 ) ;
#766 = LINE ( 'NONE', #293, #73 ) ;
#767 = VERTEX_POINT ( 'NONE', #654 ) ;
#768 = VECTOR ( 'NONE', #858, 1000.000000000000000 ) ;
#769 = ORIENTED_EDGE ( 'NONE', *, *, #143, .F. ) ;
#770 = LINE ( 'NONE', #832, #497 ) ;
#771 = CIRCLE ( 'NONE', #817, 1.229499999999999593 ) ;
#772 = CARTESIAN_POINT ( 'NONE',  ( -62.50000000000000000, -1.000000000000000000, -11.00000000000000000 ) ) ;
#773 = ADVANCED_FACE ( 'NONE', ( #179, #101, #108 ), #90, .T. ) ;
#774 = CARTESIAN_POINT ( 'NONE',  ( -62.50000000000000000, -3.000000000000000000, 8.000000000000000000 ) ) ;
#775 = CARTESIAN_POINT ( 'NONE',  ( -62.50000000000000000, -5.828427124746193400, -4.828427124746196064 ) ) ;
#776 = DIRECTION ( 'NONE',  ( 0.000000000000000000, 0.000000000000000000, -1.000000000000000000 ) ) ;
#777 = FACE_OUTER_BOUND ( 'NONE', #204, .T. ) ;
#778 = EDGE_CURVE ( 'NONE', #915, #849, #660, .T. ) ;
#779 = CARTESIAN_POINT ( 'NONE',  ( 4.000000000000000000, 0.000000000000000000, 0.000000000000000000 ) ) ;
#780 = EDGE_CURVE ( 'NONE', #496, #367, #1018, .T. ) ;
#781 = AXIS2_PLACEMENT_3D ( 'NONE', #138, #741, #358 ) ;
#782 = CARTESIAN_POINT ( 'NONE',  ( -62.50000000000000000, -5.828427124746193400, -4.828427124746196064 ) ) ;
#783 = VECTOR ( 'NONE', #255, 1000.000000000000000 ) ;
#784 = CARTESIAN_POINT ( 'NONE',  ( 4.000000000000000000, -11.13088311754569837, -11.00000000000000000 ) ) ;
#785 = CARTESIAN_POINT ( 'NONE',  ( 0.000000000000000000, 2.000000000000000000, 8.000000000000000000 ) ) ;
#786 = ADVANCED_FACE ( 'NONE', ( #165 ), #272, .F. ) ;
#787 = DIRECTION ( 'NONE',  ( -0.000000000000000000, 1.000000000000000000, -0.000000000000000000 ) ) ;
#788 = EDGE_CURVE ( 'NONE', #1011, #974, #731, .T. ) ;
#789 = ADVANCED_FACE ( 'NONE', ( #970 ), #323, .F. ) ;
#790 = ORIENTED_EDGE ( 'NONE', *, *, #952, .T. ) ;
#791 = DIRECTION ( 'NONE',  ( 0.000000000000000000, 0.000000000000000000, -1.000000000000000000 ) ) ;
#792 = CIRCLE ( 'NONE', #619, 5.000000000000000888 ) ;
#793 = ORIENTED_EDGE ( 'NONE', *, *, #588, .F. ) ;
#794 = LINE ( 'NONE', #164, #550 ) ;
#795 = VECTOR ( 'NONE', #360, 1000.000000000000000 ) ;
#796 = CARTESIAN_POINT ( 'NONE',  ( -58.50000000000000000, 0.000000000000000000, -1.229499999999999593 ) ) ;
#797 = AXIS2_PLACEMENT_3D ( 'NONE', #834, #65, #694 ) ;
#798 = EDGE_CURVE ( 'NONE', #123, #328, #286, .T. ) ;
#799 = ORIENTED_EDGE ( 'NONE', *, *, #155, .F. ) ;
#800 = CARTESIAN_POINT ( 'NONE',  ( 4.000000000000000000, -5.828427124746193400, -4.828427124746196064 ) ) ;
#801 = DIRECTION ( 'NONE',  ( 0.000000000000000000, 0.000000000000000000, -1.000000000000000000 ) ) ;
#802 = DIRECTION ( 'NONE',  ( -1.000000000000000000, -0.000000000000000000, -0.000000000000000000 ) ) ;
#803 = ORIENTED_EDGE ( 'NONE', *, *, #129, .T. ) ;
#804 = ORIENTED_EDGE ( 'NONE', *, *, #709, .F. ) ;
#805 = DIRECTION ( 'NONE',  ( -1.000000000000000000, -0.000000000000000000, -0.000000000000000000 ) ) ;
#806 = EDGE_CURVE ( 'NONE', #603, #610, #249, .T. ) ;
#807 = LINE ( 'NONE', #991, #701 ) ;
#808 = CARTESIAN_POINT ( 'NONE',  ( 0.000000000000000000, -5.828427124746193400, -4.828427124746196064 ) ) ;
#809 = CIRCLE ( 'NONE', #657, 2.024999999999999023 ) ;
#810 = EDGE_LOOP ( 'NONE', ( #182, #922, #435, #533 ) ) ;
#811 = AXIS2_PLACEMENT_3D ( 'NONE', #507, #822, #897 ) ;
#812 = ORIENTED_EDGE ( 'NONE', *, *, #162, .F. ) ;
#813 = EDGE_LOOP ( 'NONE', ( #103, #894 ) ) ;
#814 = CARTESIAN_POINT ( 'NONE',  ( 0.000000000000000000, 0.000000000000000000, 1.229499999999999593 ) ) ;
#815 = VECTOR ( 'NONE', #486, 1000.000000000000000 ) ;
#816 = LINE ( 'NONE', #102, #297 ) ;
#817 = AXIS2_PLACEMENT_3D ( 'NONE', #846, #279, #131 ) ;
#818 = EDGE_LOOP ( 'NONE', ( #115, #677, #799, #487 ) ) ;
#819 = VERTEX_POINT ( 'NONE', #725 ) ;
#820 = SURFACE_STYLE_USAGE ( .BOTH. , #89 ) ;
#821 = CARTESIAN_POINT ( 'NONE',  ( -58.50000000000000000, 2.000000000000000000, 8.000000000000000000 ) ) ;
#822 = DIRECTION ( 'NONE',  ( 0.000000000000000000, 1.000000000000000000, 4.415254305522827842E-16 ) ) ;
#823 = ORIENTED_EDGE ( 'NONE', *, *, #31, .F. ) ;
#824 = EDGE_CURVE ( 'NONE', #5, #428, #744, .T. ) ;
#825 = VERTEX_POINT ( 'NONE', #977 ) ;
#826 = CARTESIAN_POINT ( 'NONE',  ( 4.000000000000000000, 2.000000000000000000, 10.02499999999999858 ) ) ;
#827 = DIRECTION ( 'NONE',  ( -0.000000000000000000, -1.445602896647339656E-16, -1.000000000000000000 ) ) ;
#828 = CARTESIAN_POINT ( 'NONE',  ( -29.25000000000000000, -1.000000000000000000, -4.999999999999999112 ) ) ;
#829 = EDGE_LOOP ( 'NONE', ( #573, #264, #451, #450 ) ) ;
#830 = ORIENTED_EDGE ( 'NONE', *, *, #390, .F. ) ;
#831 = VERTEX_POINT ( 'NONE', #667 ) ;
#832 = CARTESIAN_POINT ( 'NONE',  ( 4.000000000000000000, -3.000000000000002665, 2.000000000000001776 ) ) ;
#833 = AXIS2_PLACEMENT_3D ( 'NONE', #440, #996, #277 ) ;
#834 = CARTESIAN_POINT ( 'NONE',  ( -62.50000000000000000, 2.000000000000000000, 8.000000000000000000 ) ) ;
#835 = CARTESIAN_POINT ( 'NONE',  ( 0.000000000000000000, -1.000000000000000000, -5.999999999999999112 ) ) ;
#836 = EDGE_CURVE ( 'NONE', #328, #751, #326, .T. ) ;
#837 = CIRCLE ( 'NONE', #471, 5.000000000000009770 ) ;
#838 = AXIS2_PLACEMENT_3D ( 'NONE', #459, #530, #453 ) ;
#839 = ORIENTED_EDGE ( 'NONE', *, *, #268, .F. ) ;
#840 = DIRECTION ( 'NONE',  ( 1.000000000000000000, 0.000000000000000000, 0.000000000000000000 ) ) ;
#841 = DIRECTION ( 'NONE',  ( 0.000000000000000000, 0.7071067811865474617, 0.7071067811865475727 ) ) ;
#842 = EDGE_CURVE ( 'NONE', #163, #955, #19, .T. ) ;
#843 = ORIENTED_EDGE ( 'NONE', *, *, #62, .F. ) ;
#844 = ORIENTED_EDGE ( 'NONE', *, *, #540, .T. ) ;
#845 = DIRECTION ( 'NONE',  ( -1.000000000000000000, 0.000000000000000000, 0.000000000000000000 ) ) ;
#846 = CARTESIAN_POINT ( 'NONE',  ( -58.50000000000000000, 0.000000000000000000, 0.000000000000000000 ) ) ;
#847 = CARTESIAN_POINT ( 'NONE',  ( 0.000000000000000000, -11.13088311754569837, -10.64000000000000767 ) ) ;
#848 = ORIENTED_EDGE ( 'NONE', *, *, #788, .T. ) ;
#849 = VERTEX_POINT ( 'NONE', #903 ) ;
#850 = FACE_BOUND ( 'NONE', #168, .T. ) ;
#851 = DIRECTION ( 'NONE',  ( 0.000000000000000000, 4.415254305522827842E-16, -1.000000000000000000 ) ) ;
#852 = AXIS2_PLACEMENT_3D ( 'NONE', #860, #465, #545 ) ;
#853 = DIRECTION ( 'NONE',  ( 1.000000000000000000, -0.000000000000000000, -0.000000000000000000 ) ) ;
#854 = ORIENTED_EDGE ( 'NONE', *, *, #278, .T. ) ;
#855 = VECTOR ( 'NONE', #146, 1000.000000000000000 ) ;
#856 = FACE_OUTER_BOUND ( 'NONE', #599, .T. ) ;
#857 = VECTOR ( 'NONE', #212, 1000.000000000000000 ) ;
#858 = DIRECTION ( 'NONE',  ( 1.000000000000000000, -0.000000000000000000, -0.000000000000000000 ) ) ;
#859 = EDGE_CURVE ( 'NONE', #987, #912, #511, .T. ) ;
#860 = CARTESIAN_POINT ( 'NONE',  ( 4.000000000000000000, 2.000000000000000000, 8.000000000000000000 ) ) ;
#861 = CARTESIAN_POINT ( 'NONE',  ( -58.50000000000000000, -1.000000000000000000, -4.999999999999999112 ) ) ;
#862 = CARTESIAN_POINT ( 'NONE',  ( 4.000000000000000000, -11.38544155877285036, -10.38544155877285569 ) ) ;
#863 = PRODUCT_DEFINITION_SHAPE ( 'NONE', 'NONE',  #937 ) ;
#864 = CARTESIAN_POINT ( 'NONE',  ( 0.000000000000000000, -1.000000000000000000, -4.999999999999999112 ) ) ;
#865 = EDGE_CURVE ( 'NONE', #995, #598, #60, .T. ) ;
#866 = LINE ( 'NONE', #150, #601 ) ;
#867 = VECTOR ( 'NONE', #506, 1000.000000000000000 ) ;
#868 = EDGE_CURVE ( 'NONE', #128, #912, #425, .T. ) ;
#869 = CARTESIAN_POINT ( 'NONE',  ( 4.000000000000000000, 2.000000000000000000, 4.071067811865501263 ) ) ;
#870 = CARTESIAN_POINT ( 'NONE',  ( -62.50000000000000000, -3.000000000000000000, 8.000000000000000000 ) ) ;
#871 = FACE_OUTER_BOUND ( 'NONE', #41, .T. ) ;
#872 = ORIENTED_EDGE ( 'NONE', *, *, #217, .F. ) ;
#873 = EDGE_CURVE ( 'NONE', #504, #658, #113, .T. ) ;
#874 = CARTESIAN_POINT ( 'NONE',  ( 4.000000000000000000, -3.000000000000000000, 8.000000000000000000 ) ) ;
#875 = APPLICATION_CONTEXT ( 'automotive_design' ) ;
#876 = VECTOR ( 'NONE', #992, 1000.000000000000000 ) ;
#877 = ORIENTED_EDGE ( 'NONE', *, *, #217, .T. ) ;
#878 = LINE ( 'NONE', #403, #763 ) ;
#879 = CIRCLE ( 'NONE', #685, 5.000000000000000888 ) ;
#880 = AXIS2_PLACEMENT_3D ( 'NONE', #447, #197, #851 ) ;
#881 = CARTESIAN_POINT ( 'NONE',  ( 4.000000000000000000, 5.535533905932743970, 0.5355339059327567375 ) ) ;
#882 = VERTEX_POINT ( 'NONE', #690 ) ;
#883 = ORIENTED_EDGE ( 'NONE', *, *, #689, .T. ) ;
#884 = CARTESIAN_POINT ( 'NONE',  ( 4.000000000000000000, -5.828427124746193400, -4.828427124746196064 ) ) ;
#885 = DIRECTION ( 'NONE',  ( 1.000000000000000000, -0.000000000000000000, -0.000000000000000000 ) ) ;
#886 = ORIENTED_EDGE ( 'NONE', *, *, #526, .T. ) ;
#887 = DIRECTION ( 'NONE',  ( 1.000000000000000000, 0.000000000000000000, 0.000000000000000000 ) ) ;
#888 = ORIENTED_EDGE ( 'NONE', *, *, #343, .F. ) ;
#889 = DIRECTION ( 'NONE',  ( 0.000000000000000000, 0.000000000000000000, 1.000000000000000000 ) ) ;
#890 = CARTESIAN_POINT ( 'NONE',  ( -62.50000000000000000, -3.000000000000000000, 8.000000000000000000 ) ) ;
#891 = DIRECTION ( 'NONE',  ( 0.000000000000000000, 0.000000000000000000, -1.000000000000000000 ) ) ;
#892 = ORIENTED_EDGE ( 'NONE', *, *, #467, .F. ) ;
#893 = CIRCLE ( 'NONE', #81, 1.229499999999999593 ) ;
#894 = ORIENTED_EDGE ( 'NONE', *, *, #77, .T. ) ;
#895 = CARTESIAN_POINT ( 'NONE',  ( 4.000000000000000000, -11.13088311754569837, -10.64000000000000767 ) ) ;
#896 = EDGE_CURVE ( 'NONE', #955, #750, #898, .T. ) ;
#897 = DIRECTION ( 'NONE',  ( 0.000000000000000000, -4.415254305522827842E-16, 1.000000000000000000 ) ) ;
#898 = CIRCLE ( 'NONE', #838, 1.229499999999999593 ) ;
#899 = VERTEX_POINT ( 'NONE', #58 ) ;
#900 =( NAMED_UNIT ( * ) SI_UNIT ( $, .STERADIAN. ) SOLID_ANGLE_UNIT ( ) );
#901 = ORIENTED_EDGE ( 'NONE', *, *, #971, .T. ) ;
#902 = CARTESIAN_POINT ( 'NONE',  ( -62.50000000000000000, -11.13088311754569837, -11.00000000000000000 ) ) ;
#903 = CARTESIAN_POINT ( 'NONE',  ( 0.000000000000000000, 7.000000000000000888, 8.000000000000000000 ) ) ;
#904 = DIRECTION ( 'NONE',  ( -1.000000000000000000, 0.000000000000000000, 0.000000000000000000 ) ) ;
#905 = ORIENTED_EDGE ( 'NONE', *, *, #709, .T. ) ;
#906 = ORIENTED_EDGE ( 'NONE', *, *, #69, .T. ) ;
#907 = VERTEX_POINT ( 'NONE', #681 ) ;
#908 = CARTESIAN_POINT ( 'NONE',  ( -62.50000000000000000, 5.535533905932743970, 0.5355339059327567375 ) ) ;
#909 = EDGE_CURVE ( 'NONE', #156, #767, #100, .T. ) ;
#910 = DIRECTION ( 'NONE',  ( 1.000000000000000000, 0.000000000000000000, 0.000000000000000000 ) ) ;
#911 = CARTESIAN_POINT ( 'NONE',  ( -62.50000000000000000, -1.000000000000000000, -5.999999999999999112 ) ) ;
#912 = VERTEX_POINT ( 'NONE', #772 ) ;
#913 = ORIENTED_EDGE ( 'NONE', *, *, #824, .T. ) ;
#914 = CARTESIAN_POINT ( 'NONE',  ( 4.000000000000000000, -1.000000000000000000, -11.00000000000000000 ) ) ;
#915 = VERTEX_POINT ( 'NONE', #617 ) ;
#916 = FACE_BOUND ( 'NONE', #558, .T. ) ;
#917 = AXIS2_PLACEMENT_3D ( 'NONE', #389, #142, #463 ) ;
#918 = CARTESIAN_POINT ( 'NONE',  ( 0.000000000000000000, 1.505703239551670331E-16, -1.229499999999999593 ) ) ;
#919 = DIRECTION ( 'NONE',  ( -1.000000000000000000, -0.000000000000000000, -0.000000000000000000 ) ) ;
#920 = AXIS2_PLACEMENT_3D ( 'NONE', #37, #342, #649 ) ;
#921 = ORIENTED_EDGE ( 'NONE', *, *, #865, .T. ) ;
#922 = ORIENTED_EDGE ( 'NONE', *, *, #539, .F. ) ;
#923 = DIRECTION ( 'NONE',  ( -0.000000000000000000, 0.7071067811865474617, 0.7071067811865475727 ) ) ;
#924 = CARTESIAN_POINT ( 'NONE',  ( -58.50000000000000000, -1.000000000000000000, -4.999999999999999112 ) ) ;
#925 = ORIENTED_EDGE ( 'NONE', *, *, #226, .T. ) ;
#926 = DIRECTION ( 'NONE',  ( 1.000000000000000000, -0.000000000000000000, -0.000000000000000000 ) ) ;
#927 = CARTESIAN_POINT ( 'NONE',  ( -29.25000000000000000, -5.999999999999994671, -4.999999999999999112 ) ) ;
#928 = DIRECTION ( 'NONE',  ( 0.000000000000000000, 0.7071067811865474617, 0.7071067811865475727 ) ) ;
#929 = EDGE_LOOP ( 'NONE', ( #888, #988, #579, #124, #245, #74, #445, #532, #271, #493 ) ) ;
#930 = DIRECTION ( 'NONE',  ( 0.000000000000000000, 0.000000000000000000, 1.000000000000000000 ) ) ;
#931 = AXIS2_PLACEMENT_3D ( 'NONE', #410, #724, #889 ) ;
#932 = LINE ( 'NONE', #535, #586 ) ;
#933 = VECTOR ( 'NONE', #624, 1000.000000000000000 ) ;
#934 = LINE ( 'NONE', #924, #795 ) ;
#935 = EDGE_CURVE ( 'NONE', #907, #684, #764, .T. ) ;
#936 = VECTOR ( 'NONE', #947, 1000.000000000000000 ) ;
#937 = PRODUCT_DEFINITION ( 'UNKNOWN', '', #712, #953 ) ;
#938 = AXIS2_PLACEMENT_3D ( 'NONE', #206, #329, #429 ) ;
#939 = DIRECTION ( 'NONE',  ( -1.000000000000000000, -0.000000000000000000, -0.000000000000000000 ) ) ;
#940 = FACE_OUTER_BOUND ( 'NONE', #334, .T. ) ;
#941 = VERTEX_POINT ( 'NONE', #285 ) ;
#942 = DIRECTION ( 'NONE',  ( -1.000000000000000000, -0.000000000000000000, -0.000000000000000000 ) ) ;
#943 = EDGE_CURVE ( 'NONE', #899, #270, #1009, .T. ) ;
#944 = CYLINDRICAL_SURFACE ( 'NONE', #963, 5.000000000000009770 ) ;
#945 = FACE_OUTER_BOUND ( 'NONE', #605, .T. ) ;
#946 = AXIS2_PLACEMENT_3D ( 'NONE', #732, #40, #576 ) ;
#947 = DIRECTION ( 'NONE',  ( -1.000000000000000000, -0.000000000000000000, -0.000000000000000000 ) ) ;
#948 = FACE_OUTER_BOUND ( 'NONE', #505, .T. ) ;
#949 = VECTOR ( 'NONE', #260, 1000.000000000000000 ) ;
#950 = CIRCLE ( 'NONE', #938, 1.229499999999999593 ) ;
#951 = CARTESIAN_POINT ( 'NONE',  ( -62.50000000000000000, 0.000000000000000000, -1.229499999999999593 ) ) ;
#952 = EDGE_CURVE ( 'NONE', #289, #553, #932, .T. ) ;
#953 = PRODUCT_DEFINITION_CONTEXT ( 'detailed design', #441, 'design' ) ;
#954 = CARTESIAN_POINT ( 'NONE',  ( -62.50000000000000000, 0.000000000000000000, 0.000000000000000000 ) ) ;
#955 = VERTEX_POINT ( 'NONE', #918 ) ;
#956 = PRESENTATION_STYLE_ASSIGNMENT (( #820 ) ) ;
#957 = CARTESIAN_POINT ( 'NONE',  ( -58.50000000000000000, 2.000000000000000000, 8.000000000000000000 ) ) ;
#958 = CIRCLE ( 'NONE', #412, 5.000000000000000888 ) ;
#959 = EDGE_CURVE ( 'NONE', #912, #251, #139, .T. ) ;
#960 = EDGE_CURVE ( 'NONE', #99, #907, #126, .T. ) ;
#961 = ORIENTED_EDGE ( 'NONE', *, *, #1013, .F. ) ;
#962 =( NAMED_UNIT ( * ) PLANE_ANGLE_UNIT ( ) SI_UNIT ( $, .RADIAN. ) );
#963 = AXIS2_PLACEMENT_3D ( 'NONE', #869, #151, #244 ) ;
#964 = AXIS2_PLACEMENT_3D ( 'NONE', #494, #22, #353 ) ;
#965 = CARTESIAN_POINT ( 'NONE',  ( 4.000000000000000000, 2.000000000000000000, 8.000000000000000000 ) ) ;
#966 = CARTESIAN_POINT ( 'NONE',  ( 4.000000000000000000, 2.000000000000000000, 13.00000000000000178 ) ) ;
#967 = ORIENTED_EDGE ( 'NONE', *, *, #540, .F. ) ;
#968 = EDGE_LOOP ( 'NONE', ( #84, #457, #872, #967 ) ) ;
#969 = CARTESIAN_POINT ( 'NONE',  ( -62.50000000000000000, 2.000000000000000000, 8.000000000000000000 ) ) ;
#970 = FACE_OUTER_BOUND ( 'NONE', #330, .T. ) ;
#971 = EDGE_CURVE ( 'NONE', #610, #941, #292, .T. ) ;
#972 = CARTESIAN_POINT ( 'NONE',  ( -62.50000000000000000, -12.65685424949239923, 2.000000000000000000 ) ) ;
#973 = ORIENTED_EDGE ( 'NONE', *, *, #524, .T. ) ;
#974 = VERTEX_POINT ( 'NONE', #295 ) ;
#975 = DIRECTION ( 'NONE',  ( 1.000000000000000000, -0.000000000000000000, -0.000000000000000000 ) ) ;
#976 = ADVANCED_FACE ( 'NONE', ( #359 ), #525, .F. ) ;
#977 = CARTESIAN_POINT ( 'NONE',  ( -58.50000000000000000, -3.000000000000000000, 8.000000000000000000 ) ) ;
#978 = EDGE_CURVE ( 'NONE', #713, #270, #771, .T. ) ;
#979 = PLANE ( 'NONE',  #811 ) ;
#980 = VECTOR ( 'NONE', #400, 1000.000000000000000 ) ;
#981 = ORIENTED_EDGE ( 'NONE', *, *, #462, .T. ) ;
#982 = VERTEX_POINT ( 'NONE', #758 ) ;
#983 =( LENGTH_UNIT ( ) NAMED_UNIT ( * ) SI_UNIT ( .MILLI., .METRE. ) );
#984 = CARTESIAN_POINT ( 'NONE',  ( -58.50000000000000000, -11.38544155877285036, -10.38544155877285569 ) ) ;
#985 = VECTOR ( 'NONE', #547, 1000.000000000000000 ) ;
#986 = LINE ( 'NONE', #269, #876 ) ;
#987 = VERTEX_POINT ( 'NONE', #377 ) ;
#988 = ORIENTED_EDGE ( 'NONE', *, *, #680, .F. ) ;
#989 = ADVANCED_FACE ( 'NONE', ( #600 ), #191, .T. ) ;
#990 = CARTESIAN_POINT ( 'NONE',  ( 0.000000000000000000, 2.000000000000000000, 13.00000000000000178 ) ) ;
#991 = CARTESIAN_POINT ( 'NONE',  ( -62.50000000000000000, -3.000000000000002665, 2.000000000000001776 ) ) ;
#992 = DIRECTION ( 'NONE',  ( 0.000000000000000000, -1.445602896647339656E-16, -1.000000000000000000 ) ) ;
#993 = ORIENTED_EDGE ( 'NONE', *, *, #62, .T. ) ;
#994 = ORIENTED_EDGE ( 'NONE', *, *, #302, .F. ) ;
#995 = VERTEX_POINT ( 'NONE', #218 ) ;
#996 = DIRECTION ( 'NONE',  ( 1.000000000000000000, -0.000000000000000000, -0.000000000000000000 ) ) ;
#997 = DIRECTION ( 'NONE',  ( 1.000000000000000000, -0.000000000000000000, -0.000000000000000000 ) ) ;
#998 = LINE ( 'NONE', #207, #177 ) ;
#999 = EDGE_CURVE ( 'NONE', #375, #1011, #1006, .T. ) ;
#1000 = ORIENTED_EDGE ( 'NONE', *, *, #896, .T. ) ;
#1001 = ORIENTED_EDGE ( 'NONE', *, *, #418, .T. ) ;
#1002 = CYLINDRICAL_SURFACE ( 'NONE', #55, 2.024999999999999023 ) ;
#1003 = AXIS2_PLACEMENT_3D ( 'NONE', #870, #152, #476 ) ;
#1004 = CARTESIAN_POINT ( 'NONE',  ( -62.50000000000000000, -3.000000000000000000, 8.000000000000000000 ) ) ;
#1005 = DIRECTION ( 'NONE',  ( 0.000000000000000000, 0.000000000000000000, -1.000000000000000000 ) ) ;
#1006 = CIRCLE ( 'NONE', #643, 5.000000000000000888 ) ;
#1007 = ORIENTED_EDGE ( 'NONE', *, *, #686, .T. ) ;
#1008 = CARTESIAN_POINT ( 'NONE',  ( 4.000000000000000000, 2.000000000000000000, 8.000000000000000000 ) ) ;
#1009 = LINE ( 'NONE', #442, #266 ) ;
#1010 = CARTESIAN_POINT ( 'NONE',  ( -62.50000000000000000, 5.535533905932749299, 0.5355339059327515194 ) ) ;
#1011 = VERTEX_POINT ( 'NONE', #1004 ) ;
#1012 = DIRECTION ( 'NONE',  ( 0.000000000000000000, 0.000000000000000000, -1.000000000000000000 ) ) ;
#1013 = EDGE_CURVE ( 'NONE', #270, #713, #950, .T. ) ;
#1014 = LINE ( 'NONE', #623, #234 ) ;
#1015 = EDGE_CURVE ( 'NONE', #819, #603, #199, .T. ) ;
#1016 = DIRECTION ( 'NONE',  ( 0.000000000000000000, 0.000000000000000000, -1.000000000000000000 ) ) ;
#1017 = CARTESIAN_POINT ( 'NONE',  ( -58.50000000000000000, 2.000000000000000000, 8.000000000000000000 ) ) ;
#1018 = CIRCLE ( 'NONE', #585, 2.024999999999999023 ) ;
#1019 = CYLINDRICAL_SURFACE ( 'NONE', #157, 5.000000000000000888 ) ;
#1020 = EDGE_CURVE ( 'NONE', #987, #99, #43, .T. ) ;
#1021 = ORIENTED_EDGE ( 'NONE', *, *, #859, .T. ) ;
#1022 = CARTESIAN_POINT ( 'NONE',  ( -62.50000000000000000, 2.000000000000000000, 8.000000000000000000 ) ) ;
#1023 = PRODUCT ( 'chipper', 'chipper', '', ( #436 ) ) ;
#1024 = DIRECTION ( 'NONE',  ( 0.000000000000000000, -0.000000000000000000, -1.000000000000000000 ) ) ;
#1025 = ADVANCED_FACE ( 'NONE', ( #574 ), #170, .F. ) ;
#1026 = CARTESIAN_POINT ( 'NONE',  ( 4.000000000000000000, -11.13088311754569837, -10.64000000000000767 ) ) ;
#1027 = DIRECTION ( 'NONE',  ( -1.000000000000000000, -0.000000000000000000, -0.000000000000000000 ) ) ;
ENDSEC;
END-ISO-10303-21;
