ISO-10303-21;
HEADER;
FILE_DESCRIPTION (( 'STEP AP214' ),
    '1' );
FILE_NAME ('main holder (2 times).STEP',
    '2026-03-24T22:38:35',
    ( '' ),
    ( '' ),
    'SwSTEP 2.0',
    'SolidWorks 2026',
    '' );
FILE_SCHEMA (( 'AUTOMOTIVE_DESIGN' ));
ENDSEC;

DATA;
#1 = CARTESIAN_POINT ( 'NONE',  ( 5.000000000000000000, 2.770861233998996642, 1.637715308499751110 ) ) ;
#2 = CARTESIAN_POINT ( 'NONE',  ( 5.000000000000000000, 3.770861234138916274, 5.137715308499750222 ) ) ;
#3 = DIRECTION ( 'NONE',  ( -1.000000000000000000, 0.000000000000000000, 0.000000000000000000 ) ) ;
#4 = ORIENTED_EDGE ( 'NONE', *, *, #948, .T. ) ;
#5 = CYLINDRICAL_SURFACE ( 'NONE', #803, 1.250000000000000666 ) ;
#6 = ORIENTED_EDGE ( 'NONE', *, *, #244, .F. ) ;
#7 = DIRECTION ( 'NONE',  ( 0.000000000000000000, 0.000000000000000000, -1.000000000000000000 ) ) ;
#8 = AXIS2_PLACEMENT_3D ( 'NONE', #945, #438, #867 ) ;
#9 = VERTEX_POINT ( 'NONE', #21 ) ;
#10 = AXIS2_PLACEMENT_3D ( 'NONE', #511, #860, #88 ) ;
#11 = AXIS2_PLACEMENT_3D ( 'NONE', #236, #524, #611 ) ;
#12 = EDGE_CURVE ( 'NONE', #119, #1003, #545, .T. ) ;
#13 = AXIS2_PLACEMENT_3D ( 'NONE', #1079, #1011, #922 ) ;
#14 = CYLINDRICAL_SURFACE ( 'NONE', #484, 0.9999999999999974465 ) ;
#15 = ADVANCED_FACE ( 'NONE', ( #895 ), #100, .F. ) ;
#16 = EDGE_LOOP ( 'NONE', ( #995, #718, #6, #883 ) ) ;
#17 = DIRECTION ( 'NONE',  ( 1.000000000000000000, 0.000000000000000000, 0.000000000000000000 ) ) ;
#18 = EDGE_LOOP ( 'NONE', ( #526, #243, #152, #368 ) ) ;
#19 = FACE_OUTER_BOUND ( 'NONE', #576, .T. ) ;
#20 = PRODUCT ( 'main holder (2 times)', 'main holder (2 times)', '', ( #523 ) ) ;
#21 = CARTESIAN_POINT ( 'NONE',  ( 1.250000000000000222, -5.229138766001003802, -13.43228469150025006 ) ) ;
#22 = EDGE_CURVE ( 'NONE', #964, #893, #33, .T. ) ;
#23 = DIRECTION ( 'NONE',  ( 0.000000000000000000, 0.000000000000000000, -1.000000000000000000 ) ) ;
#24 = VERTEX_POINT ( 'NONE', #726 ) ;
#25 = CARTESIAN_POINT ( 'NONE',  ( 5.000000000000000000, -8.729138766001002026, -7.362284691913674628 ) ) ;
#26 = DIRECTION ( 'NONE',  ( 0.000000000000000000, 0.7071067811865484609, -0.7071067811865465735 ) ) ;
#27 = CYLINDRICAL_SURFACE ( 'NONE', #835, 5.000000000000000000 ) ;
#28 = EDGE_LOOP ( 'NONE', ( #728, #477, #969, #591 ) ) ;
#29 = CIRCLE ( 'NONE', #947, 2.000000000000001332 ) ;
#30 = ADVANCED_FACE ( 'NONE', ( #635 ), #988, .T. ) ;
#31 = DIRECTION ( 'NONE',  ( 0.000000000000000000, 0.000000000000000000, -1.000000000000000000 ) ) ;
#32 = VECTOR ( 'NONE', #1012, 1000.000000000000000 ) ;
#33 = CIRCLE ( 'NONE', #124, 1.229499999999997151 ) ;
#34 = VERTEX_POINT ( 'NONE', #816 ) ;
#35 = EDGE_CURVE ( 'NONE', #655, #557, #105, .T. ) ;
#36 = EDGE_CURVE ( 'NONE', #271, #169, #378, .T. ) ;
#37 = FACE_OUTER_BOUND ( 'NONE', #334, .T. ) ;
#38 = DIRECTION ( 'NONE',  ( -0.000000000000000000, 1.000000000000000000, -0.000000000000000000 ) ) ;
#39 = VERTEX_POINT ( 'NONE', #796 ) ;
#40 = DIRECTION ( 'NONE',  ( 0.000000000000000000, -1.000000000000000000, 0.000000000000000000 ) ) ;
#41 = LINE ( 'NONE', #832, #636 ) ;
#42 = ORIENTED_EDGE ( 'NONE', *, *, #517, .T. ) ;
#43 = CARTESIAN_POINT ( 'NONE',  ( 3.750000000000001776, -5.229138766001003802, -8.432284691500251839 ) ) ;
#44 = FACE_BOUND ( 'NONE', #681, .T. ) ;
#45 = CARTESIAN_POINT ( 'NONE',  ( 5.000000000000000000, 3.770861234138885631, -5.591784691500251370 ) ) ;
#46 = AXIS2_PLACEMENT_3D ( 'NONE', #712, #1051, #424 ) ;
#47 = AXIS2_PLACEMENT_3D ( 'NONE', #1080, #369, #725 ) ;
#48 = CYLINDRICAL_SURFACE ( 'NONE', #672, 1.229499999999998927 ) ;
#49 = ORIENTED_EDGE ( 'NONE', *, *, #294, .F. ) ;
#50 = CARTESIAN_POINT ( 'NONE',  ( 5.000000000000000000, 10.14954089043935603, -5.310964347940601016 ) ) ;
#51 = CARTESIAN_POINT ( 'NONE',  ( 5.000000000000000000, 3.770861234138885631, -5.591784691500251370 ) ) ;
#52 = EDGE_CURVE ( 'NONE', #183, #54, #1016, .T. ) ;
#53 = DIRECTION ( 'NONE',  ( -1.000000000000000000, 0.000000000000000000, 0.000000000000000000 ) ) ;
#54 = VERTEX_POINT ( 'NONE', #141 ) ;
#55 = CARTESIAN_POINT ( 'NONE',  ( 0.000000000000000000, 11.39218157755864524, -6.553605035059877792 ) ) ;
#56 = LINE ( 'NONE', #652, #747 ) ;
#57 = DIRECTION ( 'NONE',  ( 0.000000000000000000, 1.000000000000000000, 1.067522139062650671E-15 ) ) ;
#58 = ORIENTED_EDGE ( 'NONE', *, *, #35, .F. ) ;
#59 = DIRECTION ( 'NONE',  ( -1.000000000000000000, -0.000000000000000000, -0.000000000000000000 ) ) ;
#60 = FACE_OUTER_BOUND ( 'NONE', #258, .T. ) ;
#61 = FILL_AREA_STYLE ('',( #677 ) ) ;
#62 = CIRCLE ( 'NONE', #357, 2.999999999999996447 ) ;
#63 = AXIS2_PLACEMENT_3D ( 'NONE', #1096, #493, #463 ) ;
#64 = AXIS2_PLACEMENT_3D ( 'NONE', #330, #954, #965 ) ;
#65 = VERTEX_POINT ( 'NONE', #55 ) ;
#66 = VECTOR ( 'NONE', #1126, 1000.000000000000000 ) ;
#67 = DIRECTION ( 'NONE',  ( 0.000000000000000000, -0.7071067811865484609, 0.7071067811865465735 ) ) ;
#68 = EDGE_CURVE ( 'NONE', #964, #848, #750, .T. ) ;
#69 = EDGE_LOOP ( 'NONE', ( #808, #376, #604, #1026 ) ) ;
#70 = ADVANCED_FACE ( 'NONE', ( #742 ), #303, .F. ) ;
#71 = CARTESIAN_POINT ( 'NONE',  ( 0.000000000000000000, -3.729138766001002026, 11.56771530849973750 ) ) ;
#72 = DIRECTION ( 'NONE',  ( 0.000000000000000000, 0.000000000000000000, 1.000000000000000000 ) ) ;
#73 = ORIENTED_EDGE ( 'NONE', *, *, #415, .F. ) ;
#74 = DIRECTION ( 'NONE',  ( 0.000000000000000000, 0.000000000000000000, 1.000000000000000000 ) ) ;
#75 = ORIENTED_EDGE ( 'NONE', *, *, #1085, .T. ) ;
#76 = LINE ( 'NONE', #1, #953 ) ;
#77 = CARTESIAN_POINT ( 'NONE',  ( 5.000000000000000000, -3.729138766001002026, -1.362284691913676626 ) ) ;
#78 = ORIENTED_EDGE ( 'NONE', *, *, #890, .F. ) ;
#79 = DIRECTION ( 'NONE',  ( 1.000000000000000000, 0.000000000000000000, 0.000000000000000000 ) ) ;
#80 = EDGE_LOOP ( 'NONE', ( #932, #256, #1020, #569, #722, #966, #645, #1120, #166, #4, #704, #504, #782, #979 ) ) ;
#81 = DIRECTION ( 'NONE',  ( -0.000000000000000000, 2.187839969892512647E-15, 1.000000000000000000 ) ) ;
#82 = ORIENTED_EDGE ( 'NONE', *, *, #685, .F. ) ;
#83 = AXIS2_PLACEMENT_3D ( 'NONE', #644, #531, #696 ) ;
#84 = VECTOR ( 'NONE', #770, 1000.000000000000000 ) ;
#85 = LINE ( 'NONE', #1061, #854 ) ;
#86 = ORIENTED_EDGE ( 'NONE', *, *, #149, .F. ) ;
#87 = VECTOR ( 'NONE', #203, 1000.000000000000000 ) ;
#88 = DIRECTION ( 'NONE',  ( 0.000000000000000000, 0.000000000000000000, -1.000000000000000000 ) ) ;
#89 = VERTEX_POINT ( 'NONE', #736 ) ;
#90 = LINE ( 'NONE', #186, #339 ) ;
#91 = ORIENTED_EDGE ( 'NONE', *, *, #887, .F. ) ;
#92 = DIRECTION ( 'NONE',  ( -1.000000000000000000, -0.000000000000000000, -0.000000000000000000 ) ) ;
#93 = PLANE ( 'NONE',  #1075 ) ;
#94 = VERTEX_POINT ( 'NONE', #475 ) ;
#95 = PLANE ( 'NONE',  #296 ) ;
#96 = ADVANCED_FACE ( 'NONE', ( #135 ), #1083, .T. ) ;
#97 = ORIENTED_EDGE ( 'NONE', *, *, #662, .T. ) ;
#98 = EDGE_CURVE ( 'NONE', #893, #795, #663, .T. ) ;
#99 = CARTESIAN_POINT ( 'NONE',  ( 5.000000000000000000, -11.72913876600100203, -13.43228469150025006 ) ) ;
#100 = PLANE ( 'NONE',  #639 ) ;
#101 = DIRECTION ( 'NONE',  ( 1.000000000000000000, 0.000000000000000000, 0.000000000000000000 ) ) ;
#102 = CIRCLE ( 'NONE', #204, 1.229499999999997151 ) ;
#103 = VERTEX_POINT ( 'NONE', #581 ) ;
#104 = AXIS2_PLACEMENT_3D ( 'NONE', #132, #127, #476 ) ;
#105 = LINE ( 'NONE', #449, #225 ) ;
#106 = LINE ( 'NONE', #471, #931 ) ;
#107 = EDGE_CURVE ( 'NONE', #1030, #852, #483, .T. ) ;
#108 = ORIENTED_EDGE ( 'NONE', *, *, #68, .F. ) ;
#109 = DIRECTION ( 'NONE',  ( -0.000000000000000000, -0.000000000000000000, -1.000000000000000000 ) ) ;
#110 = ORIENTED_EDGE ( 'NONE', *, *, #1024, .F. ) ;
#111 = DIRECTION ( 'NONE',  ( 0.000000000000000000, 1.000000000000000000, -8.573592138854818668E-16 ) ) ;
#112 = DIRECTION ( 'NONE',  ( -1.000000000000000000, -0.000000000000000000, -0.000000000000000000 ) ) ;
#113 = ORIENTED_EDGE ( 'NONE', *, *, #973, .F. ) ;
#114 = EDGE_CURVE ( 'NONE', #238, #1035, #411, .T. ) ;
#115 = CARTESIAN_POINT ( 'NONE',  ( 5.000000000000000000, 11.39218157755864524, -6.553605035059877792 ) ) ;
#116 = EDGE_CURVE ( 'NONE', #870, #125, #490, .T. ) ;
#117 = ADVANCED_FACE ( 'NONE', ( #646 ), #911, .F. ) ;
#118 = CARTESIAN_POINT ( 'NONE',  ( 5.000000000000000000, 12.27086123399899620, -13.43228469150025006 ) ) ;
#119 = VERTEX_POINT ( 'NONE', #120 ) ;
#120 = CARTESIAN_POINT ( 'NONE',  ( 5.000000000000000000, 2.770861233998997086, -2.362284691500251554 ) ) ;
#121 = AXIS2_PLACEMENT_3D ( 'NONE', #989, #542, #194 ) ;
#122 = FACE_OUTER_BOUND ( 'NONE', #414, .T. ) ;
#123 = AXIS2_PLACEMENT_3D ( 'NONE', #659, #935, #1018 ) ;
#124 = AXIS2_PLACEMENT_3D ( 'NONE', #2, #902, #810 ) ;
#125 = VERTEX_POINT ( 'NONE', #130 ) ;
#126 = CARTESIAN_POINT ( 'NONE',  ( 5.000000000000000000, 4.270861233998996198, 6.567715308499745497 ) ) ;
#127 = DIRECTION ( 'NONE',  ( -1.000000000000000000, -0.000000000000000000, -0.000000000000000000 ) ) ;
#128 = ORIENTED_EDGE ( 'NONE', *, *, #310, .F. ) ;
#129 = EDGE_CURVE ( 'NONE', #103, #615, #469, .T. ) ;
#130 = CARTESIAN_POINT ( 'NONE',  ( 3.750000000000000000, 8.770861233998996198, -13.43228469150025006 ) ) ;
#131 = EDGE_CURVE ( 'NONE', #629, #39, #455, .T. ) ;
#132 = CARTESIAN_POINT ( 'NONE',  ( 5.000000000000000000, 1.270861233998995310, -10.93228469150025006 ) ) ;
#133 = CARTESIAN_POINT ( 'NONE',  ( 5.000000000000000000, -3.729138766001002026, 11.56771530849973750 ) ) ;
#134 = EDGE_LOOP ( 'NONE', ( #214, #448, #1092, #1060 ) ) ;
#135 = FACE_OUTER_BOUND ( 'NONE', #134, .T. ) ;
#136 = DIRECTION ( 'NONE',  ( -1.000000000000000000, 0.000000000000000000, 0.000000000000000000 ) ) ;
#137 = CIRCLE ( 'NONE', #241, 5.000000000000000000 ) ;
#138 = AXIS2_PLACEMENT_3D ( 'NONE', #665, #389, #761 ) ;
#139 = DIRECTION ( 'NONE',  ( -1.000000000000000000, -0.000000000000000000, -0.000000000000000000 ) ) ;
#140 = VERTEX_POINT ( 'NONE', #387 ) ;
#141 = CARTESIAN_POINT ( 'NONE',  ( 5.000000000000000000, 11.39218157755864524, -6.553605035059877792 ) ) ;
#142 = LINE ( 'NONE', #212, #715 ) ;
#143 = DIRECTION ( 'NONE',  ( 0.000000000000000000, 0.000000000000000000, 1.000000000000000000 ) ) ;
#144 = EDGE_LOOP ( 'NONE', ( #110, #897, #428, #773, #606, #253, #812, #464, #58, #176, #1006, #775, #1107, #904 ) ) ;
#145 = EDGE_CURVE ( 'NONE', #615, #868, #733, .T. ) ;
#146 = CARTESIAN_POINT ( 'NONE',  ( 2.500000000000000000, 8.770861233998996198, -8.432284691500251839 ) ) ;
#147 = CARTESIAN_POINT ( 'NONE',  ( 5.000000000000000000, -8.729138766001002026, -4.362284691913678181 ) ) ;
#148 = ADVANCED_FACE ( 'NONE', ( #37 ), #215, .T. ) ;
#149 = EDGE_CURVE ( 'NONE', #103, #169, #668, .T. ) ;
#150 = EDGE_LOOP ( 'NONE', ( #738, #128, #561, #754 ) ) ;
#151 = CARTESIAN_POINT ( 'NONE',  ( 5.000000000000000000, -8.729138766001003802, -10.93228469150025006 ) ) ;
#152 = ORIENTED_EDGE ( 'NONE', *, *, #596, .T. ) ;
#153 = APPLICATION_PROTOCOL_DEFINITION ( 'draft international standard', 'automotive_design', 1998, #875 ) ;
#154 = CARTESIAN_POINT ( 'NONE',  ( 0.000000000000000000, -8.729138766001003802, -11.93228469150025006 ) ) ;
#155 = CIRCLE ( 'NONE', #801, 1.000000000000000888 ) ;
#156 = AXIS2_PLACEMENT_3D ( 'NONE', #99, #111, #823 ) ;
#157 = AXIS2_PLACEMENT_3D ( 'NONE', #909, #813, #986 ) ;
#158 = VERTEX_POINT ( 'NONE', #651 ) ;
#159 = AXIS2_PLACEMENT_3D ( 'NONE', #1021, #496, #592 ) ;
#160 = CARTESIAN_POINT ( 'NONE',  ( 2.500000000000000000, 8.770861233998996198, -8.432284691500251839 ) ) ;
#161 = EDGE_LOOP ( 'NONE', ( #78, #426 ) ) ;
#162 =( LENGTH_UNIT ( ) NAMED_UNIT ( * ) SI_UNIT ( .MILLI., .METRE. ) );
#163 = DIRECTION ( 'NONE',  ( 0.000000000000000000, 0.000000000000000000, 1.000000000000000000 ) ) ;
#164 = CARTESIAN_POINT ( 'NONE',  ( 0.000000000000000000, 1.270861233998995532, -11.93228469150024651 ) ) ;
#165 = ORIENTED_EDGE ( 'NONE', *, *, #714, .T. ) ;
#166 = ORIENTED_EDGE ( 'NONE', *, *, #887, .T. ) ;
#167 = DIRECTION ( 'NONE',  ( -0.000000000000000000, -1.000000000000000000, -1.067522139062650671E-15 ) ) ;
#168 = PLANE ( 'NONE',  #431 ) ;
#169 = VERTEX_POINT ( 'NONE', #996 ) ;
#170 = DIRECTION ( 'NONE',  ( 0.000000000000000000, 0.000000000000000000, -1.000000000000000000 ) ) ;
#171 = EDGE_LOOP ( 'NONE', ( #321, #372, #724, #633 ) ) ;
#172 = DIRECTION ( 'NONE',  ( -0.000000000000000000, -0.000000000000000000, -1.000000000000000000 ) ) ;
#173 = EDGE_LOOP ( 'NONE', ( #863, #874 ) ) ;
#174 = STYLED_ITEM ( 'NONE', ( #732 ), #618 ) ;
#175 = DIRECTION ( 'NONE',  ( 0.000000000000000000, 0.000000000000000000, -1.000000000000000000 ) ) ;
#176 = ORIENTED_EDGE ( 'NONE', *, *, #332, .F. ) ;
#177 = AXIS2_PLACEMENT_3D ( 'NONE', #760, #680, #74 ) ;
#178 = DIRECTION ( 'NONE',  ( 0.000000000000000000, 0.000000000000000000, 1.000000000000000000 ) ) ;
#179 = LINE ( 'NONE', #700, #84 ) ;
#180 = DIRECTION ( 'NONE',  ( 0.000000000000000000, 0.000000000000000000, -1.000000000000000000 ) ) ;
#181 = VERTEX_POINT ( 'NONE', #570 ) ;
#182 = DIRECTION ( 'NONE',  ( 0.000000000000000000, -4.336808689941955120E-16, -1.000000000000000000 ) ) ;
#183 = VERTEX_POINT ( 'NONE', #1004 ) ;
#184 = CARTESIAN_POINT ( 'NONE',  ( 0.000000000000000000, 9.270861233998996198, 11.56771530849975171 ) ) ;
#185 = EDGE_LOOP ( 'NONE', ( #1118, #621, #513, #1072 ) ) ;
#186 = CARTESIAN_POINT ( 'NONE',  ( 0.000000000000000000, 12.27086123399900686, -8.674925378619519734 ) ) ;
#187 = ORIENTED_EDGE ( 'NONE', *, *, #208, .T. ) ;
#188 = DIRECTION ( 'NONE',  ( -1.000000000000000000, -0.000000000000000000, -0.000000000000000000 ) ) ;
#189 = DIRECTION ( 'NONE',  ( 0.000000000000000000, 1.000000000000000000, 0.000000000000000000 ) ) ;
#190 = CARTESIAN_POINT ( 'NONE',  ( 0.000000000000000000, 1.270861233998995310, -10.93228469150025006 ) ) ;
#191 = VECTOR ( 'NONE', #112, 1000.000000000000000 ) ;
#192 = ORIENTED_EDGE ( 'NONE', *, *, #231, .T. ) ;
#193 = CARTESIAN_POINT ( 'NONE',  ( 5.000000000000000000, -8.729138766001003802, -9.932284691500248286 ) ) ;
#194 = DIRECTION ( 'NONE',  ( -1.000000000000000000, 0.000000000000000000, 0.000000000000000000 ) ) ;
#195 = VERTEX_POINT ( 'NONE', #831 ) ;
#196 = LINE ( 'NONE', #912, #340 ) ;
#197 = LINE ( 'NONE', #670, #375 ) ;
#198 = EDGE_LOOP ( 'NONE', ( #351, #165 ) ) ;
#199 = DIRECTION ( 'NONE',  ( 0.000000000000000000, -0.000000000000000000, -1.000000000000000000 ) ) ;
#200 = CYLINDRICAL_SURFACE ( 'NONE', #223, 1.229499999999997151 ) ;
#201 = ORIENTED_EDGE ( 'NONE', *, *, #456, .F. ) ;
#202 = AXIS2_PLACEMENT_3D ( 'NONE', #160, #950, #246 ) ;
#203 = DIRECTION ( 'NONE',  ( -1.000000000000000000, 0.000000000000000000, 0.000000000000000000 ) ) ;
#204 = AXIS2_PLACEMENT_3D ( 'NONE', #798, #980, #628 ) ;
#205 = CARTESIAN_POINT ( 'NONE',  ( 5.000000000000000000, 3.770861234138916274, 6.367215308499747373 ) ) ;
#206 = CIRCLE ( 'NONE', #11, 1.229500000000001370 ) ;
#207 = VECTOR ( 'NONE', #673, 1000.000000000000000 ) ;
#208 = EDGE_CURVE ( 'NONE', #158, #195, #577, .T. ) ;
#209 = ORIENTED_EDGE ( 'NONE', *, *, #216, .F. ) ;
#210 = ADVANCED_FACE ( 'NONE', ( #427 ), #778, .F. ) ;
#211 = DIRECTION ( 'NONE',  ( -1.000000000000000000, -0.000000000000000000, -0.000000000000000000 ) ) ;
#212 = CARTESIAN_POINT ( 'NONE',  ( 5.000000000000000000, -11.72913876600100203, -13.43228469150025006 ) ) ;
#213 = PRODUCT_RELATED_PRODUCT_CATEGORY ( 'part', '', ( #20 ) ) ;
#214 = ORIENTED_EDGE ( 'NONE', *, *, #388, .T. ) ;
#215 = CYLINDRICAL_SURFACE ( 'NONE', #1108, 5.000000000000000000 ) ;
#216 = EDGE_CURVE ( 'NONE', #1030, #1123, #432, .T. ) ;
#217 = DIRECTION ( 'NONE',  ( -1.000000000000000000, -0.000000000000000000, -0.000000000000000000 ) ) ;
#218 = DIRECTION ( 'NONE',  ( -0.000000000000000000, 0.000000000000000000, 1.000000000000000000 ) ) ;
#219 = ORIENTED_EDGE ( 'NONE', *, *, #22, .F. ) ;
#220 = CARTESIAN_POINT ( 'NONE',  ( 5.000000000000000000, 4.270861233998990869, 11.56771530849974638 ) ) ;
#221 = DIRECTION ( 'NONE',  ( 1.000000000000000000, 0.000000000000000000, 0.000000000000000000 ) ) ;
#222 = AXIS2_PLACEMENT_3D ( 'NONE', #708, #556, #903 ) ;
#223 = AXIS2_PLACEMENT_3D ( 'NONE', #285, #641, #991 ) ;
#224 = SURFACE_STYLE_USAGE ( .BOTH. , #686 ) ;
#225 = VECTOR ( 'NONE', #905, 1000.000000000000000 ) ;
#226 = EDGE_CURVE ( 'NONE', #24, #158, #771, .T. ) ;
#227 = EDGE_LOOP ( 'NONE', ( #975, #279, #358, #793 ) ) ;
#228 = LINE ( 'NONE', #402, #66 ) ;
#229 = DIRECTION ( 'NONE',  ( 1.000000000000000000, 0.000000000000000000, 0.000000000000000000 ) ) ;
#230 = ADVANCED_FACE ( 'NONE', ( #1027 ), #588, .F. ) ;
#231 = EDGE_CURVE ( 'NONE', #870, #140, #585, .T. ) ;
#232 = FACE_OUTER_BOUND ( 'NONE', #1052, .T. ) ;
#233 = EDGE_LOOP ( 'NONE', ( #1041, #921 ) ) ;
#234 = DIRECTION ( 'NONE',  ( 0.000000000000000000, 0.000000000000000000, -1.000000000000000000 ) ) ;
#235 = ORIENTED_EDGE ( 'NONE', *, *, #500, .T. ) ;
#236 = CARTESIAN_POINT ( 'NONE',  ( 5.000000000000000000, 3.770861234138885631, -4.362284691500249778 ) ) ;
#237 = CARTESIAN_POINT ( 'NONE',  ( 5.000000000000000000, 1.270861233998997974, 6.567715308499741944 ) ) ;
#238 = VERTEX_POINT ( 'NONE', #335 ) ;
#239 = DIRECTION ( 'NONE',  ( -1.000000000000000000, 0.000000000000000000, 0.000000000000000000 ) ) ;
#240 = LINE ( 'NONE', #602, #804 ) ;
#241 = AXIS2_PLACEMENT_3D ( 'NONE', #237, #590, #396 ) ;
#242 = CIRCLE ( 'NONE', #317, 1.229499999999998927 ) ;
#243 = ORIENTED_EDGE ( 'NONE', *, *, #116, .T. ) ;
#244 = EDGE_CURVE ( 'NONE', #39, #543, #693, .T. ) ;
#245 = CIRCLE ( 'NONE', #1054, 1.249999999999999556 ) ;
#246 = DIRECTION ( 'NONE',  ( -1.000000000000000000, 0.000000000000000000, 0.000000000000000000 ) ) ;
#247 = EDGE_CURVE ( 'NONE', #543, #306, #603, .T. ) ;
#248 = LINE ( 'NONE', #508, #319 ) ;
#249 =( LENGTH_UNIT ( ) NAMED_UNIT ( * ) SI_UNIT ( .MILLI., .METRE. ) );
#250 = EDGE_LOOP ( 'NONE', ( #1101, #623 ) ) ;
#251 = EDGE_CURVE ( 'NONE', #65, #852, #873, .T. ) ;
#252 = CARTESIAN_POINT ( 'NONE',  ( 2.500000000000000888, -5.229138766001003802, -8.432284691500251839 ) ) ;
#253 = ORIENTED_EDGE ( 'NONE', *, *, #388, .F. ) ;
#254 = DIRECTION ( 'NONE',  ( -1.000000000000000000, -0.000000000000000000, -0.000000000000000000 ) ) ;
#255 = FACE_BOUND ( 'NONE', #277, .T. ) ;
#256 = ORIENTED_EDGE ( 'NONE', *, *, #648, .T. ) ;
#257 = DIRECTION ( 'NONE',  ( 0.000000000000000000, 0.000000000000000000, -1.000000000000000000 ) ) ;
#258 = EDGE_LOOP ( 'NONE', ( #499, #1062, #266, #608 ) ) ;
#259 = FACE_BOUND ( 'NONE', #198, .T. ) ;
#260 = FACE_BOUND ( 'NONE', #327, .T. ) ;
#261 = EDGE_LOOP ( 'NONE', ( #872, #1045 ) ) ;
#262 = CIRCLE ( 'NONE', #222, 3.000000000000009770 ) ;
#263 = EDGE_CURVE ( 'NONE', #541, #687, #1058, .T. ) ;
#264 = VECTOR ( 'NONE', #450, 1000.000000000000000 ) ;
#265 = DIRECTION ( 'NONE',  ( 0.000000000000000000, 1.000000000000000000, -4.336808689941955120E-16 ) ) ;
#266 = ORIENTED_EDGE ( 'NONE', *, *, #627, .F. ) ;
#267 = DIRECTION ( 'NONE',  ( 1.000000000000000000, 0.000000000000000000, 0.000000000000000000 ) ) ;
#268 = DIRECTION ( 'NONE',  ( -1.000000000000000000, -0.000000000000000000, -0.000000000000000000 ) ) ;
#269 = EDGE_CURVE ( 'NONE', #956, #1035, #228, .T. ) ;
#270 = EDGE_CURVE ( 'NONE', #89, #421, #313, .T. ) ;
#271 = VERTEX_POINT ( 'NONE', #1017 ) ;
#272 = DIRECTION ( 'NONE',  ( -1.000000000000000000, -0.000000000000000000, -0.000000000000000000 ) ) ;
#273 = ORIENTED_EDGE ( 'NONE', *, *, #566, .F. ) ;
#274 = LINE ( 'NONE', #544, #656 ) ;
#275 = VERTEX_POINT ( 'NONE', #1114 ) ;
#276 = DIRECTION ( 'NONE',  ( 0.000000000000000000, -0.7071067811865484609, 0.7071067811865465735 ) ) ;
#277 = EDGE_LOOP ( 'NONE', ( #981, #910 ) ) ;
#278 = PLANE ( 'NONE',  #1125 ) ;
#279 = ORIENTED_EDGE ( 'NONE', *, *, #625, .T. ) ;
#280 = CARTESIAN_POINT ( 'NONE',  ( 0.000000000000000000, -8.729138766001002026, -6.132784691913676589 ) ) ;
#281 = CIRCLE ( 'NONE', #46, 5.000000000000000000 ) ;
#282 = VERTEX_POINT ( 'NONE', #943 ) ;
#283 = CIRCLE ( 'NONE', #394, 1.250000000000000666 ) ;
#284 = VECTOR ( 'NONE', #657, 1000.000000000000000 ) ;
#285 = CARTESIAN_POINT ( 'NONE',  ( 5.000000000000000000, 3.770861234138916274, 5.137715308499750222 ) ) ;
#286 = DIRECTION ( 'NONE',  ( 0.000000000000000000, -1.000000000000000000, 2.187839969892512647E-15 ) ) ;
#287 = ORIENTED_EDGE ( 'NONE', *, *, #973, .T. ) ;
#288 = CARTESIAN_POINT ( 'NONE',  ( 5.000000000000000000, 3.770861234138916274, 3.908215308499753071 ) ) ;
#289 = CARTESIAN_POINT ( 'NONE',  ( 0.000000000000000000, 3.770861234138885631, -4.362284691500249778 ) ) ;
#290 = ORIENTED_EDGE ( 'NONE', *, *, #269, .T. ) ;
#291 = CARTESIAN_POINT ( 'NONE',  ( 0.000000000000000000, -8.729138766001003802, -10.93228469150025006 ) ) ;
#292 = LINE ( 'NONE', #497, #510 ) ;
#293 = EDGE_CURVE ( 'NONE', #39, #435, #521, .T. ) ;
#294 = EDGE_CURVE ( 'NONE', #541, #699, #1033, .T. ) ;
#295 = ORIENTED_EDGE ( 'NONE', *, *, #247, .F. ) ;
#296 = AXIS2_PLACEMENT_3D ( 'NONE', #811, #182, #265 ) ;
#297 = DIRECTION ( 'NONE',  ( 0.000000000000000000, 0.000000000000000000, 1.000000000000000000 ) ) ;
#298 = AXIS2_PLACEMENT_3D ( 'NONE', #555, #1063, #982 ) ;
#299 = CARTESIAN_POINT ( 'NONE',  ( 0.000000000000000000, 9.270861233998996198, 6.567715308499745497 ) ) ;
#300 = VECTOR ( 'NONE', #67, 1000.000000000000000 ) ;
#301 = ORIENTED_EDGE ( 'NONE', *, *, #890, .T. ) ;
#302 = EDGE_CURVE ( 'NONE', #435, #370, #605, .T. ) ;
#303 = CYLINDRICAL_SURFACE ( 'NONE', #13, 2.000000000000001332 ) ;
#304 = DIRECTION ( 'NONE',  ( -0.000000000000000000, 1.000000000000000000, -0.000000000000000000 ) ) ;
#305 = FACE_OUTER_BOUND ( 'NONE', #626, .T. ) ;
#306 = VERTEX_POINT ( 'NONE', #957 ) ;
#307 = DIRECTION ( 'NONE',  ( 0.000000000000000000, 0.000000000000000000, 1.000000000000000000 ) ) ;
#308 = DIRECTION ( 'NONE',  ( 0.000000000000000000, 0.000000000000000000, -1.000000000000000000 ) ) ;
#309 = CARTESIAN_POINT ( 'NONE',  ( 5.000000000000000000, -8.729138766001003802, -11.93228469150025006 ) ) ;
#310 = EDGE_CURVE ( 'NONE', #140, #870, #245, .T. ) ;
#311 = DIRECTION ( 'NONE',  ( 0.000000000000000000, 0.000000000000000000, -1.000000000000000000 ) ) ;
#312 = ORIENTED_EDGE ( 'NONE', *, *, #1085, .F. ) ;
#313 = LINE ( 'NONE', #939, #207 ) ;
#314 = EDGE_CURVE ( 'NONE', #956, #790, #710, .T. ) ;
#315 = CARTESIAN_POINT ( 'NONE',  ( 5.000000000000000000, 3.770861234138916274, 3.908215308499753071 ) ) ;
#316 = CIRCLE ( 'NONE', #876, 1.250000000000000666 ) ;
#317 = AXIS2_PLACEMENT_3D ( 'NONE', #997, #221, #584 ) ;
#318 = CARTESIAN_POINT ( 'NONE',  ( 0.000000000000000000, 4.270861233998990869, 11.56771530849974638 ) ) ;
#319 = VECTOR ( 'NONE', #81, 1000.000000000000000 ) ;
#320 = VECTOR ( 'NONE', #826, 1000.000000000000000 ) ;
#321 = ORIENTED_EDGE ( 'NONE', *, *, #208, .F. ) ;
#322 = CARTESIAN_POINT ( 'NONE',  ( 5.000000000000000000, -8.729138766001002026, -7.362284691913674628 ) ) ;
#323 = ORIENTED_EDGE ( 'NONE', *, *, #1000, .F. ) ;
#324 = LINE ( 'NONE', #600, #1106 ) ;
#325 = FACE_OUTER_BOUND ( 'NONE', #1113, .T. ) ;
#326 = CARTESIAN_POINT ( 'NONE',  ( 5.000000000000000000, 3.770861234138916274, 5.137715308499750222 ) ) ;
#327 = EDGE_LOOP ( 'NONE', ( #219, #452 ) ) ;
#328 = ORIENTED_EDGE ( 'NONE', *, *, #767, .F. ) ;
#329 = CARTESIAN_POINT ( 'NONE',  ( 0.000000000000000000, 0.000000000000000000, 0.000000000000000000 ) ) ;
#330 = CARTESIAN_POINT ( 'NONE',  ( 5.000000000000000000, 3.770861234138885631, -4.362284691500249778 ) ) ;
#331 = CARTESIAN_POINT ( 'NONE',  ( 5.000000000000000000, -8.729138766001002026, -7.362284691913674628 ) ) ;
#332 = EDGE_CURVE ( 'NONE', #370, #655, #62, .T. ) ;
#333 = EDGE_CURVE ( 'NONE', #454, #435, #998, .T. ) ;
#334 = EDGE_LOOP ( 'NONE', ( #1047, #836, #341, #1055 ) ) ;
#335 = CARTESIAN_POINT ( 'NONE',  ( 0.000000000000000000, -8.729138766001003802, -9.932284691500248286 ) ) ;
#336 = EDGE_LOOP ( 'NONE', ( #347, #734, #295, #759 ) ) ;
#337 = LINE ( 'NONE', #71, #1057 ) ;
#338 = FACE_BOUND ( 'NONE', #233, .T. ) ;
#339 = VECTOR ( 'NONE', #546, 1000.000000000000000 ) ;
#340 = VECTOR ( 'NONE', #136, 1000.000000000000000 ) ;
#341 = ORIENTED_EDGE ( 'NONE', *, *, #145, .F. ) ;
#342 = CARTESIAN_POINT ( 'NONE',  ( 5.000000000000000000, -6.729138766000972716, -4.362284691913678181 ) ) ;
#343 = LINE ( 'NONE', #423, #583 ) ;
#344 = CARTESIAN_POINT ( 'NONE',  ( 5.000000000000000000, 3.770861234138885631, -3.132784691500248186 ) ) ;
#345 = EDGE_LOOP ( 'NONE', ( #113, #481 ) ) ;
#346 = DIRECTION ( 'NONE',  ( -1.000000000000000000, -0.000000000000000000, -0.000000000000000000 ) ) ;
#347 = ORIENTED_EDGE ( 'NONE', *, *, #332, .T. ) ;
#348 = FACE_OUTER_BOUND ( 'NONE', #144, .T. ) ;
#349 =( NAMED_UNIT ( * ) SI_UNIT ( $, .STERADIAN. ) SOLID_ANGLE_UNIT ( ) );
#350 = ADVANCED_FACE ( 'NONE', ( #552 ), #1046, .F. ) ;
#351 = ORIENTED_EDGE ( 'NONE', *, *, #354, .T. ) ;
#352 = CARTESIAN_POINT ( 'NONE',  ( 0.000000000000000000, -8.729138766001003802, -10.93228469150025006 ) ) ;
#353 = ORIENTED_EDGE ( 'NONE', *, *, #293, .F. ) ;
#354 = EDGE_CURVE ( 'NONE', #848, #795, #102, .T. ) ;
#355 = ADVANCED_FACE ( 'NONE', ( #632 ), #95, .F. ) ;
#356 = DIRECTION ( 'NONE',  ( 0.000000000000000000, 0.000000000000000000, -1.000000000000000000 ) ) ;
#357 = AXIS2_PLACEMENT_3D ( 'NONE', #855, #698, #1040 ) ;
#358 = ORIENTED_EDGE ( 'NONE', *, *, #68, .T. ) ;
#359 = VECTOR ( 'NONE', #346, 1000.000000000000000 ) ;
#360 = VECTOR ( 'NONE', #188, 1000.000000000000000 ) ;
#361 = CARTESIAN_POINT ( 'NONE',  ( 5.000000000000000000, -3.729138766001002026, -1.362284691913676404 ) ) ;
#362 = VERTEX_POINT ( 'NONE', #719 ) ;
#363 = VECTOR ( 'NONE', #705, 1000.000000000000000 ) ;
#364 = VECTOR ( 'NONE', #766, 1000.000000000000000 ) ;
#365 = FACE_OUTER_BOUND ( 'NONE', #383, .T. ) ;
#366 = ORIENTED_EDGE ( 'NONE', *, *, #951, .F. ) ;
#367 = DIRECTION ( 'NONE',  ( 1.000000000000000000, 0.000000000000000000, 0.000000000000000000 ) ) ;
#368 = ORIENTED_EDGE ( 'NONE', *, *, #936, .F. ) ;
#369 = DIRECTION ( 'NONE',  ( -1.000000000000000000, -0.000000000000000000, -0.000000000000000000 ) ) ;
#370 = VERTEX_POINT ( 'NONE', #1132 ) ;
#371 = DIRECTION ( 'NONE',  ( -1.000000000000000000, 0.000000000000000000, 0.000000000000000000 ) ) ;
#372 = ORIENTED_EDGE ( 'NONE', *, *, #226, .F. ) ;
#373 = CYLINDRICAL_SURFACE ( 'NONE', #819, 3.000000000000001776 ) ;
#374 = DIRECTION ( 'NONE',  ( -1.000000000000000000, 0.000000000000000000, 0.000000000000000000 ) ) ;
#375 = VECTOR ( 'NONE', #1077, 1000.000000000000000 ) ;
#376 = ORIENTED_EDGE ( 'NONE', *, *, #36, .F. ) ;
#377 = CIRCLE ( 'NONE', #769, 1.229499999999998927 ) ;
#378 = LINE ( 'NONE', #885, #1002 ) ;
#379 = PRODUCT_DEFINITION_FORMATION_WITH_SPECIFIED_SOURCE ( 'ANY', '', #20, .NOT_KNOWN. ) ;
#380 = AXIS2_PLACEMENT_3D ( 'NONE', #444, #267, #842 ) ;
#381 = CARTESIAN_POINT ( 'NONE',  ( 5.000000000000000000, 1.270861233998995310, -10.93228469150025006 ) ) ;
#382 = UNCERTAINTY_MEASURE_WITH_UNIT (LENGTH_MEASURE( 1.000000000000000082E-05 ), #249, 'distance_accuracy_value', 'NONE');
#383 = EDGE_LOOP ( 'NONE', ( #553, #697, #366, #694 ) ) ;
#384 = CARTESIAN_POINT ( 'NONE',  ( 5.000000000000000000, -3.729138766001002026, 11.56771530849973750 ) ) ;
#385 = FACE_OUTER_BOUND ( 'NONE', #28, .T. ) ;
#386 = ORIENTED_EDGE ( 'NONE', *, *, #768, .T. ) ;
#387 = CARTESIAN_POINT ( 'NONE',  ( 1.250000000000000444, 8.770861233998996198, -8.432284691500251839 ) ) ;
#388 = EDGE_CURVE ( 'NONE', #181, #65, #262, .T. ) ;
#389 = DIRECTION ( 'NONE',  ( -1.000000000000000000, -0.000000000000000000, -0.000000000000000000 ) ) ;
#390 = PRODUCT_DEFINITION_CONTEXT ( 'detailed design', #875, 'design' ) ;
#391 = ORIENTED_EDGE ( 'NONE', *, *, #314, .T. ) ;
#392 = AXIS2_PLACEMENT_3D ( 'NONE', #753, #286, #666 ) ;
#393 = DIRECTION ( 'NONE',  ( -0.000000000000000000, -0.000000000000000000, -1.000000000000000000 ) ) ;
#394 = AXIS2_PLACEMENT_3D ( 'NONE', #1059, #356, #1122 ) ;
#395 = DIRECTION ( 'NONE',  ( -1.000000000000000000, 0.000000000000000000, 0.000000000000000000 ) ) ;
#396 = DIRECTION ( 'NONE',  ( 0.000000000000000000, 0.000000000000000000, -1.000000000000000000 ) ) ;
#397 = EDGE_LOOP ( 'NONE', ( #610, #548 ) ) ;
#398 = CARTESIAN_POINT ( 'NONE',  ( 3.750000000000000000, 8.770861233998996198, -8.432284691500251839 ) ) ;
#399 = CARTESIAN_POINT ( 'NONE',  ( 5.000000000000000000, -11.72913876600100203, -13.43228469150025006 ) ) ;
#400 = CARTESIAN_POINT ( 'NONE',  ( 0.000000000000000000, 9.270861233998996198, -3.189644004380958187 ) ) ;
#401 = ORIENTED_EDGE ( 'NONE', *, *, #263, .T. ) ;
#402 = CARTESIAN_POINT ( 'NONE',  ( 5.000000000000000000, -8.729138766001003802, -11.93228469150025006 ) ) ;
#403 = DIRECTION ( 'NONE',  ( 0.000000000000000000, 0.000000000000000000, -1.000000000000000000 ) ) ;
#404 = CARTESIAN_POINT ( 'NONE',  ( 0.000000000000000000, 3.770861234138885631, -5.591784691500251370 ) ) ;
#405 = ORIENTED_EDGE ( 'NONE', *, *, #1081, .F. ) ;
#406 = CARTESIAN_POINT ( 'NONE',  ( 5.000000000000000000, 1.270861233998995532, -11.93228469150024651 ) ) ;
#407 = LINE ( 'NONE', #51, #32 ) ;
#408 = CIRCLE ( 'NONE', #713, 1.229500000000001370 ) ;
#409 = AXIS2_PLACEMENT_3D ( 'NONE', #519, #634, #31 ) ;
#410 = FACE_BOUND ( 'NONE', #439, .T. ) ;
#411 = CIRCLE ( 'NONE', #536, 1.000000000000000888 ) ;
#412 = ORIENTED_EDGE ( 'NONE', *, *, #915, .F. ) ;
#413 = CARTESIAN_POINT ( 'NONE',  ( 0.000000000000000000, 11.39218157755864524, -6.553605035059877792 ) ) ;
#414 = EDGE_LOOP ( 'NONE', ( #992, #631, #91, #419 ) ) ;
#415 = EDGE_CURVE ( 'NONE', #629, #454, #447, .T. ) ;
#416 = CARTESIAN_POINT ( 'NONE',  ( 0.000000000000000000, -3.729138766001002026, -1.362284691913676404 ) ) ;
#417 = EDGE_CURVE ( 'NONE', #94, #629, #1053, .T. ) ;
#418 = FACE_BOUND ( 'NONE', #345, .T. ) ;
#419 = ORIENTED_EDGE ( 'NONE', *, *, #437, .T. ) ;
#420 = CARTESIAN_POINT ( 'NONE',  ( 5.000000000000000000, 12.27086123399899442, -3.189644004380966180 ) ) ;
#421 = VERTEX_POINT ( 'NONE', #280 ) ;
#422 = DIRECTION ( 'NONE',  ( 1.000000000000000000, 0.000000000000000000, 0.000000000000000000 ) ) ;
#423 = CARTESIAN_POINT ( 'NONE',  ( 5.000000000000000000, 12.27086123399900863, -8.674925378619519734 ) ) ;
#424 = DIRECTION ( 'NONE',  ( 0.000000000000000000, 0.000000000000000000, -1.000000000000000000 ) ) ;
#425 = EDGE_CURVE ( 'NONE', #790, #956, #482, .T. ) ;
#426 = ORIENTED_EDGE ( 'NONE', *, *, #474, .F. ) ;
#427 = FACE_OUTER_BOUND ( 'NONE', #150, .T. ) ;
#428 = ORIENTED_EDGE ( 'NONE', *, *, #768, .F. ) ;
#429 = FACE_BOUND ( 'NONE', #397, .T. ) ;
#430 = FACE_BOUND ( 'NONE', #250, .T. ) ;
#431 = AXIS2_PLACEMENT_3D ( 'NONE', #331, #616, #180 ) ;
#432 = CIRCLE ( 'NONE', #1076, 2.999999999999992450 ) ;
#433 = ORIENTED_EDGE ( 'NONE', *, *, #415, .T. ) ;
#434 = CARTESIAN_POINT ( 'NONE',  ( 0.000000000000000000, -3.729138766001002026, 6.567715308499741944 ) ) ;
#435 = VERTEX_POINT ( 'NONE', #892 ) ;
#436 = DIRECTION ( 'NONE',  ( -1.000000000000000000, 0.000000000000000000, 0.000000000000000000 ) ) ;
#437 = EDGE_CURVE ( 'NONE', #306, #655, #85, .T. ) ;
#438 = DIRECTION ( 'NONE',  ( 1.000000000000000000, 0.000000000000000000, 0.000000000000000000 ) ) ;
#439 = EDGE_LOOP ( 'NONE', ( #764, #82 ) ) ;
#440 = EDGE_CURVE ( 'NONE', #9, #195, #316, .T. ) ;
#441 = EDGE_CURVE ( 'NONE', #784, #181, #90, .T. ) ;
#442 = CARTESIAN_POINT ( 'NONE',  ( 2.500000000000000000, 8.770861233998996198, -8.432284691500251839 ) ) ;
#443 = ORIENTED_EDGE ( 'NONE', *, *, #500, .F. ) ;
#444 = CARTESIAN_POINT ( 'NONE',  ( 5.000000000000000000, 9.270861233998997974, -8.674925378619532168 ) ) ;
#445 = DIRECTION ( 'NONE',  ( 0.000000000000000000, 0.000000000000000000, -1.000000000000000000 ) ) ;
#446 = VERTEX_POINT ( 'NONE', #434 ) ;
#447 = LINE ( 'NONE', #622, #359 ) ;
#448 = ORIENTED_EDGE ( 'NONE', *, *, #729, .F. ) ;
#449 = CARTESIAN_POINT ( 'NONE',  ( 0.000000000000000000, -11.72913876600100203, -13.43228469150025006 ) ) ;
#450 = DIRECTION ( 'NONE',  ( -1.000000000000000000, -0.000000000000000000, -0.000000000000000000 ) ) ;
#451 = AXIS2_PLACEMENT_3D ( 'NONE', #1100, #311, #374 ) ;
#452 = ORIENTED_EDGE ( 'NONE', *, *, #625, .F. ) ;
#453 = CARTESIAN_POINT ( 'NONE',  ( 5.000000000000000000, 1.270861233998995310, -10.93228469150025006 ) ) ;
#454 = VERTEX_POINT ( 'NONE', #896 ) ;
#455 = CIRCLE ( 'NONE', #788, 3.000000000000001776 ) ;
#456 = EDGE_CURVE ( 'NONE', #687, #541, #913, .T. ) ;
#457 = CARTESIAN_POINT ( 'NONE',  ( 0.000000000000000000, 12.27086123399899620, -13.43228469150025006 ) ) ;
#458 = EDGE_CURVE ( 'NONE', #699, #282, #1124, .T. ) ;
#459 = ORIENTED_EDGE ( 'NONE', *, *, #129, .T. ) ;
#460 = DIRECTION ( 'NONE',  ( 0.000000000000000000, 0.000000000000000000, -1.000000000000000000 ) ) ;
#461 = EDGE_LOOP ( 'NONE', ( #201, #520 ) ) ;
#462 = CARTESIAN_POINT ( 'NONE',  ( 5.000000000000000000, 3.770861234138885631, -3.132784691500248186 ) ) ;
#463 = DIRECTION ( 'NONE',  ( 0.000000000000000000, 0.000000000000000000, 1.000000000000000000 ) ) ;
#464 = ORIENTED_EDGE ( 'NONE', *, *, #745, .F. ) ;
#465 = FACE_OUTER_BOUND ( 'NONE', #709, .T. ) ;
#466 =( GEOMETRIC_REPRESENTATION_CONTEXT ( 3 ) GLOBAL_UNCERTAINTY_ASSIGNED_CONTEXT ( ( #382 ) ) GLOBAL_UNIT_ASSIGNED_CONTEXT ( ( #249, #612, #349 ) ) REPRESENTATION_CONTEXT ( 'NONE', 'WORKASPACE' ) );
#467 = VERTEX_POINT ( 'NONE', #703 ) ;
#468 = CIRCLE ( 'NONE', #409, 1.229499999999997151 ) ;
#469 = LINE ( 'NONE', #220, #87 ) ;
#470 = EDGE_CURVE ( 'NONE', #1035, #238, #155, .T. ) ;
#471 = CARTESIAN_POINT ( 'NONE',  ( 0.000000000000000000, 12.27086123399899620, -13.43228469150025006 ) ) ;
#472 = ORIENTED_EDGE ( 'NONE', *, *, #596, .F. ) ;
#473 = EDGE_CURVE ( 'NONE', #54, #1030, #723, .T. ) ;
#474 = EDGE_CURVE ( 'NONE', #119, #275, #29, .T. ) ;
#475 = CARTESIAN_POINT ( 'NONE',  ( 5.000000000000000000, -3.729138766001002026, 6.567715308499741944 ) ) ;
#476 = DIRECTION ( 'NONE',  ( 0.000000000000000000, 0.000000000000000000, 1.000000000000000000 ) ) ;
#477 = ORIENTED_EDGE ( 'NONE', *, *, #107, .F. ) ;
#478 = CARTESIAN_POINT ( 'NONE',  ( 0.000000000000000000, 4.270861233998996198, 6.567715308499745497 ) ) ;
#479 = DIRECTION ( 'NONE',  ( -1.000000000000000000, 0.000000000000000000, -0.000000000000000000 ) ) ;
#480 = FACE_OUTER_BOUND ( 'NONE', #942, .T. ) ;
#481 = ORIENTED_EDGE ( 'NONE', *, *, #1025, .F. ) ;
#482 = CIRCLE ( 'NONE', #1056, 1.000000000000000888 ) ;
#483 = LINE ( 'NONE', #50, #512 ) ;
#484 = AXIS2_PLACEMENT_3D ( 'NONE', #381, #994, #802 ) ;
#485 = DIRECTION ( 'NONE',  ( 1.000000000000000000, 0.000000000000000000, 0.000000000000000000 ) ) ;
#486 = DIRECTION ( 'NONE',  ( -0.000000000000000000, -0.000000000000000000, 1.000000000000000000 ) ) ;
#487 = VECTOR ( 'NONE', #1093, 1000.000000000000000 ) ;
#488 = DIRECTION ( 'NONE',  ( 0.000000000000000000, 0.000000000000000000, 1.000000000000000000 ) ) ;
#489 = ORIENTED_EDGE ( 'NONE', *, *, #1129, .T. ) ;
#490 = LINE ( 'NONE', #398, #487 ) ;
#491 = DIRECTION ( 'NONE',  ( 0.000000000000000000, 0.000000000000000000, -1.000000000000000000 ) ) ;
#492 = ADVANCED_FACE ( 'NONE', ( #538 ), #882, .F. ) ;
#493 = DIRECTION ( 'NONE',  ( -1.000000000000000000, -0.000000000000000000, -0.000000000000000000 ) ) ;
#494 = CYLINDRICAL_SURFACE ( 'NONE', #749, 1.229499999999997151 ) ;
#495 = ORIENTED_EDGE ( 'NONE', *, *, #891, .F. ) ;
#496 = DIRECTION ( 'NONE',  ( 0.000000000000000000, 0.000000000000000000, -1.000000000000000000 ) ) ;
#497 = CARTESIAN_POINT ( 'NONE',  ( 5.000000000000000000, 9.270861233998996198, 8.567715308499746385 ) ) ;
#498 = CARTESIAN_POINT ( 'NONE',  ( 0.000000000000000000, -11.72913876600100203, -13.43228469150025006 ) ) ;
#499 = ORIENTED_EDGE ( 'NONE', *, *, #456, .T. ) ;
#500 = EDGE_CURVE ( 'NONE', #1123, #593, #763, .T. ) ;
#501 = PRODUCT_DEFINITION_SHAPE ( 'NONE', 'NONE',  #554 ) ;
#502 = DIRECTION ( 'NONE',  ( 0.000000000000000000, 0.000000000000000000, -1.000000000000000000 ) ) ;
#503 = ADVANCED_FACE ( 'NONE', ( #232 ), #1023, .F. ) ;
#504 = ORIENTED_EDGE ( 'NONE', *, *, #52, .T. ) ;
#505 = APPLICATION_CONTEXT ( 'automotive_design' ) ;
#506 = DIRECTION ( 'NONE',  ( 0.000000000000000000, 0.000000000000000000, 1.000000000000000000 ) ) ;
#507 = AXIS2_PLACEMENT_3D ( 'NONE', #1071, #791, #7 ) ;
#508 = CARTESIAN_POINT ( 'NONE',  ( 5.000000000000000000, 12.27086123399900686, -8.674925378619519734 ) ) ;
#509 = MECHANICAL_DESIGN_GEOMETRIC_PRESENTATION_REPRESENTATION (  '', ( #174 ), #466 ) ;
#510 = VECTOR ( 'NONE', #486, 1000.000000000000000 ) ;
#511 = CARTESIAN_POINT ( 'NONE',  ( 0.000000000000000000, 1.270861233998995310, -10.93228469150025006 ) ) ;
#512 = VECTOR ( 'NONE', #934, 1000.000000000000000 ) ;
#513 = ORIENTED_EDGE ( 'NONE', *, *, #270, .T. ) ;
#514 = DIRECTION ( 'NONE',  ( 0.000000000000000000, 0.000000000000000000, -1.000000000000000000 ) ) ;
#515 = ORIENTED_EDGE ( 'NONE', *, *, #12, .F. ) ;
#516 = DIRECTION ( 'NONE',  ( 1.000000000000000000, 0.000000000000000000, 0.000000000000000000 ) ) ;
#517 = EDGE_CURVE ( 'NONE', #687, #282, #197, .T. ) ;
#518 = CARTESIAN_POINT ( 'NONE',  ( 5.000000000000000000, 9.270861233998996198, -3.189644004380958187 ) ) ;
#519 = CARTESIAN_POINT ( 'NONE',  ( 0.000000000000000000, 3.770861234138916274, 5.137715308499750222 ) ) ;
#520 = ORIENTED_EDGE ( 'NONE', *, *, #263, .F. ) ;
#521 = LINE ( 'NONE', #342, #859 ) ;
#522 = ORIENTED_EDGE ( 'NONE', *, *, #354, .F. ) ;
#523 = PRODUCT_CONTEXT ( 'NONE', #505, 'mechanical' ) ;
#524 = DIRECTION ( 'NONE',  ( 1.000000000000000000, 0.000000000000000000, 0.000000000000000000 ) ) ;
#525 = CARTESIAN_POINT ( 'NONE',  ( 2.500000000000000888, -5.229138766001003802, -8.432284691500251839 ) ) ;
#526 = ORIENTED_EDGE ( 'NONE', *, *, #231, .F. ) ;
#527 = EDGE_CURVE ( 'NONE', #169, #94, #137, .T. ) ;
#528 = DIRECTION ( 'NONE',  ( 1.000000000000000000, 0.000000000000000000, 0.000000000000000000 ) ) ;
#529 = ORIENTED_EDGE ( 'NONE', *, *, #333, .T. ) ;
#530 = CARTESIAN_POINT ( 'NONE',  ( 5.000000000000000000, -8.729138766001002026, -7.362284691913674628 ) ) ;
#531 = DIRECTION ( 'NONE',  ( 1.000000000000000000, 0.000000000000000000, 0.000000000000000000 ) ) ;
#532 = VECTOR ( 'NONE', #276, 1000.000000000000000 ) ;
#533 = ADVANCED_FACE ( 'NONE', ( #325 ), #941, .F. ) ;
#534 = AXIS2_PLACEMENT_3D ( 'NONE', #920, #850, #395 ) ;
#535 = AXIS2_PLACEMENT_3D ( 'NONE', #329, #506, #422 ) ;
#536 = AXIS2_PLACEMENT_3D ( 'NONE', #291, #837, #1007 ) ;
#537 = ORIENTED_EDGE ( 'NONE', *, *, #843, .F. ) ;
#538 = FACE_OUTER_BOUND ( 'NONE', #18, .T. ) ;
#539 = ORIENTED_EDGE ( 'NONE', *, *, #226, .T. ) ;
#540 = DIRECTION ( 'NONE',  ( 0.000000000000000000, 0.000000000000000000, -1.000000000000000000 ) ) ;
#541 = VERTEX_POINT ( 'NONE', #845 ) ;
#542 = DIRECTION ( 'NONE',  ( -0.000000000000000000, -0.000000000000000000, -1.000000000000000000 ) ) ;
#543 = VERTEX_POINT ( 'NONE', #147 ) ;
#544 = CARTESIAN_POINT ( 'NONE',  ( 5.000000000000000000, -8.729138766001002026, -4.362284691913678181 ) ) ;
#545 = LINE ( 'NONE', #881, #880 ) ;
#546 = DIRECTION ( 'NONE',  ( -0.000000000000000000, 2.187839969892512647E-15, 1.000000000000000000 ) ) ;
#547 = EDGE_CURVE ( 'NONE', #573, #467, #408, .T. ) ;
#548 = ORIENTED_EDGE ( 'NONE', *, *, #1000, .T. ) ;
#549 = ADVANCED_FACE ( 'NONE', ( #305 ), #586, .F. ) ;
#550 = LINE ( 'NONE', #558, #360 ) ;
#551 = DIRECTION ( 'NONE',  ( 0.000000000000000000, -0.000000000000000000, 1.000000000000000000 ) ) ;
#552 = FACE_OUTER_BOUND ( 'NONE', #952, .T. ) ;
#553 = ORIENTED_EDGE ( 'NONE', *, *, #643, .T. ) ;
#554 = PRODUCT_DEFINITION ( 'UNKNOWN', '', #379, #390 ) ;
#555 = CARTESIAN_POINT ( 'NONE',  ( 5.000000000000000000, -8.729138766001002026, -7.362284691913674628 ) ) ;
#556 = DIRECTION ( 'NONE',  ( 1.000000000000000000, 0.000000000000000000, 0.000000000000000000 ) ) ;
#557 = VERTEX_POINT ( 'NONE', #498 ) ;
#558 = CARTESIAN_POINT ( 'NONE',  ( 5.000000000000000000, 11.39218157755864524, -6.553605035059877792 ) ) ;
#559 = LINE ( 'NONE', #118, #363 ) ;
#560 = CARTESIAN_POINT ( 'NONE',  ( 5.000000000000000000, 9.270861233998996198, -3.189644004380958187 ) ) ;
#561 = ORIENTED_EDGE ( 'NONE', *, *, #936, .T. ) ;
#562 = ADVANCED_FACE ( 'NONE', ( #928, #410, #480 ), #851, .F. ) ;
#563 = CARTESIAN_POINT ( 'NONE',  ( 5.000000000000000000, 9.270861233998997974, -8.674925378619532168 ) ) ;
#564 = DIRECTION ( 'NONE',  ( -1.000000000000000000, -0.000000000000000000, -0.000000000000000000 ) ) ;
#565 = ADVANCED_FACE ( 'NONE', ( #814 ), #48, .F. ) ;
#566 = EDGE_CURVE ( 'NONE', #24, #9, #840, .T. ) ;
#567 = AXIS2_PLACEMENT_3D ( 'NONE', #151, #79, #502 ) ;
#568 = AXIS2_PLACEMENT_3D ( 'NONE', #190, #17, #638 ) ;
#569 = ORIENTED_EDGE ( 'NONE', *, *, #527, .T. ) ;
#570 = CARTESIAN_POINT ( 'NONE',  ( 0.000000000000000000, 12.27086123399900863, -8.674925378619519734 ) ) ;
#571 = AXIS2_PLACEMENT_3D ( 'NONE', #849, #783, #774 ) ;
#572 = FACE_OUTER_BOUND ( 'NONE', #861, .T. ) ;
#573 = VERTEX_POINT ( 'NONE', #404 ) ;
#574 = CARTESIAN_POINT ( 'NONE',  ( 5.000000000000000000, 3.770861234138916274, 6.367215308499747373 ) ) ;
#575 = FACE_OUTER_BOUND ( 'NONE', #671, .T. ) ;
#576 = EDGE_LOOP ( 'NONE', ( #49, #401, #42, #799 ) ) ;
#577 = LINE ( 'NONE', #43, #933 ) ;
#578 = PLANE ( 'NONE',  #878 ) ;
#579 = CARTESIAN_POINT ( 'NONE',  ( 5.000000000000000000, -8.729138766001002026, -7.362284691913674628 ) ) ;
#580 = ORIENTED_EDGE ( 'NONE', *, *, #441, .T. ) ;
#581 = CARTESIAN_POINT ( 'NONE',  ( 5.000000000000000000, 4.270861233998990869, 11.56771530849974638 ) ) ;
#582 = ADVANCED_FACE ( 'NONE', ( #1013 ), #27, .T. ) ;
#583 = VECTOR ( 'NONE', #254, 1000.000000000000000 ) ;
#584 = DIRECTION ( 'NONE',  ( 0.000000000000000000, 0.000000000000000000, -1.000000000000000000 ) ) ;
#585 = CIRCLE ( 'NONE', #159, 1.249999999999999556 ) ;
#586 = PLANE ( 'NONE',  #392 ) ;
#587 = ORIENTED_EDGE ( 'NONE', *, *, #711, .T. ) ;
#588 = CYLINDRICAL_SURFACE ( 'NONE', #177, 2.000000000000001332 ) ;
#589 = CARTESIAN_POINT ( 'NONE',  ( 5.000000000000000000, -11.72913876600100203, -13.43228469150025006 ) ) ;
#590 = DIRECTION ( 'NONE',  ( 1.000000000000000000, 0.000000000000000000, 0.000000000000000000 ) ) ;
#591 = ORIENTED_EDGE ( 'NONE', *, *, #729, .T. ) ;
#592 = DIRECTION ( 'NONE',  ( -1.000000000000000000, 0.000000000000000000, 0.000000000000000000 ) ) ;
#593 = VERTEX_POINT ( 'NONE', #400 ) ;
#594 = DIRECTION ( 'NONE',  ( 0.000000000000000000, 0.000000000000000000, -1.000000000000000000 ) ) ;
#595 = CARTESIAN_POINT ( 'NONE',  ( 0.000000000000000000, 2.770861233998996642, 1.637715308499751110 ) ) ;
#596 = EDGE_CURVE ( 'NONE', #125, #1015, #818, .T. ) ;
#597 = ORIENTED_EDGE ( 'NONE', *, *, #1066, .F. ) ;
#598 = ORIENTED_EDGE ( 'NONE', *, *, #800, .T. ) ;
#599 = CIRCLE ( 'NONE', #1073, 2.999999999999992450 ) ;
#600 = CARTESIAN_POINT ( 'NONE',  ( 5.000000000000000000, -8.729138766001002026, -8.591784691913673555 ) ) ;
#601 = CIRCLE ( 'NONE', #1014, 2.000000000000001332 ) ;
#602 = CARTESIAN_POINT ( 'NONE',  ( 5.000000000000000000, 9.270861233998996198, 6.567715308499745497 ) ) ;
#603 = CIRCLE ( 'NONE', #916, 2.999999999999996447 ) ;
#604 = ORIENTED_EDGE ( 'NONE', *, *, #960, .F. ) ;
#605 = LINE ( 'NONE', #869, #751 ) ;
#606 = ORIENTED_EDGE ( 'NONE', *, *, #251, .F. ) ;
#607 = FACE_BOUND ( 'NONE', #161, .T. ) ;
#608 = ORIENTED_EDGE ( 'NONE', *, *, #517, .F. ) ;
#609 = DIRECTION ( 'NONE',  ( 0.000000000000000000, 0.000000000000000000, -1.000000000000000000 ) ) ;
#610 = ORIENTED_EDGE ( 'NONE', *, *, #767, .T. ) ;
#611 = DIRECTION ( 'NONE',  ( 0.000000000000000000, 0.000000000000000000, -1.000000000000000000 ) ) ;
#612 =( NAMED_UNIT ( * ) PLANE_ANGLE_UNIT ( ) SI_UNIT ( $, .RADIAN. ) );
#613 = ORIENTED_EDGE ( 'NONE', *, *, #1050, .T. ) ;
#614 = CARTESIAN_POINT ( 'NONE',  ( 5.000000000000000000, 2.770861233998996642, -0.3622846915002503332 ) ) ;
#615 = VERTEX_POINT ( 'NONE', #318 ) ;
#616 = DIRECTION ( 'NONE',  ( 1.000000000000000000, 0.000000000000000000, 0.000000000000000000 ) ) ;
#617 = CIRCLE ( 'NONE', #8, 1.229499999999998927 ) ;
#618 = MANIFOLD_SOLID_BREP ( 'Fillet1', #820 ) ;
#619 = CIRCLE ( 'NONE', #637, 1.249999999999999556 ) ;
#620 = AXIS2_PLACEMENT_3D ( 'NONE', #563, #1088, #307 ) ;
#621 = ORIENTED_EDGE ( 'NONE', *, *, #1064, .T. ) ;
#622 = CARTESIAN_POINT ( 'NONE',  ( 5.000000000000000000, -3.729138766001002026, -1.362284691913676626 ) ) ;
#623 = ORIENTED_EDGE ( 'NONE', *, *, #314, .F. ) ;
#624 = CARTESIAN_POINT ( 'NONE',  ( 5.000000000000000000, 12.27086123399899620, -13.43228469150025006 ) ) ;
#625 = EDGE_CURVE ( 'NONE', #893, #964, #929, .T. ) ;
#626 = EDGE_LOOP ( 'NONE', ( #580, #707, #597, #489 ) ) ;
#627 = EDGE_CURVE ( 'NONE', #282, #699, #785, .T. ) ;
#628 = DIRECTION ( 'NONE',  ( 0.000000000000000000, 0.000000000000000000, -1.000000000000000000 ) ) ;
#629 = VERTEX_POINT ( 'NONE', #77 ) ;
#630 = CYLINDRICAL_SURFACE ( 'NONE', #47, 1.229500000000001370 ) ;
#631 = ORIENTED_EDGE ( 'NONE', *, *, #974, .F. ) ;
#632 = FACE_OUTER_BOUND ( 'NONE', #16, .T. ) ;
#633 = ORIENTED_EDGE ( 'NONE', *, *, #440, .T. ) ;
#634 = DIRECTION ( 'NONE',  ( 1.000000000000000000, 0.000000000000000000, 0.000000000000000000 ) ) ;
#635 = FACE_OUTER_BOUND ( 'NONE', #336, .T. ) ;
#636 = VECTOR ( 'NONE', #675, 1000.000000000000000 ) ;
#637 = AXIS2_PLACEMENT_3D ( 'NONE', #877, #865, #436 ) ;
#638 = DIRECTION ( 'NONE',  ( 0.000000000000000000, 0.000000000000000000, -1.000000000000000000 ) ) ;
#639 = AXIS2_PLACEMENT_3D ( 'NONE', #983, #189, #551 ) ;
#640 = ORIENTED_EDGE ( 'NONE', *, *, #1024, .T. ) ;
#641 = DIRECTION ( 'NONE',  ( -1.000000000000000000, -0.000000000000000000, -0.000000000000000000 ) ) ;
#642 = ADVANCED_BREP_SHAPE_REPRESENTATION ( 'main holder (2 times)', ( #618, #535 ), #901 ) ;
#643 = EDGE_CURVE ( 'NONE', #89, #856, #617, .T. ) ;
#644 = CARTESIAN_POINT ( 'NONE',  ( 5.000000000000000000, 3.770861234138916274, 5.137715308499750222 ) ) ;
#645 = ORIENTED_EDGE ( 'NONE', *, *, #244, .T. ) ;
#646 = FACE_OUTER_BOUND ( 'NONE', #946, .T. ) ;
#647 = ADVANCED_FACE ( 'NONE', ( #792 ), #706, .F. ) ;
#648 = EDGE_CURVE ( 'NONE', #34, #103, #281, .T. ) ;
#649 = FACE_OUTER_BOUND ( 'NONE', #777, .T. ) ;
#650 = ORIENTED_EDGE ( 'NONE', *, *, #36, .T. ) ;
#651 = CARTESIAN_POINT ( 'NONE',  ( 3.750000000000001776, -5.229138766001003802, -8.432284691500251839 ) ) ;
#652 = CARTESIAN_POINT ( 'NONE',  ( 5.000000000000000000, 12.27086123399899620, -13.43228469150025006 ) ) ;
#653 = AXIS2_PLACEMENT_3D ( 'NONE', #453, #101, #807 ) ;
#654 = AXIS2_PLACEMENT_3D ( 'NONE', #442, #794, #3 ) ;
#655 = VERTEX_POINT ( 'NONE', #888 ) ;
#656 = VECTOR ( 'NONE', #564, 1000.000000000000000 ) ;
#657 = DIRECTION ( 'NONE',  ( -0.000000000000000000, -1.000000000000000000, -1.067522139062650671E-15 ) ) ;
#658 = AXIS2_PLACEMENT_3D ( 'NONE', #252, #609, #963 ) ;
#659 = CARTESIAN_POINT ( 'NONE',  ( 5.000000000000000000, 3.770861234138885631, -4.362284691500249778 ) ) ;
#660 = ADVANCED_FACE ( 'NONE', ( #430, #418, #260, #776, #607, #338, #1130 ), #168, .T. ) ;
#661 = VERTEX_POINT ( 'NONE', #344 ) ;
#662 = EDGE_CURVE ( 'NONE', #852, #593, #599, .T. ) ;
#663 = LINE ( 'NONE', #288, #320 ) ;
#664 = CARTESIAN_POINT ( 'NONE',  ( 0.000000000000000000, -8.729138766001002026, -7.362284691913674628 ) ) ;
#665 = CARTESIAN_POINT ( 'NONE',  ( 5.000000000000000000, -8.729138766001003802, -10.93228469150025006 ) ) ;
#666 = DIRECTION ( 'NONE',  ( 0.000000000000000000, -2.187839969892512647E-15, -1.000000000000000000 ) ) ;
#667 = ORIENTED_EDGE ( 'NONE', *, *, #310, .T. ) ;
#668 = LINE ( 'NONE', #384, #284 ) ;
#669 = CYLINDRICAL_SURFACE ( 'NONE', #138, 1.000000000000000888 ) ;
#670 = CARTESIAN_POINT ( 'NONE',  ( 5.000000000000000000, 1.270861233998995310, -9.932284691500251839 ) ) ;
#671 = EDGE_LOOP ( 'NONE', ( #667, #192 ) ) ;
#672 = AXIS2_PLACEMENT_3D ( 'NONE', #579, #139, #488 ) ;
#673 = DIRECTION ( 'NONE',  ( -1.000000000000000000, -0.000000000000000000, -0.000000000000000000 ) ) ;
#674 = CIRCLE ( 'NONE', #1001, 5.000000000000000000 ) ;
#675 = DIRECTION ( 'NONE',  ( -0.000000000000000000, -0.000000000000000000, -1.000000000000000000 ) ) ;
#676 = AXIS2_PLACEMENT_3D ( 'NONE', #478, #822, #1098 ) ;
#677 = FILL_AREA_STYLE_COLOUR ( '', #999 ) ;
#678 = ADVANCED_FACE ( 'NONE', ( #1117 ), #93, .T. ) ;
#679 = ORIENTED_EDGE ( 'NONE', *, *, #474, .T. ) ;
#680 = DIRECTION ( 'NONE',  ( -1.000000000000000000, -0.000000000000000000, -0.000000000000000000 ) ) ;
#681 = EDGE_LOOP ( 'NONE', ( #958, #908 ) ) ;
#682 = FACE_BOUND ( 'NONE', #261, .T. ) ;
#683 = FACE_OUTER_BOUND ( 'NONE', #1097, .T. ) ;
#684 = ADVANCED_FACE ( 'NONE', ( #691 ), #5, .F. ) ;
#685 = EDGE_CURVE ( 'NONE', #195, #9, #283, .T. ) ;
#686 = SURFACE_SIDE_STYLE ('',( #1112 ) ) ;
#687 = VERTEX_POINT ( 'NONE', #701 ) ;
#688 = DIRECTION ( 'NONE',  ( -0.000000000000000000, -1.000000000000000000, 4.336808689941955613E-16 ) ) ;
#689 = ORIENTED_EDGE ( 'NONE', *, *, #915, .T. ) ;
#690 = SHAPE_DEFINITION_REPRESENTATION ( #501, #642 ) ;
#691 = FACE_OUTER_BOUND ( 'NONE', #171, .T. ) ;
#692 = VERTEX_POINT ( 'NONE', #595 ) ;
#693 = LINE ( 'NONE', #1102, #805 ) ;
#694 = ORIENTED_EDGE ( 'NONE', *, *, #270, .F. ) ;
#695 = CIRCLE ( 'NONE', #1090, 1.229500000000001370 ) ;
#696 = DIRECTION ( 'NONE',  ( 0.000000000000000000, 0.000000000000000000, -1.000000000000000000 ) ) ;
#697 = ORIENTED_EDGE ( 'NONE', *, *, #1034, .T. ) ;
#698 = DIRECTION ( 'NONE',  ( 1.000000000000000000, 0.000000000000000000, 0.000000000000000000 ) ) ;
#699 = VERTEX_POINT ( 'NONE', #164 ) ;
#700 = CARTESIAN_POINT ( 'NONE',  ( 5.000000000000000000, -8.729138766001003802, -9.932284691500248286 ) ) ;
#701 = CARTESIAN_POINT ( 'NONE',  ( 5.000000000000000000, 1.270861233998995310, -9.932284691500251839 ) ) ;
#702 = ORIENTED_EDGE ( 'NONE', *, *, #114, .F. ) ;
#703 = CARTESIAN_POINT ( 'NONE',  ( 0.000000000000000000, 3.770861234138885631, -3.132784691500248186 ) ) ;
#704 = ORIENTED_EDGE ( 'NONE', *, *, #1066, .T. ) ;
#705 = DIRECTION ( 'NONE',  ( -1.000000000000000000, -0.000000000000000000, -0.000000000000000000 ) ) ;
#706 = CYLINDRICAL_SURFACE ( 'NONE', #746, 2.999999999999992450 ) ;
#707 = ORIENTED_EDGE ( 'NONE', *, *, #1044, .F. ) ;
#708 = CARTESIAN_POINT ( 'NONE',  ( 0.000000000000000000, 9.270861233998997974, -8.674925378619532168 ) ) ;
#709 = EDGE_LOOP ( 'NONE', ( #1131, #1022, #598, #1039 ) ) ;
#710 = CIRCLE ( 'NONE', #567, 1.000000000000000888 ) ;
#711 = EDGE_CURVE ( 'NONE', #868, #34, #240, .T. ) ;
#712 = CARTESIAN_POINT ( 'NONE',  ( 5.000000000000000000, 4.270861233998996198, 6.567715308499745497 ) ) ;
#713 = AXIS2_PLACEMENT_3D ( 'NONE', #907, #924, #758 ) ;
#714 = EDGE_CURVE ( 'NONE', #795, #848, #468, .T. ) ;
#715 = VECTOR ( 'NONE', #217, 1000.000000000000000 ) ;
#716 = AXIS2_PLACEMENT_3D ( 'NONE', #530, #516, #944 ) ;
#717 = AXIS2_PLACEMENT_3D ( 'NONE', #25, #92, #178 ) ;
#718 = ORIENTED_EDGE ( 'NONE', *, *, #762, .F. ) ;
#719 = CARTESIAN_POINT ( 'NONE',  ( 0.000000000000000000, -8.729138766001002026, -8.591784691913673555 ) ) ;
#720 = ORIENTED_EDGE ( 'NONE', *, *, #12, .T. ) ;
#721 = CYLINDRICAL_SURFACE ( 'NONE', #298, 1.229499999999998927 ) ;
#722 = ORIENTED_EDGE ( 'NONE', *, *, #417, .T. ) ;
#723 = LINE ( 'NONE', #1067, #532 ) ;
#724 = ORIENTED_EDGE ( 'NONE', *, *, #566, .T. ) ;
#725 = DIRECTION ( 'NONE',  ( 0.000000000000000000, 0.000000000000000000, 1.000000000000000000 ) ) ;
#726 = CARTESIAN_POINT ( 'NONE',  ( 1.250000000000000222, -5.229138766001003802, -8.432284691500251839 ) ) ;
#727 = CARTESIAN_POINT ( 'NONE',  ( 2.500000000000000888, -5.229138766001003802, -13.43228469150025006 ) ) ;
#728 = ORIENTED_EDGE ( 'NONE', *, *, #251, .T. ) ;
#729 = EDGE_CURVE ( 'NONE', #54, #65, #550, .T. ) ;
#730 = DIRECTION ( 'NONE',  ( 1.000000000000000000, 0.000000000000000000, 0.000000000000000000 ) ) ;
#731 = VECTOR ( 'NONE', #172, 1000.000000000000000 ) ;
#732 = PRESENTATION_STYLE_ASSIGNMENT (( #224 ) ) ;
#733 = CIRCLE ( 'NONE', #676, 5.000000000000000000 ) ;
#734 = ORIENTED_EDGE ( 'NONE', *, *, #437, .F. ) ;
#735 = ADVANCED_FACE ( 'NONE', ( #122 ), #906, .F. ) ;
#736 = CARTESIAN_POINT ( 'NONE',  ( 5.000000000000000000, -8.729138766001002026, -6.132784691913676589 ) ) ;
#737 = DIRECTION ( 'NONE',  ( 0.000000000000000000, 0.000000000000000000, 1.000000000000000000 ) ) ;
#738 = ORIENTED_EDGE ( 'NONE', *, *, #116, .F. ) ;
#739 = DIRECTION ( 'NONE',  ( -1.000000000000000000, 0.000000000000000000, 0.000000000000000000 ) ) ;
#740 = FACE_OUTER_BOUND ( 'NONE', #990, .T. ) ;
#741 = EDGE_LOOP ( 'NONE', ( #405, #472 ) ) ;
#742 = FACE_OUTER_BOUND ( 'NONE', #830, .T. ) ;
#743 = DIRECTION ( 'NONE',  ( 1.000000000000000000, 0.000000000000000000, 0.000000000000000000 ) ) ;
#744 = ADVANCED_FACE ( 'NONE', ( #385 ), #278, .F. ) ;
#745 = EDGE_CURVE ( 'NONE', #557, #784, #106, .T. ) ;
#746 = AXIS2_PLACEMENT_3D ( 'NONE', #961, #1038, #72 ) ;
#747 = VECTOR ( 'NONE', #304, 1000.000000000000000 ) ;
#748 = VERTEX_POINT ( 'NONE', #624 ) ;
#749 = AXIS2_PLACEMENT_3D ( 'NONE', #326, #1121, #163 ) ;
#750 = LINE ( 'NONE', #574, #853 ) ;
#751 = VECTOR ( 'NONE', #688, 1000.000000000000000 ) ;
#752 = DIRECTION ( 'NONE',  ( -1.000000000000000000, -0.000000000000000000, -0.000000000000000000 ) ) ;
#753 = CARTESIAN_POINT ( 'NONE',  ( 5.000000000000000000, 12.27086123399900686, -8.674925378619519734 ) ) ;
#754 = ORIENTED_EDGE ( 'NONE', *, *, #1081, .T. ) ;
#755 = ADVANCED_FACE ( 'NONE', ( #740 ), #373, .F. ) ;
#756 = DIRECTION ( 'NONE',  ( -1.000000000000000000, -0.000000000000000000, -0.000000000000000000 ) ) ;
#757 = CARTESIAN_POINT ( 'NONE',  ( 0.000000000000000000, 3.770861234138916274, 6.367215308499747373 ) ) ;
#758 = DIRECTION ( 'NONE',  ( 0.000000000000000000, 0.000000000000000000, -1.000000000000000000 ) ) ;
#759 = ORIENTED_EDGE ( 'NONE', *, *, #762, .T. ) ;
#760 = CARTESIAN_POINT ( 'NONE',  ( 5.000000000000000000, 2.770861233998996642, -0.3622846915002503332 ) ) ;
#761 = DIRECTION ( 'NONE',  ( 0.000000000000000000, 0.000000000000000000, 1.000000000000000000 ) ) ;
#762 = EDGE_CURVE ( 'NONE', #543, #370, #274, .T. ) ;
#763 = LINE ( 'NONE', #560, #191 ) ;
#764 = ORIENTED_EDGE ( 'NONE', *, *, #440, .F. ) ;
#765 = VECTOR ( 'NONE', #109, 1000.000000000000000 ) ;
#766 = DIRECTION ( 'NONE',  ( -1.000000000000000000, -0.000000000000000000, -0.000000000000000000 ) ) ;
#767 = EDGE_CURVE ( 'NONE', #692, #1003, #1032, .T. ) ;
#768 = EDGE_CURVE ( 'NONE', #593, #868, #978, .T. ) ;
#769 = AXIS2_PLACEMENT_3D ( 'NONE', #927, #844, #1086 ) ;
#770 = DIRECTION ( 'NONE',  ( -1.000000000000000000, -0.000000000000000000, -0.000000000000000000 ) ) ;
#771 = CIRCLE ( 'NONE', #658, 1.250000000000000666 ) ;
#772 = CARTESIAN_POINT ( 'NONE',  ( 5.000000000000000000, 1.270861233998997974, 6.567715308499741944 ) ) ;
#773 = ORIENTED_EDGE ( 'NONE', *, *, #662, .F. ) ;
#774 = DIRECTION ( 'NONE',  ( 0.000000000000000000, 0.000000000000000000, -1.000000000000000000 ) ) ;
#775 = ORIENTED_EDGE ( 'NONE', *, *, #333, .F. ) ;
#776 = FACE_OUTER_BOUND ( 'NONE', #80, .T. ) ;
#777 = EDGE_LOOP ( 'NONE', ( #977, #917, #522, #108 ) ) ;
#778 = CYLINDRICAL_SURFACE ( 'NONE', #202, 1.249999999999999556 ) ;
#779 = ORIENTED_EDGE ( 'NONE', *, *, #974, .T. ) ;
#780 = CARTESIAN_POINT ( 'NONE',  ( 5.000000000000000000, 10.14954089043935603, -5.310964347940601016 ) ) ;
#781 = DIRECTION ( 'NONE',  ( -1.000000000000000000, -0.000000000000000000, -0.000000000000000000 ) ) ;
#782 = ORIENTED_EDGE ( 'NONE', *, *, #473, .T. ) ;
#783 = DIRECTION ( 'NONE',  ( 1.000000000000000000, 0.000000000000000000, 0.000000000000000000 ) ) ;
#784 = VERTEX_POINT ( 'NONE', #457 ) ;
#785 = CIRCLE ( 'NONE', #10, 0.9999999999999974465 ) ;
#786 = FACE_BOUND ( 'NONE', #173, .T. ) ;
#787 = CIRCLE ( 'NONE', #123, 1.229500000000001370 ) ;
#788 = AXIS2_PLACEMENT_3D ( 'NONE', #926, #756, #919 ) ;
#789 = CARTESIAN_POINT ( 'NONE',  ( 2.500000000000000888, -5.229138766001003802, -8.432284691500251839 ) ) ;
#790 = VERTEX_POINT ( 'NONE', #193 ) ;
#791 = DIRECTION ( 'NONE',  ( -1.000000000000000000, -0.000000000000000000, -0.000000000000000000 ) ) ;
#792 = FACE_OUTER_BOUND ( 'NONE', #1028, .T. ) ;
#793 = ORIENTED_EDGE ( 'NONE', *, *, #714, .F. ) ;
#794 = DIRECTION ( 'NONE',  ( -0.000000000000000000, -0.000000000000000000, -1.000000000000000000 ) ) ;
#795 = VERTEX_POINT ( 'NONE', #809 ) ;
#796 = CARTESIAN_POINT ( 'NONE',  ( 5.000000000000000000, -6.729138766000972716, -4.362284691913678181 ) ) ;
#797 = EDGE_LOOP ( 'NONE', ( #301, #720, #328, #312 ) ) ;
#798 = CARTESIAN_POINT ( 'NONE',  ( 0.000000000000000000, 3.770861234138916274, 5.137715308499750222 ) ) ;
#799 = ORIENTED_EDGE ( 'NONE', *, *, #458, .F. ) ;
#800 = EDGE_CURVE ( 'NONE', #661, #467, #817, .T. ) ;
#801 = AXIS2_PLACEMENT_3D ( 'NONE', #352, #367, #257 ) ;
#802 = DIRECTION ( 'NONE',  ( 0.000000000000000000, 0.000000000000000000, 1.000000000000000000 ) ) ;
#803 = AXIS2_PLACEMENT_3D ( 'NONE', #525, #871, #1029 ) ;
#804 = VECTOR ( 'NONE', #955, 1000.000000000000000 ) ;
#805 = VECTOR ( 'NONE', #862, 1000.000000000000000 ) ;
#806 = DIRECTION ( 'NONE',  ( -1.000000000000000000, -0.000000000000000000, -0.000000000000000000 ) ) ;
#807 = DIRECTION ( 'NONE',  ( 0.000000000000000000, 0.000000000000000000, -1.000000000000000000 ) ) ;
#808 = ORIENTED_EDGE ( 'NONE', *, *, #527, .F. ) ;
#809 = CARTESIAN_POINT ( 'NONE',  ( 0.000000000000000000, 3.770861234138916274, 3.908215308499753071 ) ) ;
#810 = DIRECTION ( 'NONE',  ( 0.000000000000000000, 0.000000000000000000, -1.000000000000000000 ) ) ;
#811 = CARTESIAN_POINT ( 'NONE',  ( 5.000000000000000000, -8.729138766001002026, -4.362284691913677293 ) ) ;
#812 = ORIENTED_EDGE ( 'NONE', *, *, #441, .F. ) ;
#813 = DIRECTION ( 'NONE',  ( 1.000000000000000000, 0.000000000000000000, 0.000000000000000000 ) ) ;
#814 = FACE_OUTER_BOUND ( 'NONE', #185, .T. ) ;
#815 = ORIENTED_EDGE ( 'NONE', *, *, #1129, .F. ) ;
#816 = CARTESIAN_POINT ( 'NONE',  ( 5.000000000000000000, 9.270861233998996198, 6.567715308499745497 ) ) ;
#817 = LINE ( 'NONE', #462, #264 ) ;
#818 = CIRCLE ( 'NONE', #451, 1.249999999999999556 ) ;
#819 = AXIS2_PLACEMENT_3D ( 'NONE', #1069, #268, #737 ) ;
#820 = CLOSED_SHELL ( 'NONE', ( #492, #350, #918, #533, #827, #1048, #230, #846, #660, #1110, #562, #549, #96, #744, #647, #117, #503, #15, #755, #355, #30, #735, #1111, #70, #833, #565, #967, #825, #684, #678, #210, #864, #148, #582 ) ) ;
#821 = ORIENTED_EDGE ( 'NONE', *, *, #1050, .F. ) ;
#822 = DIRECTION ( 'NONE',  ( -1.000000000000000000, -0.000000000000000000, -0.000000000000000000 ) ) ;
#823 = DIRECTION ( 'NONE',  ( 0.000000000000000000, 8.573592138854818668E-16, 1.000000000000000000 ) ) ;
#824 = EDGE_LOOP ( 'NONE', ( #1010, #1127, #962, #73 ) ) ;
#825 = ADVANCED_FACE ( 'NONE', ( #19 ), #14, .F. ) ;
#826 = DIRECTION ( 'NONE',  ( -1.000000000000000000, -0.000000000000000000, -0.000000000000000000 ) ) ;
#827 = ADVANCED_FACE ( 'NONE', ( #365 ), #721, .F. ) ;
#828 = LINE ( 'NONE', #589, #987 ) ;
#829 = UNCERTAINTY_MEASURE_WITH_UNIT (LENGTH_MEASURE( 1.000000000000000082E-05 ), #162, 'distance_accuracy_value', 'NONE');
#830 = EDGE_LOOP ( 'NONE', ( #515, #679, #75, #323 ) ) ;
#831 = CARTESIAN_POINT ( 'NONE',  ( 3.750000000000001776, -5.229138766001003802, -13.43228469150025006 ) ) ;
#832 = CARTESIAN_POINT ( 'NONE',  ( 1.250000000000000444, 8.770861233998996198, -8.432284691500251839 ) ) ;
#833 = ADVANCED_FACE ( 'NONE', ( #465 ), #630, .F. ) ;
#834 = DIRECTION ( 'NONE',  ( 0.000000000000000000, 1.067522139062650671E-15, -1.000000000000000000 ) ) ;
#835 = AXIS2_PLACEMENT_3D ( 'NONE', #772, #53, #143 ) ;
#836 = ORIENTED_EDGE ( 'NONE', *, *, #711, .F. ) ;
#837 = DIRECTION ( 'NONE',  ( 1.000000000000000000, 0.000000000000000000, 0.000000000000000000 ) ) ;
#838 = FACE_OUTER_BOUND ( 'NONE', #227, .T. ) ;
#839 = DIRECTION ( 'NONE',  ( -0.000000000000000000, -8.573592138854818668E-16, -1.000000000000000000 ) ) ;
#840 = LINE ( 'NONE', #1104, #1105 ) ;
#841 = EDGE_LOOP ( 'NONE', ( #539, #689 ) ) ;
#842 = DIRECTION ( 'NONE',  ( 0.000000000000000000, 0.000000000000000000, -1.000000000000000000 ) ) ;
#843 = EDGE_CURVE ( 'NONE', #467, #573, #695, .T. ) ;
#844 = DIRECTION ( 'NONE',  ( 1.000000000000000000, 0.000000000000000000, 0.000000000000000000 ) ) ;
#845 = CARTESIAN_POINT ( 'NONE',  ( 5.000000000000000000, 1.270861233998995532, -11.93228469150024651 ) ) ;
#846 = ADVANCED_FACE ( 'NONE', ( #649 ), #200, .F. ) ;
#847 = EDGE_CURVE ( 'NONE', #94, #446, #196, .T. ) ;
#848 = VERTEX_POINT ( 'NONE', #757 ) ;
#849 = CARTESIAN_POINT ( 'NONE',  ( 5.000000000000000000, 1.270861233998995310, -10.93228469150025006 ) ) ;
#850 = DIRECTION ( 'NONE',  ( 0.000000000000000000, 0.000000000000000000, -1.000000000000000000 ) ) ;
#851 = PLANE ( 'NONE',  #1031 ) ;
#852 = VERTEX_POINT ( 'NONE', #1095 ) ;
#853 = VECTOR ( 'NONE', #211, 1000.000000000000000 ) ;
#854 = VECTOR ( 'NONE', #272, 1000.000000000000000 ) ;
#855 = CARTESIAN_POINT ( 'NONE',  ( 0.000000000000000000, -8.729138766001002026, -7.362284691913674628 ) ) ;
#856 = VERTEX_POINT ( 'NONE', #940 ) ;
#857 = CIRCLE ( 'NONE', #716, 1.229499999999998927 ) ;
#858 = LINE ( 'NONE', #416, #731 ) ;
#859 = VECTOR ( 'NONE', #59, 1000.000000000000000 ) ;
#860 = DIRECTION ( 'NONE',  ( 1.000000000000000000, 0.000000000000000000, 0.000000000000000000 ) ) ;
#861 = EDGE_LOOP ( 'NONE', ( #1070, #391, #613, #1078 ) ) ;
#862 = DIRECTION ( 'NONE',  ( -0.000000000000000000, -1.000000000000000000, 4.336808689941955613E-16 ) ) ;
#863 = ORIENTED_EDGE ( 'NONE', *, *, #843, .T. ) ;
#864 = ADVANCED_FACE ( 'NONE', ( #575 ), #578, .T. ) ;
#865 = DIRECTION ( 'NONE',  ( 0.000000000000000000, 0.000000000000000000, -1.000000000000000000 ) ) ;
#866 = EDGE_CURVE ( 'NONE', #362, #421, #377, .T. ) ;
#867 = DIRECTION ( 'NONE',  ( 0.000000000000000000, 0.000000000000000000, -1.000000000000000000 ) ) ;
#868 = VERTEX_POINT ( 'NONE', #299 ) ;
#869 = CARTESIAN_POINT ( 'NONE',  ( 0.000000000000000000, -8.729138766001002026, -4.362284691913677293 ) ) ;
#870 = VERTEX_POINT ( 'NONE', #1089 ) ;
#871 = DIRECTION ( 'NONE',  ( -0.000000000000000000, -0.000000000000000000, -1.000000000000000000 ) ) ;
#872 = ORIENTED_EDGE ( 'NONE', *, *, #114, .T. ) ;
#873 = LINE ( 'NONE', #413, #300 ) ;
#874 = ORIENTED_EDGE ( 'NONE', *, *, #547, .T. ) ;
#875 = APPLICATION_CONTEXT ( 'automotive_design' ) ;
#876 = AXIS2_PLACEMENT_3D ( 'NONE', #727, #23, #371 ) ;
#877 = CARTESIAN_POINT ( 'NONE',  ( 2.500000000000000000, 8.770861233998996198, -13.43228469150025006 ) ) ;
#878 = AXIS2_PLACEMENT_3D ( 'NONE', #146, #491, #479 ) ;
#879 = AXIS2_PLACEMENT_3D ( 'NONE', #664, #485, #308 ) ;
#880 = VECTOR ( 'NONE', #806, 1000.000000000000000 ) ;
#881 = CARTESIAN_POINT ( 'NONE',  ( 5.000000000000000000, 2.770861233998997086, -2.362284691500251554 ) ) ;
#882 = CYLINDRICAL_SURFACE ( 'NONE', #654, 1.249999999999999556 ) ;
#883 = ORIENTED_EDGE ( 'NONE', *, *, #293, .T. ) ;
#884 = APPLICATION_PROTOCOL_DEFINITION ( 'draft international standard', 'automotive_design', 1998, #505 ) ;
#885 = CARTESIAN_POINT ( 'NONE',  ( 5.000000000000000000, 1.270861233998992867, 11.56771530849974283 ) ) ;
#886 = CYLINDRICAL_SURFACE ( 'NONE', #64, 1.229500000000001370 ) ;
#887 = EDGE_CURVE ( 'NONE', #306, #938, #828, .T. ) ;
#888 = CARTESIAN_POINT ( 'NONE',  ( 0.000000000000000000, -11.72913876600099670, -7.362284691913674628 ) ) ;
#889 = ORIENTED_EDGE ( 'NONE', *, *, #425, .T. ) ;
#890 = EDGE_CURVE ( 'NONE', #275, #119, #601, .T. ) ;
#891 = EDGE_CURVE ( 'NONE', #1123, #34, #292, .T. ) ;
#892 = CARTESIAN_POINT ( 'NONE',  ( 0.000000000000000000, -6.729138766000972716, -4.362284691913678181 ) ) ;
#893 = VERTEX_POINT ( 'NONE', #315 ) ;
#894 = DIRECTION ( 'NONE',  ( -0.000000000000000000, -0.000000000000000000, 1.000000000000000000 ) ) ;
#895 = FACE_OUTER_BOUND ( 'NONE', #824, .T. ) ;
#896 = CARTESIAN_POINT ( 'NONE',  ( 0.000000000000000000, -3.729138766001002026, -1.362284691913676626 ) ) ;
#897 = ORIENTED_EDGE ( 'NONE', *, *, #145, .T. ) ;
#898 = AXIS2_PLACEMENT_3D ( 'NONE', #133, #834, #57 ) ;
#899 = DIRECTION ( 'NONE',  ( 0.000000000000000000, -0.7071067811865465735, -0.7071067811865484609 ) ) ;
#900 = CIRCLE ( 'NONE', #971, 2.000000000000001332 ) ;
#901 =( GEOMETRIC_REPRESENTATION_CONTEXT ( 3 ) GLOBAL_UNCERTAINTY_ASSIGNED_CONTEXT ( ( #829 ) ) GLOBAL_UNIT_ASSIGNED_CONTEXT ( ( #162, #959, #1036 ) ) REPRESENTATION_CONTEXT ( 'NONE', 'WORKASPACE' ) );
#902 = DIRECTION ( 'NONE',  ( 1.000000000000000000, 0.000000000000000000, 0.000000000000000000 ) ) ;
#903 = DIRECTION ( 'NONE',  ( 0.000000000000000000, 0.000000000000000000, -1.000000000000000000 ) ) ;
#904 = ORIENTED_EDGE ( 'NONE', *, *, #960, .T. ) ;
#905 = DIRECTION ( 'NONE',  ( -0.000000000000000000, -8.573592138854818668E-16, -1.000000000000000000 ) ) ;
#906 = PLANE ( 'NONE',  #156 ) ;
#907 = CARTESIAN_POINT ( 'NONE',  ( 0.000000000000000000, 3.770861234138885631, -4.362284691500249778 ) ) ;
#908 = ORIENTED_EDGE ( 'NONE', *, *, #458, .T. ) ;
#909 = CARTESIAN_POINT ( 'NONE',  ( 0.000000000000000000, 2.770861233998996642, -0.3622846915002503332 ) ) ;
#910 = ORIENTED_EDGE ( 'NONE', *, *, #866, .T. ) ;
#911 = PLANE ( 'NONE',  #1091 ) ;
#912 = CARTESIAN_POINT ( 'NONE',  ( 5.000000000000000000, -3.729138766001002026, 6.567715308499741944 ) ) ;
#913 = CIRCLE ( 'NONE', #653, 0.9999999999999974465 ) ;
#914 = CIRCLE ( 'NONE', #534, 1.250000000000000666 ) ;
#915 = EDGE_CURVE ( 'NONE', #158, #24, #914, .T. ) ;
#916 = AXIS2_PLACEMENT_3D ( 'NONE', #322, #528, #170 ) ;
#917 = ORIENTED_EDGE ( 'NONE', *, *, #98, .T. ) ;
#918 = ADVANCED_FACE ( 'NONE', ( #60 ), #1099, .F. ) ;
#919 = DIRECTION ( 'NONE',  ( 0.000000000000000000, 0.000000000000000000, -1.000000000000000000 ) ) ;
#920 = CARTESIAN_POINT ( 'NONE',  ( 2.500000000000000888, -5.229138766001003802, -8.432284691500251839 ) ) ;
#921 = ORIENTED_EDGE ( 'NONE', *, *, #1064, .F. ) ;
#922 = DIRECTION ( 'NONE',  ( 0.000000000000000000, 0.000000000000000000, 1.000000000000000000 ) ) ;
#923 = DIRECTION ( 'NONE',  ( 0.000000000000000000, 0.000000000000000000, -1.000000000000000000 ) ) ;
#924 = DIRECTION ( 'NONE',  ( 1.000000000000000000, 0.000000000000000000, 0.000000000000000000 ) ) ;
#925 = ORIENTED_EDGE ( 'NONE', *, *, #948, .F. ) ;
#926 = CARTESIAN_POINT ( 'NONE',  ( 5.000000000000000000, -6.729138766001003802, -1.362284691913676404 ) ) ;
#927 = CARTESIAN_POINT ( 'NONE',  ( 0.000000000000000000, -8.729138766001002026, -7.362284691913674628 ) ) ;
#928 = FACE_BOUND ( 'NONE', #741, .T. ) ;
#929 = CIRCLE ( 'NONE', #83, 1.229499999999997151 ) ;
#930 = EDGE_CURVE ( 'NONE', #985, #573, #407, .T. ) ;
#931 = VECTOR ( 'NONE', #38, 1000.000000000000000 ) ;
#932 = ORIENTED_EDGE ( 'NONE', *, *, #891, .T. ) ;
#933 = VECTOR ( 'NONE', #393, 1000.000000000000000 ) ;
#934 = DIRECTION ( 'NONE',  ( -1.000000000000000000, -0.000000000000000000, -0.000000000000000000 ) ) ;
#935 = DIRECTION ( 'NONE',  ( 1.000000000000000000, 0.000000000000000000, 0.000000000000000000 ) ) ;
#936 = EDGE_CURVE ( 'NONE', #140, #1015, #41, .T. ) ;
#937 = DIRECTION ( 'NONE',  ( -0.000000000000000000, -0.000000000000000000, -1.000000000000000000 ) ) ;
#938 = VERTEX_POINT ( 'NONE', #399 ) ;
#939 = CARTESIAN_POINT ( 'NONE',  ( 5.000000000000000000, -8.729138766001002026, -6.132784691913676589 ) ) ;
#940 = CARTESIAN_POINT ( 'NONE',  ( 5.000000000000000000, -8.729138766001002026, -8.591784691913673555 ) ) ;
#941 = CYLINDRICAL_SURFACE ( 'NONE', #63, 1.000000000000000888 ) ;
#942 = EDGE_LOOP ( 'NONE', ( #1115, #815, #925, #779 ) ) ;
#943 = CARTESIAN_POINT ( 'NONE',  ( 0.000000000000000000, 1.270861233998995310, -9.932284691500251839 ) ) ;
#944 = DIRECTION ( 'NONE',  ( 0.000000000000000000, 0.000000000000000000, -1.000000000000000000 ) ) ;
#945 = CARTESIAN_POINT ( 'NONE',  ( 5.000000000000000000, -8.729138766001002026, -7.362284691913674628 ) ) ;
#946 = EDGE_LOOP ( 'NONE', ( #386, #587, #495, #235 ) ) ;
#947 = AXIS2_PLACEMENT_3D ( 'NONE', #614, #968, #175 ) ;
#948 = EDGE_CURVE ( 'NONE', #938, #748, #56, .T. ) ;
#949 = VECTOR ( 'NONE', #894, 1000.000000000000000 ) ;
#950 = DIRECTION ( 'NONE',  ( -0.000000000000000000, -0.000000000000000000, -1.000000000000000000 ) ) ;
#951 = EDGE_CURVE ( 'NONE', #421, #362, #242, .T. ) ;
#952 = EDGE_LOOP ( 'NONE', ( #412, #187, #1068, #273 ) ) ;
#953 = VECTOR ( 'NONE', #1037, 1000.000000000000000 ) ;
#954 = DIRECTION ( 'NONE',  ( -1.000000000000000000, -0.000000000000000000, -0.000000000000000000 ) ) ;
#955 = DIRECTION ( 'NONE',  ( 1.000000000000000000, -0.000000000000000000, -0.000000000000000000 ) ) ;
#956 = VERTEX_POINT ( 'NONE', #309 ) ;
#957 = CARTESIAN_POINT ( 'NONE',  ( 5.000000000000000000, -11.72913876600099670, -7.362284691913674628 ) ) ;
#958 = ORIENTED_EDGE ( 'NONE', *, *, #627, .T. ) ;
#959 =( NAMED_UNIT ( * ) PLANE_ANGLE_UNIT ( ) SI_UNIT ( $, .RADIAN. ) );
#960 = EDGE_CURVE ( 'NONE', #446, #271, #674, .T. ) ;
#961 = CARTESIAN_POINT ( 'NONE',  ( 5.000000000000000000, 12.27086123399899442, -3.189644004380966180 ) ) ;
#962 = ORIENTED_EDGE ( 'NONE', *, *, #1084, .T. ) ;
#963 = DIRECTION ( 'NONE',  ( -1.000000000000000000, 0.000000000000000000, 0.000000000000000000 ) ) ;
#964 = VERTEX_POINT ( 'NONE', #205 ) ;
#965 = DIRECTION ( 'NONE',  ( 0.000000000000000000, 0.000000000000000000, 1.000000000000000000 ) ) ;
#966 = ORIENTED_EDGE ( 'NONE', *, *, #131, .T. ) ;
#967 = ADVANCED_FACE ( 'NONE', ( #572 ), #669, .F. ) ;
#968 = DIRECTION ( 'NONE',  ( 1.000000000000000000, 0.000000000000000000, 0.000000000000000000 ) ) ;
#969 = ORIENTED_EDGE ( 'NONE', *, *, #473, .F. ) ;
#970 = PRESENTATION_LAYER_ASSIGNMENT (  '', '', ( #174 ) ) ;
#971 = AXIS2_PLACEMENT_3D ( 'NONE', #1103, #229, #594 ) ;
#972 = CARTESIAN_POINT ( 'NONE',  ( 0.000000000000000000, 12.27086123399899442, -3.189644004380966180 ) ) ;
#973 = EDGE_CURVE ( 'NONE', #661, #985, #787, .T. ) ;
#974 = EDGE_CURVE ( 'NONE', #938, #557, #142, .T. ) ;
#975 = ORIENTED_EDGE ( 'NONE', *, *, #98, .F. ) ;
#976 = DIRECTION ( 'NONE',  ( 1.000000000000000000, 0.000000000000000000, 0.000000000000000000 ) ) ;
#977 = ORIENTED_EDGE ( 'NONE', *, *, #22, .T. ) ;
#978 = LINE ( 'NONE', #184, #949 ) ;
#979 = ORIENTED_EDGE ( 'NONE', *, *, #216, .T. ) ;
#980 = DIRECTION ( 'NONE',  ( 1.000000000000000000, 0.000000000000000000, 0.000000000000000000 ) ) ;
#981 = ORIENTED_EDGE ( 'NONE', *, *, #951, .T. ) ;
#982 = DIRECTION ( 'NONE',  ( 0.000000000000000000, 0.000000000000000000, 1.000000000000000000 ) ) ;
#983 = CARTESIAN_POINT ( 'NONE',  ( 5.000000000000000000, -3.729138766001002026, -1.362284691913676404 ) ) ;
#984 = CARTESIAN_POINT ( 'NONE',  ( 5.000000000000000000, -8.729138766001003802, -10.93228469150025006 ) ) ;
#985 = VERTEX_POINT ( 'NONE', #45 ) ;
#986 = DIRECTION ( 'NONE',  ( 0.000000000000000000, 0.000000000000000000, -1.000000000000000000 ) ) ;
#987 = VECTOR ( 'NONE', #839, 1000.000000000000000 ) ;
#988 = CYLINDRICAL_SURFACE ( 'NONE', #717, 2.999999999999996447 ) ;
#989 = CARTESIAN_POINT ( 'NONE',  ( 2.500000000000000888, -5.229138766001003802, -8.432284691500251839 ) ) ;
#990 = EDGE_LOOP ( 'NONE', ( #529, #353, #1082, #433 ) ) ;
#991 = DIRECTION ( 'NONE',  ( 0.000000000000000000, 0.000000000000000000, 1.000000000000000000 ) ) ;
#992 = ORIENTED_EDGE ( 'NONE', *, *, #35, .T. ) ;
#993 = CARTESIAN_POINT ( 'NONE',  ( 5.000000000000000000, 9.270861233998996198, 11.56771530849975171 ) ) ;
#994 = DIRECTION ( 'NONE',  ( -1.000000000000000000, -0.000000000000000000, -0.000000000000000000 ) ) ;
#995 = ORIENTED_EDGE ( 'NONE', *, *, #302, .T. ) ;
#996 = CARTESIAN_POINT ( 'NONE',  ( 5.000000000000000000, 1.270861233998992867, 11.56771530849974283 ) ) ;
#997 = CARTESIAN_POINT ( 'NONE',  ( 0.000000000000000000, -8.729138766001002026, -7.362284691913674628 ) ) ;
#998 = CIRCLE ( 'NONE', #507, 3.000000000000001776 ) ;
#999 = COLOUR_RGB ( '',0.7921568627450980005, 0.8196078431372548767, 0.9333333333333333481 ) ;
#1000 = EDGE_CURVE ( 'NONE', #1003, #692, #900, .T. ) ;
#1001 = AXIS2_PLACEMENT_3D ( 'NONE', #1005, #752, #403 ) ;
#1002 = VECTOR ( 'NONE', #1049, 1000.000000000000000 ) ;
#1003 = VERTEX_POINT ( 'NONE', #1042 ) ;
#1004 = CARTESIAN_POINT ( 'NONE',  ( 5.000000000000000000, 12.27086123399900863, -8.674925378619519734 ) ) ;
#1005 = CARTESIAN_POINT ( 'NONE',  ( 0.000000000000000000, 1.270861233998997974, 6.567715308499741944 ) ) ;
#1006 = ORIENTED_EDGE ( 'NONE', *, *, #302, .F. ) ;
#1007 = DIRECTION ( 'NONE',  ( 0.000000000000000000, 0.000000000000000000, -1.000000000000000000 ) ) ;
#1008 = CARTESIAN_POINT ( 'NONE',  ( 5.000000000000000000, 2.770861233998996642, -0.3622846915002503332 ) ) ;
#1009 = CARTESIAN_POINT ( 'NONE',  ( 5.000000000000000000, 12.27086123399899620, -13.43228469150025006 ) ) ;
#1010 = ORIENTED_EDGE ( 'NONE', *, *, #417, .F. ) ;
#1011 = DIRECTION ( 'NONE',  ( -1.000000000000000000, -0.000000000000000000, -0.000000000000000000 ) ) ;
#1012 = DIRECTION ( 'NONE',  ( -1.000000000000000000, -0.000000000000000000, -0.000000000000000000 ) ) ;
#1013 = FACE_OUTER_BOUND ( 'NONE', #69, .T. ) ;
#1014 = AXIS2_PLACEMENT_3D ( 'NONE', #1008, #743, #923 ) ;
#1015 = VERTEX_POINT ( 'NONE', #1128 ) ;
#1016 = CIRCLE ( 'NONE', #380, 3.000000000000009770 ) ;
#1017 = CARTESIAN_POINT ( 'NONE',  ( 0.000000000000000000, 1.270861233998992867, 11.56771530849974283 ) ) ;
#1018 = DIRECTION ( 'NONE',  ( 0.000000000000000000, 0.000000000000000000, -1.000000000000000000 ) ) ;
#1019 = DIRECTION ( 'NONE',  ( 1.000000000000000000, 0.000000000000000000, 0.000000000000000000 ) ) ;
#1020 = ORIENTED_EDGE ( 'NONE', *, *, #149, .T. ) ;
#1021 = CARTESIAN_POINT ( 'NONE',  ( 2.500000000000000000, 8.770861233998996198, -8.432284691500251839 ) ) ;
#1022 = ORIENTED_EDGE ( 'NONE', *, *, #1025, .T. ) ;
#1023 = PLANE ( 'NONE',  #898 ) ;
#1024 = EDGE_CURVE ( 'NONE', #615, #271, #337, .T. ) ;
#1025 = EDGE_CURVE ( 'NONE', #985, #661, #206, .T. ) ;
#1026 = ORIENTED_EDGE ( 'NONE', *, *, #847, .F. ) ;
#1027 = FACE_OUTER_BOUND ( 'NONE', #797, .T. ) ;
#1028 = EDGE_LOOP ( 'NONE', ( #97, #443, #209, #1065 ) ) ;
#1029 = DIRECTION ( 'NONE',  ( -1.000000000000000000, 0.000000000000000000, 0.000000000000000000 ) ) ;
#1030 = VERTEX_POINT ( 'NONE', #780 ) ;
#1031 = AXIS2_PLACEMENT_3D ( 'NONE', #1009, #218, #1019 ) ;
#1032 = CIRCLE ( 'NONE', #157, 2.000000000000001332 ) ;
#1033 = LINE ( 'NONE', #406, #364 ) ;
#1034 = EDGE_CURVE ( 'NONE', #856, #362, #324, .T. ) ;
#1035 = VERTEX_POINT ( 'NONE', #154 ) ;
#1036 =( NAMED_UNIT ( * ) SI_UNIT ( $, .STERADIAN. ) SOLID_ANGLE_UNIT ( ) );
#1037 = DIRECTION ( 'NONE',  ( -1.000000000000000000, -0.000000000000000000, -0.000000000000000000 ) ) ;
#1038 = DIRECTION ( 'NONE',  ( -1.000000000000000000, -0.000000000000000000, -0.000000000000000000 ) ) ;
#1039 = ORIENTED_EDGE ( 'NONE', *, *, #547, .F. ) ;
#1040 = DIRECTION ( 'NONE',  ( 0.000000000000000000, 0.000000000000000000, -1.000000000000000000 ) ) ;
#1041 = ORIENTED_EDGE ( 'NONE', *, *, #643, .F. ) ;
#1042 = CARTESIAN_POINT ( 'NONE',  ( 0.000000000000000000, 2.770861233998997086, -2.362284691500251554 ) ) ;
#1043 = DIRECTION ( 'NONE',  ( -1.000000000000000000, 0.000000000000000000, -0.000000000000000000 ) ) ;
#1044 = EDGE_CURVE ( 'NONE', #183, #181, #343, .T. ) ;
#1045 = ORIENTED_EDGE ( 'NONE', *, *, #470, .T. ) ;
#1046 = CYLINDRICAL_SURFACE ( 'NONE', #121, 1.250000000000000666 ) ;
#1047 = ORIENTED_EDGE ( 'NONE', *, *, #648, .F. ) ;
#1048 = ADVANCED_FACE ( 'NONE', ( #683 ), #886, .F. ) ;
#1049 = DIRECTION ( 'NONE',  ( 1.000000000000000000, -0.000000000000000000, -0.000000000000000000 ) ) ;
#1050 = EDGE_CURVE ( 'NONE', #790, #238, #179, .T. ) ;
#1051 = DIRECTION ( 'NONE',  ( 1.000000000000000000, 0.000000000000000000, 0.000000000000000000 ) ) ;
#1052 = EDGE_LOOP ( 'NONE', ( #86, #459, #640, #650 ) ) ;
#1053 = LINE ( 'NONE', #361, #765 ) ;
#1054 = AXIS2_PLACEMENT_3D ( 'NONE', #1109, #234, #239 ) ;
#1055 = ORIENTED_EDGE ( 'NONE', *, *, #129, .F. ) ;
#1056 = AXIS2_PLACEMENT_3D ( 'NONE', #984, #976, #460 ) ;
#1057 = VECTOR ( 'NONE', #167, 1000.000000000000000 ) ;
#1058 = CIRCLE ( 'NONE', #571, 0.9999999999999974465 ) ;
#1059 = CARTESIAN_POINT ( 'NONE',  ( 2.500000000000000888, -5.229138766001003802, -13.43228469150025006 ) ) ;
#1060 = ORIENTED_EDGE ( 'NONE', *, *, #1044, .T. ) ;
#1061 = CARTESIAN_POINT ( 'NONE',  ( 5.000000000000000000, -11.72913876600099670, -7.362284691913674628 ) ) ;
#1062 = ORIENTED_EDGE ( 'NONE', *, *, #294, .T. ) ;
#1063 = DIRECTION ( 'NONE',  ( -1.000000000000000000, -0.000000000000000000, -0.000000000000000000 ) ) ;
#1064 = EDGE_CURVE ( 'NONE', #856, #89, #857, .T. ) ;
#1065 = ORIENTED_EDGE ( 'NONE', *, *, #107, .T. ) ;
#1066 = EDGE_CURVE ( 'NONE', #748, #183, #248, .T. ) ;
#1067 = CARTESIAN_POINT ( 'NONE',  ( 5.000000000000000000, 11.39218157755864524, -6.553605035059877792 ) ) ;
#1068 = ORIENTED_EDGE ( 'NONE', *, *, #685, .T. ) ;
#1069 = CARTESIAN_POINT ( 'NONE',  ( 5.000000000000000000, -6.729138766001003802, -1.362284691913676404 ) ) ;
#1070 = ORIENTED_EDGE ( 'NONE', *, *, #269, .F. ) ;
#1071 = CARTESIAN_POINT ( 'NONE',  ( 0.000000000000000000, -6.729138766001003802, -1.362284691913676404 ) ) ;
#1072 = ORIENTED_EDGE ( 'NONE', *, *, #866, .F. ) ;
#1073 = AXIS2_PLACEMENT_3D ( 'NONE', #972, #781, #540 ) ;
#1074 = DIRECTION ( 'NONE',  ( 0.000000000000000000, 0.000000000000000000, -1.000000000000000000 ) ) ;
#1075 = AXIS2_PLACEMENT_3D ( 'NONE', #789, #445, #1043 ) ;
#1076 = AXIS2_PLACEMENT_3D ( 'NONE', #420, #1119, #514 ) ;
#1077 = DIRECTION ( 'NONE',  ( -1.000000000000000000, -0.000000000000000000, -0.000000000000000000 ) ) ;
#1078 = ORIENTED_EDGE ( 'NONE', *, *, #470, .F. ) ;
#1079 = CARTESIAN_POINT ( 'NONE',  ( 5.000000000000000000, 2.770861233998996642, -0.3622846915002503332 ) ) ;
#1080 = CARTESIAN_POINT ( 'NONE',  ( 5.000000000000000000, 3.770861234138885631, -4.362284691500249778 ) ) ;
#1081 = EDGE_CURVE ( 'NONE', #1015, #125, #619, .T. ) ;
#1082 = ORIENTED_EDGE ( 'NONE', *, *, #131, .F. ) ;
#1083 = CYLINDRICAL_SURFACE ( 'NONE', #620, 3.000000000000010658 ) ;
#1084 = EDGE_CURVE ( 'NONE', #446, #454, #858, .T. ) ;
#1085 = EDGE_CURVE ( 'NONE', #275, #692, #76, .T. ) ;
#1086 = DIRECTION ( 'NONE',  ( 0.000000000000000000, 0.000000000000000000, -1.000000000000000000 ) ) ;
#1087 = ORIENTED_EDGE ( 'NONE', *, *, #800, .F. ) ;
#1088 = DIRECTION ( 'NONE',  ( -1.000000000000000000, -0.000000000000000000, -0.000000000000000000 ) ) ;
#1089 = CARTESIAN_POINT ( 'NONE',  ( 3.750000000000000000, 8.770861233998996198, -8.432284691500251839 ) ) ;
#1090 = AXIS2_PLACEMENT_3D ( 'NONE', #289, #730, #1074 ) ;
#1091 = AXIS2_PLACEMENT_3D ( 'NONE', #993, #40, #199 ) ;
#1092 = ORIENTED_EDGE ( 'NONE', *, *, #52, .F. ) ;
#1093 = DIRECTION ( 'NONE',  ( -0.000000000000000000, -0.000000000000000000, -1.000000000000000000 ) ) ;
#1094 = PLANE ( 'NONE',  #879 ) ;
#1095 = CARTESIAN_POINT ( 'NONE',  ( 0.000000000000000000, 10.14954089043935603, -5.310964347940601016 ) ) ;
#1096 = CARTESIAN_POINT ( 'NONE',  ( 5.000000000000000000, -8.729138766001003802, -10.93228469150025006 ) ) ;
#1097 = EDGE_LOOP ( 'NONE', ( #287, #1133, #537, #1087 ) ) ;
#1098 = DIRECTION ( 'NONE',  ( 0.000000000000000000, 1.734723475976807094E-15, -1.000000000000000000 ) ) ;
#1099 = CYLINDRICAL_SURFACE ( 'NONE', #104, 0.9999999999999974465 ) ;
#1100 = CARTESIAN_POINT ( 'NONE',  ( 2.500000000000000000, 8.770861233998996198, -13.43228469150025006 ) ) ;
#1101 = ORIENTED_EDGE ( 'NONE', *, *, #425, .F. ) ;
#1102 = CARTESIAN_POINT ( 'NONE',  ( 5.000000000000000000, -8.729138766001002026, -4.362284691913677293 ) ) ;
#1103 = CARTESIAN_POINT ( 'NONE',  ( 0.000000000000000000, 2.770861233998996642, -0.3622846915002503332 ) ) ;
#1104 = CARTESIAN_POINT ( 'NONE',  ( 1.250000000000000222, -5.229138766001003802, -8.432284691500251839 ) ) ;
#1105 = VECTOR ( 'NONE', #937, 1000.000000000000000 ) ;
#1106 = VECTOR ( 'NONE', #1116, 1000.000000000000000 ) ;
#1107 = ORIENTED_EDGE ( 'NONE', *, *, #1084, .F. ) ;
#1108 = AXIS2_PLACEMENT_3D ( 'NONE', #126, #739, #297 ) ;
#1109 = CARTESIAN_POINT ( 'NONE',  ( 2.500000000000000000, 8.770861233998996198, -8.432284691500251839 ) ) ;
#1110 = ADVANCED_FACE ( 'NONE', ( #348, #259, #429, #786, #255, #682, #44 ), #1094, .F. ) ;
#1111 = ADVANCED_FACE ( 'NONE', ( #838 ), #494, .F. ) ;
#1112 = SURFACE_STYLE_FILL_AREA ( #61 ) ;
#1113 = EDGE_LOOP ( 'NONE', ( #889, #290, #702, #821 ) ) ;
#1114 = CARTESIAN_POINT ( 'NONE',  ( 5.000000000000000000, 2.770861233998996642, 1.637715308499751110 ) ) ;
#1115 = ORIENTED_EDGE ( 'NONE', *, *, #745, .T. ) ;
#1116 = DIRECTION ( 'NONE',  ( -1.000000000000000000, -0.000000000000000000, -0.000000000000000000 ) ) ;
#1117 = FACE_OUTER_BOUND ( 'NONE', #841, .T. ) ;
#1118 = ORIENTED_EDGE ( 'NONE', *, *, #1034, .F. ) ;
#1119 = DIRECTION ( 'NONE',  ( -1.000000000000000000, -0.000000000000000000, -0.000000000000000000 ) ) ;
#1120 = ORIENTED_EDGE ( 'NONE', *, *, #247, .T. ) ;
#1121 = DIRECTION ( 'NONE',  ( -1.000000000000000000, -0.000000000000000000, -0.000000000000000000 ) ) ;
#1122 = DIRECTION ( 'NONE',  ( -1.000000000000000000, 0.000000000000000000, 0.000000000000000000 ) ) ;
#1123 = VERTEX_POINT ( 'NONE', #518 ) ;
#1124 = CIRCLE ( 'NONE', #568, 0.9999999999999974465 ) ;
#1125 = AXIS2_PLACEMENT_3D ( 'NONE', #115, #899, #26 ) ;
#1126 = DIRECTION ( 'NONE',  ( -1.000000000000000000, -0.000000000000000000, -0.000000000000000000 ) ) ;
#1127 = ORIENTED_EDGE ( 'NONE', *, *, #847, .T. ) ;
#1128 = CARTESIAN_POINT ( 'NONE',  ( 1.250000000000000444, 8.770861233998996198, -13.43228469150025006 ) ) ;
#1129 = EDGE_CURVE ( 'NONE', #748, #784, #559, .T. ) ;
#1130 = FACE_BOUND ( 'NONE', #461, .T. ) ;
#1131 = ORIENTED_EDGE ( 'NONE', *, *, #930, .F. ) ;
#1132 = CARTESIAN_POINT ( 'NONE',  ( 0.000000000000000000, -8.729138766001002026, -4.362284691913678181 ) ) ;
#1133 = ORIENTED_EDGE ( 'NONE', *, *, #930, .T. ) ;
ENDSEC;
END-ISO-10303-21;
