ISO-10303-21;
HEADER;
FILE_DESCRIPTION (( 'STEP AP214' ),
    '1' );
FILE_NAME ('spinner.STEP',
    '2026-03-24T22:40:56',
    ( '' ),
    ( '' ),
    'SwSTEP 2.0',
    'SolidWorks 2026',
    '' );
FILE_SCHEMA (( 'AUTOMOTIVE_DESIGN' ));
ENDSEC;

DATA;
#1 = AXIS2_PLACEMENT_3D ( 'NONE', #179, #49, #264 ) ;
#2 = ORIENTED_EDGE ( 'NONE', *, *, #210, .F. ) ;
#3 = APPLICATION_PROTOCOL_DEFINITION ( 'draft international standard', 'automotive_design', 1998, #271 ) ;
#4 = VERTEX_POINT ( 'NONE', #5 ) ;
#5 = CARTESIAN_POINT ( 'NONE',  ( 4.799999999999999822, 6.062001655779398511E-16, -4.950000000000000178 ) ) ;
#6 = ADVANCED_FACE ( 'NONE', ( #133 ), #90, .T. ) ;
#7 = PRESENTATION_LAYER_ASSIGNMENT (  '', '', ( #235 ) ) ;
#8 = CARTESIAN_POINT ( 'NONE',  ( 4.799999999999999822, 0.000000000000000000, 0.000000000000000000 ) ) ;
#9 = ADVANCED_FACE ( 'NONE', ( #67, #203 ), #30, .F. ) ;
#10 = VECTOR ( 'NONE', #280, 1000.000000000000000 ) ;
#11 = ORIENTED_EDGE ( 'NONE', *, *, #84, .F. ) ;
#12 = DIRECTION ( 'NONE',  ( 1.000000000000000000, 0.000000000000000000, 0.000000000000000000 ) ) ;
#13 = CYLINDRICAL_SURFACE ( 'NONE', #139, 4.950000000000000178 ) ;
#14 = AXIS2_PLACEMENT_3D ( 'NONE', #140, #190, #208 ) ;
#15 = DIRECTION ( 'NONE',  ( 1.000000000000000000, 0.000000000000000000, 0.000000000000000000 ) ) ;
#16 = CARTESIAN_POINT ( 'NONE',  ( 70.79999999999999716, 0.000000000000000000, 0.000000000000000000 ) ) ;
#17 = EDGE_CURVE ( 'NONE', #265, #91, #28, .T. ) ;
#18 = CARTESIAN_POINT ( 'NONE',  ( 70.79999999999999716, 0.000000000000000000, 0.000000000000000000 ) ) ;
#19 = EDGE_CURVE ( 'NONE', #198, #225, #143, .T. ) ;
#20 = VECTOR ( 'NONE', #283, 1000.000000000000000 ) ;
#21 = CARTESIAN_POINT ( 'NONE',  ( 70.79999999999999716, 0.000000000000000000, 0.000000000000000000 ) ) ;
#22 = CARTESIAN_POINT ( 'NONE',  ( 70.79999999999999716, 0.000000000000000000, 2.950000000000000622 ) ) ;
#23 = PLANE ( 'NONE',  #44 ) ;
#24 = COLOUR_RGB ( '',0.7921568627450980005, 0.8196078431372548767, 0.9333333333333333481 ) ;
#25 =( LENGTH_UNIT ( ) NAMED_UNIT ( * ) SI_UNIT ( .MILLI., .METRE. ) );
#26 = CARTESIAN_POINT ( 'NONE',  ( 4.799999999999999822, 3.612708057484692590E-16, -2.950000000000000622 ) ) ;
#27 = ORIENTED_EDGE ( 'NONE', *, *, #136, .T. ) ;
#28 = CIRCLE ( 'NONE', #249, 2.950000000000000622 ) ;
#29 = EDGE_LOOP ( 'NONE', ( #224, #112, #51, #130 ) ) ;
#30 = PLANE ( 'NONE',  #218 ) ;
#31 = VERTEX_POINT ( 'NONE', #146 ) ;
#32 = ORIENTED_EDGE ( 'NONE', *, *, #157, .T. ) ;
#33 = CARTESIAN_POINT ( 'NONE',  ( 70.79999999999999716, 6.062001655779398511E-16, -4.950000000000000178 ) ) ;
#34 = FACE_OUTER_BOUND ( 'NONE', #113, .T. ) ;
#35 = DIRECTION ( 'NONE',  ( -1.000000000000000000, -0.000000000000000000, -0.000000000000000000 ) ) ;
#36 = CARTESIAN_POINT ( 'NONE',  ( 85.60000000000000853, 3.612708057484692590E-16, -2.950000000000000622 ) ) ;
#37 = EDGE_CURVE ( 'NONE', #225, #87, #162, .T. ) ;
#38 = CYLINDRICAL_SURFACE ( 'NONE', #231, 2.950000000000000622 ) ;
#39 = CARTESIAN_POINT ( 'NONE',  ( 70.79999999999999716, 0.000000000000000000, 0.000000000000000000 ) ) ;
#40 = AXIS2_PLACEMENT_3D ( 'NONE', #18, #168, #253 ) ;
#41 = DIRECTION ( 'NONE',  ( 0.000000000000000000, 0.000000000000000000, 1.000000000000000000 ) ) ;
#42 = LINE ( 'NONE', #193, #20 ) ;
#43 = CYLINDRICAL_SURFACE ( 'NONE', #258, 2.950000000000000622 ) ;
#44 = AXIS2_PLACEMENT_3D ( 'NONE', #39, #102, #216 ) ;
#45 = ORIENTED_EDGE ( 'NONE', *, *, #17, .F. ) ;
#46 = CIRCLE ( 'NONE', #207, 2.950000000000000622 ) ;
#47 = EDGE_LOOP ( 'NONE', ( #155, #181 ) ) ;
#48 = CARTESIAN_POINT ( 'NONE',  ( 0.000000000000000000, 0.000000000000000000, 0.000000000000000000 ) ) ;
#49 = DIRECTION ( 'NONE',  ( -1.000000000000000000, -0.000000000000000000, -0.000000000000000000 ) ) ;
#50 = PRODUCT_DEFINITION_SHAPE ( 'NONE', 'NONE',  #64 ) ;
#51 = ORIENTED_EDGE ( 'NONE', *, *, #169, .T. ) ;
#52 = DIRECTION ( 'NONE',  ( 0.000000000000000000, 0.000000000000000000, -1.000000000000000000 ) ) ;
#53 = LINE ( 'NONE', #164, #144 ) ;
#54 = DIRECTION ( 'NONE',  ( -1.000000000000000000, -0.000000000000000000, -0.000000000000000000 ) ) ;
#55 = EDGE_CURVE ( 'NONE', #111, #115, #156, .T. ) ;
#56 = CARTESIAN_POINT ( 'NONE',  ( 4.799999999999999822, 0.000000000000000000, 0.000000000000000000 ) ) ;
#57 = ADVANCED_FACE ( 'NONE', ( #232 ), #206, .T. ) ;
#58 = CARTESIAN_POINT ( 'NONE',  ( 4.799999999999999822, 0.000000000000000000, 0.000000000000000000 ) ) ;
#59 = CARTESIAN_POINT ( 'NONE',  ( 0.000000000000000000, 0.000000000000000000, 0.000000000000000000 ) ) ;
#60 = VECTOR ( 'NONE', #205, 1000.000000000000000 ) ;
#61 = DIRECTION ( 'NONE',  ( 0.000000000000000000, 0.000000000000000000, -1.000000000000000000 ) ) ;
#62 = ORIENTED_EDGE ( 'NONE', *, *, #65, .F. ) ;
#63 = SURFACE_STYLE_USAGE ( .BOTH. , #110 ) ;
#64 = PRODUCT_DEFINITION ( 'UNKNOWN', '', #70, #141 ) ;
#65 = EDGE_CURVE ( 'NONE', #198, #31, #267, .T. ) ;
#66 = ORIENTED_EDGE ( 'NONE', *, *, #167, .F. ) ;
#67 = FACE_BOUND ( 'NONE', #285, .T. ) ;
#68 = EDGE_LOOP ( 'NONE', ( #11, #161, #182, #202 ) ) ;
#69 = ORIENTED_EDGE ( 'NONE', *, *, #105, .F. ) ;
#70 = PRODUCT_DEFINITION_FORMATION_WITH_SPECIFIED_SOURCE ( 'ANY', '', #201, .NOT_KNOWN. ) ;
#71 = ORIENTED_EDGE ( 'NONE', *, *, #147, .F. ) ;
#72 = EDGE_LOOP ( 'NONE', ( #242, #71 ) ) ;
#73 = CARTESIAN_POINT ( 'NONE',  ( 4.799999999999999822, 0.000000000000000000, 0.000000000000000000 ) ) ;
#74 = DIRECTION ( 'NONE',  ( 1.000000000000000000, 0.000000000000000000, 0.000000000000000000 ) ) ;
#75 = DIRECTION ( 'NONE',  ( 1.000000000000000000, 0.000000000000000000, 0.000000000000000000 ) ) ;
#76 = CARTESIAN_POINT ( 'NONE',  ( 85.60000000000000853, 0.000000000000000000, 0.000000000000000000 ) ) ;
#77 = VECTOR ( 'NONE', #252, 1000.000000000000000 ) ;
#78 = CARTESIAN_POINT ( 'NONE',  ( 4.799999999999999822, 3.612708057484692590E-16, -2.950000000000000622 ) ) ;
#79 = CARTESIAN_POINT ( 'NONE',  ( 0.000000000000000000, 0.000000000000000000, 0.000000000000000000 ) ) ;
#80 = ORIENTED_EDGE ( 'NONE', *, *, #277, .T. ) ;
#81 = CIRCLE ( 'NONE', #243, 4.950000000000000178 ) ;
#82 = CARTESIAN_POINT ( 'NONE',  ( 85.60000000000000853, 0.000000000000000000, 0.000000000000000000 ) ) ;
#83 = CIRCLE ( 'NONE', #108, 2.950000000000000622 ) ;
#84 = EDGE_CURVE ( 'NONE', #115, #111, #196, .T. ) ;
#85 = FACE_OUTER_BOUND ( 'NONE', #150, .T. ) ;
#86 = FACE_OUTER_BOUND ( 'NONE', #174, .T. ) ;
#87 = VERTEX_POINT ( 'NONE', #192 ) ;
#88 = AXIS2_PLACEMENT_3D ( 'NONE', #276, #233, #211 ) ;
#89 = VECTOR ( 'NONE', #238, 1000.000000000000000 ) ;
#90 = CYLINDRICAL_SURFACE ( 'NONE', #1, 2.950000000000000622 ) ;
#91 = VERTEX_POINT ( 'NONE', #254 ) ;
#92 = DIRECTION ( 'NONE',  ( 1.000000000000000000, 0.000000000000000000, 0.000000000000000000 ) ) ;
#93 = EDGE_LOOP ( 'NONE', ( #2, #272, #80, #32 ) ) ;
#94 = ORIENTED_EDGE ( 'NONE', *, *, #19, .T. ) ;
#95 = CARTESIAN_POINT ( 'NONE',  ( 70.79999999999999716, 0.000000000000000000, 0.000000000000000000 ) ) ;
#96 = DIRECTION ( 'NONE',  ( -1.000000000000000000, -0.000000000000000000, -0.000000000000000000 ) ) ;
#97 =( GEOMETRIC_REPRESENTATION_CONTEXT ( 3 ) GLOBAL_UNCERTAINTY_ASSIGNED_CONTEXT ( ( #240 ) ) GLOBAL_UNIT_ASSIGNED_CONTEXT ( ( #259, #153, #114 ) ) REPRESENTATION_CONTEXT ( 'NONE', 'WORKASPACE' ) );
#98 = DIRECTION ( 'NONE',  ( 0.000000000000000000, 0.000000000000000000, -1.000000000000000000 ) ) ;
#99 = DIRECTION ( 'NONE',  ( 0.000000000000000000, 0.000000000000000000, -1.000000000000000000 ) ) ;
#100 = DIRECTION ( 'NONE',  ( 1.000000000000000000, 0.000000000000000000, 0.000000000000000000 ) ) ;
#101 = CIRCLE ( 'NONE', #183, 2.950000000000000622 ) ;
#102 = DIRECTION ( 'NONE',  ( 1.000000000000000000, 0.000000000000000000, 0.000000000000000000 ) ) ;
#103 = DIRECTION ( 'NONE',  ( 1.000000000000000000, 0.000000000000000000, 0.000000000000000000 ) ) ;
#104 = DIRECTION ( 'NONE',  ( 1.000000000000000000, 0.000000000000000000, 0.000000000000000000 ) ) ;
#105 = EDGE_CURVE ( 'NONE', #31, #87, #165, .T. ) ;
#106 = AXIS2_PLACEMENT_3D ( 'NONE', #73, #163, #251 ) ;
#107 =( NAMED_UNIT ( * ) SI_UNIT ( $, .STERADIAN. ) SOLID_ANGLE_UNIT ( ) );
#108 = AXIS2_PLACEMENT_3D ( 'NONE', #79, #151, #171 ) ;
#109 = ADVANCED_FACE ( 'NONE', ( #34 ), #38, .T. ) ;
#110 = SURFACE_SIDE_STYLE ('',( #197 ) ) ;
#111 = VERTEX_POINT ( 'NONE', #230 ) ;
#112 = ORIENTED_EDGE ( 'NONE', *, *, #136, .F. ) ;
#113 = EDGE_LOOP ( 'NONE', ( #66, #266, #160, #269 ) ) ;
#114 =( NAMED_UNIT ( * ) SI_UNIT ( $, .STERADIAN. ) SOLID_ANGLE_UNIT ( ) );
#115 = VERTEX_POINT ( 'NONE', #33 ) ;
#116 = ADVANCED_FACE ( 'NONE', ( #275 ), #13, .T. ) ;
#117 = MECHANICAL_DESIGN_GEOMETRIC_PRESENTATION_REPRESENTATION (  '', ( #235 ), #191 ) ;
#118 = ORIENTED_EDGE ( 'NONE', *, *, #84, .T. ) ;
#119 = EDGE_CURVE ( 'NONE', #4, #222, #239, .T. ) ;
#120 = CARTESIAN_POINT ( 'NONE',  ( 70.79999999999999716, 0.000000000000000000, 0.000000000000000000 ) ) ;
#121 = DIRECTION ( 'NONE',  ( 0.000000000000000000, 0.000000000000000000, 1.000000000000000000 ) ) ;
#122 = DIRECTION ( 'NONE',  ( 1.000000000000000000, 0.000000000000000000, 0.000000000000000000 ) ) ;
#123 = CARTESIAN_POINT ( 'NONE',  ( 85.60000000000000853, 0.000000000000000000, 0.000000000000000000 ) ) ;
#124 = DIRECTION ( 'NONE',  ( 0.000000000000000000, 0.000000000000000000, -1.000000000000000000 ) ) ;
#125 = DIRECTION ( 'NONE',  ( -1.000000000000000000, -0.000000000000000000, -0.000000000000000000 ) ) ;
#126 = FACE_OUTER_BOUND ( 'NONE', #248, .T. ) ;
#127 = CIRCLE ( 'NONE', #199, 2.950000000000000622 ) ;
#128 = FACE_OUTER_BOUND ( 'NONE', #245, .T. ) ;
#129 = APPLICATION_PROTOCOL_DEFINITION ( 'draft international standard', 'automotive_design', 1998, #234 ) ;
#130 = ORIENTED_EDGE ( 'NONE', *, *, #246, .T. ) ;
#131 = VERTEX_POINT ( 'NONE', #78 ) ;
#132 = UNCERTAINTY_MEASURE_WITH_UNIT (LENGTH_MEASURE( 1.000000000000000082E-05 ), #25, 'distance_accuracy_value', 'NONE');
#133 = FACE_OUTER_BOUND ( 'NONE', #29, .T. ) ;
#134 = SHAPE_DEFINITION_REPRESENTATION ( #50, #215 ) ;
#135 = CARTESIAN_POINT ( 'NONE',  ( 0.000000000000000000, 0.000000000000000000, 0.000000000000000000 ) ) ;
#136 = EDGE_CURVE ( 'NONE', #154, #131, #127, .T. ) ;
#137 = EDGE_CURVE ( 'NONE', #31, #198, #46, .T. ) ;
#138 = ORIENTED_EDGE ( 'NONE', *, *, #37, .T. ) ;
#139 = AXIS2_PLACEMENT_3D ( 'NONE', #120, #35, #188 ) ;
#140 = CARTESIAN_POINT ( 'NONE',  ( 70.79999999999999716, 0.000000000000000000, 0.000000000000000000 ) ) ;
#141 = PRODUCT_DEFINITION_CONTEXT ( 'detailed design', #271, 'design' ) ;
#142 = FACE_OUTER_BOUND ( 'NONE', #93, .T. ) ;
#143 = LINE ( 'NONE', #187, #60 ) ;
#144 = VECTOR ( 'NONE', #54, 1000.000000000000000 ) ;
#145 = CARTESIAN_POINT ( 'NONE',  ( 4.799999999999999822, 0.000000000000000000, 0.000000000000000000 ) ) ;
#146 = CARTESIAN_POINT ( 'NONE',  ( 85.60000000000000853, 3.612708057484692590E-16, -2.950000000000000622 ) ) ;
#147 = EDGE_CURVE ( 'NONE', #87, #225, #101, .T. ) ;
#148 = CARTESIAN_POINT ( 'NONE',  ( 4.799999999999999822, 0.000000000000000000, 4.950000000000000178 ) ) ;
#149 = PLANE ( 'NONE',  #263 ) ;
#150 = EDGE_LOOP ( 'NONE', ( #184, #118 ) ) ;
#151 = DIRECTION ( 'NONE',  ( 1.000000000000000000, 0.000000000000000000, 0.000000000000000000 ) ) ;
#152 = ORIENTED_EDGE ( 'NONE', *, *, #19, .F. ) ;
#153 =( NAMED_UNIT ( * ) PLANE_ANGLE_UNIT ( ) SI_UNIT ( $, .RADIAN. ) );
#154 = VERTEX_POINT ( 'NONE', #186 ) ;
#155 = ORIENTED_EDGE ( 'NONE', *, *, #157, .F. ) ;
#156 = CIRCLE ( 'NONE', #14, 4.950000000000000178 ) ;
#157 = EDGE_CURVE ( 'NONE', #222, #4, #81, .T. ) ;
#158 = DIRECTION ( 'NONE',  ( 0.000000000000000000, 0.000000000000000000, 1.000000000000000000 ) ) ;
#159 = ORIENTED_EDGE ( 'NONE', *, *, #246, .F. ) ;
#160 = ORIENTED_EDGE ( 'NONE', *, *, #17, .T. ) ;
#161 = ORIENTED_EDGE ( 'NONE', *, *, #210, .T. ) ;
#162 = CIRCLE ( 'NONE', #166, 2.950000000000000622 ) ;
#163 = DIRECTION ( 'NONE',  ( 1.000000000000000000, 0.000000000000000000, 0.000000000000000000 ) ) ;
#164 = CARTESIAN_POINT ( 'NONE',  ( 4.799999999999999822, 0.000000000000000000, 2.950000000000000622 ) ) ;
#165 = LINE ( 'NONE', #36, #77 ) ;
#166 = AXIS2_PLACEMENT_3D ( 'NONE', #16, #122, #99 ) ;
#167 = EDGE_CURVE ( 'NONE', #131, #154, #281, .T. ) ;
#168 = DIRECTION ( 'NONE',  ( 1.000000000000000000, 0.000000000000000000, 0.000000000000000000 ) ) ;
#169 = EDGE_CURVE ( 'NONE', #154, #91, #53, .T. ) ;
#170 = DIRECTION ( 'NONE',  ( 1.000000000000000000, 0.000000000000000000, 0.000000000000000000 ) ) ;
#171 = DIRECTION ( 'NONE',  ( 0.000000000000000000, 0.000000000000000000, -1.000000000000000000 ) ) ;
#172 = FACE_BOUND ( 'NONE', #72, .T. ) ;
#173 = AXIS2_PLACEMENT_3D ( 'NONE', #145, #75, #98 ) ;
#174 = EDGE_LOOP ( 'NONE', ( #159, #45 ) ) ;
#175 = AXIS2_PLACEMENT_3D ( 'NONE', #48, #158, #180 ) ;
#176 = DIRECTION ( 'NONE',  ( 0.000000000000000000, 0.000000000000000000, -1.000000000000000000 ) ) ;
#177 = DIRECTION ( 'NONE',  ( -1.000000000000000000, -0.000000000000000000, -0.000000000000000000 ) ) ;
#178 = MANIFOLD_SOLID_BREP ( 'Boss-Extrude3', #227 ) ;
#179 = CARTESIAN_POINT ( 'NONE',  ( 4.799999999999999822, 0.000000000000000000, 0.000000000000000000 ) ) ;
#180 = DIRECTION ( 'NONE',  ( 1.000000000000000000, 0.000000000000000000, 0.000000000000000000 ) ) ;
#181 = ORIENTED_EDGE ( 'NONE', *, *, #119, .F. ) ;
#182 = ORIENTED_EDGE ( 'NONE', *, *, #119, .T. ) ;
#183 = AXIS2_PLACEMENT_3D ( 'NONE', #95, #170, #52 ) ;
#184 = ORIENTED_EDGE ( 'NONE', *, *, #55, .T. ) ;
#185 = ORIENTED_EDGE ( 'NONE', *, *, #167, .T. ) ;
#186 = CARTESIAN_POINT ( 'NONE',  ( 4.799999999999999822, 0.000000000000000000, 2.950000000000000622 ) ) ;
#187 = CARTESIAN_POINT ( 'NONE',  ( 85.60000000000000853, 0.000000000000000000, 2.950000000000000622 ) ) ;
#188 = DIRECTION ( 'NONE',  ( 0.000000000000000000, 0.000000000000000000, 1.000000000000000000 ) ) ;
#189 = ADVANCED_FACE ( 'NONE', ( #142 ), #256, .T. ) ;
#190 = DIRECTION ( 'NONE',  ( 1.000000000000000000, 0.000000000000000000, 0.000000000000000000 ) ) ;
#191 =( GEOMETRIC_REPRESENTATION_CONTEXT ( 3 ) GLOBAL_UNCERTAINTY_ASSIGNED_CONTEXT ( ( #132 ) ) GLOBAL_UNIT_ASSIGNED_CONTEXT ( ( #25, #213, #107 ) ) REPRESENTATION_CONTEXT ( 'NONE', 'WORKASPACE' ) );
#192 = CARTESIAN_POINT ( 'NONE',  ( 70.79999999999999716, 3.612708057484692590E-16, -2.950000000000000622 ) ) ;
#193 = CARTESIAN_POINT ( 'NONE',  ( 70.79999999999999716, 6.062001655779398511E-16, -4.950000000000000178 ) ) ;
#194 = CARTESIAN_POINT ( 'NONE',  ( 70.79999999999999716, 0.000000000000000000, 4.950000000000000178 ) ) ;
#195 = CARTESIAN_POINT ( 'NONE',  ( 0.000000000000000000, 3.612708057484692590E-16, -2.950000000000000622 ) ) ;
#196 = CIRCLE ( 'NONE', #40, 4.950000000000000178 ) ;
#197 = SURFACE_STYLE_FILL_AREA ( #217 ) ;
#198 = VERTEX_POINT ( 'NONE', #214 ) ;
#199 = AXIS2_PLACEMENT_3D ( 'NONE', #58, #12, #124 ) ;
#200 = ORIENTED_EDGE ( 'NONE', *, *, #105, .T. ) ;
#201 = PRODUCT ( 'spinner', 'spinner', '', ( #262 ) ) ;
#202 = ORIENTED_EDGE ( 'NONE', *, *, #277, .F. ) ;
#203 = FACE_OUTER_BOUND ( 'NONE', #47, .T. ) ;
#204 = ORIENTED_EDGE ( 'NONE', *, *, #137, .T. ) ;
#205 = DIRECTION ( 'NONE',  ( -1.000000000000000000, -0.000000000000000000, -0.000000000000000000 ) ) ;
#206 = CYLINDRICAL_SURFACE ( 'NONE', #88, 2.950000000000000622 ) ;
#207 = AXIS2_PLACEMENT_3D ( 'NONE', #123, #209, #228 ) ;
#208 = DIRECTION ( 'NONE',  ( 0.000000000000000000, 0.000000000000000000, -1.000000000000000000 ) ) ;
#209 = DIRECTION ( 'NONE',  ( 1.000000000000000000, 0.000000000000000000, 0.000000000000000000 ) ) ;
#210 = EDGE_CURVE ( 'NONE', #115, #4, #42, .T. ) ;
#211 = DIRECTION ( 'NONE',  ( 0.000000000000000000, 0.000000000000000000, 1.000000000000000000 ) ) ;
#212 = AXIS2_PLACEMENT_3D ( 'NONE', #21, #177, #279 ) ;
#213 =( NAMED_UNIT ( * ) PLANE_ANGLE_UNIT ( ) SI_UNIT ( $, .RADIAN. ) );
#214 = CARTESIAN_POINT ( 'NONE',  ( 85.60000000000000853, 0.000000000000000000, 2.950000000000000622 ) ) ;
#215 = ADVANCED_BREP_SHAPE_REPRESENTATION ( 'spinner', ( #178, #175 ), #97 ) ;
#216 = DIRECTION ( 'NONE',  ( 0.000000000000000000, 0.000000000000000000, -1.000000000000000000 ) ) ;
#217 = FILL_AREA_STYLE ('',( #284 ) ) ;
#218 = AXIS2_PLACEMENT_3D ( 'NONE', #8, #92, #244 ) ;
#219 = ADVANCED_FACE ( 'NONE', ( #172, #85 ), #23, .T. ) ;
#220 = LINE ( 'NONE', #194, #10 ) ;
#221 = ORIENTED_EDGE ( 'NONE', *, *, #137, .F. ) ;
#222 = VERTEX_POINT ( 'NONE', #148 ) ;
#223 = AXIS2_PLACEMENT_3D ( 'NONE', #76, #15, #229 ) ;
#224 = ORIENTED_EDGE ( 'NONE', *, *, #237, .F. ) ;
#225 = VERTEX_POINT ( 'NONE', #22 ) ;
#226 = ORIENTED_EDGE ( 'NONE', *, *, #65, .T. ) ;
#227 = CLOSED_SHELL ( 'NONE', ( #57, #116, #109, #6, #247, #189, #219, #9, #260, #270 ) ) ;
#228 = DIRECTION ( 'NONE',  ( 0.000000000000000000, 0.000000000000000000, -1.000000000000000000 ) ) ;
#229 = DIRECTION ( 'NONE',  ( 0.000000000000000000, 0.000000000000000000, -1.000000000000000000 ) ) ;
#230 = CARTESIAN_POINT ( 'NONE',  ( 70.79999999999999716, 0.000000000000000000, 4.950000000000000178 ) ) ;
#231 = AXIS2_PLACEMENT_3D ( 'NONE', #56, #96, #121 ) ;
#232 = FACE_OUTER_BOUND ( 'NONE', #241, .T. ) ;
#233 = DIRECTION ( 'NONE',  ( -1.000000000000000000, -0.000000000000000000, -0.000000000000000000 ) ) ;
#234 = APPLICATION_CONTEXT ( 'automotive_design' ) ;
#235 = STYLED_ITEM ( 'NONE', ( #282 ), #178 ) ;
#236 = CARTESIAN_POINT ( 'NONE',  ( 85.60000000000000853, 0.000000000000000000, 0.000000000000000000 ) ) ;
#237 = EDGE_CURVE ( 'NONE', #131, #265, #261, .T. ) ;
#238 = DIRECTION ( 'NONE',  ( -1.000000000000000000, -0.000000000000000000, -0.000000000000000000 ) ) ;
#239 = CIRCLE ( 'NONE', #173, 4.950000000000000178 ) ;
#240 = UNCERTAINTY_MEASURE_WITH_UNIT (LENGTH_MEASURE( 1.000000000000000082E-05 ), #259, 'distance_accuracy_value', 'NONE');
#241 = EDGE_LOOP ( 'NONE', ( #221, #200, #257, #152 ) ) ;
#242 = ORIENTED_EDGE ( 'NONE', *, *, #37, .F. ) ;
#243 = AXIS2_PLACEMENT_3D ( 'NONE', #274, #74, #273 ) ;
#244 = DIRECTION ( 'NONE',  ( 0.000000000000000000, 0.000000000000000000, -1.000000000000000000 ) ) ;
#245 = EDGE_LOOP ( 'NONE', ( #226, #204 ) ) ;
#246 = EDGE_CURVE ( 'NONE', #91, #265, #83, .T. ) ;
#247 = ADVANCED_FACE ( 'NONE', ( #86 ), #255, .F. ) ;
#248 = EDGE_LOOP ( 'NONE', ( #69, #62, #94, #138 ) ) ;
#249 = AXIS2_PLACEMENT_3D ( 'NONE', #135, #100, #278 ) ;
#250 = AXIS2_PLACEMENT_3D ( 'NONE', #59, #104, #61 ) ;
#251 = DIRECTION ( 'NONE',  ( 0.000000000000000000, 0.000000000000000000, -1.000000000000000000 ) ) ;
#252 = DIRECTION ( 'NONE',  ( -1.000000000000000000, -0.000000000000000000, -0.000000000000000000 ) ) ;
#253 = DIRECTION ( 'NONE',  ( 0.000000000000000000, 0.000000000000000000, -1.000000000000000000 ) ) ;
#254 = CARTESIAN_POINT ( 'NONE',  ( 0.000000000000000000, 0.000000000000000000, 2.950000000000000622 ) ) ;
#255 = PLANE ( 'NONE',  #250 ) ;
#256 = CYLINDRICAL_SURFACE ( 'NONE', #212, 4.950000000000000178 ) ;
#257 = ORIENTED_EDGE ( 'NONE', *, *, #147, .T. ) ;
#258 = AXIS2_PLACEMENT_3D ( 'NONE', #236, #125, #41 ) ;
#259 =( LENGTH_UNIT ( ) NAMED_UNIT ( * ) SI_UNIT ( .MILLI., .METRE. ) );
#260 = ADVANCED_FACE ( 'NONE', ( #126 ), #43, .T. ) ;
#261 = LINE ( 'NONE', #26, #89 ) ;
#262 = PRODUCT_CONTEXT ( 'NONE', #234, 'mechanical' ) ;
#263 = AXIS2_PLACEMENT_3D ( 'NONE', #82, #103, #176 ) ;
#264 = DIRECTION ( 'NONE',  ( 0.000000000000000000, 0.000000000000000000, 1.000000000000000000 ) ) ;
#265 = VERTEX_POINT ( 'NONE', #195 ) ;
#266 = ORIENTED_EDGE ( 'NONE', *, *, #237, .T. ) ;
#267 = CIRCLE ( 'NONE', #223, 2.950000000000000622 ) ;
#268 = PRODUCT_RELATED_PRODUCT_CATEGORY ( 'part', '', ( #201 ) ) ;
#269 = ORIENTED_EDGE ( 'NONE', *, *, #169, .F. ) ;
#270 = ADVANCED_FACE ( 'NONE', ( #128 ), #149, .T. ) ;
#271 = APPLICATION_CONTEXT ( 'automotive_design' ) ;
#272 = ORIENTED_EDGE ( 'NONE', *, *, #55, .F. ) ;
#273 = DIRECTION ( 'NONE',  ( 0.000000000000000000, 0.000000000000000000, -1.000000000000000000 ) ) ;
#274 = CARTESIAN_POINT ( 'NONE',  ( 4.799999999999999822, 0.000000000000000000, 0.000000000000000000 ) ) ;
#275 = FACE_OUTER_BOUND ( 'NONE', #68, .T. ) ;
#276 = CARTESIAN_POINT ( 'NONE',  ( 85.60000000000000853, 0.000000000000000000, 0.000000000000000000 ) ) ;
#277 = EDGE_CURVE ( 'NONE', #111, #222, #220, .T. ) ;
#278 = DIRECTION ( 'NONE',  ( 0.000000000000000000, 0.000000000000000000, -1.000000000000000000 ) ) ;
#279 = DIRECTION ( 'NONE',  ( 0.000000000000000000, 0.000000000000000000, 1.000000000000000000 ) ) ;
#280 = DIRECTION ( 'NONE',  ( -1.000000000000000000, -0.000000000000000000, -0.000000000000000000 ) ) ;
#281 = CIRCLE ( 'NONE', #106, 2.950000000000000622 ) ;
#282 = PRESENTATION_STYLE_ASSIGNMENT (( #63 ) ) ;
#283 = DIRECTION ( 'NONE',  ( -1.000000000000000000, -0.000000000000000000, -0.000000000000000000 ) ) ;
#284 = FILL_AREA_STYLE_COLOUR ( '', #24 ) ;
#285 = EDGE_LOOP ( 'NONE', ( #27, #185 ) ) ;
ENDSEC;
END-ISO-10303-21;
