ISO-10303-21;
HEADER;
FILE_DESCRIPTION (( 'STEP AP214' ),
    '1' );
FILE_NAME ('top motor holder (2 times).STEP',
    '2026-03-24T22:38:05',
    ( '' ),
    ( '' ),
    'SwSTEP 2.0',
    'SolidWorks 2026',
    '' );
FILE_SCHEMA (( 'AUTOMOTIVE_DESIGN' ));
ENDSEC;

DATA;
#1 = EDGE_CURVE ( 'NONE', #785, #1044, #990, .T. ) ;
#2 = AXIS2_PLACEMENT_3D ( 'NONE', #581, #771, #763 ) ;
#3 = ORIENTED_EDGE ( 'NONE', *, *, #559, .T. ) ;
#4 = CARTESIAN_POINT ( 'NONE',  ( 78.00000000000000000, 43.39999999999999858, -13.00000000000000000 ) ) ;
#5 = CARTESIAN_POINT ( 'NONE',  ( 62.57895013501040182, 43.39999999999999858, 34.29467888754707872 ) ) ;
#6 = CARTESIAN_POINT ( 'NONE',  ( 78.00000000000000000, 38.87451660040608203, -11.39999999999999325 ) ) ;
#7 = ORIENTED_EDGE ( 'NONE', *, *, #19, .F. ) ;
#8 = EDGE_CURVE ( 'NONE', #147, #830, #626, .T. ) ;
#9 = ORIENTED_EDGE ( 'NONE', *, *, #101, .F. ) ;
#10 = DIRECTION ( 'NONE',  ( -0.000000000000000000, 1.000000000000000000, 0.000000000000000000 ) ) ;
#11 = CARTESIAN_POINT ( 'NONE',  ( 79.50000000000000000, 31.37918471982867885, -0.7499999999999945599 ) ) ;
#12 = DIRECTION ( 'NONE',  ( 0.000000000000000000, 0.000000000000000000, 1.000000000000000000 ) ) ;
#13 = EDGE_LOOP ( 'NONE', ( #1069, #270, #378, #935 ) ) ;
#14 = CARTESIAN_POINT ( 'NONE',  ( 57.62920266670384706, 15.54475805715730630, 23.68807716974958311 ) ) ;
#15 = EDGE_LOOP ( 'NONE', ( #883, #134, #445, #580 ) ) ;
#16 = DIRECTION ( 'NONE',  ( 0.000000000000000000, 0.000000000000000000, 1.000000000000000000 ) ) ;
#17 = CIRCLE ( 'NONE', #668, 1.599999999999997202 ) ;
#18 = CARTESIAN_POINT ( 'NONE',  ( 69.50000000000000000, 48.39999999999999858, 28.20000000000000284 ) ) ;
#19 = EDGE_CURVE ( 'NONE', #1295, #1051, #271, .T. ) ;
#20 = CARTESIAN_POINT ( 'NONE',  ( 78.00000000000000000, 43.39999999999999858, -11.39999999999999325 ) ) ;
#21 = ORIENTED_EDGE ( 'NONE', *, *, #291, .F. ) ;
#22 = CARTESIAN_POINT ( 'NONE',  ( 55.76380764758381048, 48.39999999999999858, -2.147044810145515736 ) ) ;
#23 =( NAMED_UNIT ( * ) PLANE_ANGLE_UNIT ( ) SI_UNIT ( $, .RADIAN. ) );
#24 = AXIS2_PLACEMENT_3D ( 'NONE', #1119, #684, #911 ) ;
#25 = ORIENTED_EDGE ( 'NONE', *, *, #415, .T. ) ;
#26 = VECTOR ( 'NONE', #952, 1000.000000000000000 ) ;
#27 = DIRECTION ( 'NONE',  ( -2.775557561562890957E-15, 0.000000000000000000, -1.000000000000000000 ) ) ;
#28 = AXIS2_PLACEMENT_3D ( 'NONE', #1090, #540, #334 ) ;
#29 = CARTESIAN_POINT ( 'NONE',  ( 46.18951439602320619, 48.39999999999999858, -46.41959456802228345 ) ) ;
#30 = ORIENTED_EDGE ( 'NONE', *, *, #1265, .F. ) ;
#31 = EDGE_CURVE ( 'NONE', #803, #611, #145, .T. ) ;
#32 = LINE ( 'NONE', #778, #293 ) ;
#33 = DIRECTION ( 'NONE',  ( 0.7071067811865482389, 0.000000000000000000, 0.7071067811865469066 ) ) ;
#34 = CIRCLE ( 'NONE', #742, 1.599999999999997202 ) ;
#35 = EDGE_LOOP ( 'NONE', ( #48, #1190, #1156, #294 ) ) ;
#36 = CARTESIAN_POINT ( 'NONE',  ( 55.76380764758381048, 43.39999999999999858, -2.147044810145515736 ) ) ;
#37 = CARTESIAN_POINT ( 'NONE',  ( 61.64803358821276902, 48.39999999999999858, -9.042674090477506255 ) ) ;
#38 = ORIENTED_EDGE ( 'NONE', *, *, #194, .F. ) ;
#39 = PLANE ( 'NONE',  #1358 ) ;
#40 = DIRECTION ( 'NONE',  ( 0.000000000000000000, 0.000000000000000000, 1.000000000000000000 ) ) ;
#41 = EDGE_CURVE ( 'NONE', #1258, #1333, #498, .T. ) ;
#42 = ORIENTED_EDGE ( 'NONE', *, *, #234, .T. ) ;
#43 = CARTESIAN_POINT ( 'NONE',  ( 74.04595061669053280, 48.39999999999999858, 31.61954374549624092 ) ) ;
#44 = DIRECTION ( 'NONE',  ( -0.000000000000000000, -1.000000000000000000, -0.000000000000000000 ) ) ;
#45 = VERTEX_POINT ( 'NONE', #487 ) ;
#46 = CARTESIAN_POINT ( 'NONE',  ( 62.67442126558891857, 48.39999999999999858, -13.15929021731400361 ) ) ;
#47 = EDGE_CURVE ( 'NONE', #899, #433, #1102, .T. ) ;
#48 = ORIENTED_EDGE ( 'NONE', *, *, #906, .F. ) ;
#49 = AXIS2_PLACEMENT_3D ( 'NONE', #607, #1152, #280 ) ;
#50 = FACE_OUTER_BOUND ( 'NONE', #866, .T. ) ;
#51 = EDGE_LOOP ( 'NONE', ( #1204, #1072, #9, #428 ) ) ;
#52 = CARTESIAN_POINT ( 'NONE',  ( 78.00000000000000000, 48.39999999999999858, -13.00000000000000000 ) ) ;
#53 = CARTESIAN_POINT ( 'NONE',  ( 33.58757210636080259, 43.39999999999999858, 50.37234841721105028 ) ) ;
#54 = EDGE_CURVE ( 'NONE', #1057, #325, #1206, .T. ) ;
#55 = VERTEX_POINT ( 'NONE', #772 ) ;
#56 = CARTESIAN_POINT ( 'NONE',  ( 69.50000000000000000, 38.87451660040608203, 28.20000000000000284 ) ) ;
#57 = CARTESIAN_POINT ( 'NONE',  ( 62.57895013501040182, 43.39999999999999858, 27.22361107568160676 ) ) ;
#58 = FACE_OUTER_BOUND ( 'NONE', #798, .T. ) ;
#59 = MANIFOLD_SOLID_BREP ( 'Extrude20', #200 ) ;
#60 = EDGE_CURVE ( 'NONE', #1185, #537, #566, .T. ) ;
#61 = DIRECTION ( 'NONE',  ( -0.8571673007021110013, -0.000000000000000000, 0.5150380749100562650 ) ) ;
#62 = ADVANCED_FACE ( 'NONE', ( #660 ), #889, .F. ) ;
#63 = CARTESIAN_POINT ( 'NONE',  ( 46.18951439602320619, 48.39999999999999858, -46.41959456802228345 ) ) ;
#64 = AXIS2_PLACEMENT_3D ( 'NONE', #1393, #431, #1071 ) ;
#65 = CARTESIAN_POINT ( 'NONE',  ( 69.01672159629576697, 48.39999999999999858, -13.13676211729657517 ) ) ;
#66 = VECTOR ( 'NONE', #1125, 1000.000000000000000 ) ;
#67 = FACE_OUTER_BOUND ( 'NONE', #839, .T. ) ;
#68 = DIRECTION ( 'NONE',  ( 0.000000000000000000, 0.000000000000000000, 1.000000000000000000 ) ) ;
#69 = DIRECTION ( 'NONE',  ( -0.000000000000000000, 1.000000000000000000, -0.000000000000000000 ) ) ;
#70 = AXIS2_PLACEMENT_3D ( 'NONE', #338, #556, #565 ) ;
#71 = EDGE_CURVE ( 'NONE', #1213, #167, #1332, .T. ) ;
#72 = VECTOR ( 'NONE', #1100, 1000.000000000000000 ) ;
#73 = ORIENTED_EDGE ( 'NONE', *, *, #172, .T. ) ;
#74 = ORIENTED_EDGE ( 'NONE', *, *, #610, .T. ) ;
#75 = CARTESIAN_POINT ( 'NONE',  ( 67.30607546733548929, 48.39999999999999858, -11.27573523923572907 ) ) ;
#76 = DIRECTION ( 'NONE',  ( -0.000000000000000000, -1.000000000000000000, -0.000000000000000000 ) ) ;
#77 = DIRECTION ( 'NONE',  ( -0.8571673007021113344, 0.000000000000000000, 0.5150380749100558209 ) ) ;
#78 = VERTEX_POINT ( 'NONE', #674 ) ;
#79 = EDGE_LOOP ( 'NONE', ( #1085, #596, #131, #572, #1001, #1277, #1023, #488, #824, #645, #1346, #1142, #1300, #912, #412, #697, #1281, #284, #413, #163, #1113, #1366 ) ) ;
#80 = ORIENTED_EDGE ( 'NONE', *, *, #518, .F. ) ;
#81 = PLANE ( 'NONE',  #942 ) ;
#82 = CARTESIAN_POINT ( 'NONE',  ( 66.11448404094313958, 48.39999999999999858, 30.75914498161433741 ) ) ;
#83 = CIRCLE ( 'NONE', #872, 1.599999999999997202 ) ;
#84 = ORIENTED_EDGE ( 'NONE', *, *, #47, .F. ) ;
#85 = ORIENTED_EDGE ( 'NONE', *, *, #559, .F. ) ;
#86 = LINE ( 'NONE', #646, #210 ) ;
#87 = FACE_OUTER_BOUND ( 'NONE', #618, .T. ) ;
#88 = CARTESIAN_POINT ( 'NONE',  ( 79.50000000000000000, 43.39999999999999858, -9.250000000000005329 ) ) ;
#89 = CIRCLE ( 'NONE', #49, 5.000000000000000888 ) ;
#90 = ORIENTED_EDGE ( 'NONE', *, *, #913, .T. ) ;
#91 = ORIENTED_EDGE ( 'NONE', *, *, #1178, .T. ) ;
#92 = EDGE_CURVE ( 'NONE', #1095, #356, #248, .T. ) ;
#93 = ORIENTED_EDGE ( 'NONE', *, *, #269, .F. ) ;
#94 = CARTESIAN_POINT ( 'NONE',  ( 50.55813485483837155, 48.39999999999999858, 23.68807716974957955 ) ) ;
#95 = DIRECTION ( 'NONE',  ( 0.000000000000000000, 1.000000000000000000, 0.000000000000000000 ) ) ;
#96 = CYLINDRICAL_SURFACE ( 'NONE', #958, 5.000000000000000888 ) ;
#97 = CIRCLE ( 'NONE', #464, 4.250000000000005329 ) ;
#98 = VECTOR ( 'NONE', #761, 1000.000000000000000 ) ;
#99 = ORIENTED_EDGE ( 'NONE', *, *, #1011, .T. ) ;
#100 = DIRECTION ( 'NONE',  ( 0.000000000000000000, 1.000000000000000000, 0.000000000000000000 ) ) ;
#101 = EDGE_CURVE ( 'NONE', #1343, #790, #361, .T. ) ;
#102 = DIRECTION ( 'NONE',  ( -0.000000000000000000, 1.000000000000000000, 0.000000000000000000 ) ) ;
#103 = CARTESIAN_POINT ( 'NONE',  ( 49.92017209138204237, 48.39999999999999858, 7.197332653602017238 ) ) ;
#104 = DIRECTION ( 'NONE',  ( -0.000000000000000000, -1.000000000000000000, -0.000000000000000000 ) ) ;
#105 = ORIENTED_EDGE ( 'NONE', *, *, #505, .T. ) ;
#106 = ORIENTED_EDGE ( 'NONE', *, *, #8, .F. ) ;
#107 = CYLINDRICAL_SURFACE ( 'NONE', #392, 1.599999999999997202 ) ;
#108 = DIRECTION ( 'NONE',  ( 0.000000000000000000, 0.000000000000000000, -1.000000000000000000 ) ) ;
#109 = CARTESIAN_POINT ( 'NONE',  ( 29.34493141924195214, 43.39999999999999858, 51.97234841721148513 ) ) ;
#110 = VERTEX_POINT ( 'NONE', #53 ) ;
#111 =( GEOMETRIC_REPRESENTATION_CONTEXT ( 3 ) GLOBAL_UNCERTAINTY_ASSIGNED_CONTEXT ( ( #1220 ) ) GLOBAL_UNIT_ASSIGNED_CONTEXT ( ( #1010, #23, #764 ) ) REPRESENTATION_CONTEXT ( 'NONE', 'WORKASPACE' ) );
#112 = EDGE_CURVE ( 'NONE', #766, #1099, #309, .T. ) ;
#113 = VECTOR ( 'NONE', #61, 1000.000000000000114 ) ;
#114 = AXIS2_PLACEMENT_3D ( 'NONE', #1240, #396, #503 ) ;
#115 = VERTEX_POINT ( 'NONE', #801 ) ;
#116 = LINE ( 'NONE', #220, #526 ) ;
#117 = CARTESIAN_POINT ( 'NONE',  ( 79.50000000000000000, 31.37918471982867885, -5.000000000000000000 ) ) ;
#118 = DIRECTION ( 'NONE',  ( 0.000000000000000000, 0.000000000000000000, -1.000000000000000000 ) ) ;
#119 = ORIENTED_EDGE ( 'NONE', *, *, #1160, .T. ) ;
#120 = CARTESIAN_POINT ( 'NONE',  ( 45.16312671864704242, 48.39999999999999858, -42.30297844118578610 ) ) ;
#121 = EDGE_CURVE ( 'NONE', #1123, #1044, #1141, .T. ) ;
#122 = ORIENTED_EDGE ( 'NONE', *, *, #936, .F. ) ;
#123 = LINE ( 'NONE', #767, #1165 ) ;
#124 = LINE ( 'NONE', #229, #274 ) ;
#125 = CARTESIAN_POINT ( 'NONE',  ( 71.59191197084605562, 48.39999999999999858, -13.85092561378601772 ) ) ;
#126 = ORIENTED_EDGE ( 'NONE', *, *, #703, .F. ) ;
#127 = DIRECTION ( 'NONE',  ( -0.000000000000000000, -1.000000000000000000, -0.000000000000000000 ) ) ;
#128 = DIRECTION ( 'NONE',  ( 0.000000000000000000, 0.000000000000000000, 1.000000000000000000 ) ) ;
#129 = CIRCLE ( 'NONE', #1350, 5.000000000000000000 ) ;
#130 = ADVANCED_FACE ( 'NONE', ( #176 ), #594, .F. ) ;
#131 = ORIENTED_EDGE ( 'NONE', *, *, #1208, .T. ) ;
#132 = CARTESIAN_POINT ( 'NONE',  ( 66.11448404094313958, 43.39999999999999858, 30.75914498161433741 ) ) ;
#133 = FACE_BOUND ( 'NONE', #980, .T. ) ;
#134 = ORIENTED_EDGE ( 'NONE', *, *, #1371, .T. ) ;
#135 = FACE_OUTER_BOUND ( 'NONE', #289, .T. ) ;
#136 = AXIS2_PLACEMENT_3D ( 'NONE', #1345, #1199, #233 ) ;
#137 = VECTOR ( 'NONE', #1233, 1000.000000000000000 ) ;
#138 = ORIENTED_EDGE ( 'NONE', *, *, #943, .T. ) ;
#139 = CYLINDRICAL_SURFACE ( 'NONE', #1302, 13.00000000000000178 ) ;
#140 = ADVANCED_FACE ( 'NONE', ( #58 ), #823, .F. ) ;
#141 = AXIS2_PLACEMENT_3D ( 'NONE', #120, #127, #667 ) ;
#142 = CARTESIAN_POINT ( 'NONE',  ( 64.73088509278520064, 48.39999999999999858, -15.56157174274629185 ) ) ;
#143 = ORIENTED_EDGE ( 'NONE', *, *, #1132, .T. ) ;
#144 = CYLINDRICAL_SURFACE ( 'NONE', #969, 1.599999999999997202 ) ;
#145 = LINE ( 'NONE', #1101, #1056 ) ;
#146 = VECTOR ( 'NONE', #628, 1000.000000000000000 ) ;
#147 = VERTEX_POINT ( 'NONE', #603 ) ;
#148 = CARTESIAN_POINT ( 'NONE',  ( 69.01672159629576697, 48.39999999999999858, -18.13676211729657695 ) ) ;
#149 = UNCERTAINTY_MEASURE_WITH_UNIT (LENGTH_MEASURE( 1.000000000000000082E-05 ), #416, 'distance_accuracy_value', 'NONE');
#150 = VECTOR ( 'NONE', #877, 1000.000000000000000 ) ;
#151 = DIRECTION ( 'NONE',  ( 0.7071067811865474617, 0.000000000000000000, 0.7071067811865474617 ) ) ;
#152 = ORIENTED_EDGE ( 'NONE', *, *, #54, .T. ) ;
#153 = CARTESIAN_POINT ( 'NONE',  ( 60.72653840579042850, 48.39999999999999858, -1.537698093119816978 ) ) ;
#154 = CARTESIAN_POINT ( 'NONE',  ( 33.58757210636080259, 48.39999999999999858, 51.97234841721104459 ) ) ;
#155 = EDGE_CURVE ( 'NONE', #714, #1012, #212, .T. ) ;
#156 = EDGE_LOOP ( 'NONE', ( #122, #1151, #471, #301 ) ) ;
#157 = AXIS2_PLACEMENT_3D ( 'NONE', #350, #341, #236 ) ;
#158 = DIRECTION ( 'NONE',  ( -0.000000000000000000, 1.000000000000000000, -0.000000000000000000 ) ) ;
#159 = ORIENTED_EDGE ( 'NONE', *, *, #240, .T. ) ;
#160 = CARTESIAN_POINT ( 'NONE',  ( 29.34493141924195214, 48.39999999999999858, 51.97234841721148513 ) ) ;
#161 = ORIENTED_EDGE ( 'NONE', *, *, #1, .F. ) ;
#162 = ADVANCED_FACE ( 'NONE', ( #287 ), #390, .T. ) ;
#163 = ORIENTED_EDGE ( 'NONE', *, *, #595, .T. ) ;
#164 = CARTESIAN_POINT ( 'NONE',  ( 61.43821868747342307, 43.39999999999999858, -7.333868853105033558 ) ) ;
#165 = CARTESIAN_POINT ( 'NONE',  ( 51.97234841721103038, 48.39999999999999858, 31.98757210636079407 ) ) ;
#166 = DIRECTION ( 'NONE',  ( -0.000000000000000000, -1.000000000000000000, -0.000000000000000000 ) ) ;
#167 = VERTEX_POINT ( 'NONE', #65 ) ;
#168 = EDGE_CURVE ( 'NONE', #770, #400, #1022, .T. ) ;
#169 = CARTESIAN_POINT ( 'NONE',  ( 51.97234841721103038, 43.39999999999999858, 33.58757210636078838 ) ) ;
#170 = LINE ( 'NONE', #916, #1262 ) ;
#171 = DIRECTION ( 'NONE',  ( -0.000000000000000000, 1.000000000000000000, 0.000000000000000000 ) ) ;
#172 = EDGE_CURVE ( 'NONE', #825, #78, #1068, .T. ) ;
#173 = CYLINDRICAL_SURFACE ( 'NONE', #880, 5.000000000000000888 ) ;
#174 = CARTESIAN_POINT ( 'NONE',  ( 70.51041671075779504, 43.39999999999999858, 35.15507765142898933 ) ) ;
#175 = VECTOR ( 'NONE', #1289, 1000.000000000000000 ) ;
#176 = FACE_OUTER_BOUND ( 'NONE', #475, .T. ) ;
#177 = ORIENTED_EDGE ( 'NONE', *, *, #689, .F. ) ;
#178 = PRESENTATION_LAYER_ASSIGNMENT (  '', '', ( #1148 ) ) ;
#179 = DIRECTION ( 'NONE',  ( -0.7071067811865474617, 0.000000000000000000, -0.7071067811865475727 ) ) ;
#180 = PLANE ( 'NONE',  #114 ) ;
#181 = CIRCLE ( 'NONE', #829, 1.599999999999997202 ) ;
#182 = DIRECTION ( 'NONE',  ( 0.000000000000000000, 1.000000000000000000, 0.000000000000000000 ) ) ;
#183 = EDGE_LOOP ( 'NONE', ( #1104, #1197, #1121, #224 ) ) ;
#184 = ORIENTED_EDGE ( 'NONE', *, *, #1170, .T. ) ;
#185 = EDGE_LOOP ( 'NONE', ( #902, #190 ) ) ;
#186 = FACE_BOUND ( 'NONE', #242, .T. ) ;
#187 = DIRECTION ( 'NONE',  ( 0.000000000000000000, 0.000000000000000000, 1.000000000000000000 ) ) ;
#188 = EDGE_CURVE ( 'NONE', #235, #1073, #1120, .T. ) ;
#189 = ORIENTED_EDGE ( 'NONE', *, *, #121, .F. ) ;
#190 = ORIENTED_EDGE ( 'NONE', *, *, #832, .F. ) ;
#191 = PLANE ( 'NONE',  #715 ) ;
#192 = CARTESIAN_POINT ( 'NONE',  ( 46.18951439602320619, 43.39999999999999858, -46.41959456802228345 ) ) ;
#193 = VECTOR ( 'NONE', #317, 1000.000000000000000 ) ;
#194 = EDGE_CURVE ( 'NONE', #1258, #542, #712, .T. ) ;
#195 = VERTEX_POINT ( 'NONE', #917 ) ;
#196 = ORIENTED_EDGE ( 'NONE', *, *, #818, .F. ) ;
#197 = DIRECTION ( 'NONE',  ( -0.000000000000000000, -1.000000000000000000, -0.000000000000000000 ) ) ;
#198 =( NAMED_UNIT ( * ) PLANE_ANGLE_UNIT ( ) SI_UNIT ( $, .RADIAN. ) );
#199 = LINE ( 'NONE', #192, #983 ) ;
#200 = CLOSED_SHELL ( 'NONE', ( #130, #440, #324, #1117, #494, #915, #140, #401, #810, #1145, #268, #1227, #809, #1049, #644, #418, #999, #1087, #1252, #838, #365, #1268, #955, #1058, #298, #529, #680, #480, #162, #923, #489, #743, #1062, #62, #725, #1244, #337, #616, #204, #625 ) ) ;
#201 = AXIS2_PLACEMENT_3D ( 'NONE', #1335, #368, #784 ) ;
#202 =( GEOMETRIC_REPRESENTATION_CONTEXT ( 3 ) GLOBAL_UNCERTAINTY_ASSIGNED_CONTEXT ( ( #149 ) ) GLOBAL_UNIT_ASSIGNED_CONTEXT ( ( #416, #198, #1065 ) ) REPRESENTATION_CONTEXT ( 'NONE', 'WORKASPACE' ) );
#203 = CIRCLE ( 'NONE', #813, 1.600000000000004086 ) ;
#204 = ADVANCED_FACE ( 'NONE', ( #1363 ), #921, .F. ) ;
#205 = EDGE_CURVE ( 'NONE', #1251, #856, #1249, .T. ) ;
#206 = ORIENTED_EDGE ( 'NONE', *, *, #1178, .F. ) ;
#207 = DIRECTION ( 'NONE',  ( -0.000000000000000000, -1.000000000000000000, -0.000000000000000000 ) ) ;
#208 = CARTESIAN_POINT ( 'NONE',  ( 58.33899802213409203, 48.39999999999999858, 2.138791693365039936 ) ) ;
#209 = CARTESIAN_POINT ( 'NONE',  ( 78.00000000000000000, 48.39999999999999858, -13.00000000000000000 ) ) ;
#210 = VECTOR ( 'NONE', #635, 1000.000000000000000 ) ;
#211 = ORIENTED_EDGE ( 'NONE', *, *, #703, .T. ) ;
#212 = CIRCLE ( 'NONE', #1364, 1.599999999999997202 ) ;
#213 = ORIENTED_EDGE ( 'NONE', *, *, #306, .T. ) ;
#214 = FACE_OUTER_BOUND ( 'NONE', #156, .T. ) ;
#215 = EDGE_CURVE ( 'NONE', #369, #1172, #283, .T. ) ;
#216 = CYLINDRICAL_SURFACE ( 'NONE', #1389, 4.999999999999997335 ) ;
#217 = LINE ( 'NONE', #109, #1293 ) ;
#218 = EDGE_LOOP ( 'NONE', ( #819, #988 ) ) ;
#219 = EDGE_LOOP ( 'NONE', ( #973, #80, #262, #119 ) ) ;
#220 = CARTESIAN_POINT ( 'NONE',  ( 29.34493141924195214, 48.39999999999999858, 51.97234841721148513 ) ) ;
#221 = LINE ( 'NONE', #647, #1171 ) ;
#222 = EDGE_CURVE ( 'NONE', #785, #992, #1137, .T. ) ;
#223 = FACE_OUTER_BOUND ( 'NONE', #1313, .T. ) ;
#224 = ORIENTED_EDGE ( 'NONE', *, *, #385, .T. ) ;
#225 = CYLINDRICAL_SURFACE ( 'NONE', #141, 1.599999999999997202 ) ;
#226 = AXIS2_PLACEMENT_3D ( 'NONE', #1135, #704, #1139 ) ;
#227 = ORIENTED_EDGE ( 'NONE', *, *, #517, .F. ) ;
#228 = DIRECTION ( 'NONE',  ( 0.000000000000000000, 1.000000000000000000, 0.000000000000000000 ) ) ;
#229 = CARTESIAN_POINT ( 'NONE',  ( 69.01672159629576697, 48.39999999999999858, -13.13676211729657517 ) ) ;
#230 = FACE_OUTER_BOUND ( 'NONE', #79, .T. ) ;
#231 = VERTEX_POINT ( 'NONE', #29 ) ;
#232 = CYLINDRICAL_SURFACE ( 'NONE', #716, 5.000000000000000000 ) ;
#233 = DIRECTION ( 'NONE',  ( 0.000000000000000000, 0.000000000000000000, 1.000000000000000000 ) ) ;
#234 = EDGE_CURVE ( 'NONE', #300, #435, #217, .T. ) ;
#235 = VERTEX_POINT ( 'NONE', #862 ) ;
#236 = DIRECTION ( 'NONE',  ( -0.5150380749100558209, 0.000000000000000000, -0.8571673007021113344 ) ) ;
#237 = DIRECTION ( 'NONE',  ( 0.000000000000000000, 1.000000000000000000, 0.000000000000000000 ) ) ;
#238 = ORIENTED_EDGE ( 'NONE', *, *, #589, .F. ) ;
#239 = DIRECTION ( 'NONE',  ( 0.7071067811865474617, 0.000000000000000000, -0.7071067811865474617 ) ) ;
#240 = EDGE_CURVE ( 'NONE', #1229, #708, #395, .T. ) ;
#241 = CIRCLE ( 'NONE', #493, 1.600000000000005862 ) ;
#242 = EDGE_LOOP ( 'NONE', ( #184, #938 ) ) ;
#243 = CYLINDRICAL_SURFACE ( 'NONE', #1352, 4.250000000000005329 ) ;
#244 = CARTESIAN_POINT ( 'NONE',  ( 54.09366876077110931, 43.39999999999999858, 20.15254326381684535 ) ) ;
#245 = ORIENTED_EDGE ( 'NONE', *, *, #1316, .F. ) ;
#246 = DIRECTION ( 'NONE',  ( 0.000000000000000000, 1.000000000000000000, 0.000000000000000000 ) ) ;
#247 = DIRECTION ( 'NONE',  ( 0.000000000000000000, 0.000000000000000000, -1.000000000000000000 ) ) ;
#248 = CIRCLE ( 'NONE', #734, 1.599999999999997202 ) ;
#249 = AXIS2_PLACEMENT_3D ( 'NONE', #1330, #246, #456 ) ;
#250 = AXIS2_PLACEMENT_3D ( 'NONE', #335, #1196, #747 ) ;
#251 = ORIENTED_EDGE ( 'NONE', *, *, #112, .T. ) ;
#252 = LINE ( 'NONE', #1114, #622 ) ;
#253 = EDGE_CURVE ( 'NONE', #1209, #1213, #1312, .T. ) ;
#254 = DIRECTION ( 'NONE',  ( 0.000000000000000000, 0.000000000000000000, -1.000000000000000000 ) ) ;
#255 = VERTEX_POINT ( 'NONE', #541 ) ;
#256 = DIRECTION ( 'NONE',  ( 2.775557561562890957E-15, 0.000000000000000000, -1.000000000000000000 ) ) ;
#257 = SURFACE_STYLE_USAGE ( .BOTH. , #473 ) ;
#258 = ORIENTED_EDGE ( 'NONE', *, *, #415, .F. ) ;
#259 = DIRECTION ( 'NONE',  ( 0.000000000000000000, 0.000000000000000000, -1.000000000000000000 ) ) ;
#260 = ORIENTED_EDGE ( 'NONE', *, *, #168, .T. ) ;
#261 = FACE_OUTER_BOUND ( 'NONE', #405, .T. ) ;
#262 = ORIENTED_EDGE ( 'NONE', *, *, #278, .T. ) ;
#263 = AXIS2_PLACEMENT_3D ( 'NONE', #148, #775, #655 ) ;
#264 = CARTESIAN_POINT ( 'NONE',  ( 41.04651059181053796, 48.39999999999999858, -43.32936611856194986 ) ) ;
#265 = ORIENTED_EDGE ( 'NONE', *, *, #466, .F. ) ;
#266 = LINE ( 'NONE', #160, #364 ) ;
#267 = DIRECTION ( 'NONE',  ( 0.000000000000000000, 0.000000000000000000, 1.000000000000000000 ) ) ;
#268 = ADVANCED_FACE ( 'NONE', ( #1077, #461, #886, #351, #230, #1321, #1304, #133, #657 ), #1184, .F. ) ;
#269 = EDGE_CURVE ( 'NONE', #1050, #1172, #971, .T. ) ;
#270 = ORIENTED_EDGE ( 'NONE', *, *, #964, .F. ) ;
#271 = CIRCLE ( 'NONE', #24, 5.000000000000000888 ) ;
#272 = AXIS2_PLACEMENT_3D ( 'NONE', #805, #44, #259 ) ;
#273 = VECTOR ( 'NONE', #76, 1000.000000000000000 ) ;
#274 = VECTOR ( 'NONE', #437, 1000.000000000000000 ) ;
#275 = DIRECTION ( 'NONE',  ( -0.000000000000000000, 1.000000000000000000, -0.000000000000000000 ) ) ;
#276 = DIRECTION ( 'NONE',  ( 0.000000000000000000, 0.000000000000000000, 1.000000000000000000 ) ) ;
#277 = CARTESIAN_POINT ( 'NONE',  ( 41.04651059181053796, 48.39999999999999858, -43.32936611856194986 ) ) ;
#278 = EDGE_CURVE ( 'NONE', #312, #1046, #1298, .T. ) ;
#279 = AXIS2_PLACEMENT_3D ( 'NONE', #1181, #1271, #640 ) ;
#280 = DIRECTION ( 'NONE',  ( 0.000000000000000000, 0.000000000000000000, -1.000000000000000000 ) ) ;
#281 = AXIS2_PLACEMENT_3D ( 'NONE', #397, #1032, #77 ) ;
#282 = CARTESIAN_POINT ( 'NONE',  ( 62.67442126558891857, 48.39999999999999858, -11.55929021731400752 ) ) ;
#283 = LINE ( 'NONE', #277, #820 ) ;
#284 = ORIENTED_EDGE ( 'NONE', *, *, #781, .T. ) ;
#285 = FACE_BOUND ( 'NONE', #307, .T. ) ;
#286 = CYLINDRICAL_SURFACE ( 'NONE', #849, 1.599999999999997202 ) ;
#287 = FACE_OUTER_BOUND ( 'NONE', #51, .T. ) ;
#288 = ORIENTED_EDGE ( 'NONE', *, *, #1170, .F. ) ;
#289 = EDGE_LOOP ( 'NONE', ( #1045, #1164, #3, #672 ) ) ;
#290 = CARTESIAN_POINT ( 'NONE',  ( 41.04651059181053796, 43.39999999999999858, -43.32936611856194986 ) ) ;
#291 = EDGE_CURVE ( 'NONE', #992, #1143, #1250, .T. ) ;
#292 = CARTESIAN_POINT ( 'NONE',  ( 62.67442126558891857, 48.39999999999999858, -14.75929021731400148 ) ) ;
#293 = VECTOR ( 'NONE', #871, 1000.000000000000000 ) ;
#294 = ORIENTED_EDGE ( 'NONE', *, *, #653, .F. ) ;
#295 = VERTEX_POINT ( 'NONE', #454 ) ;
#296 = LINE ( 'NONE', #290, #363 ) ;
#297 = DIRECTION ( 'NONE',  ( 0.000000000000000000, -1.000000000000000000, -0.000000000000000000 ) ) ;
#298 = ADVANCED_FACE ( 'NONE', ( #223 ), #321, .F. ) ;
#299 = ORIENTED_EDGE ( 'NONE', *, *, #1076, .F. ) ;
#300 = VERTEX_POINT ( 'NONE', #548 ) ;
#301 = ORIENTED_EDGE ( 'NONE', *, *, #278, .F. ) ;
#302 = DIRECTION ( 'NONE',  ( -0.000000000000000000, 1.000000000000000000, 0.000000000000000000 ) ) ;
#303 = DIRECTION ( 'NONE',  ( 0.000000000000000000, 0.000000000000000000, -1.000000000000000000 ) ) ;
#304 = PLANE ( 'NONE',  #28 ) ;
#305 = CIRCLE ( 'NONE', #64, 4.250000000000005329 ) ;
#306 = EDGE_CURVE ( 'NONE', #1099, #766, #811, .T. ) ;
#307 = EDGE_LOOP ( 'NONE', ( #105, #159 ) ) ;
#308 = LINE ( 'NONE', #1173, #802 ) ;
#309 = CIRCLE ( 'NONE', #136, 1.599999999999997202 ) ;
#310 = CARTESIAN_POINT ( 'NONE',  ( 79.50000000000000000, 31.37918471982867885, -9.250000000000005329 ) ) ;
#311 = CARTESIAN_POINT ( 'NONE',  ( 62.57895013501040182, 48.39999999999999858, 34.29467888754707872 ) ) ;
#312 = VERTEX_POINT ( 'NONE', #20 ) ;
#313 = CIRCLE ( 'NONE', #1036, 5.000000000000000888 ) ;
#314 = CIRCLE ( 'NONE', #1286, 5.000000000000000888 ) ;
#315 = EDGE_CURVE ( 'NONE', #830, #147, #853, .T. ) ;
#316 = EDGE_LOOP ( 'NONE', ( #619, #1079, #707, #590 ) ) ;
#317 = DIRECTION ( 'NONE',  ( -0.000000000000000000, -1.000000000000000000, -0.000000000000000000 ) ) ;
#318 = LINE ( 'NONE', #1174, #1017 ) ;
#319 = FACE_OUTER_BOUND ( 'NONE', #555, .T. ) ;
#320 = VECTOR ( 'NONE', #533, 1000.000000000000000 ) ;
#321 = CYLINDRICAL_SURFACE ( 'NONE', #1285, 1.599999999999997202 ) ;
#322 = VERTEX_POINT ( 'NONE', #444 ) ;
#323 = AXIS2_PLACEMENT_3D ( 'NONE', #609, #166, #384 ) ;
#324 = ADVANCED_FACE ( 'NONE', ( #1091 ), #554, .F. ) ;
#325 = VERTEX_POINT ( 'NONE', #244 ) ;
#326 = DIRECTION ( 'NONE',  ( 0.000000000000000000, 0.000000000000000000, -1.000000000000000000 ) ) ;
#327 = DIRECTION ( 'NONE',  ( -0.000000000000000000, 1.000000000000000000, 0.000000000000000000 ) ) ;
#328 = DIRECTION ( 'NONE',  ( 0.000000000000000000, -1.000000000000000000, -0.000000000000000000 ) ) ;
#329 = EDGE_LOOP ( 'NONE', ( #227, #425 ) ) ;
#330 = CARTESIAN_POINT ( 'NONE',  ( 29.34493141924195214, 48.39999999999999858, 51.97234841721148513 ) ) ;
#331 = CIRCLE ( 'NONE', #515, 13.00000000000000178 ) ;
#332 = ORIENTED_EDGE ( 'NONE', *, *, #1311, .F. ) ;
#333 = CYLINDRICAL_SURFACE ( 'NONE', #1134, 5.000000000000000888 ) ;
#334 = DIRECTION ( 'NONE',  ( -0.7071067811865482389, 0.000000000000000000, -0.7071067811865469066 ) ) ;
#335 = CARTESIAN_POINT ( 'NONE',  ( 79.50000000000000000, 43.39999999999999858, -5.000000000000000000 ) ) ;
#336 = EDGE_LOOP ( 'NONE', ( #1155, #352 ) ) ;
#337 = ADVANCED_FACE ( 'NONE', ( #1098 ), #991, .T. ) ;
#338 = CARTESIAN_POINT ( 'NONE',  ( 69.00000000000000000, 43.39999999999999858, 12.00000000000000000 ) ) ;
#339 = AXIS2_PLACEMENT_3D ( 'NONE', #52, #1129, #276 ) ;
#340 = EDGE_LOOP ( 'NONE', ( #1116, #299, #1378, #907 ) ) ;
#341 = DIRECTION ( 'NONE',  ( 0.8571673007021113344, 0.000000000000000000, -0.5150380749100558209 ) ) ;
#342 = CARTESIAN_POINT ( 'NONE',  ( 51.97234841721103038, 48.39999999999999858, 35.18757210636078980 ) ) ;
#343 = CARTESIAN_POINT ( 'NONE',  ( 51.97234841721103038, 48.39999999999999858, 33.58757210636078838 ) ) ;
#344 = ORIENTED_EDGE ( 'NONE', *, *, #610, .F. ) ;
#345 = DIRECTION ( 'NONE',  ( -0.000000000000000000, -1.000000000000000000, -0.000000000000000000 ) ) ;
#346 = VECTOR ( 'NONE', #1064, 1000.000000000000114 ) ;
#347 = DIRECTION ( 'NONE',  ( 0.000000000000000000, 0.000000000000000000, -1.000000000000000000 ) ) ;
#348 = EDGE_CURVE ( 'NONE', #235, #1051, #962, .T. ) ;
#349 = ORIENTED_EDGE ( 'NONE', *, *, #1024, .F. ) ;
#350 = CARTESIAN_POINT ( 'NONE',  ( 41.04651059181053796, 48.39999999999999858, -43.32936611856194986 ) ) ;
#351 = FACE_BOUND ( 'NONE', #840, .T. ) ;
#352 = ORIENTED_EDGE ( 'NONE', *, *, #92, .T. ) ;
#353 = CARTESIAN_POINT ( 'NONE',  ( 79.49592939232516642, 43.39999999999999858, -17.76697142838393972 ) ) ;
#354 = CARTESIAN_POINT ( 'NONE',  ( 56.47548792926680505, 48.39999999999999858, -7.943215570130732317 ) ) ;
#355 = EDGE_CURVE ( 'NONE', #300, #325, #313, .T. ) ;
#356 = VERTEX_POINT ( 'NONE', #792 ) ;
#357 = DIRECTION ( 'NONE',  ( 0.000000000000000000, 1.000000000000000000, 0.000000000000000000 ) ) ;
#358 = CARTESIAN_POINT ( 'NONE',  ( 51.97234841721103038, 48.39999999999999858, 33.58757210636078838 ) ) ;
#359 = ORIENTED_EDGE ( 'NONE', *, *, #92, .F. ) ;
#360 = DIRECTION ( 'NONE',  ( -0.7071067811865477948, 0.000000000000000000, 0.7071067811865473507 ) ) ;
#361 = LINE ( 'NONE', #1094, #1033 ) ;
#362 = COLOUR_RGB ( '',0.7921568627450980005, 0.8196078431372548767, 0.9333333333333333481 ) ;
#363 = VECTOR ( 'NONE', #1348, 1000.000000000000000 ) ;
#364 = VECTOR ( 'NONE', #1248, 1000.000000000000000 ) ;
#365 = ADVANCED_FACE ( 'NONE', ( #374 ), #908, .T. ) ;
#366 = EDGE_LOOP ( 'NONE', ( #483, #1360, #782, #666 ) ) ;
#367 = DIRECTION ( 'NONE',  ( -0.000000000000000000, 1.000000000000000000, 0.000000000000000000 ) ) ;
#368 = DIRECTION ( 'NONE',  ( -0.000000000000000000, 1.000000000000000000, 0.000000000000000000 ) ) ;
#369 = VERTEX_POINT ( 'NONE', #264 ) ;
#370 = CARTESIAN_POINT ( 'NONE',  ( 60.76132443277736428, 48.39999999999999858, -10.51840594468100853 ) ) ;
#371 = DIRECTION ( 'NONE',  ( 0.000000000000000000, 1.000000000000000000, 0.000000000000000000 ) ) ;
#372 = EDGE_LOOP ( 'NONE', ( #873, #1322 ) ) ;
#373 = EDGE_CURVE ( 'NONE', #1044, #235, #1059, .T. ) ;
#374 = FACE_OUTER_BOUND ( 'NONE', #399, .T. ) ;
#375 = VERTEX_POINT ( 'NONE', #142 ) ;
#376 = LINE ( 'NONE', #63, #482 ) ;
#377 = CARTESIAN_POINT ( 'NONE',  ( 69.00000000000000000, 6.630447378299527905, 25.00000000000000000 ) ) ;
#378 = ORIENTED_EDGE ( 'NONE', *, *, #943, .F. ) ;
#379 = AXIS2_PLACEMENT_3D ( 'NONE', #1267, #1387, #1048 ) ;
#380 = AXIS2_PLACEMENT_3D ( 'NONE', #1081, #1296, #326 ) ;
#381 = CARTESIAN_POINT ( 'NONE',  ( 58.33899802213409203, 15.54475805715730630, 2.138791693365039048 ) ) ;
#382 = LINE ( 'NONE', #723, #1060 ) ;
#383 = DIRECTION ( 'NONE',  ( 0.000000000000000000, -1.000000000000000000, 0.000000000000000000 ) ) ;
#384 = DIRECTION ( 'NONE',  ( 0.000000000000000000, 0.000000000000000000, -1.000000000000000000 ) ) ;
#385 = EDGE_CURVE ( 'NONE', #369, #1176, #585, .T. ) ;
#386 = AXIS2_PLACEMENT_3D ( 'NONE', #588, #557, #347 ) ;
#387 = VECTOR ( 'NONE', #1361, 999.9999999999998863 ) ;
#388 = CARTESIAN_POINT ( 'NONE',  ( 33.58757210636080259, 48.39999999999999858, 53.57234841721103891 ) ) ;
#389 = DIRECTION ( 'NONE',  ( -0.000000000000000000, -1.000000000000000000, -0.000000000000000000 ) ) ;
#390 = PLANE ( 'NONE',  #281 ) ;
#391 = EDGE_CURVE ( 'NONE', #1229, #1218, #571, .T. ) ;
#392 = AXIS2_PLACEMENT_3D ( 'NONE', #1385, #197, #520 ) ;
#393 = ORIENTED_EDGE ( 'NONE', *, *, #936, .T. ) ;
#394 = DIRECTION ( 'NONE',  ( -0.000000000000000000, -1.000000000000000000, -0.000000000000000000 ) ) ;
#395 = CIRCLE ( 'NONE', #531, 1.600000000000004086 ) ;
#396 = DIRECTION ( 'NONE',  ( 0.7071067811865475727, 0.000000000000000000, -0.7071067811865475727 ) ) ;
#397 = CARTESIAN_POINT ( 'NONE',  ( 60.42934015416136617, 15.54475805715730630, 0.8827874259357323394 ) ) ;
#398 = PRODUCT ( 'top motor holder (2 times)', 'top motor holder (2 times)', '', ( #864 ) ) ;
#399 = EDGE_LOOP ( 'NONE', ( #161, #624, #627, #963 ) ) ;
#400 = VERTEX_POINT ( 'NONE', #1228 ) ;
#401 = ADVANCED_FACE ( 'NONE', ( #797 ), #1342, .F. ) ;
#402 = ORIENTED_EDGE ( 'NONE', *, *, #799, .F. ) ;
#403 = CARTESIAN_POINT ( 'NONE',  ( 59.04341622907766407, 48.39999999999999858, 30.75914498161434807 ) ) ;
#404 = CARTESIAN_POINT ( 'NONE',  ( 62.67442126558891857, 48.39999999999999858, -13.15929021731400361 ) ) ;
#405 = EDGE_LOOP ( 'NONE', ( #211, #623, #612, #85 ) ) ;
#406 = EDGE_CURVE ( 'NONE', #435, #537, #1000, .T. ) ;
#407 = ORIENTED_EDGE ( 'NONE', *, *, #583, .F. ) ;
#408 = FACE_BOUND ( 'NONE', #722, .T. ) ;
#409 = DIRECTION ( 'NONE',  ( 0.000000000000000000, 1.000000000000000000, 0.000000000000000000 ) ) ;
#410 = CIRCLE ( 'NONE', #993, 1.599999999999997202 ) ;
#411 = ADVANCED_BREP_SHAPE_REPRESENTATION ( 'top motor holder (2 times)', ( #59, #1221 ), #202 ) ;
#412 = ORIENTED_EDGE ( 'NONE', *, *, #71, .T. ) ;
#413 = ORIENTED_EDGE ( 'NONE', *, *, #215, .T. ) ;
#414 = LINE ( 'NONE', #1301, #346 ) ;
#415 = EDGE_CURVE ( 'NONE', #195, #45, #1122, .T. ) ;
#416 =( LENGTH_UNIT ( ) NAMED_UNIT ( * ) SI_UNIT ( .MILLI., .METRE. ) );
#417 = DIRECTION ( 'NONE',  ( 0.000000000000000000, 1.000000000000000000, 0.000000000000000000 ) ) ;
#418 = ADVANCED_FACE ( 'NONE', ( #50 ), #484, .F. ) ;
#419 = VERTEX_POINT ( 'NONE', #1128 ) ;
#420 = ORIENTED_EDGE ( 'NONE', *, *, #71, .F. ) ;
#421 = ORIENTED_EDGE ( 'NONE', *, *, #54, .F. ) ;
#422 = CARTESIAN_POINT ( 'NONE',  ( 62.67442126558891857, 43.39999999999999858, -13.15929021731400361 ) ) ;
#423 = DIRECTION ( 'NONE',  ( 0.000000000000000000, 0.000000000000000000, -1.000000000000000000 ) ) ;
#424 = CARTESIAN_POINT ( 'NONE',  ( 62.67442126558891857, 48.39999999999999858, -11.55929021731400752 ) ) ;
#425 = ORIENTED_EDGE ( 'NONE', *, *, #41, .F. ) ;
#426 = SHAPE_DEFINITION_REPRESENTATION ( #1376, #411 ) ;
#427 = AXIS2_PLACEMENT_3D ( 'NONE', #404, #1183, #108 ) ;
#428 = ORIENTED_EDGE ( 'NONE', *, *, #452, .T. ) ;
#429 = DIRECTION ( 'NONE',  ( 0.000000000000000000, 0.000000000000000000, 1.000000000000000000 ) ) ;
#430 = DIRECTION ( 'NONE',  ( 0.000000000000000000, -1.000000000000000000, -0.000000000000000000 ) ) ;
#431 = DIRECTION ( 'NONE',  ( 0.000000000000000000, 1.000000000000000000, 0.000000000000000000 ) ) ;
#432 = DIRECTION ( 'NONE',  ( 0.000000000000000000, 0.000000000000000000, -1.000000000000000000 ) ) ;
#433 = VERTEX_POINT ( 'NONE', #1328 ) ;
#434 = CIRCLE ( 'NONE', #339, 1.600000000000005862 ) ;
#435 = VERTEX_POINT ( 'NONE', #1007 ) ;
#436 = DIRECTION ( 'NONE',  ( 0.000000000000000000, 1.000000000000000000, 0.000000000000000000 ) ) ;
#437 = DIRECTION ( 'NONE',  ( 0.000000000000000000, 1.000000000000000000, 0.000000000000000000 ) ) ;
#438 = CARTESIAN_POINT ( 'NONE',  ( 78.64058469130669948, 48.39999999999999858, 33.59168413613174664 ) ) ;
#439 = ORIENTED_EDGE ( 'NONE', *, *, #205, .F. ) ;
#440 = ADVANCED_FACE ( 'NONE', ( #681 ), #592, .F. ) ;
#441 = ORIENTED_EDGE ( 'NONE', *, *, #544, .F. ) ;
#442 = DIRECTION ( 'NONE',  ( 0.000000000000000000, 0.000000000000000000, 1.000000000000000000 ) ) ;
#443 = LINE ( 'NONE', #656, #857 ) ;
#444 = CARTESIAN_POINT ( 'NONE',  ( 29.34493141924195214, 48.39999999999999858, 51.97234841721148513 ) ) ;
#445 = ORIENTED_EDGE ( 'NONE', *, *, #733, .T. ) ;
#446 = DIRECTION ( 'NONE',  ( 0.000000000000000000, 0.000000000000000000, 1.000000000000000000 ) ) ;
#447 = LINE ( 'NONE', #1205, #72 ) ;
#448 = APPLICATION_CONTEXT ( 'automotive_design' ) ;
#449 = VECTOR ( 'NONE', #989, 1000.000000000000000 ) ;
#450 = VERTEX_POINT ( 'NONE', #1115 ) ;
#451 = LINE ( 'NONE', #552, #1237 ) ;
#452 = EDGE_CURVE ( 'NONE', #1343, #1251, #1347, .T. ) ;
#453 = CARTESIAN_POINT ( 'NONE',  ( 52.49536246593231681, 43.39999999999999858, 11.48316915711257025 ) ) ;
#454 = CARTESIAN_POINT ( 'NONE',  ( 54.09366876077110931, 48.39999999999999858, 27.22361107568232086 ) ) ;
#455 = EDGE_LOOP ( 'NONE', ( #511, #106, #604, #1092 ) ) ;
#456 = DIRECTION ( 'NONE',  ( 0.000000000000000000, 0.000000000000000000, 1.000000000000000000 ) ) ;
#457 = VECTOR ( 'NONE', #95, 1000.000000000000000 ) ;
#458 = CIRCLE ( 'NONE', #1112, 1.600000000000004086 ) ;
#459 = ORIENTED_EDGE ( 'NONE', *, *, #406, .T. ) ;
#460 = DIRECTION ( 'NONE',  ( -0.000000000000000000, -1.000000000000000000, -0.000000000000000000 ) ) ;
#461 = FACE_BOUND ( 'NONE', #185, .T. ) ;
#462 = ORIENTED_EDGE ( 'NONE', *, *, #1381, .F. ) ;
#463 = DIRECTION ( 'NONE',  ( 0.7071067811865475727, -0.000000000000000000, 0.7071067811865475727 ) ) ;
#464 = AXIS2_PLACEMENT_3D ( 'NONE', #1074, #842, #968 ) ;
#465 = SURFACE_STYLE_FILL_AREA ( #787 ) ;
#466 = EDGE_CURVE ( 'NONE', #322, #1185, #414, .T. ) ;
#467 = AXIS2_PLACEMENT_3D ( 'NONE', #1355, #1351, #816 ) ;
#468 = ORIENTED_EDGE ( 'NONE', *, *, #1316, .T. ) ;
#469 = FACE_OUTER_BOUND ( 'NONE', #13, .T. ) ;
#470 = CARTESIAN_POINT ( 'NONE',  ( 69.50000000000000000, 38.87451660040608203, 26.59999999999999787 ) ) ;
#471 = ORIENTED_EDGE ( 'NONE', *, *, #765, .T. ) ;
#472 = DIRECTION ( 'NONE',  ( 0.7071067811865473507, 0.000000000000000000, 0.7071067811865477948 ) ) ;
#473 = SURFACE_SIDE_STYLE ('',( #465 ) ) ;
#474 = EDGE_CURVE ( 'NONE', #295, #322, #116, .T. ) ;
#475 = EDGE_LOOP ( 'NONE', ( #349, #506, #91, #617 ) ) ;
#476 = DIRECTION ( 'NONE',  ( 0.000000000000000000, 1.000000000000000000, 0.000000000000000000 ) ) ;
#477 = DIRECTION ( 'NONE',  ( -0.000000000000000000, 1.000000000000000000, 0.000000000000000000 ) ) ;
#478 = ORIENTED_EDGE ( 'NONE', *, *, #253, .F. ) ;
#479 = DIRECTION ( 'NONE',  ( -0.000000000000000000, 1.000000000000000000, 0.000000000000000000 ) ) ;
#480 = ADVANCED_FACE ( 'NONE', ( #1052 ), #1070, .F. ) ;
#481 = AXIS2_PLACEMENT_3D ( 'NONE', #1367, #1373, #919 ) ;
#482 = VECTOR ( 'NONE', #587, 1000.000000000000000 ) ;
#483 = ORIENTED_EDGE ( 'NONE', *, *, #391, .F. ) ;
#484 = PLANE ( 'NONE',  #738 ) ;
#485 = ORIENTED_EDGE ( 'NONE', *, *, #1029, .F. ) ;
#486 = CARTESIAN_POINT ( 'NONE',  ( 54.09366876077110931, 15.54475805715730630, 20.15254326381684535 ) ) ;
#487 = CARTESIAN_POINT ( 'NONE',  ( 61.43821868747342307, 43.39999999999999858, -7.333868853105033558 ) ) ;
#488 = ORIENTED_EDGE ( 'NONE', *, *, #799, .T. ) ;
#489 = ADVANCED_FACE ( 'NONE', ( #974 ), #333, .F. ) ;
#490 = DIRECTION ( 'NONE',  ( -0.000000000000000000, 1.000000000000000000, -0.000000000000000000 ) ) ;
#491 = DIRECTION ( 'NONE',  ( 0.000000000000000000, -1.000000000000000000, 0.000000000000000000 ) ) ;
#492 = CARTESIAN_POINT ( 'NONE',  ( 33.58757210636080259, 48.39999999999999858, 53.57234841721103891 ) ) ;
#493 = AXIS2_PLACEMENT_3D ( 'NONE', #209, #953, #854 ) ;
#494 = ADVANCED_FACE ( 'NONE', ( #214 ), #736, .F. ) ;
#495 = DIRECTION ( 'NONE',  ( 0.000000000000000000, 0.000000000000000000, 1.000000000000000000 ) ) ;
#496 = DIRECTION ( 'NONE',  ( -0.000000000000000000, 1.000000000000000000, 0.000000000000000000 ) ) ;
#497 = DIRECTION ( 'NONE',  ( -0.000000000000000000, -1.000000000000000000, -0.000000000000000000 ) ) ;
#498 = CIRCLE ( 'NONE', #965, 1.599999999999997202 ) ;
#499 = ORIENTED_EDGE ( 'NONE', *, *, #662, .T. ) ;
#500 = AXIS2_PLACEMENT_3D ( 'NONE', #1189, #328, #648 ) ;
#501 = AXIS2_PLACEMENT_3D ( 'NONE', #453, #875, #1310 ) ;
#502 = PLANE ( 'NONE',  #226 ) ;
#503 = DIRECTION ( 'NONE',  ( -0.7071067811865474617, 0.000000000000000000, -0.7071067811865474617 ) ) ;
#504 = CARTESIAN_POINT ( 'NONE',  ( 45.16312671864704242, 43.39999999999999858, -42.30297844118578610 ) ) ;
#505 = EDGE_CURVE ( 'NONE', #708, #1229, #1317, .T. ) ;
#506 = ORIENTED_EDGE ( 'NONE', *, *, #1154, .T. ) ;
#507 = DIRECTION ( 'NONE',  ( 0.5150380749100563760, -0.000000000000000000, 0.8571673007021111124 ) ) ;
#508 = VECTOR ( 'NONE', #497, 1000.000000000000000 ) ;
#509 = LINE ( 'NONE', #165, #273 ) ;
#510 = EDGE_CURVE ( 'NONE', #1232, #1377, #97, .T. ) ;
#511 = ORIENTED_EDGE ( 'NONE', *, *, #1371, .F. ) ;
#512 = ORIENTED_EDGE ( 'NONE', *, *, #562, .F. ) ;
#513 = CARTESIAN_POINT ( 'NONE',  ( 59.04341622907766407, 43.39999999999999858, 30.75914498161434807 ) ) ;
#514 = DIRECTION ( 'NONE',  ( 1.387778780781445676E-15, 0.000000000000000000, -1.000000000000000000 ) ) ;
#515 = AXIS2_PLACEMENT_3D ( 'NONE', #745, #436, #860 ) ;
#516 = EDGE_LOOP ( 'NONE', ( #402, #344, #1166, #762 ) ) ;
#517 = EDGE_CURVE ( 'NONE', #1333, #1258, #817, .T. ) ;
#518 = EDGE_CURVE ( 'NONE', #312, #419, #1246, .T. ) ;
#519 = ORIENTED_EDGE ( 'NONE', *, *, #385, .F. ) ;
#520 = DIRECTION ( 'NONE',  ( 0.000000000000000000, 0.000000000000000000, -1.000000000000000000 ) ) ;
#521 = DIRECTION ( 'NONE',  ( -0.000000000000000000, -1.000000000000000000, -0.000000000000000000 ) ) ;
#522 = DIRECTION ( 'NONE',  ( 0.000000000000000000, 0.000000000000000000, -1.000000000000000000 ) ) ;
#523 = AXIS2_PLACEMENT_3D ( 'NONE', #1140, #593, #1354 ) ;
#524 = EDGE_LOOP ( 'NONE', ( #1318, #1234 ) ) ;
#525 = ORIENTED_EDGE ( 'NONE', *, *, #791, .T. ) ;
#526 = VECTOR ( 'NONE', #1379, 1000.000000000000114 ) ;
#527 = ORIENTED_EDGE ( 'NONE', *, *, #879, .T. ) ;
#528 = FACE_OUTER_BOUND ( 'NONE', #649, .T. ) ;
#529 = ADVANCED_FACE ( 'NONE', ( #528 ), #107, .F. ) ;
#530 = DIRECTION ( 'NONE',  ( -0.5150380749100557098, -0.000000000000000000, -0.8571673007021114454 ) ) ;
#531 = AXIS2_PLACEMENT_3D ( 'NONE', #855, #642, #432 ) ;
#532 = ORIENTED_EDGE ( 'NONE', *, *, #1325, .F. ) ;
#533 = DIRECTION ( 'NONE',  ( -0.000000000000000000, -1.000000000000000000, -0.000000000000000000 ) ) ;
#534 = CARTESIAN_POINT ( 'NONE',  ( 46.18951439602320619, 48.39999999999999858, -46.41959456802228345 ) ) ;
#535 = DIRECTION ( 'NONE',  ( 0.000000000000000000, 0.000000000000000000, -1.000000000000000000 ) ) ;
#536 = EDGE_LOOP ( 'NONE', ( #238, #206 ) ) ;
#537 = VERTEX_POINT ( 'NONE', #1194 ) ;
#538 = CARTESIAN_POINT ( 'NONE',  ( 33.58757210636080259, 43.39999999999999858, 53.57234841721103891 ) ) ;
#539 = AXIS2_PLACEMENT_3D ( 'NONE', #354, #779, #128 ) ;
#540 = DIRECTION ( 'NONE',  ( 0.7071067811865469066, 0.000000000000000000, -0.7071067811865482389 ) ) ;
#541 = CARTESIAN_POINT ( 'NONE',  ( 54.09366876077110931, 48.39999999999999858, 20.15254326381684535 ) ) ;
#542 = VERTEX_POINT ( 'NONE', #538 ) ;
#543 = AXIS2_PLACEMENT_3D ( 'NONE', #330, #463, #239 ) ;
#544 = EDGE_CURVE ( 'NONE', #1372, #1329, #34, .T. ) ;
#545 = ORIENTED_EDGE ( 'NONE', *, *, #1257, .F. ) ;
#546 = CARTESIAN_POINT ( 'NONE',  ( 78.00000000000000000, 38.87451660040608203, -13.00000000000000000 ) ) ;
#547 = DIRECTION ( 'NONE',  ( -0.000000000000000000, 1.000000000000000000, -0.000000000000000000 ) ) ;
#548 = CARTESIAN_POINT ( 'NONE',  ( 54.09366876077110931, 43.39999999999999858, 27.22361107568232086 ) ) ;
#549 = EDGE_LOOP ( 'NONE', ( #1299, #932 ) ) ;
#550 = DIRECTION ( 'NONE',  ( 0.000000000000000000, 0.000000000000000000, -1.000000000000000000 ) ) ;
#551 = ORIENTED_EDGE ( 'NONE', *, *, #1126, .F. ) ;
#552 = CARTESIAN_POINT ( 'NONE',  ( 45.16312671864704242, 48.39999999999999858, -40.70297844118579178 ) ) ;
#553 = LINE ( 'NONE', #11, #1061 ) ;
#554 = CYLINDRICAL_SURFACE ( 'NONE', #567, 5.000000000000000888 ) ;
#555 = EDGE_LOOP ( 'NONE', ( #551, #138, #1383, #717 ) ) ;
#556 = DIRECTION ( 'NONE',  ( -0.000000000000000000, 1.000000000000000000, 0.000000000000000000 ) ) ;
#557 = DIRECTION ( 'NONE',  ( -0.000000000000000000, 1.000000000000000000, 0.000000000000000000 ) ) ;
#558 = CIRCLE ( 'NONE', #937, 5.000000000000000888 ) ;
#559 = EDGE_CURVE ( 'NONE', #1012, #825, #86, .T. ) ;
#560 = ORIENTED_EDGE ( 'NONE', *, *, #19, .T. ) ;
#561 = CARTESIAN_POINT ( 'NONE',  ( 69.00000000000000000, 6.630447378299527905, 12.00000000000000000 ) ) ;
#562 = EDGE_CURVE ( 'NONE', #766, #1329, #945, .T. ) ;
#563 = CARTESIAN_POINT ( 'NONE',  ( 0.5318054228320850951, 48.39999999999999858, 0.06529749532824952185 ) ) ;
#564 = ORIENTED_EDGE ( 'NONE', *, *, #517, .T. ) ;
#565 = DIRECTION ( 'NONE',  ( 0.000000000000000000, 0.000000000000000000, -1.000000000000000000 ) ) ;
#566 = LINE ( 'NONE', #1339, #66 ) ;
#567 = AXIS2_PLACEMENT_3D ( 'NONE', #1203, #237, #665 ) ;
#568 = CIRCLE ( 'NONE', #501, 5.000000000000000000 ) ;
#569 = ORIENTED_EDGE ( 'NONE', *, *, #47, .T. ) ;
#570 = DIRECTION ( 'NONE',  ( -0.000000000000000000, 1.000000000000000000, -0.000000000000000000 ) ) ;
#571 = LINE ( 'NONE', #470, #1169 ) ;
#572 = ORIENTED_EDGE ( 'NONE', *, *, #1217, .T. ) ;
#573 = EDGE_CURVE ( 'NONE', #1333, #110, #1278, .T. ) ;
#574 = PLANE ( 'NONE',  #543 ) ;
#575 = DIRECTION ( 'NONE',  ( 0.000000000000000000, 0.000000000000000000, 1.000000000000000000 ) ) ;
#576 = VECTOR ( 'NONE', #984, 1000.000000000000000 ) ;
#577 = ORIENTED_EDGE ( 'NONE', *, *, #709, .T. ) ;
#578 = DIRECTION ( 'NONE',  ( -0.000000000000000000, 1.000000000000000000, -0.000000000000000000 ) ) ;
#579 = CARTESIAN_POINT ( 'NONE',  ( 41.04651059181053796, 48.39999999999999858, -43.32936611856194986 ) ) ;
#580 = ORIENTED_EDGE ( 'NONE', *, *, #898, .F. ) ;
#581 = CARTESIAN_POINT ( 'NONE',  ( 46.18951439602320619, 48.39999999999999858, -46.41959456802228345 ) ) ;
#582 = FILL_AREA_STYLE_COLOUR ( '', #362 ) ;
#583 = EDGE_CURVE ( 'NONE', #899, #1095, #308, .T. ) ;
#584 = EDGE_LOOP ( 'NONE', ( #459, #894, #265, #1263 ) ) ;
#585 = LINE ( 'NONE', #579, #137 ) ;
#586 = ORIENTED_EDGE ( 'NONE', *, *, #573, .F. ) ;
#587 = DIRECTION ( 'NONE',  ( -0.5150380749100557098, -0.000000000000000000, -0.8571673007021114454 ) ) ;
#588 = CARTESIAN_POINT ( 'NONE',  ( 0.5318054228320850951, 48.39999999999999858, 0.06529749532824952185 ) ) ;
#589 = EDGE_CURVE ( 'NONE', #400, #1161, #331, .T. ) ;
#590 = ORIENTED_EDGE ( 'NONE', *, *, #1294, .T. ) ;
#591 = APPLICATION_CONTEXT ( 'automotive_design' ) ;
#592 = CYLINDRICAL_SURFACE ( 'NONE', #948, 1.600000000000004086 ) ;
#593 = DIRECTION ( 'NONE',  ( 0.000000000000000000, 1.000000000000000000, 0.000000000000000000 ) ) ;
#594 = CYLINDRICAL_SURFACE ( 'NONE', #890, 13.00000000000000178 ) ;
#595 = EDGE_CURVE ( 'NONE', #1172, #195, #987, .T. ) ;
#596 = ORIENTED_EDGE ( 'NONE', *, *, #1138, .T. ) ;
#597 = CARTESIAN_POINT ( 'NONE',  ( 69.50000000000000000, 43.39999999999999858, 26.59999999999999787 ) ) ;
#598 = LINE ( 'NONE', #57, #1034 ) ;
#599 = DIRECTION ( 'NONE',  ( 0.000000000000000000, 0.000000000000000000, 1.000000000000000000 ) ) ;
#600 = EDGE_CURVE ( 'NONE', #1295, #1209, #751, .T. ) ;
#601 = FACE_BOUND ( 'NONE', #654, .T. ) ;
#602 = CARTESIAN_POINT ( 'NONE',  ( 52.49536246593231681, 48.39999999999999858, 11.48316915711257025 ) ) ;
#603 = CARTESIAN_POINT ( 'NONE',  ( 79.50000000000000000, 43.39999999999999858, -0.7499999999999945599 ) ) ;
#604 = ORIENTED_EDGE ( 'NONE', *, *, #898, .T. ) ;
#605 = EDGE_LOOP ( 'NONE', ( #891, #1238, #189, #532 ) ) ;
#606 = VECTOR ( 'NONE', #888, 1000.000000000000114 ) ;
#607 = CARTESIAN_POINT ( 'NONE',  ( 50.55813485483837155, 48.39999999999999858, 23.68807716974957955 ) ) ;
#608 = CARTESIAN_POINT ( 'NONE',  ( 84.43118714041850126, 43.39999999999999858, -13.56898823611595439 ) ) ;
#609 = CARTESIAN_POINT ( 'NONE',  ( 33.58757210636080259, 48.39999999999999858, 51.97234841721104459 ) ) ;
#610 = EDGE_CURVE ( 'NONE', #1270, #1269, #252, .T. ) ;
#611 = VERTEX_POINT ( 'NONE', #998 ) ;
#612 = ORIENTED_EDGE ( 'NONE', *, *, #172, .F. ) ;
#613 = ORIENTED_EDGE ( 'NONE', *, *, #406, .F. ) ;
#614 = FACE_BOUND ( 'NONE', #336, .T. ) ;
#615 = CARTESIAN_POINT ( 'NONE',  ( 52.49536246593231681, 15.54475805715730630, 11.48316915711257025 ) ) ;
#616 = ADVANCED_FACE ( 'NONE', ( #469 ), #664, .F. ) ;
#617 = ORIENTED_EDGE ( 'NONE', *, *, #168, .F. ) ;
#618 = EDGE_LOOP ( 'NONE', ( #30, #143, #972, #944 ) ) ;
#619 = ORIENTED_EDGE ( 'NONE', *, *, #31, .F. ) ;
#620 = DIRECTION ( 'NONE',  ( -0.7071067811865475727, 0.000000000000000000, 0.7071067811865474617 ) ) ;
#621 = CARTESIAN_POINT ( 'NONE',  ( 69.00000000000000000, 43.39999999999999858, 25.00000000000000000 ) ) ;
#622 = VECTOR ( 'NONE', #578, 1000.000000000000000 ) ;
#623 = ORIENTED_EDGE ( 'NONE', *, *, #701, .T. ) ;
#624 = ORIENTED_EDGE ( 'NONE', *, *, #222, .T. ) ;
#625 = ADVANCED_FACE ( 'NONE', ( #874 ), #139, .F. ) ;
#626 = CIRCLE ( 'NONE', #876, 4.250000000000004441 ) ;
#627 = ORIENTED_EDGE ( 'NONE', *, *, #689, .T. ) ;
#628 = DIRECTION ( 'NONE',  ( -0.000000000000000000, -1.000000000000000000, -0.000000000000000000 ) ) ;
#629 = VECTOR ( 'NONE', #1013, 1000.000000000000000 ) ;
#630 = CARTESIAN_POINT ( 'NONE',  ( 48.95982855999957906, 48.39999999999999858, 15.01870306304530978 ) ) ;
#631 = AXIS2_PLACEMENT_3D ( 'NONE', #946, #730, #1288 ) ;
#632 = AXIS2_PLACEMENT_3D ( 'NONE', #1314, #479, #550 ) ;
#633 = AXIS2_PLACEMENT_3D ( 'NONE', #959, #100, #836 ) ;
#634 = EDGE_LOOP ( 'NONE', ( #638, #93, #196, #258 ) ) ;
#635 = DIRECTION ( 'NONE',  ( -0.000000000000000000, -1.000000000000000000, -0.000000000000000000 ) ) ;
#636 = CARTESIAN_POINT ( 'NONE',  ( 60.72653840579042850, 48.39999999999999858, -1.537698093119816312 ) ) ;
#637 = PLANE ( 'NONE',  #1163 ) ;
#638 = ORIENTED_EDGE ( 'NONE', *, *, #595, .F. ) ;
#639 = EDGE_LOOP ( 'NONE', ( #152, #727, #1038, #1193 ) ) ;
#640 = DIRECTION ( 'NONE',  ( 0.000000000000000000, 0.000000000000000000, 1.000000000000000000 ) ) ;
#641 = CARTESIAN_POINT ( 'NONE',  ( 78.64058469130669948, 48.39999999999999858, 33.59168413613174664 ) ) ;
#642 = DIRECTION ( 'NONE',  ( -0.000000000000000000, 1.000000000000000000, 0.000000000000000000 ) ) ;
#643 = ORIENTED_EDGE ( 'NONE', *, *, #474, .F. ) ;
#644 = ADVANCED_FACE ( 'NONE', ( #884 ), #1006, .F. ) ;
#645 = ORIENTED_EDGE ( 'NONE', *, *, #661, .T. ) ;
#646 = CARTESIAN_POINT ( 'NONE',  ( 45.16312671864704242, 48.39999999999999858, -43.90297844118578752 ) ) ;
#647 = CARTESIAN_POINT ( 'NONE',  ( 33.58757210636123602, 43.39999999999999858, 56.21498910433076901 ) ) ;
#648 = DIRECTION ( 'NONE',  ( 0.000000000000000000, 0.000000000000000000, -1.000000000000000000 ) ) ;
#649 = EDGE_LOOP ( 'NONE', ( #38, #1108, #1365, #796 ) ) ;
#650 = VECTOR ( 'NONE', #275, 1000.000000000000000 ) ;
#651 = CARTESIAN_POINT ( 'NONE',  ( 78.00000000000000000, 38.87451660040608203, -14.60000000000000497 ) ) ;
#652 = CIRCLE ( 'NONE', #675, 5.000000000000000000 ) ;
#653 = EDGE_CURVE ( 'NONE', #856, #790, #123, .T. ) ;
#654 = EDGE_LOOP ( 'NONE', ( #845, #393 ) ) ;
#655 = DIRECTION ( 'NONE',  ( 0.000000000000000000, 0.000000000000000000, 1.000000000000000000 ) ) ;
#656 = CARTESIAN_POINT ( 'NONE',  ( 33.58757210636123602, 48.39999999999999858, 56.21498910433076901 ) ) ;
#657 = FACE_BOUND ( 'NONE', #329, .T. ) ;
#658 = ORIENTED_EDGE ( 'NONE', *, *, #355, .T. ) ;
#659 = CARTESIAN_POINT ( 'NONE',  ( 84.43118714041850126, 48.39999999999999858, -13.56898823611595439 ) ) ;
#660 = FACE_OUTER_BOUND ( 'NONE', #634, .T. ) ;
#661 = EDGE_CURVE ( 'NONE', #611, #785, #558, .T. ) ;
#662 = EDGE_CURVE ( 'NONE', #433, #899, #83, .T. ) ;
#663 = ORIENTED_EDGE ( 'NONE', *, *, #979, .F. ) ;
#664 = CYLINDRICAL_SURFACE ( 'NONE', #263, 5.000000000000000888 ) ;
#665 = DIRECTION ( 'NONE',  ( 0.000000000000000000, 0.000000000000000000, 1.000000000000000000 ) ) ;
#666 = ORIENTED_EDGE ( 'NONE', *, *, #865, .T. ) ;
#667 = DIRECTION ( 'NONE',  ( 0.000000000000000000, 0.000000000000000000, -1.000000000000000000 ) ) ;
#668 = AXIS2_PLACEMENT_3D ( 'NONE', #981, #357, #16 ) ;
#669 = DIRECTION ( 'NONE',  ( -0.8571673007021110013, -0.000000000000000000, 0.5150380749100562650 ) ) ;
#670 = VECTOR ( 'NONE', #182, 1000.000000000000000 ) ;
#671 = CARTESIAN_POINT ( 'NONE',  ( 79.49592939232516642, 48.39999999999999858, -12.76697142838393795 ) ) ;
#672 = ORIENTED_EDGE ( 'NONE', *, *, #1043, .F. ) ;
#673 = DIRECTION ( 'NONE',  ( -0.8571673007021116675, 0.000000000000000000, 0.5150380749100552658 ) ) ;
#674 = CARTESIAN_POINT ( 'NONE',  ( 45.16312671864704242, 43.39999999999999858, -40.70297844118579178 ) ) ;
#675 = AXIS2_PLACEMENT_3D ( 'NONE', #602, #496, #1254 ) ;
#676 = AXIS2_PLACEMENT_3D ( 'NONE', #769, #976, #12 ) ;
#677 = AXIS2_PLACEMENT_3D ( 'NONE', #5, #327, #1195 ) ;
#678 = ORIENTED_EDGE ( 'NONE', *, *, #752, .F. ) ;
#679 = DIRECTION ( 'NONE',  ( 0.000000000000000000, 0.000000000000000000, 1.000000000000000000 ) ) ;
#680 = ADVANCED_FACE ( 'NONE', ( #1309 ), #243, .F. ) ;
#681 = FACE_OUTER_BOUND ( 'NONE', #1008, .T. ) ;
#682 = ORIENTED_EDGE ( 'NONE', *, *, #661, .F. ) ;
#683 = CARTESIAN_POINT ( 'NONE',  ( 61.64803358821276902, 43.39999999999999858, -9.042674090477506255 ) ) ;
#684 = DIRECTION ( 'NONE',  ( 0.000000000000000000, -1.000000000000000000, -0.000000000000000000 ) ) ;
#685 = ORIENTED_EDGE ( 'NONE', *, *, #291, .T. ) ;
#686 = DIRECTION ( 'NONE',  ( -0.000000000000000000, -1.000000000000000000, -0.000000000000000000 ) ) ;
#687 = ORIENTED_EDGE ( 'NONE', *, *, #858, .T. ) ;
#688 = CARTESIAN_POINT ( 'NONE',  ( 54.09366876077110931, 48.39999999999999858, 27.22361107568232086 ) ) ;
#689 = EDGE_CURVE ( 'NONE', #992, #1123, #732, .T. ) ;
#690 = VECTOR ( 'NONE', #669, 1000.000000000000114 ) ;
#691 = ORIENTED_EDGE ( 'NONE', *, *, #847, .F. ) ;
#692 = DIRECTION ( 'NONE',  ( 0.9925461516413229823, -0.000000000000000000, 0.1218693434051398433 ) ) ;
#693 = CYLINDRICAL_SURFACE ( 'NONE', #1035, 5.000000000000000888 ) ;
#694 = DIRECTION ( 'NONE',  ( -0.000000000000000000, 1.000000000000000000, -0.000000000000000000 ) ) ;
#695 = EDGE_CURVE ( 'NONE', #803, #55, #1089, .T. ) ;
#696 = CIRCLE ( 'NONE', #481, 1.599999999999997202 ) ;
#697 = ORIENTED_EDGE ( 'NONE', *, *, #760, .T. ) ;
#698 = CARTESIAN_POINT ( 'NONE',  ( 76.92073901777487777, 43.39999999999999858, -17.05280793189450250 ) ) ;
#699 = CARTESIAN_POINT ( 'NONE',  ( 79.49592939232516642, 48.39999999999999858, -12.76697142838393795 ) ) ;
#700 = DIRECTION ( 'NONE',  ( 0.5150380749100558209, 0.000000000000000000, 0.8571673007021113344 ) ) ;
#701 = EDGE_CURVE ( 'NONE', #714, #78, #451, .T. ) ;
#702 = VECTOR ( 'NONE', #1212, 1000.000000000000000 ) ;
#703 = EDGE_CURVE ( 'NONE', #1012, #714, #17, .T. ) ;
#704 = DIRECTION ( 'NONE',  ( 0.000000000000000000, -1.000000000000000000, 0.000000000000000000 ) ) ;
#705 = DIRECTION ( 'NONE',  ( -0.000000000000000000, -1.000000000000000000, -0.000000000000000000 ) ) ;
#706 = CARTESIAN_POINT ( 'NONE',  ( 45.16312671864704242, 48.39999999999999858, -42.30297844118578610 ) ) ;
#707 = ORIENTED_EDGE ( 'NONE', *, *, #1191, .T. ) ;
#708 = VERTEX_POINT ( 'NONE', #1105 ) ;
#709 = EDGE_CURVE ( 'NONE', #1251, #1390, #129, .T. ) ;
#710 = FACE_BOUND ( 'NONE', #372, .T. ) ;
#711 = CARTESIAN_POINT ( 'NONE',  ( 33.58757210636080259, 43.39999999999999858, 51.97234841721104459 ) ) ;
#712 = LINE ( 'NONE', #492, #508 ) ;
#713 = AXIS2_PLACEMENT_3D ( 'NONE', #904, #1225, #575 ) ;
#714 = VERTEX_POINT ( 'NONE', #731 ) ;
#715 = AXIS2_PLACEMENT_3D ( 'NONE', #939, #179, #620 ) ;
#716 = AXIS2_PLACEMENT_3D ( 'NONE', #22, #1338, #68 ) ;
#717 = ORIENTED_EDGE ( 'NONE', *, *, #1284, .F. ) ;
#718 = LINE ( 'NONE', #1040, #113 ) ;
#719 = LINE ( 'NONE', #424, #728 ) ;
#720 = ORIENTED_EDGE ( 'NONE', *, *, #913, .F. ) ;
#721 = VERTEX_POINT ( 'NONE', #630 ) ;
#722 = EDGE_LOOP ( 'NONE', ( #73, #793 ) ) ;
#723 = CARTESIAN_POINT ( 'NONE',  ( 46.18951439602320619, 48.39999999999999858, -46.41959456802228345 ) ) ;
#724 = DIRECTION ( 'NONE',  ( 0.000000000000000000, 0.000000000000000000, -1.000000000000000000 ) ) ;
#725 = ADVANCED_FACE ( 'NONE', ( #827 ), #216, .F. ) ;
#726 = ORIENTED_EDGE ( 'NONE', *, *, #765, .F. ) ;
#727 = ORIENTED_EDGE ( 'NONE', *, *, #1076, .T. ) ;
#728 = VECTOR ( 'NONE', #844, 1000.000000000000000 ) ;
#729 = CARTESIAN_POINT ( 'NONE',  ( 62.67442126558891857, 48.39999999999999858, -14.75929021731400148 ) ) ;
#730 = DIRECTION ( 'NONE',  ( 0.000000000000000000, -1.000000000000000000, -0.000000000000000000 ) ) ;
#731 = CARTESIAN_POINT ( 'NONE',  ( 45.16312671864704242, 48.39999999999999858, -40.70297844118579178 ) ) ;
#732 = CIRCLE ( 'NONE', #1369, 84.99999999999963052 ) ;
#733 = EDGE_CURVE ( 'NONE', #1377, #1232, #305, .T. ) ;
#734 = AXIS2_PLACEMENT_3D ( 'NONE', #896, #371, #40 ) ;
#735 = ORIENTED_EDGE ( 'NONE', *, *, #964, .T. ) ;
#736 = CYLINDRICAL_SURFACE ( 'NONE', #279, 1.600000000000005862 ) ;
#737 = CARTESIAN_POINT ( 'NONE',  ( 69.00000000000000000, 43.39999999999999858, 12.00000000000000000 ) ) ;
#738 = AXIS2_PLACEMENT_3D ( 'NONE', #37, #692, #893 ) ;
#739 = CARTESIAN_POINT ( 'NONE',  ( 62.57895013501040182, 48.39999999999999858, 34.29467888754707872 ) ) ;
#740 = ORIENTED_EDGE ( 'NONE', *, *, #60, .T. ) ;
#741 = CIRCLE ( 'NONE', #925, 5.000000000000000888 ) ;
#742 = AXIS2_PLACEMENT_3D ( 'NONE', #422, #228, #429 ) ;
#743 = ADVANCED_FACE ( 'NONE', ( #1159 ), #96, .T. ) ;
#744 = ORIENTED_EDGE ( 'NONE', *, *, #155, .F. ) ;
#745 = CARTESIAN_POINT ( 'NONE',  ( 69.00000000000000000, 48.39999999999999858, 12.00000000000000000 ) ) ;
#746 = DIRECTION ( 'NONE',  ( -0.8571673007021114454, 0.000000000000000000, 0.5150380749100557098 ) ) ;
#747 = DIRECTION ( 'NONE',  ( 0.000000000000000000, 0.000000000000000000, -1.000000000000000000 ) ) ;
#748 = ORIENTED_EDGE ( 'NONE', *, *, #1154, .F. ) ;
#749 = AXIS2_PLACEMENT_3D ( 'NONE', #1255, #171, #928 ) ;
#750 = ORIENTED_EDGE ( 'NONE', *, *, #510, .F. ) ;
#751 = LINE ( 'NONE', #1187, #690 ) ;
#752 = EDGE_CURVE ( 'NONE', #835, #774, #199, .T. ) ;
#753 = DIRECTION ( 'NONE',  ( 0.000000000000000000, 0.000000000000000000, 1.000000000000000000 ) ) ;
#754 = CARTESIAN_POINT ( 'NONE',  ( 60.76132443277736428, 48.39999999999999858, -10.51840594468100676 ) ) ;
#755 = EDGE_LOOP ( 'NONE', ( #126, #744 ) ) ;
#756 = CARTESIAN_POINT ( 'NONE',  ( 46.18951439602320619, 43.39999999999999858, -46.41959456802228345 ) ) ;
#757 = ORIENTED_EDGE ( 'NONE', *, *, #1341, .F. ) ;
#758 = DIRECTION ( 'NONE',  ( 0.000000000000000000, 0.000000000000000000, -1.000000000000000000 ) ) ;
#759 = CARTESIAN_POINT ( 'NONE',  ( 49.92017209138204237, 43.39999999999999858, 7.197332653602018127 ) ) ;
#760 = EDGE_CURVE ( 'NONE', #167, #375, #841, .T. ) ;
#761 = DIRECTION ( 'NONE',  ( -0.000000000000000000, 1.000000000000000000, -0.000000000000000000 ) ) ;
#762 = ORIENTED_EDGE ( 'NONE', *, *, #695, .F. ) ;
#763 = DIRECTION ( 'NONE',  ( 0.8571673007021116675, 0.000000000000000000, -0.5150380749100552658 ) ) ;
#764 =( NAMED_UNIT ( * ) SI_UNIT ( $, .STERADIAN. ) SOLID_ANGLE_UNIT ( ) );
#765 = EDGE_CURVE ( 'NONE', #1133, #1046, #241, .T. ) ;
#766 = VERTEX_POINT ( 'NONE', #292 ) ;
#767 = CARTESIAN_POINT ( 'NONE',  ( 49.92017209138204237, 15.54475805715730630, 7.197332653602017238 ) ) ;
#768 = DIRECTION ( 'NONE',  ( 0.7071067811865475727, 0.000000000000000000, -0.7071067811865474617 ) ) ;
#769 = CARTESIAN_POINT ( 'NONE',  ( 62.67442126558891857, 48.39999999999999858, -13.15929021731400361 ) ) ;
#770 = VERTEX_POINT ( 'NONE', #621 ) ;
#771 = DIRECTION ( 'NONE',  ( 0.5150380749100552658, -0.000000000000000000, 0.8571673007021116675 ) ) ;
#772 = CARTESIAN_POINT ( 'NONE',  ( 66.11448404094313958, 43.39999999999999858, 30.75914498161433741 ) ) ;
#773 = EDGE_CURVE ( 'NONE', #542, #110, #1028, .T. ) ;
#774 = VERTEX_POINT ( 'NONE', #1066 ) ;
#775 = DIRECTION ( 'NONE',  ( 0.000000000000000000, 1.000000000000000000, 0.000000000000000000 ) ) ;
#776 = DIRECTION ( 'NONE',  ( 0.000000000000000000, -1.000000000000000000, 0.000000000000000000 ) ) ;
#777 = EDGE_LOOP ( 'NONE', ( #643, #1388, #42, #949 ) ) ;
#778 = CARTESIAN_POINT ( 'NONE',  ( 69.50000000000000000, 38.87451660040608203, 29.80000000000000782 ) ) ;
#779 = DIRECTION ( 'NONE',  ( 0.000000000000000000, 1.000000000000000000, 0.000000000000000000 ) ) ;
#780 = AXIS2_PLACEMENT_3D ( 'NONE', #311, #1175, #522 ) ;
#781 = EDGE_CURVE ( 'NONE', #231, #369, #1153, .T. ) ;
#782 = ORIENTED_EDGE ( 'NONE', *, *, #979, .T. ) ;
#783 = DIRECTION ( 'NONE',  ( -0.000000000000000000, 1.000000000000000000, 0.000000000000000000 ) ) ;
#784 = DIRECTION ( 'NONE',  ( -2.775557561562890957E-15, 0.000000000000000000, -1.000000000000000000 ) ) ;
#785 = VERTEX_POINT ( 'NONE', #641 ) ;
#786 = PLANE ( 'NONE',  #2 ) ;
#787 = FILL_AREA_STYLE ('',( #582 ) ) ;
#788 = PRODUCT_DEFINITION_FORMATION_WITH_SPECIFIED_SOURCE ( 'ANY', '', #398, .NOT_KNOWN. ) ;
#789 = CIRCLE ( 'NONE', #249, 1.599999999999997202 ) ;
#790 = VERTEX_POINT ( 'NONE', #103 ) ;
#791 = EDGE_CURVE ( 'NONE', #1099, #1372, #719, .T. ) ;
#792 = CARTESIAN_POINT ( 'NONE',  ( 51.97234841721103038, 43.39999999999999858, 31.98757210636079407 ) ) ;
#793 = ORIENTED_EDGE ( 'NONE', *, *, #1043, .T. ) ;
#794 = CARTESIAN_POINT ( 'NONE',  ( 33.58757210636123602, 48.39999999999999858, 56.21498910433076901 ) ) ;
#795 = CARTESIAN_POINT ( 'NONE',  ( 79.50000000000000000, 43.39999999999999858, -5.000000000000000000 ) ) ;
#796 = ORIENTED_EDGE ( 'NONE', *, *, #773, .F. ) ;
#797 = FACE_OUTER_BOUND ( 'NONE', #1186, .T. ) ;
#798 = EDGE_LOOP ( 'NONE', ( #564, #1037, #288, #586 ) ) ;
#799 = EDGE_CURVE ( 'NONE', #1269, #803, #1211, .T. ) ;
#800 = DIRECTION ( 'NONE',  ( 0.000000000000000000, 0.000000000000000000, 1.000000000000000000 ) ) ;
#801 = CARTESIAN_POINT ( 'NONE',  ( 69.01672159629576697, 43.39999999999999858, -13.13676211729657517 ) ) ;
#802 = VECTOR ( 'NONE', #207, 1000.000000000000000 ) ;
#803 = VERTEX_POINT ( 'NONE', #82 ) ;
#804 = PRODUCT_DEFINITION_CONTEXT ( 'detailed design', #591, 'design' ) ;
#805 = CARTESIAN_POINT ( 'NONE',  ( 0.5318054228320850951, 48.39999999999999858, 0.06529749532824952185 ) ) ;
#806 = LINE ( 'NONE', #1239, #650 ) ;
#807 = DIRECTION ( 'NONE',  ( 0.000000000000000000, 1.000000000000000000, 0.000000000000000000 ) ) ;
#808 = CARTESIAN_POINT ( 'NONE',  ( 60.42934015416136617, 43.39999999999999858, 0.8827874259357323394 ) ) ;
#809 = ADVANCED_FACE ( 'NONE', ( #319 ), #637, .F. ) ;
#810 = ADVANCED_FACE ( 'NONE', ( #961 ), #1054, .F. ) ;
#811 = CIRCLE ( 'NONE', #676, 1.599999999999997202 ) ;
#812 = VECTOR ( 'NONE', #814, 1000.000000000000000 ) ;
#813 = AXIS2_PLACEMENT_3D ( 'NONE', #947, #409, #833 ) ;
#814 = DIRECTION ( 'NONE',  ( -0.000000000000000000, -1.000000000000000000, -0.000000000000000000 ) ) ;
#815 = FACE_OUTER_BOUND ( 'NONE', #1276, .T. ) ;
#816 = DIRECTION ( 'NONE',  ( 0.000000000000000000, 0.000000000000000000, 1.000000000000000000 ) ) ;
#817 = CIRCLE ( 'NONE', #633, 1.599999999999997202 ) ;
#818 = EDGE_CURVE ( 'NONE', #45, #1050, #918, .T. ) ;
#819 = ORIENTED_EDGE ( 'NONE', *, *, #1274, .T. ) ;
#820 = VECTOR ( 'NONE', #700, 1000.000000000000000 ) ;
#821 = DIRECTION ( 'NONE',  ( 0.000000000000000000, 0.000000000000000000, -1.000000000000000000 ) ) ;
#822 = DIRECTION ( 'NONE',  ( 0.000000000000000000, 0.000000000000000000, -1.000000000000000000 ) ) ;
#823 = CYLINDRICAL_SURFACE ( 'NONE', #323, 1.599999999999997202 ) ;
#824 = ORIENTED_EDGE ( 'NONE', *, *, #31, .T. ) ;
#825 = VERTEX_POINT ( 'NONE', #1374 ) ;
#826 = CARTESIAN_POINT ( 'NONE',  ( 79.50000000000000000, 48.39999999999999858, -0.7499999999999945599 ) ) ;
#827 = FACE_OUTER_BOUND ( 'NONE', #516, .T. ) ;
#828 = ORIENTED_EDGE ( 'NONE', *, *, #832, .T. ) ;
#829 = AXIS2_PLACEMENT_3D ( 'NONE', #169, #1025, #495 ) ;
#830 = VERTEX_POINT ( 'NONE', #88 ) ;
#831 = FACE_BOUND ( 'NONE', #549, .T. ) ;
#832 = EDGE_CURVE ( 'NONE', #1218, #950, #203, .T. ) ;
#833 = DIRECTION ( 'NONE',  ( 0.000000000000000000, 0.000000000000000000, 1.000000000000000000 ) ) ;
#834 = ORIENTED_EDGE ( 'NONE', *, *, #391, .T. ) ;
#835 = VERTEX_POINT ( 'NONE', #837 ) ;
#836 = DIRECTION ( 'NONE',  ( 0.000000000000000000, 0.000000000000000000, 1.000000000000000000 ) ) ;
#837 = CARTESIAN_POINT ( 'NONE',  ( 64.73088509278520064, 43.39999999999999858, -15.56157174274629185 ) ) ;
#838 = ADVANCED_FACE ( 'NONE', ( #1273 ), #304, .F. ) ;
#839 = EDGE_LOOP ( 'NONE', ( #421, #941, #439, #577, #1291, #848, #545, #485, #678, #735, #1395, #1150, #560, #887, #177, #685, #859, #687, #720, #613, #1326, #658 ) ) ;
#840 = EDGE_LOOP ( 'NONE', ( #750, #909 ) ) ;
#841 = CIRCLE ( 'NONE', #1097, 5.000000000000000888 ) ;
#842 = DIRECTION ( 'NONE',  ( 0.000000000000000000, 1.000000000000000000, 0.000000000000000000 ) ) ;
#843 = DIRECTION ( 'NONE',  ( -0.1218693434051398294, 0.000000000000000000, 0.9925461516413228713 ) ) ;
#844 = DIRECTION ( 'NONE',  ( -0.000000000000000000, -1.000000000000000000, -0.000000000000000000 ) ) ;
#845 = ORIENTED_EDGE ( 'NONE', *, *, #518, .T. ) ;
#846 = EDGE_CURVE ( 'NONE', #1185, #1269, #443, .T. ) ;
#847 = EDGE_CURVE ( 'NONE', #115, #1209, #314, .T. ) ;
#848 = ORIENTED_EDGE ( 'NONE', *, *, #818, .T. ) ;
#849 = AXIS2_PLACEMENT_3D ( 'NONE', #1146, #389, #920 ) ;
#850 = CARTESIAN_POINT ( 'NONE',  ( 69.50000000000000000, 43.39999999999999858, 28.20000000000000284 ) ) ;
#851 = VECTOR ( 'NONE', #673, 1000.000000000000000 ) ;
#852 = CARTESIAN_POINT ( 'NONE',  ( 79.50000000000000000, 48.39999999999999858, -9.250000000000005329 ) ) ;
#853 = CIRCLE ( 'NONE', #250, 4.250000000000004441 ) ;
#854 = DIRECTION ( 'NONE',  ( 0.000000000000000000, 0.000000000000000000, 1.000000000000000000 ) ) ;
#855 = CARTESIAN_POINT ( 'NONE',  ( 69.50000000000000000, 43.39999999999999858, 28.20000000000000284 ) ) ;
#856 = VERTEX_POINT ( 'NONE', #759 ) ;
#857 = VECTOR ( 'NONE', #1303, 1000.000000000000000 ) ;
#858 = EDGE_CURVE ( 'NONE', #55, #1270, #996, .T. ) ;
#859 = ORIENTED_EDGE ( 'NONE', *, *, #1191, .F. ) ;
#860 = DIRECTION ( 'NONE',  ( 0.000000000000000000, 0.000000000000000000, 1.000000000000000000 ) ) ;
#861 = DIRECTION ( 'NONE',  ( -2.775557561562890957E-15, 0.000000000000000000, -1.000000000000000000 ) ) ;
#862 = CARTESIAN_POINT ( 'NONE',  ( 79.49592939232516642, 48.39999999999999858, -17.76697142838393972 ) ) ;
#863 = ORIENTED_EDGE ( 'NONE', *, *, #709, .F. ) ;
#864 = PRODUCT_CONTEXT ( 'NONE', #448, 'mechanical' ) ;
#865 = EDGE_CURVE ( 'NONE', #950, #1218, #458, .T. ) ;
#866 = EDGE_LOOP ( 'NONE', ( #99, #468, #462, #25 ) ) ;
#867 = DIRECTION ( 'NONE',  ( -0.000000000000000000, 1.000000000000000000, -0.000000000000000000 ) ) ;
#868 = DIRECTION ( 'NONE',  ( -0.000000000000000000, 1.000000000000000000, 0.000000000000000000 ) ) ;
#869 = DIRECTION ( 'NONE',  ( -0.7071067811865474617, -0.000000000000000000, 0.7071067811865474617 ) ) ;
#870 = EDGE_LOOP ( 'NONE', ( #682, #997, #21, #930 ) ) ;
#871 = DIRECTION ( 'NONE',  ( -0.000000000000000000, 1.000000000000000000, -0.000000000000000000 ) ) ;
#872 = AXIS2_PLACEMENT_3D ( 'NONE', #1219, #476, #900 ) ;
#873 = ORIENTED_EDGE ( 'NONE', *, *, #8, .T. ) ;
#874 = FACE_OUTER_BOUND ( 'NONE', #966, .T. ) ;
#875 = DIRECTION ( 'NONE',  ( 0.000000000000000000, -1.000000000000000000, -0.000000000000000000 ) ) ;
#876 = AXIS2_PLACEMENT_3D ( 'NONE', #795, #1111, #882 ) ;
#877 = DIRECTION ( 'NONE',  ( -0.000000000000000000, -1.000000000000000000, -0.000000000000000000 ) ) ;
#878 = ORIENTED_EDGE ( 'NONE', *, *, #1160, .F. ) ;
#879 = EDGE_CURVE ( 'NONE', #115, #167, #124, .T. ) ;
#880 = AXIS2_PLACEMENT_3D ( 'NONE', #1259, #394, #821 ) ;
#881 = FACE_OUTER_BOUND ( 'NONE', #777, .T. ) ;
#882 = DIRECTION ( 'NONE',  ( 0.000000000000000000, 0.000000000000000000, -1.000000000000000000 ) ) ;
#883 = ORIENTED_EDGE ( 'NONE', *, *, #315, .F. ) ;
#884 = FACE_OUTER_BOUND ( 'NONE', #183, .T. ) ;
#885 = AXIS2_PLACEMENT_3D ( 'NONE', #546, #867, #442 ) ;
#886 = FACE_BOUND ( 'NONE', #957, .T. ) ;
#887 = ORIENTED_EDGE ( 'NONE', *, *, #1325, .T. ) ;
#888 = DIRECTION ( 'NONE',  ( -0.1218693434051398294, 0.000000000000000000, 0.9925461516413228713 ) ) ;
#889 = CYLINDRICAL_SURFACE ( 'NONE', #539, 5.000000000000000000 ) ;
#890 = AXIS2_PLACEMENT_3D ( 'NONE', #1130, #694, #599 ) ;
#891 = ORIENTED_EDGE ( 'NONE', *, *, #348, .F. ) ;
#892 = DIRECTION ( 'NONE',  ( -0.000000000000000000, 1.000000000000000000, -0.000000000000000000 ) ) ;
#893 = DIRECTION ( 'NONE',  ( 0.1218693434051398294, 0.000000000000000000, -0.9925461516413228713 ) ) ;
#894 = ORIENTED_EDGE ( 'NONE', *, *, #60, .F. ) ;
#895 = CARTESIAN_POINT ( 'NONE',  ( 69.01672159629576697, 43.39999999999999858, -18.13676211729657695 ) ) ;
#896 = CARTESIAN_POINT ( 'NONE',  ( 51.97234841721103038, 43.39999999999999858, 33.58757210636078838 ) ) ;
#897 = PRODUCT_RELATED_PRODUCT_CATEGORY ( 'part', '', ( #398 ) ) ;
#898 = EDGE_CURVE ( 'NONE', #147, #1232, #553, .T. ) ;
#899 = VERTEX_POINT ( 'NONE', #342 ) ;
#900 = DIRECTION ( 'NONE',  ( 0.000000000000000000, 0.000000000000000000, 1.000000000000000000 ) ) ;
#901 = CARTESIAN_POINT ( 'NONE',  ( 29.34493141924195214, 43.39999999999999858, 51.97234841721148513 ) ) ;
#902 = ORIENTED_EDGE ( 'NONE', *, *, #865, .F. ) ;
#903 = DIRECTION ( 'NONE',  ( -0.000000000000000000, 1.000000000000000000, 0.000000000000000000 ) ) ;
#904 = CARTESIAN_POINT ( 'NONE',  ( 51.97234841721103038, 48.39999999999999858, 33.58757210636078838 ) ) ;
#905 = CIRCLE ( 'NONE', #1080, 5.000000000000000888 ) ;
#906 = EDGE_CURVE ( 'NONE', #1057, #856, #568, .T. ) ;
#907 = ORIENTED_EDGE ( 'NONE', *, *, #1200, .F. ) ;
#908 = CYLINDRICAL_SURFACE ( 'NONE', #272, 84.99999999999963052 ) ;
#909 = ORIENTED_EDGE ( 'NONE', *, *, #733, .F. ) ;
#910 = CARTESIAN_POINT ( 'NONE',  ( 78.00000000000000000, 48.39999999999999858, -14.60000000000000497 ) ) ;
#911 = DIRECTION ( 'NONE',  ( 0.000000000000000000, 0.000000000000000000, -1.000000000000000000 ) ) ;
#912 = ORIENTED_EDGE ( 'NONE', *, *, #1265, .T. ) ;
#913 = EDGE_CURVE ( 'NONE', #537, #1270, #221, .T. ) ;
#914 = DIRECTION ( 'NONE',  ( 0.000000000000000000, 0.000000000000000000, 1.000000000000000000 ) ) ;
#915 = ADVANCED_FACE ( 'NONE', ( #970 ), #1083, .F. ) ;
#916 = CARTESIAN_POINT ( 'NONE',  ( 76.92073901777487777, 48.39999999999999858, -17.05280793189450250 ) ) ;
#917 = CARTESIAN_POINT ( 'NONE',  ( 61.43821868747342307, 48.39999999999999858, -7.333868853105033558 ) ) ;
#918 = CIRCLE ( 'NONE', #1275, 4.999999999999999112 ) ;
#919 = DIRECTION ( 'NONE',  ( 0.000000000000000000, 0.000000000000000000, 1.000000000000000000 ) ) ;
#920 = DIRECTION ( 'NONE',  ( 0.000000000000000000, 0.000000000000000000, -1.000000000000000000 ) ) ;
#921 = CYLINDRICAL_SURFACE ( 'NONE', #467, 1.600000000000004086 ) ;
#922 = MECHANICAL_DESIGN_GEOMETRIC_PRESENTATION_REPRESENTATION (  '', ( #1148 ), #111 ) ;
#923 = ADVANCED_FACE ( 'NONE', ( #1093 ), #39, .T. ) ;
#924 = VECTOR ( 'NONE', #1020, 1000.000000000000000 ) ;
#925 = AXIS2_PLACEMENT_3D ( 'NONE', #895, #903, #256 ) ;
#926 = CARTESIAN_POINT ( 'NONE',  ( 57.62920266670384706, 48.39999999999999858, 23.68807716974958311 ) ) ;
#927 = CARTESIAN_POINT ( 'NONE',  ( 51.97234841721103038, 43.39999999999999858, 35.18757210636078980 ) ) ;
#928 = DIRECTION ( 'NONE',  ( 0.000000000000000000, 0.000000000000000000, -1.000000000000000000 ) ) ;
#929 = AXIS2_PLACEMENT_3D ( 'NONE', #4, #302, #1391 ) ;
#930 = ORIENTED_EDGE ( 'NONE', *, *, #222, .F. ) ;
#931 = VECTOR ( 'NONE', #69, 1000.000000000000000 ) ;
#932 = ORIENTED_EDGE ( 'NONE', *, *, #1024, .T. ) ;
#933 = DIRECTION ( 'NONE',  ( 0.8571673007021110013, 0.000000000000000000, -0.5150380749100562650 ) ) ;
#934 = CARTESIAN_POINT ( 'NONE',  ( 56.47548792926680505, 43.39999999999999858, -7.943215570130732317 ) ) ;
#935 = ORIENTED_EDGE ( 'NONE', *, *, #760, .F. ) ;
#936 = EDGE_CURVE ( 'NONE', #419, #312, #1245, .T. ) ;
#937 = AXIS2_PLACEMENT_3D ( 'NONE', #43, #367, #27 ) ;
#938 = ORIENTED_EDGE ( 'NONE', *, *, #773, .T. ) ;
#939 = CARTESIAN_POINT ( 'NONE',  ( 33.58757210636123602, 48.39999999999999858, 56.21498910433076901 ) ) ;
#940 = DIRECTION ( 'NONE',  ( -0.000000000000000000, 1.000000000000000000, 0.000000000000000000 ) ) ;
#941 = ORIENTED_EDGE ( 'NONE', *, *, #906, .T. ) ;
#942 = AXIS2_PLACEMENT_3D ( 'NONE', #75, #507, #933 ) ;
#943 = EDGE_CURVE ( 'NONE', #375, #835, #447, .T. ) ;
#944 = ORIENTED_EDGE ( 'NONE', *, *, #253, .T. ) ;
#945 = LINE ( 'NONE', #729, #146 ) ;
#946 = CARTESIAN_POINT ( 'NONE',  ( 55.76380764758381048, 48.39999999999999858, -2.147044810145515736 ) ) ;
#947 = CARTESIAN_POINT ( 'NONE',  ( 69.50000000000000000, 48.39999999999999858, 28.20000000000000284 ) ) ;
#948 = AXIS2_PLACEMENT_3D ( 'NONE', #56, #490, #914 ) ;
#949 = ORIENTED_EDGE ( 'NONE', *, *, #1106, .F. ) ;
#950 = VERTEX_POINT ( 'NONE', #978 ) ;
#951 = DIRECTION ( 'NONE',  ( 0.000000000000000000, 0.000000000000000000, -1.000000000000000000 ) ) ;
#952 = DIRECTION ( 'NONE',  ( -0.000000000000000000, 1.000000000000000000, -0.000000000000000000 ) ) ;
#953 = DIRECTION ( 'NONE',  ( 0.000000000000000000, 1.000000000000000000, 0.000000000000000000 ) ) ;
#954 = ORIENTED_EDGE ( 'NONE', *, *, #348, .T. ) ;
#955 = ADVANCED_FACE ( 'NONE', ( #135 ), #225, .F. ) ;
#956 = DIRECTION ( 'NONE',  ( 1.000000000000000000, 0.000000000000000000, 0.000000000000000000 ) ) ;
#957 = EDGE_LOOP ( 'NONE', ( #878, #726 ) ) ;
#958 = AXIS2_PLACEMENT_3D ( 'NONE', #615, #417, #1075 ) ;
#959 = CARTESIAN_POINT ( 'NONE',  ( 33.58757210636080259, 48.39999999999999858, 51.97234841721104459 ) ) ;
#960 = CARTESIAN_POINT ( 'NONE',  ( 33.58757210636080259, 48.39999999999999858, 50.37234841721105028 ) ) ;
#961 = FACE_OUTER_BOUND ( 'NONE', #1336, .T. ) ;
#962 = LINE ( 'NONE', #1394, #924 ) ;
#963 = ORIENTED_EDGE ( 'NONE', *, *, #121, .T. ) ;
#964 = EDGE_CURVE ( 'NONE', #835, #115, #741, .T. ) ;
#965 = AXIS2_PLACEMENT_3D ( 'NONE', #154, #1231, #995 ) ;
#966 = EDGE_LOOP ( 'NONE', ( #748, #757, #260, #1180 ) ) ;
#967 = VECTOR ( 'NONE', #1041, 1000.000000000000000 ) ;
#968 = DIRECTION ( 'NONE',  ( 0.000000000000000000, 0.000000000000000000, 1.000000000000000000 ) ) ;
#969 = AXIS2_PLACEMENT_3D ( 'NONE', #46, #345, #1086 ) ;
#970 = FACE_OUTER_BOUND ( 'NONE', #15, .T. ) ;
#971 = LINE ( 'NONE', #754, #702 ) ;
#972 = ORIENTED_EDGE ( 'NONE', *, *, #600, .T. ) ;
#973 = ORIENTED_EDGE ( 'NONE', *, *, #1019, .F. ) ;
#974 = FACE_OUTER_BOUND ( 'NONE', #340, .T. ) ;
#975 = DIRECTION ( 'NONE',  ( 0.000000000000000000, 0.000000000000000000, 1.000000000000000000 ) ) ;
#976 = DIRECTION ( 'NONE',  ( 0.000000000000000000, 1.000000000000000000, 0.000000000000000000 ) ) ;
#977 = VERTEX_POINT ( 'NONE', #153 ) ;
#978 = CARTESIAN_POINT ( 'NONE',  ( 69.50000000000000000, 48.39999999999999858, 29.80000000000000782 ) ) ;
#979 = EDGE_CURVE ( 'NONE', #708, #950, #32, .T. ) ;
#980 = EDGE_LOOP ( 'NONE', ( #1264, #84 ) ) ;
#981 = CARTESIAN_POINT ( 'NONE',  ( 45.16312671864704242, 48.39999999999999858, -42.30297844118578610 ) ) ;
#982 = CARTESIAN_POINT ( 'NONE',  ( 69.01672159629576697, 43.39999999999999858, -18.13676211729657695 ) ) ;
#983 = VECTOR ( 'NONE', #530, 1000.000000000000000 ) ;
#984 = DIRECTION ( 'NONE',  ( -0.000000000000000000, 1.000000000000000000, -0.000000000000000000 ) ) ;
#985 = EDGE_LOOP ( 'NONE', ( #1307, #519, #1223, #1055 ) ) ;
#986 = CARTESIAN_POINT ( 'NONE',  ( 78.00000000000000000, 48.39999999999999858, -11.39999999999999325 ) ) ;
#987 = CIRCLE ( 'NONE', #380, 4.999999999999999112 ) ;
#988 = ORIENTED_EDGE ( 'NONE', *, *, #544, .T. ) ;
#989 = DIRECTION ( 'NONE',  ( 0.000000000000000000, -1.000000000000000000, 0.000000000000000000 ) ) ;
#990 = CIRCLE ( 'NONE', #386, 84.99999999999963052 ) ;
#991 = CYLINDRICAL_SURFACE ( 'NONE', #1357, 5.000000000000000888 ) ;
#992 = VERTEX_POINT ( 'NONE', #994 ) ;
#993 = AXIS2_PLACEMENT_3D ( 'NONE', #711, #807, #800 ) ;
#994 = CARTESIAN_POINT ( 'NONE',  ( 78.64058469130669948, 43.39999999999999858, 33.59168413613174664 ) ) ;
#995 = DIRECTION ( 'NONE',  ( 0.000000000000000000, 0.000000000000000000, 1.000000000000000000 ) ) ;
#996 = CIRCLE ( 'NONE', #677, 5.000000000000000888 ) ;
#997 = ORIENTED_EDGE ( 'NONE', *, *, #1294, .F. ) ;
#998 = CARTESIAN_POINT ( 'NONE',  ( 70.51041671075779504, 48.39999999999999858, 35.15507765142898933 ) ) ;
#999 = ADVANCED_FACE ( 'NONE', ( #881 ), #574, .F. ) ;
#1000 = LINE ( 'NONE', #901, #1242 ) ;
#1001 = ORIENTED_EDGE ( 'NONE', *, *, #474, .T. ) ;
#1002 = FACE_OUTER_BOUND ( 'NONE', #1157, .T. ) ;
#1003 = CARTESIAN_POINT ( 'NONE',  ( 57.62920266670384706, 43.39999999999999858, 23.68807716974958311 ) ) ;
#1004 = AXIS2_PLACEMENT_3D ( 'NONE', #504, #1236, #267 ) ;
#1005 = ORIENTED_EDGE ( 'NONE', *, *, #188, .F. ) ;
#1006 = PLANE ( 'NONE',  #157 ) ;
#1007 = CARTESIAN_POINT ( 'NONE',  ( 29.34493141924195214, 43.39999999999999858, 51.97234841721148513 ) ) ;
#1008 = EDGE_LOOP ( 'NONE', ( #1370, #834, #828, #663 ) ) ;
#1009 = DIRECTION ( 'NONE',  ( -0.000000000000000000, 1.000000000000000000, -0.000000000000000000 ) ) ;
#1010 =( LENGTH_UNIT ( ) NAMED_UNIT ( * ) SI_UNIT ( .MILLI., .METRE. ) );
#1011 = EDGE_CURVE ( 'NONE', #45, #1390, #1214, .T. ) ;
#1012 = VERTEX_POINT ( 'NONE', #1224 ) ;
#1013 = DIRECTION ( 'NONE',  ( 0.000000000000000000, -1.000000000000000000, 0.000000000000000000 ) ) ;
#1014 = EDGE_LOOP ( 'NONE', ( #1226, #213, #1305, #441 ) ) ;
#1015 = DIRECTION ( 'NONE',  ( -0.000000000000000000, 1.000000000000000000, -0.000000000000000000 ) ) ;
#1016 = DIRECTION ( 'NONE',  ( -0.8571673007021113344, 0.000000000000000000, 0.5150380749100559319 ) ) ;
#1017 = VECTOR ( 'NONE', #843, 1000.000000000000114 ) ;
#1018 = ORIENTED_EDGE ( 'NONE', *, *, #1162, .T. ) ;
#1019 = EDGE_CURVE ( 'NONE', #419, #1133, #1306, .T. ) ;
#1020 = DIRECTION ( 'NONE',  ( -0.000000000000000000, -1.000000000000000000, -0.000000000000000000 ) ) ;
#1021 = CARTESIAN_POINT ( 'NONE',  ( 41.04651059181053796, 43.39999999999999858, -43.32936611856194986 ) ) ;
#1022 = LINE ( 'NONE', #377, #931 ) ;
#1023 = ORIENTED_EDGE ( 'NONE', *, *, #846, .T. ) ;
#1024 = EDGE_CURVE ( 'NONE', #450, #770, #1337, .T. ) ;
#1025 = DIRECTION ( 'NONE',  ( 0.000000000000000000, 1.000000000000000000, 0.000000000000000000 ) ) ;
#1026 = CARTESIAN_POINT ( 'NONE',  ( 76.92073901777487777, 48.39999999999999858, -17.05280793189450250 ) ) ;
#1027 = DIRECTION ( 'NONE',  ( 0.000000000000000000, 1.000000000000000000, 0.000000000000000000 ) ) ;
#1028 = CIRCLE ( 'NONE', #379, 1.599999999999997202 ) ;
#1029 = EDGE_CURVE ( 'NONE', #774, #1176, #1118, .T. ) ;
#1030 = CARTESIAN_POINT ( 'NONE',  ( 48.95982855999957906, 15.54475805715730630, 15.01870306304530978 ) ) ;
#1031 = LINE ( 'NONE', #486, #1082 ) ;
#1032 = DIRECTION ( 'NONE',  ( -0.5150380749100558209, 0.000000000000000000, -0.8571673007021113344 ) ) ;
#1033 = VECTOR ( 'NONE', #1016, 1000.000000000000000 ) ;
#1034 = VECTOR ( 'NONE', #1230, 1000.000000000000000 ) ;
#1035 = AXIS2_PLACEMENT_3D ( 'NONE', #699, #705, #822 ) ;
#1036 = AXIS2_PLACEMENT_3D ( 'NONE', #1107, #477, #1222 ) ;
#1037 = ORIENTED_EDGE ( 'NONE', *, *, #194, .T. ) ;
#1038 = ORIENTED_EDGE ( 'NONE', *, *, #1208, .F. ) ;
#1039 = AXIS2_PLACEMENT_3D ( 'NONE', #117, #547, #975 ) ;
#1040 = CARTESIAN_POINT ( 'NONE',  ( 67.30607546733548929, 48.39999999999999858, -11.27573523923572907 ) ) ;
#1041 = DIRECTION ( 'NONE',  ( -0.000000000000000000, 1.000000000000000000, -0.000000000000000000 ) ) ;
#1042 = DIRECTION ( 'NONE',  ( 0.000000000000000000, 0.000000000000000000, 1.000000000000000000 ) ) ;
#1043 = EDGE_CURVE ( 'NONE', #78, #825, #789, .T. ) ;
#1044 = VERTEX_POINT ( 'NONE', #659 ) ;
#1045 = ORIENTED_EDGE ( 'NONE', *, *, #701, .F. ) ;
#1046 = VERTEX_POINT ( 'NONE', #986 ) ;
#1047 = CARTESIAN_POINT ( 'NONE',  ( 69.50000000000000000, 48.39999999999999858, 26.59999999999999787 ) ) ;
#1048 = DIRECTION ( 'NONE',  ( 0.000000000000000000, 0.000000000000000000, 1.000000000000000000 ) ) ;
#1049 = ADVANCED_FACE ( 'NONE', ( #1323 ), #786, .F. ) ;
#1050 = VERTEX_POINT ( 'NONE', #1110 ) ;
#1051 = VERTEX_POINT ( 'NONE', #353 ) ;
#1052 = FACE_OUTER_BOUND ( 'NONE', #219, .T. ) ;
#1053 = FACE_BOUND ( 'NONE', #218, .T. ) ;
#1054 = CYLINDRICAL_SURFACE ( 'NONE', #427, 1.599999999999997202 ) ;
#1055 = ORIENTED_EDGE ( 'NONE', *, *, #1284, .T. ) ;
#1056 = VECTOR ( 'NONE', #33, 1000.000000000000000 ) ;
#1057 = VERTEX_POINT ( 'NONE', #1192 ) ;
#1058 = ADVANCED_FACE ( 'NONE', ( #1198 ), #144, .F. ) ;
#1059 = CIRCLE ( 'NONE', #201, 5.000000000000000888 ) ;
#1060 = VECTOR ( 'NONE', #521, 1000.000000000000000 ) ;
#1061 = VECTOR ( 'NONE', #1188, 1000.000000000000000 ) ;
#1062 = ADVANCED_FACE ( 'NONE', ( #1002 ), #232, .F. ) ;
#1063 = EDGE_LOOP ( 'NONE', ( #90, #74, #1201, #740 ) ) ;
#1064 = DIRECTION ( 'NONE',  ( 0.7071067811865474617, 0.000000000000000000, 0.7071067811865474617 ) ) ;
#1065 =( NAMED_UNIT ( * ) SI_UNIT ( $, .STERADIAN. ) SOLID_ANGLE_UNIT ( ) );
#1066 = CARTESIAN_POINT ( 'NONE',  ( 46.18951439602320619, 43.39999999999999858, -46.41959456802228345 ) ) ;
#1067 = AXIS2_PLACEMENT_3D ( 'NONE', #850, #10, #758 ) ;
#1068 = CIRCLE ( 'NONE', #1004, 1.599999999999997202 ) ;
#1069 = ORIENTED_EDGE ( 'NONE', *, *, #879, .F. ) ;
#1070 = CYLINDRICAL_SURFACE ( 'NONE', #885, 1.600000000000005862 ) ;
#1071 = DIRECTION ( 'NONE',  ( 0.000000000000000000, 0.000000000000000000, 1.000000000000000000 ) ) ;
#1072 = ORIENTED_EDGE ( 'NONE', *, *, #653, .T. ) ;
#1073 = VERTEX_POINT ( 'NONE', #1026 ) ;
#1074 = CARTESIAN_POINT ( 'NONE',  ( 79.50000000000000000, 48.39999999999999858, -5.000000000000000000 ) ) ;
#1075 = DIRECTION ( 'NONE',  ( 0.000000000000000000, 0.000000000000000000, 1.000000000000000000 ) ) ;
#1076 = EDGE_CURVE ( 'NONE', #325, #255, #1031, .T. ) ;
#1077 = FACE_BOUND ( 'NONE', #536, .T. ) ;
#1078 = ORIENTED_EDGE ( 'NONE', *, *, #1356, .F. ) ;
#1079 = ORIENTED_EDGE ( 'NONE', *, *, #695, .T. ) ;
#1080 = AXIS2_PLACEMENT_3D ( 'NONE', #1272, #430, #303 ) ;
#1081 = CARTESIAN_POINT ( 'NONE',  ( 56.47548792926680505, 48.39999999999999858, -7.943215570130732317 ) ) ;
#1082 = VECTOR ( 'NONE', #1015, 1000.000000000000000 ) ;
#1083 = CYLINDRICAL_SURFACE ( 'NONE', #1039, 4.250000000000005329 ) ;
#1084 = DIRECTION ( 'NONE',  ( -0.000000000000000000, -1.000000000000000000, -0.000000000000000000 ) ) ;
#1085 = ORIENTED_EDGE ( 'NONE', *, *, #101, .T. ) ;
#1086 = DIRECTION ( 'NONE',  ( 0.000000000000000000, 0.000000000000000000, -1.000000000000000000 ) ) ;
#1087 = ADVANCED_FACE ( 'NONE', ( #1124 ), #180, .F. ) ;
#1088 = ORIENTED_EDGE ( 'NONE', *, *, #1274, .F. ) ;
#1089 = LINE ( 'NONE', #132, #449 ) ;
#1090 = CARTESIAN_POINT ( 'NONE',  ( 62.57895013501040182, 48.39999999999999858, 27.22361107568160676 ) ) ;
#1091 = FACE_OUTER_BOUND ( 'NONE', #1340, .T. ) ;
#1092 = ORIENTED_EDGE ( 'NONE', *, *, #510, .T. ) ;
#1093 = FACE_OUTER_BOUND ( 'NONE', #639, .T. ) ;
#1094 = CARTESIAN_POINT ( 'NONE',  ( 60.42934015416136617, 48.39999999999999858, 0.8827874259357323394 ) ) ;
#1095 = VERTEX_POINT ( 'NONE', #927 ) ;
#1096 = DIRECTION ( 'NONE',  ( 0.000000000000000000, 1.000000000000000000, 0.000000000000000000 ) ) ;
#1097 = AXIS2_PLACEMENT_3D ( 'NONE', #1260, #297, #724 ) ;
#1098 = FACE_OUTER_BOUND ( 'NONE', #605, .T. ) ;
#1099 = VERTEX_POINT ( 'NONE', #282 ) ;
#1100 = DIRECTION ( 'NONE',  ( 0.000000000000000000, -1.000000000000000000, 0.000000000000000000 ) ) ;
#1101 = CARTESIAN_POINT ( 'NONE',  ( 62.57895013501040182, 48.39999999999999858, 27.22361107568160676 ) ) ;
#1102 = CIRCLE ( 'NONE', #713, 1.599999999999997202 ) ;
#1103 = PRODUCT_DEFINITION ( 'UNKNOWN', '', #788, #804 ) ;
#1104 = ORIENTED_EDGE ( 'NONE', *, *, #1257, .T. ) ;
#1105 = CARTESIAN_POINT ( 'NONE',  ( 69.50000000000000000, 43.39999999999999858, 29.80000000000000782 ) ) ;
#1106 = EDGE_CURVE ( 'NONE', #322, #435, #266, .T. ) ;
#1107 = CARTESIAN_POINT ( 'NONE',  ( 50.55813485483837155, 43.39999999999999858, 23.68807716974957955 ) ) ;
#1108 = ORIENTED_EDGE ( 'NONE', *, *, #41, .T. ) ;
#1109 = AXIS2_PLACEMENT_3D ( 'NONE', #358, #686, #254 ) ;
#1110 = CARTESIAN_POINT ( 'NONE',  ( 60.76132443277736428, 43.39999999999999858, -10.51840594468100853 ) ) ;
#1111 = DIRECTION ( 'NONE',  ( -0.000000000000000000, 1.000000000000000000, 0.000000000000000000 ) ) ;
#1112 = AXIS2_PLACEMENT_3D ( 'NONE', #18, #1297, #753 ) ;
#1113 = ORIENTED_EDGE ( 'NONE', *, *, #1381, .T. ) ;
#1114 = CARTESIAN_POINT ( 'NONE',  ( 59.04341622907766407, 48.39999999999999858, 30.75914498161434096 ) ) ;
#1115 = CARTESIAN_POINT ( 'NONE',  ( 69.00000000000000000, 43.39999999999999858, -1.000000000000000888 ) ) ;
#1116 = ORIENTED_EDGE ( 'NONE', *, *, #1217, .F. ) ;
#1117 = ADVANCED_FACE ( 'NONE', ( #815 ), #693, .T. ) ;
#1118 = LINE ( 'NONE', #756, #851 ) ;
#1119 = CARTESIAN_POINT ( 'NONE',  ( 79.49592939232516642, 43.39999999999999858, -12.76697142838393795 ) ) ;
#1120 = CIRCLE ( 'NONE', #749, 5.000000000000000888 ) ;
#1121 = ORIENTED_EDGE ( 'NONE', *, *, #215, .F. ) ;
#1122 = LINE ( 'NONE', #164, #629 ) ;
#1123 = VERTEX_POINT ( 'NONE', #608 ) ;
#1124 = FACE_OUTER_BOUND ( 'NONE', #584, .T. ) ;
#1125 = DIRECTION ( 'NONE',  ( -0.000000000000000000, -1.000000000000000000, -0.000000000000000000 ) ) ;
#1126 = EDGE_CURVE ( 'NONE', #375, #231, #376, .T. ) ;
#1127 = ORIENTED_EDGE ( 'NONE', *, *, #1132, .F. ) ;
#1128 = CARTESIAN_POINT ( 'NONE',  ( 78.00000000000000000, 43.39999999999999858, -14.60000000000000497 ) ) ;
#1129 = DIRECTION ( 'NONE',  ( 0.000000000000000000, 1.000000000000000000, 0.000000000000000000 ) ) ;
#1130 = CARTESIAN_POINT ( 'NONE',  ( 69.00000000000000000, 6.630447378299527905, 12.00000000000000000 ) ) ;
#1131 = CIRCLE ( 'NONE', #523, 13.00000000000000178 ) ;
#1132 = EDGE_CURVE ( 'NONE', #1073, #1295, #170, .T. ) ;
#1133 = VERTEX_POINT ( 'NONE', #910 ) ;
#1134 = AXIS2_PLACEMENT_3D ( 'NONE', #94, #1167, #951 ) ;
#1135 = CARTESIAN_POINT ( 'NONE',  ( 0.5318054228320850951, 43.39999999999999858, 0.06529749532824952185 ) ) ;
#1136 = LINE ( 'NONE', #1030, #812 ) ;
#1137 = LINE ( 'NONE', #438, #150 ) ;
#1138 = EDGE_CURVE ( 'NONE', #790, #721, #652, .T. ) ;
#1139 = DIRECTION ( 'NONE',  ( 0.000000000000000000, 0.000000000000000000, -1.000000000000000000 ) ) ;
#1140 = CARTESIAN_POINT ( 'NONE',  ( 69.00000000000000000, 48.39999999999999858, 12.00000000000000000 ) ) ;
#1141 = LINE ( 'NONE', #1147, #670 ) ;
#1142 = ORIENTED_EDGE ( 'NONE', *, *, #373, .T. ) ;
#1143 = VERTEX_POINT ( 'NONE', #174 ) ;
#1144 = FACE_OUTER_BOUND ( 'NONE', #1063, .T. ) ;
#1145 = ADVANCED_FACE ( 'NONE', ( #261 ), #286, .F. ) ;
#1146 = CARTESIAN_POINT ( 'NONE',  ( 45.16312671864704242, 48.39999999999999858, -42.30297844118578610 ) ) ;
#1147 = CARTESIAN_POINT ( 'NONE',  ( 84.43118714041851547, 48.39999999999999858, -13.56898823611595617 ) ) ;
#1148 = STYLED_ITEM ( 'NONE', ( #1324 ), #59 ) ;
#1149 = VECTOR ( 'NONE', #1009, 1000.000000000000000 ) ;
#1150 = ORIENTED_EDGE ( 'NONE', *, *, #600, .F. ) ;
#1151 = ORIENTED_EDGE ( 'NONE', *, *, #1019, .T. ) ;
#1152 = DIRECTION ( 'NONE',  ( 0.000000000000000000, -1.000000000000000000, -0.000000000000000000 ) ) ;
#1153 = LINE ( 'NONE', #1280, #175 ) ;
#1154 = EDGE_CURVE ( 'NONE', #450, #1161, #1235, .T. ) ;
#1155 = ORIENTED_EDGE ( 'NONE', *, *, #1311, .T. ) ;
#1156 = ORIENTED_EDGE ( 'NONE', *, *, #1138, .F. ) ;
#1157 = EDGE_LOOP ( 'NONE', ( #863, #1359, #1078, #245 ) ) ;
#1158 = LINE ( 'NONE', #926, #387 ) ;
#1159 = FACE_OUTER_BOUND ( 'NONE', #35, .T. ) ;
#1160 = EDGE_CURVE ( 'NONE', #1046, #1133, #434, .T. ) ;
#1161 = VERTEX_POINT ( 'NONE', #1344 ) ;
#1162 = EDGE_CURVE ( 'NONE', #433, #356, #509, .T. ) ;
#1163 = AXIS2_PLACEMENT_3D ( 'NONE', #534, #746, #1382 ) ;
#1164 = ORIENTED_EDGE ( 'NONE', *, *, #155, .T. ) ;
#1165 = VECTOR ( 'NONE', #1096, 1000.000000000000000 ) ;
#1166 = ORIENTED_EDGE ( 'NONE', *, *, #858, .F. ) ;
#1167 = DIRECTION ( 'NONE',  ( 0.000000000000000000, -1.000000000000000000, 0.000000000000000000 ) ) ;
#1168 = DIRECTION ( 'NONE',  ( 0.000000000000000000, 1.000000000000000000, 0.000000000000000000 ) ) ;
#1169 = VECTOR ( 'NONE', #158, 1000.000000000000000 ) ;
#1170 = EDGE_CURVE ( 'NONE', #110, #542, #410, .T. ) ;
#1171 = VECTOR ( 'NONE', #768, 1000.000000000000000 ) ;
#1172 = VERTEX_POINT ( 'NONE', #370 ) ;
#1173 = CARTESIAN_POINT ( 'NONE',  ( 51.97234841721103038, 48.39999999999999858, 35.18757210636078980 ) ) ;
#1174 = CARTESIAN_POINT ( 'NONE',  ( 61.64803358821276902, 48.39999999999999858, -9.042674090477506255 ) ) ;
#1175 = DIRECTION ( 'NONE',  ( 0.000000000000000000, -1.000000000000000000, -0.000000000000000000 ) ) ;
#1176 = VERTEX_POINT ( 'NONE', #1021 ) ;
#1177 = APPLICATION_PROTOCOL_DEFINITION ( 'draft international standard', 'automotive_design', 1998, #591 ) ;
#1178 = EDGE_CURVE ( 'NONE', #1161, #400, #1131, .T. ) ;
#1179 = VECTOR ( 'NONE', #1241, 999.9999999999998863 ) ;
#1180 = ORIENTED_EDGE ( 'NONE', *, *, #589, .T. ) ;
#1181 = CARTESIAN_POINT ( 'NONE',  ( 78.00000000000000000, 38.87451660040608203, -13.00000000000000000 ) ) ;
#1182 = CARTESIAN_POINT ( 'NONE',  ( 62.67442126558891857, 43.39999999999999858, -14.75929021731400148 ) ) ;
#1183 = DIRECTION ( 'NONE',  ( -0.000000000000000000, -1.000000000000000000, -0.000000000000000000 ) ) ;
#1184 = PLANE ( 'NONE',  #1320 ) ;
#1185 = VERTEX_POINT ( 'NONE', #794 ) ;
#1186 = EDGE_LOOP ( 'NONE', ( #499, #1384, #332, #1256 ) ) ;
#1187 = CARTESIAN_POINT ( 'NONE',  ( 67.30607546733548929, 43.39999999999999858, -11.27573523923572907 ) ) ;
#1188 = DIRECTION ( 'NONE',  ( -0.000000000000000000, 1.000000000000000000, -0.000000000000000000 ) ) ;
#1189 = CARTESIAN_POINT ( 'NONE',  ( 74.04595061669053280, 43.39999999999999858, 31.61954374549624092 ) ) ;
#1190 = ORIENTED_EDGE ( 'NONE', *, *, #1207, .F. ) ;
#1191 = EDGE_CURVE ( 'NONE', #55, #1143, #598, .T. ) ;
#1192 = CARTESIAN_POINT ( 'NONE',  ( 48.95982855999957906, 43.39999999999999858, 15.01870306304530978 ) ) ;
#1193 = ORIENTED_EDGE ( 'NONE', *, *, #1207, .T. ) ;
#1194 = CARTESIAN_POINT ( 'NONE',  ( 33.58757210636123602, 43.39999999999999858, 56.21498910433076901 ) ) ;
#1195 = DIRECTION ( 'NONE',  ( -2.775557561562890957E-15, 0.000000000000000000, -1.000000000000000000 ) ) ;
#1196 = DIRECTION ( 'NONE',  ( -0.000000000000000000, 1.000000000000000000, 0.000000000000000000 ) ) ;
#1197 = ORIENTED_EDGE ( 'NONE', *, *, #269, .T. ) ;
#1198 = FACE_OUTER_BOUND ( 'NONE', #1014, .T. ) ;
#1199 = DIRECTION ( 'NONE',  ( 0.000000000000000000, 1.000000000000000000, 0.000000000000000000 ) ) ;
#1200 = EDGE_CURVE ( 'NONE', #295, #300, #1349, .T. ) ;
#1201 = ORIENTED_EDGE ( 'NONE', *, *, #846, .F. ) ;
#1202 = DIRECTION ( 'NONE',  ( 0.000000000000000000, 0.000000000000000000, 1.000000000000000000 ) ) ;
#1203 = CARTESIAN_POINT ( 'NONE',  ( 69.01672159629576697, 48.39999999999999858, -18.13676211729657695 ) ) ;
#1204 = ORIENTED_EDGE ( 'NONE', *, *, #205, .T. ) ;
#1205 = CARTESIAN_POINT ( 'NONE',  ( 64.73088509278520064, 43.39999999999999858, -15.56157174274629540 ) ) ;
#1206 = LINE ( 'NONE', #1003, #1283 ) ;
#1207 = EDGE_CURVE ( 'NONE', #721, #1057, #1136, .T. ) ;
#1208 = EDGE_CURVE ( 'NONE', #721, #255, #1158, .T. ) ;
#1209 = VERTEX_POINT ( 'NONE', #1253 ) ;
#1210 = DIRECTION ( 'NONE',  ( 0.000000000000000000, 0.000000000000000000, -1.000000000000000000 ) ) ;
#1211 = CIRCLE ( 'NONE', #780, 5.000000000000000888 ) ;
#1212 = DIRECTION ( 'NONE',  ( -0.000000000000000000, 1.000000000000000000, -0.000000000000000000 ) ) ;
#1213 = VERTEX_POINT ( 'NONE', #1247 ) ;
#1214 = LINE ( 'NONE', #683, #606 ) ;
#1215 = CARTESIAN_POINT ( 'NONE',  ( 69.01672159629576697, 48.39999999999999858, -18.13676211729657695 ) ) ;
#1216 = AXIS2_PLACEMENT_3D ( 'NONE', #1215, #1331, #247 ) ;
#1217 = EDGE_CURVE ( 'NONE', #255, #295, #89, .T. ) ;
#1218 = VERTEX_POINT ( 'NONE', #1047 ) ;
#1219 = CARTESIAN_POINT ( 'NONE',  ( 51.97234841721103038, 48.39999999999999858, 33.58757210636078838 ) ) ;
#1220 = UNCERTAINTY_MEASURE_WITH_UNIT (LENGTH_MEASURE( 1.000000000000000082E-05 ), #1010, 'distance_accuracy_value', 'NONE');
#1221 = AXIS2_PLACEMENT_3D ( 'NONE', #1282, #446, #956 ) ;
#1222 = DIRECTION ( 'NONE',  ( 1.387778780781445478E-15, 0.000000000000000000, -1.000000000000000000 ) ) ;
#1223 = ORIENTED_EDGE ( 'NONE', *, *, #781, .F. ) ;
#1224 = CARTESIAN_POINT ( 'NONE',  ( 45.16312671864704242, 48.39999999999999858, -43.90297844118578752 ) ) ;
#1225 = DIRECTION ( 'NONE',  ( 0.000000000000000000, 1.000000000000000000, 0.000000000000000000 ) ) ;
#1226 = ORIENTED_EDGE ( 'NONE', *, *, #791, .F. ) ;
#1227 = ADVANCED_FACE ( 'NONE', ( #831, #285, #601, #710, #614, #408, #67, #1053, #186 ), #502, .T. ) ;
#1228 = CARTESIAN_POINT ( 'NONE',  ( 69.00000000000000000, 48.39999999999999858, 25.00000000000000000 ) ) ;
#1229 = VERTEX_POINT ( 'NONE', #597 ) ;
#1230 = DIRECTION ( 'NONE',  ( 0.7071067811865482389, 0.000000000000000000, 0.7071067811865469066 ) ) ;
#1231 = DIRECTION ( 'NONE',  ( 0.000000000000000000, 1.000000000000000000, 0.000000000000000000 ) ) ;
#1232 = VERTEX_POINT ( 'NONE', #826 ) ;
#1233 = DIRECTION ( 'NONE',  ( -0.000000000000000000, -1.000000000000000000, -0.000000000000000000 ) ) ;
#1234 = ORIENTED_EDGE ( 'NONE', *, *, #306, .F. ) ;
#1235 = LINE ( 'NONE', #1362, #967 ) ;
#1236 = DIRECTION ( 'NONE',  ( 0.000000000000000000, 1.000000000000000000, 0.000000000000000000 ) ) ;
#1237 = VECTOR ( 'NONE', #460, 1000.000000000000000 ) ;
#1238 = ORIENTED_EDGE ( 'NONE', *, *, #373, .F. ) ;
#1239 = CARTESIAN_POINT ( 'NONE',  ( 70.51041671075779504, 48.39999999999999858, 35.15507765142898933 ) ) ;
#1240 = CARTESIAN_POINT ( 'NONE',  ( 29.34493141924195214, 48.39999999999999858, 51.97234841721148513 ) ) ;
#1241 = DIRECTION ( 'NONE',  ( -0.8571673007021113344, 0.000000000000000000, 0.5150380749100558209 ) ) ;
#1242 = VECTOR ( 'NONE', #151, 1000.000000000000114 ) ;
#1243 = AXIS2_PLACEMENT_3D ( 'NONE', #737, #102, #423 ) ;
#1244 = ADVANCED_FACE ( 'NONE', ( #1266 ), #173, .T. ) ;
#1245 = CIRCLE ( 'NONE', #632, 1.600000000000005862 ) ;
#1246 = CIRCLE ( 'NONE', #929, 1.600000000000005862 ) ;
#1247 = CARTESIAN_POINT ( 'NONE',  ( 71.59191197084605562, 48.39999999999999858, -13.85092561378601772 ) ) ;
#1248 = DIRECTION ( 'NONE',  ( -0.000000000000000000, -1.000000000000000000, -0.000000000000000000 ) ) ;
#1249 = LINE ( 'NONE', #808, #1179 ) ;
#1250 = CIRCLE ( 'NONE', #500, 5.000000000000000888 ) ;
#1251 = VERTEX_POINT ( 'NONE', #1353 ) ;
#1252 = ADVANCED_FACE ( 'NONE', ( #1144 ), #191, .F. ) ;
#1253 = CARTESIAN_POINT ( 'NONE',  ( 71.59191197084605562, 43.39999999999999858, -13.85092561378601772 ) ) ;
#1254 = DIRECTION ( 'NONE',  ( 0.000000000000000000, 0.000000000000000000, -1.000000000000000000 ) ) ;
#1255 = CARTESIAN_POINT ( 'NONE',  ( 79.49592939232516642, 48.39999999999999858, -12.76697142838393795 ) ) ;
#1256 = ORIENTED_EDGE ( 'NONE', *, *, #1162, .F. ) ;
#1257 = EDGE_CURVE ( 'NONE', #1176, #1050, #296, .T. ) ;
#1258 = VERTEX_POINT ( 'NONE', #388 ) ;
#1259 = CARTESIAN_POINT ( 'NONE',  ( 74.04595061669053280, 48.39999999999999858, 31.61954374549624092 ) ) ;
#1260 = CARTESIAN_POINT ( 'NONE',  ( 69.01672159629576697, 48.39999999999999858, -18.13676211729657695 ) ) ;
#1261 = CIRCLE ( 'NONE', #631, 5.000000000000000000 ) ;
#1262 = VECTOR ( 'NONE', #491, 1000.000000000000000 ) ;
#1263 = ORIENTED_EDGE ( 'NONE', *, *, #1106, .T. ) ;
#1264 = ORIENTED_EDGE ( 'NONE', *, *, #662, .F. ) ;
#1265 = EDGE_CURVE ( 'NONE', #1073, #1213, #718, .T. ) ;
#1266 = FACE_OUTER_BOUND ( 'NONE', #870, .T. ) ;
#1267 = CARTESIAN_POINT ( 'NONE',  ( 33.58757210636080259, 43.39999999999999858, 51.97234841721104459 ) ) ;
#1268 = ADVANCED_FACE ( 'NONE', ( #87 ), #81, .F. ) ;
#1269 = VERTEX_POINT ( 'NONE', #403 ) ;
#1270 = VERTEX_POINT ( 'NONE', #513 ) ;
#1271 = DIRECTION ( 'NONE',  ( -0.000000000000000000, 1.000000000000000000, -0.000000000000000000 ) ) ;
#1272 = CARTESIAN_POINT ( 'NONE',  ( 79.49592939232516642, 43.39999999999999858, -12.76697142838393795 ) ) ;
#1273 = FACE_OUTER_BOUND ( 'NONE', #316, .T. ) ;
#1274 = EDGE_CURVE ( 'NONE', #1329, #1372, #696, .T. ) ;
#1275 = AXIS2_PLACEMENT_3D ( 'NONE', #934, #940, #1368 ) ;
#1276 = EDGE_LOOP ( 'NONE', ( #1005, #954, #7, #1127 ) ) ;
#1277 = ORIENTED_EDGE ( 'NONE', *, *, #466, .T. ) ;
#1278 = LINE ( 'NONE', #1287, #193 ) ;
#1279 = LINE ( 'NONE', #636, #457 ) ;
#1280 = CARTESIAN_POINT ( 'NONE',  ( 46.18951439602320619, 48.39999999999999858, -46.41959456802228345 ) ) ;
#1281 = ORIENTED_EDGE ( 'NONE', *, *, #1126, .T. ) ;
#1282 = CARTESIAN_POINT ( 'NONE',  ( 0.000000000000000000, 0.000000000000000000, 0.000000000000000000 ) ) ;
#1283 = VECTOR ( 'NONE', #1315, 999.9999999999998863 ) ;
#1284 = EDGE_CURVE ( 'NONE', #231, #774, #382, .T. ) ;
#1285 = AXIS2_PLACEMENT_3D ( 'NONE', #343, #1084, #118 ) ;
#1286 = AXIS2_PLACEMENT_3D ( 'NONE', #982, #868, #861 ) ;
#1287 = CARTESIAN_POINT ( 'NONE',  ( 33.58757210636080259, 48.39999999999999858, 50.37234841721105028 ) ) ;
#1288 = DIRECTION ( 'NONE',  ( 0.000000000000000000, 0.000000000000000000, -1.000000000000000000 ) ) ;
#1289 = DIRECTION ( 'NONE',  ( -0.8571673007021116675, 0.000000000000000000, 0.5150380749100552658 ) ) ;
#1290 = DIRECTION ( 'NONE',  ( 0.000000000000000000, 0.000000000000000000, -1.000000000000000000 ) ) ;
#1291 = ORIENTED_EDGE ( 'NONE', *, *, #1011, .F. ) ;
#1292 = APPLICATION_PROTOCOL_DEFINITION ( 'draft international standard', 'automotive_design', 1998, #448 ) ;
#1293 = VECTOR ( 'NONE', #869, 1000.000000000000114 ) ;
#1294 = EDGE_CURVE ( 'NONE', #1143, #611, #806, .T. ) ;
#1295 = VERTEX_POINT ( 'NONE', #698 ) ;
#1296 = DIRECTION ( 'NONE',  ( 0.000000000000000000, -1.000000000000000000, -0.000000000000000000 ) ) ;
#1297 = DIRECTION ( 'NONE',  ( 0.000000000000000000, 1.000000000000000000, 0.000000000000000000 ) ) ;
#1298 = LINE ( 'NONE', #6, #98 ) ;
#1299 = ORIENTED_EDGE ( 'NONE', *, *, #1341, .T. ) ;
#1300 = ORIENTED_EDGE ( 'NONE', *, *, #188, .T. ) ;
#1301 = CARTESIAN_POINT ( 'NONE',  ( 29.34493141924195214, 48.39999999999999858, 51.97234841721148513 ) ) ;
#1302 = AXIS2_PLACEMENT_3D ( 'NONE', #561, #892, #679 ) ;
#1303 = DIRECTION ( 'NONE',  ( 0.7071067811865475727, 0.000000000000000000, -0.7071067811865474617 ) ) ;
#1304 = FACE_BOUND ( 'NONE', #524, .T. ) ;
#1305 = ORIENTED_EDGE ( 'NONE', *, *, #562, .T. ) ;
#1306 = LINE ( 'NONE', #651, #1149 ) ;
#1307 = ORIENTED_EDGE ( 'NONE', *, *, #1029, .T. ) ;
#1308 = VECTOR ( 'NONE', #383, 1000.000000000000000 ) ;
#1309 = FACE_OUTER_BOUND ( 'NONE', #455, .T. ) ;
#1310 = DIRECTION ( 'NONE',  ( 0.000000000000000000, 0.000000000000000000, -1.000000000000000000 ) ) ;
#1311 = EDGE_CURVE ( 'NONE', #356, #1095, #181, .T. ) ;
#1312 = LINE ( 'NONE', #125, #576 ) ;
#1313 = EDGE_LOOP ( 'NONE', ( #407, #569, #1018, #359 ) ) ;
#1314 = CARTESIAN_POINT ( 'NONE',  ( 78.00000000000000000, 43.39999999999999858, -13.00000000000000000 ) ) ;
#1315 = DIRECTION ( 'NONE',  ( 0.7071067811865473507, 0.000000000000000000, 0.7071067811865477948 ) ) ;
#1316 = EDGE_CURVE ( 'NONE', #1390, #977, #1279, .T. ) ;
#1317 = CIRCLE ( 'NONE', #1067, 1.600000000000004086 ) ;
#1318 = ORIENTED_EDGE ( 'NONE', *, *, #112, .F. ) ;
#1319 = CARTESIAN_POINT ( 'NONE',  ( 0.5318054228320850951, 43.39999999999999858, 0.06529749532824952185 ) ) ;
#1320 = AXIS2_PLACEMENT_3D ( 'NONE', #563, #776, #1290 ) ;
#1321 = FACE_BOUND ( 'NONE', #755, .T. ) ;
#1322 = ORIENTED_EDGE ( 'NONE', *, *, #315, .T. ) ;
#1323 = FACE_OUTER_BOUND ( 'NONE', #985, .T. ) ;
#1324 = PRESENTATION_STYLE_ASSIGNMENT (( #257 ) ) ;
#1325 = EDGE_CURVE ( 'NONE', #1051, #1123, #905, .T. ) ;
#1326 = ORIENTED_EDGE ( 'NONE', *, *, #234, .F. ) ;
#1327 = CARTESIAN_POINT ( 'NONE',  ( 79.50000000000000000, 31.37918471982867885, -5.000000000000000000 ) ) ;
#1328 = CARTESIAN_POINT ( 'NONE',  ( 51.97234841721103038, 48.39999999999999858, 31.98757210636079407 ) ) ;
#1329 = VERTEX_POINT ( 'NONE', #1182 ) ;
#1330 = CARTESIAN_POINT ( 'NONE',  ( 45.16312671864704242, 43.39999999999999858, -42.30297844118578610 ) ) ;
#1331 = DIRECTION ( 'NONE',  ( 0.000000000000000000, -1.000000000000000000, -0.000000000000000000 ) ) ;
#1332 = CIRCLE ( 'NONE', #1216, 5.000000000000000888 ) ;
#1333 = VERTEX_POINT ( 'NONE', #960 ) ;
#1334 = DIRECTION ( 'NONE',  ( -0.000000000000000000, 1.000000000000000000, 0.000000000000000000 ) ) ;
#1335 = CARTESIAN_POINT ( 'NONE',  ( 79.49592939232516642, 48.39999999999999858, -12.76697142838393795 ) ) ;
#1336 = EDGE_LOOP ( 'NONE', ( #251, #525, #1088, #512 ) ) ;
#1337 = CIRCLE ( 'NONE', #70, 13.00000000000000178 ) ;
#1338 = DIRECTION ( 'NONE',  ( 0.000000000000000000, 1.000000000000000000, 0.000000000000000000 ) ) ;
#1339 = CARTESIAN_POINT ( 'NONE',  ( 33.58757210636123602, 48.39999999999999858, 56.21498910433076901 ) ) ;
#1340 = EDGE_LOOP ( 'NONE', ( #691, #527, #420, #478 ) ) ;
#1341 = EDGE_CURVE ( 'NONE', #770, #450, #1375, .T. ) ;
#1342 = CYLINDRICAL_SURFACE ( 'NONE', #1109, 1.599999999999997202 ) ;
#1343 = VERTEX_POINT ( 'NONE', #208 ) ;
#1344 = CARTESIAN_POINT ( 'NONE',  ( 69.00000000000000000, 48.39999999999999858, -1.000000000000000888 ) ) ;
#1345 = CARTESIAN_POINT ( 'NONE',  ( 62.67442126558891857, 48.39999999999999858, -13.15929021731400361 ) ) ;
#1346 = ORIENTED_EDGE ( 'NONE', *, *, #1, .T. ) ;
#1347 = LINE ( 'NONE', #381, #320 ) ;
#1348 = DIRECTION ( 'NONE',  ( 0.5150380749100558209, 0.000000000000000000, 0.8571673007021113344 ) ) ;
#1349 = LINE ( 'NONE', #688, #1308 ) ;
#1350 = AXIS2_PLACEMENT_3D ( 'NONE', #36, #783, #514 ) ;
#1351 = DIRECTION ( 'NONE',  ( -0.000000000000000000, 1.000000000000000000, -0.000000000000000000 ) ) ;
#1352 = AXIS2_PLACEMENT_3D ( 'NONE', #1327, #570, #1202 ) ;
#1353 = CARTESIAN_POINT ( 'NONE',  ( 58.33899802213409203, 43.39999999999999858, 2.138791693365039936 ) ) ;
#1354 = DIRECTION ( 'NONE',  ( 0.000000000000000000, 0.000000000000000000, 1.000000000000000000 ) ) ;
#1355 = CARTESIAN_POINT ( 'NONE',  ( 69.50000000000000000, 38.87451660040608203, 28.20000000000000284 ) ) ;
#1356 = EDGE_CURVE ( 'NONE', #977, #1343, #1261, .T. ) ;
#1357 = AXIS2_PLACEMENT_3D ( 'NONE', #671, #104, #535 ) ;
#1358 = AXIS2_PLACEMENT_3D ( 'NONE', #14, #360, #472 ) ;
#1359 = ORIENTED_EDGE ( 'NONE', *, *, #452, .F. ) ;
#1360 = ORIENTED_EDGE ( 'NONE', *, *, #505, .F. ) ;
#1361 = DIRECTION ( 'NONE',  ( 0.7071067811865473507, -0.000000000000000000, 0.7071067811865477948 ) ) ;
#1362 = CARTESIAN_POINT ( 'NONE',  ( 69.00000000000000000, 6.630447378299527905, -1.000000000000000888 ) ) ;
#1363 = FACE_OUTER_BOUND ( 'NONE', #366, .T. ) ;
#1364 = AXIS2_PLACEMENT_3D ( 'NONE', #706, #1027, #1042 ) ;
#1365 = ORIENTED_EDGE ( 'NONE', *, *, #573, .T. ) ;
#1366 = ORIENTED_EDGE ( 'NONE', *, *, #1356, .T. ) ;
#1367 = CARTESIAN_POINT ( 'NONE',  ( 62.67442126558891857, 43.39999999999999858, -13.15929021731400361 ) ) ;
#1368 = DIRECTION ( 'NONE',  ( -9.714451465470121306E-15, 0.000000000000000000, -1.000000000000000000 ) ) ;
#1369 = AXIS2_PLACEMENT_3D ( 'NONE', #1319, #1334, #1210 ) ;
#1370 = ORIENTED_EDGE ( 'NONE', *, *, #240, .F. ) ;
#1371 = EDGE_CURVE ( 'NONE', #830, #1377, #1392, .T. ) ;
#1372 = VERTEX_POINT ( 'NONE', #1386 ) ;
#1373 = DIRECTION ( 'NONE',  ( 0.000000000000000000, 1.000000000000000000, 0.000000000000000000 ) ) ;
#1374 = CARTESIAN_POINT ( 'NONE',  ( 45.16312671864704242, 43.39999999999999858, -43.90297844118578752 ) ) ;
#1375 = CIRCLE ( 'NONE', #1243, 13.00000000000000178 ) ;
#1376 = PRODUCT_DEFINITION_SHAPE ( 'NONE', 'NONE',  #1103 ) ;
#1377 = VERTEX_POINT ( 'NONE', #852 ) ;
#1378 = ORIENTED_EDGE ( 'NONE', *, *, #355, .F. ) ;
#1379 = DIRECTION ( 'NONE',  ( -0.7071067811865474617, -0.000000000000000000, 0.7071067811865474617 ) ) ;
#1380 = CARTESIAN_POINT ( 'NONE',  ( 60.72653840579042850, 43.39999999999999858, -1.537698093119816978 ) ) ;
#1381 = EDGE_CURVE ( 'NONE', #195, #977, #318, .T. ) ;
#1382 = DIRECTION ( 'NONE',  ( 0.5150380749100557098, 0.000000000000000000, 0.8571673007021114454 ) ) ;
#1383 = ORIENTED_EDGE ( 'NONE', *, *, #752, .T. ) ;
#1384 = ORIENTED_EDGE ( 'NONE', *, *, #583, .T. ) ;
#1385 = CARTESIAN_POINT ( 'NONE',  ( 33.58757210636080259, 48.39999999999999858, 51.97234841721104459 ) ) ;
#1386 = CARTESIAN_POINT ( 'NONE',  ( 62.67442126558891857, 43.39999999999999858, -11.55929021731400752 ) ) ;
#1387 = DIRECTION ( 'NONE',  ( 0.000000000000000000, 1.000000000000000000, 0.000000000000000000 ) ) ;
#1388 = ORIENTED_EDGE ( 'NONE', *, *, #1200, .T. ) ;
#1389 = AXIS2_PLACEMENT_3D ( 'NONE', #739, #1168, #187 ) ;
#1390 = VERTEX_POINT ( 'NONE', #1380 ) ;
#1391 = DIRECTION ( 'NONE',  ( 0.000000000000000000, 0.000000000000000000, -1.000000000000000000 ) ) ;
#1392 = LINE ( 'NONE', #310, #26 ) ;
#1393 = CARTESIAN_POINT ( 'NONE',  ( 79.50000000000000000, 48.39999999999999858, -5.000000000000000000 ) ) ;
#1394 = CARTESIAN_POINT ( 'NONE',  ( 79.49592939232516642, 48.39999999999999858, -17.76697142838393972 ) ) ;
#1395 = ORIENTED_EDGE ( 'NONE', *, *, #847, .T. ) ;
ENDSEC;
END-ISO-10303-21;
