ISO-10303-21;
HEADER;
FILE_DESCRIPTION (( 'STEP AP214' ),
    '1' );
FILE_NAME ('mikona-holder-back.STEP',
    '2026-03-26T18:43:13',
    ( '' ),
    ( '' ),
    'SwSTEP 2.0',
    'SolidWorks 2026',
    '' );
FILE_SCHEMA (( 'AUTOMOTIVE_DESIGN' ));
ENDSEC;

DATA;
#1 = LINE ( 'NONE', #141, #180 ) ;
#2 = CARTESIAN_POINT ( 'NONE',  ( -25.29999999999999716, -19.50000000000000000, 0.000000000000000000 ) ) ;
#3 = ORIENTED_EDGE ( 'NONE', *, *, #32, .T. ) ;
#4 = EDGE_CURVE ( 'NONE', #239, #464, #695, .T. ) ;
#5 = DIRECTION ( 'NONE',  ( 1.000000000000000000, 0.000000000000000000, 0.000000000000000000 ) ) ;
#6 = ORIENTED_EDGE ( 'NONE', *, *, #350, .T. ) ;
#7 = FACE_OUTER_BOUND ( 'NONE', #17, .T. ) ;
#8 = CARTESIAN_POINT ( 'NONE',  ( 25.30000000000000782, 19.99999999999999645, -3.787139035180583146 ) ) ;
#9 = ORIENTED_EDGE ( 'NONE', *, *, #53, .F. ) ;
#10 = VECTOR ( 'NONE', #218, 1000.000000000000000 ) ;
#11 = AXIS2_PLACEMENT_3D ( 'NONE', #381, #314, #172 ) ;
#12 = ORIENTED_EDGE ( 'NONE', *, *, #564, .F. ) ;
#13 = DIRECTION ( 'NONE',  ( 0.000000000000000000, 0.000000000000000000, -1.000000000000000000 ) ) ;
#14 = ADVANCED_FACE ( 'NONE', ( #343 ), #263, .F. ) ;
#15 = DIRECTION ( 'NONE',  ( 1.000000000000000000, -0.000000000000000000, -0.000000000000000000 ) ) ;
#16 = ORIENTED_EDGE ( 'NONE', *, *, #173, .F. ) ;
#17 = EDGE_LOOP ( 'NONE', ( #246, #514, #801, #16 ) ) ;
#18 = CARTESIAN_POINT ( 'NONE',  ( -25.29999999999999361, -24.99999999999998934, 1.000000000000000000 ) ) ;
#19 = LINE ( 'NONE', #238, #857 ) ;
#20 = ORIENTED_EDGE ( 'NONE', *, *, #809, .T. ) ;
#21 = ORIENTED_EDGE ( 'NONE', *, *, #310, .T. ) ;
#22 = LINE ( 'NONE', #521, #766 ) ;
#23 = DIRECTION ( 'NONE',  ( -0.000000000000000000, -0.000000000000000000, 1.000000000000000000 ) ) ;
#24 = ORIENTED_EDGE ( 'NONE', *, *, #822, .F. ) ;
#25 = EDGE_CURVE ( 'NONE', #464, #729, #912, .T. ) ;
#26 = VERTEX_POINT ( 'NONE', #627 ) ;
#27 = CIRCLE ( 'NONE', #922, 2.249999999999999112 ) ;
#28 = AXIS2_PLACEMENT_3D ( 'NONE', #237, #741, #100 ) ;
#29 = LINE ( 'NONE', #461, #106 ) ;
#30 = FACE_OUTER_BOUND ( 'NONE', #206, .T. ) ;
#31 = ORIENTED_EDGE ( 'NONE', *, *, #415, .F. ) ;
#32 = EDGE_CURVE ( 'NONE', #592, #164, #702, .T. ) ;
#33 = CARTESIAN_POINT ( 'NONE',  ( 25.30000000000000782, 19.99999999999999645, -3.787139035180583146 ) ) ;
#34 = DIRECTION ( 'NONE',  ( -1.000000000000000000, 0.000000000000000000, -0.000000000000000000 ) ) ;
#35 = ORIENTED_EDGE ( 'NONE', *, *, #532, .T. ) ;
#36 = DIRECTION ( 'NONE',  ( 1.000000000000000000, 0.000000000000000000, 0.000000000000000000 ) ) ;
#37 = PLANE ( 'NONE',  #471 ) ;
#38 = ORIENTED_EDGE ( 'NONE', *, *, #268, .T. ) ;
#39 = CARTESIAN_POINT ( 'NONE',  ( 25.30000000000000782, -20.00000000000000355, -3.787139035180583146 ) ) ;
#40 = AXIS2_PLACEMENT_3D ( 'NONE', #352, #707, #142 ) ;
#41 = LINE ( 'NONE', #115, #755 ) ;
#42 = EDGE_CURVE ( 'NONE', #289, #886, #48, .T. ) ;
#43 = VECTOR ( 'NONE', #430, 1000.000000000000000 ) ;
#44 = DIRECTION ( 'NONE',  ( -0.000000000000000000, -0.000000000000000000, 1.000000000000000000 ) ) ;
#45 = DIRECTION ( 'NONE',  ( 1.000000000000000000, -0.000000000000000000, -0.000000000000000000 ) ) ;
#46 = DIRECTION ( 'NONE',  ( 0.000000000000000000, 0.000000000000000000, -1.000000000000000000 ) ) ;
#47 = ORIENTED_EDGE ( 'NONE', *, *, #350, .F. ) ;
#48 = LINE ( 'NONE', #698, #148 ) ;
#49 = DIRECTION ( 'NONE',  ( 0.000000000000000000, 0.000000000000000000, 1.000000000000000000 ) ) ;
#50 = DIRECTION ( 'NONE',  ( 0.000000000000000000, 0.000000000000000000, 1.000000000000000000 ) ) ;
#51 = ORIENTED_EDGE ( 'NONE', *, *, #484, .T. ) ;
#52 = APPLICATION_CONTEXT ( 'automotive_design' ) ;
#53 = EDGE_CURVE ( 'NONE', #658, #880, #923, .T. ) ;
#54 = CARTESIAN_POINT ( 'NONE',  ( 25.30000000000000782, 19.99999999999999645, -3.787139035180583146 ) ) ;
#55 = DIRECTION ( 'NONE',  ( 0.000000000000000000, 0.000000000000000000, -1.000000000000000000 ) ) ;
#56 = VECTOR ( 'NONE', #210, 1000.000000000000000 ) ;
#57 = PLANE ( 'NONE',  #40 ) ;
#58 = VECTOR ( 'NONE', #281, 1000.000000000000000 ) ;
#59 = AXIS2_PLACEMENT_3D ( 'NONE', #442, #722, #652 ) ;
#60 = EDGE_CURVE ( 'NONE', #615, #729, #490, .T. ) ;
#61 =( LENGTH_UNIT ( ) NAMED_UNIT ( * ) SI_UNIT ( .MILLI., .METRE. ) );
#62 = DIRECTION ( 'NONE',  ( -1.000000000000000000, 1.371322905910519414E-16, 0.000000000000000000 ) ) ;
#63 = CARTESIAN_POINT ( 'NONE',  ( 29.70000000000000639, -25.00000000000000000, -10.40000000000000568 ) ) ;
#64 = EDGE_LOOP ( 'NONE', ( #326, #9, #47, #216 ) ) ;
#65 = SURFACE_SIDE_STYLE ('',( #933 ) ) ;
#66 = UNCERTAINTY_MEASURE_WITH_UNIT (LENGTH_MEASURE( 1.000000000000000082E-05 ), #61, 'distance_accuracy_value', 'NONE');
#67 = DIRECTION ( 'NONE',  ( 0.000000000000000000, 0.000000000000000000, -1.000000000000000000 ) ) ;
#68 = DIRECTION ( 'NONE',  ( 0.000000000000000000, 3.043374519257554550E-16, -1.000000000000000000 ) ) ;
#69 = EDGE_LOOP ( 'NONE', ( #411, #112 ) ) ;
#70 = ORIENTED_EDGE ( 'NONE', *, *, #838, .F. ) ;
#71 = PLANE ( 'NONE',  #629 ) ;
#72 = CARTESIAN_POINT ( 'NONE',  ( -25.29999999999999361, 19.00000000000001421, 1.000000000000000000 ) ) ;
#73 = CIRCLE ( 'NONE', #924, 2.249999999999999112 ) ;
#74 = ORIENTED_EDGE ( 'NONE', *, *, #791, .T. ) ;
#75 = DIRECTION ( 'NONE',  ( -0.000000000000000000, -1.000000000000000000, -0.000000000000000000 ) ) ;
#76 = DIRECTION ( 'NONE',  ( -1.000000000000000000, 1.371322905910519660E-16, 0.000000000000000000 ) ) ;
#77 = EDGE_CURVE ( 'NONE', #836, #615, #421, .T. ) ;
#78 = EDGE_LOOP ( 'NONE', ( #235, #38, #846, #530 ) ) ;
#79 = LINE ( 'NONE', #668, #827 ) ;
#80 = DIRECTION ( 'NONE',  ( 0.000000000000000000, 0.000000000000000000, -1.000000000000000000 ) ) ;
#81 = EDGE_LOOP ( 'NONE', ( #414, #509, #885, #51 ) ) ;
#82 = EDGE_CURVE ( 'NONE', #99, #781, #565, .T. ) ;
#83 = ORIENTED_EDGE ( 'NONE', *, *, #654, .F. ) ;
#84 = CARTESIAN_POINT ( 'NONE',  ( -25.29999999999999716, -19.50000000000000000, 0.000000000000000000 ) ) ;
#85 = CARTESIAN_POINT ( 'NONE',  ( -25.30000000000000071, 19.50000000000000355, -8.400000000000000355 ) ) ;
#86 = ORIENTED_EDGE ( 'NONE', *, *, #25, .F. ) ;
#87 = APPLICATION_PROTOCOL_DEFINITION ( 'draft international standard', 'automotive_design', 1998, #105 ) ;
#88 = AXIS2_PLACEMENT_3D ( 'NONE', #618, #36, #540 ) ;
#89 = ORIENTED_EDGE ( 'NONE', *, *, #467, .F. ) ;
#90 = ADVANCED_FACE ( 'NONE', ( #427 ), #57, .F. ) ;
#91 =( GEOMETRIC_REPRESENTATION_CONTEXT ( 3 ) GLOBAL_UNCERTAINTY_ASSIGNED_CONTEXT ( ( #66 ) ) GLOBAL_UNIT_ASSIGNED_CONTEXT ( ( #61, #790, #144 ) ) REPRESENTATION_CONTEXT ( 'NONE', 'WORKASPACE' ) );
#92 = LINE ( 'NONE', #533, #149 ) ;
#93 = CARTESIAN_POINT ( 'NONE',  ( -25.29999999999999361, 19.00000000000001421, 0.000000000000000000 ) ) ;
#94 = ORIENTED_EDGE ( 'NONE', *, *, #177, .T. ) ;
#95 = VERTEX_POINT ( 'NONE', #2 ) ;
#96 = DIRECTION ( 'NONE',  ( 0.000000000000000000, -1.000000000000000000, 0.000000000000000000 ) ) ;
#97 = CARTESIAN_POINT ( 'NONE',  ( -25.30000000000000782, -19.49999999999999645, -10.40000000000000213 ) ) ;
#98 = VERTEX_POINT ( 'NONE', #633 ) ;
#99 = VERTEX_POINT ( 'NONE', #508 ) ;
#100 = DIRECTION ( 'NONE',  ( 1.000000000000000000, 0.000000000000000000, -0.000000000000000000 ) ) ;
#101 = FACE_OUTER_BOUND ( 'NONE', #505, .T. ) ;
#102 = EDGE_CURVE ( 'NONE', #886, #841, #154, .T. ) ;
#103 = ORIENTED_EDGE ( 'NONE', *, *, #926, .F. ) ;
#104 = CIRCLE ( 'NONE', #59, 2.249999999999999112 ) ;
#105 = APPLICATION_CONTEXT ( 'automotive_design' ) ;
#106 = VECTOR ( 'NONE', #158, 1000.000000000000000 ) ;
#107 = PLANE ( 'NONE',  #498 ) ;
#108 = PLANE ( 'NONE',  #226 ) ;
#109 = ORIENTED_EDGE ( 'NONE', *, *, #558, .T. ) ;
#110 = CARTESIAN_POINT ( 'NONE',  ( -25.30000000000000071, 20.49999999999999645, -8.400000000000000355 ) ) ;
#111 = DIRECTION ( 'NONE',  ( -0.000000000000000000, 1.000000000000000000, 1.387778780781445922E-16 ) ) ;
#112 = ORIENTED_EDGE ( 'NONE', *, *, #809, .F. ) ;
#113 = EDGE_CURVE ( 'NONE', #135, #342, #445, .T. ) ;
#114 = CARTESIAN_POINT ( 'NONE',  ( -1.299999999999992051, 19.00000000000001421, 0.000000000000000000 ) ) ;
#115 = CARTESIAN_POINT ( 'NONE',  ( -25.29999999999999361, -24.99999999999998934, 0.000000000000000000 ) ) ;
#116 = ORIENTED_EDGE ( 'NONE', *, *, #478, .T. ) ;
#117 = CARTESIAN_POINT ( 'NONE',  ( 25.30000000000000782, -20.00000000000000355, -3.787139035180583146 ) ) ;
#118 = EDGE_CURVE ( 'NONE', #615, #301, #500, .T. ) ;
#119 = AXIS2_PLACEMENT_3D ( 'NONE', #120, #46, #34 ) ;
#120 = CARTESIAN_POINT ( 'NONE',  ( 0.000000000000000000, 0.000000000000000000, -6.400000000000000355 ) ) ;
#121 = AXIS2_PLACEMENT_3D ( 'NONE', #117, #407, #768 ) ;
#122 = DIRECTION ( 'NONE',  ( 1.000000000000000000, -0.000000000000000000, -0.000000000000000000 ) ) ;
#123 = FACE_OUTER_BOUND ( 'NONE', #316, .T. ) ;
#124 = CARTESIAN_POINT ( 'NONE',  ( -25.29999999999999361, -3.999999999999989786, 1.000000000000000000 ) ) ;
#125 = ADVANCED_FACE ( 'NONE', ( #851 ), #205, .F. ) ;
#126 = LINE ( 'NONE', #867, #376 ) ;
#127 = DIRECTION ( 'NONE',  ( -1.000000000000000000, 0.000000000000000000, 0.000000000000000000 ) ) ;
#128 = ORIENTED_EDGE ( 'NONE', *, *, #82, .T. ) ;
#129 = DIRECTION ( 'NONE',  ( -0.000000000000000000, -0.000000000000000000, 1.000000000000000000 ) ) ;
#130 = CARTESIAN_POINT ( 'NONE',  ( -25.30000000000000071, 19.50000000000000355, -10.40000000000000213 ) ) ;
#131 = CARTESIAN_POINT ( 'NONE',  ( -25.29999999999999716, -19.50000000000000000, -6.400000000000000355 ) ) ;
#132 = AXIS2_PLACEMENT_3D ( 'NONE', #493, #137, #76 ) ;
#133 = CARTESIAN_POINT ( 'NONE',  ( 25.30000000000000782, 19.99999999999999645, -1.537139035180584035 ) ) ;
#134 = AXIS2_PLACEMENT_3D ( 'NONE', #374, #730, #877 ) ;
#135 = VERTEX_POINT ( 'NONE', #779 ) ;
#136 = CARTESIAN_POINT ( 'NONE',  ( 29.70000000000000639, -20.00000000000000355, -6.037139035180581814 ) ) ;
#137 = DIRECTION ( 'NONE',  ( 1.371322905910519660E-16, 1.000000000000000000, 0.000000000000000000 ) ) ;
#138 = ORIENTED_EDGE ( 'NONE', *, *, #489, .T. ) ;
#139 =( NAMED_UNIT ( * ) SI_UNIT ( $, .STERADIAN. ) SOLID_ANGLE_UNIT ( ) );
#140 = EDGE_CURVE ( 'NONE', #501, #231, #288, .T. ) ;
#141 = CARTESIAN_POINT ( 'NONE',  ( 25.30000000000000782, 19.50000000000000000, -6.400000000000000355 ) ) ;
#142 = DIRECTION ( 'NONE',  ( 0.000000000000000000, 0.000000000000000000, -1.000000000000000000 ) ) ;
#143 = EDGE_LOOP ( 'NONE', ( #384, #714, #584, #889, #580, #727, #650, #303, #232, #574 ) ) ;
#144 =( NAMED_UNIT ( * ) SI_UNIT ( $, .STERADIAN. ) SOLID_ANGLE_UNIT ( ) );
#145 = CARTESIAN_POINT ( 'NONE',  ( 25.30000000000000782, -20.00000000000000355, -3.787139035180583146 ) ) ;
#146 = EDGE_CURVE ( 'NONE', #179, #869, #717, .T. ) ;
#147 = DIRECTION ( 'NONE',  ( -0.000000000000000000, -0.000000000000000000, 1.000000000000000000 ) ) ;
#148 = VECTOR ( 'NONE', #254, 1000.000000000000000 ) ;
#149 = VECTOR ( 'NONE', #725, 1000.000000000000000 ) ;
#150 = VERTEX_POINT ( 'NONE', #792 ) ;
#151 = APPLICATION_PROTOCOL_DEFINITION ( 'draft international standard', 'automotive_design', 1998, #52 ) ;
#152 = ORIENTED_EDGE ( 'NONE', *, *, #42, .T. ) ;
#153 = DIRECTION ( 'NONE',  ( 0.000000000000000000, -1.387778780781445922E-16, 1.000000000000000000 ) ) ;
#154 = LINE ( 'NONE', #72, #469 ) ;
#155 = EDGE_CURVE ( 'NONE', #836, #236, #636, .T. ) ;
#156 = ORIENTED_EDGE ( 'NONE', *, *, #816, .T. ) ;
#157 = ORIENTED_EDGE ( 'NONE', *, *, #709, .F. ) ;
#158 = DIRECTION ( 'NONE',  ( -0.000000000000000000, -1.000000000000000000, -0.000000000000000000 ) ) ;
#159 = LINE ( 'NONE', #383, #585 ) ;
#160 = EDGE_LOOP ( 'NONE', ( #188, #21, #916, #837, #515, #523, #667, #608 ) ) ;
#161 = ORIENTED_EDGE ( 'NONE', *, *, #918, .F. ) ;
#162 = CARTESIAN_POINT ( 'NONE',  ( 25.30000000000000782, -24.99999999999998579, 0.000000000000000000 ) ) ;
#163 = CARTESIAN_POINT ( 'NONE',  ( -25.30000000000000071, -25.00000000000000711, -10.40000000000000213 ) ) ;
#164 = VERTEX_POINT ( 'NONE', #785 ) ;
#165 = AXIS2_PLACEMENT_3D ( 'NONE', #899, #813, #80 ) ;
#166 = VECTOR ( 'NONE', #802, 1000.000000000000000 ) ;
#167 = VERTEX_POINT ( 'NONE', #278 ) ;
#168 = DIRECTION ( 'NONE',  ( -1.000000000000000000, -6.856614529552597070E-17, 0.000000000000000000 ) ) ;
#169 = DIRECTION ( 'NONE',  ( -0.000000000000000000, -0.000000000000000000, 1.000000000000000000 ) ) ;
#170 = ORIENTED_EDGE ( 'NONE', *, *, #213, .T. ) ;
#171 = VERTEX_POINT ( 'NONE', #568 ) ;
#172 = DIRECTION ( 'NONE',  ( 0.000000000000000000, 0.000000000000000000, -1.000000000000000000 ) ) ;
#173 = EDGE_CURVE ( 'NONE', #753, #519, #862, .T. ) ;
#174 = DIRECTION ( 'NONE',  ( -1.371322905910519414E-16, -1.000000000000000000, 0.000000000000000000 ) ) ;
#175 = ORIENTED_EDGE ( 'NONE', *, *, #194, .T. ) ;
#176 = CARTESIAN_POINT ( 'NONE',  ( 25.30000000000000782, 19.50000000000000000, -6.400000000000000355 ) ) ;
#177 = EDGE_CURVE ( 'NONE', #26, #179, #432, .T. ) ;
#178 = DIRECTION ( 'NONE',  ( 0.000000000000000000, 0.000000000000000000, -1.000000000000000000 ) ) ;
#179 = VERTEX_POINT ( 'NONE', #579 ) ;
#180 = VECTOR ( 'NONE', #927, 1000.000000000000000 ) ;
#181 = DIRECTION ( 'NONE',  ( 0.000000000000000000, 0.000000000000000000, -1.000000000000000000 ) ) ;
#182 = LINE ( 'NONE', #258, #302 ) ;
#183 = VECTOR ( 'NONE', #669, 1000.000000000000000 ) ;
#184 = ORIENTED_EDGE ( 'NONE', *, *, #394, .F. ) ;
#185 = EDGE_CURVE ( 'NONE', #289, #171, #215, .T. ) ;
#186 = FACE_OUTER_BOUND ( 'NONE', #895, .T. ) ;
#187 = FACE_BOUND ( 'NONE', #69, .T. ) ;
#188 = ORIENTED_EDGE ( 'NONE', *, *, #146, .T. ) ;
#189 = FACE_OUTER_BOUND ( 'NONE', #819, .T. ) ;
#190 = CARTESIAN_POINT ( 'NONE',  ( 25.29999999999999716, -20.50000000000001066, -8.400000000000000355 ) ) ;
#191 = ORIENTED_EDGE ( 'NONE', *, *, #410, .T. ) ;
#192 = DIRECTION ( 'NONE',  ( -1.000000000000000000, -0.000000000000000000, -0.000000000000000000 ) ) ;
#193 = LINE ( 'NONE', #679, #332 ) ;
#194 = EDGE_CURVE ( 'NONE', #98, #591, #126, .T. ) ;
#195 = VECTOR ( 'NONE', #355, 1000.000000000000000 ) ;
#196 = DIRECTION ( 'NONE',  ( 0.000000000000000000, 0.000000000000000000, -1.000000000000000000 ) ) ;
#197 = ORIENTED_EDGE ( 'NONE', *, *, #699, .F. ) ;
#198 = ORIENTED_EDGE ( 'NONE', *, *, #42, .F. ) ;
#199 = LINE ( 'NONE', #700, #43 ) ;
#200 = FACE_OUTER_BOUND ( 'NONE', #772, .T. ) ;
#201 = EDGE_CURVE ( 'NONE', #164, #520, #104, .T. ) ;
#202 = EDGE_LOOP ( 'NONE', ( #942, #677 ) ) ;
#203 = CARTESIAN_POINT ( 'NONE',  ( -25.30000000000000071, 19.50000000000000355, -10.40000000000000213 ) ) ;
#204 = PLANE ( 'NONE',  #318 ) ;
#205 = PLANE ( 'NONE',  #132 ) ;
#206 = EDGE_LOOP ( 'NONE', ( #250, #597, #900, #170 ) ) ;
#207 = DIRECTION ( 'NONE',  ( -0.000000000000000000, -0.000000000000000000, 1.000000000000000000 ) ) ;
#208 = CARTESIAN_POINT ( 'NONE',  ( 25.30000000000000426, -25.00000000000000000, -6.400000000000000355 ) ) ;
#209 = VECTOR ( 'NONE', #847, 1000.000000000000000 ) ;
#210 = DIRECTION ( 'NONE',  ( 1.000000000000000000, -1.371322905910519414E-16, -0.000000000000000000 ) ) ;
#211 = CIRCLE ( 'NONE', #737, 2.249999999999999112 ) ;
#212 = ORIENTED_EDGE ( 'NONE', *, *, #284, .T. ) ;
#213 = EDGE_CURVE ( 'NONE', #535, #805, #527, .T. ) ;
#214 = CARTESIAN_POINT ( 'NONE',  ( 29.70000000000000639, 19.99999999999999645, -3.787139035180583146 ) ) ;
#215 = LINE ( 'NONE', #356, #393 ) ;
#216 = ORIENTED_EDGE ( 'NONE', *, *, #317, .T. ) ;
#217 = CARTESIAN_POINT ( 'NONE',  ( 25.30000000000000782, -20.00000000000000355, -6.037139035180581814 ) ) ;
#218 = DIRECTION ( 'NONE',  ( -0.000000000000000000, -0.000000000000000000, 1.000000000000000000 ) ) ;
#219 = ORIENTED_EDGE ( 'NONE', *, *, #723, .T. ) ;
#220 = ORIENTED_EDGE ( 'NONE', *, *, #678, .T. ) ;
#221 = DIRECTION ( 'NONE',  ( 1.000000000000000000, -1.371322905910519414E-16, -0.000000000000000000 ) ) ;
#222 = EDGE_CURVE ( 'NONE', #734, #306, #589, .T. ) ;
#223 = VECTOR ( 'NONE', #845, 1000.000000000000000 ) ;
#224 = CIRCLE ( 'NONE', #544, 2.249999999999999112 ) ;
#225 = ORIENTED_EDGE ( 'NONE', *, *, #317, .F. ) ;
#226 = AXIS2_PLACEMENT_3D ( 'NONE', #911, #401, #334 ) ;
#227 = EDGE_LOOP ( 'NONE', ( #402, #103, #917, #372, #600, #450, #267, #481, #357, #198 ) ) ;
#228 = LINE ( 'NONE', #162, #242 ) ;
#229 = ADVANCED_FACE ( 'NONE', ( #101 ), #230, .F. ) ;
#230 = PLANE ( 'NONE',  #424 ) ;
#231 = VERTEX_POINT ( 'NONE', #309 ) ;
#232 = ORIENTED_EDGE ( 'NONE', *, *, #754, .F. ) ;
#233 = DIRECTION ( 'NONE',  ( 1.000000000000000000, 0.000000000000000000, 0.000000000000000000 ) ) ;
#234 = DIRECTION ( 'NONE',  ( 1.000000000000000000, -0.000000000000000000, -0.000000000000000000 ) ) ;
#235 = ORIENTED_EDGE ( 'NONE', *, *, #594, .F. ) ;
#236 = VERTEX_POINT ( 'NONE', #675 ) ;
#237 = CARTESIAN_POINT ( 'NONE',  ( 0.000000000000000000, 0.000000000000000000, -8.400000000000000355 ) ) ;
#238 = CARTESIAN_POINT ( 'NONE',  ( 25.30000000000000426, -19.50000000000000000, -6.400000000000000355 ) ) ;
#239 = VERTEX_POINT ( 'NONE', #726 ) ;
#240 = VECTOR ( 'NONE', #906, 1000.000000000000000 ) ;
#241 = EDGE_CURVE ( 'NONE', #729, #841, #245, .T. ) ;
#242 = VECTOR ( 'NONE', #516, 1000.000000000000000 ) ;
#243 = ORIENTED_EDGE ( 'NONE', *, *, #82, .F. ) ;
#244 = DIRECTION ( 'NONE',  ( -0.000000000000000000, -0.000000000000000000, 1.000000000000000000 ) ) ;
#245 = LINE ( 'NONE', #93, #570 ) ;
#246 = ORIENTED_EDGE ( 'NONE', *, *, #856, .F. ) ;
#247 = ADVANCED_FACE ( 'NONE', ( #30 ), #879, .F. ) ;
#248 = DIRECTION ( 'NONE',  ( 1.000000000000000000, 0.000000000000000000, 0.000000000000000000 ) ) ;
#249 = CARTESIAN_POINT ( 'NONE',  ( 25.30000000000000782, -19.50000000000000355, 0.000000000000000000 ) ) ;
#250 = ORIENTED_EDGE ( 'NONE', *, *, #594, .T. ) ;
#251 = DIRECTION ( 'NONE',  ( -0.000000000000000000, -1.000000000000000000, -0.000000000000000000 ) ) ;
#252 = CARTESIAN_POINT ( 'NONE',  ( 29.70000000000000639, 24.99999999999999289, -10.40000000000000036 ) ) ;
#253 = ADVANCED_FACE ( 'NONE', ( #599 ), #821, .F. ) ;
#254 = DIRECTION ( 'NONE',  ( -0.000000000000000000, -1.000000000000000000, -0.000000000000000000 ) ) ;
#255 = VECTOR ( 'NONE', #234, 1000.000000000000000 ) ;
#256 = AXIS2_PLACEMENT_3D ( 'NONE', #386, #673, #168 ) ;
#257 = CARTESIAN_POINT ( 'NONE',  ( -1.299999999999992051, 19.00000000000001421, 1.000000000000000000 ) ) ;
#258 = CARTESIAN_POINT ( 'NONE',  ( 25.29999999999999716, 19.49999999999999645, -8.400000000000000355 ) ) ;
#259 = ADVANCED_FACE ( 'NONE', ( #391 ), #517, .F. ) ;
#260 = VERTEX_POINT ( 'NONE', #85 ) ;
#261 = CARTESIAN_POINT ( 'NONE',  ( -25.30000000000000426, 20.49999999999999645, -8.400000000000000355 ) ) ;
#262 = PLANE ( 'NONE',  #674 ) ;
#263 = CYLINDRICAL_SURFACE ( 'NONE', #830, 2.249999999999999112 ) ;
#264 = FACE_OUTER_BOUND ( 'NONE', #724, .T. ) ;
#265 = LINE ( 'NONE', #622, #269 ) ;
#266 = ORIENTED_EDGE ( 'NONE', *, *, #728, .T. ) ;
#267 = ORIENTED_EDGE ( 'NONE', *, *, #60, .T. ) ;
#268 = EDGE_CURVE ( 'NONE', #805, #495, #159, .T. ) ;
#269 = VECTOR ( 'NONE', #553, 1000.000000000000000 ) ;
#270 = VECTOR ( 'NONE', #221, 1000.000000000000000 ) ;
#271 = FACE_OUTER_BOUND ( 'NONE', #64, .T. ) ;
#272 = DIRECTION ( 'NONE',  ( 1.000000000000000000, -0.000000000000000000, -0.000000000000000000 ) ) ;
#273 = CARTESIAN_POINT ( 'NONE',  ( 25.30000000000000782, -20.00000000000000355, -6.037139035180581814 ) ) ;
#274 = CARTESIAN_POINT ( 'NONE',  ( 25.29999999999999716, 20.49999999999998934, -6.400000000000000355 ) ) ;
#275 = DIRECTION ( 'NONE',  ( 0.000000000000000000, 1.000000000000000000, 0.000000000000000000 ) ) ;
#276 = FACE_OUTER_BOUND ( 'NONE', #78, .T. ) ;
#277 = EDGE_CURVE ( 'NONE', #311, #753, #321, .T. ) ;
#278 = CARTESIAN_POINT ( 'NONE',  ( 25.30000000000000426, -19.50000000000000000, -5.980880132028611129 ) ) ;
#279 = ORIENTED_EDGE ( 'NONE', *, *, #723, .F. ) ;
#280 = CARTESIAN_POINT ( 'NONE',  ( -25.29999999999999361, 19.00000000000001421, 1.000000000000000000 ) ) ;
#281 = DIRECTION ( 'NONE',  ( -0.000000000000000000, -0.000000000000000000, 1.000000000000000000 ) ) ;
#282 = AXIS2_PLACEMENT_3D ( 'NONE', #315, #603, #534 ) ;
#283 = VECTOR ( 'NONE', #834, 1000.000000000000000 ) ;
#284 = EDGE_CURVE ( 'NONE', #520, #164, #528, .T. ) ;
#285 = ORIENTED_EDGE ( 'NONE', *, *, #728, .F. ) ;
#286 = LINE ( 'NONE', #130, #843 ) ;
#287 = DIRECTION ( 'NONE',  ( -0.000000000000000000, -0.000000000000000000, -1.000000000000000000 ) ) ;
#288 = LINE ( 'NONE', #133, #299 ) ;
#289 = VERTEX_POINT ( 'NONE', #371 ) ;
#290 = EDGE_CURVE ( 'NONE', #886, #793, #449, .T. ) ;
#291 = DIRECTION ( 'NONE',  ( -1.000000000000000000, 0.000000000000000000, 0.000000000000000000 ) ) ;
#292 = ORIENTED_EDGE ( 'NONE', *, *, #884, .T. ) ;
#293 = SHAPE_DEFINITION_REPRESENTATION ( #477, #458 ) ;
#294 = ORIENTED_EDGE ( 'NONE', *, *, #102, .T. ) ;
#295 = PRODUCT_DEFINITION ( 'UNKNOWN', '', #720, #715 ) ;
#296 = DIRECTION ( 'NONE',  ( -1.000000000000000000, 0.000000000000000000, -0.000000000000000000 ) ) ;
#297 = DIRECTION ( 'NONE',  ( -1.371322905910519414E-16, -1.000000000000000000, 0.000000000000000000 ) ) ;
#298 = PRODUCT ( 'mikona-holder-back', 'mikona-holder-back', '', ( #312 ) ) ;
#299 = VECTOR ( 'NONE', #640, 1000.000000000000000 ) ;
#300 = VECTOR ( 'NONE', #75, 1000.000000000000000 ) ;
#301 = VERTEX_POINT ( 'NONE', #731 ) ;
#302 = VECTOR ( 'NONE', #840, 1000.000000000000000 ) ;
#303 = ORIENTED_EDGE ( 'NONE', *, *, #670, .F. ) ;
#304 = CARTESIAN_POINT ( 'NONE',  ( 25.29999999999999716, -20.50000000000001066, -6.400000000000000355 ) ) ;
#305 = DIRECTION ( 'NONE',  ( 0.000000000000000000, 1.000000000000000000, 0.000000000000000000 ) ) ;
#306 = VERTEX_POINT ( 'NONE', #522 ) ;
#307 = VERTEX_POINT ( 'NONE', #249 ) ;
#308 = DIRECTION ( 'NONE',  ( 1.000000000000000000, 6.856614529552597070E-17, 0.000000000000000000 ) ) ;
#309 = CARTESIAN_POINT ( 'NONE',  ( 29.70000000000000639, 19.99999999999999645, -1.537139035180584035 ) ) ;
#310 = EDGE_CURVE ( 'NONE', #869, #311, #807, .T. ) ;
#311 = VERTEX_POINT ( 'NONE', #97 ) ;
#312 = PRODUCT_CONTEXT ( 'NONE', #52, 'mechanical' ) ;
#313 = ORIENTED_EDGE ( 'NONE', *, *, #682, .T. ) ;
#314 = DIRECTION ( 'NONE',  ( 1.000000000000000000, 0.000000000000000000, 0.000000000000000000 ) ) ;
#315 = CARTESIAN_POINT ( 'NONE',  ( -25.29999999999999361, 25.00000000000000355, 1.000000000000000000 ) ) ;
#316 = EDGE_LOOP ( 'NONE', ( #740, #225, #604, #452 ) ) ;
#317 = EDGE_CURVE ( 'NONE', #761, #560, #375, .T. ) ;
#318 = AXIS2_PLACEMENT_3D ( 'NONE', #431, #55, #439 ) ;
#319 = VECTOR ( 'NONE', #860, 1000.000000000000000 ) ;
#320 = CARTESIAN_POINT ( 'NONE',  ( 29.70000000000000639, 24.99999999999999289, -10.40000000000000036 ) ) ;
#321 = LINE ( 'NONE', #894, #331 ) ;
#322 = ORIENTED_EDGE ( 'NONE', *, *, #884, .F. ) ;
#323 = EDGE_CURVE ( 'NONE', #167, #569, #19, .T. ) ;
#324 = LINE ( 'NONE', #114, #691 ) ;
#325 = FACE_OUTER_BOUND ( 'NONE', #143, .T. ) ;
#326 = ORIENTED_EDGE ( 'NONE', *, *, #467, .T. ) ;
#327 = CARTESIAN_POINT ( 'NONE',  ( 25.30000000000000426, -19.50000000000000000, -6.400000000000000355 ) ) ;
#328 = ADVANCED_FACE ( 'NONE', ( #743 ), #387, .F. ) ;
#329 = DIRECTION ( 'NONE',  ( 1.000000000000000000, 0.000000000000000000, 0.000000000000000000 ) ) ;
#330 = VERTEX_POINT ( 'NONE', #397 ) ;
#331 = VECTOR ( 'NONE', #23, 1000.000000000000000 ) ;
#332 = VECTOR ( 'NONE', #898, 1000.000000000000000 ) ;
#333 = DIRECTION ( 'NONE',  ( 0.000000000000000000, 0.000000000000000000, -1.000000000000000000 ) ) ;
#334 = DIRECTION ( 'NONE',  ( 1.000000000000000000, 1.084202172485504434E-16, 0.000000000000000000 ) ) ;
#335 = ORIENTED_EDGE ( 'NONE', *, *, #441, .F. ) ;
#336 = LINE ( 'NONE', #621, #676 ) ;
#337 = FACE_OUTER_BOUND ( 'NONE', #662, .T. ) ;
#338 = ORIENTED_EDGE ( 'NONE', *, *, #4, .T. ) ;
#339 = ADVANCED_FACE ( 'NONE', ( #550 ), #915, .T. ) ;
#340 = CARTESIAN_POINT ( 'NONE',  ( 25.30000000000000426, -19.50000000000000000, -6.400000000000000355 ) ) ;
#341 = DIRECTION ( 'NONE',  ( 1.000000000000000000, 0.000000000000000000, 0.000000000000000000 ) ) ;
#342 = VERTEX_POINT ( 'NONE', #835 ) ;
#343 = FACE_OUTER_BOUND ( 'NONE', #666, .T. ) ;
#344 = EDGE_CURVE ( 'NONE', #535, #135, #613, .T. ) ;
#345 = FILL_AREA_STYLE_COLOUR ( '', #767 ) ;
#346 = VECTOR ( 'NONE', #931, 1000.000000000000000 ) ;
#347 = AXIS2_PLACEMENT_3D ( 'NONE', #465, #49, #693 ) ;
#348 = LINE ( 'NONE', #435, #58 ) ;
#349 = DIRECTION ( 'NONE',  ( -0.000000000000000000, -0.000000000000000000, 1.000000000000000000 ) ) ;
#350 = EDGE_CURVE ( 'NONE', #761, #658, #903, .T. ) ;
#351 = CARTESIAN_POINT ( 'NONE',  ( -1.299999999999992051, -3.999999999999987121, 0.000000000000000000 ) ) ;
#352 = CARTESIAN_POINT ( 'NONE',  ( -25.29999999999999361, 19.00000000000001421, 1.000000000000000000 ) ) ;
#353 = VERTEX_POINT ( 'NONE', #480 ) ;
#354 = CARTESIAN_POINT ( 'NONE',  ( -25.30000000000000071, 19.50000000000000355, -8.400000000000000355 ) ) ;
#355 = DIRECTION ( 'NONE',  ( -0.000000000000000000, -0.000000000000000000, 1.000000000000000000 ) ) ;
#356 = CARTESIAN_POINT ( 'NONE',  ( -25.29999999999999361, 25.00000000000000355, 1.000000000000000000 ) ) ;
#357 = ORIENTED_EDGE ( 'NONE', *, *, #102, .F. ) ;
#358 = DIRECTION ( 'NONE',  ( 1.000000000000000000, 0.000000000000000000, 0.000000000000000000 ) ) ;
#359 = DIRECTION ( 'NONE',  ( -0.000000000000000000, -1.000000000000000000, -0.000000000000000000 ) ) ;
#360 = PRESENTATION_LAYER_ASSIGNMENT (  '', '', ( #362 ) ) ;
#361 = DIRECTION ( 'NONE',  ( -0.000000000000000000, -0.000000000000000000, -1.000000000000000000 ) ) ;
#362 = STYLED_ITEM ( 'NONE', ( #929 ), #896 ) ;
#363 = EDGE_CURVE ( 'NONE', #179, #98, #763, .T. ) ;
#364 = AXIS2_PLACEMENT_3D ( 'NONE', #649, #733, #5 ) ;
#365 = EDGE_LOOP ( 'NONE', ( #637, #389, #739, #531 ) ) ;
#366 = EDGE_LOOP ( 'NONE', ( #583, #789, #243, #657 ) ) ;
#367 = CARTESIAN_POINT ( 'NONE',  ( 25.30000000000000782, 19.50000000000000000, -6.400000000000000355 ) ) ;
#368 = ORIENTED_EDGE ( 'NONE', *, *, #146, .F. ) ;
#369 = ADVANCED_FACE ( 'NONE', ( #271 ), #108, .F. ) ;
#370 = DIRECTION ( 'NONE',  ( 0.000000000000000000, -1.000000000000000000, -1.387778780781445922E-16 ) ) ;
#371 = CARTESIAN_POINT ( 'NONE',  ( -25.29999999999999361, 25.00000000000000355, 1.000000000000000000 ) ) ;
#372 = ORIENTED_EDGE ( 'NONE', *, *, #890, .T. ) ;
#373 = ORIENTED_EDGE ( 'NONE', *, *, #25, .T. ) ;
#374 = CARTESIAN_POINT ( 'NONE',  ( 25.30000000000000782, -20.00000000000000355, -3.787139035180583146 ) ) ;
#375 = LINE ( 'NONE', #656, #825 ) ;
#376 = VECTOR ( 'NONE', #147, 1000.000000000000000 ) ;
#377 = VECTOR ( 'NONE', #308, 1000.000000000000000 ) ;
#378 = ORIENTED_EDGE ( 'NONE', *, *, #654, .T. ) ;
#379 =( GEOMETRIC_REPRESENTATION_CONTEXT ( 3 ) GLOBAL_UNCERTAINTY_ASSIGNED_CONTEXT ( ( #418 ) ) GLOBAL_UNIT_ASSIGNED_CONTEXT ( ( #919, #576, #139 ) ) REPRESENTATION_CONTEXT ( 'NONE', 'WORKASPACE' ) );
#380 = ORIENTED_EDGE ( 'NONE', *, *, #463, .F. ) ;
#381 = CARTESIAN_POINT ( 'NONE',  ( 25.30000000000000782, 19.99999999999999645, -3.787139035180583146 ) ) ;
#382 = ADVANCED_FACE ( 'NONE', ( #610 ), #473, .T. ) ;
#383 = CARTESIAN_POINT ( 'NONE',  ( -25.29999999999999716, -25.00000000000000000, -6.400000000000000355 ) ) ;
#384 = ORIENTED_EDGE ( 'NONE', *, *, #394, .T. ) ;
#385 = ORIENTED_EDGE ( 'NONE', *, *, #415, .T. ) ;
#386 = CARTESIAN_POINT ( 'NONE',  ( -25.29999999999999361, -24.99999999999998934, 1.000000000000000000 ) ) ;
#387 = PLANE ( 'NONE',  #282 ) ;
#388 = ORIENTED_EDGE ( 'NONE', *, *, #943, .F. ) ;
#389 = ORIENTED_EDGE ( 'NONE', *, *, #185, .F. ) ;
#390 = PLANE ( 'NONE',  #529 ) ;
#391 = FACE_OUTER_BOUND ( 'NONE', #81, .T. ) ;
#392 = ORIENTED_EDGE ( 'NONE', *, *, #290, .F. ) ;
#393 = VECTOR ( 'NONE', #504, 1000.000000000000000 ) ;
#394 = EDGE_CURVE ( 'NONE', #880, #95, #41, .T. ) ;
#395 = VECTOR ( 'NONE', #716, 1000.000000000000000 ) ;
#396 = CARTESIAN_POINT ( 'NONE',  ( 29.70000000000000639, 19.99999999999999645, -3.787139035180583146 ) ) ;
#397 = CARTESIAN_POINT ( 'NONE',  ( 25.30000000000000782, 20.49999999999999289, -6.400000000000000355 ) ) ;
#398 = ORIENTED_EDGE ( 'NONE', *, *, #4, .F. ) ;
#399 = ADVANCED_FACE ( 'NONE', ( #325 ), #37, .F. ) ;
#400 = CARTESIAN_POINT ( 'NONE',  ( -25.29999999999999361, -24.99999999999998934, 1.000000000000000000 ) ) ;
#401 = DIRECTION ( 'NONE',  ( 1.084202172485504434E-16, -1.000000000000000000, 0.000000000000000000 ) ) ;
#402 = ORIENTED_EDGE ( 'NONE', *, *, #185, .T. ) ;
#403 = CARTESIAN_POINT ( 'NONE',  ( -25.29999999999999361, 19.00000000000001421, 0.000000000000000000 ) ) ;
#404 = DIRECTION ( 'NONE',  ( 0.000000000000000000, 0.000000000000000000, -1.000000000000000000 ) ) ;
#405 = VECTOR ( 'NONE', #44, 1000.000000000000000 ) ;
#406 = CIRCLE ( 'NONE', #938, 2.249999999999999112 ) ;
#407 = DIRECTION ( 'NONE',  ( 1.000000000000000000, -0.000000000000000000, -0.000000000000000000 ) ) ;
#408 = VECTOR ( 'NONE', #777, 1000.000000000000000 ) ;
#409 = DIRECTION ( 'NONE',  ( -0.000000000000000000, 0.000000000000000000, 1.000000000000000000 ) ) ;
#410 = EDGE_CURVE ( 'NONE', #734, #501, #590, .T. ) ;
#411 = ORIENTED_EDGE ( 'NONE', *, *, #484, .F. ) ;
#412 = FACE_OUTER_BOUND ( 'NONE', #366, .T. ) ;
#413 = PLANE ( 'NONE',  #794 ) ;
#414 = ORIENTED_EDGE ( 'NONE', *, *, #140, .F. ) ;
#415 = EDGE_CURVE ( 'NONE', #99, #353, #182, .T. ) ;
#416 = CARTESIAN_POINT ( 'NONE',  ( 25.30000000000000782, 19.50000000000000000, -6.400000000000000355 ) ) ;
#417 = FACE_OUTER_BOUND ( 'NONE', #626, .T. ) ;
#418 = UNCERTAINTY_MEASURE_WITH_UNIT (LENGTH_MEASURE( 1.000000000000000082E-05 ), #919, 'distance_accuracy_value', 'NONE');
#419 = CARTESIAN_POINT ( 'NONE',  ( 25.29999999999999361, -19.50000000000000355, -10.40000000000000213 ) ) ;
#420 = ORIENTED_EDGE ( 'NONE', *, *, #687, .F. ) ;
#421 = LINE ( 'NONE', #542, #543 ) ;
#422 = EDGE_CURVE ( 'NONE', #592, #873, #27, .T. ) ;
#423 = DIRECTION ( 'NONE',  ( 6.308085367188400102E-16, 1.000000000000000000, 0.000000000000000000 ) ) ;
#424 = AXIS2_PLACEMENT_3D ( 'NONE', #595, #174, #607 ) ;
#425 = CIRCLE ( 'NONE', #588, 2.249999999999999112 ) ;
#426 = FACE_OUTER_BOUND ( 'NONE', #804, .T. ) ;
#427 = FACE_OUTER_BOUND ( 'NONE', #227, .T. ) ;
#428 = VERTEX_POINT ( 'NONE', #832 ) ;
#429 = ADVANCED_FACE ( 'NONE', ( #688, #187, #337 ), #262, .F. ) ;
#430 = DIRECTION ( 'NONE',  ( -1.261617073437675287E-15, 1.000000000000000000, 0.000000000000000000 ) ) ;
#431 = CARTESIAN_POINT ( 'NONE',  ( 0.000000000000000000, 0.000000000000000000, -6.400000000000000355 ) ) ;
#432 = LINE ( 'NONE', #711, #628 ) ;
#433 = ORIENTED_EDGE ( 'NONE', *, *, #537, .F. ) ;
#434 = CARTESIAN_POINT ( 'NONE',  ( -25.29999999999999361, -3.999999999999989786, 0.000000000000000000 ) ) ;
#435 = CARTESIAN_POINT ( 'NONE',  ( 25.30000000000000426, -19.50000000000000000, -6.400000000000000355 ) ) ;
#436 = ORIENTED_EDGE ( 'NONE', *, *, #140, .T. ) ;
#437 = LINE ( 'NONE', #491, #908 ) ;
#438 = AXIS2_PLACEMENT_3D ( 'NONE', #684, #476, #409 ) ;
#439 = DIRECTION ( 'NONE',  ( -1.000000000000000000, 0.000000000000000000, -0.000000000000000000 ) ) ;
#440 = VECTOR ( 'NONE', #788, 1000.000000000000000 ) ;
#441 = EDGE_CURVE ( 'NONE', #495, #796, #265, .T. ) ;
#442 = CARTESIAN_POINT ( 'NONE',  ( 29.70000000000000639, -20.00000000000000355, -3.787139035180583146 ) ) ;
#443 = ORIENTED_EDGE ( 'NONE', *, *, #581, .T. ) ;
#444 = DIRECTION ( 'NONE',  ( 0.000000000000000000, -1.000000000000000000, 0.000000000000000000 ) ) ;
#445 = LINE ( 'NONE', #941, #497 ) ;
#446 = ORIENTED_EDGE ( 'NONE', *, *, #77, .F. ) ;
#447 = EDGE_LOOP ( 'NONE', ( #486, #368, #758, #285 ) ) ;
#448 = PLANE ( 'NONE',  #617 ) ;
#449 = LINE ( 'NONE', #888, #255 ) ;
#450 = ORIENTED_EDGE ( 'NONE', *, *, #118, .F. ) ;
#451 = ADVANCED_FACE ( 'NONE', ( #769 ), #413, .F. ) ;
#452 = ORIENTED_EDGE ( 'NONE', *, *, #564, .T. ) ;
#453 = PLANE ( 'NONE',  #256 ) ;
#454 = DIRECTION ( 'NONE',  ( -0.000000000000000000, -0.000000000000000000, -1.000000000000000000 ) ) ;
#455 = ORIENTED_EDGE ( 'NONE', *, *, #943, .T. ) ;
#456 = ORIENTED_EDGE ( 'NONE', *, *, #630, .F. ) ;
#457 = DIRECTION ( 'NONE',  ( -0.000000000000000000, -1.000000000000000000, -0.000000000000000000 ) ) ;
#458 = ADVANCED_BREP_SHAPE_REPRESENTATION ( 'mikona-holder-back', ( #896, #364 ), #379 ) ;
#459 = ORIENTED_EDGE ( 'NONE', *, *, #463, .T. ) ;
#460 = EDGE_LOOP ( 'NONE', ( #86, #420, #681, #184, #89, #433, #70, #833 ) ) ;
#461 = CARTESIAN_POINT ( 'NONE',  ( 25.30000000000000782, 19.50000000000000000, -6.400000000000000355 ) ) ;
#462 = DIRECTION ( 'NONE',  ( 0.000000000000000000, 0.000000000000000000, -1.000000000000000000 ) ) ;
#463 = EDGE_CURVE ( 'NONE', #150, #353, #920, .T. ) ;
#464 = VERTEX_POINT ( 'NONE', #751 ) ;
#465 = CARTESIAN_POINT ( 'NONE',  ( 0.000000000000000000, 0.000000000000000000, 1.000000000000000000 ) ) ;
#466 = DIRECTION ( 'NONE',  ( 0.000000000000000000, 0.000000000000000000, -1.000000000000000000 ) ) ;
#467 = EDGE_CURVE ( 'NONE', #560, #880, #632, .T. ) ;
#468 = ORIENTED_EDGE ( 'NONE', *, *, #897, .F. ) ;
#469 = VECTOR ( 'NONE', #361, 1000.000000000000000 ) ;
#470 = AXIS2_PLACEMENT_3D ( 'NONE', #33, #248, #475 ) ;
#471 = AXIS2_PLACEMENT_3D ( 'NONE', #541, #694, #466 ) ;
#472 = CARTESIAN_POINT ( 'NONE',  ( 25.30000000000000782, -19.49999999999998934, -10.40000000000000568 ) ) ;
#473 = PLANE ( 'NONE',  #438 ) ;
#474 = EDGE_LOOP ( 'NONE', ( #220, #858, #808, #388, #335, #156 ) ) ;
#475 = DIRECTION ( 'NONE',  ( 0.000000000000000000, 0.000000000000000000, -1.000000000000000000 ) ) ;
#476 = DIRECTION ( 'NONE',  ( -1.000000000000000000, 0.000000000000000000, -0.000000000000000000 ) ) ;
#477 = PRODUCT_DEFINITION_SHAPE ( 'NONE', 'NONE',  #295 ) ;
#478 = EDGE_CURVE ( 'NONE', #748, #519, #784, .T. ) ;
#479 = CARTESIAN_POINT ( 'NONE',  ( -25.30000000000000782, -19.49999999999999645, -8.400000000000000355 ) ) ;
#480 = CARTESIAN_POINT ( 'NONE',  ( 25.29999999999999716, 19.49999999999999645, -8.400000000000000355 ) ) ;
#481 = ORIENTED_EDGE ( 'NONE', *, *, #241, .T. ) ;
#482 = DIRECTION ( 'NONE',  ( 0.000000000000000000, 0.000000000000000000, -1.000000000000000000 ) ) ;
#483 = LINE ( 'NONE', #261, #859 ) ;
#484 = EDGE_CURVE ( 'NONE', #306, #231, #425, .T. ) ;
#485 = DIRECTION ( 'NONE',  ( -1.000000000000000000, 0.000000000000000000, -0.000000000000000000 ) ) ;
#486 = ORIENTED_EDGE ( 'NONE', *, *, #670, .T. ) ;
#487 = LINE ( 'NONE', #354, #644 ) ;
#488 = PLANE ( 'NONE',  #513 ) ;
#489 = EDGE_CURVE ( 'NONE', #873, #167, #224, .T. ) ;
#490 = LINE ( 'NONE', #776, #555 ) ;
#491 = CARTESIAN_POINT ( 'NONE',  ( 25.29999999999999716, 19.49999999999999645, -10.40000000000000213 ) ) ;
#492 = CARTESIAN_POINT ( 'NONE',  ( -25.29999999999999361, -3.999999999999989786, 0.000000000000000000 ) ) ;
#493 = CARTESIAN_POINT ( 'NONE',  ( 25.29999999999999716, 19.49999999999999645, -10.40000000000000213 ) ) ;
#494 = EDGE_CURVE ( 'NONE', #236, #239, #1, .T. ) ;
#495 = VERTEX_POINT ( 'NONE', #131 ) ;
#496 = DIRECTION ( 'NONE',  ( 6.308085367188400102E-16, 1.000000000000000000, 0.000000000000000000 ) ) ;
#497 = VECTOR ( 'NONE', #349, 1000.000000000000000 ) ;
#498 = AXIS2_PLACEMENT_3D ( 'NONE', #257, #901, #759 ) ;
#499 = CARTESIAN_POINT ( 'NONE',  ( 25.30000000000000782, 19.99999999999999645, -1.537139035180584035 ) ) ;
#500 = LINE ( 'NONE', #928, #643 ) ;
#501 = VERTEX_POINT ( 'NONE', #499 ) ;
#502 = FILL_AREA_STYLE ('',( #345 ) ) ;
#503 = LINE ( 'NONE', #940, #842 ) ;
#504 = DIRECTION ( 'NONE',  ( -0.000000000000000000, -0.000000000000000000, -1.000000000000000000 ) ) ;
#505 = EDGE_LOOP ( 'NONE', ( #641, #786, #456, #863 ) ) ;
#506 = EDGE_CURVE ( 'NONE', #873, #520, #638, .T. ) ;
#507 = CARTESIAN_POINT ( 'NONE',  ( 25.29999999999999361, -19.50000000000000355, -8.400000000000000355 ) ) ;
#508 = CARTESIAN_POINT ( 'NONE',  ( 25.29999999999999716, 20.49999999999998934, -8.400000000000000355 ) ) ;
#509 = ORIENTED_EDGE ( 'NONE', *, *, #410, .F. ) ;
#510 = CLOSED_SHELL ( 'NONE', ( #14, #253, #382, #451, #328, #90, #742, #782, #369, #399, #639, #799, #647, #429, #259, #850, #512, #624, #524, #518, #902, #339, #775, #247, #229, #614, #587, #125 ) ) ;
#511 = LINE ( 'NONE', #304, #166 ) ;
#512 = ADVANCED_FACE ( 'NONE', ( #426 ), #651, .F. ) ;
#513 = AXIS2_PLACEMENT_3D ( 'NONE', #659, #13, #296 ) ;
#514 = ORIENTED_EDGE ( 'NONE', *, *, #344, .T. ) ;
#515 = ORIENTED_EDGE ( 'NONE', *, *, #913, .T. ) ;
#516 = DIRECTION ( 'NONE',  ( 0.000000000000000000, 1.000000000000000000, 0.000000000000000000 ) ) ;
#517 = CYLINDRICAL_SURFACE ( 'NONE', #703, 2.249999999999999112 ) ;
#518 = ADVANCED_FACE ( 'NONE', ( #849 ), #71, .F. ) ;
#519 = VERTEX_POINT ( 'NONE', #507 ) ;
#520 = VERTEX_POINT ( 'NONE', #136 ) ;
#521 = CARTESIAN_POINT ( 'NONE',  ( 29.70000000000000639, 24.99999999999999289, 1.000000000000000000 ) ) ;
#522 = CARTESIAN_POINT ( 'NONE',  ( 29.70000000000000639, 19.99999999999999645, -6.037139035180581814 ) ) ;
#523 = ORIENTED_EDGE ( 'NONE', *, *, #926, .T. ) ;
#524 = ADVANCED_FACE ( 'NONE', ( #276 ), #204, .T. ) ;
#525 = ORIENTED_EDGE ( 'NONE', *, *, #506, .F. ) ;
#526 = CARTESIAN_POINT ( 'NONE',  ( 29.70000000000000639, 24.99999999999999289, 1.000000000000000000 ) ) ;
#527 = LINE ( 'NONE', #747, #183 ) ;
#528 = CIRCLE ( 'NONE', #165, 2.249999999999999112 ) ;
#529 = AXIS2_PLACEMENT_3D ( 'NONE', #602, #96, #887 ) ;
#530 = ORIENTED_EDGE ( 'NONE', *, *, #897, .T. ) ;
#531 = ORIENTED_EDGE ( 'NONE', *, *, #194, .F. ) ;
#532 = EDGE_CURVE ( 'NONE', #569, #307, #348, .T. ) ;
#533 = CARTESIAN_POINT ( 'NONE',  ( 25.30000000000000782, 24.99999999999999289, -10.40000000000000036 ) ) ;
#534 = DIRECTION ( 'NONE',  ( 1.000000000000000000, 6.856614529552597070E-17, 0.000000000000000000 ) ) ;
#535 = VERTEX_POINT ( 'NONE', #706 ) ;
#536 = CARTESIAN_POINT ( 'NONE',  ( -25.29999999999999361, 19.50000000000000000, 0.000000000000000000 ) ) ;
#537 = EDGE_CURVE ( 'NONE', #428, #560, #774, .T. ) ;
#538 = DIRECTION ( 'NONE',  ( 1.000000000000000000, -1.371322905910519414E-16, 0.000000000000000000 ) ) ;
#539 = ORIENTED_EDGE ( 'NONE', *, *, #682, .F. ) ;
#540 = DIRECTION ( 'NONE',  ( 0.000000000000000000, 0.000000000000000000, -1.000000000000000000 ) ) ;
#541 = CARTESIAN_POINT ( 'NONE',  ( -25.29999999999999361, -24.99999999999998934, 1.000000000000000000 ) ) ;
#542 = CARTESIAN_POINT ( 'NONE',  ( -25.29999999999999361, 19.50000000000000000, -6.400000000000000355 ) ) ;
#543 = VECTOR ( 'NONE', #872, 1000.000000000000000 ) ;
#544 = AXIS2_PLACEMENT_3D ( 'NONE', #145, #563, #645 ) ;
#545 = DIRECTION ( 'NONE',  ( -1.000000000000000000, -6.856614529552597070E-17, -0.000000000000000000 ) ) ;
#546 = CARTESIAN_POINT ( 'NONE',  ( 25.30000000000000782, -20.00000000000000355, -3.787139035180583146 ) ) ;
#547 = ORIENTED_EDGE ( 'NONE', *, *, #201, .T. ) ;
#548 = EDGE_CURVE ( 'NONE', #330, #301, #861, .T. ) ;
#549 = CARTESIAN_POINT ( 'NONE',  ( 25.30000000000000071, -25.00000000000000711, -8.400000000000000355 ) ) ;
#550 = FACE_OUTER_BOUND ( 'NONE', #800, .T. ) ;
#551 = CARTESIAN_POINT ( 'NONE',  ( -25.29999999999999361, 19.50000000000000000, 0.000000000000000000 ) ) ;
#552 = DIRECTION ( 'NONE',  ( 1.000000000000000000, 0.000000000000000000, 0.000000000000000000 ) ) ;
#553 = DIRECTION ( 'NONE',  ( 1.000000000000000000, 0.000000000000000000, 0.000000000000000000 ) ) ;
#554 = ORIENTED_EDGE ( 'NONE', *, *, #323, .T. ) ;
#555 = VECTOR ( 'NONE', #129, 1000.000000000000000 ) ;
#556 = VECTOR ( 'NONE', #244, 1000.000000000000000 ) ;
#557 = CARTESIAN_POINT ( 'NONE',  ( -25.30000000000000071, -25.00000000000000711, -10.40000000000000213 ) ) ;
#558 = EDGE_CURVE ( 'NONE', #353, #260, #503, .T. ) ;
#559 = CARTESIAN_POINT ( 'NONE',  ( 25.29999999999999716, 19.49999999999999645, -10.40000000000000213 ) ) ;
#560 = VERTEX_POINT ( 'NONE', #351 ) ;
#561 = CARTESIAN_POINT ( 'NONE',  ( -25.29999999999999361, -3.999999999999989786, 1.000000000000000000 ) ) ;
#562 = DIRECTION ( 'NONE',  ( -0.000000000000000000, 1.000000000000000000, 0.000000000000000000 ) ) ;
#563 = DIRECTION ( 'NONE',  ( 1.000000000000000000, 0.000000000000000000, 0.000000000000000000 ) ) ;
#564 = EDGE_CURVE ( 'NONE', #793, #428, #582, .T. ) ;
#565 = LINE ( 'NONE', #935, #735 ) ;
#566 = CARTESIAN_POINT ( 'NONE',  ( 25.30000000000000426, -25.00000000000000000, -6.400000000000000355 ) ) ;
#567 = CARTESIAN_POINT ( 'NONE',  ( 29.70000000000000639, 24.99999999999999289, -10.40000000000000036 ) ) ;
#568 = CARTESIAN_POINT ( 'NONE',  ( -25.29999999999999716, 24.99999999999999289, -10.40000000000000213 ) ) ;
#569 = VERTEX_POINT ( 'NONE', #930 ) ;
#570 = VECTOR ( 'NONE', #457, 1000.000000000000000 ) ;
#571 = VECTOR ( 'NONE', #233, 1000.000000000000000 ) ;
#572 = CARTESIAN_POINT ( 'NONE',  ( -1.299999999999992051, -3.999999999999987121, 0.000000000000000000 ) ) ;
#573 = CARTESIAN_POINT ( 'NONE',  ( 25.30000000000000782, 19.50000000000000000, -6.400000000000000355 ) ) ;
#574 = ORIENTED_EDGE ( 'NONE', *, *, #53, .T. ) ;
#575 = EDGE_CURVE ( 'NONE', #98, #171, #721, .T. ) ;
#576 =( NAMED_UNIT ( * ) PLANE_ANGLE_UNIT ( ) SI_UNIT ( $, .RADIAN. ) );
#577 = ORIENTED_EDGE ( 'NONE', *, *, #222, .F. ) ;
#578 = DIRECTION ( 'NONE',  ( -1.000000000000000000, 1.371322905910519660E-16, 0.000000000000000000 ) ) ;
#579 = CARTESIAN_POINT ( 'NONE',  ( 29.70000000000000639, -25.00000000000000000, -10.40000000000000568 ) ) ;
#580 = ORIENTED_EDGE ( 'NONE', *, *, #856, .T. ) ;
#581 = EDGE_CURVE ( 'NONE', #793, #761, #854, .T. ) ;
#582 = LINE ( 'NONE', #635, #795 ) ;
#583 = ORIENTED_EDGE ( 'NONE', *, *, #548, .T. ) ;
#584 = ORIENTED_EDGE ( 'NONE', *, *, #268, .F. ) ;
#585 = VECTOR ( 'NONE', #305, 1000.000000000000000 ) ;
#586 = CARTESIAN_POINT ( 'NONE',  ( 25.29999999999999361, -19.50000000000000355, -10.40000000000000213 ) ) ;
#587 = ADVANCED_FACE ( 'NONE', ( #200 ), #488, .F. ) ;
#588 = AXIS2_PLACEMENT_3D ( 'NONE', #214, #778, #67 ) ;
#589 = LINE ( 'NONE', #738, #905 ) ;
#590 = CIRCLE ( 'NONE', #705, 2.249999999999999112 ) ;
#591 = VERTEX_POINT ( 'NONE', #526 ) ;
#592 = VERTEX_POINT ( 'NONE', #746 ) ;
#593 = CARTESIAN_POINT ( 'NONE',  ( -25.29999999999999361, -3.999999999999989786, 1.000000000000000000 ) ) ;
#594 = EDGE_CURVE ( 'NONE', #805, #342, #511, .T. ) ;
#595 = CARTESIAN_POINT ( 'NONE',  ( 25.29999999999999361, -19.50000000000000355, -10.40000000000000213 ) ) ;
#596 = ORIENTED_EDGE ( 'NONE', *, *, #770, .T. ) ;
#597 = ORIENTED_EDGE ( 'NONE', *, *, #113, .F. ) ;
#598 = PLANE ( 'NONE',  #28 ) ;
#599 = FACE_OUTER_BOUND ( 'NONE', #891, .T. ) ;
#600 = ORIENTED_EDGE ( 'NONE', *, *, #828, .T. ) ;
#601 = ORIENTED_EDGE ( 'NONE', *, *, #558, .F. ) ;
#602 = CARTESIAN_POINT ( 'NONE',  ( -25.29999999999999716, -19.50000000000000000, -6.400000000000000355 ) ) ;
#603 = DIRECTION ( 'NONE',  ( 6.856614529552597070E-17, -1.000000000000000000, 0.000000000000000000 ) ) ;
#604 = ORIENTED_EDGE ( 'NONE', *, *, #581, .F. ) ;
#605 = EDGE_CURVE ( 'NONE', #330, #836, #29, .T. ) ;
#606 = CARTESIAN_POINT ( 'NONE',  ( -25.29999999999999716, -20.50000000000000711, -6.400000000000000355 ) ) ;
#607 = DIRECTION ( 'NONE',  ( 1.000000000000000000, -1.371322905910519414E-16, 0.000000000000000000 ) ) ;
#608 = ORIENTED_EDGE ( 'NONE', *, *, #363, .F. ) ;
#609 = CARTESIAN_POINT ( 'NONE',  ( 25.30000000000000782, 19.99999999999999645, -6.037139035180581814 ) ) ;
#610 = FACE_OUTER_BOUND ( 'NONE', #671, .T. ) ;
#611 = ORIENTED_EDGE ( 'NONE', *, *, #913, .F. ) ;
#612 = PLANE ( 'NONE',  #88 ) ;
#613 = LINE ( 'NONE', #190, #780 ) ;
#614 = ADVANCED_FACE ( 'NONE', ( #7 ), #598, .T. ) ;
#615 = VERTEX_POINT ( 'NONE', #736 ) ;
#616 = VECTOR ( 'NONE', #122, 1000.000000000000000 ) ;
#617 = AXIS2_PLACEMENT_3D ( 'NONE', #320, #153, #370 ) ;
#618 = CARTESIAN_POINT ( 'NONE',  ( -1.299999999999992051, -3.999999999999987121, 1.000000000000000000 ) ) ;
#619 = DIRECTION ( 'NONE',  ( -0.000000000000000000, 0.000000000000000000, 1.000000000000000000 ) ) ;
#620 = CARTESIAN_POINT ( 'NONE',  ( 25.30000000000000782, -20.00000000000000355, -3.787139035180583146 ) ) ;
#621 = CARTESIAN_POINT ( 'NONE',  ( -25.29999999999999361, 25.00000000000000355, 1.000000000000000000 ) ) ;
#622 = CARTESIAN_POINT ( 'NONE',  ( -25.29999999999999716, -19.50000000000000000, -6.400000000000000355 ) ) ;
#623 = ORIENTED_EDGE ( 'NONE', *, *, #890, .F. ) ;
#624 = ADVANCED_FACE ( 'NONE', ( #871 ), #390, .F. ) ;
#625 = DIRECTION ( 'NONE',  ( 1.000000000000000000, 0.000000000000000000, -0.000000000000000000 ) ) ;
#626 = EDGE_LOOP ( 'NONE', ( #373, #732, #446, #810, #745, #338 ) ) ;
#627 = CARTESIAN_POINT ( 'NONE',  ( 29.70000000000000639, -25.00000000000000355, 1.000000000000000000 ) ) ;
#628 = VECTOR ( 'NONE', #68, 1000.000000000000000 ) ;
#629 = AXIS2_PLACEMENT_3D ( 'NONE', #367, #291, #701 ) ;
#630 = EDGE_CURVE ( 'NONE', #311, #748, #655, .T. ) ;
#631 = VECTOR ( 'NONE', #111, 1000.000000000000000 ) ;
#632 = LINE ( 'NONE', #492, #750 ) ;
#633 = CARTESIAN_POINT ( 'NONE',  ( 29.70000000000000639, 24.99999999999999289, -10.40000000000000036 ) ) ;
#634 = DIRECTION ( 'NONE',  ( 0.000000000000000000, 0.000000000000000000, -1.000000000000000000 ) ) ;
#635 = CARTESIAN_POINT ( 'NONE',  ( -1.299999999999992051, 19.00000000000001421, 1.000000000000000000 ) ) ;
#636 = LINE ( 'NONE', #573, #10 ) ;
#637 = ORIENTED_EDGE ( 'NONE', *, *, #575, .T. ) ;
#638 = LINE ( 'NONE', #217, #395 ) ;
#639 = ADVANCED_FACE ( 'NONE', ( #798 ), #453, .F. ) ;
#640 = DIRECTION ( 'NONE',  ( 1.000000000000000000, -0.000000000000000000, -0.000000000000000000 ) ) ;
#641 = ORIENTED_EDGE ( 'NONE', *, *, #173, .T. ) ;
#642 = LINE ( 'NONE', #566, #319 ) ;
#643 = VECTOR ( 'NONE', #275, 1000.000000000000000 ) ;
#644 = VECTOR ( 'NONE', #496, 1000.000000000000000 ) ;
#645 = DIRECTION ( 'NONE',  ( 0.000000000000000000, 0.000000000000000000, -1.000000000000000000 ) ) ;
#646 = DIRECTION ( 'NONE',  ( -1.000000000000000000, 1.371322905910519414E-16, 0.000000000000000000 ) ) ;
#647 = ADVANCED_FACE ( 'NONE', ( #811 ), #448, .F. ) ;
#648 = ORIENTED_EDGE ( 'NONE', *, *, #77, .T. ) ;
#649 = CARTESIAN_POINT ( 'NONE',  ( 0.000000000000000000, 0.000000000000000000, 0.000000000000000000 ) ) ;
#650 = ORIENTED_EDGE ( 'NONE', *, *, #310, .F. ) ;
#651 = PLANE ( 'NONE',  #719 ) ;
#652 = DIRECTION ( 'NONE',  ( 0.000000000000000000, 0.000000000000000000, -1.000000000000000000 ) ) ;
#653 = ORIENTED_EDGE ( 'NONE', *, *, #155, .F. ) ;
#654 = EDGE_CURVE ( 'NONE', #569, #592, #783, .T. ) ;
#655 = LINE ( 'NONE', #586, #270 ) ;
#656 = CARTESIAN_POINT ( 'NONE',  ( -1.299999999999992051, -3.999999999999987121, 1.000000000000000000 ) ) ;
#657 = ORIENTED_EDGE ( 'NONE', *, *, #918, .T. ) ;
#658 = VERTEX_POINT ( 'NONE', #593 ) ;
#659 = CARTESIAN_POINT ( 'NONE',  ( 0.000000000000000000, 0.000000000000000000, -8.400000000000000355 ) ) ;
#660 = VECTOR ( 'NONE', #359, 1000.000000000000000 ) ;
#661 = CARTESIAN_POINT ( 'NONE',  ( 25.29999999999999716, -20.50000000000001066, -8.400000000000000355 ) ) ;
#662 = EDGE_LOOP ( 'NONE', ( #175, #313, #94, #815 ) ) ;
#663 = ORIENTED_EDGE ( 'NONE', *, *, #118, .T. ) ;
#664 = LINE ( 'NONE', #18, #377 ) ;
#665 = DIRECTION ( 'NONE',  ( -1.261617073437675287E-15, 1.000000000000000000, 0.000000000000000000 ) ) ;
#666 = EDGE_LOOP ( 'NONE', ( #744, #3, #547, #525 ) ) ;
#667 = ORIENTED_EDGE ( 'NONE', *, *, #575, .F. ) ;
#668 = CARTESIAN_POINT ( 'NONE',  ( -25.29999999999999361, -24.99999999999998934, 1.000000000000000000 ) ) ;
#669 = DIRECTION ( 'NONE',  ( -0.000000000000000000, -0.000000000000000000, 1.000000000000000000 ) ) ;
#670 = EDGE_CURVE ( 'NONE', #823, #869, #79, .T. ) ;
#671 = EDGE_LOOP ( 'NONE', ( #161, #385, #380, #157, #116, #868, #881, #468, #455, #74, #35, #865, #398, #672, #653, #689 ) ) ;
#672 = ORIENTED_EDGE ( 'NONE', *, *, #822, .T. ) ;
#673 = DIRECTION ( 'NONE',  ( -6.856614529552597070E-17, 1.000000000000000000, 0.000000000000000000 ) ) ;
#674 = AXIS2_PLACEMENT_3D ( 'NONE', #760, #485, #619 ) ;
#675 = CARTESIAN_POINT ( 'NONE',  ( 25.30000000000000782, 19.50000000000000000, -5.980880132028612906 ) ) ;
#676 = VECTOR ( 'NONE', #545, 1000.000000000000000 ) ;
#677 = ORIENTED_EDGE ( 'NONE', *, *, #201, .F. ) ;
#678 = EDGE_CURVE ( 'NONE', #95, #307, #817, .T. ) ;
#679 = CARTESIAN_POINT ( 'NONE',  ( -25.29999999999999716, -19.50000000000000000, -6.400000000000000355 ) ) ;
#680 = DIRECTION ( 'NONE',  ( -0.000000000000000000, -1.000000000000000000, -0.000000000000000000 ) ) ;
#681 = ORIENTED_EDGE ( 'NONE', *, *, #678, .F. ) ;
#682 = EDGE_CURVE ( 'NONE', #591, #26, #22, .T. ) ;
#683 = DIRECTION ( 'NONE',  ( 1.371322905910519414E-16, 1.000000000000000000, 0.000000000000000000 ) ) ;
#684 = CARTESIAN_POINT ( 'NONE',  ( 25.30000000000000782, 0.000000000000000000, 0.000000000000000000 ) ) ;
#685 = EDGE_LOOP ( 'NONE', ( #708, #219, #191, #292 ) ) ;
#686 = CARTESIAN_POINT ( 'NONE',  ( -1.299999999999992051, -3.999999999999987121, 1.000000000000000000 ) ) ;
#687 = EDGE_CURVE ( 'NONE', #307, #464, #228, .T. ) ;
#688 = FACE_BOUND ( 'NONE', #202, .T. ) ;
#689 = ORIENTED_EDGE ( 'NONE', *, *, #605, .F. ) ;
#690 = VECTOR ( 'NONE', #665, 1000.000000000000000 ) ;
#691 = VECTOR ( 'NONE', #45, 1000.000000000000000 ) ;
#692 = AXIS2_PLACEMENT_3D ( 'NONE', #939, #562, #848 ) ;
#693 = DIRECTION ( 'NONE',  ( 1.000000000000000000, 0.000000000000000000, -0.000000000000000000 ) ) ;
#694 = DIRECTION ( 'NONE',  ( 1.000000000000000000, 0.000000000000000000, 0.000000000000000000 ) ) ;
#695 = LINE ( 'NONE', #416, #405 ) ;
#696 = CARTESIAN_POINT ( 'NONE',  ( 25.29999999999999716, 20.49999999999998934, -8.400000000000000355 ) ) ;
#697 = CARTESIAN_POINT ( 'NONE',  ( 0.000000000000000000, 0.000000000000000000, 0.000000000000000000 ) ) ;
#698 = CARTESIAN_POINT ( 'NONE',  ( -25.29999999999999361, 19.00000000000001421, 1.000000000000000000 ) ) ;
#699 = EDGE_CURVE ( 'NONE', #909, #260, #893, .T. ) ;
#700 = CARTESIAN_POINT ( 'NONE',  ( -25.30000000000000071, -25.00000000000000711, -8.400000000000000355 ) ) ;
#701 = DIRECTION ( 'NONE',  ( 0.000000000000000000, 0.000000000000000000, 1.000000000000000000 ) ) ;
#702 = LINE ( 'NONE', #765, #616 ) ;
#703 = AXIS2_PLACEMENT_3D ( 'NONE', #803, #883, #462 ) ;
#704 = VECTOR ( 'NONE', #62, 1000.000000000000000 ) ;
#705 = AXIS2_PLACEMENT_3D ( 'NONE', #826, #329, #404 ) ;
#706 = CARTESIAN_POINT ( 'NONE',  ( -25.30000000000000426, -20.50000000000000355, -8.400000000000000355 ) ) ;
#707 = DIRECTION ( 'NONE',  ( 1.000000000000000000, 0.000000000000000000, 0.000000000000000000 ) ) ;
#708 = ORIENTED_EDGE ( 'NONE', *, *, #494, .F. ) ;
#709 = EDGE_CURVE ( 'NONE', #748, #150, #92, .T. ) ;
#710 = DIRECTION ( 'NONE',  ( -1.000000000000000000, -1.084202172485504434E-16, -0.000000000000000000 ) ) ;
#711 = CARTESIAN_POINT ( 'NONE',  ( 29.70000000000000639, -25.00000000000000355, 1.000000000000000000 ) ) ;
#712 = ORIENTED_EDGE ( 'NONE', *, *, #548, .F. ) ;
#713 = LINE ( 'NONE', #340, #797 ) ;
#714 = ORIENTED_EDGE ( 'NONE', *, *, #816, .F. ) ;
#715 = PRODUCT_DEFINITION_CONTEXT ( 'detailed design', #105, 'design' ) ;
#716 = DIRECTION ( 'NONE',  ( 1.000000000000000000, -0.000000000000000000, -0.000000000000000000 ) ) ;
#717 = LINE ( 'NONE', #63, #346 ) ;
#718 = ORIENTED_EDGE ( 'NONE', *, *, #290, .T. ) ;
#719 = AXIS2_PLACEMENT_3D ( 'NONE', #208, #127, #934 ) ;
#720 = PRODUCT_DEFINITION_FORMATION_WITH_SPECIFIED_SOURCE ( 'ANY', '', #298, .NOT_KNOWN. ) ;
#721 = LINE ( 'NONE', #567, #440 ) ;
#722 = DIRECTION ( 'NONE',  ( 1.000000000000000000, 0.000000000000000000, 0.000000000000000000 ) ) ;
#723 = EDGE_CURVE ( 'NONE', #236, #734, #812, .T. ) ;
#724 = EDGE_LOOP ( 'NONE', ( #596, #152, #718, #443, #6, #937, #266, #539 ) ) ;
#725 = DIRECTION ( 'NONE',  ( -0.000000000000000000, 1.000000000000000000, 1.387778780781445922E-16 ) ) ;
#726 = CARTESIAN_POINT ( 'NONE',  ( 25.30000000000000782, 19.50000000000000000, -1.593397938332552499 ) ) ;
#727 = ORIENTED_EDGE ( 'NONE', *, *, #277, .F. ) ;
#728 = EDGE_CURVE ( 'NONE', #823, #26, #664, .T. ) ;
#729 = VERTEX_POINT ( 'NONE', #536 ) ;
#730 = DIRECTION ( 'NONE',  ( 1.000000000000000000, 0.000000000000000000, 0.000000000000000000 ) ) ;
#731 = CARTESIAN_POINT ( 'NONE',  ( -25.30000000000000426, 20.49999999999999645, -6.400000000000000355 ) ) ;
#732 = ORIENTED_EDGE ( 'NONE', *, *, #60, .F. ) ;
#733 = DIRECTION ( 'NONE',  ( 0.000000000000000000, 0.000000000000000000, 1.000000000000000000 ) ) ;
#734 = VERTEX_POINT ( 'NONE', #609 ) ;
#735 = VECTOR ( 'NONE', #646, 1000.000000000000000 ) ;
#736 = CARTESIAN_POINT ( 'NONE',  ( -25.29999999999999361, 19.50000000000000000, -6.400000000000000355 ) ) ;
#737 = AXIS2_PLACEMENT_3D ( 'NONE', #39, #552, #333 ) ;
#738 = CARTESIAN_POINT ( 'NONE',  ( 25.30000000000000782, 19.99999999999999645, -6.037139035180581814 ) ) ;
#739 = ORIENTED_EDGE ( 'NONE', *, *, #770, .F. ) ;
#740 = ORIENTED_EDGE ( 'NONE', *, *, #537, .T. ) ;
#741 = DIRECTION ( 'NONE',  ( 0.000000000000000000, 0.000000000000000000, 1.000000000000000000 ) ) ;
#742 = ADVANCED_FACE ( 'NONE', ( #186 ), #107, .F. ) ;
#743 = FACE_OUTER_BOUND ( 'NONE', #365, .T. ) ;
#744 = ORIENTED_EDGE ( 'NONE', *, *, #422, .F. ) ;
#745 = ORIENTED_EDGE ( 'NONE', *, *, #494, .T. ) ;
#746 = CARTESIAN_POINT ( 'NONE',  ( 25.30000000000000782, -20.00000000000000355, -1.537139035180584035 ) ) ;
#747 = CARTESIAN_POINT ( 'NONE',  ( -25.30000000000000426, -20.50000000000000355, -8.400000000000000355 ) ) ;
#748 = VERTEX_POINT ( 'NONE', #472 ) ;
#749 = PLANE ( 'NONE',  #907 ) ;
#750 = VECTOR ( 'NONE', #710, 1000.000000000000000 ) ;
#751 = CARTESIAN_POINT ( 'NONE',  ( 25.30000000000000782, 19.49999999999998224, 0.000000000000000000 ) ) ;
#752 = VECTOR ( 'NONE', #251, 1000.000000000000000 ) ;
#753 = VERTEX_POINT ( 'NONE', #479 ) ;
#754 = EDGE_CURVE ( 'NONE', #658, #823, #756, .T. ) ;
#755 = VECTOR ( 'NONE', #680, 1000.000000000000000 ) ;
#756 = LINE ( 'NONE', #400, #752 ) ;
#757 = DIRECTION ( 'NONE',  ( 1.000000000000000000, -1.371322905910519414E-16, -0.000000000000000000 ) ) ;
#758 = ORIENTED_EDGE ( 'NONE', *, *, #177, .F. ) ;
#759 = DIRECTION ( 'NONE',  ( 0.000000000000000000, 0.000000000000000000, 1.000000000000000000 ) ) ;
#760 = CARTESIAN_POINT ( 'NONE',  ( 29.70000000000000639, 0.000000000000000000, 0.000000000000000000 ) ) ;
#761 = VERTEX_POINT ( 'NONE', #686 ) ;
#762 = CYLINDRICAL_SURFACE ( 'NONE', #121, 2.249999999999999112 ) ;
#763 = LINE ( 'NONE', #252, #631 ) ;
#764 = ORIENTED_EDGE ( 'NONE', *, *, #605, .T. ) ;
#765 = CARTESIAN_POINT ( 'NONE',  ( 25.30000000000000782, -20.00000000000000355, -1.537139035180584035 ) ) ;
#766 = VECTOR ( 'NONE', #444, 1000.000000000000000 ) ;
#767 = COLOUR_RGB ( '',0.7921568627450980005, 0.8196078431372548767, 0.9333333333333333481 ) ;
#768 = DIRECTION ( 'NONE',  ( 0.000000000000000000, 0.000000000000000000, -1.000000000000000000 ) ) ;
#769 = FACE_OUTER_BOUND ( 'NONE', #460, .T. ) ;
#770 = EDGE_CURVE ( 'NONE', #591, #289, #336, .T. ) ;
#771 = ORIENTED_EDGE ( 'NONE', *, *, #32, .F. ) ;
#772 = EDGE_LOOP ( 'NONE', ( #31, #128, #623, #601 ) ) ;
#773 = SURFACE_STYLE_USAGE ( .BOTH. , #65 ) ;
#774 = LINE ( 'NONE', #572, #660 ) ;
#775 = ADVANCED_FACE ( 'NONE', ( #412 ), #749, .F. ) ;
#776 = CARTESIAN_POINT ( 'NONE',  ( -25.29999999999999361, 19.50000000000000000, -6.400000000000000355 ) ) ;
#777 = DIRECTION ( 'NONE',  ( -0.000000000000000000, -0.000000000000000000, 1.000000000000000000 ) ) ;
#778 = DIRECTION ( 'NONE',  ( 1.000000000000000000, 0.000000000000000000, 0.000000000000000000 ) ) ;
#779 = CARTESIAN_POINT ( 'NONE',  ( 25.29999999999999361, -20.50000000000000711, -8.400000000000000355 ) ) ;
#780 = VECTOR ( 'NONE', #757, 1000.000000000000000 ) ;
#781 = VERTEX_POINT ( 'NONE', #110 ) ;
#782 = ADVANCED_FACE ( 'NONE', ( #123 ), #612, .F. ) ;
#783 = CIRCLE ( 'NONE', #134, 2.249999999999999112 ) ;
#784 = LINE ( 'NONE', #419, #195 ) ;
#785 = CARTESIAN_POINT ( 'NONE',  ( 29.70000000000000639, -20.00000000000000355, -1.537139035180584035 ) ) ;
#786 = ORIENTED_EDGE ( 'NONE', *, *, #478, .F. ) ;
#787 = CARTESIAN_POINT ( 'NONE',  ( 25.29999999999999716, 20.49999999999998934, -8.400000000000000355 ) ) ;
#788 = DIRECTION ( 'NONE',  ( -1.000000000000000000, -0.000000000000000000, -0.000000000000000000 ) ) ;
#789 = ORIENTED_EDGE ( 'NONE', *, *, #828, .F. ) ;
#790 =( NAMED_UNIT ( * ) PLANE_ANGLE_UNIT ( ) SI_UNIT ( $, .RADIAN. ) );
#791 = EDGE_CURVE ( 'NONE', #167, #569, #211, .T. ) ;
#792 = CARTESIAN_POINT ( 'NONE',  ( 25.30000000000000782, 19.50000000000000355, -10.40000000000000036 ) ) ;
#793 = VERTEX_POINT ( 'NONE', #904 ) ;
#794 = AXIS2_PLACEMENT_3D ( 'NONE', #697, #50, #625 ) ;
#795 = VECTOR ( 'NONE', #287, 1000.000000000000000 ) ;
#796 = VERTEX_POINT ( 'NONE', #327 ) ;
#797 = VECTOR ( 'NONE', #207, 1000.000000000000000 ) ;
#798 = FACE_OUTER_BOUND ( 'NONE', #447, .T. ) ;
#799 = ADVANCED_FACE ( 'NONE', ( #264 ), #824, .T. ) ;
#800 = EDGE_LOOP ( 'NONE', ( #712, #764, #648, #663 ) ) ;
#801 = ORIENTED_EDGE ( 'NONE', *, *, #844, .F. ) ;
#802 = DIRECTION ( 'NONE',  ( 1.000000000000000000, -1.371322905910519414E-16, -0.000000000000000000 ) ) ;
#803 = CARTESIAN_POINT ( 'NONE',  ( 25.30000000000000782, 19.99999999999999645, -3.787139035180583146 ) ) ;
#804 = EDGE_LOOP ( 'NONE', ( #554, #378, #921, #138 ) ) ;
#805 = VERTEX_POINT ( 'NONE', #606 ) ;
#806 = CARTESIAN_POINT ( 'NONE',  ( -25.30000000000000071, 19.50000000000000355, -10.40000000000000213 ) ) ;
#807 = LINE ( 'NONE', #163, #690 ) ;
#808 = ORIENTED_EDGE ( 'NONE', *, *, #323, .F. ) ;
#809 = EDGE_CURVE ( 'NONE', #231, #306, #73, .T. ) ;
#810 = ORIENTED_EDGE ( 'NONE', *, *, #155, .T. ) ;
#811 = FACE_OUTER_BOUND ( 'NONE', #160, .T. ) ;
#812 = CIRCLE ( 'NONE', #11, 2.249999999999999112 ) ;
#813 = DIRECTION ( 'NONE',  ( 1.000000000000000000, 0.000000000000000000, 0.000000000000000000 ) ) ;
#814 = EDGE_LOOP ( 'NONE', ( #109, #197, #611, #459 ) ) ;
#815 = ORIENTED_EDGE ( 'NONE', *, *, #363, .T. ) ;
#816 = EDGE_CURVE ( 'NONE', #495, #95, #193, .T. ) ;
#817 = LINE ( 'NONE', #84, #571 ) ;
#818 = DIRECTION ( 'NONE',  ( 1.000000000000000000, -0.000000000000000000, -0.000000000000000000 ) ) ;
#819 = EDGE_LOOP ( 'NONE', ( #771, #83, #876, #852, #932, #212 ) ) ;
#820 = DIRECTION ( 'NONE',  ( -0.000000000000000000, -0.000000000000000000, 1.000000000000000000 ) ) ;
#821 = CYLINDRICAL_SURFACE ( 'NONE', #936, 2.249999999999999112 ) ;
#822 = EDGE_CURVE ( 'NONE', #239, #236, #875, .T. ) ;
#823 = VERTEX_POINT ( 'NONE', #831 ) ;
#824 = PLANE ( 'NONE',  #347 ) ;
#825 = VECTOR ( 'NONE', #454, 1000.000000000000000 ) ;
#826 = CARTESIAN_POINT ( 'NONE',  ( 25.30000000000000782, 19.99999999999999645, -3.787139035180583146 ) ) ;
#827 = VECTOR ( 'NONE', #882, 1000.000000000000000 ) ;
#828 = EDGE_CURVE ( 'NONE', #781, #301, #483, .T. ) ;
#829 = ORIENTED_EDGE ( 'NONE', *, *, #838, .T. ) ;
#830 = AXIS2_PLACEMENT_3D ( 'NONE', #620, #272, #482 ) ;
#831 = CARTESIAN_POINT ( 'NONE',  ( -25.29999999999999361, -24.99999999999998934, 1.000000000000000000 ) ) ;
#832 = CARTESIAN_POINT ( 'NONE',  ( -1.299999999999992051, 19.00000000000001421, 0.000000000000000000 ) ) ;
#833 = ORIENTED_EDGE ( 'NONE', *, *, #241, .F. ) ;
#834 = DIRECTION ( 'NONE',  ( 1.261617073437676865E-15, -1.000000000000000000, -0.000000000000000000 ) ) ;
#835 = CARTESIAN_POINT ( 'NONE',  ( 25.29999999999999716, -20.50000000000001066, -6.400000000000000355 ) ) ;
#836 = VERTEX_POINT ( 'NONE', #176 ) ;
#837 = ORIENTED_EDGE ( 'NONE', *, *, #709, .T. ) ;
#838 = EDGE_CURVE ( 'NONE', #841, #428, #324, .T. ) ;
#839 = DIRECTION ( 'NONE',  ( 1.000000000000000000, 0.000000000000000000, 0.000000000000000000 ) ) ;
#840 = DIRECTION ( 'NONE',  ( 6.308085367188392213E-16, -1.000000000000000000, -0.000000000000000000 ) ) ;
#841 = VERTEX_POINT ( 'NONE', #403 ) ;
#842 = VECTOR ( 'NONE', #578, 1000.000000000000000 ) ;
#843 = VECTOR ( 'NONE', #423, 1000.000000000000000 ) ;
#844 = EDGE_CURVE ( 'NONE', #519, #135, #910, .T. ) ;
#845 = DIRECTION ( 'NONE',  ( -0.000000000000000000, -0.000000000000000000, 1.000000000000000000 ) ) ;
#846 = ORIENTED_EDGE ( 'NONE', *, *, #441, .T. ) ;
#847 = DIRECTION ( 'NONE',  ( -0.000000000000000000, -0.000000000000000000, -1.000000000000000000 ) ) ;
#848 = DIRECTION ( 'NONE',  ( 0.000000000000000000, -0.000000000000000000, 1.000000000000000000 ) ) ;
#849 = FACE_OUTER_BOUND ( 'NONE', #685, .T. ) ;
#850 = ADVANCED_FACE ( 'NONE', ( #189 ), #762, .F. ) ;
#851 = FACE_OUTER_BOUND ( 'NONE', #814, .T. ) ;
#852 = ORIENTED_EDGE ( 'NONE', *, *, #489, .F. ) ;
#853 = DIRECTION ( 'NONE',  ( -1.000000000000000000, 1.371322905910519660E-16, 0.000000000000000000 ) ) ;
#854 = LINE ( 'NONE', #866, #300 ) ;
#855 = CARTESIAN_POINT ( 'NONE',  ( 25.29999999999999361, -19.50000000000000355, -8.400000000000000355 ) ) ;
#856 = EDGE_CURVE ( 'NONE', #535, #753, #199, .T. ) ;
#857 = VECTOR ( 'NONE', #169, 1000.000000000000000 ) ;
#858 = ORIENTED_EDGE ( 'NONE', *, *, #532, .F. ) ;
#859 = VECTOR ( 'NONE', #820, 1000.000000000000000 ) ;
#860 = DIRECTION ( 'NONE',  ( -0.000000000000000000, -1.000000000000000000, -0.000000000000000000 ) ) ;
#861 = LINE ( 'NONE', #274, #704 ) ;
#862 = LINE ( 'NONE', #855, #56 ) ;
#863 = ORIENTED_EDGE ( 'NONE', *, *, #277, .T. ) ;
#864 = LINE ( 'NONE', #787, #408 ) ;
#865 = ORIENTED_EDGE ( 'NONE', *, *, #687, .T. ) ;
#866 = CARTESIAN_POINT ( 'NONE',  ( -1.299999999999992051, -3.999999999999987121, 1.000000000000000000 ) ) ;
#867 = CARTESIAN_POINT ( 'NONE',  ( 29.70000000000000639, 24.99999999999999289, 1.000000000000000000 ) ) ;
#868 = ORIENTED_EDGE ( 'NONE', *, *, #844, .T. ) ;
#869 = VERTEX_POINT ( 'NONE', #557 ) ;
#870 = PRODUCT_RELATED_PRODUCT_CATEGORY ( 'part', '', ( #298 ) ) ;
#871 = FACE_OUTER_BOUND ( 'NONE', #474, .T. ) ;
#872 = DIRECTION ( 'NONE',  ( -1.000000000000000000, -0.000000000000000000, -0.000000000000000000 ) ) ;
#873 = VERTEX_POINT ( 'NONE', #273 ) ;
#874 = AXIS2_PLACEMENT_3D ( 'NONE', #661, #297, #538 ) ;
#875 = CIRCLE ( 'NONE', #470, 2.249999999999999112 ) ;
#876 = ORIENTED_EDGE ( 'NONE', *, *, #791, .F. ) ;
#877 = DIRECTION ( 'NONE',  ( 0.000000000000000000, 0.000000000000000000, -1.000000000000000000 ) ) ;
#878 = VECTOR ( 'NONE', #192, 1000.000000000000000 ) ;
#879 = PLANE ( 'NONE',  #874 ) ;
#880 = VERTEX_POINT ( 'NONE', #434 ) ;
#881 = ORIENTED_EDGE ( 'NONE', *, *, #113, .T. ) ;
#882 = DIRECTION ( 'NONE',  ( -0.000000000000000000, -0.000000000000000000, -1.000000000000000000 ) ) ;
#883 = DIRECTION ( 'NONE',  ( 1.000000000000000000, -0.000000000000000000, -0.000000000000000000 ) ) ;
#884 = EDGE_CURVE ( 'NONE', #501, #239, #406, .T. ) ;
#885 = ORIENTED_EDGE ( 'NONE', *, *, #222, .T. ) ;
#886 = VERTEX_POINT ( 'NONE', #280 ) ;
#887 = DIRECTION ( 'NONE',  ( 0.000000000000000000, -0.000000000000000000, -1.000000000000000000 ) ) ;
#888 = CARTESIAN_POINT ( 'NONE',  ( -1.299999999999992051, 19.00000000000001421, 1.000000000000000000 ) ) ;
#889 = ORIENTED_EDGE ( 'NONE', *, *, #213, .F. ) ;
#890 = EDGE_CURVE ( 'NONE', #260, #781, #487, .T. ) ;
#891 = EDGE_LOOP ( 'NONE', ( #322, #436, #20, #577, #279, #24 ) ) ;
#892 = MECHANICAL_DESIGN_GEOMETRIC_PRESENTATION_REPRESENTATION (  '', ( #362 ), #91 ) ;
#893 = LINE ( 'NONE', #806, #556 ) ;
#894 = CARTESIAN_POINT ( 'NONE',  ( -25.30000000000000782, -19.49999999999999645, -10.40000000000000213 ) ) ;
#895 = EDGE_LOOP ( 'NONE', ( #829, #12, #392, #294 ) ) ;
#896 = MANIFOLD_SOLID_BREP ( 'Boss-Extrude5', #510 ) ;
#897 = EDGE_CURVE ( 'NONE', #796, #342, #642, .T. ) ;
#898 = DIRECTION ( 'NONE',  ( -0.000000000000000000, -0.000000000000000000, 1.000000000000000000 ) ) ;
#899 = CARTESIAN_POINT ( 'NONE',  ( 29.70000000000000639, -20.00000000000000355, -3.787139035180583146 ) ) ;
#900 = ORIENTED_EDGE ( 'NONE', *, *, #344, .F. ) ;
#901 = DIRECTION ( 'NONE',  ( 0.000000000000000000, 1.000000000000000000, -0.000000000000000000 ) ) ;
#902 = ADVANCED_FACE ( 'NONE', ( #417 ), #925, .F. ) ;
#903 = LINE ( 'NONE', #124, #240 ) ;
#904 = CARTESIAN_POINT ( 'NONE',  ( -1.299999999999992051, 19.00000000000001421, 1.000000000000000000 ) ) ;
#905 = VECTOR ( 'NONE', #818, 1000.000000000000000 ) ;
#906 = DIRECTION ( 'NONE',  ( -1.000000000000000000, -1.084202172485504434E-16, -0.000000000000000000 ) ) ;
#907 = AXIS2_PLACEMENT_3D ( 'NONE', #696, #683, #914 ) ;
#908 = VECTOR ( 'NONE', #853, 1000.000000000000000 ) ;
#909 = VERTEX_POINT ( 'NONE', #203 ) ;
#910 = LINE ( 'NONE', #549, #283 ) ;
#911 = CARTESIAN_POINT ( 'NONE',  ( -25.29999999999999361, -3.999999999999989786, 1.000000000000000000 ) ) ;
#912 = LINE ( 'NONE', #551, #878 ) ;
#913 = EDGE_CURVE ( 'NONE', #150, #909, #437, .T. ) ;
#914 = DIRECTION ( 'NONE',  ( -1.000000000000000000, 1.371322905910519414E-16, 0.000000000000000000 ) ) ;
#915 = PLANE ( 'NONE',  #119 ) ;
#916 = ORIENTED_EDGE ( 'NONE', *, *, #630, .T. ) ;
#917 = ORIENTED_EDGE ( 'NONE', *, *, #699, .T. ) ;
#918 = EDGE_CURVE ( 'NONE', #99, #330, #864, .T. ) ;
#919 =( LENGTH_UNIT ( ) NAMED_UNIT ( * ) SI_UNIT ( .MILLI., .METRE. ) );
#920 = LINE ( 'NONE', #559, #223 ) ;
#921 = ORIENTED_EDGE ( 'NONE', *, *, #422, .T. ) ;
#922 = AXIS2_PLACEMENT_3D ( 'NONE', #546, #341, #196 ) ;
#923 = LINE ( 'NONE', #561, #209 ) ;
#924 = AXIS2_PLACEMENT_3D ( 'NONE', #396, #839, #181 ) ;
#925 = PLANE ( 'NONE',  #692 ) ;
#926 = EDGE_CURVE ( 'NONE', #909, #171, #286, .T. ) ;
#927 = DIRECTION ( 'NONE',  ( -0.000000000000000000, -0.000000000000000000, 1.000000000000000000 ) ) ;
#928 = CARTESIAN_POINT ( 'NONE',  ( -25.29999999999999361, 19.50000000000000000, -6.400000000000000355 ) ) ;
#929 = PRESENTATION_STYLE_ASSIGNMENT (( #773 ) ) ;
#930 = CARTESIAN_POINT ( 'NONE',  ( 25.30000000000000426, -19.50000000000000000, -1.593397938332554276 ) ) ;
#931 = DIRECTION ( 'NONE',  ( -1.000000000000000000, -0.000000000000000000, -0.000000000000000000 ) ) ;
#932 = ORIENTED_EDGE ( 'NONE', *, *, #506, .T. ) ;
#933 = SURFACE_STYLE_FILL_AREA ( #502 ) ;
#934 = DIRECTION ( 'NONE',  ( 0.000000000000000000, 0.000000000000000000, 1.000000000000000000 ) ) ;
#935 = CARTESIAN_POINT ( 'NONE',  ( 25.29999999999999716, 20.49999999999998934, -8.400000000000000355 ) ) ;
#936 = AXIS2_PLACEMENT_3D ( 'NONE', #8, #15, #178 ) ;
#937 = ORIENTED_EDGE ( 'NONE', *, *, #754, .T. ) ;
#938 = AXIS2_PLACEMENT_3D ( 'NONE', #54, #358, #634 ) ;
#939 = CARTESIAN_POINT ( 'NONE',  ( -25.29999999999999361, 19.50000000000000000, -6.400000000000000355 ) ) ;
#940 = CARTESIAN_POINT ( 'NONE',  ( 25.29999999999999716, 19.49999999999999645, -8.400000000000000355 ) ) ;
#941 = CARTESIAN_POINT ( 'NONE',  ( 25.29999999999999716, -20.50000000000001066, -8.400000000000000355 ) ) ;
#942 = ORIENTED_EDGE ( 'NONE', *, *, #284, .F. ) ;
#943 = EDGE_CURVE ( 'NONE', #796, #167, #713, .T. ) ;
ENDSEC;
END-ISO-10303-21;
