ISO-10303-21;
HEADER;
FILE_DESCRIPTION (( 'STEP AP214' ),
    '1' );
FILE_NAME ('rail.STEP',
    '2026-03-21T14:37:34',
    ( '' ),
    ( '' ),
    'SwSTEP 2.0',
    'SolidWorks 2026',
    '' );
FILE_SCHEMA (( 'AUTOMOTIVE_DESIGN' ));
ENDSEC;

DATA;
#1 = PLANE ( 'NONE',  #281 ) ;
#2 = ORIENTED_EDGE ( 'NONE', *, *, #23, .T. ) ;
#3 = DIRECTION ( 'NONE',  ( 1.000000000000000000, 1.369518533665900312E-16, 0.000000000000000000 ) ) ;
#4 = VERTEX_POINT ( 'NONE', #224 ) ;
#5 = DIRECTION ( 'NONE',  ( 1.000000000000000000, 0.000000000000000000, 0.000000000000000000 ) ) ;
#6 = ORIENTED_EDGE ( 'NONE', *, *, #114, .F. ) ;
#7 = AXIS2_PLACEMENT_3D ( 'NONE', #202, #293, #174 ) ;
#8 = DIRECTION ( 'NONE',  ( -1.000000000000000000, -0.000000000000000000, -0.000000000000000000 ) ) ;
#9 = VERTEX_POINT ( 'NONE', #227 ) ;
#10 = CARTESIAN_POINT ( 'NONE',  ( 7.750000000000001776, -2.806000191007825919E-16, 9.000000000000000000 ) ) ;
#11 = CARTESIAN_POINT ( 'NONE',  ( -9.499999999999998224, -3.000000000000000000, 9.000000000000000000 ) ) ;
#12 = VECTOR ( 'NONE', #8, 1000.000000000000000 ) ;
#13 = CYLINDRICAL_SURFACE ( 'NONE', #375, 1.250000000000000222 ) ;
#14 = FACE_OUTER_BOUND ( 'NONE', #62, .T. ) ;
#15 = FACE_BOUND ( 'NONE', #92, .T. ) ;
#16 = VECTOR ( 'NONE', #37, 1000.000000000000000 ) ;
#17 = VECTOR ( 'NONE', #221, 1000.000000000000000 ) ;
#18 = LINE ( 'NONE', #300, #337 ) ;
#19 = EDGE_CURVE ( 'NONE', #190, #254, #347, .T. ) ;
#20 = CARTESIAN_POINT ( 'NONE',  ( -9.499999999999998224, 3.000000000000000000, 9.000000000000000000 ) ) ;
#21 = VERTEX_POINT ( 'NONE', #38 ) ;
#22 = DIRECTION ( 'NONE',  ( -1.000000000000000000, 0.000000000000000000, 0.000000000000000000 ) ) ;
#23 = EDGE_CURVE ( 'NONE', #252, #378, #166, .T. ) ;
#24 = ORIENTED_EDGE ( 'NONE', *, *, #387, .T. ) ;
#25 = CARTESIAN_POINT ( 'NONE',  ( 6.500000000000001776, -4.336808689942017736E-16, 9.000000000000000000 ) ) ;
#26 = COLOUR_RGB ( '',0.7921568627450980005, 0.8196078431372548767, 0.9333333333333333481 ) ;
#27 = CARTESIAN_POINT ( 'NONE',  ( -7.749999999999998224, -4.336808689942017736E-16, 0.000000000000000000 ) ) ;
#28 = EDGE_LOOP ( 'NONE', ( #320, #373, #220, #157 ) ) ;
#29 = ADVANCED_FACE ( 'NONE', ( #329 ), #389, .T. ) ;
#30 = CARTESIAN_POINT ( 'NONE',  ( 15.50000000000000178, -2.999999999999996891, 6.999999999999999112 ) ) ;
#31 = ORIENTED_EDGE ( 'NONE', *, *, #266, .T. ) ;
#32 = VECTOR ( 'NONE', #83, 1000.000000000000000 ) ;
#33 = CARTESIAN_POINT ( 'NONE',  ( 15.50000000000000178, 3.000000000000002665, 6.999999999999999112 ) ) ;
#34 = EDGE_LOOP ( 'NONE', ( #365, #400, #31, #160 ) ) ;
#35 = DIRECTION ( 'NONE',  ( 0.000000000000000000, 0.000000000000000000, -1.000000000000000000 ) ) ;
#36 = ORIENTED_EDGE ( 'NONE', *, *, #114, .T. ) ;
#37 = DIRECTION ( 'NONE',  ( -0.000000000000000000, -0.000000000000000000, -1.000000000000000000 ) ) ;
#38 = CARTESIAN_POINT ( 'NONE',  ( 9.500000000000001776, 3.000000000000002665, 0.000000000000000000 ) ) ;
#39 = VECTOR ( 'NONE', #275, 1000.000000000000000 ) ;
#40 = ORIENTED_EDGE ( 'NONE', *, *, #158, .F. ) ;
#41 = DIRECTION ( 'NONE',  ( 0.000000000000000000, 0.000000000000000000, 1.000000000000000000 ) ) ;
#42 = DIRECTION ( 'NONE',  ( 1.000000000000000000, 0.000000000000000000, 0.000000000000000000 ) ) ;
#43 = CIRCLE ( 'NONE', #203, 1.250000000000000222 ) ;
#44 = DIRECTION ( 'NONE',  ( -0.000000000000000000, -0.000000000000000000, -1.000000000000000000 ) ) ;
#45 = EDGE_CURVE ( 'NONE', #323, #71, #263, .T. ) ;
#46 = CARTESIAN_POINT ( 'NONE',  ( 9.500000000000001776, -2.999999999999997335, 9.000000000000000000 ) ) ;
#47 = CARTESIAN_POINT ( 'NONE',  ( 15.50000000000000178, 0.000000000000000000, 0.000000000000000000 ) ) ;
#48 = ADVANCED_FACE ( 'NONE', ( #14 ), #110, .F. ) ;
#49 = AXIS2_PLACEMENT_3D ( 'NONE', #100, #286, #5 ) ;
#50 = ORIENTED_EDGE ( 'NONE', *, *, #376, .F. ) ;
#51 = CARTESIAN_POINT ( 'NONE',  ( 9.500000000000001776, -2.999999999999997335, 0.000000000000000000 ) ) ;
#52 = PRODUCT_RELATED_PRODUCT_CATEGORY ( 'part', '', ( #185 ) ) ;
#53 = CARTESIAN_POINT ( 'NONE',  ( -9.499999999999998224, -3.000000000000000000, 9.000000000000000000 ) ) ;
#54 = ORIENTED_EDGE ( 'NONE', *, *, #296, .T. ) ;
#55 = LINE ( 'NONE', #334, #32 ) ;
#56 = AXIS2_PLACEMENT_3D ( 'NONE', #142, #299, #233 ) ;
#57 = VERTEX_POINT ( 'NONE', #141 ) ;
#58 = ADVANCED_FACE ( 'NONE', ( #206, #295, #76 ), #173, .F. ) ;
#59 = LINE ( 'NONE', #379, #294 ) ;
#60 = ORIENTED_EDGE ( 'NONE', *, *, #311, .F. ) ;
#61 = DIRECTION ( 'NONE',  ( -1.000000000000000000, -1.369518533665900312E-16, -0.000000000000000000 ) ) ;
#62 = EDGE_LOOP ( 'NONE', ( #122, #2, #103, #40 ) ) ;
#63 = DIRECTION ( 'NONE',  ( -0.000000000000000000, -0.000000000000000000, -1.000000000000000000 ) ) ;
#64 = DIRECTION ( 'NONE',  ( -0.000000000000000000, -1.000000000000000000, -0.000000000000000000 ) ) ;
#65 = VECTOR ( 'NONE', #284, 1000.000000000000000 ) ;
#66 = ADVANCED_FACE ( 'NONE', ( #15, #138, #386 ), #358, .T. ) ;
#67 = DIRECTION ( 'NONE',  ( -1.000000000000000000, -1.369518533665900312E-16, -0.000000000000000000 ) ) ;
#68 = CARTESIAN_POINT ( 'NONE',  ( -9.499999999999998224, -3.000000000000000000, 9.000000000000000000 ) ) ;
#69 = CARTESIAN_POINT ( 'NONE',  ( -9.499999999999998224, 3.000000000000000000, 9.000000000000000000 ) ) ;
#70 = EDGE_LOOP ( 'NONE', ( #362, #36, #380, #330 ) ) ;
#71 = VERTEX_POINT ( 'NONE', #328 ) ;
#72 = CLOSED_SHELL ( 'NONE', ( #48, #247, #205, #66, #58, #182, #361, #145, #132, #384, #124, #29 ) ) ;
#73 = CARTESIAN_POINT ( 'NONE',  ( 6.500000000000001776, -4.336808689942017736E-16, 0.000000000000000000 ) ) ;
#74 = FACE_OUTER_BOUND ( 'NONE', #87, .T. ) ;
#75 = APPLICATION_PROTOCOL_DEFINITION ( 'draft international standard', 'automotive_design', 1998, #333 ) ;
#76 = FACE_BOUND ( 'NONE', #197, .T. ) ;
#77 = PRESENTATION_LAYER_ASSIGNMENT (  '', '', ( #183 ) ) ;
#78 = CARTESIAN_POINT ( 'NONE',  ( 0.000000000000000000, 0.000000000000000000, 9.000000000000000000 ) ) ;
#79 = CARTESIAN_POINT ( 'NONE',  ( -6.499999999999998224, -4.336808689942017736E-16, 9.000000000000000000 ) ) ;
#80 = PLANE ( 'NONE',  #388 ) ;
#81 = EDGE_CURVE ( 'NONE', #216, #9, #393, .T. ) ;
#82 = AXIS2_PLACEMENT_3D ( 'NONE', #47, #136, #297 ) ;
#83 = DIRECTION ( 'NONE',  ( -0.000000000000000000, -0.000000000000000000, -1.000000000000000000 ) ) ;
#84 = ORIENTED_EDGE ( 'NONE', *, *, #321, .F. ) ;
#85 = EDGE_CURVE ( 'NONE', #9, #216, #167, .T. ) ;
#86 = DIRECTION ( 'NONE',  ( 1.369518533665900312E-16, -1.000000000000000000, 0.000000000000000000 ) ) ;
#87 = EDGE_LOOP ( 'NONE', ( #24, #6, #50, #248, #178, #209 ) ) ;
#88 = ADVANCED_BREP_SHAPE_REPRESENTATION ( 'rail', ( #207, #144 ), #105 ) ;
#89 = AXIS2_PLACEMENT_3D ( 'NONE', #25, #219, #181 ) ;
#90 = DIRECTION ( 'NONE',  ( -0.000000000000000000, -0.000000000000000000, -1.000000000000000000 ) ) ;
#91 = VECTOR ( 'NONE', #61, 1000.000000000000000 ) ;
#92 = EDGE_LOOP ( 'NONE', ( #199, #98 ) ) ;
#93 = DIRECTION ( 'NONE',  ( 0.000000000000000000, 1.000000000000000000, 0.000000000000000000 ) ) ;
#94 = ORIENTED_EDGE ( 'NONE', *, *, #45, .T. ) ;
#95 = CARTESIAN_POINT ( 'NONE',  ( -9.499999999999998224, 3.000000000000000000, 0.000000000000000000 ) ) ;
#96 = EDGE_LOOP ( 'NONE', ( #351, #84, #318, #193 ) ) ;
#97 = CARTESIAN_POINT ( 'NONE',  ( -7.749999999999998224, -4.336808689942017736E-16, 9.000000000000000000 ) ) ;
#98 = ORIENTED_EDGE ( 'NONE', *, *, #119, .F. ) ;
#99 = VECTOR ( 'NONE', #391, 1000.000000000000000 ) ;
#100 = CARTESIAN_POINT ( 'NONE',  ( 6.500000000000001776, -4.336808689942017736E-16, 0.000000000000000000 ) ) ;
#101 = ORIENTED_EDGE ( 'NONE', *, *, #119, .T. ) ;
#102 = DIRECTION ( 'NONE',  ( -0.000000000000000000, -1.000000000000000000, -0.000000000000000000 ) ) ;
#103 = ORIENTED_EDGE ( 'NONE', *, *, #139, .F. ) ;
#104 = PLANE ( 'NONE',  #56 ) ;
#105 =( GEOMETRIC_REPRESENTATION_CONTEXT ( 3 ) GLOBAL_UNCERTAINTY_ASSIGNED_CONTEXT ( ( #345 ) ) GLOBAL_UNIT_ASSIGNED_CONTEXT ( ( #282, #372, #170 ) ) REPRESENTATION_CONTEXT ( 'NONE', 'WORKASPACE' ) );
#106 = DIRECTION ( 'NONE',  ( 1.000000000000000000, 0.000000000000000000, 0.000000000000000000 ) ) ;
#107 = LINE ( 'NONE', #46, #314 ) ;
#108 = SHAPE_DEFINITION_REPRESENTATION ( #338, #88 ) ;
#109 = DIRECTION ( 'NONE',  ( 0.000000000000000000, 0.000000000000000000, 1.000000000000000000 ) ) ;
#110 = CYLINDRICAL_SURFACE ( 'NONE', #7, 1.250000000000000222 ) ;
#111 = VECTOR ( 'NONE', #346, 1000.000000000000000 ) ;
#112 = DIRECTION ( 'NONE',  ( 0.000000000000000000, 0.000000000000000000, 1.000000000000000000 ) ) ;
#113 = FILL_AREA_STYLE ('',( #390 ) ) ;
#114 = EDGE_CURVE ( 'NONE', #134, #231, #107, .T. ) ;
#115 = ORIENTED_EDGE ( 'NONE', *, *, #354, .T. ) ;
#116 = DIRECTION ( 'NONE',  ( 0.000000000000000000, 1.000000000000000000, 0.000000000000000000 ) ) ;
#117 = AXIS2_PLACEMENT_3D ( 'NONE', #156, #317, #230 ) ;
#118 = DIRECTION ( 'NONE',  ( -1.000000000000000000, 0.000000000000000000, 0.000000000000000000 ) ) ;
#119 = EDGE_CURVE ( 'NONE', #57, #257, #276, .T. ) ;
#120 = ORIENTED_EDGE ( 'NONE', *, *, #325, .F. ) ;
#121 = LINE ( 'NONE', #241, #364 ) ;
#122 = ORIENTED_EDGE ( 'NONE', *, *, #260, .T. ) ;
#123 = CARTESIAN_POINT ( 'NONE',  ( 15.50000000000000178, -2.999999999999997335, 9.000000000000000000 ) ) ;
#124 = ADVANCED_FACE ( 'NONE', ( #265 ), #104, .F. ) ;
#125 = ORIENTED_EDGE ( 'NONE', *, *, #85, .F. ) ;
#126 = VERTEX_POINT ( 'NONE', #268 ) ;
#127 = APPLICATION_CONTEXT ( 'automotive_design' ) ;
#128 = ORIENTED_EDGE ( 'NONE', *, *, #188, .F. ) ;
#129 = CARTESIAN_POINT ( 'NONE',  ( 15.50000000000000178, -2.999999999999997335, 9.000000000000000000 ) ) ;
#130 = ORIENTED_EDGE ( 'NONE', *, *, #175, .F. ) ;
#131 = AXIS2_PLACEMENT_3D ( 'NONE', #261, #41, #383 ) ;
#132 = ADVANCED_FACE ( 'NONE', ( #353 ), #13, .F. ) ;
#133 = CARTESIAN_POINT ( 'NONE',  ( 15.50000000000000178, -2.999999999999996891, 6.999999999999999112 ) ) ;
#134 = VERTEX_POINT ( 'NONE', #200 ) ;
#135 = CARTESIAN_POINT ( 'NONE',  ( -6.499999999999998224, -4.336808689942017736E-16, 0.000000000000000000 ) ) ;
#136 = DIRECTION ( 'NONE',  ( 1.000000000000000000, -0.000000000000000000, 0.000000000000000000 ) ) ;
#137 =( GEOMETRIC_REPRESENTATION_CONTEXT ( 3 ) GLOBAL_UNCERTAINTY_ASSIGNED_CONTEXT ( ( #214 ) ) GLOBAL_UNIT_ASSIGNED_CONTEXT ( ( #303, #336, #184 ) ) REPRESENTATION_CONTEXT ( 'NONE', 'WORKASPACE' ) );
#138 = FACE_OUTER_BOUND ( 'NONE', #34, .T. ) ;
#139 = EDGE_CURVE ( 'NONE', #126, #378, #43, .T. ) ;
#140 = APPLICATION_PROTOCOL_DEFINITION ( 'draft international standard', 'automotive_design', 1998, #127 ) ;
#141 = CARTESIAN_POINT ( 'NONE',  ( -5.249999999999997335, -2.806000191007825919E-16, 9.000000000000000000 ) ) ;
#142 = CARTESIAN_POINT ( 'NONE',  ( 15.50000000000000178, -2.999999999999996891, 6.999999999999999112 ) ) ;
#143 = CIRCLE ( 'NONE', #89, 1.250000000000000222 ) ;
#144 = AXIS2_PLACEMENT_3D ( 'NONE', #356, #264, #106 ) ;
#145 = ADVANCED_FACE ( 'NONE', ( #74 ), #169, .F. ) ;
#146 = CARTESIAN_POINT ( 'NONE',  ( -9.499999999999998224, 3.000000000000000000, 9.000000000000000000 ) ) ;
#147 = SURFACE_STYLE_FILL_AREA ( #113 ) ;
#148 = DIRECTION ( 'NONE',  ( 1.000000000000000000, 1.369518533665900312E-16, 0.000000000000000000 ) ) ;
#149 = EDGE_CURVE ( 'NONE', #305, #4, #357, .T. ) ;
#150 = PRODUCT_DEFINITION_CONTEXT ( 'detailed design', #127, 'design' ) ;
#151 = AXIS2_PLACEMENT_3D ( 'NONE', #78, #204, #385 ) ;
#152 = CARTESIAN_POINT ( 'NONE',  ( 9.500000000000001776, -2.999999999999997335, 9.000000000000000000 ) ) ;
#153 = VERTEX_POINT ( 'NONE', #308 ) ;
#154 = DIRECTION ( 'NONE',  ( -0.000000000000000000, -0.000000000000000000, -1.000000000000000000 ) ) ;
#155 = VERTEX_POINT ( 'NONE', #211 ) ;
#156 = CARTESIAN_POINT ( 'NONE',  ( 6.500000000000001776, -4.336808689942017736E-16, 9.000000000000000000 ) ) ;
#157 = ORIENTED_EDGE ( 'NONE', *, *, #274, .F. ) ;
#158 = EDGE_CURVE ( 'NONE', #251, #126, #368, .T. ) ;
#159 = CARTESIAN_POINT ( 'NONE',  ( -7.749999999999998224, -4.336808689942017736E-16, 9.000000000000000000 ) ) ;
#160 = ORIENTED_EDGE ( 'NONE', *, *, #394, .F. ) ;
#161 = FACE_OUTER_BOUND ( 'NONE', #341, .T. ) ;
#162 = EDGE_LOOP ( 'NONE', ( #313, #218 ) ) ;
#163 = LINE ( 'NONE', #196, #111 ) ;
#164 = ORIENTED_EDGE ( 'NONE', *, *, #321, .T. ) ;
#165 = LINE ( 'NONE', #133, #232 ) ;
#166 = LINE ( 'NONE', #10, #352 ) ;
#167 = CIRCLE ( 'NONE', #131, 1.250000000000000222 ) ;
#168 = EDGE_LOOP ( 'NONE', ( #343, #396, #187, #120 ) ) ;
#169 = PLANE ( 'NONE',  #344 ) ;
#170 =( NAMED_UNIT ( * ) SI_UNIT ( $, .STERADIAN. ) SOLID_ANGLE_UNIT ( ) );
#171 = DIRECTION ( 'NONE',  ( -0.000000000000000000, -0.000000000000000000, 1.000000000000000000 ) ) ;
#172 = VECTOR ( 'NONE', #154, 1000.000000000000000 ) ;
#173 = PLANE ( 'NONE',  #255 ) ;
#174 = DIRECTION ( 'NONE',  ( -1.000000000000000000, 0.000000000000000000, 0.000000000000000000 ) ) ;
#175 = EDGE_CURVE ( 'NONE', #254, #153, #18, .T. ) ;
#176 = DIRECTION ( 'NONE',  ( 0.000000000000000000, 2.168404344971008868E-16, -1.000000000000000000 ) ) ;
#177 = VECTOR ( 'NONE', #102, 1000.000000000000000 ) ;
#178 = ORIENTED_EDGE ( 'NONE', *, *, #266, .F. ) ;
#179 = EDGE_CURVE ( 'NONE', #252, #251, #143, .T. ) ;
#180 = CYLINDRICAL_SURFACE ( 'NONE', #191, 1.250000000000000222 ) ;
#181 = DIRECTION ( 'NONE',  ( 1.000000000000000000, 0.000000000000000000, 0.000000000000000000 ) ) ;
#182 = ADVANCED_FACE ( 'NONE', ( #273 ), #80, .F. ) ;
#183 = STYLED_ITEM ( 'NONE', ( #395 ), #207 ) ;
#184 =( NAMED_UNIT ( * ) SI_UNIT ( $, .STERADIAN. ) SOLID_ANGLE_UNIT ( ) );
#185 = PRODUCT ( 'rail', 'rail', '', ( #298 ) ) ;
#186 = CARTESIAN_POINT ( 'NONE',  ( 6.500000000000001776, -4.336808689942017736E-16, 9.000000000000000000 ) ) ;
#187 = ORIENTED_EDGE ( 'NONE', *, *, #81, .F. ) ;
#188 = EDGE_CURVE ( 'NONE', #57, #9, #331, .T. ) ;
#189 = CARTESIAN_POINT ( 'NONE',  ( -9.499999999999998224, -3.000000000000000000, 9.000000000000000000 ) ) ;
#190 = VERTEX_POINT ( 'NONE', #20 ) ;
#191 = AXIS2_PLACEMENT_3D ( 'NONE', #397, #392, #118 ) ;
#192 = CARTESIAN_POINT ( 'NONE',  ( -9.499999999999998224, -3.000000000000000000, 0.000000000000000000 ) ) ;
#193 = ORIENTED_EDGE ( 'NONE', *, *, #376, .T. ) ;
#194 = LINE ( 'NONE', #33, #12 ) ;
#195 = ORIENTED_EDGE ( 'NONE', *, *, #306, .F. ) ;
#196 = CARTESIAN_POINT ( 'NONE',  ( -9.499999999999998224, -3.000000000000000000, 9.000000000000000000 ) ) ;
#197 = EDGE_LOOP ( 'NONE', ( #240, #374 ) ) ;
#198 = CIRCLE ( 'NONE', #49, 1.250000000000000222 ) ;
#199 = ORIENTED_EDGE ( 'NONE', *, *, #349, .F. ) ;
#200 = CARTESIAN_POINT ( 'NONE',  ( 9.500000000000001776, -2.999999999999997335, 6.999999999999999112 ) ) ;
#201 = DIRECTION ( 'NONE',  ( -1.369518533665900312E-16, 1.000000000000000000, 0.000000000000000000 ) ) ;
#202 = CARTESIAN_POINT ( 'NONE',  ( 6.500000000000001776, -4.336808689942017736E-16, 9.000000000000000000 ) ) ;
#203 = AXIS2_PLACEMENT_3D ( 'NONE', #73, #109, #324 ) ;
#204 = DIRECTION ( 'NONE',  ( 0.000000000000000000, 0.000000000000000000, 1.000000000000000000 ) ) ;
#205 = ADVANCED_FACE ( 'NONE', ( #208 ), #366, .F. ) ;
#206 = FACE_OUTER_BOUND ( 'NONE', #285, .T. ) ;
#207 = MANIFOLD_SOLID_BREP ( 'Boss-Extrude2', #72 ) ;
#208 = FACE_OUTER_BOUND ( 'NONE', #70, .T. ) ;
#209 = ORIENTED_EDGE ( 'NONE', *, *, #175, .T. ) ;
#210 = AXIS2_PLACEMENT_3D ( 'NONE', #152, #22, #272 ) ;
#211 = CARTESIAN_POINT ( 'NONE',  ( -9.499999999999998224, 3.000000000000000000, 0.000000000000000000 ) ) ;
#212 = ORIENTED_EDGE ( 'NONE', *, *, #81, .T. ) ;
#213 = EDGE_CURVE ( 'NONE', #316, #21, #55, .T. ) ;
#214 = UNCERTAINTY_MEASURE_WITH_UNIT (LENGTH_MEASURE( 1.000000000000000082E-05 ), #303, 'distance_accuracy_value', 'NONE');
#215 = CARTESIAN_POINT ( 'NONE',  ( 7.750000000000001776, -2.806000191007825919E-16, 9.000000000000000000 ) ) ;
#216 = VERTEX_POINT ( 'NONE', #27 ) ;
#217 = SURFACE_SIDE_STYLE ('',( #147 ) ) ;
#218 = ORIENTED_EDGE ( 'NONE', *, *, #179, .F. ) ;
#219 = DIRECTION ( 'NONE',  ( 0.000000000000000000, 0.000000000000000000, 1.000000000000000000 ) ) ;
#220 = ORIENTED_EDGE ( 'NONE', *, *, #158, .T. ) ;
#221 = DIRECTION ( 'NONE',  ( -0.000000000000000000, -1.000000000000000000, -0.000000000000000000 ) ) ;
#222 = ORIENTED_EDGE ( 'NONE', *, *, #394, .T. ) ;
#223 = DIRECTION ( 'NONE',  ( 1.000000000000000000, 0.000000000000000000, 0.000000000000000000 ) ) ;
#224 = CARTESIAN_POINT ( 'NONE',  ( 15.50000000000000178, -2.999999999999996891, 6.999999999999999112 ) ) ;
#225 = VECTOR ( 'NONE', #64, 1000.000000000000000 ) ;
#226 = LINE ( 'NONE', #95, #270 ) ;
#227 = CARTESIAN_POINT ( 'NONE',  ( -5.249999999999997335, -2.806000191007825919E-16, 0.000000000000000000 ) ) ;
#228 = CARTESIAN_POINT ( 'NONE',  ( -9.499999999999998224, 3.000000000000000000, 9.000000000000000000 ) ) ;
#229 = ORIENTED_EDGE ( 'NONE', *, *, #236, .F. ) ;
#230 = DIRECTION ( 'NONE',  ( -1.000000000000000000, 0.000000000000000000, 0.000000000000000000 ) ) ;
#231 = VERTEX_POINT ( 'NONE', #51 ) ;
#232 = VECTOR ( 'NONE', #93, 1000.000000000000000 ) ;
#233 = DIRECTION ( 'NONE',  ( 1.000000000000000000, 0.000000000000000000, -0.000000000000000000 ) ) ;
#234 = DIRECTION ( 'NONE',  ( -0.000000000000000000, -0.000000000000000000, -1.000000000000000000 ) ) ;
#235 = DIRECTION ( 'NONE',  ( -1.000000000000000000, -1.369518533665900312E-16, 0.000000000000000000 ) ) ;
#236 = EDGE_CURVE ( 'NONE', #231, #21, #121, .T. ) ;
#237 = CARTESIAN_POINT ( 'NONE',  ( 0.000000000000000000, 0.000000000000000000, 0.000000000000000000 ) ) ;
#238 = DIRECTION ( 'NONE',  ( 1.000000000000000000, 0.000000000000000000, -0.000000000000000000 ) ) ;
#239 = CARTESIAN_POINT ( 'NONE',  ( -5.249999999999997335, -2.806000191007825919E-16, 9.000000000000000000 ) ) ;
#240 = ORIENTED_EDGE ( 'NONE', *, *, #139, .T. ) ;
#241 = CARTESIAN_POINT ( 'NONE',  ( 9.500000000000001776, -2.999999999999997335, 0.000000000000000000 ) ) ;
#242 = EDGE_LOOP ( 'NONE', ( #54, #60, #195, #246, #164, #287 ) ) ;
#243 = EDGE_CURVE ( 'NONE', #134, #316, #301, .T. ) ;
#244 = CIRCLE ( 'NONE', #249, 1.250000000000000222 ) ;
#245 = CARTESIAN_POINT ( 'NONE',  ( 5.250000000000000888, -4.336808689942017736E-16, 9.000000000000000000 ) ) ;
#246 = ORIENTED_EDGE ( 'NONE', *, *, #45, .F. ) ;
#247 = ADVANCED_FACE ( 'NONE', ( #363 ), #180, .F. ) ;
#248 = ORIENTED_EDGE ( 'NONE', *, *, #149, .F. ) ;
#249 = AXIS2_PLACEMENT_3D ( 'NONE', #280, #340, #399 ) ;
#250 = CARTESIAN_POINT ( 'NONE',  ( 7.750000000000001776, -2.806000191007825919E-16, 0.000000000000000000 ) ) ;
#251 = VERTEX_POINT ( 'NONE', #245 ) ;
#252 = VERTEX_POINT ( 'NONE', #215 ) ;
#253 = DIRECTION ( 'NONE',  ( 1.000000000000000000, 0.000000000000000000, 0.000000000000000000 ) ) ;
#254 = VERTEX_POINT ( 'NONE', #53 ) ;
#255 = AXIS2_PLACEMENT_3D ( 'NONE', #237, #327, #238 ) ;
#256 = LINE ( 'NONE', #69, #91 ) ;
#257 = VERTEX_POINT ( 'NONE', #97 ) ;
#258 = CYLINDRICAL_SURFACE ( 'NONE', #117, 1.250000000000000222 ) ;
#259 = EDGE_LOOP ( 'NONE', ( #212, #290 ) ) ;
#260 = EDGE_CURVE ( 'NONE', #251, #252, #288, .T. ) ;
#261 = CARTESIAN_POINT ( 'NONE',  ( -6.499999999999998224, -4.336808689942017736E-16, 0.000000000000000000 ) ) ;
#262 = AXIS2_PLACEMENT_3D ( 'NONE', #326, #360, #381 ) ;
#263 = LINE ( 'NONE', #267, #269 ) ;
#264 = DIRECTION ( 'NONE',  ( 0.000000000000000000, 0.000000000000000000, 1.000000000000000000 ) ) ;
#265 = FACE_OUTER_BOUND ( 'NONE', #96, .T. ) ;
#266 = EDGE_CURVE ( 'NONE', #254, #305, #163, .T. ) ;
#267 = CARTESIAN_POINT ( 'NONE',  ( 15.50000000000000178, 3.000000000000002665, 9.000000000000000000 ) ) ;
#268 = CARTESIAN_POINT ( 'NONE',  ( 5.250000000000000888, -4.336808689942017736E-16, 0.000000000000000000 ) ) ;
#269 = VECTOR ( 'NONE', #171, 1000.000000000000000 ) ;
#270 = VECTOR ( 'NONE', #67, 1000.000000000000000 ) ;
#271 = EDGE_CURVE ( 'NONE', #155, #153, #342, .T. ) ;
#272 = DIRECTION ( 'NONE',  ( 0.000000000000000000, 0.000000000000000000, 1.000000000000000000 ) ) ;
#273 = FACE_OUTER_BOUND ( 'NONE', #242, .T. ) ;
#274 = EDGE_CURVE ( 'NONE', #378, #126, #198, .T. ) ;
#275 = DIRECTION ( 'NONE',  ( 0.000000000000000000, 1.000000000000000000, 0.000000000000000000 ) ) ;
#276 = CIRCLE ( 'NONE', #262, 1.250000000000000222 ) ;
#277 = CARTESIAN_POINT ( 'NONE',  ( 5.250000000000000888, -4.336808689942017736E-16, 9.000000000000000000 ) ) ;
#278 = EDGE_LOOP ( 'NONE', ( #128, #101, #367, #125 ) ) ;
#279 = CARTESIAN_POINT ( 'NONE',  ( 9.500000000000001776, -2.999999999999996891, 6.999999999999999112 ) ) ;
#280 = CARTESIAN_POINT ( 'NONE',  ( -6.499999999999998224, -4.336808689942017736E-16, 9.000000000000000000 ) ) ;
#281 = AXIS2_PLACEMENT_3D ( 'NONE', #189, #253, #35 ) ;
#282 =( LENGTH_UNIT ( ) NAMED_UNIT ( * ) SI_UNIT ( .MILLI., .METRE. ) );
#283 = ORIENTED_EDGE ( 'NONE', *, *, #311, .T. ) ;
#284 = DIRECTION ( 'NONE',  ( -1.000000000000000000, -0.000000000000000000, -0.000000000000000000 ) ) ;
#285 = EDGE_LOOP ( 'NONE', ( #302, #229, #398, #350 ) ) ;
#286 = DIRECTION ( 'NONE',  ( 0.000000000000000000, 0.000000000000000000, 1.000000000000000000 ) ) ;
#287 = ORIENTED_EDGE ( 'NONE', *, *, #213, .T. ) ;
#288 = CIRCLE ( 'NONE', #369, 1.250000000000000222 ) ;
#289 = DIRECTION ( 'NONE',  ( 0.000000000000000000, 0.000000000000000000, 1.000000000000000000 ) ) ;
#290 = ORIENTED_EDGE ( 'NONE', *, *, #85, .T. ) ;
#291 = DIRECTION ( 'NONE',  ( -0.000000000000000000, -0.000000000000000000, -1.000000000000000000 ) ) ;
#292 = PRODUCT_DEFINITION ( 'UNKNOWN', '', #359, #150 ) ;
#293 = DIRECTION ( 'NONE',  ( -0.000000000000000000, -0.000000000000000000, -1.000000000000000000 ) ) ;
#294 = VECTOR ( 'NONE', #3, 1000.000000000000000 ) ;
#295 = FACE_BOUND ( 'NONE', #259, .T. ) ;
#296 = EDGE_CURVE ( 'NONE', #21, #155, #226, .T. ) ;
#297 = DIRECTION ( 'NONE',  ( 0.000000000000000000, 0.000000000000000000, -1.000000000000000000 ) ) ;
#298 = PRODUCT_CONTEXT ( 'NONE', #333, 'mechanical' ) ;
#299 = DIRECTION ( 'NONE',  ( 0.000000000000000000, 0.000000000000000000, 1.000000000000000000 ) ) ;
#300 = CARTESIAN_POINT ( 'NONE',  ( -9.499999999999998224, -3.000000000000000000, 9.000000000000000000 ) ) ;
#301 = LINE ( 'NONE', #279, #39 ) ;
#302 = ORIENTED_EDGE ( 'NONE', *, *, #296, .F. ) ;
#303 =( LENGTH_UNIT ( ) NAMED_UNIT ( * ) SI_UNIT ( .MILLI., .METRE. ) );
#304 = SURFACE_STYLE_USAGE ( .BOTH. , #217 ) ;
#305 = VERTEX_POINT ( 'NONE', #129 ) ;
#306 = EDGE_CURVE ( 'NONE', #71, #190, #256, .T. ) ;
#307 = MECHANICAL_DESIGN_GEOMETRIC_PRESENTATION_REPRESENTATION (  '', ( #183 ), #137 ) ;
#308 = CARTESIAN_POINT ( 'NONE',  ( -9.499999999999998224, -3.000000000000000000, 0.000000000000000000 ) ) ;
#309 = ORIENTED_EDGE ( 'NONE', *, *, #19, .F. ) ;
#310 = LINE ( 'NONE', #30, #65 ) ;
#311 = EDGE_CURVE ( 'NONE', #190, #155, #315, .T. ) ;
#312 = LINE ( 'NONE', #123, #17 ) ;
#313 = ORIENTED_EDGE ( 'NONE', *, *, #260, .F. ) ;
#314 = VECTOR ( 'NONE', #291, 1000.000000000000000 ) ;
#315 = LINE ( 'NONE', #228, #401 ) ;
#316 = VERTEX_POINT ( 'NONE', #377 ) ;
#317 = DIRECTION ( 'NONE',  ( -0.000000000000000000, -0.000000000000000000, -1.000000000000000000 ) ) ;
#318 = ORIENTED_EDGE ( 'NONE', *, *, #354, .F. ) ;
#319 = CARTESIAN_POINT ( 'NONE',  ( 15.50000000000000178, 3.000000000000002665, 6.999999999999999112 ) ) ;
#320 = ORIENTED_EDGE ( 'NONE', *, *, #23, .F. ) ;
#321 = EDGE_CURVE ( 'NONE', #323, #316, #194, .T. ) ;
#322 = AXIS2_PLACEMENT_3D ( 'NONE', #135, #112, #42 ) ;
#323 = VERTEX_POINT ( 'NONE', #319 ) ;
#324 = DIRECTION ( 'NONE',  ( 1.000000000000000000, 0.000000000000000000, 0.000000000000000000 ) ) ;
#325 = EDGE_CURVE ( 'NONE', #257, #216, #348, .T. ) ;
#326 = CARTESIAN_POINT ( 'NONE',  ( -6.499999999999998224, -4.336808689942017736E-16, 9.000000000000000000 ) ) ;
#327 = DIRECTION ( 'NONE',  ( 0.000000000000000000, 0.000000000000000000, 1.000000000000000000 ) ) ;
#328 = CARTESIAN_POINT ( 'NONE',  ( 15.50000000000000178, 3.000000000000002665, 9.000000000000000000 ) ) ;
#329 = FACE_OUTER_BOUND ( 'NONE', #332, .T. ) ;
#330 = ORIENTED_EDGE ( 'NONE', *, *, #213, .F. ) ;
#331 = LINE ( 'NONE', #239, #172 ) ;
#332 = EDGE_LOOP ( 'NONE', ( #335, #115, #94, #222 ) ) ;
#333 = APPLICATION_CONTEXT ( 'automotive_design' ) ;
#334 = CARTESIAN_POINT ( 'NONE',  ( 9.500000000000001776, 3.000000000000002665, 9.000000000000000000 ) ) ;
#335 = ORIENTED_EDGE ( 'NONE', *, *, #149, .T. ) ;
#336 =( NAMED_UNIT ( * ) PLANE_ANGLE_UNIT ( ) SI_UNIT ( $, .RADIAN. ) );
#337 = VECTOR ( 'NONE', #90, 1000.000000000000000 ) ;
#338 = PRODUCT_DEFINITION_SHAPE ( 'NONE', 'NONE',  #292 ) ;
#339 = CARTESIAN_POINT ( 'NONE',  ( 15.50000000000000178, -2.999999999999997335, 9.000000000000000000 ) ) ;
#340 = DIRECTION ( 'NONE',  ( 0.000000000000000000, 0.000000000000000000, 1.000000000000000000 ) ) ;
#341 = EDGE_LOOP ( 'NONE', ( #371, #130, #309, #283 ) ) ;
#342 = LINE ( 'NONE', #192, #177 ) ;
#343 = ORIENTED_EDGE ( 'NONE', *, *, #349, .T. ) ;
#344 = AXIS2_PLACEMENT_3D ( 'NONE', #11, #201, #235 ) ;
#345 = UNCERTAINTY_MEASURE_WITH_UNIT (LENGTH_MEASURE( 1.000000000000000082E-05 ), #282, 'distance_accuracy_value', 'NONE');
#346 = DIRECTION ( 'NONE',  ( 1.000000000000000000, 1.369518533665900312E-16, 0.000000000000000000 ) ) ;
#347 = LINE ( 'NONE', #68, #225 ) ;
#348 = LINE ( 'NONE', #159, #16 ) ;
#349 = EDGE_CURVE ( 'NONE', #257, #57, #244, .T. ) ;
#350 = ORIENTED_EDGE ( 'NONE', *, *, #271, .F. ) ;
#351 = ORIENTED_EDGE ( 'NONE', *, *, #243, .T. ) ;
#352 = VECTOR ( 'NONE', #44, 1000.000000000000000 ) ;
#353 = FACE_OUTER_BOUND ( 'NONE', #278, .T. ) ;
#354 = EDGE_CURVE ( 'NONE', #4, #323, #165, .T. ) ;
#355 = DIRECTION ( 'NONE',  ( -1.000000000000000000, 0.000000000000000000, 0.000000000000000000 ) ) ;
#356 = CARTESIAN_POINT ( 'NONE',  ( 0.000000000000000000, 0.000000000000000000, 0.000000000000000000 ) ) ;
#357 = LINE ( 'NONE', #339, #382 ) ;
#358 = PLANE ( 'NONE',  #151 ) ;
#359 = PRODUCT_DEFINITION_FORMATION_WITH_SPECIFIED_SOURCE ( 'ANY', '', #185, .NOT_KNOWN. ) ;
#360 = DIRECTION ( 'NONE',  ( 0.000000000000000000, 0.000000000000000000, 1.000000000000000000 ) ) ;
#361 = ADVANCED_FACE ( 'NONE', ( #161 ), #1, .F. ) ;
#362 = ORIENTED_EDGE ( 'NONE', *, *, #243, .F. ) ;
#363 = FACE_OUTER_BOUND ( 'NONE', #168, .T. ) ;
#364 = VECTOR ( 'NONE', #116, 1000.000000000000000 ) ;
#365 = ORIENTED_EDGE ( 'NONE', *, *, #306, .T. ) ;
#366 = PLANE ( 'NONE',  #210 ) ;
#367 = ORIENTED_EDGE ( 'NONE', *, *, #325, .T. ) ;
#368 = LINE ( 'NONE', #277, #99 ) ;
#369 = AXIS2_PLACEMENT_3D ( 'NONE', #186, #289, #223 ) ;
#370 = FACE_OUTER_BOUND ( 'NONE', #28, .T. ) ;
#371 = ORIENTED_EDGE ( 'NONE', *, *, #271, .T. ) ;
#372 =( NAMED_UNIT ( * ) PLANE_ANGLE_UNIT ( ) SI_UNIT ( $, .RADIAN. ) );
#373 = ORIENTED_EDGE ( 'NONE', *, *, #179, .T. ) ;
#374 = ORIENTED_EDGE ( 'NONE', *, *, #274, .T. ) ;
#375 = AXIS2_PLACEMENT_3D ( 'NONE', #79, #234, #355 ) ;
#376 = EDGE_CURVE ( 'NONE', #4, #134, #310, .T. ) ;
#377 = CARTESIAN_POINT ( 'NONE',  ( 9.500000000000001776, 3.000000000000002665, 6.999999999999999112 ) ) ;
#378 = VERTEX_POINT ( 'NONE', #250 ) ;
#379 = CARTESIAN_POINT ( 'NONE',  ( -9.499999999999998224, -3.000000000000000000, 0.000000000000000000 ) ) ;
#380 = ORIENTED_EDGE ( 'NONE', *, *, #236, .T. ) ;
#381 = DIRECTION ( 'NONE',  ( 1.000000000000000000, 0.000000000000000000, 0.000000000000000000 ) ) ;
#382 = VECTOR ( 'NONE', #176, 1000.000000000000000 ) ;
#383 = DIRECTION ( 'NONE',  ( 1.000000000000000000, 0.000000000000000000, 0.000000000000000000 ) ) ;
#384 = ADVANCED_FACE ( 'NONE', ( #370 ), #258, .F. ) ;
#385 = DIRECTION ( 'NONE',  ( 1.000000000000000000, 0.000000000000000000, -0.000000000000000000 ) ) ;
#386 = FACE_BOUND ( 'NONE', #162, .T. ) ;
#387 = EDGE_CURVE ( 'NONE', #153, #231, #59, .T. ) ;
#388 = AXIS2_PLACEMENT_3D ( 'NONE', #146, #86, #148 ) ;
#389 = PLANE ( 'NONE',  #82 ) ;
#390 = FILL_AREA_STYLE_COLOUR ( '', #26 ) ;
#391 = DIRECTION ( 'NONE',  ( -0.000000000000000000, -0.000000000000000000, -1.000000000000000000 ) ) ;
#392 = DIRECTION ( 'NONE',  ( -0.000000000000000000, -0.000000000000000000, -1.000000000000000000 ) ) ;
#393 = CIRCLE ( 'NONE', #322, 1.250000000000000222 ) ;
#394 = EDGE_CURVE ( 'NONE', #71, #305, #312, .T. ) ;
#395 = PRESENTATION_STYLE_ASSIGNMENT (( #304 ) ) ;
#396 = ORIENTED_EDGE ( 'NONE', *, *, #188, .T. ) ;
#397 = CARTESIAN_POINT ( 'NONE',  ( -6.499999999999998224, -4.336808689942017736E-16, 9.000000000000000000 ) ) ;
#398 = ORIENTED_EDGE ( 'NONE', *, *, #387, .F. ) ;
#399 = DIRECTION ( 'NONE',  ( 1.000000000000000000, 0.000000000000000000, 0.000000000000000000 ) ) ;
#400 = ORIENTED_EDGE ( 'NONE', *, *, #19, .T. ) ;
#401 = VECTOR ( 'NONE', #63, 1000.000000000000000 ) ;
ENDSEC;
END-ISO-10303-21;
